<svg xmlns="http://www.w3.org/2000/svg" xmlns:xlink="http://www.w3.org/1999/xlink" width="400" zoomAndPan="magnify" viewBox="0 0 300 299.999988" height="400" preserveAspectRatio="xMidYMid meet" version="1.0"><defs><clipPath id="fdc0291688"><path d="M 21.378906 87.605469 L 146.359375 87.605469 L 146.359375 212.585938 L 21.378906 212.585938 Z M 21.378906 87.605469 " clip-rule="nonzero"/></clipPath><clipPath id="97c30d67e0"><path d="M 31.878906 87.605469 L 135.859375 87.605469 C 141.660156 87.605469 146.359375 92.304688 146.359375 98.105469 L 146.359375 202.085938 C 146.359375 207.886719 141.660156 212.585938 135.859375 212.585938 L 31.878906 212.585938 C 26.082031 212.585938 21.378906 207.886719 21.378906 202.085938 L 21.378906 98.105469 C 21.378906 92.304688 26.082031 87.605469 31.878906 87.605469 Z M 31.878906 87.605469 " clip-rule="nonzero"/></clipPath><clipPath id="40e541b67d"><path d="M 0.378906 0.605469 L 125.359375 0.605469 L 125.359375 125.585938 L 0.378906 125.585938 Z M 0.378906 0.605469 " clip-rule="nonzero"/></clipPath><clipPath id="6a3980ca96"><path d="M 10.878906 0.605469 L 114.859375 0.605469 C 120.660156 0.605469 125.359375 5.304688 125.359375 11.105469 L 125.359375 115.085938 C 125.359375 120.886719 120.660156 125.585938 114.859375 125.585938 L 10.878906 125.585938 C 5.082031 125.585938 0.378906 120.886719 0.378906 115.085938 L 0.378906 11.105469 C 0.378906 5.304688 5.082031 0.605469 10.878906 0.605469 Z M 10.878906 0.605469 " clip-rule="nonzero"/></clipPath><clipPath id="9ba0102a20"><rect x="0" width="126" y="0" height="126"/></clipPath><clipPath id="163c0f2ab9"><path d="M 21.378906 87.605469 L 146.628906 87.605469 L 146.628906 212.855469 L 21.378906 212.855469 Z M 21.378906 87.605469 " clip-rule="nonzero"/></clipPath><clipPath id="8732bf7cea"><path d="M 31.878906 87.605469 L 135.859375 87.605469 C 141.660156 87.605469 146.359375 92.304688 146.359375 98.105469 L 146.359375 202.085938 C 146.359375 207.882812 141.660156 212.585938 135.859375 212.585938 L 31.878906 212.585938 C 26.082031 212.585938 21.378906 207.882812 21.378906 202.085938 L 21.378906 98.105469 C 21.378906 92.304688 26.082031 87.605469 31.878906 87.605469 Z M 31.878906 87.605469 " clip-rule="nonzero"/></clipPath><clipPath id="da5acd6fe4"><path d="M 33.011719 97.679688 L 135 97.679688 L 135 205.679688 L 33.011719 205.679688 Z M 33.011719 97.679688 " clip-rule="nonzero"/></clipPath><clipPath id="72d6563798"><path d="M 6.152344 1.28125 L 98.078125 1.28125 L 98.078125 101.578125 L 6.152344 101.578125 Z M 6.152344 1.28125 " clip-rule="nonzero"/></clipPath><clipPath id="64f9e9742b"><rect x="0" width="102" y="0" height="109"/></clipPath><clipPath id="09b14ddd70"><path d="M 159.347656 87.460938 L 284.425781 87.460938 L 284.425781 212.539062 L 159.347656 212.539062 Z M 159.347656 87.460938 " clip-rule="nonzero"/></clipPath><clipPath id="6a10ab841d"><path d="M 169.847656 87.460938 L 273.925781 87.460938 C 276.710938 87.460938 279.378906 88.566406 281.351562 90.535156 C 283.320312 92.507812 284.425781 95.175781 284.425781 97.960938 L 284.425781 202.039062 C 284.425781 204.824219 283.320312 207.492188 281.351562 209.464844 C 279.378906 211.433594 276.710938 212.539062 273.925781 212.539062 L 169.847656 212.539062 C 167.0625 212.539062 164.394531 211.433594 162.421875 209.464844 C 160.453125 207.492188 159.347656 204.824219 159.347656 202.039062 L 159.347656 97.960938 C 159.347656 95.175781 160.453125 92.507812 162.421875 90.535156 C 164.394531 88.566406 167.0625 87.460938 169.847656 87.460938 Z M 169.847656 87.460938 " clip-rule="nonzero"/></clipPath><clipPath id="d1afa9f20a"><path d="M 0.347656 0.460938 L 125.425781 0.460938 L 125.425781 125.539062 L 0.347656 125.539062 Z M 0.347656 0.460938 " clip-rule="nonzero"/></clipPath><clipPath id="57c04af900"><path d="M 10.847656 0.460938 L 114.925781 0.460938 C 117.710938 0.460938 120.378906 1.566406 122.351562 3.535156 C 124.320312 5.507812 125.425781 8.175781 125.425781 10.960938 L 125.425781 115.039062 C 125.425781 117.824219 124.320312 120.492188 122.351562 122.464844 C 120.378906 124.433594 117.710938 125.539062 114.925781 125.539062 L 10.847656 125.539062 C 8.0625 125.539062 5.394531 124.433594 3.421875 122.464844 C 1.453125 120.492188 0.347656 117.824219 0.347656 115.039062 L 0.347656 10.960938 C 0.347656 8.175781 1.453125 5.507812 3.421875 3.535156 C 5.394531 1.566406 8.0625 0.460938 10.847656 0.460938 Z M 10.847656 0.460938 " clip-rule="nonzero"/></clipPath><clipPath id="89bbb4986b"><rect x="0" width="126" y="0" height="126"/></clipPath><clipPath id="4ba07aaabc"><path d="M 159.347656 87.460938 L 284.597656 87.460938 L 284.597656 212.710938 L 159.347656 212.710938 Z M 159.347656 87.460938 " clip-rule="nonzero"/></clipPath><clipPath id="63f7289817"><path d="M 169.847656 87.460938 L 273.921875 87.460938 C 276.707031 87.460938 279.378906 88.566406 281.347656 90.535156 C 283.316406 92.507812 284.421875 95.175781 284.421875 97.960938 L 284.421875 202.035156 C 284.421875 204.820312 283.316406 207.492188 281.347656 209.460938 C 279.378906 211.429688 276.707031 212.535156 273.921875 212.535156 L 169.847656 212.535156 C 167.0625 212.535156 164.390625 211.429688 162.421875 209.460938 C 160.453125 207.492188 159.347656 204.820312 159.347656 202.035156 L 159.347656 97.960938 C 159.347656 95.175781 160.453125 92.507812 162.421875 90.535156 C 164.390625 88.566406 167.0625 87.460938 169.847656 87.460938 Z M 169.847656 87.460938 " clip-rule="nonzero"/></clipPath><clipPath id="5b5688ded5"><path d="M 189.734375 99.261719 L 254.804688 99.261719 L 254.804688 201.9375 L 189.734375 201.9375 Z M 189.734375 99.261719 " clip-rule="nonzero"/></clipPath></defs><g clip-path="url(#fdc0291688)"><g clip-path="url(#97c30d67e0)"><g transform="matrix(1, 0, 0, 1, 21, 87)"><g clip-path="url(#9ba0102a20)"><g clip-path="url(#40e541b67d)"><g clip-path="url(#6a3980ca96)"><path fill="#eb7332" d="M 0.378906 0.605469 L 125.359375 0.605469 L 125.359375 125.585938 L 0.378906 125.585938 Z M 0.378906 0.605469 " fill-opacity="1" fill-rule="nonzero"/></g></g></g></g></g></g><g clip-path="url(#163c0f2ab9)"><g clip-path="url(#8732bf7cea)"><path stroke-linecap="butt" transform="matrix(0.75, 0, 0, 0.75, 21.379315, 87.604212)" fill="none" stroke-linejoin="miter" d="M 13.999457 0.00167561 L 152.640093 0.00167561 C 160.374469 0.00167561 166.640094 6.267301 166.640094 14.001677 L 166.640094 152.642313 C 166.640094 160.37148 160.374469 166.642314 152.640093 166.642314 L 13.999457 166.642314 C 6.270289 166.642314 -0.000544539 160.37148 -0.000544539 152.642313 L -0.000544539 14.001677 C -0.000544539 6.267301 6.270289 0.00167561 13.999457 0.00167561 Z M 13.999457 0.00167561 " stroke="#000000" stroke-width="6" stroke-opacity="1" stroke-miterlimit="4"/></g></g><g clip-path="url(#da5acd6fe4)"><g transform="matrix(1, 0, 0, 1, 33, 97)"><g clip-path="url(#64f9e9742b)"><path fill="#f4dec7" d="M 57.179688 44.652344 C 56.699219 40.058594 59.332031 22.574219 60.640625 15.617188 C 61.925781 8.660156 60.960938 3.304688 57.441406 2.300781 C 53.921875 1.300781 54.0625 0.679688 49.699219 5.230469 C 45.335938 9.78125 44.171875 44.109375 44.171875 44.109375 M 44.171875 44.109375 C 40.53125 35.046875 39.503906 27.367188 38.5 16.578125 C 37.492188 5.792969 32.96875 6.050781 32.96875 6.050781 C 20.761719 6.191406 26.011719 22.011719 26.574219 24.71875 C 27.136719 27.425781 30.535156 46.558594 30.535156 46.558594 C 30.535156 46.558594 28.445312 42.183594 21.75 26.726562 C 15.050781 11.265625 9.800781 14.613281 9.800781 14.613281 C -0.253906 19.527344 14.628906 38.554688 17.644531 44.890625 C 20.660156 51.230469 19.9375 62.539062 20.964844 72.34375 C 21.988281 82.148438 29.410156 88.484375 29.410156 88.484375 L 29.410156 94.863281 C 44.390625 108.679688 65.566406 95.84375 65.566406 95.84375 L 65.566406 90.933594 C 69.691406 91.273438 82.839844 78.117188 82.839844 78.117188 C 82.839844 78.117188 89.878906 71.761719 95.792969 67.089844 C 101.703125 62.417969 94.222656 59.992188 94.222656 59.992188 C 82.921875 56.964844 73.289062 68.273438 73.289062 68.273438 C 73.289062 68.273438 70.675781 55.820312 70.492188 49.90625 C 70.3125 43.988281 76.890625 31.355469 79.804688 22.65625 C 82.722656 13.953125 79.804688 13.371094 79.804688 13.371094 C 73.488281 8.660156 69.347656 13.652344 65.042969 27.207031 C 60.742188 40.761719 57.179688 44.652344 57.179688 44.652344 " fill-opacity="1" fill-rule="nonzero"/><path fill="#e0bfae" d="M 40.972656 90.75 C 40.75 91.03125 38.597656 93.558594 35.140625 93.378906 C 32.507812 93.238281 30.152344 91.574219 29.046875 89.105469 C 30.457031 89.75 32.527344 90.511719 35.140625 90.832031 C 37.515625 91.132812 39.523438 90.992188 40.972656 90.75 Z M 57.601562 92.976562 C 61.484375 92.917969 64.441406 91.695312 65.988281 90.933594 C 65.707031 91.332031 62.953125 95.121094 57.945312 95.285156 C 52.917969 95.445312 49.941406 91.8125 49.640625 91.433594 C 51.167969 92.074219 53.984375 93.039062 57.601562 92.976562 Z M 62.890625 64.882812 C 64.902344 64.605469 66.691406 65.066406 69.1875 64.023438 C 70.371094 63.519531 71.238281 62.878906 71.78125 62.417969 C 72.285156 64.363281 72.785156 66.328125 73.308594 68.273438 C 71.339844 67.53125 67.839844 66.507812 63.457031 66.828125 C 60.480469 67.050781 58.066406 67.851562 56.417969 68.535156 C 59.011719 65.90625 61.285156 65.105469 62.890625 64.882812 Z M 36.808594 69.617188 C 33.792969 68.574219 31.160156 68.574219 29.609375 68.675781 C 32.324219 66.710938 35.84375 66.347656 38.742188 67.773438 C 42.21875 69.476562 43.164062 72.964844 43.304688 73.507812 C 42.160156 72.425781 39.988281 70.699219 36.808594 69.617188 Z M 30.617188 46.957031 C 29.832031 42.164062 29.027344 37.394531 28.242188 32.601562 C 28.828125 34.804688 29.371094 36.792969 29.871094 38.496094 C 31.140625 42.847656 31.601562 43.910156 32.667969 44.652344 C 34.15625 45.695312 36.046875 45.574219 37.351562 45.3125 Z M 44.230469 44.453125 C 44.410156 40.5 44.613281 36.550781 44.792969 32.601562 C 43.867188 36.230469 44.894531 39.960938 47.46875 42.246094 C 49.820312 44.332031 52.636719 44.453125 53.519531 44.453125 Z M 62.128906 45.914062 C 62.226562 45.933594 60.820312 45.632812 60.136719 44.589844 C 59.292969 43.308594 59.9375 41.464844 60.640625 39.476562 C 61.121094 38.113281 61.6875 37.03125 62.128906 36.269531 L 57.199219 44.632812 C 58.832031 45.074219 60.480469 45.492188 62.128906 45.914062 " fill-opacity="1" fill-rule="nonzero"/><g clip-path="url(#72d6563798)"><path fill="#100f0d" d="M 30.035156 68.234375 C 29.371094 68.332031 28.707031 68.453125 28.0625 68.613281 C 28.726562 68.753906 29.371094 68.792969 30.035156 68.894531 L 31 69.035156 C 31.160156 69.054688 31.320312 69.074219 31.480469 69.09375 C 31.640625 69.117188 31.804688 69.15625 31.964844 69.175781 C 32.285156 69.234375 32.585938 69.296875 32.910156 69.335938 C 33.230469 69.394531 33.53125 69.476562 33.855469 69.535156 C 34.476562 69.65625 35.082031 69.835938 35.703125 69.976562 C 36.929688 70.320312 38.117188 70.738281 39.285156 71.242188 C 40.449219 71.742188 41.597656 72.324219 42.722656 73.046875 C 42 71.921875 40.914062 71.039062 39.785156 70.320312 C 38.640625 69.597656 37.375 69.074219 36.066406 68.695312 C 35.402344 68.535156 34.757812 68.375 34.074219 68.292969 C 33.734375 68.253906 33.410156 68.191406 33.070312 68.171875 C 32.726562 68.152344 32.40625 68.132812 32.0625 68.132812 C 31.722656 68.113281 31.402344 68.132812 31.058594 68.152344 Z M 7.328125 22.472656 C 7.710938 24.539062 8.457031 26.546875 9.339844 28.488281 C 9.78125 29.453125 10.285156 30.394531 10.828125 31.316406 C 11.351562 32.238281 11.933594 33.121094 12.539062 34.042969 C 13.703125 35.867188 14.828125 37.734375 15.835938 39.660156 C 16.863281 41.582031 17.765625 43.570312 18.511719 45.632812 C 19.253906 47.699219 19.777344 49.84375 20.078125 52.03125 C 20.21875 53.113281 20.320312 54.238281 20.339844 55.320312 L 20.398438 58.566406 C 20.441406 60.714844 20.519531 62.859375 20.660156 65.003906 C 20.964844 69.277344 21.546875 73.546875 22.8125 77.617188 C 23.457031 79.644531 24.28125 81.609375 25.386719 83.390625 C 26.472656 85.195312 27.882812 86.78125 29.550781 88.023438 C 30.394531 88.644531 31.320312 89.148438 32.285156 89.546875 C 33.25 89.949219 34.277344 90.230469 35.324219 90.429688 C 36.367188 90.609375 37.433594 90.710938 38.5 90.730469 C 39.566406 90.730469 40.652344 90.671875 41.738281 90.570312 C 40.671875 90.8125 39.605469 90.992188 38.519531 91.09375 C 37.433594 91.171875 36.328125 91.171875 35.222656 91.03125 C 33.472656 90.832031 31.722656 90.308594 30.152344 89.46875 C 30.113281 90.371094 30.074219 91.253906 30.054688 92.15625 L 29.953125 95.542969 C 31.160156 96.367188 32.445312 97.109375 33.773438 97.75 C 35.179688 98.429688 36.648438 99.011719 38.15625 99.496094 C 41.171875 100.4375 44.332031 100.917969 47.488281 100.898438 C 49.078125 100.898438 50.644531 100.757812 52.214844 100.535156 C 53.78125 100.296875 55.3125 99.914062 56.820312 99.453125 C 59.714844 98.53125 62.488281 97.207031 64.984375 95.523438 C 64.941406 94.320312 64.902344 93.117188 64.863281 91.894531 C 63.214844 92.496094 61.484375 92.9375 59.734375 93.199219 C 57.84375 93.457031 55.894531 93.519531 54.003906 93.199219 C 52.113281 92.855469 50.285156 92.113281 48.816406 90.933594 C 50.625 91.511719 52.375 91.914062 54.164062 92.09375 C 55.953125 92.296875 57.765625 92.253906 59.554688 91.976562 C 63.132812 91.394531 66.550781 89.96875 69.730469 88.203125 C 72.925781 86.421875 75.882812 84.214844 78.597656 81.75 C 79.945312 80.503906 81.230469 79.203125 82.359375 77.796875 C 83.542969 76.292969 84.933594 74.992188 86.378906 73.789062 C 87.828125 72.585938 89.355469 71.480469 90.867188 70.417969 C 92.375 69.335938 93.882812 68.273438 95.167969 67.03125 C 95.8125 66.410156 96.355469 65.726562 96.695312 64.964844 C 96.878906 64.582031 96.957031 64.203125 96.976562 63.800781 C 97 63.402344 96.9375 63.019531 96.796875 62.660156 C 96.65625 62.296875 96.433594 61.976562 96.152344 61.695312 C 95.871094 61.414062 95.53125 61.175781 95.148438 60.972656 C 94.402344 60.574219 93.539062 60.332031 92.675781 60.171875 C 90.925781 59.871094 89.074219 59.890625 87.285156 60.132812 C 86.378906 60.253906 85.496094 60.433594 84.652344 60.714844 C 84.230469 60.855469 83.804688 60.996094 83.402344 61.175781 L 82.800781 61.457031 C 82.601562 61.554688 82.398438 61.65625 82.199219 61.777344 C 80.609375 62.636719 79.140625 63.742188 77.734375 64.90625 C 76.324219 66.085938 74.980469 67.351562 73.730469 68.675781 L 73.511719 68.914062 L 73.207031 68.835938 L 71.742188 68.453125 C 71.257812 68.332031 70.753906 68.234375 70.273438 68.113281 C 69.789062 68.011719 69.289062 67.933594 68.804688 67.832031 L 67.316406 67.613281 C 65.34375 67.351562 63.335938 67.289062 61.363281 67.472656 C 59.394531 67.671875 57.441406 68.132812 55.671875 68.996094 C 54.789062 69.4375 53.945312 69.9375 53.160156 70.539062 C 52.375 71.140625 51.628906 71.800781 50.96875 72.585938 C 51.347656 71.621094 52.011719 70.800781 52.757812 70.058594 C 53.5 69.335938 54.367188 68.734375 55.289062 68.234375 C 57.140625 67.25 59.191406 66.667969 61.242188 66.410156 C 63.316406 66.148438 65.40625 66.226562 67.457031 66.46875 C 67.960938 66.546875 68.484375 66.609375 68.984375 66.710938 C 69.488281 66.808594 69.992188 66.910156 70.492188 67.011719 C 70.996094 67.128906 71.5 67.25 72.003906 67.371094 L 72.6875 67.570312 C 72.144531 65.765625 71.660156 63.960938 71.257812 62.117188 C 70.796875 59.992188 70.433594 57.847656 70.210938 55.679688 C 69.992188 53.515625 69.910156 51.328125 70.089844 49.125 C 70.171875 48.019531 70.332031 46.9375 70.59375 45.855469 C 70.835938 44.773438 71.238281 43.710938 71.660156 42.726562 C 73.289062 38.714844 75.058594 34.785156 76.605469 30.757812 C 77.390625 28.75 78.113281 26.726562 78.738281 24.679688 C 79.363281 22.636719 79.886719 20.550781 80.105469 18.464844 C 80.167969 17.421875 80.1875 16.378906 80.007812 15.394531 C 79.824219 14.414062 79.421875 13.511719 78.679688 12.988281 C 78.296875 12.730469 77.894531 12.546875 77.371094 12.449219 C 76.890625 12.308594 76.386719 12.246094 75.882812 12.226562 C 74.878906 12.1875 73.890625 12.410156 73.007812 12.871094 C 72.121094 13.332031 71.359375 14.03125 70.695312 14.816406 C 70.03125 15.617188 69.488281 16.5 68.984375 17.441406 C 67.980469 19.304688 67.257812 21.332031 66.59375 23.355469 C 65.929688 25.402344 65.386719 27.488281 64.800781 29.574219 C 64.5 30.617188 64.21875 31.65625 63.859375 32.699219 C 63.515625 33.742188 63.054688 34.746094 62.628906 35.730469 C 61.746094 37.714844 60.742188 39.640625 59.632812 41.503906 C 59.515625 41.722656 59.351562 41.984375 59.171875 42.207031 L 58.667969 42.847656 C 58.347656 43.269531 58.003906 43.6875 57.742188 44.128906 C 57.683594 44.230469 57.625 44.351562 57.5625 44.472656 C 57.542969 44.53125 57.503906 44.589844 57.503906 44.632812 L 57.484375 44.671875 C 59.132812 45.011719 60.761719 45.453125 62.347656 46.015625 C 59.332031 45.574219 56.335938 45.234375 53.320312 45.09375 C 51.8125 45.03125 50.304688 44.972656 48.816406 44.992188 C 47.308594 44.992188 45.820312 45.054688 44.3125 45.171875 C 42.804688 45.253906 41.3125 45.414062 39.828125 45.613281 C 38.339844 45.792969 36.851562 46.054688 35.363281 46.316406 C 32.40625 46.878906 29.46875 47.640625 26.554688 48.480469 C 29.269531 47.097656 32.164062 46.054688 35.140625 45.273438 C 37.9375 44.550781 40.792969 44.070312 43.667969 43.828125 L 43.628906 43.710938 C 42.78125 41.703125 42.039062 39.660156 41.355469 37.613281 C 40.671875 35.546875 40.089844 33.441406 39.6875 31.296875 C 38.859375 27.027344 38.539062 22.695312 38.175781 18.402344 C 37.996094 16.257812 37.796875 14.132812 37.253906 12.085938 C 36.992188 11.066406 36.628906 10.082031 36.144531 9.199219 C 35.644531 8.316406 35 7.535156 34.175781 7.09375 C 33.351562 6.632812 32.367188 6.554688 31.402344 6.695312 C 30.394531 6.855469 29.429688 7.195312 28.625 7.734375 C 27.820312 8.277344 27.179688 9.039062 26.753906 9.941406 C 26.3125 10.824219 26.089844 11.847656 25.972656 12.871094 C 25.730469 14.933594 25.929688 17.058594 26.210938 19.164062 C 26.515625 21.269531 26.9375 23.375 27.398438 25.480469 C 27.882812 27.585938 28.34375 29.714844 28.746094 31.839844 C 29.167969 33.964844 29.550781 36.089844 29.832031 38.234375 C 30.113281 40.378906 30.335938 42.527344 30.574219 44.691406 L 30.777344 46.296875 L 30.796875 46.496094 L 30.816406 46.597656 C 30.09375 47.058594 30.457031 46.515625 30.355469 46.65625 L 30.175781 46.296875 L 29.832031 45.574219 C 29.371094 44.589844 28.886719 43.628906 28.402344 42.667969 C 27.4375 40.742188 26.453125 38.816406 25.570312 36.832031 C 24.683594 34.867188 23.800781 32.882812 22.972656 30.875 C 22.152344 28.871094 21.347656 26.867188 20.621094 24.820312 L 20.078125 23.296875 L 19.796875 22.554688 L 19.476562 21.832031 C 19.035156 20.871094 18.53125 19.929688 17.96875 19.046875 C 17.382812 18.164062 16.722656 17.339844 15.957031 16.640625 C 15.191406 15.9375 14.328125 15.355469 13.382812 15.015625 C 12.4375 14.675781 11.410156 14.632812 10.488281 14.933594 C 10.023438 15.074219 9.582031 15.316406 9.160156 15.597656 C 8.757812 15.878906 8.414062 16.21875 8.132812 16.621094 C 7.570312 17.421875 7.308594 18.402344 7.207031 19.425781 C 7.046875 20.410156 7.148438 21.453125 7.328125 22.472656 Z M 57.460938 44.632812 Z M 57.925781 29.273438 C 58.40625 24.960938 59.433594 20.730469 60.097656 16.5 C 60.257812 15.4375 60.417969 14.375 60.519531 13.3125 C 60.621094 12.269531 60.640625 11.207031 60.578125 10.140625 C 60.519531 9.078125 60.378906 8.035156 60.117188 7.035156 C 59.855469 6.03125 59.472656 5.050781 58.890625 4.226562 C 58.328125 3.40625 57.523438 2.785156 56.597656 2.484375 C 56.136719 2.34375 55.632812 2.28125 55.128906 2.261719 C 54.625 2.261719 54.125 2.320312 53.621094 2.441406 C 52.65625 2.621094 51.8125 3.183594 51.148438 3.945312 C 50.484375 4.707031 49.960938 5.628906 49.539062 6.574219 C 48.714844 8.5 48.210938 10.605469 47.75 12.6875 C 47.308594 14.792969 46.90625 16.898438 46.5625 19.027344 C 45.878906 23.277344 45.398438 27.546875 45.054688 31.859375 C 44.894531 34.003906 44.753906 36.148438 44.671875 38.316406 C 44.613281 39.398438 44.59375 40.460938 44.550781 41.542969 L 44.511719 43.167969 L 44.492188 43.75 C 45.921875 43.667969 47.347656 43.628906 48.777344 43.667969 C 50.304688 43.710938 51.851562 43.808594 53.359375 43.988281 C 54.546875 44.128906 55.714844 44.3125 56.878906 44.550781 L 56.917969 43.851562 L 57 42.226562 C 57.242188 37.894531 57.460938 33.5625 57.925781 29.273438 Z M 30.675781 46.417969 C 30.617188 46.535156 30.777344 46.394531 30.675781 46.417969 Z M 6.183594 19.304688 C 6.285156 18.183594 6.585938 17.019531 7.289062 16.039062 C 7.628906 15.554688 8.074219 15.136719 8.554688 14.792969 C 9.039062 14.472656 9.5625 14.191406 10.125 14.011719 C 11.25 13.652344 12.496094 13.710938 13.605469 14.113281 C 14.710938 14.515625 15.65625 15.175781 16.480469 15.9375 C 17.304688 16.699219 18.007812 17.582031 18.609375 18.503906 C 19.214844 19.425781 19.738281 20.410156 20.179688 21.410156 L 20.5 22.171875 L 20.800781 22.9375 L 21.347656 24.460938 C 22.070312 26.484375 22.875 28.46875 23.71875 30.457031 C 24.5625 32.441406 25.425781 34.425781 26.292969 36.390625 C 27.15625 38.355469 27.980469 40.359375 28.847656 42.347656 C 29.25 43.289062 29.671875 44.230469 30.113281 45.152344 C 30.09375 44.992188 30.054688 44.832031 30.035156 44.671875 C 29.671875 42.546875 29.207031 40.441406 28.785156 38.316406 C 28.34375 36.210938 27.960938 34.085938 27.539062 31.980469 C 27.117188 29.875 26.675781 27.769531 26.171875 25.664062 C 25.6875 23.558594 25.246094 21.410156 24.945312 19.246094 C 24.785156 18.164062 24.683594 17.082031 24.625 15.976562 C 24.582031 14.875 24.582031 13.75 24.722656 12.648438 C 24.863281 11.527344 25.125 10.402344 25.648438 9.359375 C 26.152344 8.296875 26.957031 7.355469 27.941406 6.695312 C 28.945312 6.050781 30.074219 5.671875 31.199219 5.492188 C 32.347656 5.308594 33.632812 5.429688 34.71875 6.050781 C 35.785156 6.652344 36.546875 7.617188 37.113281 8.617188 C 37.65625 9.621094 38.015625 10.703125 38.277344 11.765625 C 38.820312 13.914062 39 16.117188 39.164062 18.261719 C 39.484375 22.574219 39.785156 26.867188 40.550781 31.078125 C 40.933594 33.183594 41.457031 35.265625 42.097656 37.3125 C 42.421875 38.335938 42.761719 39.359375 43.125 40.378906 C 43.367188 41.082031 43.648438 41.765625 43.910156 42.445312 L 43.929688 41.484375 C 43.96875 40.402344 43.96875 39.316406 44.027344 38.234375 C 44.089844 36.070312 44.230469 33.925781 44.371094 31.757812 C 44.671875 27.449219 45.136719 23.136719 45.800781 18.863281 C 46.121094 16.71875 46.523438 14.59375 46.945312 12.46875 C 47.386719 10.34375 47.890625 8.21875 48.753906 6.171875 C 49.199219 5.148438 49.742188 4.167969 50.503906 3.285156 C 50.886719 2.863281 51.328125 2.460938 51.832031 2.140625 C 52.335938 1.820312 52.898438 1.601562 53.480469 1.480469 C 54.042969 1.359375 54.605469 1.28125 55.191406 1.28125 C 55.773438 1.28125 56.355469 1.359375 56.941406 1.539062 C 58.085938 1.902344 59.050781 2.703125 59.695312 3.644531 C 60.359375 4.609375 60.761719 5.671875 61.042969 6.753906 C 61.324219 7.835938 61.464844 8.9375 61.503906 10.042969 C 61.566406 11.144531 61.523438 12.246094 61.40625 13.332031 C 61.285156 14.414062 61.121094 15.496094 60.921875 16.558594 C 60.175781 20.832031 59.09375 25.019531 58.570312 29.273438 C 58.027344 33.542969 57.824219 37.855469 57.601562 42.164062 L 57.542969 43.46875 C 57.785156 43.109375 58.027344 42.765625 58.289062 42.425781 L 58.769531 41.785156 C 58.929688 41.5625 59.050781 41.363281 59.191406 41.121094 C 60.257812 39.257812 61.242188 37.351562 62.109375 35.386719 C 62.550781 34.40625 62.953125 33.421875 63.273438 32.398438 C 63.597656 31.378906 63.878906 30.335938 64.140625 29.292969 C 64.683594 27.207031 65.203125 25.101562 65.828125 23.015625 C 66.453125 20.929688 67.175781 18.863281 68.179688 16.898438 C 68.683594 15.917969 69.246094 14.953125 69.972656 14.09375 C 70.675781 13.230469 71.539062 12.429688 72.566406 11.867188 C 73.589844 11.304688 74.777344 11.023438 75.941406 11.085938 C 76.527344 11.105469 77.109375 11.183594 77.652344 11.324219 C 78.195312 11.425781 78.820312 11.667969 79.320312 12.027344 C 79.824219 12.386719 80.246094 12.890625 80.527344 13.429688 C 80.808594 13.972656 80.992188 14.554688 81.089844 15.117188 C 81.292969 16.257812 81.273438 17.382812 81.152344 18.484375 C 80.910156 20.691406 80.367188 22.816406 79.746094 24.902344 C 79.101562 26.984375 78.375 29.03125 77.59375 31.058594 C 76.808594 33.082031 75.984375 35.085938 75.140625 37.070312 C 74.292969 39.058594 73.429688 41.042969 72.605469 43.027344 C 72.183594 44.03125 71.820312 44.992188 71.578125 46.015625 C 71.316406 47.039062 71.175781 48.082031 71.097656 49.144531 C 70.914062 51.25 70.996094 53.394531 71.175781 55.519531 C 71.378906 57.644531 71.699219 59.769531 72.144531 61.875 C 72.523438 63.703125 72.96875 65.546875 73.488281 67.332031 C 74.617188 66.167969 75.800781 65.066406 77.050781 64.023438 C 78.496094 62.820312 80.007812 61.675781 81.695312 60.773438 C 81.917969 60.652344 82.117188 60.53125 82.339844 60.433594 L 83.003906 60.132812 C 83.445312 59.929688 83.90625 59.769531 84.371094 59.628906 C 85.292969 59.351562 86.21875 59.148438 87.164062 59.027344 C 89.054688 58.769531 90.984375 58.75 92.894531 59.070312 C 93.839844 59.25 94.804688 59.511719 95.691406 59.992188 C 96.132812 60.230469 96.574219 60.511719 96.9375 60.894531 C 97.320312 61.273438 97.621094 61.714844 97.824219 62.238281 C 98.226562 63.261719 98.125 64.402344 97.703125 65.34375 C 97.28125 66.289062 96.636719 67.070312 95.953125 67.75 C 94.566406 69.09375 93.035156 70.179688 91.546875 71.28125 C 90.039062 72.363281 88.550781 73.464844 87.164062 74.628906 C 85.757812 75.8125 84.46875 77.097656 83.363281 78.519531 C 82.199219 80.023438 80.871094 81.367188 79.503906 82.671875 C 76.746094 85.238281 73.710938 87.484375 70.433594 89.347656 C 69.125 90.089844 67.777344 90.75 66.410156 91.3125 C 66.351562 92.816406 66.289062 94.320312 66.25 95.824219 L 66.25 96.164062 L 65.988281 96.324219 C 63.214844 98.03125 60.238281 99.355469 57.121094 100.234375 C 54.023438 101.136719 50.785156 101.578125 47.570312 101.578125 C 45.960938 101.558594 44.351562 101.480469 42.742188 101.238281 C 41.152344 101 39.566406 100.65625 38.015625 100.214844 C 34.921875 99.3125 31.945312 97.992188 29.1875 96.285156 L 28.945312 96.144531 L 28.945312 95.84375 L 28.847656 92.175781 C 28.804688 90.953125 28.765625 89.75 28.707031 88.527344 C 27.015625 87.300781 25.628906 85.699219 24.523438 83.953125 C 23.355469 82.070312 22.492188 80.023438 21.808594 77.9375 C 20.480469 73.746094 19.878906 69.417969 19.554688 65.085938 C 19.394531 62.917969 19.316406 60.753906 19.273438 58.589844 L 19.214844 55.359375 C 19.195312 54.277344 19.113281 53.253906 18.992188 52.191406 C 18.710938 50.085938 18.207031 48.019531 17.503906 46.015625 C 16.800781 44.011719 15.917969 42.066406 14.929688 40.160156 C 13.945312 38.253906 12.839844 36.410156 11.691406 34.585938 C 11.128906 33.683594 10.527344 32.761719 9.984375 31.796875 C 9.441406 30.855469 8.9375 29.875 8.476562 28.871094 C 7.570312 26.886719 6.804688 24.800781 6.425781 22.613281 C 6.183594 21.550781 6.101562 20.429688 6.183594 19.304688 " fill-opacity="1" fill-rule="nonzero"/></g></g></g></g><g clip-path="url(#09b14ddd70)"><g clip-path="url(#6a10ab841d)"><g transform="matrix(1, 0, 0, 1, 159, 87)"><g clip-path="url(#89bbb4986b)"><g clip-path="url(#d1afa9f20a)"><g clip-path="url(#57c04af900)"><path fill="#eb7332" d="M 0.347656 0.460938 L 125.425781 0.460938 L 125.425781 125.539062 L 0.347656 125.539062 Z M 0.347656 0.460938 " fill-opacity="1" fill-rule="nonzero"/></g></g></g></g></g></g><g clip-path="url(#4ba07aaabc)"><g clip-path="url(#63f7289817)"><path stroke-linecap="butt" transform="matrix(0.75, 0, 0, 0.75, 159.348113, 87.461477)" fill="none" stroke-linejoin="miter" d="M 13.999391 -0.000719143 L 152.765019 -0.000719143 C 156.47856 -0.000719143 160.041061 1.473239 162.666061 4.098239 C 165.291061 6.728448 166.765019 10.285739 166.765019 13.999281 L 166.765019 152.764909 C 166.765019 156.47845 165.291061 160.04095 162.666061 162.66595 C 160.041061 165.29095 156.47856 166.764909 152.765019 166.764909 L 13.999391 166.764909 C 10.28585 166.764909 6.723349 165.29095 4.098349 162.66595 C 1.473349 160.04095 -0.000608982 156.47845 -0.000608982 152.764909 L -0.000608982 13.999281 C -0.000608982 10.285739 1.473349 6.728448 4.098349 4.098239 C 6.723349 1.473239 10.28585 -0.000719143 13.999391 -0.000719143 Z M 13.999391 -0.000719143 " stroke="#000000" stroke-width="6" stroke-opacity="1" stroke-miterlimit="4"/></g></g><path fill="#f4dfc8" d="M 214.234375 144.238281 L 214.03125 118.191406 C 214.03125 118.191406 215.03125 104.109375 218.363281 100.929688 C 226.578125 95.878906 228.707031 109.015625 228.707031 109.015625 L 228.707031 143.867188 M 228.707031 143.867188 C 230.179688 143.292969 233.855469 123.9375 235.390625 115.542969 C 236.921875 107.148438 240.847656 103.574219 240.847656 103.574219 C 251.355469 97.621094 251.578125 110.738281 251.578125 110.738281 L 244.933594 133.914062 L 242.238281 145.65625 C 245.546875 142.472656 250.699219 145.46875 253.542969 147.890625 C 257.976562 155.035156 247.714844 165.320312 247.714844 165.320312 C 248.308594 182.847656 238.804688 188.269531 238.804688 188.269531 L 239.355469 195.019531 C 228.910156 201.527344 227.191406 200.828125 219.242188 201.570312 C 211.292969 202.308594 201.539062 195.019531 201.539062 195.019531 L 202.011719 187.898438 C 202.011719 187.898438 198.167969 183.402344 196.246094 178.027344 C 194.324219 172.667969 197.820312 166.039062 197.820312 166.039062 C 197.820312 166.039062 198.761719 155.34375 198.578125 150.847656 C 198.394531 146.351562 191.628906 121.804688 191.628906 121.804688 L 190.503906 113.386719 C 192.160156 103.433594 198.371094 104.234375 202.441406 107.515625 C 206.507812 110.800781 210.699219 137.011719 211.230469 139.3125 C 211.761719 141.589844 214.234375 144.238281 214.234375 144.238281 " fill-opacity="1" fill-rule="nonzero"/><path fill="#e0bfaf" d="M 214.234375 144.238281 C 213.539062 143.480469 212.722656 142.410156 212.027344 141.058594 C 210.554688 138.140625 210.472656 135.414062 210.535156 133.914062 C 210.414062 134.097656 210.207031 134.425781 210.003906 134.859375 C 208.714844 137.589844 209.800781 139.597656 209.125 142.207031 C 208.921875 143.027344 208.449219 144.21875 207.285156 145.53125 C 209.59375 145.082031 211.90625 144.648438 214.234375 144.238281 Z M 242.953125 169.015625 C 241.152344 169.835938 237.71875 171.414062 235.125 169.691406 C 232.652344 168.027344 232.609375 164.496094 232.609375 163.984375 L 223.125 166.550781 L 218.894531 174.207031 C 220.46875 173.835938 222.492188 173.179688 224.71875 172.03125 C 226.988281 170.839844 228.707031 169.507812 229.910156 168.398438 C 230.585938 171.3125 231.914062 172.359375 232.550781 172.730469 C 235.921875 174.742188 242.402344 172.175781 247.714844 165.320312 C 246.898438 166.304688 245.34375 167.90625 242.953125 169.015625 Z M 212.824219 190.585938 C 207.898438 190.382812 204.136719 188.90625 202.011719 187.878906 C 204.054688 191.984375 208.183594 194.652344 212.742188 194.816406 C 217.28125 194.980469 221.570312 192.660156 223.921875 188.761719 C 221.714844 189.644531 217.789062 190.8125 212.824219 190.585938 Z M 230.976562 188.820312 C 231.136719 188.964844 233.835938 191.078125 236.800781 189.972656 C 238.191406 189.457031 239.007812 188.453125 239.355469 187.9375 C 238.621094 188.390625 237.433594 188.984375 235.820312 189.253906 C 233.613281 189.621094 231.855469 189.128906 230.976562 188.820312 Z M 232.609375 132.105469 C 231.996094 134.285156 231.445312 137.136719 231.484375 140.523438 C 231.507812 142 231.648438 143.375 231.832031 144.585938 C 230.628906 144.585938 229.421875 144.585938 228.214844 144.585938 L 232.609375 132.105469 " fill-opacity="1" fill-rule="nonzero"/><g clip-path="url(#5b5688ded5)"><path fill="#100f0d" d="M 253.886719 152.984375 C 253.601562 155.28125 252.765625 157.539062 251.621094 159.59375 C 251.046875 160.617188 250.394531 161.605469 249.675781 162.546875 C 248.960938 163.472656 248.164062 164.355469 247.328125 165.175781 C 245.632812 166.796875 243.710938 168.191406 241.5625 169.15625 L 240.746094 169.507812 C 240.480469 169.609375 240.214844 169.691406 239.949219 169.792969 L 239.742188 169.855469 L 239.128906 169.976562 C 238.863281 170.0625 238.578125 170.039062 238.292969 170.0625 C 237.1875 170.101562 236.066406 169.792969 235.164062 169.179688 C 234.265625 168.5625 233.589844 167.617188 233.285156 166.570312 C 233 165.648438 233.039062 164.621094 233.386719 163.71875 C 234.734375 162.957031 236.023438 162.097656 237.1875 161.070312 C 238.191406 160.1875 239.109375 159.183594 239.824219 158.03125 C 240.539062 156.882812 241.074219 155.570312 241.277344 154.214844 C 241.316406 153.863281 241.339844 153.539062 241.378906 153.1875 C 241.398438 152.839844 241.378906 152.511719 241.378906 152.164062 C 241.339844 151.484375 241.277344 150.828125 241.132812 150.148438 C 240.96875 149.472656 240.785156 148.796875 240.378906 148.160156 C 240.355469 148.117188 240.335938 148.078125 240.296875 148.035156 C 240.316406 148.015625 240.316406 147.996094 240.335938 147.972656 C 240.398438 147.871094 240.5 147.769531 240.582031 147.644531 C 240.746094 147.441406 240.929688 147.234375 241.132812 147.050781 C 241.316406 146.84375 241.542969 146.679688 241.746094 146.515625 C 241.972656 146.351562 242.195312 146.210938 242.421875 146.066406 C 243.363281 145.511719 244.445312 145.203125 245.570312 145.101562 C 246.695312 145.019531 247.835938 145.164062 248.941406 145.429688 C 249.226562 145.492188 249.492188 145.59375 249.78125 145.675781 C 250.046875 145.757812 250.351562 145.839844 250.597656 145.941406 L 251.148438 146.1875 L 251.332031 146.292969 L 251.679688 146.496094 C 251.804688 146.558594 251.886719 146.660156 252.007812 146.742188 C 252.4375 147.070312 252.765625 147.523438 253.070312 147.972656 C 253.335938 148.46875 253.5625 148.980469 253.683594 149.515625 C 254.011719 150.664062 254.03125 151.832031 253.886719 152.984375 Z M 223.003906 167.597656 Z M 246.46875 173.613281 C 245.976562 176.339844 245.261719 179.070312 244.117188 181.574219 C 243.546875 182.828125 242.851562 184.039062 242.011719 185.105469 C 241.152344 186.175781 240.152344 187.117188 238.96875 187.796875 C 237.800781 188.472656 236.472656 188.882812 235.125 189.027344 C 233.753906 189.171875 232.386719 189.007812 230.976562 188.84375 C 231.300781 188.964844 231.648438 189.046875 231.976562 189.152344 C 232.140625 189.191406 232.324219 189.253906 232.488281 189.292969 L 233.019531 189.375 C 233.367188 189.4375 233.714844 189.5 234.082031 189.519531 L 235.144531 189.539062 C 236.410156 189.457031 237.679688 189.152344 238.84375 188.597656 L 238.886719 194.816406 C 236.289062 196.828125 233.386719 198.429688 230.300781 199.515625 C 227.152344 200.644531 223.800781 201.21875 220.449219 201.242188 L 219.816406 201.242188 L 219.179688 201.199219 L 217.933594 201.136719 C 217.097656 201.035156 216.257812 200.972656 215.441406 200.808594 C 213.785156 200.542969 212.167969 200.089844 210.574219 199.535156 C 207.46875 198.449219 204.523438 196.867188 201.910156 194.855469 L 201.929688 188.535156 C 204.054688 190.074219 206.589844 190.996094 209.144531 191.367188 C 210.453125 191.550781 211.761719 191.632812 213.070312 191.59375 C 214.378906 191.550781 215.664062 191.386719 216.953125 191.164062 C 219.507812 190.667969 222 189.929688 224.289062 188.699219 C 223.042969 189.066406 221.839844 189.480469 220.613281 189.808594 C 219.386719 190.136719 218.140625 190.445312 216.871094 190.628906 C 215.605469 190.8125 214.335938 190.914062 213.070312 190.914062 C 211.800781 190.914062 210.535156 190.792969 209.308594 190.566406 C 208.0625 190.339844 206.855469 189.992188 205.710938 189.5 C 204.566406 189.007812 203.484375 188.371094 202.503906 187.609375 C 200.539062 186.089844 199.027344 184.039062 198.066406 181.761719 C 197.597656 180.609375 197.226562 179.421875 196.960938 178.1875 C 196.695312 176.957031 196.574219 175.707031 196.554688 174.496094 C 196.554688 173.261719 196.777344 172.050781 197.085938 170.882812 C 197.433594 169.710938 197.945312 168.582031 198.578125 167.515625 C 199.863281 165.402344 201.582031 163.535156 203.503906 161.914062 C 204.464844 161.109375 205.484375 160.351562 206.546875 159.652344 C 207.613281 158.957031 208.695312 158.320312 209.820312 157.722656 C 212.066406 156.535156 214.4375 155.570312 216.851562 154.808594 C 218.054688 154.421875 219.304688 154.132812 220.53125 153.90625 C 220.835938 153.84375 221.144531 153.824219 221.449219 153.761719 C 221.757812 153.742188 222.0625 153.703125 222.371094 153.679688 L 222.820312 153.660156 L 223.332031 153.640625 C 223.515625 153.640625 223.675781 153.617188 223.839844 153.578125 C 224.003906 153.558594 224.1875 153.539062 224.351562 153.496094 C 225.679688 153.207031 226.929688 152.714844 228.09375 152.140625 C 229.277344 151.566406 230.402344 150.949219 231.527344 150.335938 C 232.652344 149.71875 233.777344 149.101562 234.917969 148.589844 C 235.492188 148.34375 236.066406 148.117188 236.65625 147.972656 C 237.230469 147.832031 237.820312 147.789062 238.3125 147.914062 C 239.316406 148.136719 239.847656 149.246094 240.070312 150.4375 C 240.171875 151.03125 240.253906 151.648438 240.273438 152.265625 C 240.273438 152.574219 240.296875 152.878906 240.273438 153.167969 C 240.234375 153.476562 240.214844 153.761719 240.171875 154.070312 C 239.96875 155.261719 239.519531 156.410156 238.863281 157.4375 C 238.210938 158.464844 237.371094 159.386719 236.433594 160.1875 C 234.550781 161.808594 232.304688 163.019531 229.972656 163.984375 C 227.644531 164.949219 225.191406 165.710938 222.738281 166.203125 L 222.308594 166.304688 L 222.183594 166.652344 C 221.980469 167.269531 221.695312 167.925781 221.410156 168.542969 C 221.121094 169.179688 220.796875 169.792969 220.46875 170.390625 C 219.792969 171.601562 219.015625 172.769531 218.160156 173.859375 C 217.300781 174.945312 216.300781 175.929688 215.214844 176.8125 C 214.132812 177.695312 212.886719 178.375 211.597656 178.949219 C 212.945312 178.519531 214.253906 177.941406 215.441406 177.144531 C 216.503906 176.425781 217.503906 175.601562 218.425781 174.679688 C 218.628906 174.78125 218.832031 174.863281 219.039062 174.945312 C 219.304688 175.050781 219.550781 175.171875 219.816406 175.273438 L 220.589844 175.601562 C 220.835938 175.726562 221.101562 175.828125 221.347656 175.972656 C 221.859375 176.21875 222.328125 176.507812 222.777344 176.835938 C 223.226562 177.164062 223.65625 177.554688 223.945312 178.066406 C 223.921875 177.449219 223.597656 176.875 223.207031 176.382812 C 222.820312 175.890625 222.347656 175.480469 221.839844 175.152344 C 221.59375 174.964844 221.308594 174.84375 221.042969 174.679688 C 220.773438 174.554688 220.488281 174.433594 220.203125 174.308594 C 219.917969 174.207031 219.628906 174.105469 219.34375 174.042969 C 219.261719 174.023438 219.160156 174 219.078125 173.980469 C 219.9375 173.039062 220.714844 172.03125 221.429688 170.984375 C 221.839844 170.390625 222.207031 169.773438 222.574219 169.136719 C 222.859375 168.625 223.148438 168.089844 223.390625 167.535156 C 225.84375 166.980469 228.195312 166.203125 230.503906 165.214844 C 231.078125 164.96875 231.628906 164.703125 232.199219 164.417969 C 232.097656 165.238281 232.160156 166.097656 232.425781 166.898438 C 232.835938 168.152344 233.652344 169.238281 234.734375 169.9375 C 235.820312 170.65625 237.128906 170.984375 238.394531 170.921875 C 238.703125 170.902344 239.027344 170.902344 239.335938 170.820312 L 239.804688 170.71875 L 240.03125 170.675781 L 240.253906 170.59375 C 240.539062 170.492188 240.847656 170.390625 241.132812 170.265625 L 241.972656 169.898438 C 243.914062 168.972656 245.710938 167.742188 247.308594 166.324219 C 247.164062 168.726562 246.898438 171.191406 246.46875 173.613281 Z M 197.371094 139.886719 C 196.269531 135.332031 194.878906 130.855469 193.609375 126.402344 C 192.976562 124.164062 192.382812 121.925781 191.914062 119.667969 C 191.484375 117.429688 191.117188 115.152344 191.339844 112.976562 C 191.359375 112.710938 191.421875 112.445312 191.464844 112.175781 C 191.523438 111.929688 191.585938 111.664062 191.667969 111.417969 C 191.832031 110.945312 192.058594 110.433594 192.324219 109.960938 C 192.855469 109.015625 193.527344 108.171875 194.347656 107.476562 C 194.550781 107.3125 194.753906 107.148438 194.980469 107.003906 C 195.082031 106.941406 195.183594 106.859375 195.265625 106.820312 C 195.390625 106.757812 195.511719 106.695312 195.632812 106.632812 C 196.105469 106.40625 196.613281 106.265625 197.125 106.140625 C 197.636719 106.039062 198.167969 105.996094 198.636719 106.019531 C 199.089844 106.058594 199.578125 106.222656 200.007812 106.429688 C 200.457031 106.65625 200.867188 106.960938 201.253906 107.3125 C 201.644531 107.679688 201.992188 108.070312 202.316406 108.523438 C 202.953125 109.40625 203.503906 110.390625 203.953125 111.417969 C 204.894531 113.46875 205.566406 115.6875 206.160156 117.902344 C 206.753906 120.140625 207.242188 122.398438 207.695312 124.675781 C 208.164062 126.957031 208.574219 129.234375 208.980469 131.53125 C 209.1875 132.683594 209.390625 133.832031 209.636719 134.980469 C 209.859375 136.128906 210.105469 137.28125 210.414062 138.429688 C 210.71875 139.578125 211.066406 140.707031 211.578125 141.816406 C 211.84375 142.371094 212.148438 142.90625 212.539062 143.398438 C 212.761719 143.664062 213.007812 143.910156 213.316406 144.09375 C 213.253906 144.09375 213.191406 144.113281 213.132812 144.113281 C 210.882812 144.445312 208.652344 144.9375 206.488281 145.613281 L 213.234375 145.164062 C 215.480469 145.039062 217.710938 144.9375 219.957031 144.894531 C 222.207031 144.855469 224.433594 144.855469 226.683594 144.894531 C 228.929688 144.9375 231.179688 145.039062 233.449219 145.082031 C 231.9375 144.648438 230.382812 144.339844 228.808594 144.113281 L 228.890625 143.929688 C 229.320312 143.007812 229.6875 142.082031 230.035156 141.140625 C 230.382812 140.195312 230.730469 139.25 231.035156 138.308594 C 231.648438 136.398438 232.222656 134.46875 232.710938 132.519531 C 233.203125 130.566406 233.613281 128.597656 233.960938 126.625 L 234.941406 120.714844 C 235.289062 118.746094 235.65625 116.792969 236.105469 114.886719 C 236.574219 112.957031 237.105469 111.066406 237.820312 109.242188 C 238.539062 107.433594 239.476562 105.691406 240.808594 104.394531 C 241.460938 103.761719 242.238281 103.246094 243.074219 102.960938 C 243.914062 102.671875 244.832031 102.589844 245.753906 102.691406 C 246.671875 102.816406 247.574219 103.0625 248.347656 103.515625 C 249.125 103.945312 249.738281 104.601562 250.148438 105.382812 C 250.984375 106.984375 251.046875 108.972656 250.863281 110.882812 C 250.761719 111.847656 250.597656 112.8125 250.394531 113.777344 C 250.1875 114.742188 249.945312 115.6875 249.65625 116.628906 C 249.105469 118.519531 248.449219 120.386719 247.757812 122.273438 C 247.410156 123.21875 247.0625 124.144531 246.734375 125.085938 C 246.570312 125.558594 246.40625 126.050781 246.265625 126.546875 C 246.121094 127.039062 245.976562 127.507812 245.855469 128 C 245.34375 129.953125 244.875 131.882812 244.40625 133.832031 C 243.953125 135.78125 243.503906 137.730469 243.054688 139.683594 L 242.402344 142.617188 C 242.238281 143.355469 242.054688 144.09375 242.09375 144.894531 C 242.011719 144.9375 241.910156 144.976562 241.828125 145.019531 C 241.542969 145.183594 241.277344 145.347656 241.011719 145.53125 C 240.746094 145.714844 240.480469 145.921875 240.253906 146.125 C 240.011719 146.332031 239.785156 146.578125 239.558594 146.824219 C 239.476562 146.929688 239.398438 147.007812 239.316406 147.113281 L 239.109375 147.007812 C 239.027344 146.96875 238.925781 146.929688 238.84375 146.886719 L 238.558594 146.804688 C 237.800781 146.621094 237.066406 146.722656 236.390625 146.867188 C 235.71875 147.03125 235.105469 147.277344 234.492188 147.542969 C 233.285156 148.078125 232.140625 148.714844 231.015625 149.328125 C 229.890625 149.945312 228.769531 150.582031 227.621094 151.113281 C 226.476562 151.667969 225.3125 152.140625 224.128906 152.386719 C 223.984375 152.429688 223.820312 152.429688 223.675781 152.46875 C 223.535156 152.488281 223.371094 152.511719 223.226562 152.511719 L 222.777344 152.53125 L 222.269531 152.550781 C 221.941406 152.574219 221.59375 152.613281 221.265625 152.632812 C 220.9375 152.675781 220.613281 152.714844 220.285156 152.777344 C 218.996094 153.003906 217.730469 153.332031 216.484375 153.703125 C 213.988281 154.460938 211.578125 155.445312 209.226562 156.59375 C 208.0625 157.171875 206.917969 157.828125 205.8125 158.503906 C 204.707031 159.203125 203.625 159.960938 202.605469 160.785156 C 201.582031 161.625 200.601562 162.484375 199.699219 163.472656 C 199.457031 163.699219 199.25 163.964844 199.046875 164.230469 C 198.84375 164.457031 198.660156 164.703125 198.476562 164.949219 C 199.089844 161.277344 199.394531 157.539062 199.3125 153.804688 C 199.273438 149.144531 198.496094 144.445312 197.371094 139.886719 Z M 214.703125 120.507812 C 214.726562 118.539062 214.765625 116.570312 214.808594 114.597656 C 214.886719 112.628906 214.910156 110.699219 215.359375 108.851562 C 215.542969 107.925781 215.847656 107.023438 216.195312 106.140625 C 216.5625 105.277344 216.992188 104.457031 217.527344 103.679688 C 218.054688 102.917969 218.691406 102.261719 219.40625 101.75 C 220.121094 101.234375 220.9375 100.886719 221.777344 100.804688 C 222.613281 100.722656 223.472656 100.886719 224.210938 101.296875 C 224.945312 101.707031 225.578125 102.34375 226.070312 103.105469 C 226.191406 103.308594 226.316406 103.472656 226.417969 103.679688 L 226.722656 104.292969 C 226.886719 104.726562 227.070312 105.15625 227.214844 105.609375 C 227.378906 106.058594 227.460938 106.511719 227.582031 106.984375 C 227.664062 107.457031 227.765625 107.90625 227.828125 108.398438 C 227.890625 108.871094 227.949219 109.34375 227.96875 109.835938 C 228.011719 110.308594 228.03125 110.800781 228.03125 111.273438 C 228.050781 112.238281 228.050781 113.242188 228.074219 114.230469 L 228.132812 120.160156 C 228.195312 128.0625 228.316406 135.988281 228.480469 143.890625 L 228.480469 144.113281 C 227.910156 144.035156 227.335938 143.972656 226.765625 143.910156 C 224.496094 143.664062 222.226562 143.5625 219.957031 143.601562 C 218.160156 143.644531 216.378906 143.765625 214.601562 143.972656 L 214.664062 132.375 C 214.621094 128.414062 214.664062 124.453125 214.703125 120.507812 Z M 254.5625 149.347656 C 254.441406 148.734375 254.175781 148.136719 253.886719 147.5625 C 253.542969 147.007812 253.171875 146.476562 252.660156 146.066406 C 252.539062 145.960938 252.417969 145.839844 252.292969 145.757812 L 251.886719 145.492188 L 251.679688 145.367188 L 251.457031 145.265625 L 251.027344 145.058594 C 250.742188 144.9375 250.433594 144.855469 250.148438 144.75 C 249.863281 144.671875 249.574219 144.546875 249.269531 144.464844 C 248.0625 144.15625 246.835938 143.972656 245.570312 144.011719 C 244.667969 144.054688 243.769531 144.238281 242.914062 144.546875 C 243.136719 143.972656 243.257812 143.398438 243.402344 142.800781 L 244.078125 139.886719 C 244.527344 137.9375 244.996094 136.007812 245.488281 134.078125 C 245.976562 132.148438 246.46875 130.21875 247 128.289062 C 247.121094 127.816406 247.285156 127.34375 247.410156 126.871094 C 247.550781 126.421875 247.714844 125.949219 247.878906 125.476562 L 248.921875 122.6875 C 249.617188 120.816406 250.289062 118.910156 250.863281 116.980469 C 251.148438 116.015625 251.414062 115.027344 251.640625 114.042969 C 251.867188 113.058594 252.050781 112.054688 252.152344 111.027344 C 252.253906 110 252.292969 108.953125 252.191406 107.90625 C 252.089844 106.859375 251.824219 105.792969 251.3125 104.808594 C 250.800781 103.824219 249.984375 102.980469 249.023438 102.445312 C 248.0625 101.914062 247 101.625 245.957031 101.480469 C 244.894531 101.359375 243.769531 101.441406 242.75 101.808594 C 241.707031 102.179688 240.785156 102.796875 240.03125 103.535156 C 239.273438 104.273438 238.640625 105.136719 238.128906 106.039062 C 237.597656 106.921875 237.167969 107.867188 236.800781 108.808594 C 236.042969 110.699219 235.511719 112.667969 235.042969 114.617188 C 234.59375 116.589844 234.226562 118.558594 233.878906 120.53125 L 232.917969 126.441406 C 232.589844 128.390625 232.199219 130.34375 231.773438 132.292969 C 231.324219 134.222656 230.871094 136.171875 230.320312 138.082031 C 230.054688 139.046875 229.769531 139.988281 229.484375 140.933594 C 229.339844 141.40625 229.175781 141.898438 229.011719 142.371094 C 229.15625 134.941406 229.257812 127.53125 229.339844 120.097656 L 229.402344 114.167969 C 229.402344 113.183594 229.421875 112.195312 229.421875 111.191406 C 229.421875 110.679688 229.402344 110.183594 229.359375 109.671875 C 229.339844 109.160156 229.277344 108.667969 229.21875 108.152344 C 229.15625 107.640625 229.054688 107.148438 228.972656 106.632812 C 228.847656 106.140625 228.746094 105.628906 228.582031 105.136719 C 228.441406 104.644531 228.234375 104.148438 228.050781 103.65625 L 227.703125 102.941406 C 227.601562 102.691406 227.4375 102.488281 227.296875 102.242188 C 226.722656 101.339844 225.945312 100.515625 224.964844 99.964844 C 223.984375 99.410156 222.820312 99.183594 221.714844 99.285156 C 220.589844 99.386719 219.527344 99.839844 218.648438 100.457031 C 217.75 101.09375 217.015625 101.871094 216.402344 102.734375 C 215.789062 103.597656 215.316406 104.519531 214.910156 105.484375 C 214.542969 106.449219 214.214844 107.433594 214.007812 108.441406 C 213.886719 108.933594 213.824219 109.445312 213.722656 109.960938 C 213.683594 110.472656 213.601562 110.984375 213.558594 111.476562 C 213.5 112.484375 213.457031 113.488281 213.4375 114.476562 C 213.394531 116.464844 213.394531 118.4375 213.394531 120.429688 C 213.457031 128.144531 213.640625 135.84375 213.96875 143.5625 C 213.316406 143.046875 212.863281 142.246094 212.539062 141.386719 C 212.148438 140.339844 211.882812 139.230469 211.640625 138.101562 C 211.1875 135.84375 210.863281 133.542969 210.492188 131.246094 C 209.777344 126.625 208.921875 122.027344 207.734375 117.472656 C 207.121094 115.195312 206.425781 112.9375 205.445312 110.738281 C 204.953125 109.652344 204.363281 108.585938 203.625 107.578125 C 203.257812 107.085938 202.847656 106.59375 202.378906 106.160156 C 201.910156 105.730469 201.378906 105.339844 200.785156 105.03125 C 200.191406 104.746094 199.558594 104.519531 198.84375 104.457031 C 198.167969 104.394531 197.515625 104.480469 196.902344 104.601562 C 196.269531 104.726562 195.675781 104.929688 195.082031 105.199219 C 194.9375 105.257812 194.796875 105.339844 194.652344 105.402344 C 194.46875 105.484375 194.347656 105.585938 194.203125 105.667969 C 193.835938 105.914062 193.589844 106.101562 193.34375 106.304688 C 192.382812 107.125 191.585938 108.113281 190.972656 109.199219 C 190.667969 109.753906 190.402344 110.308594 190.195312 110.925781 C 190.09375 111.230469 190.03125 111.539062 189.953125 111.847656 C 189.910156 112.15625 189.847656 112.464844 189.808594 112.769531 C 189.5625 115.253906 189.953125 117.636719 190.421875 119.957031 C 190.910156 122.273438 191.546875 124.53125 192.179688 126.769531 C 193.488281 131.265625 194.898438 135.699219 196.023438 140.195312 C 197.167969 144.691406 197.984375 149.246094 198.105469 153.863281 C 198.1875 156.164062 198.128906 158.484375 197.921875 160.785156 C 197.738281 162.875 197.472656 164.96875 197.085938 167.0625 C 196.492188 168.109375 195.980469 169.21875 195.65625 170.390625 C 195.285156 171.703125 195.082031 173.058594 195.101562 174.414062 C 195.144531 175.789062 195.304688 177.101562 195.613281 178.394531 C 195.898438 179.6875 196.308594 180.980469 196.839844 182.191406 C 197.820312 184.367188 199.292969 186.359375 201.132812 187.878906 L 201.152344 195 L 201.152344 195.183594 L 201.296875 195.289062 C 204.015625 197.402344 207.082031 199.066406 210.328125 200.195312 C 211.945312 200.769531 213.621094 201.21875 215.316406 201.488281 C 216.15625 201.671875 217.015625 201.710938 217.871094 201.835938 L 219.160156 201.898438 L 219.792969 201.9375 L 220.449219 201.9375 C 223.882812 201.957031 227.335938 201.40625 230.585938 200.253906 C 233.835938 199.125 236.902344 197.464844 239.640625 195.347656 L 239.804688 195.226562 L 239.804688 195 L 239.867188 187.980469 C 240.886719 187.324219 241.789062 186.460938 242.566406 185.539062 C 243.464844 184.410156 244.179688 183.15625 244.792969 181.882812 C 246.019531 179.296875 246.753906 176.527344 247.308594 173.753906 C 247.835938 170.984375 248.144531 168.191406 248.207031 165.359375 C 249.800781 163.757812 251.191406 161.933594 252.292969 159.941406 C 253.480469 157.828125 254.398438 155.527344 254.726562 153.066406 C 254.847656 151.855469 254.847656 150.601562 254.5625 149.347656 " fill-opacity="1" fill-rule="nonzero"/></g></svg>