<svg xmlns="http://www.w3.org/2000/svg" xmlns:xlink="http://www.w3.org/1999/xlink" width="400" zoomAndPan="magnify" viewBox="0 0 300 299.999988" height="400" preserveAspectRatio="xMidYMid meet" version="1.0"><defs><clipPath id="cd8b422e66"><path d="M 10.414062 10.414062 L 135.585938 10.414062 L 135.585938 135.585938 L 10.414062 135.585938 Z M 10.414062 10.414062 " clip-rule="nonzero"/></clipPath><clipPath id="054e088a7d"><path d="M 20.914062 10.414062 L 125.085938 10.414062 C 127.871094 10.414062 130.542969 11.519531 132.511719 13.488281 C 134.480469 15.457031 135.585938 18.128906 135.585938 20.914062 L 135.585938 125.085938 C 135.585938 127.871094 134.480469 130.542969 132.511719 132.511719 C 130.542969 134.480469 127.871094 135.585938 125.085938 135.585938 L 20.914062 135.585938 C 18.128906 135.585938 15.457031 134.480469 13.488281 132.511719 C 11.519531 130.542969 10.414062 127.871094 10.414062 125.085938 L 10.414062 20.914062 C 10.414062 18.128906 11.519531 15.457031 13.488281 13.488281 C 15.457031 11.519531 18.128906 10.414062 20.914062 10.414062 Z M 20.914062 10.414062 " clip-rule="nonzero"/></clipPath><clipPath id="f54509d324"><path d="M 0.414062 0.414062 L 125.585938 0.414062 L 125.585938 125.585938 L 0.414062 125.585938 Z M 0.414062 0.414062 " clip-rule="nonzero"/></clipPath><clipPath id="978dd7059c"><path d="M 10.914062 0.414062 L 115.085938 0.414062 C 117.871094 0.414062 120.542969 1.519531 122.511719 3.488281 C 124.480469 5.457031 125.585938 8.128906 125.585938 10.914062 L 125.585938 115.085938 C 125.585938 117.871094 124.480469 120.542969 122.511719 122.511719 C 120.542969 124.480469 117.871094 125.585938 115.085938 125.585938 L 10.914062 125.585938 C 8.128906 125.585938 5.457031 124.480469 3.488281 122.511719 C 1.519531 120.542969 0.414062 117.871094 0.414062 115.085938 L 0.414062 10.914062 C 0.414062 8.128906 1.519531 5.457031 3.488281 3.488281 C 5.457031 1.519531 8.128906 0.414062 10.914062 0.414062 Z M 10.914062 0.414062 " clip-rule="nonzero"/></clipPath><clipPath id="390a55a604"><rect x="0" width="126" y="0" height="126"/></clipPath><clipPath id="e07f23915a"><path d="M 10.414062 10.414062 L 135.710938 10.414062 L 135.710938 135.710938 L 10.414062 135.710938 Z M 10.414062 10.414062 " clip-rule="nonzero"/></clipPath><clipPath id="9a54f9ffae"><path d="M 20.914062 10.414062 L 125.070312 10.414062 C 127.855469 10.414062 130.527344 11.519531 132.496094 13.488281 C 134.464844 15.457031 135.570312 18.128906 135.570312 20.914062 L 135.570312 125.070312 C 135.570312 127.855469 134.464844 130.527344 132.496094 132.496094 C 130.527344 134.464844 127.855469 135.570312 125.070312 135.570312 L 20.914062 135.570312 C 18.128906 135.570312 15.457031 134.464844 13.488281 132.496094 C 11.519531 130.527344 10.414062 127.855469 10.414062 125.070312 L 10.414062 20.914062 C 10.414062 18.128906 11.519531 15.457031 13.488281 13.488281 C 15.457031 11.519531 18.128906 10.414062 20.914062 10.414062 Z M 20.914062 10.414062 " clip-rule="nonzero"/></clipPath><clipPath id="11bbbb573d"><path d="M 42.125 19 L 106 19 L 106 127 L 42.125 127 Z M 42.125 19 " clip-rule="nonzero"/></clipPath><clipPath id="37829c9dec"><rect x="0" width="146" y="0" height="146"/></clipPath></defs><g transform="matrix(1, 0, 0, 1, 77, 77)"><g clip-path="url(#37829c9dec)"><g clip-path="url(#cd8b422e66)"><g clip-path="url(#054e088a7d)"><g transform="matrix(1, 0, 0, 1, 10, 10)"><g clip-path="url(#390a55a604)"><g clip-path="url(#f54509d324)"><g clip-path="url(#978dd7059c)"><path fill="#eb7332" d="M 0.414062 0.414062 L 125.585938 0.414062 L 125.585938 125.585938 L 0.414062 125.585938 Z M 0.414062 0.414062 " fill-opacity="1" fill-rule="nonzero"/></g></g></g></g></g></g><g clip-path="url(#e07f23915a)"><g clip-path="url(#9a54f9ffae)"><path stroke-linecap="butt" transform="matrix(0.986582, 0, 0, 0.986582, 10.413795, 10.413782)" fill="none" stroke-linejoin="miter" d="M 10.643078 0.000284415 L 116.215927 0.000284415 C 119.038963 0.000284415 121.747177 1.120788 123.742704 3.116315 C 125.73823 5.111841 126.858734 7.820055 126.858734 10.643092 L 126.858734 116.21594 C 126.858734 119.038977 125.73823 121.747191 123.742704 123.742717 C 121.747177 125.738244 119.038963 126.858748 116.215927 126.858748 L 10.643078 126.858748 C 7.820042 126.858748 5.111827 125.738244 3.116301 123.742717 C 1.120775 121.747191 0.000270792 119.038977 0.000270792 116.21594 L 0.000270792 10.643092 C 0.000270792 7.820055 1.120775 5.111841 3.116301 3.116315 C 5.111827 1.120788 7.820042 0.000284415 10.643078 0.000284415 Z M 10.643078 0.000284415 " stroke="#000000" stroke-width="4.561203" stroke-opacity="1" stroke-miterlimit="4"/></g></g><path fill="#f5dfc8" d="M 96.554688 101.398438 C 94.589844 108.4375 86.632812 112.789062 86.632812 112.789062 L 85.855469 114.984375 L 86.632812 118.777344 C 85.164062 124.828125 75.929688 126.59375 65.878906 126.570312 C 55.847656 126.550781 49.167969 117.675781 49.167969 117.675781 L 50.574219 114.125 L 50.765625 111.214844 C 47.828125 110.074219 45.492188 102.730469 45.492188 102.730469 C 45.492188 102.730469 45.492188 102.730469 43.804688 97.109375 C 42.121094 91.492188 46.832031 84.859375 46.832031 84.859375 L 48.023438 65.089844 L 44.757812 39.785156 C 44.757812 39.785156 42.8125 27.855469 45.578125 25.355469 C 48.347656 22.859375 52.929688 24.625 55.351562 26.757812 C 57.773438 28.890625 58.65625 43.855469 58.65625 43.855469 C 58.65625 43.855469 62.59375 62.007812 63.132812 63.410156 C 63.671875 64.808594 64.558594 64.378906 64.558594 64.378906 L 66.007812 60.695312 L 68.515625 46.828125 L 69.402344 36.640625 L 71.175781 25.808594 C 74.246094 21.503906 80.382812 15.664062 83.800781 22.816406 C 87.214844 29.964844 83.800781 42.109375 82.976562 45.75 C 82.15625 49.390625 81.617188 62.246094 81.617188 62.246094 C 81.617188 62.246094 85.941406 57.722656 90.957031 59.726562 C 95.972656 61.730469 95.453125 68.234375 95.453125 68.234375 C 103.082031 65.886719 105.027344 72.347656 105.027344 72.347656 C 107.234375 85.890625 98.71875 92.113281 98.71875 92.113281 M 98.71875 92.113281 L 96.859375 102.0625 L 96.554688 101.398438 " fill-opacity="1" fill-rule="nonzero"/><path fill="#e0bfae" d="M 72.96875 66.1875 C 72.839844 66.164062 72.730469 66.164062 72.601562 66.144531 C 66.007812 65.585938 60.171875 66.101562 55.371094 66.941406 C 60.734375 64.441406 65.207031 63.882812 68.0625 63.777344 C 72.386719 63.601562 78.375 64.3125 79.21875 65.648438 C 79.261719 65.648438 79.28125 65.648438 79.324219 65.648438 L 79.28125 65.777344 C 79.304688 65.820312 79.324219 65.886719 79.324219 65.929688 C 79.347656 66.164062 79.21875 66.378906 79.023438 66.574219 L 77.53125 71.160156 C 71.800781 72.777344 66.074219 74.371094 60.34375 75.984375 C 60.472656 75.574219 60.710938 74.929688 61.210938 74.261719 C 63.347656 71.398438 66.679688 72.777344 69.511719 70.171875 C 71.261719 68.554688 71.003906 67.089844 72.96875 66.1875 Z M 88.015625 91.941406 C 86.503906 90.414062 85.726562 88.820312 85.335938 87.828125 L 80.882812 87.914062 L 77.507812 86.28125 L 73.574219 86.730469 L 69.445312 94.546875 C 71.78125 95.539062 74.136719 96.53125 76.472656 97.519531 C 76.6875 97.929688 77.097656 98.574219 77.617188 98.574219 C 79.410156 98.597656 80.148438 91.101562 82.136719 91.015625 C 83.28125 90.972656 83.519531 93.40625 85.703125 94.570312 C 87.539062 95.539062 89.722656 95.085938 91.476562 94.441406 C 90.589844 94.011719 89.292969 93.277344 88.015625 91.941406 Z M 81.855469 114.898438 C 76.210938 120.046875 68.667969 121.8125 62.398438 119.355469 C 57.902344 117.589844 55.394531 114.144531 54.335938 112.488281 C 56.386719 113.605469 59.609375 115.007812 63.652344 115.179688 C 66.332031 115.289062 67.738281 114.792969 71.003906 114.511719 C 73.511719 114.273438 77.207031 114.167969 81.855469 114.898438 " fill-opacity="1" fill-rule="nonzero"/><g clip-path="url(#11bbbb573d)"><path fill="#100f0d" d="M 104.921875 79.429688 C 104.640625 81.476562 104.101562 83.480469 103.277344 85.375 C 102.433594 87.25 101.3125 89.015625 99.882812 90.480469 C 99.171875 91.210938 98.371094 91.855469 97.527344 92.417969 C 96.664062 92.976562 95.753906 93.429688 94.804688 93.710938 C 93.851562 93.988281 92.859375 94.074219 91.90625 93.878906 C 90.957031 93.6875 90.070312 93.234375 89.3125 92.609375 C 88.554688 91.964844 87.90625 91.1875 87.367188 90.347656 C 87.085938 89.917969 86.828125 89.488281 86.609375 89.035156 C 86.4375 88.734375 86.308594 88.433594 86.15625 88.109375 C 87.023438 87.699219 87.800781 87.140625 88.492188 86.515625 C 89.484375 85.613281 90.328125 84.578125 91.0625 83.480469 C 92.535156 81.28125 93.59375 78.871094 94.414062 76.394531 C 95.214844 73.917969 95.796875 71.355469 95.90625 68.730469 C 96.792969 68.511719 97.742188 68.40625 98.652344 68.40625 C 99.648438 68.40625 100.664062 68.535156 101.570312 68.878906 C 102.480469 69.222656 103.277344 69.804688 103.820312 70.578125 C 104.101562 70.96875 104.316406 71.398438 104.46875 71.871094 C 104.617188 72.347656 104.769531 72.839844 104.855469 73.335938 C 105.222656 75.296875 105.179688 77.386719 104.921875 79.429688 Z M 96.164062 100.921875 C 95.582031 102.34375 94.847656 103.660156 94.003906 104.972656 C 93.183594 106.261719 92.273438 107.492188 91.257812 108.632812 C 90.21875 109.753906 89.074219 110.742188 87.800781 111.582031 C 86.523438 112.421875 85.140625 113.070312 83.691406 113.542969 C 80.796875 114.492188 77.683594 114.726562 74.546875 114.511719 C 77.574219 115.414062 80.902344 115.328125 83.953125 114.382812 C 84.492188 114.210938 85.011719 114.015625 85.53125 113.800781 C 85.488281 113.886719 85.445312 113.972656 85.421875 114.082031 C 85.25 114.640625 85.164062 115.222656 85.164062 115.804688 C 85.140625 116.386719 85.226562 116.96875 85.378906 117.527344 C 85.464844 117.804688 85.550781 118.085938 85.660156 118.34375 C 85.726562 118.515625 85.8125 118.667969 85.898438 118.820312 C 85.855469 118.90625 85.8125 118.96875 85.769531 119.054688 C 85.660156 119.226562 85.550781 119.398438 85.421875 119.574219 L 85.03125 120.066406 L 84.621094 120.542969 C 84.039062 121.144531 83.410156 121.726562 82.699219 122.199219 C 81.292969 123.191406 79.714844 123.964844 78.070312 124.566406 C 74.761719 125.710938 71.195312 126.226562 67.652344 126.269531 C 64.128906 126.269531 60.558594 125.667969 57.382812 124.160156 C 56.582031 123.816406 55.828125 123.363281 55.070312 122.910156 L 53.988281 122.15625 C 53.644531 121.898438 53.296875 121.617188 52.949219 121.339844 C 52.605469 121.058594 52.300781 120.757812 51.976562 120.457031 C 51.675781 120.152344 51.371094 119.832031 51.070312 119.507812 C 50.550781 118.925781 50.074219 118.300781 49.6875 117.675781 C 50.378906 116.707031 50.746094 115.609375 50.984375 114.511719 C 51.113281 113.910156 51.179688 113.304688 51.242188 112.703125 C 51.265625 112.488281 51.265625 112.273438 51.285156 112.035156 C 51.503906 112.1875 51.71875 112.316406 51.933594 112.445312 C 52.496094 112.769531 53.058594 113.113281 53.644531 113.371094 C 53.945312 113.5 54.226562 113.648438 54.53125 113.78125 L 55.4375 114.125 C 56.667969 114.535156 57.921875 114.855469 59.199219 115.027344 C 61.75 115.371094 64.34375 115.246094 66.785156 114.621094 C 64.277344 114.878906 61.75 114.75 59.328125 114.230469 C 56.90625 113.738281 54.59375 112.769531 52.5625 111.433594 C 50.507812 110.097656 48.800781 108.308594 47.4375 106.308594 C 47.265625 106.070312 47.113281 105.789062 46.960938 105.53125 L 46.507812 104.734375 L 46.121094 103.917969 L 45.925781 103.507812 C 45.859375 103.378906 45.816406 103.226562 45.75 103.078125 L 45.40625 102.238281 C 45.296875 101.957031 45.210938 101.65625 45.125 101.375 C 44.929688 100.792969 44.800781 100.191406 44.671875 99.609375 C 44.433594 98.425781 44.28125 97.199219 44.261719 95.992188 C 44.21875 95.386719 44.261719 94.785156 44.28125 94.160156 C 44.304688 93.859375 44.347656 93.558594 44.367188 93.257812 C 44.390625 92.957031 44.433594 92.652344 44.496094 92.351562 C 44.886719 89.960938 45.816406 87.65625 47.242188 85.699219 C 48.648438 83.714844 50.484375 82.015625 52.539062 80.636719 C 54.574219 79.238281 56.820312 78.097656 59.113281 77.082031 C 60.257812 76.589844 61.425781 76.070312 62.570312 75.621094 C 63.738281 75.167969 64.90625 74.84375 66.136719 74.605469 C 67.371094 74.390625 68.625 74.199219 69.878906 73.917969 C 71.132812 73.636719 72.34375 73.292969 73.554688 72.929688 C 75.972656 72.152344 78.351562 71.246094 80.6875 70.320312 C 81.855469 69.871094 83.023438 69.394531 84.210938 69.03125 C 84.796875 68.855469 85.402344 68.683594 85.984375 68.597656 C 86.566406 68.511719 87.152344 68.492188 87.691406 68.640625 C 88.210938 68.792969 88.6875 69.09375 89.011719 69.546875 C 89.335938 69.976562 89.527344 70.539062 89.660156 71.117188 C 89.894531 72.28125 89.851562 73.53125 89.703125 74.738281 C 89.441406 77.171875 88.449219 79.472656 86.785156 81.238281 C 85.121094 83.027344 82.890625 84.191406 80.578125 84.964844 C 79.410156 85.351562 78.203125 85.632812 76.992188 85.828125 C 75.78125 86.019531 74.527344 86.148438 73.316406 86.148438 L 72.882812 86.148438 L 72.730469 86.582031 C 72.472656 87.421875 72.105469 88.28125 71.738281 89.101562 C 71.347656 89.917969 70.894531 90.714844 70.417969 91.492188 C 69.445312 93.019531 68.277344 94.441406 66.894531 95.605469 C 65.511719 96.765625 63.910156 97.648438 62.183594 98.167969 C 61.316406 98.425781 60.410156 98.574219 59.5 98.683594 C 58.59375 98.8125 57.683594 98.878906 56.710938 99.09375 C 57.621094 99.457031 58.59375 99.632812 59.566406 99.609375 C 60.539062 99.609375 61.511719 99.4375 62.464844 99.222656 C 64.367188 98.75 66.179688 97.84375 67.695312 96.59375 C 68.386719 96.035156 69.011719 95.433594 69.597656 94.785156 C 70.179688 95 70.722656 95.195312 71.285156 95.453125 C 72.148438 95.839844 72.96875 96.230469 73.789062 96.703125 C 74.613281 97.15625 75.410156 97.628906 76.210938 98.144531 L 78.632812 99.738281 C 78.160156 98.878906 77.488281 98.125 76.753906 97.457031 C 76.019531 96.789062 75.21875 96.207031 74.332031 95.734375 C 73.464844 95.238281 72.515625 94.871094 71.566406 94.65625 C 71.046875 94.503906 70.503906 94.441406 69.964844 94.417969 C 70.546875 93.730469 71.066406 93 71.519531 92.246094 C 72.039062 91.425781 72.472656 90.566406 72.863281 89.679688 C 73.1875 88.929688 73.488281 88.152344 73.726562 87.335938 C 74.894531 87.292969 76.019531 87.160156 77.140625 86.945312 C 77.230469 86.925781 77.316406 86.902344 77.378906 86.902344 C 78.417969 87.636719 79.5625 88.238281 80.816406 88.582031 C 82.136719 88.972656 83.605469 88.929688 84.925781 88.539062 C 84.945312 88.539062 84.96875 88.519531 84.988281 88.519531 C 85.164062 88.863281 85.355469 89.207031 85.550781 89.554688 C 85.8125 90.027344 86.09375 90.480469 86.417969 90.929688 C 87.042969 91.835938 87.777344 92.675781 88.644531 93.363281 C 89.527344 94.054688 90.566406 94.589844 91.691406 94.785156 C 92.816406 95 93.984375 94.871094 95.019531 94.546875 C 96.078125 94.226562 97.050781 93.710938 97.960938 93.105469 C 98.023438 93.0625 98.089844 93.019531 98.15625 92.976562 C 97.894531 95.710938 97.246094 98.402344 96.164062 100.921875 Z M 45.988281 43.984375 C 45.621094 41.703125 45.253906 39.441406 44.929688 37.15625 C 44.628906 34.898438 44.324219 32.613281 44.367188 30.375 C 44.410156 29.277344 44.519531 28.136719 44.910156 27.1875 C 45.101562 26.691406 45.382812 26.304688 45.730469 25.960938 C 45.902344 25.789062 46.121094 25.660156 46.3125 25.527344 C 46.550781 25.441406 46.746094 25.335938 47.027344 25.25 C 48.085938 24.90625 49.167969 24.667969 50.25 24.644531 C 50.507812 24.625 50.789062 24.667969 51.046875 24.6875 C 51.308594 24.730469 51.566406 24.753906 51.828125 24.839844 C 52.34375 24.96875 52.820312 25.164062 53.253906 25.441406 C 53.6875 25.722656 54.097656 26.066406 54.441406 26.476562 C 54.789062 26.863281 55.089844 27.316406 55.351562 27.789062 C 55.871094 28.738281 56.238281 29.792969 56.539062 30.890625 C 57.125 33.066406 57.382812 35.328125 57.578125 37.609375 L 57.835938 41.054688 C 57.945312 42.21875 58.074219 43.359375 58.226562 44.523438 C 58.527344 46.828125 58.894531 49.109375 59.347656 51.371094 C 59.804688 53.652344 60.300781 55.894531 60.882812 58.15625 C 61.210938 59.273438 61.511719 60.394531 61.902344 61.492188 C 62.226562 62.375 62.550781 63.238281 63.023438 64.097656 C 62.375 64.226562 61.726562 64.398438 61.101562 64.570312 C 59.089844 65.132812 57.167969 65.929688 55.371094 66.941406 C 57.359375 66.359375 59.328125 65.84375 61.316406 65.453125 C 62.3125 65.28125 63.304688 65.089844 64.320312 64.980469 C 65.316406 64.832031 66.332031 64.746094 67.328125 64.679688 C 68.34375 64.613281 69.335938 64.570312 70.355469 64.59375 C 71.371094 64.570312 72.386719 64.636719 73.378906 64.679688 C 75.261719 64.789062 77.140625 65.023438 79.042969 65.28125 C 78.699219 65.929688 78.417969 66.617188 78.136719 67.285156 C 77.703125 68.449219 77.359375 69.632812 77.121094 70.859375 C 75.84375 71.332031 74.570312 71.785156 73.292969 72.195312 C 72.105469 72.5625 70.894531 72.90625 69.683594 73.1875 C 68.472656 73.445312 67.242188 73.617188 65.964844 73.832031 C 64.710938 74.046875 63.4375 74.390625 62.246094 74.84375 C 61.035156 75.296875 59.890625 75.792969 58.722656 76.285156 C 56.410156 77.300781 54.097656 78.398438 51.957031 79.820312 C 50.3125 80.875 48.777344 82.144531 47.460938 83.609375 C 48.304688 75.015625 48.453125 66.335938 47.761719 57.722656 C 47.394531 53.136719 46.726562 48.550781 45.988281 43.984375 Z M 66.03125 62.355469 C 66.136719 62.117188 66.222656 61.878906 66.332031 61.621094 C 66.417969 61.386719 66.527344 61.148438 66.613281 60.890625 C 66.765625 60.394531 66.9375 59.921875 67.066406 59.425781 C 67.628906 57.464844 68.019531 55.460938 68.320312 53.480469 C 68.949219 49.496094 69.292969 45.472656 69.617188 41.464844 C 69.792969 39.460938 69.941406 37.460938 70.136719 35.476562 C 70.332031 33.496094 70.546875 31.492188 70.894531 29.554688 C 71.242188 27.617188 71.695312 25.679688 72.625 24.042969 C 73.097656 23.226562 73.683594 22.515625 74.4375 21.976562 C 75.175781 21.4375 76.039062 21.050781 76.96875 20.8125 C 77.421875 20.683594 77.898438 20.597656 78.375 20.53125 C 78.828125 20.46875 79.28125 20.445312 79.734375 20.488281 C 80.621094 20.574219 81.464844 20.921875 82.113281 21.503906 C 82.742188 22.105469 83.28125 22.902344 83.648438 23.761719 C 84.015625 24.625 84.277344 25.570312 84.449219 26.519531 C 84.796875 28.4375 84.816406 30.394531 84.707031 32.378906 C 84.621094 34.359375 84.382812 36.316406 84.039062 38.277344 C 83.691406 40.238281 83.214844 42.175781 82.761719 44.136719 C 82.308594 46.09375 81.941406 48.097656 81.660156 50.101562 C 81.097656 54.105469 80.945312 58.175781 81.121094 62.203125 C 80.6875 62.699219 80.296875 63.214844 79.929688 63.753906 C 79.628906 64.226562 79.347656 64.699219 79.109375 65.195312 C 77.316406 64.507812 75.410156 64.035156 73.488281 63.753906 C 71.433594 63.429688 69.335938 63.386719 67.261719 63.496094 C 66.613281 63.539062 65.964844 63.601562 65.339844 63.6875 C 65.597656 63.257812 65.8125 62.804688 66.03125 62.355469 Z M 83.085938 61.449219 C 83.585938 61.0625 84.101562 60.761719 84.664062 60.5 C 85.226562 60.242188 85.8125 60.070312 86.417969 59.941406 C 87.648438 59.683594 88.902344 59.617188 90.113281 59.855469 C 91.300781 60.09375 92.40625 60.695312 93.183594 61.621094 C 93.984375 62.527344 94.480469 63.6875 94.738281 64.917969 C 95.019531 66.121094 95.085938 67.394531 95.019531 68.664062 C 94.890625 71.183594 94.308594 73.703125 93.507812 76.113281 C 92.6875 78.527344 91.625 80.875 90.21875 82.960938 C 89.507812 83.996094 88.707031 84.988281 87.777344 85.804688 C 86.847656 86.625 85.789062 87.3125 84.644531 87.613281 C 83.496094 87.9375 82.265625 87.9375 81.097656 87.59375 C 80.339844 87.378906 79.605469 87.035156 78.914062 86.601562 C 79.5625 86.429688 80.234375 86.257812 80.859375 86.019531 C 83.28125 85.179688 85.636719 83.890625 87.433594 81.949219 C 89.226562 80.035156 90.308594 77.492188 90.546875 74.910156 C 90.695312 73.636719 90.71875 72.324219 90.457031 71.011719 C 90.308594 70.363281 90.089844 69.699219 89.660156 69.117188 C 89.226562 68.535156 88.597656 68.105469 87.90625 67.910156 C 87.214844 67.714844 86.503906 67.757812 85.855469 67.84375 C 85.183594 67.929688 84.578125 68.125 83.953125 68.296875 C 82.71875 68.683594 81.550781 69.160156 80.382812 69.609375 C 79.628906 69.914062 78.871094 70.214844 78.113281 70.496094 C 78.589844 68.277344 79.410156 66.101562 80.621094 64.183594 C 81.292969 63.171875 82.113281 62.203125 83.085938 61.449219 Z M 105.679688 73.144531 C 105.589844 72.605469 105.441406 72.085938 105.289062 71.550781 C 105.09375 71.011719 104.855469 70.496094 104.53125 70.019531 C 103.882812 69.074219 102.910156 68.339844 101.875 67.929688 C 100.8125 67.5 99.710938 67.328125 98.609375 67.308594 C 97.679688 67.285156 96.769531 67.351562 95.863281 67.523438 C 95.839844 66.597656 95.753906 65.667969 95.5625 64.746094 C 95.28125 63.453125 94.738281 62.160156 93.832031 61.105469 C 92.945312 60.050781 91.648438 59.339844 90.308594 59.082031 C 88.96875 58.824219 87.582031 58.910156 86.285156 59.167969 C 84.96875 59.425781 83.691406 60.007812 82.609375 60.824219 C 82.4375 60.953125 82.285156 61.082031 82.136719 61.234375 C 82.050781 57.574219 82.242188 53.914062 82.761719 50.273438 C 83.042969 48.3125 83.433594 46.351562 83.886719 44.414062 C 84.339844 42.476562 84.839844 40.519531 85.207031 38.515625 C 85.574219 36.511719 85.8125 34.488281 85.898438 32.464844 C 86.003906 30.4375 85.984375 28.371094 85.617188 26.324219 C 85.445312 25.3125 85.164062 24.28125 84.75 23.3125 C 84.320312 22.339844 83.757812 21.414062 82.914062 20.617188 C 82.070312 19.84375 80.945312 19.414062 79.84375 19.304688 C 79.28125 19.242188 78.742188 19.261719 78.203125 19.347656 C 77.683594 19.433594 77.164062 19.542969 76.644531 19.671875 C 75.628906 19.929688 74.613281 20.382812 73.726562 21.027344 C 72.839844 21.675781 72.125 22.535156 71.585938 23.460938 C 70.527344 25.335938 70.074219 27.382812 69.707031 29.363281 C 69.359375 31.367188 69.144531 33.367188 68.949219 35.371094 C 68.753906 37.375 68.582031 39.375 68.429688 41.378906 C 68.082031 45.382812 67.757812 49.367188 67.132812 53.289062 C 66.808594 55.246094 66.441406 57.207031 65.898438 59.101562 C 65.769531 59.574219 65.597656 60.027344 65.46875 60.5 C 65.402344 60.738281 65.296875 60.953125 65.207031 61.191406 C 65.121094 61.425781 65.035156 61.644531 64.925781 61.859375 C 64.734375 62.289062 64.515625 62.71875 64.277344 63.109375 L 64.085938 63.386719 C 64.019531 63.472656 63.953125 63.558594 63.910156 63.644531 C 63.890625 63.6875 63.847656 63.753906 63.824219 63.796875 C 63.78125 63.730469 63.761719 63.644531 63.71875 63.558594 C 63.609375 63.300781 63.5 63.042969 63.414062 62.785156 L 63.132812 61.988281 L 62.875 61.167969 C 62.527344 60.09375 62.226562 58.972656 61.945312 57.875 C 61.359375 55.65625 60.863281 53.417969 60.429688 51.175781 C 60 48.917969 59.628906 46.65625 59.328125 44.394531 C 59.175781 43.253906 59.070312 42.109375 58.960938 40.992188 L 58.699219 37.546875 C 58.484375 35.21875 58.226562 32.894531 57.621094 30.589844 C 57.316406 29.449219 56.929688 28.304688 56.324219 27.25 C 56.042969 26.714844 55.695312 26.195312 55.285156 25.746094 C 54.875 25.269531 54.398438 24.839844 53.859375 24.515625 C 53.597656 24.34375 53.296875 24.214844 53.015625 24.0625 C 52.710938 23.957031 52.410156 23.828125 52.105469 23.761719 C 51.804688 23.675781 51.480469 23.632812 51.179688 23.589844 C 50.875 23.570312 50.550781 23.546875 50.25 23.546875 C 49.015625 23.570312 47.804688 23.828125 46.683594 24.214844 C 46.402344 24.28125 46.097656 24.429688 45.796875 24.582031 C 45.515625 24.753906 45.210938 24.925781 44.972656 25.164062 C 44.476562 25.613281 44.109375 26.195312 43.871094 26.777344 C 43.394531 27.960938 43.289062 29.167969 43.246094 30.351562 C 43.199219 32.722656 43.503906 35.027344 43.804688 37.332031 C 44.128906 39.613281 44.519531 41.894531 44.867188 44.179688 C 45.601562 48.722656 46.25 53.265625 46.617188 57.851562 C 47.375 66.917969 47.199219 76.070312 46.25 85.136719 C 44.714844 87.203125 43.699219 89.660156 43.246094 92.203125 C 42.769531 94.765625 42.832031 97.390625 43.375 99.933594 C 43.523438 100.558594 43.65625 101.203125 43.871094 101.804688 C 43.980469 102.109375 44.066406 102.429688 44.171875 102.730469 L 44.542969 103.636719 C 44.605469 103.785156 44.648438 103.9375 44.714844 104.089844 L 44.929688 104.519531 L 45.363281 105.402344 L 45.859375 106.242188 C 46.03125 106.523438 46.183594 106.800781 46.378906 107.0625 C 47.4375 108.632812 48.734375 110.074219 50.25 111.261719 C 50.269531 111.710938 50.269531 112.164062 50.25 112.636719 C 50.226562 113.199219 50.160156 113.78125 50.054688 114.339844 C 49.945312 114.898438 49.816406 115.4375 49.621094 115.953125 C 49.425781 116.472656 49.167969 116.96875 48.84375 117.375 L 48.648438 117.632812 L 48.800781 117.871094 C 49.816406 119.464844 51.070312 120.777344 52.496094 121.941406 C 52.863281 122.222656 53.210938 122.5 53.578125 122.757812 L 54.722656 123.511719 C 55.523438 123.964844 56.300781 124.441406 57.144531 124.785156 C 60.453125 126.335938 64.128906 126.917969 67.714844 126.917969 L 69.078125 126.917969 C 69.53125 126.917969 69.988281 126.851562 70.417969 126.828125 L 71.757812 126.742188 C 72.214844 126.699219 72.644531 126.636719 73.097656 126.570312 C 73.554688 126.507812 74.007812 126.464844 74.4375 126.378906 L 75.78125 126.121094 L 76.449219 125.988281 L 77.097656 125.816406 C 77.53125 125.6875 77.984375 125.582031 78.417969 125.453125 C 80.148438 124.890625 81.855469 124.160156 83.410156 123.125 C 84.191406 122.609375 84.902344 122.007812 85.574219 121.339844 L 86.050781 120.820312 L 86.480469 120.261719 C 86.609375 120.066406 86.761719 119.875 86.890625 119.660156 C 87.023438 119.445312 87.128906 119.25 87.257812 118.96875 L 87.390625 118.667969 L 87.195312 118.367188 C 87.109375 118.214844 86.976562 118 86.890625 117.785156 C 86.804688 117.570312 86.71875 117.355469 86.652344 117.136719 C 86.523438 116.6875 86.460938 116.234375 86.460938 115.761719 C 86.460938 115.289062 86.523438 114.835938 86.652344 114.382812 C 86.699219 114.144531 86.761719 113.929688 86.761719 113.648438 C 86.761719 113.519531 86.761719 113.371094 86.761719 113.21875 C 87.300781 112.9375 87.84375 112.660156 88.363281 112.335938 C 89.722656 111.476562 90.957031 110.441406 92.058594 109.277344 C 93.160156 108.117188 94.113281 106.824219 94.957031 105.488281 C 95.796875 104.175781 96.597656 102.753906 97.203125 101.289062 C 97.832031 99.824219 98.304688 98.296875 98.652344 96.746094 C 98.976562 95.238281 99.171875 93.6875 99.234375 92.15625 C 99.691406 91.792969 100.101562 91.402344 100.511719 90.996094 C 102.023438 89.445312 103.191406 87.59375 104.054688 85.632812 C 104.921875 83.671875 105.503906 81.605469 105.808594 79.472656 C 106.046875 77.429688 106.066406 75.273438 105.679688 73.144531 " fill-opacity="1" fill-rule="nonzero"/></g></g></g></svg>