<svg xmlns="http://www.w3.org/2000/svg" xmlns:xlink="http://www.w3.org/1999/xlink" width="400" zoomAndPan="magnify" viewBox="0 0 300 299.999988" height="400" preserveAspectRatio="xMidYMid meet" version="1.0"><defs><clipPath id="2f26b659c0"><path d="M 21.378906 87.605469 L 146.359375 87.605469 L 146.359375 212.585938 L 21.378906 212.585938 Z M 21.378906 87.605469 " clip-rule="nonzero"/></clipPath><clipPath id="d0ff80ab2b"><path d="M 31.878906 87.605469 L 135.859375 87.605469 C 141.660156 87.605469 146.359375 92.304688 146.359375 98.105469 L 146.359375 202.085938 C 146.359375 207.886719 141.660156 212.585938 135.859375 212.585938 L 31.878906 212.585938 C 26.082031 212.585938 21.378906 207.886719 21.378906 202.085938 L 21.378906 98.105469 C 21.378906 92.304688 26.082031 87.605469 31.878906 87.605469 Z M 31.878906 87.605469 " clip-rule="nonzero"/></clipPath><clipPath id="c76a70a58f"><path d="M 0.378906 0.605469 L 125.359375 0.605469 L 125.359375 125.585938 L 0.378906 125.585938 Z M 0.378906 0.605469 " clip-rule="nonzero"/></clipPath><clipPath id="4f7557669f"><path d="M 10.878906 0.605469 L 114.859375 0.605469 C 120.660156 0.605469 125.359375 5.304688 125.359375 11.105469 L 125.359375 115.085938 C 125.359375 120.886719 120.660156 125.585938 114.859375 125.585938 L 10.878906 125.585938 C 5.082031 125.585938 0.378906 120.886719 0.378906 115.085938 L 0.378906 11.105469 C 0.378906 5.304688 5.082031 0.605469 10.878906 0.605469 Z M 10.878906 0.605469 " clip-rule="nonzero"/></clipPath><clipPath id="d4747be3f2"><rect x="0" width="126" y="0" height="126"/></clipPath><clipPath id="17da887417"><path d="M 21.378906 87.605469 L 146.628906 87.605469 L 146.628906 212.855469 L 21.378906 212.855469 Z M 21.378906 87.605469 " clip-rule="nonzero"/></clipPath><clipPath id="8f8dad15fe"><path d="M 31.878906 87.605469 L 135.859375 87.605469 C 141.660156 87.605469 146.359375 92.304688 146.359375 98.105469 L 146.359375 202.085938 C 146.359375 207.882812 141.660156 212.585938 135.859375 212.585938 L 31.878906 212.585938 C 26.082031 212.585938 21.378906 207.882812 21.378906 202.085938 L 21.378906 98.105469 C 21.378906 92.304688 26.082031 87.605469 31.878906 87.605469 Z M 31.878906 87.605469 " clip-rule="nonzero"/></clipPath><clipPath id="559ac83ede"><path d="M 33.011719 97.679688 L 135 97.679688 L 135 205.679688 L 33.011719 205.679688 Z M 33.011719 97.679688 " clip-rule="nonzero"/></clipPath><clipPath id="7dbb77f661"><path d="M 6.152344 1.28125 L 98.078125 1.28125 L 98.078125 101.578125 L 6.152344 101.578125 Z M 6.152344 1.28125 " clip-rule="nonzero"/></clipPath><clipPath id="9fb84b2a85"><rect x="0" width="102" y="0" height="109"/></clipPath><clipPath id="658cc7d16c"><path d="M 159.253906 87.414062 L 284.234375 87.414062 L 284.234375 212.394531 L 159.253906 212.394531 Z M 159.253906 87.414062 " clip-rule="nonzero"/></clipPath><clipPath id="8f3c539c56"><path d="M 169.753906 87.414062 L 273.734375 87.414062 C 279.535156 87.414062 284.234375 92.113281 284.234375 97.914062 L 284.234375 201.894531 C 284.234375 207.695312 279.535156 212.394531 273.734375 212.394531 L 169.753906 212.394531 C 163.953125 212.394531 159.253906 207.695312 159.253906 201.894531 L 159.253906 97.914062 C 159.253906 92.113281 163.953125 87.414062 169.753906 87.414062 Z M 169.753906 87.414062 " clip-rule="nonzero"/></clipPath><clipPath id="26cfb82c36"><path d="M 0.253906 0.414062 L 125.234375 0.414062 L 125.234375 125.394531 L 0.253906 125.394531 Z M 0.253906 0.414062 " clip-rule="nonzero"/></clipPath><clipPath id="b2d6ab1639"><path d="M 10.753906 0.414062 L 114.734375 0.414062 C 120.535156 0.414062 125.234375 5.113281 125.234375 10.914062 L 125.234375 114.894531 C 125.234375 120.695312 120.535156 125.394531 114.734375 125.394531 L 10.753906 125.394531 C 4.953125 125.394531 0.253906 120.695312 0.253906 114.894531 L 0.253906 10.914062 C 0.253906 5.113281 4.953125 0.414062 10.753906 0.414062 Z M 10.753906 0.414062 " clip-rule="nonzero"/></clipPath><clipPath id="3e2538454c"><rect x="0" width="126" y="0" height="126"/></clipPath><clipPath id="c1c0b935d2"><path d="M 159.253906 87.414062 L 284.503906 87.414062 L 284.503906 212.664062 L 159.253906 212.664062 Z M 159.253906 87.414062 " clip-rule="nonzero"/></clipPath><clipPath id="70ca57d73b"><path d="M 169.753906 87.414062 L 273.734375 87.414062 C 279.53125 87.414062 284.234375 92.113281 284.234375 97.914062 L 284.234375 201.894531 C 284.234375 207.691406 279.53125 212.394531 273.734375 212.394531 L 169.753906 212.394531 C 163.953125 212.394531 159.253906 207.691406 159.253906 201.894531 L 159.253906 97.914062 C 159.253906 92.113281 163.953125 87.414062 169.753906 87.414062 Z M 169.753906 87.414062 " clip-rule="nonzero"/></clipPath><clipPath id="d26395b7ec"><path d="M 174.527344 98.089844 L 266.449219 98.089844 L 266.449219 198.390625 L 174.527344 198.390625 Z M 174.527344 98.089844 " clip-rule="nonzero"/></clipPath></defs><g clip-path="url(#2f26b659c0)"><g clip-path="url(#d0ff80ab2b)"><g transform="matrix(1, 0, 0, 1, 21, 87)"><g clip-path="url(#d4747be3f2)"><g clip-path="url(#c76a70a58f)"><g clip-path="url(#4f7557669f)"><path fill="#eb7332" d="M 0.378906 0.605469 L 125.359375 0.605469 L 125.359375 125.585938 L 0.378906 125.585938 Z M 0.378906 0.605469 " fill-opacity="1" fill-rule="nonzero"/></g></g></g></g></g></g><g clip-path="url(#17da887417)"><g clip-path="url(#8f8dad15fe)"><path stroke-linecap="butt" transform="matrix(0.75, 0, 0, 0.75, 21.379315, 87.604198)" fill="none" stroke-linejoin="miter" d="M 13.999457 0.00169481 L 152.640093 0.00169481 C 160.374469 0.00169481 166.640094 6.26732 166.640094 14.001696 L 166.640094 152.642332 C 166.640094 160.3715 160.374469 166.642333 152.640093 166.642333 L 13.999457 166.642333 C 6.270289 166.642333 -0.000544539 160.3715 -0.000544539 152.642332 L -0.000544539 14.001696 C -0.000544539 6.26732 6.270289 0.00169481 13.999457 0.00169481 Z M 13.999457 0.00169481 " stroke="#000000" stroke-width="6" stroke-opacity="1" stroke-miterlimit="4"/></g></g><g clip-path="url(#559ac83ede)"><g transform="matrix(1, 0, 0, 1, 33, 97)"><g clip-path="url(#9fb84b2a85)"><path fill="#f4dec7" d="M 57.179688 44.652344 C 56.699219 40.058594 59.332031 22.574219 60.640625 15.617188 C 61.925781 8.660156 60.960938 3.304688 57.441406 2.300781 C 53.921875 1.300781 54.0625 0.679688 49.699219 5.230469 C 45.335938 9.78125 44.171875 44.109375 44.171875 44.109375 M 44.171875 44.109375 C 40.53125 35.046875 39.503906 27.367188 38.5 16.578125 C 37.492188 5.792969 32.96875 6.050781 32.96875 6.050781 C 20.761719 6.191406 26.011719 22.011719 26.574219 24.71875 C 27.136719 27.425781 30.535156 46.558594 30.535156 46.558594 C 30.535156 46.558594 28.445312 42.183594 21.75 26.726562 C 15.050781 11.265625 9.800781 14.613281 9.800781 14.613281 C -0.253906 19.527344 14.628906 38.554688 17.644531 44.890625 C 20.660156 51.230469 19.9375 62.539062 20.964844 72.34375 C 21.988281 82.148438 29.410156 88.484375 29.410156 88.484375 L 29.410156 94.863281 C 44.390625 108.679688 65.566406 95.84375 65.566406 95.84375 L 65.566406 90.933594 C 69.691406 91.273438 82.839844 78.117188 82.839844 78.117188 C 82.839844 78.117188 89.878906 71.761719 95.792969 67.089844 C 101.703125 62.417969 94.222656 59.992188 94.222656 59.992188 C 82.921875 56.964844 73.289062 68.273438 73.289062 68.273438 C 73.289062 68.273438 70.675781 55.820312 70.492188 49.90625 C 70.3125 43.988281 76.890625 31.355469 79.804688 22.65625 C 82.722656 13.953125 79.804688 13.371094 79.804688 13.371094 C 73.488281 8.660156 69.347656 13.652344 65.042969 27.207031 C 60.742188 40.761719 57.179688 44.652344 57.179688 44.652344 " fill-opacity="1" fill-rule="nonzero"/><path fill="#e0bfae" d="M 40.972656 90.75 C 40.75 91.03125 38.597656 93.558594 35.140625 93.378906 C 32.507812 93.238281 30.152344 91.574219 29.046875 89.105469 C 30.457031 89.75 32.527344 90.511719 35.140625 90.832031 C 37.515625 91.132812 39.523438 90.992188 40.972656 90.75 Z M 57.601562 92.976562 C 61.484375 92.917969 64.441406 91.695312 65.988281 90.933594 C 65.707031 91.332031 62.953125 95.121094 57.945312 95.285156 C 52.917969 95.445312 49.941406 91.8125 49.640625 91.433594 C 51.167969 92.074219 53.984375 93.039062 57.601562 92.976562 Z M 62.890625 64.882812 C 64.902344 64.605469 66.691406 65.066406 69.1875 64.023438 C 70.371094 63.519531 71.238281 62.878906 71.78125 62.417969 C 72.285156 64.363281 72.785156 66.328125 73.308594 68.273438 C 71.339844 67.53125 67.839844 66.507812 63.457031 66.828125 C 60.480469 67.050781 58.066406 67.851562 56.417969 68.535156 C 59.011719 65.90625 61.285156 65.105469 62.890625 64.882812 Z M 36.808594 69.617188 C 33.792969 68.574219 31.160156 68.574219 29.609375 68.675781 C 32.324219 66.710938 35.84375 66.347656 38.742188 67.773438 C 42.21875 69.476562 43.164062 72.964844 43.304688 73.507812 C 42.160156 72.425781 39.988281 70.699219 36.808594 69.617188 Z M 30.617188 46.957031 C 29.832031 42.164062 29.027344 37.394531 28.242188 32.601562 C 28.828125 34.804688 29.371094 36.792969 29.871094 38.496094 C 31.140625 42.847656 31.601562 43.910156 32.667969 44.652344 C 34.15625 45.695312 36.046875 45.574219 37.351562 45.3125 Z M 44.230469 44.453125 C 44.410156 40.5 44.613281 36.550781 44.792969 32.601562 C 43.867188 36.230469 44.894531 39.960938 47.46875 42.246094 C 49.820312 44.332031 52.636719 44.453125 53.519531 44.453125 Z M 62.128906 45.914062 C 62.226562 45.933594 60.820312 45.632812 60.136719 44.589844 C 59.292969 43.308594 59.9375 41.464844 60.640625 39.476562 C 61.121094 38.113281 61.6875 37.03125 62.128906 36.269531 L 57.199219 44.632812 C 58.832031 45.074219 60.480469 45.492188 62.128906 45.914062 " fill-opacity="1" fill-rule="nonzero"/><g clip-path="url(#7dbb77f661)"><path fill="#100f0d" d="M 30.035156 68.234375 C 29.371094 68.332031 28.707031 68.453125 28.0625 68.613281 C 28.726562 68.753906 29.371094 68.792969 30.035156 68.894531 L 31 69.035156 C 31.160156 69.054688 31.320312 69.074219 31.480469 69.09375 C 31.640625 69.117188 31.804688 69.15625 31.964844 69.175781 C 32.285156 69.234375 32.585938 69.296875 32.910156 69.335938 C 33.230469 69.394531 33.53125 69.476562 33.855469 69.535156 C 34.476562 69.65625 35.082031 69.835938 35.703125 69.976562 C 36.929688 70.320312 38.117188 70.738281 39.285156 71.242188 C 40.449219 71.742188 41.597656 72.324219 42.722656 73.046875 C 42 71.921875 40.914062 71.039062 39.785156 70.320312 C 38.640625 69.597656 37.375 69.074219 36.066406 68.695312 C 35.402344 68.535156 34.757812 68.375 34.074219 68.292969 C 33.734375 68.253906 33.410156 68.191406 33.070312 68.171875 C 32.726562 68.152344 32.40625 68.132812 32.0625 68.132812 C 31.722656 68.113281 31.402344 68.132812 31.058594 68.152344 Z M 7.328125 22.472656 C 7.710938 24.539062 8.457031 26.546875 9.339844 28.488281 C 9.78125 29.453125 10.285156 30.394531 10.828125 31.316406 C 11.351562 32.238281 11.933594 33.121094 12.539062 34.042969 C 13.703125 35.867188 14.828125 37.734375 15.835938 39.660156 C 16.863281 41.582031 17.765625 43.570312 18.511719 45.632812 C 19.253906 47.699219 19.777344 49.84375 20.078125 52.03125 C 20.21875 53.113281 20.320312 54.238281 20.339844 55.320312 L 20.398438 58.566406 C 20.441406 60.714844 20.519531 62.859375 20.660156 65.003906 C 20.964844 69.277344 21.546875 73.546875 22.8125 77.617188 C 23.457031 79.644531 24.28125 81.609375 25.386719 83.390625 C 26.472656 85.195312 27.882812 86.78125 29.550781 88.023438 C 30.394531 88.644531 31.320312 89.148438 32.285156 89.546875 C 33.25 89.949219 34.277344 90.230469 35.324219 90.429688 C 36.367188 90.609375 37.433594 90.710938 38.5 90.730469 C 39.566406 90.730469 40.652344 90.671875 41.738281 90.570312 C 40.671875 90.8125 39.605469 90.992188 38.519531 91.09375 C 37.433594 91.171875 36.328125 91.171875 35.222656 91.03125 C 33.472656 90.832031 31.722656 90.308594 30.152344 89.46875 C 30.113281 90.371094 30.074219 91.253906 30.054688 92.15625 L 29.953125 95.542969 C 31.160156 96.367188 32.445312 97.109375 33.773438 97.75 C 35.179688 98.429688 36.648438 99.011719 38.15625 99.496094 C 41.171875 100.4375 44.332031 100.917969 47.488281 100.898438 C 49.078125 100.898438 50.644531 100.757812 52.214844 100.535156 C 53.78125 100.296875 55.3125 99.914062 56.820312 99.453125 C 59.714844 98.53125 62.488281 97.207031 64.984375 95.523438 C 64.941406 94.320312 64.902344 93.117188 64.863281 91.894531 C 63.214844 92.496094 61.484375 92.9375 59.734375 93.199219 C 57.84375 93.457031 55.894531 93.519531 54.003906 93.199219 C 52.113281 92.855469 50.285156 92.113281 48.816406 90.933594 C 50.625 91.511719 52.375 91.914062 54.164062 92.09375 C 55.953125 92.296875 57.765625 92.253906 59.554688 91.976562 C 63.132812 91.394531 66.550781 89.96875 69.730469 88.203125 C 72.925781 86.421875 75.882812 84.214844 78.597656 81.75 C 79.945312 80.503906 81.230469 79.203125 82.359375 77.796875 C 83.542969 76.292969 84.933594 74.992188 86.378906 73.789062 C 87.828125 72.585938 89.355469 71.480469 90.867188 70.417969 C 92.375 69.335938 93.882812 68.273438 95.167969 67.03125 C 95.8125 66.410156 96.355469 65.726562 96.695312 64.964844 C 96.878906 64.582031 96.957031 64.203125 96.976562 63.800781 C 97 63.402344 96.9375 63.019531 96.796875 62.660156 C 96.65625 62.296875 96.433594 61.976562 96.152344 61.695312 C 95.871094 61.414062 95.53125 61.175781 95.148438 60.972656 C 94.402344 60.574219 93.539062 60.332031 92.675781 60.171875 C 90.925781 59.871094 89.074219 59.890625 87.285156 60.132812 C 86.378906 60.253906 85.496094 60.433594 84.652344 60.714844 C 84.230469 60.855469 83.804688 60.996094 83.402344 61.175781 L 82.800781 61.457031 C 82.601562 61.554688 82.398438 61.65625 82.199219 61.777344 C 80.609375 62.636719 79.140625 63.742188 77.734375 64.90625 C 76.324219 66.085938 74.980469 67.351562 73.730469 68.675781 L 73.511719 68.914062 L 73.207031 68.835938 L 71.742188 68.453125 C 71.257812 68.332031 70.753906 68.234375 70.273438 68.113281 C 69.789062 68.011719 69.289062 67.933594 68.804688 67.832031 L 67.316406 67.613281 C 65.34375 67.351562 63.335938 67.289062 61.363281 67.472656 C 59.394531 67.671875 57.441406 68.132812 55.671875 68.996094 C 54.789062 69.4375 53.945312 69.9375 53.160156 70.539062 C 52.375 71.140625 51.628906 71.800781 50.96875 72.585938 C 51.347656 71.621094 52.011719 70.800781 52.757812 70.058594 C 53.5 69.335938 54.367188 68.734375 55.289062 68.234375 C 57.140625 67.25 59.191406 66.667969 61.242188 66.410156 C 63.316406 66.148438 65.40625 66.226562 67.457031 66.46875 C 67.960938 66.546875 68.484375 66.609375 68.984375 66.710938 C 69.488281 66.808594 69.992188 66.910156 70.492188 67.011719 C 70.996094 67.128906 71.5 67.25 72.003906 67.371094 L 72.6875 67.570312 C 72.144531 65.765625 71.660156 63.960938 71.257812 62.117188 C 70.796875 59.992188 70.433594 57.847656 70.210938 55.679688 C 69.992188 53.515625 69.910156 51.328125 70.089844 49.125 C 70.171875 48.019531 70.332031 46.9375 70.59375 45.855469 C 70.835938 44.773438 71.238281 43.710938 71.660156 42.726562 C 73.289062 38.714844 75.058594 34.785156 76.605469 30.757812 C 77.390625 28.75 78.113281 26.726562 78.738281 24.679688 C 79.363281 22.636719 79.886719 20.550781 80.105469 18.464844 C 80.167969 17.421875 80.1875 16.378906 80.007812 15.394531 C 79.824219 14.414062 79.421875 13.511719 78.679688 12.988281 C 78.296875 12.730469 77.894531 12.546875 77.371094 12.449219 C 76.890625 12.308594 76.386719 12.246094 75.882812 12.226562 C 74.878906 12.1875 73.890625 12.410156 73.007812 12.871094 C 72.121094 13.332031 71.359375 14.03125 70.695312 14.816406 C 70.03125 15.617188 69.488281 16.5 68.984375 17.441406 C 67.980469 19.304688 67.257812 21.332031 66.59375 23.355469 C 65.929688 25.402344 65.386719 27.488281 64.800781 29.574219 C 64.5 30.617188 64.21875 31.65625 63.859375 32.699219 C 63.515625 33.742188 63.054688 34.746094 62.628906 35.730469 C 61.746094 37.714844 60.742188 39.640625 59.632812 41.503906 C 59.515625 41.722656 59.351562 41.984375 59.171875 42.207031 L 58.667969 42.847656 C 58.347656 43.269531 58.003906 43.6875 57.742188 44.128906 C 57.683594 44.230469 57.625 44.351562 57.5625 44.472656 C 57.542969 44.53125 57.503906 44.589844 57.503906 44.632812 L 57.484375 44.671875 C 59.132812 45.011719 60.761719 45.453125 62.347656 46.015625 C 59.332031 45.574219 56.335938 45.234375 53.320312 45.09375 C 51.8125 45.03125 50.304688 44.972656 48.816406 44.992188 C 47.308594 44.992188 45.820312 45.054688 44.3125 45.171875 C 42.804688 45.253906 41.3125 45.414062 39.828125 45.613281 C 38.339844 45.792969 36.851562 46.054688 35.363281 46.316406 C 32.40625 46.878906 29.46875 47.640625 26.554688 48.480469 C 29.269531 47.097656 32.164062 46.054688 35.140625 45.273438 C 37.9375 44.550781 40.792969 44.070312 43.667969 43.828125 L 43.628906 43.710938 C 42.78125 41.703125 42.039062 39.660156 41.355469 37.613281 C 40.671875 35.546875 40.089844 33.441406 39.6875 31.296875 C 38.859375 27.027344 38.539062 22.695312 38.175781 18.402344 C 37.996094 16.257812 37.796875 14.132812 37.253906 12.085938 C 36.992188 11.066406 36.628906 10.082031 36.144531 9.199219 C 35.644531 8.316406 35 7.535156 34.175781 7.09375 C 33.351562 6.632812 32.367188 6.554688 31.402344 6.695312 C 30.394531 6.855469 29.429688 7.195312 28.625 7.734375 C 27.820312 8.277344 27.179688 9.039062 26.753906 9.941406 C 26.3125 10.824219 26.089844 11.847656 25.972656 12.871094 C 25.730469 14.933594 25.929688 17.058594 26.210938 19.164062 C 26.515625 21.269531 26.9375 23.375 27.398438 25.480469 C 27.882812 27.585938 28.34375 29.714844 28.746094 31.839844 C 29.167969 33.964844 29.550781 36.089844 29.832031 38.234375 C 30.113281 40.378906 30.335938 42.527344 30.574219 44.691406 L 30.777344 46.296875 L 30.796875 46.496094 L 30.816406 46.597656 C 30.09375 47.058594 30.457031 46.515625 30.355469 46.65625 L 30.175781 46.296875 L 29.832031 45.574219 C 29.371094 44.589844 28.886719 43.628906 28.402344 42.667969 C 27.4375 40.742188 26.453125 38.816406 25.570312 36.832031 C 24.683594 34.867188 23.800781 32.882812 22.972656 30.875 C 22.152344 28.871094 21.347656 26.867188 20.621094 24.820312 L 20.078125 23.296875 L 19.796875 22.554688 L 19.476562 21.832031 C 19.035156 20.871094 18.53125 19.929688 17.96875 19.046875 C 17.382812 18.164062 16.722656 17.339844 15.957031 16.640625 C 15.191406 15.9375 14.328125 15.355469 13.382812 15.015625 C 12.4375 14.675781 11.410156 14.632812 10.488281 14.933594 C 10.023438 15.074219 9.582031 15.316406 9.160156 15.597656 C 8.757812 15.878906 8.414062 16.21875 8.132812 16.621094 C 7.570312 17.421875 7.308594 18.402344 7.207031 19.425781 C 7.046875 20.410156 7.148438 21.453125 7.328125 22.472656 Z M 57.460938 44.632812 Z M 57.925781 29.273438 C 58.40625 24.960938 59.433594 20.730469 60.097656 16.5 C 60.257812 15.4375 60.417969 14.375 60.519531 13.3125 C 60.621094 12.269531 60.640625 11.207031 60.578125 10.140625 C 60.519531 9.078125 60.378906 8.035156 60.117188 7.035156 C 59.855469 6.03125 59.472656 5.050781 58.890625 4.226562 C 58.328125 3.40625 57.523438 2.785156 56.597656 2.484375 C 56.136719 2.34375 55.632812 2.28125 55.128906 2.261719 C 54.625 2.261719 54.125 2.320312 53.621094 2.441406 C 52.65625 2.621094 51.8125 3.183594 51.148438 3.945312 C 50.484375 4.707031 49.960938 5.628906 49.539062 6.574219 C 48.714844 8.5 48.210938 10.605469 47.75 12.6875 C 47.308594 14.792969 46.90625 16.898438 46.5625 19.027344 C 45.878906 23.277344 45.398438 27.546875 45.054688 31.859375 C 44.894531 34.003906 44.753906 36.148438 44.671875 38.316406 C 44.613281 39.398438 44.59375 40.460938 44.550781 41.542969 L 44.511719 43.167969 L 44.492188 43.75 C 45.921875 43.667969 47.347656 43.628906 48.777344 43.667969 C 50.304688 43.710938 51.851562 43.808594 53.359375 43.988281 C 54.546875 44.128906 55.714844 44.3125 56.878906 44.550781 L 56.917969 43.851562 L 57 42.226562 C 57.242188 37.894531 57.460938 33.5625 57.925781 29.273438 Z M 30.675781 46.417969 C 30.617188 46.535156 30.777344 46.394531 30.675781 46.417969 Z M 6.183594 19.304688 C 6.285156 18.183594 6.585938 17.019531 7.289062 16.039062 C 7.628906 15.554688 8.074219 15.136719 8.554688 14.792969 C 9.039062 14.472656 9.5625 14.191406 10.125 14.011719 C 11.25 13.652344 12.496094 13.710938 13.605469 14.113281 C 14.710938 14.515625 15.65625 15.175781 16.480469 15.9375 C 17.304688 16.699219 18.007812 17.582031 18.609375 18.503906 C 19.214844 19.425781 19.738281 20.410156 20.179688 21.410156 L 20.5 22.171875 L 20.800781 22.9375 L 21.347656 24.460938 C 22.070312 26.484375 22.875 28.46875 23.71875 30.457031 C 24.5625 32.441406 25.425781 34.425781 26.292969 36.390625 C 27.15625 38.355469 27.980469 40.359375 28.847656 42.347656 C 29.25 43.289062 29.671875 44.230469 30.113281 45.152344 C 30.09375 44.992188 30.054688 44.832031 30.035156 44.671875 C 29.671875 42.546875 29.207031 40.441406 28.785156 38.316406 C 28.34375 36.210938 27.960938 34.085938 27.539062 31.980469 C 27.117188 29.875 26.675781 27.769531 26.171875 25.664062 C 25.6875 23.558594 25.246094 21.410156 24.945312 19.246094 C 24.785156 18.164062 24.683594 17.082031 24.625 15.976562 C 24.582031 14.875 24.582031 13.75 24.722656 12.648438 C 24.863281 11.527344 25.125 10.402344 25.648438 9.359375 C 26.152344 8.296875 26.957031 7.355469 27.941406 6.695312 C 28.945312 6.050781 30.074219 5.671875 31.199219 5.492188 C 32.347656 5.308594 33.632812 5.429688 34.71875 6.050781 C 35.785156 6.652344 36.546875 7.617188 37.113281 8.617188 C 37.65625 9.621094 38.015625 10.703125 38.277344 11.765625 C 38.820312 13.914062 39 16.117188 39.164062 18.261719 C 39.484375 22.574219 39.785156 26.867188 40.550781 31.078125 C 40.933594 33.183594 41.457031 35.265625 42.097656 37.3125 C 42.421875 38.335938 42.761719 39.359375 43.125 40.378906 C 43.367188 41.082031 43.648438 41.765625 43.910156 42.445312 L 43.929688 41.484375 C 43.96875 40.402344 43.96875 39.316406 44.027344 38.234375 C 44.089844 36.070312 44.230469 33.925781 44.371094 31.757812 C 44.671875 27.449219 45.136719 23.136719 45.800781 18.863281 C 46.121094 16.71875 46.523438 14.59375 46.945312 12.46875 C 47.386719 10.34375 47.890625 8.21875 48.753906 6.171875 C 49.199219 5.148438 49.742188 4.167969 50.503906 3.285156 C 50.886719 2.863281 51.328125 2.460938 51.832031 2.140625 C 52.335938 1.820312 52.898438 1.601562 53.480469 1.480469 C 54.042969 1.359375 54.605469 1.28125 55.191406 1.28125 C 55.773438 1.28125 56.355469 1.359375 56.941406 1.539062 C 58.085938 1.902344 59.050781 2.703125 59.695312 3.644531 C 60.359375 4.609375 60.761719 5.671875 61.042969 6.753906 C 61.324219 7.835938 61.464844 8.9375 61.503906 10.042969 C 61.566406 11.144531 61.523438 12.246094 61.40625 13.332031 C 61.285156 14.414062 61.121094 15.496094 60.921875 16.558594 C 60.175781 20.832031 59.09375 25.019531 58.570312 29.273438 C 58.027344 33.542969 57.824219 37.855469 57.601562 42.164062 L 57.542969 43.46875 C 57.785156 43.109375 58.027344 42.765625 58.289062 42.425781 L 58.769531 41.785156 C 58.929688 41.5625 59.050781 41.363281 59.191406 41.121094 C 60.257812 39.257812 61.242188 37.351562 62.109375 35.386719 C 62.550781 34.40625 62.953125 33.421875 63.273438 32.398438 C 63.597656 31.378906 63.878906 30.335938 64.140625 29.292969 C 64.683594 27.207031 65.203125 25.101562 65.828125 23.015625 C 66.453125 20.929688 67.175781 18.863281 68.179688 16.898438 C 68.683594 15.917969 69.246094 14.953125 69.972656 14.09375 C 70.675781 13.230469 71.539062 12.429688 72.566406 11.867188 C 73.589844 11.304688 74.777344 11.023438 75.941406 11.085938 C 76.527344 11.105469 77.109375 11.183594 77.652344 11.324219 C 78.195312 11.425781 78.820312 11.667969 79.320312 12.027344 C 79.824219 12.386719 80.246094 12.890625 80.527344 13.429688 C 80.808594 13.972656 80.992188 14.554688 81.089844 15.117188 C 81.292969 16.257812 81.273438 17.382812 81.152344 18.484375 C 80.910156 20.691406 80.367188 22.816406 79.746094 24.902344 C 79.101562 26.984375 78.375 29.03125 77.59375 31.058594 C 76.808594 33.082031 75.984375 35.085938 75.140625 37.070312 C 74.292969 39.058594 73.429688 41.042969 72.605469 43.027344 C 72.183594 44.03125 71.820312 44.992188 71.578125 46.015625 C 71.316406 47.039062 71.175781 48.082031 71.097656 49.144531 C 70.914062 51.25 70.996094 53.394531 71.175781 55.519531 C 71.378906 57.644531 71.699219 59.769531 72.144531 61.875 C 72.523438 63.703125 72.96875 65.546875 73.488281 67.332031 C 74.617188 66.167969 75.800781 65.066406 77.050781 64.023438 C 78.496094 62.820312 80.007812 61.675781 81.695312 60.773438 C 81.917969 60.652344 82.117188 60.53125 82.339844 60.433594 L 83.003906 60.132812 C 83.445312 59.929688 83.90625 59.769531 84.371094 59.628906 C 85.292969 59.351562 86.21875 59.148438 87.164062 59.027344 C 89.054688 58.769531 90.984375 58.75 92.894531 59.070312 C 93.839844 59.25 94.804688 59.511719 95.691406 59.992188 C 96.132812 60.230469 96.574219 60.511719 96.9375 60.894531 C 97.320312 61.273438 97.621094 61.714844 97.824219 62.238281 C 98.226562 63.261719 98.125 64.402344 97.703125 65.34375 C 97.28125 66.289062 96.636719 67.070312 95.953125 67.75 C 94.566406 69.09375 93.035156 70.179688 91.546875 71.28125 C 90.039062 72.363281 88.550781 73.464844 87.164062 74.628906 C 85.757812 75.8125 84.46875 77.097656 83.363281 78.519531 C 82.199219 80.023438 80.871094 81.367188 79.503906 82.671875 C 76.746094 85.238281 73.710938 87.484375 70.433594 89.347656 C 69.125 90.089844 67.777344 90.75 66.410156 91.3125 C 66.351562 92.816406 66.289062 94.320312 66.25 95.824219 L 66.25 96.164062 L 65.988281 96.324219 C 63.214844 98.03125 60.238281 99.355469 57.121094 100.234375 C 54.023438 101.136719 50.785156 101.578125 47.570312 101.578125 C 45.960938 101.558594 44.351562 101.480469 42.742188 101.238281 C 41.152344 101 39.566406 100.65625 38.015625 100.214844 C 34.921875 99.3125 31.945312 97.992188 29.1875 96.285156 L 28.945312 96.144531 L 28.945312 95.84375 L 28.847656 92.175781 C 28.804688 90.953125 28.765625 89.75 28.707031 88.527344 C 27.015625 87.300781 25.628906 85.699219 24.523438 83.953125 C 23.355469 82.070312 22.492188 80.023438 21.808594 77.9375 C 20.480469 73.746094 19.878906 69.417969 19.554688 65.085938 C 19.394531 62.917969 19.316406 60.753906 19.273438 58.589844 L 19.214844 55.359375 C 19.195312 54.277344 19.113281 53.253906 18.992188 52.191406 C 18.710938 50.085938 18.207031 48.019531 17.503906 46.015625 C 16.800781 44.011719 15.917969 42.066406 14.929688 40.160156 C 13.945312 38.253906 12.839844 36.410156 11.691406 34.585938 C 11.128906 33.683594 10.527344 32.761719 9.984375 31.796875 C 9.441406 30.855469 8.9375 29.875 8.476562 28.871094 C 7.570312 26.886719 6.804688 24.800781 6.425781 22.613281 C 6.183594 21.550781 6.101562 20.429688 6.183594 19.304688 " fill-opacity="1" fill-rule="nonzero"/></g></g></g></g><g clip-path="url(#658cc7d16c)"><g clip-path="url(#8f3c539c56)"><g transform="matrix(1, 0, 0, 1, 159, 87)"><g clip-path="url(#3e2538454c)"><g clip-path="url(#26cfb82c36)"><g clip-path="url(#b2d6ab1639)"><path fill="#eb7332" d="M 0.253906 0.414062 L 125.234375 0.414062 L 125.234375 125.394531 L 0.253906 125.394531 Z M 0.253906 0.414062 " fill-opacity="1" fill-rule="nonzero"/></g></g></g></g></g></g><g clip-path="url(#c1c0b935d2)"><g clip-path="url(#70ca57d73b)"><path stroke-linecap="butt" transform="matrix(0.75, 0, 0, 0.75, 159.252855, 87.413789)" fill="none" stroke-linejoin="miter" d="M 14.001403 0.000364852 L 152.64204 0.000364852 C 160.371207 0.000364852 166.642041 6.26599 166.642041 14.000366 L 166.642041 152.641002 C 166.642041 160.37017 160.371207 166.641003 152.64204 166.641003 L 14.001403 166.641003 C 6.267028 166.641003 0.00140221 160.37017 0.00140221 152.641002 L 0.00140221 14.000366 C 0.00140221 6.26599 6.267028 0.000364852 14.001403 0.000364852 Z M 14.001403 0.000364852 " stroke="#000000" stroke-width="6" stroke-opacity="1" stroke-miterlimit="4"/></g></g><path fill="#f4dec7" d="M 215.421875 141.460938 C 215.90625 136.871094 213.269531 119.382812 211.964844 112.425781 C 210.675781 105.46875 211.644531 100.113281 215.160156 99.113281 C 218.679688 98.109375 218.539062 97.488281 222.902344 102.039062 C 227.269531 106.589844 228.433594 140.921875 228.433594 140.921875 M 228.433594 140.921875 C 232.074219 131.855469 233.101562 124.175781 234.105469 113.390625 C 235.109375 102.601562 239.636719 102.863281 239.636719 102.863281 C 251.839844 103 246.59375 118.824219 246.03125 121.53125 C 245.46875 124.238281 242.066406 143.367188 242.066406 143.367188 C 242.066406 143.367188 244.160156 138.996094 250.855469 123.535156 C 257.550781 108.074219 262.800781 111.421875 262.800781 111.421875 C 272.855469 116.335938 257.976562 135.367188 254.957031 141.703125 C 251.941406 148.039062 252.664062 159.347656 251.640625 169.152344 C 250.613281 178.957031 243.195312 185.292969 243.195312 185.292969 L 243.195312 191.671875 C 228.210938 205.488281 207.039062 192.65625 207.039062 192.65625 L 207.039062 187.742188 C 202.914062 188.082031 189.761719 174.929688 189.761719 174.929688 C 189.761719 174.929688 182.726562 168.570312 176.8125 163.898438 C 170.898438 159.226562 178.378906 156.800781 178.378906 156.800781 C 189.683594 153.773438 199.316406 165.082031 199.316406 165.082031 C 199.316406 165.082031 201.929688 152.628906 202.109375 146.714844 C 202.292969 140.800781 195.714844 128.167969 192.800781 119.464844 C 189.882812 110.761719 192.800781 110.179688 192.800781 110.179688 C 199.113281 105.46875 203.257812 110.460938 207.558594 124.015625 C 211.863281 137.570312 215.421875 141.460938 215.421875 141.460938 " fill-opacity="1" fill-rule="nonzero"/><path fill="#e0bfae" d="M 231.632812 187.5625 C 231.851562 187.84375 234.003906 190.367188 237.464844 190.1875 C 240.097656 190.046875 242.449219 188.382812 243.558594 185.917969 C 242.148438 186.558594 240.078125 187.320312 237.464844 187.640625 C 235.089844 187.941406 233.078125 187.800781 231.632812 187.5625 Z M 215 189.785156 C 211.121094 189.726562 208.164062 188.503906 206.617188 187.742188 C 206.898438 188.144531 209.652344 191.933594 214.660156 192.09375 C 219.6875 192.253906 222.664062 188.625 222.964844 188.242188 C 221.4375 188.882812 218.621094 189.847656 215 189.785156 Z M 209.710938 161.695312 C 207.699219 161.414062 205.910156 161.875 203.417969 160.832031 C 202.230469 160.332031 201.367188 159.6875 200.824219 159.226562 C 200.320312 161.171875 199.816406 163.136719 199.292969 165.082031 C 201.265625 164.339844 204.765625 163.316406 209.148438 163.636719 C 212.125 163.859375 214.539062 164.660156 216.1875 165.34375 C 213.59375 162.714844 211.320312 161.914062 209.710938 161.695312 Z M 235.792969 166.425781 C 238.808594 165.382812 241.445312 165.382812 242.992188 165.484375 C 240.277344 163.519531 236.757812 163.15625 233.863281 164.582031 C 230.386719 166.285156 229.4375 169.773438 229.296875 170.316406 C 230.445312 169.234375 232.617188 167.507812 235.792969 166.425781 Z M 241.988281 143.769531 C 242.773438 138.976562 243.578125 134.203125 244.359375 129.410156 C 243.777344 131.617188 243.234375 133.601562 242.730469 135.304688 C 241.464844 139.65625 241.003906 140.71875 239.9375 141.460938 C 238.449219 142.503906 236.558594 142.382812 235.25 142.125 Z M 228.375 141.261719 C 228.191406 137.3125 227.992188 133.359375 227.8125 129.410156 C 228.734375 133.039062 227.710938 136.769531 225.136719 139.054688 C 222.78125 141.140625 219.96875 141.261719 219.082031 141.261719 Z M 210.476562 142.726562 C 210.375 142.746094 211.785156 142.445312 212.464844 141.402344 C 213.3125 140.117188 212.667969 138.273438 211.964844 136.289062 C 211.480469 134.925781 210.917969 133.84375 210.476562 133.078125 L 215.402344 141.441406 C 213.773438 141.882812 212.125 142.304688 210.476562 142.726562 " fill-opacity="1" fill-rule="nonzero"/><g clip-path="url(#d26395b7ec)"><path fill="#100f0d" d="M 242.570312 165.042969 C 243.234375 165.140625 243.898438 165.261719 244.542969 165.421875 C 243.878906 165.5625 243.234375 165.605469 242.570312 165.703125 L 241.605469 165.84375 C 241.445312 165.863281 241.285156 165.886719 241.125 165.90625 C 240.960938 165.925781 240.800781 165.964844 240.640625 165.984375 C 240.320312 166.042969 240.015625 166.105469 239.695312 166.144531 C 239.375 166.207031 239.070312 166.285156 238.75 166.34375 C 238.128906 166.464844 237.523438 166.644531 236.898438 166.789062 C 235.671875 167.128906 234.488281 167.546875 233.320312 168.050781 C 232.152344 168.550781 231.007812 169.132812 229.882812 169.855469 C 230.605469 168.730469 231.691406 167.847656 232.816406 167.128906 C 233.964844 166.40625 235.230469 165.886719 236.539062 165.503906 C 237.203125 165.34375 237.84375 165.183594 238.527344 165.101562 C 238.871094 165.0625 239.191406 165.003906 239.535156 164.984375 C 239.875 164.960938 240.199219 164.941406 240.539062 164.941406 C 240.882812 164.921875 241.203125 164.941406 241.546875 164.960938 Z M 265.273438 119.285156 C 264.894531 121.347656 264.148438 123.355469 263.265625 125.300781 C 262.820312 126.261719 262.320312 127.203125 261.777344 128.128906 C 261.253906 129.050781 260.667969 129.933594 260.066406 130.855469 C 258.898438 132.679688 257.773438 134.542969 256.769531 136.46875 C 255.742188 138.394531 254.835938 140.378906 254.09375 142.445312 C 253.351562 144.507812 252.828125 146.65625 252.523438 148.839844 C 252.382812 149.921875 252.285156 151.046875 252.261719 152.128906 L 252.203125 155.378906 C 252.164062 157.523438 252.082031 159.667969 251.941406 161.8125 C 251.640625 166.085938 251.058594 170.355469 249.789062 174.425781 C 249.148438 176.453125 248.324219 178.417969 247.214844 180.203125 C 246.128906 182.007812 244.722656 183.589844 243.054688 184.835938 C 242.207031 185.457031 241.285156 185.957031 240.320312 186.359375 C 239.351562 186.757812 238.328125 187.039062 237.28125 187.242188 C 236.234375 187.421875 235.171875 187.519531 234.105469 187.542969 C 233.039062 187.542969 231.953125 187.480469 230.867188 187.378906 C 231.933594 187.621094 233 187.800781 234.085938 187.902344 C 235.171875 187.980469 236.277344 187.980469 237.382812 187.84375 C 239.132812 187.640625 240.882812 187.121094 242.449219 186.277344 C 242.492188 187.179688 242.53125 188.0625 242.550781 188.964844 L 242.652344 192.355469 C 241.445312 193.175781 240.15625 193.917969 238.832031 194.558594 C 237.421875 195.242188 235.953125 195.820312 234.445312 196.304688 C 231.429688 197.246094 228.273438 197.726562 225.117188 197.707031 C 223.527344 197.707031 221.957031 197.566406 220.390625 197.347656 C 218.820312 197.105469 217.292969 196.722656 215.785156 196.265625 C 212.890625 195.339844 210.113281 194.015625 207.621094 192.332031 C 207.660156 191.128906 207.699219 189.925781 207.742188 188.703125 C 209.390625 189.304688 211.121094 189.746094 212.867188 190.007812 C 214.757812 190.269531 216.710938 190.328125 218.601562 190.007812 C 220.492188 189.667969 222.320312 188.925781 223.789062 187.742188 C 221.980469 188.324219 220.230469 188.722656 218.4375 188.902344 C 216.648438 189.105469 214.839844 189.066406 213.050781 188.785156 C 209.472656 188.203125 206.050781 186.777344 202.875 185.015625 C 199.675781 183.230469 196.71875 181.023438 194.003906 178.558594 C 192.660156 177.316406 191.371094 176.011719 190.246094 174.609375 C 189.058594 173.105469 187.671875 171.800781 186.222656 170.597656 C 184.777344 169.394531 183.246094 168.292969 181.738281 167.226562 C 180.230469 166.144531 178.722656 165.082031 177.4375 163.839844 C 176.792969 163.21875 176.25 162.535156 175.90625 161.773438 C 175.726562 161.394531 175.644531 161.011719 175.625 160.609375 C 175.605469 160.210938 175.664062 159.828125 175.804688 159.46875 C 175.949219 159.105469 176.167969 158.785156 176.449219 158.503906 C 176.730469 158.226562 177.074219 157.984375 177.457031 157.785156 C 178.199219 157.382812 179.066406 157.140625 179.929688 156.980469 C 181.679688 156.679688 183.527344 156.699219 185.320312 156.941406 C 186.222656 157.0625 187.109375 157.242188 187.953125 157.523438 C 188.375 157.664062 188.796875 157.804688 189.199219 157.984375 L 189.804688 158.265625 C 190.003906 158.367188 190.207031 158.464844 190.40625 158.585938 C 191.996094 159.449219 193.464844 160.550781 194.871094 161.714844 C 196.277344 162.898438 197.625 164.160156 198.871094 165.484375 L 199.09375 165.722656 L 199.394531 165.644531 L 200.863281 165.261719 C 201.347656 165.140625 201.847656 165.042969 202.332031 164.921875 C 202.8125 164.820312 203.316406 164.742188 203.800781 164.640625 L 205.289062 164.421875 C 207.257812 164.160156 209.269531 164.101562 211.242188 164.28125 C 213.210938 164.480469 215.160156 164.941406 216.929688 165.804688 C 217.816406 166.246094 218.660156 166.746094 219.445312 167.347656 C 220.230469 167.949219 220.972656 168.613281 221.636719 169.394531 C 221.253906 168.429688 220.589844 167.609375 219.847656 166.867188 C 219.101562 166.144531 218.238281 165.542969 217.3125 165.042969 C 215.464844 164.058594 213.410156 163.480469 211.359375 163.21875 C 209.289062 162.957031 207.199219 163.035156 205.148438 163.277344 C 204.644531 163.359375 204.121094 163.417969 203.617188 163.519531 C 203.117188 163.617188 202.613281 163.71875 202.109375 163.820312 C 201.609375 163.9375 201.105469 164.058594 200.601562 164.179688 L 199.917969 164.382812 C 200.460938 162.578125 200.945312 160.773438 201.347656 158.925781 C 201.808594 156.800781 202.171875 154.65625 202.390625 152.488281 C 202.613281 150.324219 202.695312 148.140625 202.511719 145.933594 C 202.433594 144.832031 202.269531 143.746094 202.007812 142.664062 C 201.769531 141.582031 201.367188 140.519531 200.945312 139.535156 C 199.316406 135.527344 197.546875 131.597656 195.996094 127.566406 C 195.210938 125.558594 194.488281 123.535156 193.863281 121.488281 C 193.242188 119.445312 192.71875 117.359375 192.496094 115.273438 C 192.4375 114.230469 192.417969 113.1875 192.597656 112.207031 C 192.78125 111.222656 193.183594 110.320312 193.925781 109.800781 C 194.308594 109.539062 194.710938 109.359375 195.234375 109.257812 C 195.714844 109.117188 196.21875 109.058594 196.71875 109.039062 C 197.726562 108.996094 198.710938 109.21875 199.597656 109.679688 C 200.480469 110.140625 201.246094 110.84375 201.910156 111.625 C 202.574219 112.425781 203.117188 113.308594 203.617188 114.25 C 204.625 116.117188 205.347656 118.140625 206.011719 120.167969 C 206.675781 122.210938 207.21875 124.296875 207.800781 126.382812 C 208.101562 127.425781 208.382812 128.46875 208.746094 129.511719 C 209.089844 130.554688 209.550781 131.554688 209.972656 132.539062 C 210.859375 134.523438 211.863281 136.449219 212.96875 138.3125 C 213.089844 138.535156 213.25 138.792969 213.433594 139.015625 L 213.933594 139.65625 C 214.257812 140.078125 214.597656 140.5 214.859375 140.941406 C 214.921875 141.039062 214.980469 141.160156 215.039062 141.28125 C 215.0625 141.339844 215.101562 141.402344 215.101562 141.441406 L 215.121094 141.480469 C 213.472656 141.824219 211.84375 142.265625 210.253906 142.824219 C 213.269531 142.382812 216.269531 142.042969 219.285156 141.902344 C 220.792969 141.84375 222.300781 141.78125 223.789062 141.800781 C 225.296875 141.800781 226.785156 141.863281 228.292969 141.984375 C 229.800781 142.0625 231.289062 142.222656 232.777344 142.425781 C 234.265625 142.605469 235.753906 142.867188 237.242188 143.125 C 240.199219 143.6875 243.132812 144.449219 246.050781 145.292969 C 243.335938 143.90625 240.441406 142.867188 237.464844 142.082031 C 234.667969 141.363281 231.8125 140.878906 228.9375 140.640625 L 228.976562 140.519531 C 229.820312 138.515625 230.566406 136.46875 231.25 134.421875 C 231.933594 132.359375 232.515625 130.253906 232.917969 128.105469 C 233.742188 123.835938 234.0625 119.503906 234.425781 115.214844 C 234.609375 113.066406 234.808594 110.941406 235.351562 108.898438 C 235.613281 107.875 235.976562 106.890625 236.457031 106.007812 C 236.960938 105.128906 237.605469 104.34375 238.429688 103.902344 C 239.253906 103.441406 240.238281 103.363281 241.203125 103.503906 C 242.207031 103.664062 243.175781 104.003906 243.980469 104.546875 C 244.78125 105.085938 245.425781 105.847656 245.847656 106.75 C 246.292969 107.632812 246.511719 108.65625 246.632812 109.679688 C 246.875 111.746094 246.671875 113.871094 246.390625 115.976562 C 246.089844 118.082031 245.667969 120.1875 245.207031 122.292969 C 244.722656 124.398438 244.261719 126.523438 243.859375 128.648438 C 243.4375 130.773438 243.054688 132.898438 242.773438 135.046875 C 242.492188 137.191406 242.269531 139.335938 242.027344 141.5 L 241.828125 143.105469 L 241.804688 143.304688 L 241.785156 143.40625 C 242.511719 143.867188 242.148438 143.328125 242.25 143.46875 L 242.429688 143.105469 L 242.773438 142.382812 C 243.234375 141.402344 243.71875 140.4375 244.199219 139.476562 C 245.164062 137.550781 246.152344 135.625 247.035156 133.640625 C 247.921875 131.675781 248.804688 129.691406 249.628906 127.6875 C 250.453125 125.679688 251.257812 123.675781 251.980469 121.628906 L 252.523438 120.105469 L 252.808594 119.363281 L 253.128906 118.640625 C 253.570312 117.679688 254.074219 116.738281 254.636719 115.855469 C 255.21875 114.972656 255.882812 114.152344 256.648438 113.449219 C 257.410156 112.746094 258.277344 112.164062 259.222656 111.824219 C 260.167969 111.484375 261.191406 111.445312 262.117188 111.746094 C 262.578125 111.886719 263.023438 112.125 263.445312 112.40625 C 263.847656 112.6875 264.1875 113.027344 264.472656 113.429688 C 265.035156 114.230469 265.292969 115.214844 265.394531 116.234375 C 265.554688 117.21875 265.457031 118.261719 265.273438 119.285156 Z M 215.140625 141.441406 Z M 214.679688 126.082031 C 214.195312 121.769531 213.171875 117.539062 212.507812 113.308594 C 212.347656 112.246094 212.183594 111.183594 212.085938 110.121094 C 211.984375 109.078125 211.964844 108.015625 212.023438 106.953125 C 212.085938 105.890625 212.226562 104.847656 212.488281 103.84375 C 212.75 102.839844 213.128906 101.859375 213.714844 101.035156 C 214.277344 100.214844 215.082031 99.59375 216.007812 99.292969 C 216.46875 99.152344 216.972656 99.089844 217.472656 99.070312 C 217.976562 99.070312 218.480469 99.132812 218.984375 99.253906 C 219.949219 99.433594 220.792969 99.992188 221.457031 100.757812 C 222.121094 101.519531 222.644531 102.441406 223.0625 103.382812 C 223.890625 105.308594 224.390625 107.414062 224.855469 109.5 C 225.296875 111.605469 225.699219 113.710938 226.039062 115.835938 C 226.722656 120.085938 227.207031 124.355469 227.550781 128.667969 C 227.710938 130.8125 227.851562 132.960938 227.929688 135.125 C 227.992188 136.207031 228.011719 137.269531 228.050781 138.355469 L 228.09375 139.976562 L 228.113281 140.558594 C 226.683594 140.480469 225.257812 140.4375 223.828125 140.480469 C 222.300781 140.519531 220.75 140.621094 219.242188 140.800781 C 218.058594 140.941406 216.890625 141.121094 215.722656 141.363281 L 215.683594 140.660156 L 215.605469 139.035156 C 215.363281 134.703125 215.140625 130.371094 214.679688 126.082031 Z M 241.925781 143.226562 C 241.988281 143.347656 241.828125 143.207031 241.925781 143.226562 Z M 266.421875 116.117188 C 266.320312 114.992188 266.019531 113.828125 265.316406 112.847656 C 264.972656 112.367188 264.53125 111.945312 264.046875 111.605469 C 263.566406 111.285156 263.042969 111.003906 262.480469 110.820312 C 261.355469 110.460938 260.105469 110.519531 259 110.921875 C 257.894531 111.324219 256.949219 111.984375 256.125 112.746094 C 255.300781 113.507812 254.597656 114.390625 253.992188 115.3125 C 253.390625 116.234375 252.867188 117.21875 252.425781 118.222656 L 252.101562 118.984375 L 251.800781 119.746094 L 251.257812 121.269531 C 250.535156 123.292969 249.730469 125.28125 248.886719 127.265625 C 248.039062 129.25 247.175781 131.234375 246.3125 133.199219 C 245.445312 135.164062 244.621094 137.171875 243.757812 139.15625 C 243.355469 140.097656 242.933594 141.039062 242.492188 141.964844 C 242.511719 141.800781 242.550781 141.640625 242.570312 141.480469 C 242.933594 139.355469 243.394531 137.25 243.816406 135.125 C 244.261719 133.019531 244.640625 130.894531 245.066406 128.789062 C 245.488281 126.683594 245.929688 124.578125 246.433594 122.472656 C 246.914062 120.367188 247.355469 118.222656 247.660156 116.054688 C 247.820312 114.972656 247.921875 113.890625 247.980469 112.789062 C 248.019531 111.683594 248.019531 110.5625 247.878906 109.457031 C 247.738281 108.335938 247.476562 107.210938 246.953125 106.171875 C 246.453125 105.105469 245.648438 104.164062 244.664062 103.503906 C 243.65625 102.863281 242.53125 102.480469 241.40625 102.300781 C 240.257812 102.121094 238.972656 102.238281 237.886719 102.863281 C 236.820312 103.464844 236.054688 104.425781 235.492188 105.429688 C 234.949219 106.429688 234.585938 107.511719 234.324219 108.578125 C 233.78125 110.722656 233.601562 112.925781 233.441406 115.074219 C 233.121094 119.382812 232.816406 123.675781 232.054688 127.886719 C 231.671875 129.992188 231.148438 132.078125 230.503906 134.121094 C 230.183594 135.144531 229.839844 136.167969 229.480469 137.191406 C 229.238281 137.890625 228.957031 138.574219 228.695312 139.257812 L 228.675781 138.292969 C 228.632812 137.210938 228.632812 136.128906 228.574219 135.046875 C 228.515625 132.878906 228.375 130.734375 228.234375 128.566406 C 227.929688 124.257812 227.46875 119.945312 226.804688 115.675781 C 226.484375 113.527344 226.082031 111.402344 225.660156 109.277344 C 225.214844 107.152344 224.714844 105.027344 223.847656 102.980469 C 223.40625 101.960938 222.863281 100.976562 222.097656 100.09375 C 221.71875 99.671875 221.273438 99.273438 220.773438 98.953125 C 220.269531 98.628906 219.707031 98.410156 219.125 98.289062 C 218.558594 98.167969 217.996094 98.089844 217.414062 98.089844 C 216.832031 98.089844 216.246094 98.167969 215.664062 98.351562 C 214.519531 98.710938 213.554688 99.511719 212.910156 100.457031 C 212.246094 101.417969 211.84375 102.480469 211.5625 103.5625 C 211.28125 104.644531 211.140625 105.75 211.097656 106.851562 C 211.039062 107.953125 211.078125 109.058594 211.199219 110.140625 C 211.320312 111.222656 211.480469 112.304688 211.683594 113.367188 C 212.425781 117.640625 213.511719 121.832031 214.035156 126.082031 C 214.578125 130.351562 214.78125 134.664062 215 138.976562 L 215.0625 140.277344 C 214.820312 139.917969 214.578125 139.578125 214.316406 139.234375 L 213.835938 138.59375 C 213.671875 138.375 213.554688 138.171875 213.410156 137.933594 C 212.347656 136.066406 211.359375 134.164062 210.496094 132.199219 C 210.054688 131.214844 209.652344 130.234375 209.332031 129.210938 C 209.007812 128.1875 208.726562 127.144531 208.464844 126.101562 C 207.921875 124.015625 207.398438 121.910156 206.777344 119.824219 C 206.152344 117.738281 205.429688 115.675781 204.421875 113.710938 C 203.921875 112.726562 203.355469 111.765625 202.632812 110.902344 C 201.929688 110.039062 201.066406 109.238281 200.039062 108.675781 C 199.011719 108.113281 197.828125 107.835938 196.660156 107.894531 C 196.078125 107.914062 195.496094 107.996094 194.953125 108.136719 C 194.40625 108.234375 193.785156 108.476562 193.28125 108.835938 C 192.78125 109.199219 192.355469 109.699219 192.074219 110.242188 C 191.792969 110.78125 191.613281 111.363281 191.511719 111.925781 C 191.3125 113.066406 191.332031 114.191406 191.453125 115.292969 C 191.691406 117.5 192.238281 119.625 192.859375 121.710938 C 193.503906 123.796875 194.226562 125.839844 195.011719 127.867188 C 195.796875 129.890625 196.621094 131.898438 197.464844 133.882812 C 198.308594 135.867188 199.175781 137.851562 200 139.835938 C 200.421875 140.839844 200.785156 141.800781 201.023438 142.824219 C 201.285156 143.847656 201.425781 144.890625 201.507812 145.953125 C 201.6875 148.058594 201.609375 150.203125 201.425781 152.328125 C 201.226562 154.457031 200.902344 156.582031 200.460938 158.6875 C 200.078125 160.511719 199.636719 162.355469 199.113281 164.140625 C 197.988281 162.976562 196.800781 161.875 195.554688 160.832031 C 194.105469 159.628906 192.597656 158.484375 190.910156 157.582031 C 190.6875 157.464844 190.488281 157.34375 190.265625 157.242188 L 189.601562 156.941406 C 189.160156 156.742188 188.695312 156.582031 188.234375 156.441406 C 187.308594 156.160156 186.382812 155.960938 185.441406 155.839844 C 183.546875 155.578125 181.617188 155.558594 179.707031 155.878906 C 178.761719 156.058594 177.796875 156.320312 176.914062 156.800781 C 176.46875 157.042969 176.027344 157.324219 175.664062 157.703125 C 175.285156 158.085938 174.984375 158.527344 174.78125 159.046875 C 174.378906 160.070312 174.480469 161.210938 174.902344 162.15625 C 175.324219 163.097656 175.96875 163.878906 176.652344 164.5625 C 178.039062 165.90625 179.566406 166.988281 181.054688 168.089844 C 182.5625 169.171875 184.050781 170.277344 185.441406 171.4375 C 186.847656 172.621094 188.132812 173.90625 189.238281 175.328125 C 190.40625 176.832031 191.734375 178.175781 193.101562 179.480469 C 195.855469 182.046875 198.894531 184.292969 202.171875 186.15625 C 203.476562 186.898438 204.824219 187.5625 206.191406 188.121094 C 206.253906 189.625 206.3125 191.128906 206.355469 192.632812 L 206.355469 192.976562 L 206.617188 193.136719 C 209.390625 194.839844 212.367188 196.164062 215.484375 197.046875 C 218.582031 197.949219 221.816406 198.390625 225.035156 198.390625 C 226.644531 198.371094 228.253906 198.289062 229.863281 198.046875 C 231.449219 197.808594 233.039062 197.46875 234.585938 197.023438 C 237.683594 196.121094 240.660156 194.800781 243.414062 193.09375 L 243.65625 192.957031 L 243.65625 192.65625 L 243.757812 188.984375 C 243.796875 187.761719 243.839844 186.558594 243.898438 185.335938 C 245.585938 184.113281 246.976562 182.507812 248.082031 180.761719 C 249.246094 178.878906 250.113281 176.832031 250.796875 174.746094 C 252.121094 170.554688 252.726562 166.226562 253.046875 161.894531 C 253.210938 159.730469 253.289062 157.5625 253.328125 155.398438 L 253.390625 152.167969 C 253.410156 151.085938 253.492188 150.0625 253.613281 149 C 253.894531 146.894531 254.394531 144.832031 255.097656 142.824219 C 255.804688 140.820312 256.6875 138.875 257.671875 136.96875 C 258.660156 135.066406 259.765625 133.21875 260.910156 131.394531 C 261.472656 130.492188 262.078125 129.570312 262.621094 128.609375 C 263.164062 127.664062 263.667969 126.683594 264.128906 125.679688 C 265.035156 123.695312 265.796875 121.609375 266.179688 119.425781 C 266.421875 118.363281 266.5 117.238281 266.421875 116.117188 " fill-opacity="1" fill-rule="nonzero"/></g></svg>