<svg xmlns="http://www.w3.org/2000/svg" xmlns:xlink="http://www.w3.org/1999/xlink" width="400" zoomAndPan="magnify" viewBox="0 0 300 299.999988" height="400" preserveAspectRatio="xMidYMid meet" version="1.0"><defs><clipPath id="686e909287"><path d="M 87.414062 87.414062 L 212.492188 87.414062 L 212.492188 212.492188 L 87.414062 212.492188 Z M 87.414062 87.414062 " clip-rule="nonzero"/></clipPath><clipPath id="26aa736a02"><path d="M 97.914062 87.414062 L 201.992188 87.414062 C 204.777344 87.414062 207.445312 88.519531 209.414062 90.488281 C 211.382812 92.457031 212.492188 95.128906 212.492188 97.914062 L 212.492188 201.992188 C 212.492188 204.777344 211.382812 207.445312 209.414062 209.414062 C 207.445312 211.382812 204.777344 212.492188 201.992188 212.492188 L 97.914062 212.492188 C 95.128906 212.492188 92.457031 211.382812 90.488281 209.414062 C 88.519531 207.445312 87.414062 204.777344 87.414062 201.992188 L 87.414062 97.914062 C 87.414062 95.128906 88.519531 92.457031 90.488281 90.488281 C 92.457031 88.519531 95.128906 87.414062 97.914062 87.414062 Z M 97.914062 87.414062 " clip-rule="nonzero"/></clipPath><clipPath id="5284fdc062"><path d="M 0.414062 0.414062 L 125.492188 0.414062 L 125.492188 125.492188 L 0.414062 125.492188 Z M 0.414062 0.414062 " clip-rule="nonzero"/></clipPath><clipPath id="1d0c2b43ae"><path d="M 10.914062 0.414062 L 114.992188 0.414062 C 117.777344 0.414062 120.445312 1.519531 122.414062 3.488281 C 124.382812 5.457031 125.492188 8.128906 125.492188 10.914062 L 125.492188 114.992188 C 125.492188 117.777344 124.382812 120.445312 122.414062 122.414062 C 120.445312 124.382812 117.777344 125.492188 114.992188 125.492188 L 10.914062 125.492188 C 8.128906 125.492188 5.457031 124.382812 3.488281 122.414062 C 1.519531 120.445312 0.414062 117.777344 0.414062 114.992188 L 0.414062 10.914062 C 0.414062 8.128906 1.519531 5.457031 3.488281 3.488281 C 5.457031 1.519531 8.128906 0.414062 10.914062 0.414062 Z M 10.914062 0.414062 " clip-rule="nonzero"/></clipPath><clipPath id="56e7177fbe"><rect x="0" width="126" y="0" height="126"/></clipPath><clipPath id="232de1ea70"><path d="M 87.414062 87.414062 L 212.664062 87.414062 L 212.664062 212.664062 L 87.414062 212.664062 Z M 87.414062 87.414062 " clip-rule="nonzero"/></clipPath><clipPath id="bf6358f768"><path d="M 97.914062 87.414062 L 201.988281 87.414062 C 204.773438 87.414062 207.445312 88.519531 209.414062 90.488281 C 211.382812 92.457031 212.488281 95.128906 212.488281 97.914062 L 212.488281 201.988281 C 212.488281 204.773438 211.382812 207.445312 209.414062 209.414062 C 207.445312 211.382812 204.773438 212.488281 201.988281 212.488281 L 97.914062 212.488281 C 95.128906 212.488281 92.457031 211.382812 90.488281 209.414062 C 88.519531 207.445312 87.414062 204.773438 87.414062 201.988281 L 87.414062 97.914062 C 87.414062 95.128906 88.519531 92.457031 90.488281 90.488281 C 92.457031 88.519531 95.128906 87.414062 97.914062 87.414062 Z M 97.914062 87.414062 " clip-rule="nonzero"/></clipPath><clipPath id="5c41b59233"><path d="M 117.796875 99.214844 L 182.871094 99.214844 L 182.871094 201.890625 L 117.796875 201.890625 Z M 117.796875 99.214844 " clip-rule="nonzero"/></clipPath></defs><g clip-path="url(#686e909287)"><g clip-path="url(#26aa736a02)"><g transform="matrix(1, 0, 0, 1, 87, 87)"><g clip-path="url(#56e7177fbe)"><g clip-path="url(#5284fdc062)"><g clip-path="url(#1d0c2b43ae)"><path fill="#eb7332" d="M 0.414062 0.414062 L 125.492188 0.414062 L 125.492188 125.492188 L 0.414062 125.492188 Z M 0.414062 0.414062 " fill-opacity="1" fill-rule="nonzero"/></g></g></g></g></g></g><g clip-path="url(#232de1ea70)"><g clip-path="url(#bf6358f768)"><path stroke-linecap="butt" transform="matrix(0.75, 0, 0, 0.75, 87.413795, 87.413782)" fill="none" stroke-linejoin="miter" d="M 14.000357 0.000374452 L 152.765985 0.000374452 C 156.479526 0.000374452 160.042026 1.474333 162.667026 4.099333 C 165.292026 6.724333 166.765985 10.286833 166.765985 14.000375 L 166.765985 152.766002 C 166.765985 156.479544 165.292026 160.042044 162.667026 162.667044 C 160.042026 165.292044 156.479526 166.766002 152.765985 166.766002 L 14.000357 166.766002 C 10.286815 166.766002 6.724315 165.292044 4.099315 162.667044 C 1.474315 160.042044 0.000356852 156.479544 0.000356852 152.766002 L 0.000356852 14.000375 C 0.000356852 10.286833 1.474315 6.724333 4.099315 4.099333 C 6.724315 1.474333 10.286815 0.000374452 14.000357 0.000374452 Z M 14.000357 0.000374452 " stroke="#000000" stroke-width="6" stroke-opacity="1" stroke-miterlimit="4"/></g></g><path fill="#f4dfc8" d="M 142.300781 144.191406 L 142.097656 118.144531 C 142.097656 118.144531 143.097656 104.0625 146.429688 100.878906 C 154.644531 95.832031 156.773438 108.96875 156.773438 108.96875 L 156.773438 143.820312 M 156.773438 143.820312 C 158.242188 143.246094 161.921875 123.890625 163.457031 115.496094 C 164.988281 107.101562 168.914062 103.527344 168.914062 103.527344 C 179.421875 97.574219 179.644531 110.691406 179.644531 110.691406 L 173 133.867188 L 170.304688 145.605469 C 173.613281 142.425781 178.765625 145.421875 181.605469 147.84375 C 186.042969 154.988281 175.78125 165.273438 175.78125 165.273438 C 176.375 182.800781 166.867188 188.21875 166.867188 188.21875 L 167.421875 194.972656 C 156.976562 201.480469 155.257812 200.78125 147.308594 201.523438 C 139.355469 202.261719 129.605469 194.972656 129.605469 194.972656 L 130.078125 187.851562 C 130.078125 187.851562 126.234375 183.355469 124.3125 177.976562 C 122.390625 172.621094 125.886719 165.988281 125.886719 165.988281 C 125.886719 165.988281 126.828125 155.296875 126.640625 150.800781 C 126.457031 146.304688 119.691406 121.753906 119.691406 121.753906 L 118.570312 113.339844 C 120.226562 103.382812 126.4375 104.183594 130.507812 107.46875 C 134.574219 110.753906 138.765625 136.964844 139.296875 139.265625 C 139.828125 141.542969 142.300781 144.191406 142.300781 144.191406 " fill-opacity="1" fill-rule="nonzero"/><path fill="#e0bfaf" d="M 142.300781 144.191406 C 141.605469 143.433594 140.789062 142.363281 140.09375 141.007812 C 138.621094 138.09375 138.539062 135.363281 138.601562 133.867188 C 138.476562 134.050781 138.273438 134.378906 138.070312 134.8125 C 136.78125 137.539062 137.863281 139.550781 137.191406 142.160156 C 136.984375 142.980469 136.515625 144.171875 135.351562 145.484375 C 137.660156 145.03125 139.96875 144.601562 142.300781 144.191406 Z M 171.019531 168.964844 C 169.21875 169.789062 165.785156 171.367188 163.191406 169.644531 C 160.71875 167.980469 160.675781 164.449219 160.675781 163.9375 L 151.191406 166.503906 L 146.960938 174.160156 C 148.535156 173.789062 150.558594 173.132812 152.785156 171.984375 C 155.054688 170.792969 156.773438 169.460938 157.976562 168.351562 C 158.652344 171.265625 159.980469 172.3125 160.613281 172.683594 C 163.988281 174.695312 170.46875 172.128906 175.78125 165.273438 C 174.964844 166.257812 173.410156 167.859375 171.019531 168.964844 Z M 140.890625 190.539062 C 135.964844 190.335938 132.203125 188.855469 130.078125 187.832031 C 132.121094 191.9375 136.25 194.605469 140.808594 194.769531 C 145.34375 194.933594 149.636719 192.613281 151.988281 188.710938 C 149.78125 189.59375 145.855469 190.765625 140.890625 190.539062 Z M 159.039062 188.773438 C 159.203125 188.917969 161.902344 191.03125 164.867188 189.925781 C 166.257812 189.410156 167.074219 188.40625 167.421875 187.890625 C 166.683594 188.34375 165.5 188.9375 163.886719 189.207031 C 161.675781 189.574219 159.917969 189.082031 159.039062 188.773438 Z M 160.675781 132.058594 C 160.0625 134.234375 159.511719 137.089844 159.550781 140.476562 C 159.570312 141.953125 159.714844 143.328125 159.898438 144.539062 C 158.691406 144.539062 157.488281 144.539062 156.28125 144.539062 L 160.675781 132.058594 " fill-opacity="1" fill-rule="nonzero"/><g clip-path="url(#5c41b59233)"><path fill="#100f0d" d="M 181.953125 152.9375 C 181.667969 155.234375 180.828125 157.492188 179.683594 159.546875 C 179.113281 160.570312 178.457031 161.558594 177.742188 162.5 C 177.027344 163.425781 176.230469 164.308594 175.390625 165.128906 C 173.695312 166.75 171.773438 168.144531 169.628906 169.109375 L 168.8125 169.460938 C 168.546875 169.5625 168.28125 169.644531 168.015625 169.746094 L 167.808594 169.808594 L 167.195312 169.929688 C 166.929688 170.011719 166.644531 169.992188 166.359375 170.011719 C 165.253906 170.054688 164.128906 169.746094 163.230469 169.128906 C 162.332031 168.515625 161.65625 167.570312 161.351562 166.523438 C 161.0625 165.601562 161.105469 164.574219 161.453125 163.671875 C 162.800781 162.910156 164.089844 162.050781 165.253906 161.023438 C 166.257812 160.140625 167.175781 159.132812 167.890625 157.984375 C 168.605469 156.835938 169.136719 155.519531 169.34375 154.167969 C 169.382812 153.816406 169.402344 153.488281 169.445312 153.140625 C 169.464844 152.792969 169.445312 152.464844 169.445312 152.113281 C 169.402344 151.4375 169.34375 150.78125 169.199219 150.101562 C 169.035156 149.425781 168.851562 148.746094 168.441406 148.113281 C 168.421875 148.070312 168.402344 148.027344 168.363281 147.988281 C 168.382812 147.96875 168.382812 147.949219 168.402344 147.925781 C 168.464844 147.824219 168.566406 147.722656 168.648438 147.597656 C 168.8125 147.394531 168.996094 147.1875 169.199219 147.003906 C 169.382812 146.796875 169.609375 146.632812 169.8125 146.46875 C 170.039062 146.304688 170.261719 146.160156 170.488281 146.015625 C 171.425781 145.464844 172.511719 145.15625 173.636719 145.054688 C 174.757812 144.972656 175.902344 145.113281 177.007812 145.382812 C 177.292969 145.445312 177.558594 145.546875 177.84375 145.628906 C 178.109375 145.710938 178.417969 145.792969 178.664062 145.894531 L 179.214844 146.140625 L 179.398438 146.242188 L 179.746094 146.449219 C 179.871094 146.511719 179.949219 146.613281 180.074219 146.695312 C 180.503906 147.023438 180.828125 147.476562 181.136719 147.925781 C 181.402344 148.417969 181.625 148.933594 181.75 149.464844 C 182.078125 150.617188 182.097656 151.785156 181.953125 152.9375 Z M 151.070312 167.550781 Z M 174.535156 173.566406 C 174.042969 176.292969 173.328125 179.023438 172.183594 181.527344 C 171.609375 182.78125 170.917969 183.992188 170.078125 185.058594 C 169.21875 186.125 168.21875 187.070312 167.03125 187.746094 C 165.867188 188.425781 164.539062 188.835938 163.191406 188.980469 C 161.820312 189.125 160.453125 188.960938 159.039062 188.796875 C 159.367188 188.917969 159.714844 189 160.042969 189.101562 C 160.207031 189.144531 160.390625 189.207031 160.554688 189.246094 L 161.085938 189.328125 C 161.433594 189.390625 161.78125 189.453125 162.148438 189.472656 L 163.210938 189.492188 C 164.476562 189.410156 165.746094 189.101562 166.910156 188.550781 L 166.953125 194.769531 C 164.355469 196.78125 161.453125 198.382812 158.367188 199.46875 C 155.21875 200.597656 151.867188 201.171875 148.511719 201.191406 L 147.878906 201.191406 L 147.246094 201.152344 L 146 201.089844 C 145.160156 200.988281 144.324219 200.925781 143.503906 200.761719 C 141.851562 200.496094 140.234375 200.042969 138.640625 199.488281 C 135.535156 198.402344 132.589844 196.820312 129.972656 194.808594 L 129.996094 188.488281 C 132.121094 190.027344 134.65625 190.949219 137.210938 191.320312 C 138.519531 191.503906 139.828125 191.585938 141.136719 191.546875 C 142.441406 191.503906 143.730469 191.339844 145.019531 191.113281 C 147.574219 190.621094 150.066406 189.882812 152.355469 188.652344 C 151.109375 189.019531 149.902344 189.429688 148.675781 189.757812 C 147.449219 190.089844 146.203125 190.394531 144.9375 190.582031 C 143.667969 190.765625 142.402344 190.867188 141.136719 190.867188 C 139.867188 190.867188 138.601562 190.746094 137.375 190.519531 C 136.128906 190.292969 134.921875 189.945312 133.777344 189.453125 C 132.632812 188.960938 131.546875 188.324219 130.566406 187.5625 C 128.605469 186.042969 127.09375 183.992188 126.132812 181.714844 C 125.660156 180.5625 125.292969 179.371094 125.027344 178.140625 C 124.761719 176.910156 124.640625 175.660156 124.621094 174.445312 C 124.621094 173.214844 124.84375 172.003906 125.152344 170.835938 C 125.5 169.664062 126.007812 168.535156 126.640625 167.46875 C 127.929688 165.355469 129.648438 163.484375 131.570312 161.863281 C 132.53125 161.0625 133.550781 160.304688 134.613281 159.605469 C 135.679688 158.910156 136.761719 158.273438 137.882812 157.675781 C 140.132812 156.484375 142.503906 155.519531 144.917969 154.761719 C 146.121094 154.371094 147.371094 154.085938 148.597656 153.859375 C 148.902344 153.796875 149.210938 153.777344 149.515625 153.714844 C 149.824219 153.695312 150.128906 153.652344 150.433594 153.632812 L 150.886719 153.613281 L 151.394531 153.59375 C 151.578125 153.59375 151.742188 153.570312 151.90625 153.53125 C 152.070312 153.507812 152.253906 153.488281 152.417969 153.449219 C 153.746094 153.160156 154.992188 152.667969 156.160156 152.09375 C 157.34375 151.519531 158.46875 150.902344 159.59375 150.289062 C 160.71875 149.671875 161.839844 149.054688 162.984375 148.542969 C 163.558594 148.296875 164.128906 148.070312 164.722656 147.925781 C 165.296875 147.78125 165.886719 147.742188 166.378906 147.863281 C 167.378906 148.089844 167.910156 149.199219 168.136719 150.390625 C 168.238281 150.984375 168.320312 151.601562 168.339844 152.21875 C 168.339844 152.523438 168.363281 152.832031 168.339844 153.121094 C 168.300781 153.429688 168.28125 153.714844 168.238281 154.023438 C 168.035156 155.214844 167.585938 156.363281 166.929688 157.390625 C 166.277344 158.414062 165.4375 159.339844 164.5 160.140625 C 162.617188 161.761719 160.367188 162.972656 158.039062 163.9375 C 155.710938 164.902344 153.257812 165.660156 150.804688 166.15625 L 150.375 166.257812 L 150.25 166.605469 C 150.046875 167.222656 149.761719 167.878906 149.476562 168.492188 C 149.1875 169.128906 148.863281 169.746094 148.535156 170.339844 C 147.859375 171.554688 147.082031 172.722656 146.222656 173.8125 C 145.367188 174.898438 144.363281 175.882812 143.28125 176.765625 C 142.199219 177.648438 140.949219 178.328125 139.664062 178.902344 C 141.011719 178.46875 142.320312 177.894531 143.503906 177.09375 C 144.570312 176.375 145.570312 175.554688 146.492188 174.632812 C 146.695312 174.734375 146.898438 174.816406 147.105469 174.898438 C 147.371094 175 147.613281 175.125 147.878906 175.226562 L 148.65625 175.554688 C 148.902344 175.679688 149.167969 175.78125 149.414062 175.925781 C 149.925781 176.171875 150.394531 176.457031 150.84375 176.789062 C 151.292969 177.113281 151.722656 177.503906 152.007812 178.019531 C 151.988281 177.402344 151.660156 176.828125 151.273438 176.335938 C 150.886719 175.84375 150.414062 175.433594 149.902344 175.105469 C 149.660156 174.917969 149.371094 174.796875 149.105469 174.632812 C 148.839844 174.507812 148.554688 174.386719 148.269531 174.261719 C 147.984375 174.160156 147.695312 174.058594 147.410156 173.996094 C 147.328125 173.976562 147.226562 173.953125 147.144531 173.933594 C 148.003906 172.988281 148.78125 171.984375 149.496094 170.9375 C 149.902344 170.339844 150.273438 169.726562 150.640625 169.089844 C 150.925781 168.578125 151.210938 168.042969 151.457031 167.488281 C 153.910156 166.933594 156.261719 166.15625 158.570312 165.167969 C 159.140625 164.921875 159.695312 164.65625 160.265625 164.367188 C 160.164062 165.191406 160.226562 166.050781 160.492188 166.851562 C 160.902344 168.105469 161.71875 169.191406 162.800781 169.890625 C 163.886719 170.609375 165.191406 170.9375 166.460938 170.875 C 166.765625 170.855469 167.09375 170.855469 167.402344 170.773438 L 167.871094 170.671875 L 168.09375 170.628906 L 168.320312 170.546875 C 168.605469 170.445312 168.914062 170.339844 169.199219 170.21875 L 170.039062 169.847656 C 171.980469 168.925781 173.777344 167.695312 175.371094 166.277344 C 175.230469 168.679688 174.964844 171.140625 174.535156 173.566406 Z M 125.4375 139.839844 C 124.332031 135.28125 122.945312 130.808594 121.675781 126.355469 C 121.042969 124.117188 120.449219 121.878906 119.980469 119.621094 C 119.550781 117.382812 119.183594 115.105469 119.40625 112.929688 C 119.425781 112.660156 119.488281 112.394531 119.527344 112.128906 C 119.589844 111.882812 119.652344 111.617188 119.734375 111.371094 C 119.898438 110.898438 120.121094 110.382812 120.386719 109.910156 C 120.917969 108.96875 121.59375 108.125 122.410156 107.429688 C 122.617188 107.265625 122.820312 107.101562 123.046875 106.957031 C 123.148438 106.894531 123.25 106.8125 123.332031 106.769531 C 123.453125 106.710938 123.578125 106.648438 123.699219 106.585938 C 124.167969 106.359375 124.679688 106.21875 125.191406 106.09375 C 125.703125 105.992188 126.234375 105.949219 126.703125 105.972656 C 127.152344 106.011719 127.644531 106.175781 128.074219 106.382812 C 128.523438 106.605469 128.933594 106.914062 129.320312 107.265625 C 129.707031 107.632812 130.058594 108.023438 130.382812 108.476562 C 131.015625 109.359375 131.570312 110.34375 132.019531 111.371094 C 132.960938 113.421875 133.632812 115.636719 134.226562 117.855469 C 134.820312 120.09375 135.308594 122.351562 135.757812 124.628906 C 136.230469 126.90625 136.636719 129.1875 137.046875 131.484375 C 137.25 132.632812 137.457031 133.785156 137.699219 134.933594 C 137.925781 136.082031 138.171875 137.234375 138.476562 138.382812 C 138.785156 139.53125 139.132812 140.660156 139.644531 141.769531 C 139.910156 142.324219 140.214844 142.855469 140.601562 143.347656 C 140.828125 143.617188 141.074219 143.863281 141.378906 144.046875 C 141.320312 144.046875 141.257812 144.066406 141.195312 144.066406 C 138.949219 144.394531 136.71875 144.886719 134.554688 145.566406 L 141.300781 145.113281 C 143.546875 144.992188 145.773438 144.886719 148.023438 144.847656 C 150.273438 144.808594 152.5 144.808594 154.746094 144.847656 C 156.996094 144.886719 159.246094 144.992188 161.515625 145.03125 C 160 144.601562 158.449219 144.292969 156.875 144.066406 L 156.957031 143.882812 C 157.386719 142.960938 157.753906 142.035156 158.101562 141.089844 C 158.449219 140.148438 158.796875 139.203125 159.101562 138.257812 C 159.714844 136.351562 160.289062 134.421875 160.777344 132.46875 C 161.269531 130.519531 161.675781 128.550781 162.023438 126.578125 L 163.007812 120.667969 C 163.355469 118.699219 163.722656 116.746094 164.171875 114.839844 C 164.640625 112.910156 165.171875 111.019531 165.886719 109.195312 C 166.601562 107.386719 167.542969 105.640625 168.871094 104.347656 C 169.527344 103.714844 170.304688 103.199219 171.140625 102.910156 C 171.980469 102.625 172.898438 102.542969 173.820312 102.644531 C 174.738281 102.769531 175.636719 103.015625 176.414062 103.46875 C 177.191406 103.898438 177.804688 104.554688 178.214844 105.335938 C 179.050781 106.933594 179.113281 108.925781 178.929688 110.835938 C 178.828125 111.800781 178.664062 112.765625 178.457031 113.730469 C 178.253906 114.695312 178.007812 115.636719 177.722656 116.582031 C 177.171875 118.472656 176.515625 120.339844 175.820312 122.226562 C 175.476562 123.171875 175.128906 124.097656 174.800781 125.039062 C 174.636719 125.511719 174.472656 126.003906 174.328125 126.496094 C 174.1875 126.988281 174.042969 127.460938 173.921875 127.953125 C 173.410156 129.902344 172.941406 131.835938 172.46875 133.785156 C 172.019531 135.734375 171.570312 137.683594 171.121094 139.632812 L 170.46875 142.570312 C 170.304688 143.308594 170.121094 144.046875 170.160156 144.847656 C 170.078125 144.886719 169.976562 144.929688 169.894531 144.972656 C 169.609375 145.136719 169.34375 145.300781 169.078125 145.484375 C 168.8125 145.667969 168.546875 145.875 168.320312 146.078125 C 168.074219 146.285156 167.851562 146.53125 167.625 146.777344 C 167.542969 146.878906 167.460938 146.960938 167.378906 147.066406 L 167.175781 146.960938 C 167.09375 146.921875 166.992188 146.878906 166.910156 146.839844 L 166.625 146.757812 C 165.867188 146.574219 165.132812 146.675781 164.457031 146.820312 C 163.78125 146.984375 163.171875 147.230469 162.558594 147.496094 C 161.351562 148.027344 160.207031 148.664062 159.082031 149.28125 C 157.957031 149.898438 156.832031 150.535156 155.6875 151.066406 C 154.542969 151.621094 153.378906 152.09375 152.191406 152.339844 C 152.050781 152.378906 151.886719 152.378906 151.742188 152.421875 C 151.601562 152.441406 151.4375 152.464844 151.292969 152.464844 L 150.84375 152.484375 L 150.332031 152.503906 C 150.007812 152.523438 149.660156 152.566406 149.332031 152.585938 C 149.003906 152.628906 148.675781 152.667969 148.351562 152.730469 C 147.0625 152.957031 145.796875 153.285156 144.546875 153.652344 C 142.054688 154.414062 139.644531 155.398438 137.292969 156.546875 C 136.128906 157.121094 134.980469 157.78125 133.878906 158.457031 C 132.773438 159.15625 131.691406 159.914062 130.671875 160.734375 C 129.648438 161.578125 128.667969 162.4375 127.765625 163.425781 C 127.523438 163.648438 127.316406 163.917969 127.113281 164.183594 C 126.910156 164.410156 126.726562 164.65625 126.539062 164.902344 C 127.152344 161.226562 127.460938 157.492188 127.378906 153.757812 C 127.339844 149.097656 126.5625 144.394531 125.4375 139.839844 Z M 142.769531 120.460938 C 142.789062 118.492188 142.832031 116.519531 142.871094 114.550781 C 142.953125 112.582031 142.976562 110.652344 143.425781 108.804688 C 143.609375 107.878906 143.914062 106.976562 144.261719 106.09375 C 144.628906 105.230469 145.058594 104.410156 145.589844 103.628906 C 146.121094 102.871094 146.757812 102.214844 147.472656 101.703125 C 148.1875 101.1875 149.003906 100.839844 149.84375 100.757812 C 150.679688 100.675781 151.539062 100.839844 152.273438 101.25 C 153.011719 101.660156 153.644531 102.296875 154.132812 103.054688 C 154.257812 103.261719 154.378906 103.425781 154.484375 103.628906 L 154.789062 104.246094 C 154.953125 104.675781 155.136719 105.109375 155.28125 105.558594 C 155.445312 106.011719 155.523438 106.464844 155.648438 106.933594 C 155.730469 107.40625 155.832031 107.859375 155.894531 108.351562 C 155.953125 108.824219 156.015625 109.296875 156.035156 109.789062 C 156.078125 110.261719 156.097656 110.753906 156.097656 111.226562 C 156.117188 112.191406 156.117188 113.195312 156.136719 114.179688 L 156.199219 120.113281 C 156.261719 128.015625 156.382812 135.941406 156.546875 143.84375 L 156.546875 144.066406 C 155.972656 143.984375 155.402344 143.925781 154.832031 143.863281 C 152.5625 143.617188 150.292969 143.511719 148.023438 143.554688 C 146.222656 143.597656 144.445312 143.71875 142.667969 143.925781 L 142.730469 132.328125 C 142.6875 128.363281 142.730469 124.402344 142.769531 120.460938 Z M 182.628906 149.300781 C 182.507812 148.6875 182.238281 148.089844 181.953125 147.515625 C 181.605469 146.960938 181.238281 146.429688 180.726562 146.015625 C 180.605469 145.914062 180.484375 145.792969 180.359375 145.710938 L 179.949219 145.445312 L 179.746094 145.320312 L 179.523438 145.21875 L 179.09375 145.011719 C 178.808594 144.886719 178.5 144.808594 178.214844 144.703125 C 177.925781 144.621094 177.640625 144.5 177.335938 144.417969 C 176.128906 144.109375 174.902344 143.925781 173.636719 143.964844 C 172.734375 144.007812 171.835938 144.191406 170.976562 144.5 C 171.203125 143.925781 171.324219 143.347656 171.46875 142.753906 L 172.144531 139.839844 C 172.59375 137.890625 173.0625 135.960938 173.554688 134.03125 C 174.042969 132.101562 174.535156 130.171875 175.066406 128.242188 C 175.1875 127.769531 175.351562 127.296875 175.476562 126.824219 C 175.617188 126.375 175.78125 125.902344 175.945312 125.429688 L 176.988281 122.636719 C 177.683594 120.769531 178.355469 118.863281 178.929688 116.933594 C 179.214844 115.96875 179.480469 114.980469 179.707031 113.996094 C 179.929688 113.011719 180.113281 112.003906 180.214844 110.980469 C 180.320312 109.953125 180.359375 108.90625 180.257812 107.859375 C 180.15625 106.8125 179.890625 105.746094 179.378906 104.757812 C 178.867188 103.773438 178.050781 102.933594 177.089844 102.398438 C 176.128906 101.867188 175.066406 101.578125 174.023438 101.433594 C 172.960938 101.3125 171.835938 101.394531 170.8125 101.761719 C 169.773438 102.132812 168.851562 102.75 168.09375 103.488281 C 167.339844 104.226562 166.707031 105.089844 166.195312 105.992188 C 165.664062 106.875 165.234375 107.816406 164.867188 108.761719 C 164.109375 110.652344 163.578125 112.621094 163.109375 114.570312 C 162.660156 116.542969 162.289062 118.511719 161.945312 120.484375 L 160.980469 126.394531 C 160.65625 128.34375 160.265625 130.292969 159.839844 132.246094 C 159.386719 134.175781 158.9375 136.125 158.386719 138.03125 C 158.121094 138.996094 157.835938 139.941406 157.550781 140.886719 C 157.40625 141.359375 157.242188 141.851562 157.078125 142.324219 C 157.222656 134.890625 157.324219 127.484375 157.40625 120.050781 L 157.464844 114.121094 C 157.464844 113.132812 157.488281 112.148438 157.488281 111.144531 C 157.488281 110.628906 157.464844 110.136719 157.425781 109.625 C 157.40625 109.113281 157.34375 108.617188 157.28125 108.105469 C 157.222656 107.59375 157.121094 107.101562 157.039062 106.585938 C 156.914062 106.09375 156.8125 105.582031 156.648438 105.089844 C 156.507812 104.597656 156.300781 104.101562 156.117188 103.609375 L 155.769531 102.890625 C 155.667969 102.644531 155.503906 102.441406 155.359375 102.195312 C 154.789062 101.289062 154.011719 100.46875 153.03125 99.914062 C 152.050781 99.363281 150.886719 99.136719 149.78125 99.238281 C 148.65625 99.339844 147.59375 99.792969 146.714844 100.40625 C 145.816406 101.042969 145.082031 101.824219 144.46875 102.6875 C 143.855469 103.546875 143.382812 104.472656 142.976562 105.4375 C 142.605469 106.402344 142.28125 107.386719 142.074219 108.394531 C 141.953125 108.886719 141.890625 109.398438 141.789062 109.910156 C 141.75 110.425781 141.667969 110.9375 141.625 111.429688 C 141.5625 112.4375 141.523438 113.441406 141.503906 114.425781 C 141.460938 116.417969 141.460938 118.390625 141.460938 120.378906 C 141.523438 128.097656 141.707031 135.796875 142.035156 143.511719 C 141.378906 143 140.929688 142.199219 140.601562 141.339844 C 140.214844 140.289062 139.949219 139.183594 139.703125 138.054688 C 139.253906 135.796875 138.925781 133.496094 138.558594 131.199219 C 137.84375 126.578125 136.984375 121.980469 135.800781 117.425781 C 135.1875 115.144531 134.492188 112.886719 133.511719 110.691406 C 133.019531 109.605469 132.425781 108.535156 131.691406 107.53125 C 131.324219 107.039062 130.914062 106.546875 130.445312 106.113281 C 129.972656 105.683594 129.445312 105.292969 128.851562 104.984375 C 128.257812 104.699219 127.625 104.472656 126.910156 104.410156 C 126.234375 104.347656 125.578125 104.429688 124.964844 104.554688 C 124.332031 104.675781 123.738281 104.882812 123.148438 105.148438 C 123.003906 105.210938 122.859375 105.292969 122.71875 105.355469 C 122.535156 105.4375 122.410156 105.539062 122.269531 105.621094 C 121.902344 105.867188 121.65625 106.050781 121.410156 106.257812 C 120.449219 107.078125 119.652344 108.0625 119.039062 109.152344 C 118.730469 109.707031 118.464844 110.261719 118.261719 110.875 C 118.160156 111.183594 118.097656 111.492188 118.015625 111.800781 C 117.976562 112.109375 117.914062 112.414062 117.875 112.722656 C 117.628906 115.207031 118.015625 117.589844 118.488281 119.90625 C 118.976562 122.226562 119.613281 124.484375 120.246094 126.722656 C 121.554688 131.21875 122.964844 135.652344 124.085938 140.148438 C 125.234375 144.640625 126.050781 149.199219 126.171875 153.816406 C 126.253906 156.117188 126.191406 158.4375 125.988281 160.734375 C 125.804688 162.828125 125.539062 164.921875 125.152344 167.015625 C 124.558594 168.0625 124.046875 169.171875 123.71875 170.339844 C 123.351562 171.65625 123.148438 173.011719 123.167969 174.363281 C 123.210938 175.738281 123.371094 177.054688 123.679688 178.347656 C 123.964844 179.640625 124.375 180.933594 124.90625 182.144531 C 125.886719 184.320312 127.359375 186.3125 129.199219 187.832031 L 129.21875 194.953125 L 129.21875 195.136719 L 129.359375 195.238281 C 132.078125 197.355469 135.144531 199.015625 138.394531 200.144531 C 140.011719 200.71875 141.6875 201.171875 143.382812 201.4375 C 144.222656 201.625 145.082031 201.664062 145.9375 201.789062 L 147.226562 201.847656 L 147.859375 201.890625 L 148.511719 201.890625 C 151.949219 201.910156 155.402344 201.355469 158.652344 200.207031 C 161.902344 199.078125 164.96875 197.417969 167.707031 195.300781 L 167.871094 195.179688 L 167.871094 194.953125 L 167.933594 187.933594 C 168.953125 187.277344 169.855469 186.414062 170.628906 185.488281 C 171.53125 184.359375 172.246094 183.109375 172.859375 181.835938 C 174.085938 179.25 174.820312 176.480469 175.371094 173.707031 C 175.902344 170.9375 176.210938 168.144531 176.273438 165.3125 C 177.867188 163.710938 179.257812 161.882812 180.359375 159.894531 C 181.546875 157.78125 182.464844 155.480469 182.792969 153.015625 C 182.914062 151.804688 182.914062 150.554688 182.628906 149.300781 " fill-opacity="1" fill-rule="nonzero"/></g></svg>