<svg xmlns="http://www.w3.org/2000/svg" xmlns:xlink="http://www.w3.org/1999/xlink" width="400" zoomAndPan="magnify" viewBox="0 0 300 299.999988" height="400" preserveAspectRatio="xMidYMid meet" version="1.0"><defs><clipPath id="a15d3548ba"><path d="M 87.507812 87.507812 L 212.585938 87.507812 L 212.585938 212.585938 L 87.507812 212.585938 Z M 87.507812 87.507812 " clip-rule="nonzero"/></clipPath><clipPath id="e044c2c3e5"><path d="M 98.007812 87.507812 L 202.085938 87.507812 C 204.871094 87.507812 207.542969 88.617188 209.511719 90.585938 C 211.480469 92.554688 212.585938 95.222656 212.585938 98.007812 L 212.585938 202.085938 C 212.585938 204.871094 211.480469 207.542969 209.511719 209.511719 C 207.542969 211.480469 204.871094 212.585938 202.085938 212.585938 L 98.007812 212.585938 C 95.222656 212.585938 92.554688 211.480469 90.585938 209.511719 C 88.617188 207.542969 87.507812 204.871094 87.507812 202.085938 L 87.507812 98.007812 C 87.507812 95.222656 88.617188 92.554688 90.585938 90.585938 C 92.554688 88.617188 95.222656 87.507812 98.007812 87.507812 Z M 98.007812 87.507812 " clip-rule="nonzero"/></clipPath><clipPath id="2c1c0e44fa"><path d="M 0.507812 0.507812 L 125.585938 0.507812 L 125.585938 125.585938 L 0.507812 125.585938 Z M 0.507812 0.507812 " clip-rule="nonzero"/></clipPath><clipPath id="426e952d21"><path d="M 11.007812 0.507812 L 115.085938 0.507812 C 117.871094 0.507812 120.542969 1.617188 122.511719 3.585938 C 124.480469 5.554688 125.585938 8.222656 125.585938 11.007812 L 125.585938 115.085938 C 125.585938 117.871094 124.480469 120.542969 122.511719 122.511719 C 120.542969 124.480469 117.871094 125.585938 115.085938 125.585938 L 11.007812 125.585938 C 8.222656 125.585938 5.554688 124.480469 3.585938 122.511719 C 1.617188 120.542969 0.507812 117.871094 0.507812 115.085938 L 0.507812 11.007812 C 0.507812 8.222656 1.617188 5.554688 3.585938 3.585938 C 5.554688 1.617188 8.222656 0.507812 11.007812 0.507812 Z M 11.007812 0.507812 " clip-rule="nonzero"/></clipPath><clipPath id="26d028e776"><rect x="0" width="126" y="0" height="126"/></clipPath><clipPath id="d590f00a96"><path d="M 87.507812 87.507812 L 212.757812 87.507812 L 212.757812 212.757812 L 87.507812 212.757812 Z M 87.507812 87.507812 " clip-rule="nonzero"/></clipPath><clipPath id="1b71fc0d17"><path d="M 98.007812 87.507812 L 202.082031 87.507812 C 204.867188 87.507812 207.539062 88.617188 209.507812 90.585938 C 211.476562 92.554688 212.582031 95.222656 212.582031 98.007812 L 212.582031 202.082031 C 212.582031 204.867188 211.476562 207.539062 209.507812 209.507812 C 207.539062 211.476562 204.867188 212.582031 202.082031 212.582031 L 98.007812 212.582031 C 95.222656 212.582031 92.554688 211.476562 90.585938 209.507812 C 88.617188 207.539062 87.507812 204.867188 87.507812 202.082031 L 87.507812 98.007812 C 87.507812 95.222656 88.617188 92.554688 90.585938 90.585938 C 92.554688 88.617188 95.222656 87.507812 98.007812 87.507812 Z M 98.007812 87.507812 " clip-rule="nonzero"/></clipPath><clipPath id="2eebed08e2"><path d="M 112 101.136719 L 186 101.136719 L 186 201 L 112 201 Z M 112 101.136719 " clip-rule="nonzero"/></clipPath><clipPath id="0b65756d12"><path d="M 112 101.136719 L 187 101.136719 L 187 201 L 112 201 Z M 112 101.136719 " clip-rule="nonzero"/></clipPath></defs><g clip-path="url(#a15d3548ba)"><g clip-path="url(#e044c2c3e5)"><g transform="matrix(1, 0, 0, 1, 87, 87)"><g clip-path="url(#26d028e776)"><g clip-path="url(#2c1c0e44fa)"><g clip-path="url(#426e952d21)"><path fill="#eb7332" d="M 0.507812 0.507812 L 125.585938 0.507812 L 125.585938 125.585938 L 0.507812 125.585938 Z M 0.507812 0.507812 " fill-opacity="1" fill-rule="nonzero"/></g></g></g></g></g></g><g clip-path="url(#d590f00a96)"><g clip-path="url(#1b71fc0d17)"><path stroke-linecap="butt" transform="matrix(0.75, 0, 0, 0.75, 87.509032, 87.509054)" fill="none" stroke-linejoin="miter" d="M 13.998375 -0.00165594 L 152.764002 -0.00165594 C 156.477544 -0.00165594 160.040044 1.477511 162.665044 4.102511 C 165.290044 6.727511 166.764002 10.284803 166.764002 13.998344 L 166.764002 152.763972 C 166.764002 156.477513 165.290044 160.040014 162.665044 162.665014 C 160.040044 165.290014 156.477544 166.763972 152.764002 166.763972 L 13.998375 166.763972 C 10.284833 166.763972 6.727541 165.290014 4.102541 162.665014 C 1.477541 160.040014 -0.00162554 156.477513 -0.00162554 152.763972 L -0.00162554 13.998344 C -0.00162554 10.284803 1.477541 6.727511 4.102541 4.102511 C 6.727541 1.477511 10.284833 -0.00165594 13.998375 -0.00165594 Z M 13.998375 -0.00165594 " stroke="#000000" stroke-width="6" stroke-opacity="1" stroke-miterlimit="4"/></g></g><g clip-path="url(#2eebed08e2)"><path fill="#f4dec7" d="M 137.34375 142.84375 C 137.34375 142.84375 136.90625 123.988281 136.648438 117.078125 C 136.410156 110.167969 135.589844 101.238281 143.242188 101.632812 C 150.894531 102.03125 149.121094 114.714844 148.664062 122.855469 C 148.207031 130.992188 150.117188 141.117188 150.117188 141.117188 M 150.117188 141.117188 C 153.785156 131.035156 154.722656 121.820312 155.300781 112.75 C 155.878906 103.679688 157.929688 102.367188 163.828125 102.605469 C 169.726562 102.84375 169.507812 113.605469 167.078125 124.34375 C 164.644531 135.082031 163.429688 142.863281 163.429688 142.863281 C 163.429688 142.863281 166.820312 134.011719 171.960938 122.398438 C 177.101562 110.765625 182.761719 114.0625 182.761719 114.0625 C 191.03125 119.441406 181.105469 133.296875 177.996094 138.855469 C 174.890625 144.414062 173.773438 150.03125 173.773438 150.03125 C 173.773438 150.03125 174.609375 158.863281 173.59375 170.773438 C 172.578125 182.683594 165.363281 186.496094 165.363281 186.496094 L 165.363281 193.960938 C 147.726562 207.636719 128.257812 194.457031 128.257812 194.457031 L 127.738281 189.929688 L 128.875 187.152344 C 119.351562 183.140625 121.261719 168.394531 121.261719 168.394531 C 121.261719 168.394531 122.558594 154.039062 123.296875 150.367188 C 124.03125 146.695312 120.527344 138.972656 120.527344 138.972656 C 120.527344 138.972656 106.316406 112.769531 116.820312 108.265625 C 127.320312 103.757812 130.230469 126.128906 130.230469 126.128906 L 136.148438 143.421875 L 137.34375 142.84375 " fill-opacity="1" fill-rule="nonzero"/></g><path fill="#e0bfae" d="M 150.796875 142.03125 C 142.167969 141.792969 135.035156 143.640625 130.25 145.324219 C 134.992188 144.570312 142.109375 143.757812 150.71875 144.015625 C 161.617188 144.351562 169.050781 146.21875 169.128906 145.800781 C 169.230469 145.367188 160.878906 142.308594 150.796875 142.03125 Z M 129.691406 187.867188 C 131.425781 189.253906 137.34375 193.664062 146.132812 193.742188 C 155.378906 193.820312 161.617188 189.058594 163.269531 187.707031 C 157.035156 189.910156 153.347656 189.214844 151.09375 188.0625 C 149.980469 187.488281 148.566406 186.476562 146.332031 186.316406 C 143.941406 186.160156 142.265625 187.09375 140.851562 187.648438 C 138.582031 188.5625 135.054688 189.214844 129.691406 187.867188 Z M 152.589844 165.792969 L 145.753906 167.71875 C 144.796875 168.453125 143.820312 169.1875 142.863281 169.921875 C 149.480469 171.011719 155.996094 168.769531 159.824219 163.945312 C 163.03125 159.894531 163.269531 155.371094 163.269531 153.644531 C 163.351562 162.554688 152.589844 165.792969 152.589844 165.792969 Z M 148.964844 130.339844 C 149.101562 131.152344 149.222656 132.363281 149.101562 133.8125 C 148.941406 135.558594 148.703125 138.359375 146.570312 140.363281 C 144.558594 142.269531 141.949219 142.425781 140.992188 142.425781 C 143.941406 142.328125 146.890625 142.230469 149.859375 142.109375 Z M 163.609375 143.917969 C 163.609375 143.917969 163.949219 134.585938 164.804688 132.738281 C 164.867188 132.621094 164.886719 132.542969 164.886719 132.542969 C 165.023438 132.582031 162.613281 141.175781 160.859375 142.109375 C 160.78125 142.148438 159.703125 142.707031 159.703125 142.707031 Z M 136.148438 143.421875 C 134.394531 143.917969 132.621094 144.414062 130.867188 144.910156 C 131.289062 144.273438 131.6875 143.539062 132.042969 142.707031 C 133.519531 139.132812 133.019531 135.738281 132.601562 133.992188 L 136.148438 143.421875 " fill-opacity="1" fill-rule="nonzero"/><g clip-path="url(#0b65756d12)"><path fill="#100f0d" d="M 185.628906 121.484375 C 185.609375 121.863281 185.511719 122.238281 185.429688 122.617188 C 185.332031 122.992188 185.253906 123.371094 185.132812 123.746094 C 184.671875 125.238281 184.035156 126.6875 183.339844 128.113281 C 182.640625 129.542969 181.882812 130.933594 181.105469 132.34375 C 179.550781 135.140625 177.917969 137.902344 176.484375 140.78125 C 175.765625 142.230469 175.089844 143.679688 174.53125 145.207031 C 173.972656 146.734375 173.515625 148.304688 173.335938 149.949219 L 173.335938 150.03125 C 173.472656 152.414062 173.554688 154.8125 173.59375 157.214844 C 173.632812 159.617188 173.652344 162.019531 173.59375 164.402344 C 173.574219 165.59375 173.496094 166.785156 173.414062 167.976562 C 173.316406 169.167969 173.195312 170.339844 172.996094 171.507812 C 172.816406 172.679688 172.558594 173.832031 172.257812 174.984375 C 172.078125 175.539062 171.941406 176.113281 171.742188 176.671875 L 171.441406 177.503906 L 171.101562 178.316406 C 170.1875 180.480469 168.910156 182.507812 167.296875 184.195312 C 166.5 185.046875 165.601562 185.800781 164.625 186.457031 C 163.648438 187.09375 162.59375 187.628906 161.496094 188.003906 C 159.285156 188.78125 156.894531 188.9375 154.5625 188.582031 C 152.230469 188.222656 149.980469 187.390625 147.847656 186.277344 C 149.738281 187.765625 152.03125 188.839844 154.441406 189.316406 C 156.875 189.792969 159.425781 189.613281 161.777344 188.820312 C 162.851562 188.460938 163.871094 187.964844 164.84375 187.371094 L 164.707031 193.644531 C 164.148438 194.058594 163.589844 194.476562 162.992188 194.855469 C 162.316406 195.289062 161.617188 195.707031 160.898438 196.105469 C 159.464844 196.859375 157.96875 197.515625 156.4375 198.050781 C 154.902344 198.585938 153.308594 198.964844 151.691406 199.222656 C 150.078125 199.5 148.445312 199.617188 146.832031 199.636719 L 145.613281 199.617188 C 145.214844 199.597656 144.796875 199.558594 144.398438 199.539062 L 143.78125 199.5 L 143.183594 199.417969 C 142.785156 199.359375 142.367188 199.320312 141.96875 199.261719 C 140.355469 199.003906 138.78125 198.585938 137.226562 198.089844 C 134.214844 197.097656 131.386719 195.609375 128.835938 193.761719 L 128.894531 190.464844 C 128.914062 189.574219 128.9375 188.699219 128.957031 187.808594 C 130.089844 188.363281 131.308594 188.78125 132.542969 189.058594 C 133.859375 189.335938 135.210938 189.414062 136.546875 189.355469 C 137.882812 189.277344 139.21875 189.015625 140.472656 188.582031 C 141.75 188.164062 142.945312 187.527344 143.882812 186.554688 C 142.605469 186.972656 141.449219 187.46875 140.234375 187.867188 C 139.019531 188.242188 137.765625 188.460938 136.507812 188.519531 C 135.253906 188.542969 133.976562 188.441406 132.742188 188.164062 C 131.507812 187.867188 130.332031 187.410156 129.214844 186.832031 C 128.097656 186.238281 127.042969 185.523438 126.085938 184.710938 C 125.609375 184.292969 125.148438 183.855469 124.75 183.398438 L 124.171875 182.683594 C 124.074219 182.566406 123.992188 182.425781 123.914062 182.308594 L 123.675781 181.910156 C 123.058594 180.859375 122.636719 179.667969 122.398438 178.457031 C 122.160156 177.226562 122.058594 175.976562 122.019531 174.683594 C 122 173.414062 122.019531 172.125 122.019531 170.8125 L 122.019531 169.820312 L 122 168.828125 L 121.941406 167.835938 C 121.941406 167.679688 121.941406 167.558594 121.941406 167.417969 C 121.941406 167.28125 121.960938 167.160156 121.980469 167.042969 C 122.160156 166.03125 123.035156 165.175781 124.054688 164.5 C 125.070312 163.808594 126.226562 163.25 127.402344 162.695312 C 129.734375 161.605469 132.164062 160.570312 134.476562 159.28125 C 135.632812 158.644531 136.765625 157.929688 137.84375 157.136719 L 138.242188 156.839844 L 138.621094 156.5625 L 139.398438 156.003906 C 139.65625 155.828125 139.9375 155.667969 140.195312 155.507812 C 140.472656 155.351562 140.734375 155.171875 141.011719 155.03125 L 141.847656 154.617188 C 142.128906 154.476562 142.425781 154.378906 142.707031 154.257812 C 142.84375 154.199219 142.984375 154.140625 143.144531 154.078125 L 143.582031 153.941406 C 143.882812 153.84375 144.179688 153.742188 144.480469 153.664062 C 145.695312 153.324219 146.949219 153.148438 148.226562 153.007812 C 149.5 152.871094 150.816406 152.75 152.152344 152.511719 C 152.3125 152.472656 152.488281 152.453125 152.648438 152.414062 L 153.148438 152.292969 L 153.644531 152.175781 C 153.804688 152.132812 153.964844 152.074219 154.144531 152.015625 C 154.800781 151.835938 155.441406 151.539062 156.039062 151.28125 C 157.171875 150.765625 158.367188 150.328125 159.523438 150.289062 C 159.664062 150.269531 159.804688 150.289062 159.945312 150.289062 C 160.082031 150.308594 160.222656 150.308594 160.34375 150.347656 C 160.601562 150.40625 160.839844 150.488281 161.058594 150.625 C 161.496094 150.882812 161.816406 151.320312 162.035156 151.835938 C 162.253906 152.351562 162.375 152.949219 162.414062 153.5625 C 162.472656 154.179688 162.472656 154.792969 162.433594 155.429688 C 162.394531 156.066406 162.335938 156.699219 162.234375 157.316406 C 162.136719 157.910156 161.957031 158.46875 161.695312 159.023438 C 161.4375 159.558594 161.078125 160.054688 160.699219 160.53125 C 160.300781 160.988281 159.84375 161.425781 159.367188 161.820312 C 158.390625 162.617188 157.292969 163.269531 156.15625 163.847656 C 153.867188 164.976562 151.394531 165.773438 148.882812 166.445312 L 146.992188 166.945312 C 146.832031 166.984375 146.671875 167.023438 146.511719 167.101562 C 146.351562 167.179688 146.171875 167.242188 146.011719 167.320312 C 145.734375 167.5 145.414062 167.660156 145.15625 167.855469 C 144.058594 168.609375 143.0625 169.464844 142.089844 170.316406 C 140.117188 172.027344 138.242188 173.832031 136.46875 175.757812 C 138.480469 174.089844 140.433594 172.382812 142.425781 170.714844 C 142.566406 170.59375 142.707031 170.496094 142.84375 170.378906 C 143.382812 170.636719 143.921875 170.914062 144.441406 171.230469 C 144.71875 171.390625 144.957031 171.570312 145.214844 171.746094 C 145.457031 171.945312 145.714844 172.125 145.953125 172.324219 C 146.433594 172.71875 146.910156 173.15625 147.328125 173.632812 C 147.765625 174.109375 148.1875 174.566406 148.664062 175.042969 C 148.503906 174.386719 148.1875 173.792969 147.808594 173.234375 C 147.410156 172.699219 146.992188 172.183594 146.511719 171.707031 C 146.035156 171.230469 145.515625 170.792969 144.957031 170.417969 C 144.558594 170.140625 144.140625 169.882812 143.683594 169.683594 C 144.28125 169.226562 144.878906 168.769531 145.476562 168.351562 C 145.734375 168.175781 146.011719 168.015625 146.273438 167.855469 C 146.414062 167.796875 146.53125 167.738281 146.671875 167.679688 C 146.8125 167.617188 146.96875 167.597656 147.109375 167.539062 L 149.003906 167.082031 C 151.554688 166.46875 154.085938 165.710938 156.476562 164.582031 C 157.671875 164.027344 158.847656 163.351562 159.902344 162.535156 C 160.441406 162.121094 160.941406 161.664062 161.398438 161.148438 C 161.855469 160.628906 162.253906 160.054688 162.574219 159.441406 C 162.890625 158.804688 163.132812 158.148438 163.25 157.453125 C 163.371094 156.800781 163.449219 156.144531 163.511719 155.46875 C 163.550781 154.792969 163.570312 154.121094 163.511719 153.445312 C 163.449219 152.769531 163.351562 152.054688 163.070312 151.378906 C 162.8125 150.707031 162.335938 150.011719 161.65625 149.59375 C 161.316406 149.375 160.941406 149.214844 160.582031 149.136719 C 160.402344 149.078125 160.203125 149.078125 160.023438 149.039062 C 159.84375 149.039062 159.644531 149 159.464844 149.019531 C 157.992188 149.058594 156.695312 149.535156 155.460938 150.070312 C 154.863281 150.308594 154.324219 150.566406 153.707031 150.726562 C 153.566406 150.765625 153.40625 150.824219 153.269531 150.863281 L 152.351562 151.0625 C 152.191406 151.101562 152.03125 151.121094 151.890625 151.140625 C 150.65625 151.359375 149.363281 151.460938 148.066406 151.597656 C 146.75 151.738281 145.414062 151.917969 144.121094 152.273438 C 143.78125 152.351562 143.460938 152.453125 143.144531 152.550781 L 142.664062 152.710938 C 142.507812 152.769531 142.347656 152.828125 142.1875 152.890625 C 141.867188 153.027344 141.550781 153.125 141.25 153.285156 L 140.335938 153.742188 C 140.035156 153.882812 139.757812 154.078125 139.457031 154.238281 C 139.179688 154.417969 138.878906 154.574219 138.601562 154.773438 L 137.785156 155.351562 L 137.363281 155.648438 L 136.984375 155.925781 C 135.96875 156.679688 134.894531 157.355469 133.757812 157.972656 C 131.527344 159.222656 129.136719 160.234375 126.765625 161.34375 C 125.585938 161.921875 124.390625 162.496094 123.257812 163.269531 C 122.835938 163.570312 122.417969 163.886719 122.019531 164.261719 C 122.019531 163.6875 122.039062 163.113281 122.058594 162.535156 C 122.121094 161.464844 122.199219 160.394531 122.320312 159.300781 C 122.558594 157.15625 122.9375 155.011719 123.394531 152.910156 L 123.574219 152.113281 L 123.675781 151.71875 C 123.714844 151.578125 123.734375 151.460938 123.773438 151.300781 C 123.894531 150.726562 123.953125 150.128906 123.933594 149.554688 C 123.914062 148.402344 123.753906 147.292969 123.515625 146.199219 C 123.035156 144.015625 122.300781 141.929688 121.523438 139.867188 C 119.949219 135.757812 118.15625 131.769531 116.558594 127.71875 C 115.761719 125.691406 115.027344 123.648438 114.429688 121.585938 C 113.8125 119.519531 113.332031 117.414062 113.3125 115.292969 C 113.3125 114.773438 113.351562 114.238281 113.414062 113.742188 C 113.492188 113.226562 113.613281 112.730469 113.789062 112.253906 C 113.96875 111.777344 114.210938 111.339844 114.488281 110.925781 C 114.628906 110.726562 114.808594 110.527344 114.964844 110.347656 L 115.523438 109.8125 C 116.300781 109.117188 117.179688 108.542969 118.136719 108.246094 C 119.089844 107.964844 120.105469 108.007812 121.042969 108.382812 C 121.980469 108.761719 122.816406 109.394531 123.554688 110.148438 C 124.292969 110.902344 124.910156 111.757812 125.488281 112.671875 C 126.605469 114.496094 127.460938 116.484375 128.097656 118.527344 C 128.417969 119.558594 128.675781 120.589844 128.855469 121.644531 L 129.136719 123.269531 C 129.234375 123.808594 129.375 124.34375 129.492188 124.898438 C 130.011719 127.042969 130.628906 129.148438 131.308594 131.230469 C 132.621094 135.261719 134.195312 139.191406 135.789062 143.121094 C 133.71875 143.738281 131.707031 144.511719 129.773438 145.445312 C 133.042969 144.492188 136.328125 143.71875 139.65625 143.222656 C 141.3125 142.984375 142.984375 142.785156 144.660156 142.6875 C 146.332031 142.566406 148.007812 142.527344 149.679688 142.546875 C 153.027344 142.605469 156.375 142.902344 159.683594 143.5 C 162.992188 144.09375 166.261719 144.949219 169.488281 146 C 167.535156 144.988281 165.484375 144.15625 163.371094 143.460938 L 163.589844 142.925781 L 165.402344 138.476562 L 167.21875 134.050781 C 168.433594 131.09375 169.667969 128.15625 171.023438 125.277344 C 171.699219 123.828125 172.398438 122.398438 173.175781 121.027344 C 173.953125 119.660156 174.75 118.269531 175.867188 117.257812 C 177.023438 116.203125 178.277344 115.210938 179.671875 114.636719 C 180.371094 114.359375 181.105469 114.199219 181.804688 114.277344 C 182.144531 114.320312 182.480469 114.417969 182.800781 114.578125 C 183.097656 114.734375 183.398438 114.953125 183.636719 115.210938 C 184.136719 115.726562 184.535156 116.382812 184.851562 117.097656 C 185.011719 117.453125 185.152344 117.8125 185.269531 118.171875 C 185.332031 118.347656 185.390625 118.546875 185.453125 118.726562 C 185.511719 118.925781 185.550781 119.101562 185.589844 119.28125 C 185.710938 119.957031 185.730469 120.730469 185.628906 121.484375 Z M 136.847656 109.753906 C 136.886719 108.859375 136.984375 107.964844 137.164062 107.09375 C 137.363281 106.238281 137.644531 105.40625 138.101562 104.691406 C 138.203125 104.511719 138.339844 104.351562 138.460938 104.175781 C 138.601562 104.015625 138.738281 103.855469 138.898438 103.71875 C 139.199219 103.421875 139.535156 103.183594 139.917969 102.984375 C 140.652344 102.585938 141.488281 102.347656 142.367188 102.230469 L 143.023438 102.167969 L 143.683594 102.152344 C 144.101562 102.152344 144.5 102.210938 144.898438 102.328125 C 145.675781 102.566406 146.3125 103.101562 146.8125 103.777344 C 147.308594 104.472656 147.648438 105.285156 147.90625 106.121094 C 148.164062 106.972656 148.324219 107.847656 148.445312 108.742188 C 148.683594 110.527344 148.742188 112.351562 148.703125 114.179688 C 148.664062 116.003906 148.523438 117.832031 148.425781 119.679688 C 148.324219 121.523438 148.265625 123.371094 148.324219 125.238281 C 148.386719 127.082031 148.542969 128.929688 148.683594 130.753906 C 148.84375 132.582031 148.964844 134.425781 149.082031 136.253906 L 149.28125 139.011719 L 149.382812 140.382812 L 149.421875 141.078125 L 149.421875 141.175781 C 146.074219 141.15625 142.726562 141.472656 139.457031 142.167969 C 138.820312 142.308594 138.203125 142.449219 137.582031 142.605469 C 137.503906 135.320312 137.40625 128.035156 137.226562 120.730469 C 137.183594 118.882812 137.125 117.058594 137.027344 115.191406 C 136.90625 113.386719 136.765625 111.558594 136.847656 109.753906 Z M 150.617188 140.542969 L 151.035156 139.230469 C 151.316406 138.359375 151.59375 137.464844 151.851562 136.589844 C 152.390625 134.824219 152.890625 133.058594 153.347656 131.25 C 153.804688 129.464844 154.203125 127.660156 154.542969 125.832031 C 154.882812 124.003906 155.140625 122.179688 155.300781 120.3125 C 155.441406 118.46875 155.519531 116.621094 155.640625 114.796875 C 155.738281 112.96875 155.878906 111.140625 156.175781 109.355469 C 156.335938 108.460938 156.535156 107.589844 156.8125 106.753906 C 157.113281 105.921875 157.492188 105.128906 158.03125 104.492188 C 158.289062 104.15625 158.609375 103.898438 158.945312 103.660156 C 159.304688 103.441406 159.664062 103.242188 160.0625 103.144531 C 160.859375 102.902344 161.738281 102.863281 162.59375 102.964844 L 162.914062 103.003906 L 163.230469 103.0625 C 163.449219 103.101562 163.671875 103.121094 163.871094 103.183594 C 164.289062 103.28125 164.667969 103.421875 165.042969 103.617188 C 165.78125 103.996094 166.378906 104.589844 166.839844 105.304688 C 167.296875 106.019531 167.59375 106.835938 167.816406 107.6875 C 168.035156 108.542969 168.152344 109.4375 168.214844 110.328125 C 168.332031 112.117188 168.234375 113.941406 168.035156 115.75 C 167.835938 117.554688 167.535156 119.359375 167.195312 121.148438 C 166.839844 122.933594 166.441406 124.722656 166 126.507812 C 165.5625 128.292969 165.085938 130.058594 164.644531 131.867188 C 164.207031 133.671875 163.871094 135.5 163.648438 137.324219 C 163.429688 139.171875 163.25 141.019531 163.25 142.882812 L 163.25 143.441406 C 162.15625 143.082031 161.039062 142.765625 159.902344 142.507812 C 156.792969 141.753906 153.605469 141.355469 150.398438 141.257812 L 150.398438 141.238281 Z M 186.425781 119.0625 C 186.386719 118.84375 186.347656 118.644531 186.289062 118.449219 C 186.226562 118.25 186.167969 118.050781 186.109375 117.851562 C 185.988281 117.453125 185.828125 117.078125 185.671875 116.699219 C 185.332031 115.945312 184.894531 115.191406 184.296875 114.558594 C 183.976562 114.238281 183.636719 113.960938 183.238281 113.761719 C 182.839844 113.542969 182.402344 113.425781 181.945312 113.367188 C 181.046875 113.246094 180.148438 113.464844 179.375 113.78125 C 178.59375 114.101562 177.859375 114.535156 177.199219 115.011719 C 176.523438 115.488281 175.90625 116.027344 175.308594 116.582031 C 175.167969 116.71875 175.007812 116.859375 174.871094 117.019531 C 174.730469 117.175781 174.570312 117.335938 174.449219 117.496094 C 174.171875 117.8125 173.953125 118.148438 173.714844 118.488281 C 173.253906 119.164062 172.855469 119.875 172.457031 120.570312 C 171.679688 121.980469 170.984375 123.429688 170.285156 124.878906 C 167.816406 130.21875 165.664062 135.679688 163.789062 141.238281 C 163.949219 139.945312 164.1875 138.675781 164.445312 137.40625 C 164.824219 135.617188 165.265625 133.832031 165.722656 132.066406 C 166.640625 128.511719 167.617188 124.9375 168.332031 121.304688 C 168.691406 119.480469 168.992188 117.652344 169.210938 115.808594 C 169.410156 113.960938 169.507812 112.074219 169.367188 110.191406 C 169.289062 109.257812 169.167969 108.304688 168.929688 107.371094 C 168.691406 106.4375 168.332031 105.503906 167.792969 104.671875 C 167.257812 103.835938 166.5 103.101562 165.582031 102.625 C 165.125 102.386719 164.644531 102.210938 164.167969 102.109375 C 163.929688 102.050781 163.6875 102.03125 163.449219 101.972656 L 163.050781 101.933594 L 162.691406 101.890625 C 161.738281 101.792969 160.71875 101.832031 159.746094 102.152344 C 159.246094 102.289062 158.789062 102.546875 158.367188 102.804688 C 157.949219 103.101562 157.570312 103.441406 157.253906 103.835938 C 156.613281 104.613281 156.195312 105.523438 155.878906 106.417969 C 155.578125 107.332031 155.378906 108.246094 155.21875 109.175781 C 154.921875 111.023438 154.800781 112.890625 154.722656 114.734375 C 154.621094 116.582031 154.5625 118.40625 154.441406 120.234375 C 154.304688 122.058594 154.066406 123.867188 153.746094 125.671875 C 153.425781 127.480469 153.046875 129.265625 152.628906 131.054688 C 152.210938 132.839844 151.753906 134.625 151.253906 136.394531 C 151.015625 137.285156 150.757812 138.160156 150.476562 139.03125 L 150.058594 140.34375 L 149.960938 140.679688 L 149.9375 140.363281 L 149.859375 138.992188 L 149.699219 136.234375 C 149.582031 134.40625 149.480469 132.5625 149.339844 130.714844 C 149.203125 128.890625 149.101562 127.042969 149.0625 125.21875 C 149.023438 123.390625 149.101562 121.5625 149.242188 119.738281 C 149.363281 117.910156 149.539062 116.066406 149.601562 114.21875 C 149.660156 112.351562 149.621094 110.488281 149.402344 108.640625 C 149.28125 107.707031 149.101562 106.773438 148.84375 105.863281 C 148.566406 104.949219 148.207031 104.035156 147.628906 103.222656 C 147.050781 102.40625 146.210938 101.695312 145.214844 101.375 C 144.699219 101.21875 144.179688 101.136719 143.683594 101.136719 L 142.964844 101.15625 L 142.246094 101.21875 C 141.289062 101.335938 140.316406 101.613281 139.4375 102.089844 C 139 102.347656 138.582031 102.625 138.222656 102.984375 C 138.023438 103.144531 137.882812 103.339844 137.703125 103.539062 C 137.566406 103.738281 137.40625 103.9375 137.265625 104.15625 C 136.726562 105.007812 136.429688 105.941406 136.210938 106.875 C 136.011719 107.808594 135.910156 108.761719 135.890625 109.695312 C 135.8125 111.578125 135.988281 113.425781 136.128906 115.253906 C 136.25 117.078125 136.328125 118.925781 136.410156 120.75 C 136.707031 128.054688 136.925781 135.359375 137.144531 142.6875 C 137.105469 142.707031 137.066406 142.726562 137.027344 142.746094 C 136.765625 142.804688 136.507812 142.882812 136.25 142.964844 C 134.734375 139.011719 133.378906 134.984375 132.125 130.953125 C 131.488281 128.871094 130.867188 126.785156 130.371094 124.679688 C 130.25 124.144531 130.132812 123.628906 130.03125 123.09375 L 129.753906 121.484375 C 129.574219 120.394531 129.3125 119.300781 128.976562 118.25 C 128.316406 116.125 127.460938 114.082031 126.285156 112.15625 C 125.707031 111.203125 125.03125 110.289062 124.230469 109.476562 C 123.433594 108.660156 122.5 107.925781 121.402344 107.488281 C 120.308594 107.035156 119.011719 106.972656 117.855469 107.3125 C 116.699219 107.648438 115.722656 108.324219 114.867188 109.078125 L 114.25 109.671875 C 114.050781 109.890625 113.851562 110.109375 113.671875 110.347656 C 113.332031 110.824219 113.03125 111.359375 112.832031 111.898438 C 112.632812 112.453125 112.496094 113.007812 112.394531 113.585938 C 112.335938 114.160156 112.296875 114.734375 112.296875 115.292969 C 112.316406 117.554688 112.792969 119.757812 113.390625 121.882812 C 113.988281 124.003906 114.746094 126.070312 115.542969 128.113281 C 117.117188 132.203125 118.910156 136.195312 120.445312 140.265625 C 120.824219 141.277344 121.183594 142.308594 121.523438 143.320312 C 121.859375 144.351562 122.160156 145.386719 122.378906 146.417969 C 122.617188 147.449219 122.777344 148.503906 122.777344 149.535156 C 122.777344 150.050781 122.738281 150.566406 122.636719 151.042969 C 122.617188 151.160156 122.578125 151.300781 122.558594 151.421875 L 122.460938 151.816406 L 122.28125 152.628906 C 121.800781 154.773438 121.421875 156.957031 121.183594 159.140625 C 121.0625 160.234375 120.964844 161.34375 120.925781 162.4375 C 120.886719 163.507812 120.863281 164.5625 120.945312 165.652344 C 120.804688 165.972656 120.6875 166.289062 120.625 166.644531 C 120.605469 166.84375 120.566406 167.042969 120.566406 167.222656 C 120.566406 167.398438 120.566406 167.617188 120.585938 167.777344 L 120.644531 168.730469 L 120.6875 169.683594 L 120.707031 170.65625 C 120.707031 171.945312 120.6875 173.257812 120.746094 174.566406 C 120.804688 175.875 120.90625 177.226562 121.203125 178.535156 C 121.484375 179.847656 121.960938 181.15625 122.679688 182.328125 L 122.957031 182.765625 C 123.058594 182.902344 123.136719 183.0625 123.257812 183.179688 C 123.476562 183.441406 123.695312 183.71875 123.914062 183.976562 C 124.371094 184.472656 124.871094 184.929688 125.386719 185.363281 C 126.085938 185.960938 126.84375 186.476562 127.621094 186.933594 C 127.640625 188.0625 127.679688 189.175781 127.679688 190.308594 L 127.738281 193.882812 L 127.738281 194.160156 L 127.960938 194.316406 C 130.707031 196.261719 133.738281 197.75 136.945312 198.785156 C 138.539062 199.300781 140.175781 199.699219 141.828125 199.957031 C 142.246094 200.015625 142.664062 200.054688 143.085938 200.113281 L 143.703125 200.195312 L 144.320312 200.234375 C 144.738281 200.253906 145.15625 200.292969 145.574219 200.3125 L 146.832031 200.332031 C 150.179688 200.371094 153.527344 199.816406 156.734375 198.824219 C 158.328125 198.328125 159.902344 197.691406 161.417969 196.957031 C 162.933594 196.222656 164.386719 195.390625 165.78125 194.4375 L 166.0625 194.21875 L 166.0625 193.882812 L 165.882812 186.597656 C 166.640625 186.039062 167.335938 185.425781 167.996094 184.75 C 168.851562 183.855469 169.609375 182.882812 170.285156 181.851562 C 170.464844 181.59375 170.605469 181.335938 170.765625 181.058594 C 170.921875 180.800781 171.082031 180.519531 171.222656 180.261719 L 171.621094 179.429688 L 171.820312 179.011719 L 172 178.597656 L 172.359375 177.742188 L 172.65625 176.867188 C 172.875 176.292969 173.015625 175.699219 173.195312 175.121094 C 173.515625 173.949219 173.773438 172.761719 173.953125 171.546875 C 174.152344 170.359375 174.269531 169.148438 174.371094 167.9375 C 174.449219 166.726562 174.511719 165.515625 174.53125 164.324219 C 174.589844 161.902344 174.550781 159.5 174.492188 157.097656 C 174.429688 154.714844 174.351562 152.3125 174.210938 149.929688 C 174.371094 148.402344 174.789062 146.894531 175.328125 145.425781 C 175.867188 143.9375 176.542969 142.507812 177.261719 141.078125 C 178.695312 138.238281 180.328125 135.480469 181.882812 132.679688 C 182.660156 131.273438 183.4375 129.863281 184.15625 128.433594 C 184.871094 126.984375 185.511719 125.496094 186.007812 123.925781 C 186.148438 123.550781 186.226562 123.132812 186.328125 122.734375 C 186.40625 122.320312 186.507812 121.921875 186.527344 121.503906 C 186.605469 120.769531 186.605469 119.898438 186.425781 119.0625 " fill-opacity="1" fill-rule="nonzero"/></g></svg>