<svg xmlns="http://www.w3.org/2000/svg" xmlns:xlink="http://www.w3.org/1999/xlink" width="400" zoomAndPan="magnify" viewBox="0 0 300 299.999988" height="400" preserveAspectRatio="xMidYMid meet" version="1.0"><defs><clipPath id="476f464547"><path d="M 21.378906 87.605469 L 146.359375 87.605469 L 146.359375 212.585938 L 21.378906 212.585938 Z M 21.378906 87.605469 " clip-rule="nonzero"/></clipPath><clipPath id="ec43e724b2"><path d="M 31.878906 87.605469 L 135.859375 87.605469 C 141.660156 87.605469 146.359375 92.304688 146.359375 98.105469 L 146.359375 202.085938 C 146.359375 207.886719 141.660156 212.585938 135.859375 212.585938 L 31.878906 212.585938 C 26.082031 212.585938 21.378906 207.886719 21.378906 202.085938 L 21.378906 98.105469 C 21.378906 92.304688 26.082031 87.605469 31.878906 87.605469 Z M 31.878906 87.605469 " clip-rule="nonzero"/></clipPath><clipPath id="92b123fe86"><path d="M 0.378906 0.605469 L 125.359375 0.605469 L 125.359375 125.585938 L 0.378906 125.585938 Z M 0.378906 0.605469 " clip-rule="nonzero"/></clipPath><clipPath id="86c478b7ca"><path d="M 10.878906 0.605469 L 114.859375 0.605469 C 120.660156 0.605469 125.359375 5.304688 125.359375 11.105469 L 125.359375 115.085938 C 125.359375 120.886719 120.660156 125.585938 114.859375 125.585938 L 10.878906 125.585938 C 5.082031 125.585938 0.378906 120.886719 0.378906 115.085938 L 0.378906 11.105469 C 0.378906 5.304688 5.082031 0.605469 10.878906 0.605469 Z M 10.878906 0.605469 " clip-rule="nonzero"/></clipPath><clipPath id="0b10876b53"><rect x="0" width="126" y="0" height="126"/></clipPath><clipPath id="3d1ef1e969"><path d="M 21.378906 87.605469 L 146.628906 87.605469 L 146.628906 212.855469 L 21.378906 212.855469 Z M 21.378906 87.605469 " clip-rule="nonzero"/></clipPath><clipPath id="ec9fd157ba"><path d="M 31.878906 87.605469 L 135.859375 87.605469 C 141.660156 87.605469 146.359375 92.304688 146.359375 98.105469 L 146.359375 202.085938 C 146.359375 207.882812 141.660156 212.585938 135.859375 212.585938 L 31.878906 212.585938 C 26.082031 212.585938 21.378906 207.882812 21.378906 202.085938 L 21.378906 98.105469 C 21.378906 92.304688 26.082031 87.605469 31.878906 87.605469 Z M 31.878906 87.605469 " clip-rule="nonzero"/></clipPath><clipPath id="b0ab83126f"><path d="M 33.011719 97.679688 L 135 97.679688 L 135 205.679688 L 33.011719 205.679688 Z M 33.011719 97.679688 " clip-rule="nonzero"/></clipPath><clipPath id="6e9dcd3f32"><path d="M 6.152344 1.28125 L 98.078125 1.28125 L 98.078125 101.578125 L 6.152344 101.578125 Z M 6.152344 1.28125 " clip-rule="nonzero"/></clipPath><clipPath id="41c37ebcd7"><rect x="0" width="102" y="0" height="109"/></clipPath><clipPath id="1c182110c8"><path d="M 159.253906 87.605469 L 284.425781 87.605469 L 284.425781 212.777344 L 159.253906 212.777344 Z M 159.253906 87.605469 " clip-rule="nonzero"/></clipPath><clipPath id="850e56a268"><path d="M 169.753906 87.605469 L 273.925781 87.605469 C 276.710938 87.605469 279.378906 88.710938 281.351562 90.679688 C 283.320312 92.648438 284.425781 95.320312 284.425781 98.105469 L 284.425781 202.277344 C 284.425781 205.0625 283.320312 207.730469 281.351562 209.703125 C 279.378906 211.671875 276.710938 212.777344 273.925781 212.777344 L 169.753906 212.777344 C 166.96875 212.777344 164.296875 211.671875 162.328125 209.703125 C 160.359375 207.730469 159.253906 205.0625 159.253906 202.277344 L 159.253906 98.105469 C 159.253906 95.320312 160.359375 92.648438 162.328125 90.679688 C 164.296875 88.710938 166.96875 87.605469 169.753906 87.605469 Z M 169.753906 87.605469 " clip-rule="nonzero"/></clipPath><clipPath id="1ef86c06d9"><path d="M 0.253906 0.605469 L 125.425781 0.605469 L 125.425781 125.777344 L 0.253906 125.777344 Z M 0.253906 0.605469 " clip-rule="nonzero"/></clipPath><clipPath id="1faa9f8749"><path d="M 10.753906 0.605469 L 114.925781 0.605469 C 117.710938 0.605469 120.378906 1.710938 122.351562 3.679688 C 124.320312 5.648438 125.425781 8.320312 125.425781 11.105469 L 125.425781 115.277344 C 125.425781 118.0625 124.320312 120.730469 122.351562 122.703125 C 120.378906 124.671875 117.710938 125.777344 114.925781 125.777344 L 10.753906 125.777344 C 7.96875 125.777344 5.296875 124.671875 3.328125 122.703125 C 1.359375 120.730469 0.253906 118.0625 0.253906 115.277344 L 0.253906 11.105469 C 0.253906 8.320312 1.359375 5.648438 3.328125 3.679688 C 5.296875 1.710938 7.96875 0.605469 10.753906 0.605469 Z M 10.753906 0.605469 " clip-rule="nonzero"/></clipPath><clipPath id="1326860b51"><rect x="0" width="126" y="0" height="126"/></clipPath><clipPath id="2dcd87961f"><path d="M 159.253906 87.605469 L 284.503906 87.605469 L 284.503906 212.855469 L 159.253906 212.855469 Z M 159.253906 87.605469 " clip-rule="nonzero"/></clipPath><clipPath id="98a98b9ee7"><path d="M 169.753906 87.605469 L 273.921875 87.605469 C 276.707031 87.605469 279.375 88.710938 281.34375 90.679688 C 283.316406 92.648438 284.421875 95.320312 284.421875 98.105469 L 284.421875 202.273438 C 284.421875 205.058594 283.316406 207.726562 281.34375 209.695312 C 279.375 211.664062 276.707031 212.773438 273.921875 212.773438 L 169.753906 212.773438 C 166.96875 212.773438 164.296875 211.664062 162.328125 209.695312 C 160.359375 207.726562 159.253906 205.058594 159.253906 202.273438 L 159.253906 98.105469 C 159.253906 95.320312 160.359375 92.648438 162.328125 90.679688 C 164.296875 88.710938 166.96875 87.605469 169.753906 87.605469 Z M 169.753906 87.605469 " clip-rule="nonzero"/></clipPath><clipPath id="4f99d5bc5c"><path d="M 192 97 L 256 97 L 256 202.21875 L 192 202.21875 Z M 192 97 " clip-rule="nonzero"/></clipPath></defs><g clip-path="url(#476f464547)"><g clip-path="url(#ec43e724b2)"><g transform="matrix(1, 0, 0, 1, 21, 87)"><g clip-path="url(#0b10876b53)"><g clip-path="url(#92b123fe86)"><g clip-path="url(#86c478b7ca)"><path fill="#eb7332" d="M 0.378906 0.605469 L 125.359375 0.605469 L 125.359375 125.585938 L 0.378906 125.585938 Z M 0.378906 0.605469 " fill-opacity="1" fill-rule="nonzero"/></g></g></g></g></g></g><g clip-path="url(#3d1ef1e969)"><g clip-path="url(#ec9fd157ba)"><path stroke-linecap="butt" transform="matrix(0.75, 0, 0, 0.75, 21.379315, 87.604183)" fill="none" stroke-linejoin="miter" d="M 13.999457 0.00171401 L 152.640093 0.00171401 C 160.374469 0.00171401 166.640094 6.26734 166.640094 14.001715 L 166.640094 152.642351 C 166.640094 160.371519 160.374469 166.642353 152.640093 166.642353 L 13.999457 166.642353 C 6.270289 166.642353 -0.000544539 160.371519 -0.000544539 152.642351 L -0.000544539 14.001715 C -0.000544539 6.26734 6.270289 0.00171401 13.999457 0.00171401 Z M 13.999457 0.00171401 " stroke="#000000" stroke-width="6" stroke-opacity="1" stroke-miterlimit="4"/></g></g><g clip-path="url(#b0ab83126f)"><g transform="matrix(1, 0, 0, 1, 33, 97)"><g clip-path="url(#41c37ebcd7)"><path fill="#f4dec7" d="M 57.179688 44.652344 C 56.699219 40.058594 59.332031 22.574219 60.640625 15.617188 C 61.925781 8.660156 60.960938 3.304688 57.441406 2.300781 C 53.921875 1.300781 54.0625 0.679688 49.699219 5.230469 C 45.335938 9.78125 44.171875 44.109375 44.171875 44.109375 M 44.171875 44.109375 C 40.53125 35.046875 39.503906 27.367188 38.5 16.578125 C 37.492188 5.792969 32.96875 6.050781 32.96875 6.050781 C 20.761719 6.191406 26.011719 22.011719 26.574219 24.71875 C 27.136719 27.425781 30.535156 46.558594 30.535156 46.558594 C 30.535156 46.558594 28.445312 42.183594 21.75 26.726562 C 15.050781 11.265625 9.800781 14.613281 9.800781 14.613281 C -0.253906 19.527344 14.628906 38.554688 17.644531 44.890625 C 20.660156 51.230469 19.9375 62.539062 20.964844 72.34375 C 21.988281 82.148438 29.410156 88.484375 29.410156 88.484375 L 29.410156 94.863281 C 44.390625 108.679688 65.566406 95.84375 65.566406 95.84375 L 65.566406 90.933594 C 69.691406 91.273438 82.839844 78.117188 82.839844 78.117188 C 82.839844 78.117188 89.878906 71.761719 95.792969 67.089844 C 101.703125 62.417969 94.222656 59.992188 94.222656 59.992188 C 82.921875 56.964844 73.289062 68.273438 73.289062 68.273438 C 73.289062 68.273438 70.675781 55.820312 70.492188 49.90625 C 70.3125 43.988281 76.890625 31.355469 79.804688 22.65625 C 82.722656 13.953125 79.804688 13.371094 79.804688 13.371094 C 73.488281 8.660156 69.347656 13.652344 65.042969 27.207031 C 60.742188 40.761719 57.179688 44.652344 57.179688 44.652344 " fill-opacity="1" fill-rule="nonzero"/><path fill="#e0bfae" d="M 40.972656 90.75 C 40.75 91.03125 38.597656 93.558594 35.140625 93.378906 C 32.507812 93.238281 30.152344 91.574219 29.046875 89.105469 C 30.457031 89.75 32.527344 90.511719 35.140625 90.832031 C 37.515625 91.132812 39.523438 90.992188 40.972656 90.75 Z M 57.601562 92.976562 C 61.484375 92.917969 64.441406 91.695312 65.988281 90.933594 C 65.707031 91.332031 62.953125 95.121094 57.945312 95.285156 C 52.917969 95.445312 49.941406 91.8125 49.640625 91.433594 C 51.167969 92.074219 53.984375 93.039062 57.601562 92.976562 Z M 62.890625 64.882812 C 64.902344 64.605469 66.691406 65.066406 69.1875 64.023438 C 70.371094 63.519531 71.238281 62.878906 71.78125 62.417969 C 72.285156 64.363281 72.785156 66.328125 73.308594 68.273438 C 71.339844 67.53125 67.839844 66.507812 63.457031 66.828125 C 60.480469 67.050781 58.066406 67.851562 56.417969 68.535156 C 59.011719 65.90625 61.285156 65.105469 62.890625 64.882812 Z M 36.808594 69.617188 C 33.792969 68.574219 31.160156 68.574219 29.609375 68.675781 C 32.324219 66.710938 35.84375 66.347656 38.742188 67.773438 C 42.21875 69.476562 43.164062 72.964844 43.304688 73.507812 C 42.160156 72.425781 39.988281 70.699219 36.808594 69.617188 Z M 30.617188 46.957031 C 29.832031 42.164062 29.027344 37.394531 28.242188 32.601562 C 28.828125 34.804688 29.371094 36.792969 29.871094 38.496094 C 31.140625 42.847656 31.601562 43.910156 32.667969 44.652344 C 34.15625 45.695312 36.046875 45.574219 37.351562 45.3125 Z M 44.230469 44.453125 C 44.410156 40.5 44.613281 36.550781 44.792969 32.601562 C 43.867188 36.230469 44.894531 39.960938 47.46875 42.246094 C 49.820312 44.332031 52.636719 44.453125 53.519531 44.453125 Z M 62.128906 45.914062 C 62.226562 45.933594 60.820312 45.632812 60.136719 44.589844 C 59.292969 43.308594 59.9375 41.464844 60.640625 39.476562 C 61.121094 38.113281 61.6875 37.03125 62.128906 36.269531 L 57.199219 44.632812 C 58.832031 45.074219 60.480469 45.492188 62.128906 45.914062 " fill-opacity="1" fill-rule="nonzero"/><g clip-path="url(#6e9dcd3f32)"><path fill="#100f0d" d="M 30.035156 68.234375 C 29.371094 68.332031 28.707031 68.453125 28.0625 68.613281 C 28.726562 68.753906 29.371094 68.792969 30.035156 68.894531 L 31 69.035156 C 31.160156 69.054688 31.320312 69.074219 31.480469 69.09375 C 31.640625 69.117188 31.804688 69.15625 31.964844 69.175781 C 32.285156 69.234375 32.585938 69.296875 32.910156 69.335938 C 33.230469 69.394531 33.53125 69.476562 33.855469 69.535156 C 34.476562 69.65625 35.082031 69.835938 35.703125 69.976562 C 36.929688 70.320312 38.117188 70.738281 39.285156 71.242188 C 40.449219 71.742188 41.597656 72.324219 42.722656 73.046875 C 42 71.921875 40.914062 71.039062 39.785156 70.320312 C 38.640625 69.597656 37.375 69.074219 36.066406 68.695312 C 35.402344 68.535156 34.757812 68.375 34.074219 68.292969 C 33.734375 68.253906 33.410156 68.191406 33.070312 68.171875 C 32.726562 68.152344 32.40625 68.132812 32.0625 68.132812 C 31.722656 68.113281 31.402344 68.132812 31.058594 68.152344 Z M 7.328125 22.472656 C 7.710938 24.539062 8.457031 26.546875 9.339844 28.488281 C 9.78125 29.453125 10.285156 30.394531 10.828125 31.316406 C 11.351562 32.238281 11.933594 33.121094 12.539062 34.042969 C 13.703125 35.867188 14.828125 37.734375 15.835938 39.660156 C 16.863281 41.582031 17.765625 43.570312 18.511719 45.632812 C 19.253906 47.699219 19.777344 49.84375 20.078125 52.03125 C 20.21875 53.113281 20.320312 54.238281 20.339844 55.320312 L 20.398438 58.566406 C 20.441406 60.714844 20.519531 62.859375 20.660156 65.003906 C 20.964844 69.277344 21.546875 73.546875 22.8125 77.617188 C 23.457031 79.644531 24.28125 81.609375 25.386719 83.390625 C 26.472656 85.195312 27.882812 86.78125 29.550781 88.023438 C 30.394531 88.644531 31.320312 89.148438 32.285156 89.546875 C 33.25 89.949219 34.277344 90.230469 35.324219 90.429688 C 36.367188 90.609375 37.433594 90.710938 38.5 90.730469 C 39.566406 90.730469 40.652344 90.671875 41.738281 90.570312 C 40.671875 90.8125 39.605469 90.992188 38.519531 91.09375 C 37.433594 91.171875 36.328125 91.171875 35.222656 91.03125 C 33.472656 90.832031 31.722656 90.308594 30.152344 89.46875 C 30.113281 90.371094 30.074219 91.253906 30.054688 92.15625 L 29.953125 95.542969 C 31.160156 96.367188 32.445312 97.109375 33.773438 97.75 C 35.179688 98.429688 36.648438 99.011719 38.15625 99.496094 C 41.171875 100.4375 44.332031 100.917969 47.488281 100.898438 C 49.078125 100.898438 50.644531 100.757812 52.214844 100.535156 C 53.78125 100.296875 55.3125 99.914062 56.820312 99.453125 C 59.714844 98.53125 62.488281 97.207031 64.984375 95.523438 C 64.941406 94.320312 64.902344 93.117188 64.863281 91.894531 C 63.214844 92.496094 61.484375 92.9375 59.734375 93.199219 C 57.84375 93.457031 55.894531 93.519531 54.003906 93.199219 C 52.113281 92.855469 50.285156 92.113281 48.816406 90.933594 C 50.625 91.511719 52.375 91.914062 54.164062 92.09375 C 55.953125 92.296875 57.765625 92.253906 59.554688 91.976562 C 63.132812 91.394531 66.550781 89.96875 69.730469 88.203125 C 72.925781 86.421875 75.882812 84.214844 78.597656 81.75 C 79.945312 80.503906 81.230469 79.203125 82.359375 77.796875 C 83.542969 76.292969 84.933594 74.992188 86.378906 73.789062 C 87.828125 72.585938 89.355469 71.480469 90.867188 70.417969 C 92.375 69.335938 93.882812 68.273438 95.167969 67.03125 C 95.8125 66.410156 96.355469 65.726562 96.695312 64.964844 C 96.878906 64.582031 96.957031 64.203125 96.976562 63.800781 C 97 63.402344 96.9375 63.019531 96.796875 62.660156 C 96.65625 62.296875 96.433594 61.976562 96.152344 61.695312 C 95.871094 61.414062 95.53125 61.175781 95.148438 60.972656 C 94.402344 60.574219 93.539062 60.332031 92.675781 60.171875 C 90.925781 59.871094 89.074219 59.890625 87.285156 60.132812 C 86.378906 60.253906 85.496094 60.433594 84.652344 60.714844 C 84.230469 60.855469 83.804688 60.996094 83.402344 61.175781 L 82.800781 61.457031 C 82.601562 61.554688 82.398438 61.65625 82.199219 61.777344 C 80.609375 62.636719 79.140625 63.742188 77.734375 64.90625 C 76.324219 66.085938 74.980469 67.351562 73.730469 68.675781 L 73.511719 68.914062 L 73.207031 68.835938 L 71.742188 68.453125 C 71.257812 68.332031 70.753906 68.234375 70.273438 68.113281 C 69.789062 68.011719 69.289062 67.933594 68.804688 67.832031 L 67.316406 67.613281 C 65.34375 67.351562 63.335938 67.289062 61.363281 67.472656 C 59.394531 67.671875 57.441406 68.132812 55.671875 68.996094 C 54.789062 69.4375 53.945312 69.9375 53.160156 70.539062 C 52.375 71.140625 51.628906 71.800781 50.96875 72.585938 C 51.347656 71.621094 52.011719 70.800781 52.757812 70.058594 C 53.5 69.335938 54.367188 68.734375 55.289062 68.234375 C 57.140625 67.25 59.191406 66.667969 61.242188 66.410156 C 63.316406 66.148438 65.40625 66.226562 67.457031 66.46875 C 67.960938 66.546875 68.484375 66.609375 68.984375 66.710938 C 69.488281 66.808594 69.992188 66.910156 70.492188 67.011719 C 70.996094 67.128906 71.5 67.25 72.003906 67.371094 L 72.6875 67.570312 C 72.144531 65.765625 71.660156 63.960938 71.257812 62.117188 C 70.796875 59.992188 70.433594 57.847656 70.210938 55.679688 C 69.992188 53.515625 69.910156 51.328125 70.089844 49.125 C 70.171875 48.019531 70.332031 46.9375 70.59375 45.855469 C 70.835938 44.773438 71.238281 43.710938 71.660156 42.726562 C 73.289062 38.714844 75.058594 34.785156 76.605469 30.757812 C 77.390625 28.75 78.113281 26.726562 78.738281 24.679688 C 79.363281 22.636719 79.886719 20.550781 80.105469 18.464844 C 80.167969 17.421875 80.1875 16.378906 80.007812 15.394531 C 79.824219 14.414062 79.421875 13.511719 78.679688 12.988281 C 78.296875 12.730469 77.894531 12.546875 77.371094 12.449219 C 76.890625 12.308594 76.386719 12.246094 75.882812 12.226562 C 74.878906 12.1875 73.890625 12.410156 73.007812 12.871094 C 72.121094 13.332031 71.359375 14.03125 70.695312 14.816406 C 70.03125 15.617188 69.488281 16.5 68.984375 17.441406 C 67.980469 19.304688 67.257812 21.332031 66.59375 23.355469 C 65.929688 25.402344 65.386719 27.488281 64.800781 29.574219 C 64.5 30.617188 64.21875 31.65625 63.859375 32.699219 C 63.515625 33.742188 63.054688 34.746094 62.628906 35.730469 C 61.746094 37.714844 60.742188 39.640625 59.632812 41.503906 C 59.515625 41.722656 59.351562 41.984375 59.171875 42.207031 L 58.667969 42.847656 C 58.347656 43.269531 58.003906 43.6875 57.742188 44.128906 C 57.683594 44.230469 57.625 44.351562 57.5625 44.472656 C 57.542969 44.53125 57.503906 44.589844 57.503906 44.632812 L 57.484375 44.671875 C 59.132812 45.011719 60.761719 45.453125 62.347656 46.015625 C 59.332031 45.574219 56.335938 45.234375 53.320312 45.09375 C 51.8125 45.03125 50.304688 44.972656 48.816406 44.992188 C 47.308594 44.992188 45.820312 45.054688 44.3125 45.171875 C 42.804688 45.253906 41.3125 45.414062 39.828125 45.613281 C 38.339844 45.792969 36.851562 46.054688 35.363281 46.316406 C 32.40625 46.878906 29.46875 47.640625 26.554688 48.480469 C 29.269531 47.097656 32.164062 46.054688 35.140625 45.273438 C 37.9375 44.550781 40.792969 44.070312 43.667969 43.828125 L 43.628906 43.710938 C 42.78125 41.703125 42.039062 39.660156 41.355469 37.613281 C 40.671875 35.546875 40.089844 33.441406 39.6875 31.296875 C 38.859375 27.027344 38.539062 22.695312 38.175781 18.402344 C 37.996094 16.257812 37.796875 14.132812 37.253906 12.085938 C 36.992188 11.066406 36.628906 10.082031 36.144531 9.199219 C 35.644531 8.316406 35 7.535156 34.175781 7.09375 C 33.351562 6.632812 32.367188 6.554688 31.402344 6.695312 C 30.394531 6.855469 29.429688 7.195312 28.625 7.734375 C 27.820312 8.277344 27.179688 9.039062 26.753906 9.941406 C 26.3125 10.824219 26.089844 11.847656 25.972656 12.871094 C 25.730469 14.933594 25.929688 17.058594 26.210938 19.164062 C 26.515625 21.269531 26.9375 23.375 27.398438 25.480469 C 27.882812 27.585938 28.34375 29.714844 28.746094 31.839844 C 29.167969 33.964844 29.550781 36.089844 29.832031 38.234375 C 30.113281 40.378906 30.335938 42.527344 30.574219 44.691406 L 30.777344 46.296875 L 30.796875 46.496094 L 30.816406 46.597656 C 30.09375 47.058594 30.457031 46.515625 30.355469 46.65625 L 30.175781 46.296875 L 29.832031 45.574219 C 29.371094 44.589844 28.886719 43.628906 28.402344 42.667969 C 27.4375 40.742188 26.453125 38.816406 25.570312 36.832031 C 24.683594 34.867188 23.800781 32.882812 22.972656 30.875 C 22.152344 28.871094 21.347656 26.867188 20.621094 24.820312 L 20.078125 23.296875 L 19.796875 22.554688 L 19.476562 21.832031 C 19.035156 20.871094 18.53125 19.929688 17.96875 19.046875 C 17.382812 18.164062 16.722656 17.339844 15.957031 16.640625 C 15.191406 15.9375 14.328125 15.355469 13.382812 15.015625 C 12.4375 14.675781 11.410156 14.632812 10.488281 14.933594 C 10.023438 15.074219 9.582031 15.316406 9.160156 15.597656 C 8.757812 15.878906 8.414062 16.21875 8.132812 16.621094 C 7.570312 17.421875 7.308594 18.402344 7.207031 19.425781 C 7.046875 20.410156 7.148438 21.453125 7.328125 22.472656 Z M 57.460938 44.632812 Z M 57.925781 29.273438 C 58.40625 24.960938 59.433594 20.730469 60.097656 16.5 C 60.257812 15.4375 60.417969 14.375 60.519531 13.3125 C 60.621094 12.269531 60.640625 11.207031 60.578125 10.140625 C 60.519531 9.078125 60.378906 8.035156 60.117188 7.035156 C 59.855469 6.03125 59.472656 5.050781 58.890625 4.226562 C 58.328125 3.40625 57.523438 2.785156 56.597656 2.484375 C 56.136719 2.34375 55.632812 2.28125 55.128906 2.261719 C 54.625 2.261719 54.125 2.320312 53.621094 2.441406 C 52.65625 2.621094 51.8125 3.183594 51.148438 3.945312 C 50.484375 4.707031 49.960938 5.628906 49.539062 6.574219 C 48.714844 8.5 48.210938 10.605469 47.75 12.6875 C 47.308594 14.792969 46.90625 16.898438 46.5625 19.027344 C 45.878906 23.277344 45.398438 27.546875 45.054688 31.859375 C 44.894531 34.003906 44.753906 36.148438 44.671875 38.316406 C 44.613281 39.398438 44.59375 40.460938 44.550781 41.542969 L 44.511719 43.167969 L 44.492188 43.75 C 45.921875 43.667969 47.347656 43.628906 48.777344 43.667969 C 50.304688 43.710938 51.851562 43.808594 53.359375 43.988281 C 54.546875 44.128906 55.714844 44.3125 56.878906 44.550781 L 56.917969 43.851562 L 57 42.226562 C 57.242188 37.894531 57.460938 33.5625 57.925781 29.273438 Z M 30.675781 46.417969 C 30.617188 46.535156 30.777344 46.394531 30.675781 46.417969 Z M 6.183594 19.304688 C 6.285156 18.183594 6.585938 17.019531 7.289062 16.039062 C 7.628906 15.554688 8.074219 15.136719 8.554688 14.792969 C 9.039062 14.472656 9.5625 14.191406 10.125 14.011719 C 11.25 13.652344 12.496094 13.710938 13.605469 14.113281 C 14.710938 14.515625 15.65625 15.175781 16.480469 15.9375 C 17.304688 16.699219 18.007812 17.582031 18.609375 18.503906 C 19.214844 19.425781 19.738281 20.410156 20.179688 21.410156 L 20.5 22.171875 L 20.800781 22.9375 L 21.347656 24.460938 C 22.070312 26.484375 22.875 28.46875 23.71875 30.457031 C 24.5625 32.441406 25.425781 34.425781 26.292969 36.390625 C 27.15625 38.355469 27.980469 40.359375 28.847656 42.347656 C 29.25 43.289062 29.671875 44.230469 30.113281 45.152344 C 30.09375 44.992188 30.054688 44.832031 30.035156 44.671875 C 29.671875 42.546875 29.207031 40.441406 28.785156 38.316406 C 28.34375 36.210938 27.960938 34.085938 27.539062 31.980469 C 27.117188 29.875 26.675781 27.769531 26.171875 25.664062 C 25.6875 23.558594 25.246094 21.410156 24.945312 19.246094 C 24.785156 18.164062 24.683594 17.082031 24.625 15.976562 C 24.582031 14.875 24.582031 13.75 24.722656 12.648438 C 24.863281 11.527344 25.125 10.402344 25.648438 9.359375 C 26.152344 8.296875 26.957031 7.355469 27.941406 6.695312 C 28.945312 6.050781 30.074219 5.671875 31.199219 5.492188 C 32.347656 5.308594 33.632812 5.429688 34.71875 6.050781 C 35.785156 6.652344 36.546875 7.617188 37.113281 8.617188 C 37.65625 9.621094 38.015625 10.703125 38.277344 11.765625 C 38.820312 13.914062 39 16.117188 39.164062 18.261719 C 39.484375 22.574219 39.785156 26.867188 40.550781 31.078125 C 40.933594 33.183594 41.457031 35.265625 42.097656 37.3125 C 42.421875 38.335938 42.761719 39.359375 43.125 40.378906 C 43.367188 41.082031 43.648438 41.765625 43.910156 42.445312 L 43.929688 41.484375 C 43.96875 40.402344 43.96875 39.316406 44.027344 38.234375 C 44.089844 36.070312 44.230469 33.925781 44.371094 31.757812 C 44.671875 27.449219 45.136719 23.136719 45.800781 18.863281 C 46.121094 16.71875 46.523438 14.59375 46.945312 12.46875 C 47.386719 10.34375 47.890625 8.21875 48.753906 6.171875 C 49.199219 5.148438 49.742188 4.167969 50.503906 3.285156 C 50.886719 2.863281 51.328125 2.460938 51.832031 2.140625 C 52.335938 1.820312 52.898438 1.601562 53.480469 1.480469 C 54.042969 1.359375 54.605469 1.28125 55.191406 1.28125 C 55.773438 1.28125 56.355469 1.359375 56.941406 1.539062 C 58.085938 1.902344 59.050781 2.703125 59.695312 3.644531 C 60.359375 4.609375 60.761719 5.671875 61.042969 6.753906 C 61.324219 7.835938 61.464844 8.9375 61.503906 10.042969 C 61.566406 11.144531 61.523438 12.246094 61.40625 13.332031 C 61.285156 14.414062 61.121094 15.496094 60.921875 16.558594 C 60.175781 20.832031 59.09375 25.019531 58.570312 29.273438 C 58.027344 33.542969 57.824219 37.855469 57.601562 42.164062 L 57.542969 43.46875 C 57.785156 43.109375 58.027344 42.765625 58.289062 42.425781 L 58.769531 41.785156 C 58.929688 41.5625 59.050781 41.363281 59.191406 41.121094 C 60.257812 39.257812 61.242188 37.351562 62.109375 35.386719 C 62.550781 34.40625 62.953125 33.421875 63.273438 32.398438 C 63.597656 31.378906 63.878906 30.335938 64.140625 29.292969 C 64.683594 27.207031 65.203125 25.101562 65.828125 23.015625 C 66.453125 20.929688 67.175781 18.863281 68.179688 16.898438 C 68.683594 15.917969 69.246094 14.953125 69.972656 14.09375 C 70.675781 13.230469 71.539062 12.429688 72.566406 11.867188 C 73.589844 11.304688 74.777344 11.023438 75.941406 11.085938 C 76.527344 11.105469 77.109375 11.183594 77.652344 11.324219 C 78.195312 11.425781 78.820312 11.667969 79.320312 12.027344 C 79.824219 12.386719 80.246094 12.890625 80.527344 13.429688 C 80.808594 13.972656 80.992188 14.554688 81.089844 15.117188 C 81.292969 16.257812 81.273438 17.382812 81.152344 18.484375 C 80.910156 20.691406 80.367188 22.816406 79.746094 24.902344 C 79.101562 26.984375 78.375 29.03125 77.59375 31.058594 C 76.808594 33.082031 75.984375 35.085938 75.140625 37.070312 C 74.292969 39.058594 73.429688 41.042969 72.605469 43.027344 C 72.183594 44.03125 71.820312 44.992188 71.578125 46.015625 C 71.316406 47.039062 71.175781 48.082031 71.097656 49.144531 C 70.914062 51.25 70.996094 53.394531 71.175781 55.519531 C 71.378906 57.644531 71.699219 59.769531 72.144531 61.875 C 72.523438 63.703125 72.96875 65.546875 73.488281 67.332031 C 74.617188 66.167969 75.800781 65.066406 77.050781 64.023438 C 78.496094 62.820312 80.007812 61.675781 81.695312 60.773438 C 81.917969 60.652344 82.117188 60.53125 82.339844 60.433594 L 83.003906 60.132812 C 83.445312 59.929688 83.90625 59.769531 84.371094 59.628906 C 85.292969 59.351562 86.21875 59.148438 87.164062 59.027344 C 89.054688 58.769531 90.984375 58.75 92.894531 59.070312 C 93.839844 59.25 94.804688 59.511719 95.691406 59.992188 C 96.132812 60.230469 96.574219 60.511719 96.9375 60.894531 C 97.320312 61.273438 97.621094 61.714844 97.824219 62.238281 C 98.226562 63.261719 98.125 64.402344 97.703125 65.34375 C 97.28125 66.289062 96.636719 67.070312 95.953125 67.75 C 94.566406 69.09375 93.035156 70.179688 91.546875 71.28125 C 90.039062 72.363281 88.550781 73.464844 87.164062 74.628906 C 85.757812 75.8125 84.46875 77.097656 83.363281 78.519531 C 82.199219 80.023438 80.871094 81.367188 79.503906 82.671875 C 76.746094 85.238281 73.710938 87.484375 70.433594 89.347656 C 69.125 90.089844 67.777344 90.75 66.410156 91.3125 C 66.351562 92.816406 66.289062 94.320312 66.25 95.824219 L 66.25 96.164062 L 65.988281 96.324219 C 63.214844 98.03125 60.238281 99.355469 57.121094 100.234375 C 54.023438 101.136719 50.785156 101.578125 47.570312 101.578125 C 45.960938 101.558594 44.351562 101.480469 42.742188 101.238281 C 41.152344 101 39.566406 100.65625 38.015625 100.214844 C 34.921875 99.3125 31.945312 97.992188 29.1875 96.285156 L 28.945312 96.144531 L 28.945312 95.84375 L 28.847656 92.175781 C 28.804688 90.953125 28.765625 89.75 28.707031 88.527344 C 27.015625 87.300781 25.628906 85.699219 24.523438 83.953125 C 23.355469 82.070312 22.492188 80.023438 21.808594 77.9375 C 20.480469 73.746094 19.878906 69.417969 19.554688 65.085938 C 19.394531 62.917969 19.316406 60.753906 19.273438 58.589844 L 19.214844 55.359375 C 19.195312 54.277344 19.113281 53.253906 18.992188 52.191406 C 18.710938 50.085938 18.207031 48.019531 17.503906 46.015625 C 16.800781 44.011719 15.917969 42.066406 14.929688 40.160156 C 13.945312 38.253906 12.839844 36.410156 11.691406 34.585938 C 11.128906 33.683594 10.527344 32.761719 9.984375 31.796875 C 9.441406 30.855469 8.9375 29.875 8.476562 28.871094 C 7.570312 26.886719 6.804688 24.800781 6.425781 22.613281 C 6.183594 21.550781 6.101562 20.429688 6.183594 19.304688 " fill-opacity="1" fill-rule="nonzero"/></g></g></g></g><g clip-path="url(#1c182110c8)"><g clip-path="url(#850e56a268)"><g transform="matrix(1, 0, 0, 1, 159, 87)"><g clip-path="url(#1326860b51)"><g clip-path="url(#1ef86c06d9)"><g clip-path="url(#1faa9f8749)"><path fill="#eb7332" d="M 0.253906 0.605469 L 125.425781 0.605469 L 125.425781 125.777344 L 0.253906 125.777344 Z M 0.253906 0.605469 " fill-opacity="1" fill-rule="nonzero"/></g></g></g></g></g></g><g clip-path="url(#2dcd87961f)"><g clip-path="url(#98a98b9ee7)"><path stroke-linecap="butt" transform="matrix(0.75, 0, 0, 0.75, 159.252855, 87.604183)" fill="none" stroke-linejoin="miter" d="M 14.001402 0.00171401 L 152.89203 0.00171401 C 156.605572 0.00171401 160.162863 1.475672 162.787863 4.100672 C 165.418072 6.725672 166.89203 10.288173 166.89203 14.001714 L 166.89203 152.892342 C 166.89203 156.605883 165.418072 160.163175 162.787863 162.788175 C 160.162863 165.413175 156.605572 166.892342 152.89203 166.892342 L 14.001402 166.892342 C 10.287861 166.892342 6.725361 165.413175 4.100361 162.788175 C 1.475361 160.163175 0.00140221 156.605883 0.00140221 152.892342 L 0.00140221 14.001714 C 0.00140221 10.288173 1.475361 6.725672 4.100361 4.100672 C 6.725361 1.475672 10.287861 0.00171401 14.001402 0.00171401 Z M 14.001402 0.00171401 " stroke="#000000" stroke-width="6" stroke-opacity="1" stroke-miterlimit="4"/></g></g><path fill="#f4dec7" d="M 211.5 134.804688 C 218.433594 124.457031 226.058594 133.648438 226.058594 133.648438 M 226.058594 133.648438 C 226.648438 130.585938 232.636719 129.199219 232.636719 129.199219 C 242.511719 126.03125 243.269531 137.972656 243.269531 137.972656 C 251.148438 136.125 253.585938 142.316406 253.585938 142.316406 C 257.117188 162.964844 246.882812 163.65625 246.882812 163.65625 C 249.65625 181.789062 237.113281 188.25 237.113281 188.25 L 237.113281 194.964844 C 235.578125 198.050781 226.164062 201.300781 216.519531 201.722656 C 206.875 202.121094 200.742188 195.007812 200.742188 195.007812 L 200.320312 188.460938 C 200.320312 188.460938 198.050781 186.300781 194.605469 179.941406 C 191.136719 173.582031 196.117188 162.902344 196.117188 162.902344 L 198.050781 120.742188 C 198.050781 120.742188 196.414062 94.976562 207.695312 97.828125 C 218.980469 100.683594 215.324219 112.917969 214.421875 117.367188 C 213.515625 121.816406 211.5 134.804688 211.5 134.804688 " fill-opacity="1" fill-rule="nonzero"/><path fill="#e0bfae" d="M 226.058594 133.671875 C 226.1875 133.378906 226.417969 133.019531 226.753906 132.957031 C 228.203125 132.703125 231.125 137.929688 231.375 142.863281 C 231.460938 144.4375 231.375 147.980469 228.773438 152.136719 C 229.378906 150.480469 230.390625 147.121094 229.820312 142.863281 C 229.234375 138.265625 227.132812 135.097656 226.058594 133.671875 Z M 239.78125 157.761719 L 239.761719 157.761719 L 239.761719 159.648438 C 239.277344 160.824219 238.457031 162.585938 237.113281 164.515625 C 235.347656 167.058594 232.238281 171.546875 228.476562 171.484375 C 226.542969 171.441406 226.292969 170.164062 223.246094 169.511719 C 220.785156 168.988281 218.664062 169.21875 217.339844 169.449219 C 217.382812 169.15625 217.425781 168.882812 217.46875 168.589844 L 230.324219 165.777344 L 236.671875 160.992188 L 237.847656 158.285156 Z M 212.757812 149.074219 C 213.328125 151.128906 214.0625 152.828125 214.753906 154.128906 C 212.382812 154.507812 209.417969 155.222656 206.164062 156.566406 C 203.324219 157.738281 200.992188 159.0625 199.1875 160.277344 C 199.101562 160.195312 201.078125 157.234375 202.988281 155.578125 C 204.0625 154.632812 206.308594 153.058594 210.40625 152.683594 C 210.070312 151.253906 209.714844 148.675781 210.554688 145.714844 C 210.933594 144.414062 211.4375 143.363281 211.917969 142.546875 C 211.917969 144.246094 212.066406 146.492188 212.757812 149.074219 Z M 242.535156 155.03125 C 243.417969 153.585938 244.65625 151.066406 245.078125 147.707031 C 245.644531 143.15625 244.402344 139.589844 243.710938 137.929688 C 243.984375 140.34375 244.128906 143.238281 243.898438 146.535156 C 243.667969 149.828125 243.144531 152.683594 242.535156 155.03125 Z M 220.828125 190.664062 C 214.546875 196.414062 206.980469 197.503906 203.011719 194.378906 C 202.273438 193.789062 200.613281 192.257812 199.941406 188.816406 C 202.253906 189.761719 205.53125 190.832031 209.585938 191.273438 C 214.273438 191.777344 218.179688 191.230469 220.828125 190.664062 " fill-opacity="1" fill-rule="nonzero"/><g clip-path="url(#4f99d5bc5c)"><path fill="#100f0d" d="M 238.246094 167.539062 C 238.667969 167.664062 239.066406 167.832031 239.445312 168.042969 C 239.023438 168.167969 238.625 168.210938 238.226562 168.316406 C 238.039062 168.359375 237.828125 168.398438 237.636719 168.441406 L 237.34375 168.484375 C 237.261719 168.503906 237.15625 168.527344 237.070312 168.546875 C 236.882812 168.589844 236.691406 168.628906 236.523438 168.671875 C 236.335938 168.734375 236.167969 168.777344 235.976562 168.820312 L 235.707031 168.882812 L 235.433594 168.964844 C 235.265625 169.027344 235.074219 169.070312 234.90625 169.132812 C 234.214844 169.363281 233.542969 169.679688 232.867188 170.015625 C 232.195312 170.351562 231.523438 170.75 230.789062 171.210938 C 231 170.351562 231.523438 169.636719 232.152344 169.027344 C 232.785156 168.441406 233.5625 167.960938 234.402344 167.6875 C 234.613281 167.601562 234.824219 167.558594 235.03125 167.496094 C 235.242188 167.433594 235.453125 167.390625 235.683594 167.371094 C 235.894531 167.351562 236.125 167.308594 236.335938 167.308594 C 236.546875 167.308594 236.777344 167.308594 236.988281 167.328125 C 237.195312 167.328125 237.40625 167.351562 237.636719 167.390625 C 237.828125 167.457031 238.039062 167.496094 238.246094 167.539062 Z M 253.902344 153.792969 C 253.566406 155.726562 252.957031 157.613281 252.011719 159.292969 C 251.042969 160.949219 249.59375 162.335938 247.828125 162.859375 C 246.945312 163.132812 246.023438 163.195312 245.078125 163.089844 C 244.613281 163.027344 244.109375 162.945312 243.710938 162.859375 C 243.3125 162.734375 242.933594 162.546875 242.597656 162.273438 C 241.902344 161.726562 241.316406 160.972656 240.789062 160.171875 C 240.515625 159.777344 240.265625 159.355469 240.011719 158.914062 L 239.738281 158.472656 C 240.160156 158.265625 240.558594 157.992188 240.914062 157.675781 C 241.734375 156.941406 242.304688 156.039062 242.765625 155.117188 C 243.648438 153.25 244.089844 151.277344 244.320312 149.28125 C 244.550781 147.308594 244.613281 145.316406 244.488281 143.324219 C 244.382812 141.664062 244.171875 140.007812 243.816406 138.371094 C 245.539062 138.015625 247.386719 137.992188 249.070312 138.496094 C 249.972656 138.789062 250.8125 139.253906 251.507812 139.882812 C 251.863281 140.195312 252.15625 140.554688 252.429688 140.953125 C 252.683594 141.351562 252.933594 141.75 253.125 142.191406 C 253.503906 143.070312 253.753906 144.015625 253.941406 144.980469 C 254.113281 145.945312 254.214844 146.933594 254.28125 147.898438 C 254.34375 149.890625 254.257812 151.863281 253.902344 153.792969 Z M 246.335938 165.859375 L 246.398438 167.9375 C 246.378906 168.628906 246.378906 169.324219 246.359375 170.015625 L 246.273438 171.042969 L 246.230469 171.566406 L 246.167969 172.070312 L 246.042969 173.101562 C 246 173.4375 245.917969 173.773438 245.855469 174.105469 C 245.75 174.777344 245.558594 175.449219 245.390625 176.121094 C 245.011719 177.445312 244.550781 178.722656 243.941406 179.960938 C 243.332031 181.179688 242.617188 182.355469 241.757812 183.425781 C 240.914062 184.492188 239.929688 185.480469 238.878906 186.339844 C 237.808594 187.203125 236.652344 187.957031 235.433594 188.585938 C 234.191406 189.195312 232.953125 189.738281 231.648438 190.453125 C 233.140625 190.601562 234.570312 190.140625 235.871094 189.53125 C 236.0625 189.445312 236.230469 189.363281 236.417969 189.257812 L 236.523438 194.859375 C 236.042969 195.34375 235.433594 195.847656 234.84375 196.265625 C 234.171875 196.75 233.476562 197.167969 232.742188 197.589844 C 231.292969 198.386719 229.757812 199.035156 228.183594 199.539062 C 225.011719 200.566406 221.691406 201.132812 218.347656 201.300781 C 215.027344 201.472656 211.644531 201.070312 208.535156 199.9375 C 206.980469 199.351562 205.511719 198.574219 204.144531 197.628906 C 203.976562 197.503906 203.808594 197.398438 203.640625 197.273438 L 203.15625 196.894531 C 202.820312 196.644531 202.527344 196.351562 202.234375 196.078125 C 201.664062 195.53125 201.121094 194.945312 200.699219 194.335938 L 200.742188 189.425781 C 201.855469 190.160156 203.050781 190.746094 204.292969 191.210938 C 206.980469 192.152344 209.859375 192.382812 212.65625 192.28125 C 215.449219 192.152344 218.222656 191.648438 220.828125 190.664062 C 218.054688 190.980469 215.367188 191.378906 212.632812 191.417969 L 211.605469 191.398438 L 211.101562 191.398438 L 210.59375 191.355469 L 209.585938 191.273438 C 209.25 191.230469 208.914062 191.1875 208.578125 191.148438 C 207.90625 191.082031 207.253906 190.914062 206.582031 190.769531 C 206.246094 190.707031 205.929688 190.578125 205.617188 190.496094 C 205.300781 190.390625 204.964844 190.328125 204.671875 190.179688 C 202.171875 189.257812 199.878906 187.746094 198.261719 185.628906 C 197.421875 184.597656 196.726562 183.425781 196.140625 182.226562 C 195.550781 181.011719 195.089844 179.753906 194.730469 178.453125 C 194.375 177.148438 194.164062 175.828125 194.058594 174.484375 C 193.953125 173.140625 193.996094 171.796875 194.164062 170.457031 C 194.519531 167.792969 195.507812 165.210938 197.148438 163.089844 C 197.96875 162.019531 198.953125 161.140625 200.046875 160.300781 C 201.121094 159.460938 202.273438 158.726562 203.472656 158.097656 C 205.867188 156.816406 208.453125 155.871094 211.121094 155.285156 C 212.464844 155.011719 213.808594 154.824219 215.175781 154.71875 C 216.5625 154.613281 217.929688 154.53125 219.316406 154.382812 C 220.703125 154.257812 222.066406 154.109375 223.457031 153.898438 C 224.839844 153.691406 226.207031 153.375 227.550781 152.996094 L 231.546875 151.886719 C 232.21875 151.695312 232.867188 151.507812 233.519531 151.382812 C 234.171875 151.234375 234.824219 151.152344 235.433594 151.191406 C 236.042969 151.234375 236.546875 151.421875 236.882812 151.820312 C 237.21875 152.222656 237.449219 152.808594 237.554688 153.417969 C 237.660156 154.046875 237.703125 154.695312 237.679688 155.367188 C 237.660156 156.019531 237.617188 156.734375 237.511719 157.339844 C 237.40625 157.96875 237.21875 158.578125 236.945312 159.144531 C 236.820312 159.4375 236.652344 159.710938 236.484375 159.984375 C 236.292969 160.238281 236.125 160.511719 235.914062 160.761719 C 235.09375 161.769531 234.046875 162.566406 232.910156 163.257812 C 230.621094 164.644531 228.035156 165.523438 225.410156 166.257812 C 224.085938 166.617188 222.761719 166.929688 221.417969 167.246094 L 220.410156 167.476562 C 220.070312 167.558594 219.738281 167.625 219.359375 167.769531 C 219.191406 167.832031 219 167.875 218.832031 167.960938 L 218.328125 168.191406 C 217.992188 168.335938 217.675781 168.527344 217.363281 168.695312 C 216.121094 169.449219 215.050781 170.394531 214.082031 171.421875 C 213.136719 172.449219 212.277344 173.582031 211.605469 174.800781 C 212.589844 173.835938 213.601562 172.890625 214.671875 172.03125 C 215.199219 171.589844 215.742188 171.191406 216.289062 170.8125 C 216.332031 170.769531 216.375 170.75 216.417969 170.730469 C 217.003906 170.582031 217.59375 170.433594 218.179688 170.371094 C 219.230469 170.246094 220.28125 170.226562 221.332031 170.265625 C 223.457031 170.394531 225.535156 170.8125 227.722656 171.296875 C 226.816406 170.625 225.789062 170.164062 224.714844 169.804688 C 223.644531 169.449219 222.53125 169.238281 221.394531 169.15625 C 220.578125 169.113281 219.757812 169.15625 218.957031 169.300781 L 219.292969 169.15625 C 219.441406 169.09375 219.589844 169.070312 219.757812 169.007812 C 220.050781 168.925781 220.386719 168.839844 220.722656 168.757812 L 221.734375 168.527344 C 223.078125 168.230469 224.441406 167.917969 225.789062 167.558594 C 228.476562 166.847656 231.167969 165.882812 233.625 164.414062 C 234.84375 163.65625 236 162.734375 236.921875 161.578125 C 237.175781 161.304688 237.363281 160.992188 237.574219 160.675781 C 237.765625 160.34375 237.953125 160.046875 238.101562 159.691406 C 238.226562 159.4375 238.3125 159.1875 238.394531 158.9375 C 238.480469 158.914062 238.5625 158.914062 238.667969 158.894531 L 239.023438 159.523438 C 239.277344 159.964844 239.53125 160.40625 239.804688 160.84375 C 240.347656 161.726562 241 162.566406 241.882812 163.257812 C 242.324219 163.59375 242.847656 163.867188 243.417969 164.035156 C 243.984375 164.160156 244.46875 164.222656 244.992188 164.285156 C 245.414062 164.328125 245.832031 164.328125 246.253906 164.285156 Z M 198.175781 135.160156 C 198.242188 132.746094 198.261719 130.3125 198.21875 127.898438 C 198.175781 125.488281 198.113281 123.074219 198.09375 120.683594 C 198.09375 118.269531 198.136719 115.875 198.304688 113.484375 C 198.472656 111.113281 198.765625 108.722656 199.375 106.453125 C 199.667969 105.320312 200.070312 104.210938 200.574219 103.179688 C 201.078125 102.152344 201.726562 101.207031 202.546875 100.453125 C 203.347656 99.699219 204.335938 99.152344 205.40625 98.835938 C 206.457031 98.542969 207.632812 98.460938 208.726562 98.5625 C 209.816406 98.691406 210.867188 99.046875 211.710938 99.71875 C 212.550781 100.367188 213.203125 101.292969 213.664062 102.300781 C 214.589844 104.355469 214.859375 106.726562 214.859375 109.078125 C 214.859375 110.253906 214.796875 111.425781 214.652344 112.601562 C 214.589844 113.191406 214.503906 113.757812 214.398438 114.34375 C 214.292969 114.929688 214.148438 115.496094 214.019531 116.085938 C 213.496094 118.4375 212.929688 120.785156 212.445312 123.179688 C 211.980469 125.550781 211.539062 127.941406 211.289062 130.375 C 211.101562 132.390625 211.058594 134.445312 211.332031 136.460938 C 211.351562 136.984375 211.414062 137.511719 211.5625 138.015625 C 211.5 134.613281 213.832031 131.824219 216.792969 130.835938 C 217.53125 130.566406 218.308594 130.417969 219.0625 130.375 C 219.820312 130.335938 220.597656 130.4375 221.3125 130.691406 C 222.761719 131.175781 224 132.222656 225.050781 133.441406 C 226.082031 134.679688 226.902344 136.0625 227.511719 137.574219 C 228.121094 139.0625 228.5 140.660156 228.75 142.273438 C 228.980469 143.890625 229.042969 145.527344 228.980469 147.164062 C 228.917969 148.695312 228.75 150.226562 228.457031 151.71875 L 227.28125 152.074219 C 224.675781 152.890625 221.964844 153.25 219.210938 153.523438 C 217.867188 153.667969 216.519531 153.773438 215.175781 153.878906 C 214.503906 153.1875 214.019531 152.285156 213.664062 151.339844 C 213.285156 150.332031 213.011719 149.28125 212.824219 148.210938 C 212.613281 147.140625 212.488281 146.050781 212.382812 144.960938 C 212.253906 143.871094 212.152344 142.757812 211.941406 141.644531 C 211.644531 142.757812 211.5625 143.890625 211.5625 145.003906 C 211.5625 145.570312 211.605469 146.136719 211.644531 146.703125 C 211.6875 147.269531 211.75 147.835938 211.855469 148.402344 C 212.046875 149.535156 212.296875 150.648438 212.738281 151.71875 C 212.949219 152.261719 213.222656 152.789062 213.558594 153.269531 C 213.726562 153.523438 213.914062 153.753906 214.105469 153.984375 C 213.054688 154.109375 212.003906 154.277344 210.953125 154.507812 C 208.222656 155.097656 205.550781 156.0625 203.09375 157.363281 C 201.855469 158.011719 200.679688 158.769531 199.542969 159.605469 C 198.449219 160.425781 197.378906 161.347656 196.515625 162.417969 C 197.316406 153.375 197.945312 144.289062 198.175781 135.160156 Z M 228.265625 131.804688 C 229.003906 131.214844 229.800781 130.734375 230.664062 130.375 L 231.3125 130.125 L 231.984375 129.957031 C 232.089844 129.933594 232.21875 129.894531 232.320312 129.871094 L 232.660156 129.808594 L 233.351562 129.703125 C 233.8125 129.683594 234.277344 129.640625 234.761719 129.640625 L 235.472656 129.683594 C 235.707031 129.703125 235.9375 129.703125 236.167969 129.746094 L 236.859375 129.851562 C 237.09375 129.894531 237.34375 129.914062 237.535156 129.976562 C 237.953125 130.082031 238.332031 130.25 238.710938 130.480469 C 239.445312 130.941406 240.097656 131.636719 240.621094 132.390625 C 241.695312 133.945312 242.40625 135.769531 242.871094 137.636719 C 243.3125 139.523438 243.5625 141.457031 243.648438 143.386719 C 243.730469 145.316406 243.667969 147.269531 243.375 149.175781 C 243.082031 151.085938 242.617188 152.976562 241.757812 154.632812 C 241.316406 155.453125 240.789062 156.207031 240.097656 156.753906 C 239.675781 157.109375 239.191406 157.339844 238.710938 157.488281 L 238.773438 156.964844 C 238.792969 156.773438 238.792969 156.605469 238.816406 156.4375 C 238.835938 156.082031 238.835938 155.726562 238.855469 155.367188 C 238.855469 154.65625 238.816406 153.921875 238.6875 153.1875 C 238.542969 152.453125 238.289062 151.675781 237.722656 151.046875 C 237.449219 150.730469 237.070312 150.480469 236.671875 150.332031 C 236.273438 150.183594 235.871094 150.101562 235.472656 150.078125 C 234.695312 150.058594 233.960938 150.183594 233.269531 150.332031 C 232.574219 150.5 231.902344 150.6875 231.230469 150.898438 L 229.277344 151.488281 C 229.925781 148.421875 230.117188 145.273438 229.71875 142.148438 C 229.507812 140.46875 229.105469 138.789062 228.476562 137.195312 C 227.992188 135.9375 227.320312 134.71875 226.542969 133.609375 C 227.046875 132.9375 227.617188 132.308594 228.265625 131.804688 Z M 255.015625 147.875 C 254.890625 145.863281 254.617188 143.828125 253.816406 141.894531 C 253.628906 141.414062 253.355469 140.953125 253.082031 140.511719 C 252.765625 140.09375 252.453125 139.671875 252.050781 139.316406 C 251.273438 138.582031 250.328125 138.054688 249.34375 137.722656 C 248.332031 137.382812 247.304688 137.238281 246.273438 137.214844 C 245.390625 137.214844 244.53125 137.28125 243.648438 137.449219 C 243.648438 137.425781 243.648438 137.425781 243.648438 137.40625 C 243.417969 136.441406 243.121094 135.476562 242.785156 134.53125 C 242.449219 133.585938 242.03125 132.664062 241.503906 131.78125 C 240.957031 130.921875 240.285156 130.082031 239.382812 129.472656 C 238.917969 129.179688 238.414062 128.929688 237.867188 128.800781 C 237.597656 128.71875 237.34375 128.71875 237.09375 128.675781 L 236.335938 128.570312 C 236.082031 128.53125 235.832031 128.53125 235.578125 128.507812 L 234.800781 128.488281 C 234.296875 128.488281 233.773438 128.550781 233.269531 128.570312 C 232.257812 128.738281 231.230469 128.949219 230.285156 129.410156 C 228.601562 130.167969 227.132812 131.363281 226.125 132.914062 C 226.058594 132.851562 226.019531 132.769531 225.957031 132.703125 C 225.410156 132.035156 224.777344 131.425781 224.085938 130.878906 C 223.390625 130.335938 222.59375 129.894531 221.753906 129.601562 C 220.890625 129.304688 219.988281 129.160156 219.085938 129.222656 C 218.179688 129.285156 217.320312 129.472656 216.480469 129.789062 C 214.839844 130.417969 213.347656 131.53125 212.382812 133.019531 C 212.234375 133.25 212.109375 133.480469 211.980469 133.734375 C 212.109375 132.664062 212.277344 131.59375 212.445312 130.523438 C 212.800781 128.152344 213.222656 125.800781 213.726562 123.453125 C 214.230469 121.101562 214.820312 118.773438 215.386719 116.421875 C 215.535156 115.835938 215.660156 115.246094 215.785156 114.636719 C 215.910156 114.027344 216.015625 113.398438 216.078125 112.792969 C 216.226562 111.574219 216.289062 110.335938 216.3125 109.097656 C 216.3125 107.859375 216.226562 106.621094 216.039062 105.382812 C 215.847656 104.144531 215.535156 102.90625 214.988281 101.734375 C 214.441406 100.558594 213.664062 99.445312 212.589844 98.628906 C 211.5 97.789062 210.175781 97.328125 208.871094 97.199219 C 208.222656 97.136719 207.570312 97.136719 206.941406 97.179688 C 206.289062 97.242188 205.65625 97.347656 205.027344 97.535156 C 203.765625 97.894531 202.589844 98.5625 201.644531 99.464844 C 200.699219 100.367188 199.964844 101.460938 199.398438 102.59375 C 198.828125 103.746094 198.429688 104.921875 198.113281 106.140625 C 197.484375 108.53125 197.210938 110.988281 197.0625 113.421875 C 196.917969 115.855469 196.894531 118.289062 196.917969 120.703125 C 196.9375 123.117188 197.042969 125.550781 197.105469 127.941406 C 197.167969 130.335938 197.167969 132.746094 197.128906 135.160156 C 197.042969 139.964844 196.832031 144.792969 196.582031 149.617188 C 196.351562 154.277344 196.054688 158.9375 195.71875 163.59375 C 194.375 165.609375 193.535156 167.9375 193.199219 170.308594 C 192.988281 171.714844 192.925781 173.140625 193.03125 174.546875 C 193.113281 175.953125 193.34375 177.359375 193.703125 178.722656 C 194.058594 180.085938 194.542969 181.429688 195.152344 182.710938 C 195.761719 183.992188 196.496094 185.207031 197.398438 186.320312 C 198.136719 187.265625 198.996094 188.105469 199.941406 188.816406 L 199.984375 194.460938 L 199.984375 194.585938 L 200.046875 194.671875 C 201.097656 196.121094 202.378906 197.253906 203.789062 198.261719 C 205.195312 199.246094 206.730469 200.023438 208.347656 200.632812 C 211.582031 201.804688 215.027344 202.226562 218.453125 202.078125 C 221.859375 201.953125 225.242188 201.429688 228.519531 200.421875 C 230.15625 199.898438 231.753906 199.289062 233.289062 198.492188 C 234.046875 198.09375 234.800781 197.652344 235.515625 197.167969 C 236.230469 196.664062 236.921875 196.160156 237.574219 195.511719 L 237.722656 195.363281 L 237.722656 195.132812 L 237.847656 188.585938 C 238.5 188.207031 239.109375 187.789062 239.71875 187.328125 C 242.070312 185.585938 243.960938 183.257812 245.328125 180.65625 C 246 179.351562 246.503906 177.96875 246.925781 176.582031 C 247.113281 175.871094 247.304688 175.175781 247.429688 174.464844 C 247.492188 174.105469 247.578125 173.75 247.621094 173.394531 L 247.765625 172.324219 C 248.082031 169.574219 248.019531 166.804688 247.703125 164.097656 C 247.871094 164.054688 248.039062 164.015625 248.207031 163.949219 C 249.238281 163.613281 250.160156 163.027344 250.9375 162.292969 C 251.714844 161.558594 252.324219 160.699219 252.832031 159.796875 C 253.335938 158.894531 253.710938 157.929688 254.007812 156.964844 C 254.320312 156 254.554688 154.992188 254.722656 154.003906 C 254.992188 151.925781 255.097656 149.914062 255.015625 147.875 " fill-opacity="1" fill-rule="nonzero"/></g></svg>