<svg xmlns="http://www.w3.org/2000/svg" xmlns:xlink="http://www.w3.org/1999/xlink" width="400" zoomAndPan="magnify" viewBox="0 0 300 299.999988" height="400" preserveAspectRatio="xMidYMid meet" version="1.0"><defs><clipPath id="98e35c2f56"><path d="M 21.378906 87.605469 L 146.359375 87.605469 L 146.359375 212.585938 L 21.378906 212.585938 Z M 21.378906 87.605469 " clip-rule="nonzero"/></clipPath><clipPath id="fb9f1dec11"><path d="M 31.878906 87.605469 L 135.859375 87.605469 C 141.660156 87.605469 146.359375 92.304688 146.359375 98.105469 L 146.359375 202.085938 C 146.359375 207.886719 141.660156 212.585938 135.859375 212.585938 L 31.878906 212.585938 C 26.082031 212.585938 21.378906 207.886719 21.378906 202.085938 L 21.378906 98.105469 C 21.378906 92.304688 26.082031 87.605469 31.878906 87.605469 Z M 31.878906 87.605469 " clip-rule="nonzero"/></clipPath><clipPath id="91540b6a97"><path d="M 0.378906 0.605469 L 125.359375 0.605469 L 125.359375 125.585938 L 0.378906 125.585938 Z M 0.378906 0.605469 " clip-rule="nonzero"/></clipPath><clipPath id="9feafa8cc4"><path d="M 10.878906 0.605469 L 114.859375 0.605469 C 120.660156 0.605469 125.359375 5.304688 125.359375 11.105469 L 125.359375 115.085938 C 125.359375 120.886719 120.660156 125.585938 114.859375 125.585938 L 10.878906 125.585938 C 5.082031 125.585938 0.378906 120.886719 0.378906 115.085938 L 0.378906 11.105469 C 0.378906 5.304688 5.082031 0.605469 10.878906 0.605469 Z M 10.878906 0.605469 " clip-rule="nonzero"/></clipPath><clipPath id="4fc90d794c"><rect x="0" width="126" y="0" height="126"/></clipPath><clipPath id="9fcc6b1f05"><path d="M 21.378906 87.605469 L 146.628906 87.605469 L 146.628906 212.855469 L 21.378906 212.855469 Z M 21.378906 87.605469 " clip-rule="nonzero"/></clipPath><clipPath id="e352c2e1b2"><path d="M 31.878906 87.605469 L 135.859375 87.605469 C 141.660156 87.605469 146.359375 92.304688 146.359375 98.105469 L 146.359375 202.085938 C 146.359375 207.882812 141.660156 212.585938 135.859375 212.585938 L 31.878906 212.585938 C 26.082031 212.585938 21.378906 207.882812 21.378906 202.085938 L 21.378906 98.105469 C 21.378906 92.304688 26.082031 87.605469 31.878906 87.605469 Z M 31.878906 87.605469 " clip-rule="nonzero"/></clipPath><clipPath id="82a3c7d7fc"><path d="M 33.011719 97.679688 L 135 97.679688 L 135 205.679688 L 33.011719 205.679688 Z M 33.011719 97.679688 " clip-rule="nonzero"/></clipPath><clipPath id="c51eb9b00d"><path d="M 6.152344 1.28125 L 98.078125 1.28125 L 98.078125 101.578125 L 6.152344 101.578125 Z M 6.152344 1.28125 " clip-rule="nonzero"/></clipPath><clipPath id="3f7916a69b"><rect x="0" width="102" y="0" height="109"/></clipPath><clipPath id="43c50ec84d"><path d="M 159.253906 87.605469 L 284.328125 87.605469 L 284.328125 212.679688 L 159.253906 212.679688 Z M 159.253906 87.605469 " clip-rule="nonzero"/></clipPath><clipPath id="2d404ba093"><path d="M 169.753906 87.605469 L 273.828125 87.605469 C 276.613281 87.605469 279.285156 88.710938 281.253906 90.679688 C 283.222656 92.648438 284.328125 95.320312 284.328125 98.105469 L 284.328125 202.179688 C 284.328125 204.964844 283.222656 207.636719 281.253906 209.605469 C 279.285156 211.574219 276.613281 212.679688 273.828125 212.679688 L 169.753906 212.679688 C 166.96875 212.679688 164.296875 211.574219 162.328125 209.605469 C 160.359375 207.636719 159.253906 204.964844 159.253906 202.179688 L 159.253906 98.105469 C 159.253906 95.320312 160.359375 92.648438 162.328125 90.679688 C 164.296875 88.710938 166.96875 87.605469 169.753906 87.605469 Z M 169.753906 87.605469 " clip-rule="nonzero"/></clipPath><clipPath id="a69bbf5c5d"><path d="M 0.253906 0.605469 L 125.328125 0.605469 L 125.328125 125.679688 L 0.253906 125.679688 Z M 0.253906 0.605469 " clip-rule="nonzero"/></clipPath><clipPath id="1327445b8d"><path d="M 10.753906 0.605469 L 114.828125 0.605469 C 117.613281 0.605469 120.285156 1.710938 122.253906 3.679688 C 124.222656 5.648438 125.328125 8.320312 125.328125 11.105469 L 125.328125 115.179688 C 125.328125 117.964844 124.222656 120.636719 122.253906 122.605469 C 120.285156 124.574219 117.613281 125.679688 114.828125 125.679688 L 10.753906 125.679688 C 7.96875 125.679688 5.296875 124.574219 3.328125 122.605469 C 1.359375 120.636719 0.253906 117.964844 0.253906 115.179688 L 0.253906 11.105469 C 0.253906 8.320312 1.359375 5.648438 3.328125 3.679688 C 5.296875 1.710938 7.96875 0.605469 10.753906 0.605469 Z M 10.753906 0.605469 " clip-rule="nonzero"/></clipPath><clipPath id="4710280d65"><rect x="0" width="126" y="0" height="126"/></clipPath><clipPath id="e56a8e9f3a"><path d="M 159.253906 87.605469 L 284.503906 87.605469 L 284.503906 212.855469 L 159.253906 212.855469 Z M 159.253906 87.605469 " clip-rule="nonzero"/></clipPath><clipPath id="3c1396f666"><path d="M 169.753906 87.605469 L 273.828125 87.605469 C 276.613281 87.605469 279.28125 88.710938 281.25 90.679688 C 283.222656 92.648438 284.328125 95.320312 284.328125 98.105469 L 284.328125 202.179688 C 284.328125 204.964844 283.222656 207.632812 281.25 209.601562 C 279.28125 211.570312 276.613281 212.679688 273.828125 212.679688 L 169.753906 212.679688 C 166.96875 212.679688 164.296875 211.570312 162.328125 209.601562 C 160.359375 207.632812 159.253906 204.964844 159.253906 202.179688 L 159.253906 98.105469 C 159.253906 95.320312 160.359375 92.648438 162.328125 90.679688 C 164.296875 88.710938 166.96875 87.605469 169.753906 87.605469 Z M 169.753906 87.605469 " clip-rule="nonzero"/></clipPath><clipPath id="101b97e663"><path d="M 184 101.234375 L 258 101.234375 L 258 201 L 184 201 Z M 184 101.234375 " clip-rule="nonzero"/></clipPath><clipPath id="a859efdf39"><path d="M 184 101.234375 L 259 101.234375 L 259 201 L 184 201 Z M 184 101.234375 " clip-rule="nonzero"/></clipPath></defs><g clip-path="url(#98e35c2f56)"><g clip-path="url(#fb9f1dec11)"><g transform="matrix(1, 0, 0, 1, 21, 87)"><g clip-path="url(#4fc90d794c)"><g clip-path="url(#91540b6a97)"><g clip-path="url(#9feafa8cc4)"><path fill="#eb7332" d="M 0.378906 0.605469 L 125.359375 0.605469 L 125.359375 125.585938 L 0.378906 125.585938 Z M 0.378906 0.605469 " fill-opacity="1" fill-rule="nonzero"/></g></g></g></g></g></g><g clip-path="url(#9fcc6b1f05)"><g clip-path="url(#e352c2e1b2)"><path stroke-linecap="butt" transform="matrix(0.75, 0, 0, 0.75, 21.379315, 87.604212)" fill="none" stroke-linejoin="miter" d="M 13.999457 0.00167561 L 152.640093 0.00167561 C 160.374469 0.00167561 166.640094 6.267301 166.640094 14.001677 L 166.640094 152.642313 C 166.640094 160.37148 160.374469 166.642314 152.640093 166.642314 L 13.999457 166.642314 C 6.270289 166.642314 -0.000544539 160.37148 -0.000544539 152.642313 L -0.000544539 14.001677 C -0.000544539 6.267301 6.270289 0.00167561 13.999457 0.00167561 Z M 13.999457 0.00167561 " stroke="#000000" stroke-width="6" stroke-opacity="1" stroke-miterlimit="4"/></g></g><g clip-path="url(#82a3c7d7fc)"><g transform="matrix(1, 0, 0, 1, 33, 97)"><g clip-path="url(#3f7916a69b)"><path fill="#f4dec7" d="M 57.179688 44.652344 C 56.699219 40.058594 59.332031 22.574219 60.640625 15.617188 C 61.925781 8.660156 60.960938 3.304688 57.441406 2.300781 C 53.921875 1.300781 54.0625 0.679688 49.699219 5.230469 C 45.335938 9.78125 44.171875 44.109375 44.171875 44.109375 M 44.171875 44.109375 C 40.53125 35.046875 39.503906 27.367188 38.5 16.578125 C 37.492188 5.792969 32.96875 6.050781 32.96875 6.050781 C 20.761719 6.191406 26.011719 22.011719 26.574219 24.71875 C 27.136719 27.425781 30.535156 46.558594 30.535156 46.558594 C 30.535156 46.558594 28.445312 42.183594 21.75 26.726562 C 15.050781 11.265625 9.800781 14.613281 9.800781 14.613281 C -0.253906 19.527344 14.628906 38.554688 17.644531 44.890625 C 20.660156 51.230469 19.9375 62.539062 20.964844 72.34375 C 21.988281 82.148438 29.410156 88.484375 29.410156 88.484375 L 29.410156 94.863281 C 44.390625 108.679688 65.566406 95.84375 65.566406 95.84375 L 65.566406 90.933594 C 69.691406 91.273438 82.839844 78.117188 82.839844 78.117188 C 82.839844 78.117188 89.878906 71.761719 95.792969 67.089844 C 101.703125 62.417969 94.222656 59.992188 94.222656 59.992188 C 82.921875 56.964844 73.289062 68.273438 73.289062 68.273438 C 73.289062 68.273438 70.675781 55.820312 70.492188 49.90625 C 70.3125 43.988281 76.890625 31.355469 79.804688 22.65625 C 82.722656 13.953125 79.804688 13.371094 79.804688 13.371094 C 73.488281 8.660156 69.347656 13.652344 65.042969 27.207031 C 60.742188 40.761719 57.179688 44.652344 57.179688 44.652344 " fill-opacity="1" fill-rule="nonzero"/><path fill="#e0bfae" d="M 40.972656 90.75 C 40.75 91.03125 38.597656 93.558594 35.140625 93.378906 C 32.507812 93.238281 30.152344 91.574219 29.046875 89.105469 C 30.457031 89.75 32.527344 90.511719 35.140625 90.832031 C 37.515625 91.132812 39.523438 90.992188 40.972656 90.75 Z M 57.601562 92.976562 C 61.484375 92.917969 64.441406 91.695312 65.988281 90.933594 C 65.707031 91.332031 62.953125 95.121094 57.945312 95.285156 C 52.917969 95.445312 49.941406 91.8125 49.640625 91.433594 C 51.167969 92.074219 53.984375 93.039062 57.601562 92.976562 Z M 62.890625 64.882812 C 64.902344 64.605469 66.691406 65.066406 69.1875 64.023438 C 70.371094 63.519531 71.238281 62.878906 71.78125 62.417969 C 72.285156 64.363281 72.785156 66.328125 73.308594 68.273438 C 71.339844 67.53125 67.839844 66.507812 63.457031 66.828125 C 60.480469 67.050781 58.066406 67.851562 56.417969 68.535156 C 59.011719 65.90625 61.285156 65.105469 62.890625 64.882812 Z M 36.808594 69.617188 C 33.792969 68.574219 31.160156 68.574219 29.609375 68.675781 C 32.324219 66.710938 35.84375 66.347656 38.742188 67.773438 C 42.21875 69.476562 43.164062 72.964844 43.304688 73.507812 C 42.160156 72.425781 39.988281 70.699219 36.808594 69.617188 Z M 30.617188 46.957031 C 29.832031 42.164062 29.027344 37.394531 28.242188 32.601562 C 28.828125 34.804688 29.371094 36.792969 29.871094 38.496094 C 31.140625 42.847656 31.601562 43.910156 32.667969 44.652344 C 34.15625 45.695312 36.046875 45.574219 37.351562 45.3125 Z M 44.230469 44.453125 C 44.410156 40.5 44.613281 36.550781 44.792969 32.601562 C 43.867188 36.230469 44.894531 39.960938 47.46875 42.246094 C 49.820312 44.332031 52.636719 44.453125 53.519531 44.453125 Z M 62.128906 45.914062 C 62.226562 45.933594 60.820312 45.632812 60.136719 44.589844 C 59.292969 43.308594 59.9375 41.464844 60.640625 39.476562 C 61.121094 38.113281 61.6875 37.03125 62.128906 36.269531 L 57.199219 44.632812 C 58.832031 45.074219 60.480469 45.492188 62.128906 45.914062 " fill-opacity="1" fill-rule="nonzero"/><g clip-path="url(#c51eb9b00d)"><path fill="#100f0d" d="M 30.035156 68.234375 C 29.371094 68.332031 28.707031 68.453125 28.0625 68.613281 C 28.726562 68.753906 29.371094 68.792969 30.035156 68.894531 L 31 69.035156 C 31.160156 69.054688 31.320312 69.074219 31.480469 69.09375 C 31.640625 69.117188 31.804688 69.15625 31.964844 69.175781 C 32.285156 69.234375 32.585938 69.296875 32.910156 69.335938 C 33.230469 69.394531 33.53125 69.476562 33.855469 69.535156 C 34.476562 69.65625 35.082031 69.835938 35.703125 69.976562 C 36.929688 70.320312 38.117188 70.738281 39.285156 71.242188 C 40.449219 71.742188 41.597656 72.324219 42.722656 73.046875 C 42 71.921875 40.914062 71.039062 39.785156 70.320312 C 38.640625 69.597656 37.375 69.074219 36.066406 68.695312 C 35.402344 68.535156 34.757812 68.375 34.074219 68.292969 C 33.734375 68.253906 33.410156 68.191406 33.070312 68.171875 C 32.726562 68.152344 32.40625 68.132812 32.0625 68.132812 C 31.722656 68.113281 31.402344 68.132812 31.058594 68.152344 Z M 7.328125 22.472656 C 7.710938 24.539062 8.457031 26.546875 9.339844 28.488281 C 9.78125 29.453125 10.285156 30.394531 10.828125 31.316406 C 11.351562 32.238281 11.933594 33.121094 12.539062 34.042969 C 13.703125 35.867188 14.828125 37.734375 15.835938 39.660156 C 16.863281 41.582031 17.765625 43.570312 18.511719 45.632812 C 19.253906 47.699219 19.777344 49.84375 20.078125 52.03125 C 20.21875 53.113281 20.320312 54.238281 20.339844 55.320312 L 20.398438 58.566406 C 20.441406 60.714844 20.519531 62.859375 20.660156 65.003906 C 20.964844 69.277344 21.546875 73.546875 22.8125 77.617188 C 23.457031 79.644531 24.28125 81.609375 25.386719 83.390625 C 26.472656 85.195312 27.882812 86.78125 29.550781 88.023438 C 30.394531 88.644531 31.320312 89.148438 32.285156 89.546875 C 33.25 89.949219 34.277344 90.230469 35.324219 90.429688 C 36.367188 90.609375 37.433594 90.710938 38.5 90.730469 C 39.566406 90.730469 40.652344 90.671875 41.738281 90.570312 C 40.671875 90.8125 39.605469 90.992188 38.519531 91.09375 C 37.433594 91.171875 36.328125 91.171875 35.222656 91.03125 C 33.472656 90.832031 31.722656 90.308594 30.152344 89.46875 C 30.113281 90.371094 30.074219 91.253906 30.054688 92.15625 L 29.953125 95.542969 C 31.160156 96.367188 32.445312 97.109375 33.773438 97.75 C 35.179688 98.429688 36.648438 99.011719 38.15625 99.496094 C 41.171875 100.4375 44.332031 100.917969 47.488281 100.898438 C 49.078125 100.898438 50.644531 100.757812 52.214844 100.535156 C 53.78125 100.296875 55.3125 99.914062 56.820312 99.453125 C 59.714844 98.53125 62.488281 97.207031 64.984375 95.523438 C 64.941406 94.320312 64.902344 93.117188 64.863281 91.894531 C 63.214844 92.496094 61.484375 92.9375 59.734375 93.199219 C 57.84375 93.457031 55.894531 93.519531 54.003906 93.199219 C 52.113281 92.855469 50.285156 92.113281 48.816406 90.933594 C 50.625 91.511719 52.375 91.914062 54.164062 92.09375 C 55.953125 92.296875 57.765625 92.253906 59.554688 91.976562 C 63.132812 91.394531 66.550781 89.96875 69.730469 88.203125 C 72.925781 86.421875 75.882812 84.214844 78.597656 81.75 C 79.945312 80.503906 81.230469 79.203125 82.359375 77.796875 C 83.542969 76.292969 84.933594 74.992188 86.378906 73.789062 C 87.828125 72.585938 89.355469 71.480469 90.867188 70.417969 C 92.375 69.335938 93.882812 68.273438 95.167969 67.03125 C 95.8125 66.410156 96.355469 65.726562 96.695312 64.964844 C 96.878906 64.582031 96.957031 64.203125 96.976562 63.800781 C 97 63.402344 96.9375 63.019531 96.796875 62.660156 C 96.65625 62.296875 96.433594 61.976562 96.152344 61.695312 C 95.871094 61.414062 95.53125 61.175781 95.148438 60.972656 C 94.402344 60.574219 93.539062 60.332031 92.675781 60.171875 C 90.925781 59.871094 89.074219 59.890625 87.285156 60.132812 C 86.378906 60.253906 85.496094 60.433594 84.652344 60.714844 C 84.230469 60.855469 83.804688 60.996094 83.402344 61.175781 L 82.800781 61.457031 C 82.601562 61.554688 82.398438 61.65625 82.199219 61.777344 C 80.609375 62.636719 79.140625 63.742188 77.734375 64.90625 C 76.324219 66.085938 74.980469 67.351562 73.730469 68.675781 L 73.511719 68.914062 L 73.207031 68.835938 L 71.742188 68.453125 C 71.257812 68.332031 70.753906 68.234375 70.273438 68.113281 C 69.789062 68.011719 69.289062 67.933594 68.804688 67.832031 L 67.316406 67.613281 C 65.34375 67.351562 63.335938 67.289062 61.363281 67.472656 C 59.394531 67.671875 57.441406 68.132812 55.671875 68.996094 C 54.789062 69.4375 53.945312 69.9375 53.160156 70.539062 C 52.375 71.140625 51.628906 71.800781 50.96875 72.585938 C 51.347656 71.621094 52.011719 70.800781 52.757812 70.058594 C 53.5 69.335938 54.367188 68.734375 55.289062 68.234375 C 57.140625 67.25 59.191406 66.667969 61.242188 66.410156 C 63.316406 66.148438 65.40625 66.226562 67.457031 66.46875 C 67.960938 66.546875 68.484375 66.609375 68.984375 66.710938 C 69.488281 66.808594 69.992188 66.910156 70.492188 67.011719 C 70.996094 67.128906 71.5 67.25 72.003906 67.371094 L 72.6875 67.570312 C 72.144531 65.765625 71.660156 63.960938 71.257812 62.117188 C 70.796875 59.992188 70.433594 57.847656 70.210938 55.679688 C 69.992188 53.515625 69.910156 51.328125 70.089844 49.125 C 70.171875 48.019531 70.332031 46.9375 70.59375 45.855469 C 70.835938 44.773438 71.238281 43.710938 71.660156 42.726562 C 73.289062 38.714844 75.058594 34.785156 76.605469 30.757812 C 77.390625 28.75 78.113281 26.726562 78.738281 24.679688 C 79.363281 22.636719 79.886719 20.550781 80.105469 18.464844 C 80.167969 17.421875 80.1875 16.378906 80.007812 15.394531 C 79.824219 14.414062 79.421875 13.511719 78.679688 12.988281 C 78.296875 12.730469 77.894531 12.546875 77.371094 12.449219 C 76.890625 12.308594 76.386719 12.246094 75.882812 12.226562 C 74.878906 12.1875 73.890625 12.410156 73.007812 12.871094 C 72.121094 13.332031 71.359375 14.03125 70.695312 14.816406 C 70.03125 15.617188 69.488281 16.5 68.984375 17.441406 C 67.980469 19.304688 67.257812 21.332031 66.59375 23.355469 C 65.929688 25.402344 65.386719 27.488281 64.800781 29.574219 C 64.5 30.617188 64.21875 31.65625 63.859375 32.699219 C 63.515625 33.742188 63.054688 34.746094 62.628906 35.730469 C 61.746094 37.714844 60.742188 39.640625 59.632812 41.503906 C 59.515625 41.722656 59.351562 41.984375 59.171875 42.207031 L 58.667969 42.847656 C 58.347656 43.269531 58.003906 43.6875 57.742188 44.128906 C 57.683594 44.230469 57.625 44.351562 57.5625 44.472656 C 57.542969 44.53125 57.503906 44.589844 57.503906 44.632812 L 57.484375 44.671875 C 59.132812 45.011719 60.761719 45.453125 62.347656 46.015625 C 59.332031 45.574219 56.335938 45.234375 53.320312 45.09375 C 51.8125 45.03125 50.304688 44.972656 48.816406 44.992188 C 47.308594 44.992188 45.820312 45.054688 44.3125 45.171875 C 42.804688 45.253906 41.3125 45.414062 39.828125 45.613281 C 38.339844 45.792969 36.851562 46.054688 35.363281 46.316406 C 32.40625 46.878906 29.46875 47.640625 26.554688 48.480469 C 29.269531 47.097656 32.164062 46.054688 35.140625 45.273438 C 37.9375 44.550781 40.792969 44.070312 43.667969 43.828125 L 43.628906 43.710938 C 42.78125 41.703125 42.039062 39.660156 41.355469 37.613281 C 40.671875 35.546875 40.089844 33.441406 39.6875 31.296875 C 38.859375 27.027344 38.539062 22.695312 38.175781 18.402344 C 37.996094 16.257812 37.796875 14.132812 37.253906 12.085938 C 36.992188 11.066406 36.628906 10.082031 36.144531 9.199219 C 35.644531 8.316406 35 7.535156 34.175781 7.09375 C 33.351562 6.632812 32.367188 6.554688 31.402344 6.695312 C 30.394531 6.855469 29.429688 7.195312 28.625 7.734375 C 27.820312 8.277344 27.179688 9.039062 26.753906 9.941406 C 26.3125 10.824219 26.089844 11.847656 25.972656 12.871094 C 25.730469 14.933594 25.929688 17.058594 26.210938 19.164062 C 26.515625 21.269531 26.9375 23.375 27.398438 25.480469 C 27.882812 27.585938 28.34375 29.714844 28.746094 31.839844 C 29.167969 33.964844 29.550781 36.089844 29.832031 38.234375 C 30.113281 40.378906 30.335938 42.527344 30.574219 44.691406 L 30.777344 46.296875 L 30.796875 46.496094 L 30.816406 46.597656 C 30.09375 47.058594 30.457031 46.515625 30.355469 46.65625 L 30.175781 46.296875 L 29.832031 45.574219 C 29.371094 44.589844 28.886719 43.628906 28.402344 42.667969 C 27.4375 40.742188 26.453125 38.816406 25.570312 36.832031 C 24.683594 34.867188 23.800781 32.882812 22.972656 30.875 C 22.152344 28.871094 21.347656 26.867188 20.621094 24.820312 L 20.078125 23.296875 L 19.796875 22.554688 L 19.476562 21.832031 C 19.035156 20.871094 18.53125 19.929688 17.96875 19.046875 C 17.382812 18.164062 16.722656 17.339844 15.957031 16.640625 C 15.191406 15.9375 14.328125 15.355469 13.382812 15.015625 C 12.4375 14.675781 11.410156 14.632812 10.488281 14.933594 C 10.023438 15.074219 9.582031 15.316406 9.160156 15.597656 C 8.757812 15.878906 8.414062 16.21875 8.132812 16.621094 C 7.570312 17.421875 7.308594 18.402344 7.207031 19.425781 C 7.046875 20.410156 7.148438 21.453125 7.328125 22.472656 Z M 57.460938 44.632812 Z M 57.925781 29.273438 C 58.40625 24.960938 59.433594 20.730469 60.097656 16.5 C 60.257812 15.4375 60.417969 14.375 60.519531 13.3125 C 60.621094 12.269531 60.640625 11.207031 60.578125 10.140625 C 60.519531 9.078125 60.378906 8.035156 60.117188 7.035156 C 59.855469 6.03125 59.472656 5.050781 58.890625 4.226562 C 58.328125 3.40625 57.523438 2.785156 56.597656 2.484375 C 56.136719 2.34375 55.632812 2.28125 55.128906 2.261719 C 54.625 2.261719 54.125 2.320312 53.621094 2.441406 C 52.65625 2.621094 51.8125 3.183594 51.148438 3.945312 C 50.484375 4.707031 49.960938 5.628906 49.539062 6.574219 C 48.714844 8.5 48.210938 10.605469 47.75 12.6875 C 47.308594 14.792969 46.90625 16.898438 46.5625 19.027344 C 45.878906 23.277344 45.398438 27.546875 45.054688 31.859375 C 44.894531 34.003906 44.753906 36.148438 44.671875 38.316406 C 44.613281 39.398438 44.59375 40.460938 44.550781 41.542969 L 44.511719 43.167969 L 44.492188 43.75 C 45.921875 43.667969 47.347656 43.628906 48.777344 43.667969 C 50.304688 43.710938 51.851562 43.808594 53.359375 43.988281 C 54.546875 44.128906 55.714844 44.3125 56.878906 44.550781 L 56.917969 43.851562 L 57 42.226562 C 57.242188 37.894531 57.460938 33.5625 57.925781 29.273438 Z M 30.675781 46.417969 C 30.617188 46.535156 30.777344 46.394531 30.675781 46.417969 Z M 6.183594 19.304688 C 6.285156 18.183594 6.585938 17.019531 7.289062 16.039062 C 7.628906 15.554688 8.074219 15.136719 8.554688 14.792969 C 9.039062 14.472656 9.5625 14.191406 10.125 14.011719 C 11.25 13.652344 12.496094 13.710938 13.605469 14.113281 C 14.710938 14.515625 15.65625 15.175781 16.480469 15.9375 C 17.304688 16.699219 18.007812 17.582031 18.609375 18.503906 C 19.214844 19.425781 19.738281 20.410156 20.179688 21.410156 L 20.5 22.171875 L 20.800781 22.9375 L 21.347656 24.460938 C 22.070312 26.484375 22.875 28.46875 23.71875 30.457031 C 24.5625 32.441406 25.425781 34.425781 26.292969 36.390625 C 27.15625 38.355469 27.980469 40.359375 28.847656 42.347656 C 29.25 43.289062 29.671875 44.230469 30.113281 45.152344 C 30.09375 44.992188 30.054688 44.832031 30.035156 44.671875 C 29.671875 42.546875 29.207031 40.441406 28.785156 38.316406 C 28.34375 36.210938 27.960938 34.085938 27.539062 31.980469 C 27.117188 29.875 26.675781 27.769531 26.171875 25.664062 C 25.6875 23.558594 25.246094 21.410156 24.945312 19.246094 C 24.785156 18.164062 24.683594 17.082031 24.625 15.976562 C 24.582031 14.875 24.582031 13.75 24.722656 12.648438 C 24.863281 11.527344 25.125 10.402344 25.648438 9.359375 C 26.152344 8.296875 26.957031 7.355469 27.941406 6.695312 C 28.945312 6.050781 30.074219 5.671875 31.199219 5.492188 C 32.347656 5.308594 33.632812 5.429688 34.71875 6.050781 C 35.785156 6.652344 36.546875 7.617188 37.113281 8.617188 C 37.65625 9.621094 38.015625 10.703125 38.277344 11.765625 C 38.820312 13.914062 39 16.117188 39.164062 18.261719 C 39.484375 22.574219 39.785156 26.867188 40.550781 31.078125 C 40.933594 33.183594 41.457031 35.265625 42.097656 37.3125 C 42.421875 38.335938 42.761719 39.359375 43.125 40.378906 C 43.367188 41.082031 43.648438 41.765625 43.910156 42.445312 L 43.929688 41.484375 C 43.96875 40.402344 43.96875 39.316406 44.027344 38.234375 C 44.089844 36.070312 44.230469 33.925781 44.371094 31.757812 C 44.671875 27.449219 45.136719 23.136719 45.800781 18.863281 C 46.121094 16.71875 46.523438 14.59375 46.945312 12.46875 C 47.386719 10.34375 47.890625 8.21875 48.753906 6.171875 C 49.199219 5.148438 49.742188 4.167969 50.503906 3.285156 C 50.886719 2.863281 51.328125 2.460938 51.832031 2.140625 C 52.335938 1.820312 52.898438 1.601562 53.480469 1.480469 C 54.042969 1.359375 54.605469 1.28125 55.191406 1.28125 C 55.773438 1.28125 56.355469 1.359375 56.941406 1.539062 C 58.085938 1.902344 59.050781 2.703125 59.695312 3.644531 C 60.359375 4.609375 60.761719 5.671875 61.042969 6.753906 C 61.324219 7.835938 61.464844 8.9375 61.503906 10.042969 C 61.566406 11.144531 61.523438 12.246094 61.40625 13.332031 C 61.285156 14.414062 61.121094 15.496094 60.921875 16.558594 C 60.175781 20.832031 59.09375 25.019531 58.570312 29.273438 C 58.027344 33.542969 57.824219 37.855469 57.601562 42.164062 L 57.542969 43.46875 C 57.785156 43.109375 58.027344 42.765625 58.289062 42.425781 L 58.769531 41.785156 C 58.929688 41.5625 59.050781 41.363281 59.191406 41.121094 C 60.257812 39.257812 61.242188 37.351562 62.109375 35.386719 C 62.550781 34.40625 62.953125 33.421875 63.273438 32.398438 C 63.597656 31.378906 63.878906 30.335938 64.140625 29.292969 C 64.683594 27.207031 65.203125 25.101562 65.828125 23.015625 C 66.453125 20.929688 67.175781 18.863281 68.179688 16.898438 C 68.683594 15.917969 69.246094 14.953125 69.972656 14.09375 C 70.675781 13.230469 71.539062 12.429688 72.566406 11.867188 C 73.589844 11.304688 74.777344 11.023438 75.941406 11.085938 C 76.527344 11.105469 77.109375 11.183594 77.652344 11.324219 C 78.195312 11.425781 78.820312 11.667969 79.320312 12.027344 C 79.824219 12.386719 80.246094 12.890625 80.527344 13.429688 C 80.808594 13.972656 80.992188 14.554688 81.089844 15.117188 C 81.292969 16.257812 81.273438 17.382812 81.152344 18.484375 C 80.910156 20.691406 80.367188 22.816406 79.746094 24.902344 C 79.101562 26.984375 78.375 29.03125 77.59375 31.058594 C 76.808594 33.082031 75.984375 35.085938 75.140625 37.070312 C 74.292969 39.058594 73.429688 41.042969 72.605469 43.027344 C 72.183594 44.03125 71.820312 44.992188 71.578125 46.015625 C 71.316406 47.039062 71.175781 48.082031 71.097656 49.144531 C 70.914062 51.25 70.996094 53.394531 71.175781 55.519531 C 71.378906 57.644531 71.699219 59.769531 72.144531 61.875 C 72.523438 63.703125 72.96875 65.546875 73.488281 67.332031 C 74.617188 66.167969 75.800781 65.066406 77.050781 64.023438 C 78.496094 62.820312 80.007812 61.675781 81.695312 60.773438 C 81.917969 60.652344 82.117188 60.53125 82.339844 60.433594 L 83.003906 60.132812 C 83.445312 59.929688 83.90625 59.769531 84.371094 59.628906 C 85.292969 59.351562 86.21875 59.148438 87.164062 59.027344 C 89.054688 58.769531 90.984375 58.75 92.894531 59.070312 C 93.839844 59.25 94.804688 59.511719 95.691406 59.992188 C 96.132812 60.230469 96.574219 60.511719 96.9375 60.894531 C 97.320312 61.273438 97.621094 61.714844 97.824219 62.238281 C 98.226562 63.261719 98.125 64.402344 97.703125 65.34375 C 97.28125 66.289062 96.636719 67.070312 95.953125 67.75 C 94.566406 69.09375 93.035156 70.179688 91.546875 71.28125 C 90.039062 72.363281 88.550781 73.464844 87.164062 74.628906 C 85.757812 75.8125 84.46875 77.097656 83.363281 78.519531 C 82.199219 80.023438 80.871094 81.367188 79.503906 82.671875 C 76.746094 85.238281 73.710938 87.484375 70.433594 89.347656 C 69.125 90.089844 67.777344 90.75 66.410156 91.3125 C 66.351562 92.816406 66.289062 94.320312 66.25 95.824219 L 66.25 96.164062 L 65.988281 96.324219 C 63.214844 98.03125 60.238281 99.355469 57.121094 100.234375 C 54.023438 101.136719 50.785156 101.578125 47.570312 101.578125 C 45.960938 101.558594 44.351562 101.480469 42.742188 101.238281 C 41.152344 101 39.566406 100.65625 38.015625 100.214844 C 34.921875 99.3125 31.945312 97.992188 29.1875 96.285156 L 28.945312 96.144531 L 28.945312 95.84375 L 28.847656 92.175781 C 28.804688 90.953125 28.765625 89.75 28.707031 88.527344 C 27.015625 87.300781 25.628906 85.699219 24.523438 83.953125 C 23.355469 82.070312 22.492188 80.023438 21.808594 77.9375 C 20.480469 73.746094 19.878906 69.417969 19.554688 65.085938 C 19.394531 62.917969 19.316406 60.753906 19.273438 58.589844 L 19.214844 55.359375 C 19.195312 54.277344 19.113281 53.253906 18.992188 52.191406 C 18.710938 50.085938 18.207031 48.019531 17.503906 46.015625 C 16.800781 44.011719 15.917969 42.066406 14.929688 40.160156 C 13.945312 38.253906 12.839844 36.410156 11.691406 34.585938 C 11.128906 33.683594 10.527344 32.761719 9.984375 31.796875 C 9.441406 30.855469 8.9375 29.875 8.476562 28.871094 C 7.570312 26.886719 6.804688 24.800781 6.425781 22.613281 C 6.183594 21.550781 6.101562 20.429688 6.183594 19.304688 " fill-opacity="1" fill-rule="nonzero"/></g></g></g></g><g clip-path="url(#43c50ec84d)"><g clip-path="url(#2d404ba093)"><g transform="matrix(1, 0, 0, 1, 159, 87)"><g clip-path="url(#4710280d65)"><g clip-path="url(#a69bbf5c5d)"><g clip-path="url(#1327445b8d)"><path fill="#eb7332" d="M 0.253906 0.605469 L 125.328125 0.605469 L 125.328125 125.679688 L 0.253906 125.679688 Z M 0.253906 0.605469 " fill-opacity="1" fill-rule="nonzero"/></g></g></g></g></g></g><g clip-path="url(#e56a8e9f3a)"><g clip-path="url(#3c1396f666)"><path stroke-linecap="butt" transform="matrix(0.75, 0, 0, 0.75, 159.252855, 87.604212)" fill="none" stroke-linejoin="miter" d="M 14.001402 0.00167561 L 152.76703 0.00167561 C 156.480572 0.00167561 160.037863 1.475634 162.662863 4.100634 C 165.293072 6.725634 166.76703 10.288134 166.76703 14.001676 L 166.76703 152.767303 C 166.76703 156.480845 165.293072 160.038137 162.662863 162.663137 C 160.037863 165.288137 156.480572 166.767304 152.76703 166.767304 L 14.001402 166.767304 C 10.287861 166.767304 6.725361 165.288137 4.100361 162.663137 C 1.475361 160.038137 0.00140221 156.480845 0.00140221 152.767303 L 0.00140221 14.001676 C 0.00140221 10.288134 1.475361 6.725634 4.100361 4.100634 C 6.725361 1.475634 10.287861 0.00167561 14.001402 0.00167561 Z M 14.001402 0.00167561 " stroke="#000000" stroke-width="6" stroke-opacity="1" stroke-miterlimit="4"/></g></g><g clip-path="url(#101b97e663)"><path fill="#f4dec7" d="M 209.089844 142.941406 C 209.089844 142.941406 208.652344 124.082031 208.390625 117.171875 C 208.152344 110.265625 207.335938 101.332031 214.988281 101.730469 C 222.640625 102.125 220.867188 114.8125 220.40625 122.949219 C 219.949219 131.089844 221.863281 141.210938 221.863281 141.210938 M 221.863281 141.210938 C 225.527344 131.128906 226.464844 121.917969 227.042969 112.847656 C 227.621094 103.773438 229.675781 102.464844 235.574219 102.703125 C 241.472656 102.941406 241.253906 113.699219 238.820312 124.4375 C 236.390625 135.179688 235.175781 142.960938 235.175781 142.960938 C 235.175781 142.960938 238.5625 134.105469 243.703125 122.492188 C 248.84375 110.859375 254.503906 114.15625 254.503906 114.15625 C 262.773438 119.535156 252.851562 133.390625 249.742188 138.949219 C 246.632812 144.507812 245.515625 150.125 245.515625 150.125 C 245.515625 150.125 246.355469 158.960938 245.339844 170.871094 C 244.320312 182.78125 237.109375 186.59375 237.109375 186.59375 L 237.109375 194.054688 C 219.472656 207.734375 200.003906 194.550781 200.003906 194.550781 L 199.484375 190.027344 L 200.621094 187.246094 C 191.09375 183.238281 193.007812 168.488281 193.007812 168.488281 C 193.007812 168.488281 194.300781 154.136719 195.039062 150.464844 C 195.777344 146.789062 192.269531 139.070312 192.269531 139.070312 C 192.269531 139.070312 178.0625 112.867188 188.5625 108.359375 C 199.066406 103.851562 201.976562 126.226562 201.976562 126.226562 L 207.894531 143.515625 L 209.089844 142.941406 " fill-opacity="1" fill-rule="nonzero"/></g><path fill="#e0bfae" d="M 222.539062 142.125 C 213.910156 141.886719 206.777344 143.734375 201.996094 145.421875 C 206.738281 144.667969 213.851562 143.851562 222.460938 144.109375 C 233.359375 144.449219 240.792969 146.316406 240.875 145.898438 C 240.972656 145.460938 232.625 142.402344 222.539062 142.125 Z M 201.4375 187.960938 C 203.171875 189.351562 209.089844 193.757812 217.878906 193.835938 C 227.125 193.917969 233.359375 189.152344 235.015625 187.804688 C 228.777344 190.007812 225.089844 189.3125 222.839844 188.160156 C 221.722656 187.585938 220.308594 186.570312 218.078125 186.414062 C 215.683594 186.253906 214.011719 187.1875 212.597656 187.742188 C 210.324219 188.65625 206.796875 189.3125 201.4375 187.960938 Z M 224.332031 165.886719 L 217.5 167.8125 C 216.542969 168.546875 215.566406 169.28125 214.609375 170.015625 C 221.226562 171.109375 227.742188 168.863281 231.566406 164.039062 C 234.777344 159.992188 235.015625 155.464844 235.015625 153.738281 C 235.09375 162.652344 224.332031 165.886719 224.332031 165.886719 Z M 220.707031 130.433594 C 220.847656 131.246094 220.964844 132.457031 220.847656 133.90625 C 220.6875 135.652344 220.449219 138.453125 218.316406 140.457031 C 216.300781 142.363281 213.691406 142.523438 212.734375 142.523438 C 215.683594 142.421875 218.632812 142.324219 221.605469 142.203125 Z M 235.355469 144.011719 C 235.355469 144.011719 235.691406 134.683594 236.550781 132.835938 C 236.609375 132.71875 236.628906 132.636719 236.628906 132.636719 C 236.769531 132.675781 234.359375 141.273438 232.605469 142.203125 C 232.523438 142.246094 231.449219 142.800781 231.449219 142.800781 Z M 207.894531 143.515625 C 206.140625 144.011719 204.367188 144.507812 202.613281 145.003906 C 203.03125 144.367188 203.429688 143.636719 203.789062 142.800781 C 205.261719 139.226562 204.765625 135.832031 204.347656 134.085938 L 207.894531 143.515625 " fill-opacity="1" fill-rule="nonzero"/><g clip-path="url(#a859efdf39)"><path fill="#100f0d" d="M 257.375 121.582031 C 257.355469 121.957031 257.253906 122.335938 257.175781 122.710938 C 257.074219 123.089844 256.996094 123.464844 256.875 123.84375 C 256.417969 125.332031 255.78125 126.78125 255.082031 128.210938 C 254.386719 129.640625 253.628906 131.03125 252.851562 132.4375 C 251.296875 135.238281 249.664062 137.996094 248.226562 140.875 C 247.511719 142.324219 246.832031 143.773438 246.273438 145.300781 C 245.714844 146.832031 245.257812 148.398438 245.078125 150.046875 L 245.078125 150.125 C 245.21875 152.507812 245.296875 154.910156 245.339844 157.3125 C 245.378906 159.714844 245.398438 162.117188 245.339844 164.496094 C 245.316406 165.6875 245.238281 166.878906 245.15625 168.070312 C 245.058594 169.261719 244.9375 170.433594 244.738281 171.605469 C 244.558594 172.773438 244.300781 173.925781 244.003906 175.078125 C 243.824219 175.632812 243.683594 176.210938 243.484375 176.765625 L 243.1875 177.597656 L 242.847656 178.414062 C 241.929688 180.578125 240.65625 182.601562 239.039062 184.289062 C 238.242188 185.140625 237.347656 185.898438 236.371094 186.550781 C 235.394531 187.1875 234.335938 187.722656 233.242188 188.101562 C 231.03125 188.875 228.636719 189.035156 226.308594 188.675781 C 223.976562 188.320312 221.722656 187.484375 219.589844 186.375 C 221.484375 187.863281 223.777344 188.933594 226.1875 189.410156 C 228.617188 189.886719 231.167969 189.707031 233.519531 188.914062 C 234.597656 188.558594 235.613281 188.058594 236.589844 187.464844 L 236.449219 193.738281 C 235.890625 194.15625 235.332031 194.570312 234.734375 194.949219 C 234.058594 195.386719 233.359375 195.800781 232.644531 196.199219 C 231.207031 196.953125 229.714844 197.609375 228.179688 198.144531 C 226.644531 198.679688 225.050781 199.058594 223.4375 199.316406 C 221.824219 199.59375 220.1875 199.714844 218.574219 199.734375 L 217.359375 199.714844 C 216.960938 199.695312 216.542969 199.652344 216.144531 199.632812 L 215.527344 199.59375 L 214.929688 199.515625 C 214.527344 199.457031 214.109375 199.414062 213.710938 199.355469 C 212.097656 199.097656 210.523438 198.679688 208.96875 198.183594 C 205.960938 197.191406 203.128906 195.703125 200.578125 193.859375 L 200.640625 190.5625 C 200.660156 189.667969 200.679688 188.796875 200.699219 187.902344 C 201.835938 188.457031 203.050781 188.875 204.285156 189.152344 C 205.601562 189.429688 206.957031 189.507812 208.292969 189.449219 C 209.625 189.371094 210.960938 189.113281 212.21875 188.675781 C 213.492188 188.257812 214.6875 187.625 215.625 186.652344 C 214.351562 187.066406 213.195312 187.5625 211.976562 187.960938 C 210.761719 188.339844 209.507812 188.558594 208.253906 188.617188 C 206.996094 188.636719 205.722656 188.539062 204.484375 188.257812 C 203.25 187.960938 202.074219 187.503906 200.957031 186.929688 C 199.84375 186.332031 198.785156 185.621094 197.828125 184.804688 C 197.351562 184.386719 196.894531 183.953125 196.496094 183.496094 L 195.917969 182.78125 C 195.816406 182.660156 195.738281 182.523438 195.65625 182.402344 L 195.417969 182.007812 C 194.800781 180.953125 194.382812 179.761719 194.144531 178.550781 C 193.902344 177.320312 193.804688 176.070312 193.765625 174.78125 C 193.746094 173.511719 193.765625 172.21875 193.765625 170.910156 L 193.765625 169.917969 L 193.746094 168.925781 L 193.683594 167.933594 C 193.683594 167.773438 193.683594 167.65625 193.683594 167.515625 C 193.683594 167.375 193.703125 167.257812 193.726562 167.136719 C 193.902344 166.125 194.78125 165.273438 195.796875 164.597656 C 196.8125 163.902344 197.96875 163.347656 199.144531 162.789062 C 201.476562 161.699219 203.90625 160.667969 206.21875 159.375 C 207.375 158.742188 208.511719 158.027344 209.585938 157.234375 L 209.984375 156.933594 L 210.363281 156.65625 L 211.140625 156.101562 C 211.402344 155.921875 211.679688 155.761719 211.9375 155.605469 C 212.21875 155.445312 212.476562 155.265625 212.757812 155.128906 L 213.59375 154.710938 C 213.871094 154.570312 214.171875 154.472656 214.449219 154.355469 C 214.589844 154.292969 214.730469 154.234375 214.886719 154.175781 L 215.328125 154.035156 C 215.625 153.9375 215.925781 153.835938 216.222656 153.757812 C 217.4375 153.421875 218.695312 153.242188 219.96875 153.101562 C 221.246094 152.964844 222.558594 152.84375 223.894531 152.605469 C 224.054688 152.566406 224.234375 152.546875 224.394531 152.507812 L 224.890625 152.386719 L 225.390625 152.269531 C 225.550781 152.230469 225.710938 152.171875 225.886719 152.109375 C 226.546875 151.933594 227.183594 151.632812 227.78125 151.375 C 228.917969 150.859375 230.113281 150.421875 231.269531 150.382812 C 231.40625 150.363281 231.546875 150.382812 231.6875 150.382812 C 231.828125 150.402344 231.964844 150.402344 232.085938 150.441406 C 232.34375 150.503906 232.585938 150.582031 232.804688 150.722656 C 233.242188 150.980469 233.558594 151.417969 233.78125 151.933594 C 234 152.449219 234.117188 153.042969 234.15625 153.660156 C 234.21875 154.273438 234.21875 154.890625 234.179688 155.523438 C 234.136719 156.160156 234.078125 156.796875 233.980469 157.410156 C 233.878906 158.007812 233.699219 158.5625 233.441406 159.117188 C 233.183594 159.65625 232.824219 160.152344 232.445312 160.625 C 232.046875 161.082031 231.585938 161.519531 231.109375 161.917969 C 230.132812 162.710938 229.035156 163.367188 227.902344 163.941406 C 225.609375 165.074219 223.136719 165.867188 220.628906 166.542969 L 218.734375 167.039062 C 218.574219 167.078125 218.414062 167.117188 218.253906 167.199219 C 218.097656 167.277344 217.917969 167.335938 217.757812 167.414062 C 217.480469 167.59375 217.160156 167.753906 216.898438 167.953125 C 215.804688 168.707031 214.808594 169.558594 213.832031 170.414062 C 211.859375 172.121094 209.984375 173.925781 208.210938 175.851562 C 210.222656 174.183594 212.175781 172.476562 214.171875 170.808594 C 214.308594 170.691406 214.449219 170.589844 214.589844 170.472656 C 215.128906 170.730469 215.664062 171.007812 216.183594 171.328125 C 216.460938 171.484375 216.699219 171.664062 216.960938 171.84375 C 217.199219 172.039062 217.457031 172.21875 217.699219 172.417969 C 218.175781 172.816406 218.652344 173.253906 219.074219 173.726562 C 219.511719 174.207031 219.929688 174.660156 220.40625 175.136719 C 220.25 174.484375 219.929688 173.886719 219.550781 173.332031 C 219.152344 172.796875 218.734375 172.277344 218.253906 171.804688 C 217.777344 171.328125 217.257812 170.890625 216.699219 170.511719 C 216.300781 170.234375 215.882812 169.976562 215.425781 169.777344 C 216.023438 169.320312 216.621094 168.863281 217.21875 168.449219 C 217.480469 168.269531 217.757812 168.109375 218.015625 167.953125 C 218.15625 167.890625 218.277344 167.832031 218.414062 167.773438 C 218.554688 167.714844 218.714844 167.695312 218.851562 167.632812 L 220.746094 167.175781 C 223.296875 166.5625 225.828125 165.808594 228.21875 164.675781 C 229.414062 164.121094 230.589844 163.445312 231.648438 162.632812 C 232.1875 162.214844 232.683594 161.757812 233.140625 161.242188 C 233.601562 160.726562 234 160.152344 234.316406 159.535156 C 234.636719 158.898438 234.875 158.246094 234.996094 157.550781 C 235.113281 156.894531 235.195312 156.238281 235.253906 155.566406 C 235.292969 154.890625 235.3125 154.214844 235.253906 153.539062 C 235.195312 152.867188 235.09375 152.152344 234.816406 151.476562 C 234.558594 150.800781 234.078125 150.105469 233.402344 149.6875 C 233.0625 149.46875 232.683594 149.3125 232.324219 149.234375 C 232.144531 149.171875 231.945312 149.171875 231.765625 149.132812 C 231.585938 149.132812 231.386719 149.09375 231.207031 149.113281 C 229.734375 149.152344 228.4375 149.628906 227.203125 150.164062 C 226.605469 150.402344 226.066406 150.660156 225.449219 150.820312 C 225.308594 150.859375 225.152344 150.917969 225.011719 150.960938 L 224.09375 151.15625 C 223.933594 151.199219 223.777344 151.21875 223.636719 151.238281 C 222.402344 151.457031 221.105469 151.554688 219.808594 151.695312 C 218.496094 151.832031 217.160156 152.011719 215.863281 152.371094 C 215.527344 152.449219 215.207031 152.546875 214.886719 152.648438 L 214.410156 152.804688 C 214.25 152.867188 214.089844 152.925781 213.929688 152.984375 C 213.613281 153.121094 213.292969 153.222656 212.996094 153.382812 L 212.078125 153.835938 C 211.777344 153.976562 211.5 154.175781 211.203125 154.335938 C 210.921875 154.511719 210.625 154.671875 210.34375 154.871094 L 209.527344 155.445312 L 209.109375 155.742188 L 208.730469 156.019531 C 207.714844 156.777344 206.636719 157.449219 205.5 158.066406 C 203.269531 159.316406 200.878906 160.328125 198.507812 161.441406 C 197.332031 162.015625 196.136719 162.59375 195 163.367188 C 194.582031 163.664062 194.164062 163.980469 193.765625 164.359375 C 193.765625 163.785156 193.785156 163.207031 193.804688 162.632812 C 193.863281 161.558594 193.945312 160.488281 194.0625 159.394531 C 194.300781 157.253906 194.679688 155.109375 195.140625 153.003906 L 195.320312 152.210938 L 195.417969 151.8125 C 195.457031 151.675781 195.476562 151.554688 195.519531 151.394531 C 195.636719 150.820312 195.699219 150.226562 195.675781 149.648438 C 195.65625 148.5 195.5 147.386719 195.257812 146.292969 C 194.78125 144.109375 194.042969 142.027344 193.265625 139.960938 C 191.691406 135.851562 189.898438 131.863281 188.304688 127.8125 C 187.507812 125.789062 186.769531 123.742188 186.171875 121.679688 C 185.554688 119.613281 185.074219 117.511719 185.054688 115.386719 C 185.054688 114.871094 185.097656 114.335938 185.15625 113.839844 C 185.234375 113.320312 185.355469 112.824219 185.535156 112.347656 C 185.714844 111.875 185.953125 111.4375 186.230469 111.019531 C 186.371094 110.820312 186.550781 110.621094 186.710938 110.445312 L 187.269531 109.90625 C 188.046875 109.214844 188.921875 108.636719 189.878906 108.339844 C 190.835938 108.0625 191.851562 108.101562 192.789062 108.480469 C 193.726562 108.855469 194.5625 109.492188 195.300781 110.246094 C 196.035156 111 196.652344 111.851562 197.230469 112.765625 C 198.347656 114.59375 199.203125 116.578125 199.84375 118.621094 C 200.160156 119.65625 200.421875 120.6875 200.601562 121.738281 L 200.878906 123.367188 C 200.976562 123.902344 201.117188 124.4375 201.238281 124.996094 C 201.753906 127.136719 202.375 129.242188 203.050781 131.328125 C 204.367188 135.355469 205.941406 139.285156 207.535156 143.21875 C 205.460938 143.832031 203.449219 144.605469 201.515625 145.539062 C 204.785156 144.585938 208.074219 143.8125 211.402344 143.316406 C 213.054688 143.078125 214.730469 142.878906 216.402344 142.78125 C 218.078125 142.660156 219.75 142.621094 221.425781 142.640625 C 224.773438 142.703125 228.121094 143 231.429688 143.59375 C 234.734375 144.191406 238.003906 145.042969 241.234375 146.097656 C 239.28125 145.082031 237.226562 144.25 235.113281 143.554688 L 235.332031 143.019531 L 237.148438 138.574219 L 238.960938 134.144531 C 240.175781 131.1875 241.410156 128.25 242.765625 125.371094 C 243.445312 123.921875 244.140625 122.492188 244.917969 121.125 C 245.695312 119.753906 246.492188 118.363281 247.609375 117.351562 C 248.765625 116.300781 250.019531 115.308594 251.414062 114.730469 C 252.113281 114.453125 252.851562 114.296875 253.546875 114.375 C 253.886719 114.414062 254.226562 114.511719 254.542969 114.671875 C 254.84375 114.832031 255.140625 115.050781 255.382812 115.308594 C 255.878906 115.824219 256.277344 116.480469 256.597656 117.191406 C 256.757812 117.550781 256.894531 117.90625 257.015625 118.265625 C 257.074219 118.445312 257.136719 118.640625 257.195312 118.820312 C 257.253906 119.019531 257.292969 119.199219 257.335938 119.375 C 257.453125 120.050781 257.472656 120.824219 257.375 121.582031 Z M 208.589844 109.847656 C 208.628906 108.953125 208.730469 108.0625 208.910156 107.1875 C 209.109375 106.335938 209.386719 105.5 209.847656 104.785156 C 209.945312 104.609375 210.085938 104.449219 210.203125 104.269531 C 210.34375 104.113281 210.484375 103.953125 210.644531 103.8125 C 210.941406 103.515625 211.28125 103.277344 211.660156 103.078125 C 212.398438 102.683594 213.234375 102.445312 214.109375 102.324219 L 214.769531 102.265625 L 215.425781 102.246094 C 215.84375 102.246094 216.242188 102.304688 216.640625 102.425781 C 217.417969 102.660156 218.054688 103.199219 218.554688 103.875 C 219.050781 104.566406 219.390625 105.382812 219.652344 106.214844 C 219.910156 107.070312 220.070312 107.941406 220.1875 108.835938 C 220.429688 110.621094 220.488281 112.449219 220.449219 114.273438 C 220.40625 116.101562 220.269531 117.929688 220.167969 119.773438 C 220.070312 121.621094 220.007812 123.464844 220.070312 125.332031 C 220.128906 127.179688 220.289062 129.023438 220.429688 130.851562 C 220.585938 132.675781 220.707031 134.523438 220.828125 136.347656 L 221.027344 139.109375 L 221.125 140.476562 L 221.164062 141.171875 L 221.164062 141.273438 C 217.816406 141.253906 214.46875 141.570312 211.203125 142.265625 C 210.5625 142.402344 209.945312 142.542969 209.328125 142.703125 C 209.25 135.417969 209.148438 128.132812 208.96875 120.824219 C 208.929688 118.980469 208.871094 117.152344 208.769531 115.289062 C 208.652344 113.480469 208.511719 111.65625 208.589844 109.847656 Z M 222.359375 140.636719 L 222.777344 139.328125 C 223.058594 138.453125 223.335938 137.558594 223.597656 136.6875 C 224.132812 134.917969 224.632812 133.152344 225.089844 131.347656 C 225.550781 129.558594 225.949219 127.753906 226.285156 125.925781 C 226.625 124.101562 226.882812 122.273438 227.042969 120.410156 C 227.183594 118.5625 227.261719 116.714844 227.382812 114.890625 C 227.480469 113.0625 227.621094 111.238281 227.921875 109.449219 C 228.082031 108.558594 228.28125 107.683594 228.558594 106.851562 C 228.855469 106.015625 229.234375 105.222656 229.773438 104.585938 C 230.035156 104.25 230.351562 103.992188 230.691406 103.753906 C 231.050781 103.535156 231.40625 103.335938 231.804688 103.238281 C 232.605469 103 233.480469 102.960938 234.335938 103.058594 L 234.65625 103.097656 L 234.976562 103.160156 C 235.195312 103.199219 235.414062 103.21875 235.613281 103.277344 C 236.03125 103.378906 236.410156 103.515625 236.789062 103.714844 C 237.527344 104.089844 238.125 104.6875 238.582031 105.402344 C 239.039062 106.117188 239.339844 106.929688 239.558594 107.785156 C 239.777344 108.636719 239.898438 109.53125 239.957031 110.425781 C 240.078125 112.210938 239.976562 114.035156 239.777344 115.84375 C 239.578125 117.648438 239.28125 119.457031 238.941406 121.242188 C 238.582031 123.03125 238.183594 124.816406 237.746094 126.601562 C 237.308594 128.390625 236.828125 130.15625 236.390625 131.960938 C 235.953125 133.769531 235.613281 135.59375 235.394531 137.421875 C 235.175781 139.269531 234.996094 141.113281 234.996094 142.980469 L 234.996094 143.535156 C 233.898438 143.179688 232.785156 142.859375 231.648438 142.601562 C 228.539062 141.847656 225.351562 141.453125 222.140625 141.351562 L 222.140625 141.332031 Z M 258.171875 119.160156 C 258.132812 118.941406 258.09375 118.742188 258.03125 118.542969 C 257.972656 118.34375 257.910156 118.144531 257.851562 117.949219 C 257.734375 117.550781 257.574219 117.171875 257.414062 116.796875 C 257.074219 116.042969 256.636719 115.289062 256.039062 114.652344 C 255.71875 114.335938 255.382812 114.058594 254.984375 113.859375 C 254.585938 113.640625 254.144531 113.519531 253.6875 113.460938 C 252.789062 113.34375 251.894531 113.5625 251.117188 113.878906 C 250.339844 114.195312 249.601562 114.632812 248.945312 115.109375 C 248.265625 115.585938 247.648438 116.121094 247.050781 116.675781 C 246.910156 116.816406 246.753906 116.953125 246.613281 117.113281 C 246.472656 117.273438 246.3125 117.429688 246.195312 117.589844 C 245.914062 117.90625 245.695312 118.246094 245.457031 118.582031 C 245 119.257812 244.601562 119.972656 244.203125 120.667969 C 243.425781 122.078125 242.726562 123.527344 242.03125 124.976562 C 239.558594 130.316406 237.40625 135.773438 235.53125 141.332031 C 235.691406 140.042969 235.929688 138.769531 236.191406 137.5 C 236.570312 135.714844 237.007812 133.925781 237.464844 132.160156 C 238.382812 128.605469 239.359375 125.035156 240.078125 121.402344 C 240.433594 119.574219 240.734375 117.75 240.953125 115.902344 C 241.152344 114.058594 241.253906 112.171875 241.113281 110.285156 C 241.035156 109.351562 240.914062 108.398438 240.675781 107.464844 C 240.433594 106.53125 240.078125 105.601562 239.539062 104.765625 C 239 103.933594 238.242188 103.199219 237.328125 102.722656 C 236.867188 102.484375 236.390625 102.304688 235.910156 102.207031 C 235.671875 102.144531 235.433594 102.125 235.195312 102.066406 L 234.796875 102.027344 L 234.4375 101.988281 C 233.480469 101.886719 232.464844 101.929688 231.488281 102.246094 C 230.988281 102.382812 230.53125 102.644531 230.113281 102.898438 C 229.695312 103.199219 229.316406 103.535156 228.996094 103.933594 C 228.359375 104.707031 227.941406 105.621094 227.621094 106.511719 C 227.324219 107.425781 227.125 108.339844 226.964844 109.273438 C 226.664062 111.117188 226.546875 112.984375 226.464844 114.832031 C 226.367188 116.675781 226.308594 118.503906 226.1875 120.328125 C 226.046875 122.15625 225.808594 123.960938 225.488281 125.769531 C 225.171875 127.574219 224.792969 129.363281 224.375 131.148438 C 223.957031 132.933594 223.496094 134.722656 223 136.488281 C 222.757812 137.382812 222.5 138.253906 222.222656 139.128906 L 221.804688 140.4375 L 221.703125 140.777344 L 221.683594 140.457031 L 221.605469 139.089844 L 221.445312 136.328125 C 221.324219 134.503906 221.226562 132.65625 221.085938 130.8125 C 220.945312 128.984375 220.847656 127.136719 220.804688 125.3125 C 220.765625 123.484375 220.847656 121.660156 220.984375 119.832031 C 221.105469 118.007812 221.285156 116.160156 221.34375 114.3125 C 221.40625 112.449219 221.363281 110.582031 221.144531 108.738281 C 221.027344 107.804688 220.847656 106.871094 220.585938 105.957031 C 220.308594 105.042969 219.949219 104.132812 219.371094 103.316406 C 218.792969 102.503906 217.957031 101.789062 216.960938 101.472656 C 216.441406 101.3125 215.925781 101.234375 215.425781 101.234375 L 214.707031 101.253906 L 213.992188 101.3125 C 213.035156 101.429688 212.058594 101.710938 211.179688 102.1875 C 210.742188 102.445312 210.324219 102.722656 209.964844 103.078125 C 209.765625 103.238281 209.625 103.4375 209.449219 103.636719 C 209.308594 103.832031 209.148438 104.03125 209.007812 104.25 C 208.472656 105.105469 208.171875 106.035156 207.953125 106.96875 C 207.753906 107.902344 207.652344 108.855469 207.632812 109.789062 C 207.554688 111.675781 207.734375 113.519531 207.875 115.347656 C 207.992188 117.171875 208.074219 119.019531 208.152344 120.847656 C 208.453125 128.152344 208.671875 135.457031 208.890625 142.78125 C 208.851562 142.800781 208.808594 142.820312 208.769531 142.839844 C 208.511719 142.898438 208.253906 142.980469 207.992188 143.058594 C 206.480469 139.109375 205.125 135.078125 203.867188 131.050781 C 203.230469 128.964844 202.613281 126.878906 202.113281 124.777344 C 201.996094 124.238281 201.875 123.722656 201.777344 123.1875 L 201.496094 121.582031 C 201.316406 120.488281 201.058594 119.398438 200.71875 118.34375 C 200.0625 116.21875 199.203125 114.175781 198.027344 112.25 C 197.453125 111.296875 196.773438 110.382812 195.976562 109.570312 C 195.179688 108.757812 194.242188 108.023438 193.148438 107.585938 C 192.050781 107.128906 190.753906 107.070312 189.597656 107.40625 C 188.445312 107.746094 187.46875 108.417969 186.609375 109.171875 L 185.992188 109.769531 C 185.792969 109.988281 185.59375 110.207031 185.414062 110.445312 C 185.074219 110.921875 184.777344 111.457031 184.578125 111.992188 C 184.378906 112.546875 184.238281 113.105469 184.140625 113.679688 C 184.078125 114.253906 184.039062 114.832031 184.039062 115.386719 C 184.058594 117.648438 184.539062 119.851562 185.136719 121.976562 C 185.734375 124.101562 186.492188 126.167969 187.289062 128.210938 C 188.863281 132.300781 190.65625 136.289062 192.191406 140.359375 C 192.570312 141.371094 192.929688 142.402344 193.265625 143.417969 C 193.605469 144.449219 193.902344 145.480469 194.125 146.511719 C 194.363281 147.546875 194.523438 148.597656 194.523438 149.628906 C 194.523438 150.144531 194.480469 150.660156 194.382812 151.136719 C 194.363281 151.257812 194.324219 151.394531 194.300781 151.515625 L 194.203125 151.914062 L 194.023438 152.726562 C 193.546875 154.871094 193.167969 157.054688 192.929688 159.238281 C 192.808594 160.328125 192.707031 161.441406 192.667969 162.53125 C 192.628906 163.605469 192.609375 164.65625 192.6875 165.75 C 192.546875 166.066406 192.429688 166.382812 192.371094 166.742188 C 192.347656 166.9375 192.308594 167.136719 192.308594 167.316406 C 192.308594 167.496094 192.308594 167.714844 192.328125 167.871094 L 192.390625 168.824219 L 192.429688 169.777344 L 192.449219 170.75 C 192.449219 172.039062 192.429688 173.351562 192.488281 174.660156 C 192.546875 175.972656 192.648438 177.320312 192.945312 178.632812 C 193.226562 179.941406 193.703125 181.253906 194.421875 182.421875 L 194.699219 182.859375 C 194.800781 183 194.878906 183.15625 195 183.277344 C 195.21875 183.535156 195.4375 183.8125 195.65625 184.070312 C 196.117188 184.566406 196.613281 185.023438 197.132812 185.460938 C 197.828125 186.054688 198.585938 186.570312 199.363281 187.027344 C 199.382812 188.160156 199.421875 189.273438 199.421875 190.402344 L 199.484375 193.976562 L 199.484375 194.253906 L 199.703125 194.414062 C 202.453125 196.359375 205.480469 197.847656 208.691406 198.878906 C 210.285156 199.394531 211.917969 199.792969 213.574219 200.050781 C 213.992188 200.109375 214.410156 200.148438 214.828125 200.210938 L 215.445312 200.289062 L 216.0625 200.328125 C 216.480469 200.347656 216.898438 200.386719 217.320312 200.410156 L 218.574219 200.425781 C 221.921875 200.46875 225.269531 199.910156 228.480469 198.917969 C 230.074219 198.421875 231.648438 197.789062 233.160156 197.054688 C 234.675781 196.320312 236.128906 195.484375 237.527344 194.53125 L 237.804688 194.3125 L 237.804688 193.976562 L 237.625 186.691406 C 238.382812 186.136719 239.082031 185.519531 239.738281 184.84375 C 240.59375 183.953125 241.351562 182.980469 242.03125 181.945312 C 242.207031 181.6875 242.347656 181.429688 242.507812 181.152344 C 242.667969 180.894531 242.828125 180.617188 242.964844 180.359375 L 243.363281 179.523438 L 243.5625 179.109375 L 243.742188 178.691406 L 244.101562 177.835938 L 244.402344 176.964844 C 244.621094 176.390625 244.757812 175.792969 244.9375 175.21875 C 245.257812 174.046875 245.515625 172.855469 245.695312 171.644531 C 245.894531 170.453125 246.015625 169.242188 246.113281 168.03125 C 246.195312 166.820312 246.253906 165.609375 246.273438 164.417969 C 246.335938 161.996094 246.292969 159.59375 246.234375 157.191406 C 246.175781 154.808594 246.09375 152.410156 245.957031 150.027344 C 246.113281 148.5 246.535156 146.988281 247.070312 145.519531 C 247.609375 144.03125 248.285156 142.601562 249.003906 141.171875 C 250.4375 138.335938 252.074219 135.574219 253.628906 132.777344 C 254.40625 131.367188 255.183594 129.957031 255.898438 128.527344 C 256.617188 127.078125 257.253906 125.589844 257.753906 124.023438 C 257.890625 123.644531 257.972656 123.226562 258.070312 122.832031 C 258.152344 122.414062 258.25 122.015625 258.269531 121.601562 C 258.351562 120.863281 258.351562 119.992188 258.171875 119.160156 " fill-opacity="1" fill-rule="nonzero"/></g></svg>