<svg xmlns="http://www.w3.org/2000/svg" xmlns:xlink="http://www.w3.org/1999/xlink" width="400" zoomAndPan="magnify" viewBox="0 0 300 299.999988" height="400" preserveAspectRatio="xMidYMid meet" version="1.0"><defs><clipPath id="bcb881e466"><path d="M 87.605469 87.414062 L 212.585938 87.414062 L 212.585938 212.394531 L 87.605469 212.394531 Z M 87.605469 87.414062 " clip-rule="nonzero"/></clipPath><clipPath id="f903c4f353"><path d="M 98.105469 87.414062 L 202.085938 87.414062 C 207.886719 87.414062 212.585938 92.113281 212.585938 97.914062 L 212.585938 201.894531 C 212.585938 207.695312 207.886719 212.394531 202.085938 212.394531 L 98.105469 212.394531 C 92.304688 212.394531 87.605469 207.695312 87.605469 201.894531 L 87.605469 97.914062 C 87.605469 92.113281 92.304688 87.414062 98.105469 87.414062 Z M 98.105469 87.414062 " clip-rule="nonzero"/></clipPath><clipPath id="bbab3f474b"><path d="M 0.605469 0.414062 L 125.585938 0.414062 L 125.585938 125.394531 L 0.605469 125.394531 Z M 0.605469 0.414062 " clip-rule="nonzero"/></clipPath><clipPath id="79b0deca14"><path d="M 11.105469 0.414062 L 115.085938 0.414062 C 120.886719 0.414062 125.585938 5.113281 125.585938 10.914062 L 125.585938 114.894531 C 125.585938 120.695312 120.886719 125.394531 115.085938 125.394531 L 11.105469 125.394531 C 5.304688 125.394531 0.605469 120.695312 0.605469 114.894531 L 0.605469 10.914062 C 0.605469 5.113281 5.304688 0.414062 11.105469 0.414062 Z M 11.105469 0.414062 " clip-rule="nonzero"/></clipPath><clipPath id="b8478ae3b6"><rect x="0" width="126" y="0" height="126"/></clipPath><clipPath id="4b64554b74"><path d="M 87.605469 87.414062 L 212.855469 87.414062 L 212.855469 212.664062 L 87.605469 212.664062 Z M 87.605469 87.414062 " clip-rule="nonzero"/></clipPath><clipPath id="2ba783c4e3"><path d="M 98.105469 87.414062 L 202.085938 87.414062 C 207.882812 87.414062 212.585938 92.113281 212.585938 97.914062 L 212.585938 201.894531 C 212.585938 207.691406 207.882812 212.394531 202.085938 212.394531 L 98.105469 212.394531 C 92.304688 212.394531 87.605469 207.691406 87.605469 201.894531 L 87.605469 97.914062 C 87.605469 92.113281 92.304688 87.414062 98.105469 87.414062 Z M 98.105469 87.414062 " clip-rule="nonzero"/></clipPath><clipPath id="31f1f87d32"><path d="M 102.878906 98.089844 L 194.800781 98.089844 L 194.800781 198.390625 L 102.878906 198.390625 Z M 102.878906 98.089844 " clip-rule="nonzero"/></clipPath></defs><g clip-path="url(#bcb881e466)"><g clip-path="url(#f903c4f353)"><g transform="matrix(1, 0, 0, 1, 87, 87)"><g clip-path="url(#b8478ae3b6)"><g clip-path="url(#bbab3f474b)"><g clip-path="url(#79b0deca14)"><path fill="#eb7332" d="M 0.605469 0.414062 L 125.585938 0.414062 L 125.585938 125.394531 L 0.605469 125.394531 Z M 0.605469 0.414062 " fill-opacity="1" fill-rule="nonzero"/></g></g></g></g></g></g><g clip-path="url(#4b64554b74)"><g clip-path="url(#2ba783c4e3)"><path stroke-linecap="butt" transform="matrix(0.75, 0, 0, 0.75, 87.604204, 87.413789)" fill="none" stroke-linejoin="miter" d="M 14.001688 0.000364852 L 152.642324 0.000364852 C 160.371492 0.000364852 166.642325 6.26599 166.642325 14.000366 L 166.642325 152.641002 C 166.642325 160.37017 160.371492 166.641003 152.642324 166.641003 L 14.001688 166.641003 C 6.267312 166.641003 0.00168681 160.37017 0.00168681 152.641002 L 0.00168681 14.000366 C 0.00168681 6.26599 6.267312 0.000364852 14.001688 0.000364852 Z M 14.001688 0.000364852 " stroke="#000000" stroke-width="6" stroke-opacity="1" stroke-miterlimit="4"/></g></g><path fill="#f4dec7" d="M 143.773438 141.460938 C 144.257812 136.871094 141.621094 119.382812 140.316406 112.425781 C 139.027344 105.46875 139.992188 100.113281 143.511719 99.113281 C 147.03125 98.109375 146.890625 97.488281 151.253906 102.039062 C 155.621094 106.589844 156.785156 140.921875 156.785156 140.921875 M 156.785156 140.921875 C 160.425781 131.855469 161.449219 124.175781 162.457031 113.390625 C 163.460938 102.601562 167.988281 102.863281 167.988281 102.863281 C 180.191406 103 174.945312 118.824219 174.382812 121.53125 C 173.820312 124.238281 170.417969 143.367188 170.417969 143.367188 C 170.417969 143.367188 172.511719 138.996094 179.207031 123.535156 C 185.902344 108.074219 191.152344 111.421875 191.152344 111.421875 C 201.207031 116.335938 186.328125 135.367188 183.308594 141.703125 C 180.292969 148.039062 181.015625 159.347656 179.992188 169.152344 C 178.964844 178.957031 171.546875 185.292969 171.546875 185.292969 L 171.546875 191.671875 C 156.5625 205.488281 135.386719 192.65625 135.386719 192.65625 L 135.386719 187.742188 C 131.265625 188.082031 118.113281 174.929688 118.113281 174.929688 C 118.113281 174.929688 111.074219 168.570312 105.164062 163.898438 C 99.25 159.226562 106.730469 156.800781 106.730469 156.800781 C 118.035156 153.773438 127.667969 165.082031 127.667969 165.082031 C 127.667969 165.082031 130.28125 152.628906 130.460938 146.714844 C 130.644531 140.800781 124.066406 128.167969 121.152344 119.464844 C 118.234375 110.761719 121.152344 110.179688 121.152344 110.179688 C 127.464844 105.46875 131.609375 110.460938 135.910156 124.015625 C 140.214844 137.570312 143.773438 141.460938 143.773438 141.460938 " fill-opacity="1" fill-rule="nonzero"/><path fill="#e0bfae" d="M 159.984375 187.5625 C 160.203125 187.84375 162.355469 190.367188 165.816406 190.1875 C 168.449219 190.046875 170.800781 188.382812 171.90625 185.917969 C 170.5 186.558594 168.429688 187.320312 165.816406 187.640625 C 163.441406 187.941406 161.429688 187.800781 159.984375 187.5625 Z M 143.351562 189.785156 C 139.472656 189.726562 136.515625 188.503906 134.964844 187.742188 C 135.246094 188.144531 138.003906 191.933594 143.011719 192.09375 C 148.039062 192.253906 151.011719 188.625 151.316406 188.242188 C 149.789062 188.882812 146.972656 189.847656 143.351562 189.785156 Z M 138.0625 161.695312 C 136.050781 161.414062 134.261719 161.875 131.769531 160.832031 C 130.582031 160.332031 129.71875 159.6875 129.175781 159.226562 C 128.671875 161.171875 128.167969 163.136719 127.644531 165.082031 C 129.617188 164.339844 133.117188 163.316406 137.5 163.636719 C 140.476562 163.859375 142.890625 164.660156 144.539062 165.34375 C 141.945312 162.714844 139.671875 161.914062 138.0625 161.695312 Z M 164.144531 166.425781 C 167.160156 165.382812 169.796875 165.382812 171.34375 165.484375 C 168.628906 163.519531 165.109375 163.15625 162.214844 164.582031 C 158.734375 166.285156 157.789062 169.773438 157.648438 170.316406 C 158.796875 169.234375 160.96875 167.507812 164.144531 166.425781 Z M 170.339844 143.769531 C 171.125 138.976562 171.925781 134.203125 172.710938 129.410156 C 172.128906 131.617188 171.585938 133.601562 171.082031 135.304688 C 169.816406 139.65625 169.351562 140.71875 168.289062 141.460938 C 166.800781 142.503906 164.910156 142.382812 163.601562 142.125 Z M 156.726562 141.261719 C 156.542969 137.3125 156.34375 133.359375 156.160156 129.410156 C 157.085938 133.039062 156.0625 136.769531 153.488281 139.054688 C 151.132812 141.140625 148.320312 141.261719 147.433594 141.261719 Z M 138.828125 142.726562 C 138.726562 142.746094 140.132812 142.445312 140.816406 141.402344 C 141.664062 140.117188 141.019531 138.273438 140.316406 136.289062 C 139.832031 134.925781 139.269531 133.84375 138.828125 133.078125 L 143.753906 141.441406 C 142.125 141.882812 140.476562 142.304688 138.828125 142.726562 " fill-opacity="1" fill-rule="nonzero"/><g clip-path="url(#31f1f87d32)"><path fill="#100f0d" d="M 170.921875 165.042969 C 171.585938 165.140625 172.25 165.261719 172.894531 165.421875 C 172.230469 165.5625 171.585938 165.605469 170.921875 165.703125 L 169.957031 165.84375 C 169.796875 165.863281 169.636719 165.886719 169.472656 165.90625 C 169.3125 165.925781 169.152344 165.964844 168.992188 165.984375 C 168.671875 166.042969 168.367188 166.105469 168.046875 166.144531 C 167.726562 166.207031 167.421875 166.285156 167.101562 166.34375 C 166.476562 166.464844 165.875 166.644531 165.25 166.789062 C 164.023438 167.128906 162.839844 167.546875 161.671875 168.050781 C 160.503906 168.550781 159.359375 169.132812 158.234375 169.855469 C 158.957031 168.730469 160.042969 167.847656 161.167969 167.128906 C 162.316406 166.40625 163.582031 165.886719 164.890625 165.503906 C 165.554688 165.34375 166.195312 165.183594 166.878906 165.101562 C 167.222656 165.0625 167.542969 165.003906 167.886719 164.984375 C 168.226562 164.960938 168.550781 164.941406 168.890625 164.941406 C 169.234375 164.921875 169.554688 164.941406 169.898438 164.960938 Z M 193.625 119.285156 C 193.242188 121.347656 192.5 123.355469 191.617188 125.300781 C 191.171875 126.261719 190.667969 127.203125 190.128906 128.128906 C 189.605469 129.050781 189.019531 129.933594 188.417969 130.855469 C 187.25 132.679688 186.125 134.542969 185.121094 136.46875 C 184.09375 138.394531 183.1875 140.378906 182.445312 142.445312 C 181.703125 144.507812 181.179688 146.65625 180.875 148.839844 C 180.734375 149.921875 180.636719 151.046875 180.613281 152.128906 L 180.554688 155.378906 C 180.515625 157.523438 180.433594 159.667969 180.292969 161.8125 C 179.992188 166.085938 179.410156 170.355469 178.140625 174.425781 C 177.496094 176.453125 176.675781 178.417969 175.566406 180.203125 C 174.480469 182.007812 173.074219 183.589844 171.40625 184.835938 C 170.558594 185.457031 169.636719 185.957031 168.671875 186.359375 C 167.703125 186.757812 166.679688 187.039062 165.632812 187.242188 C 164.585938 187.421875 163.523438 187.519531 162.457031 187.542969 C 161.390625 187.542969 160.304688 187.480469 159.21875 187.378906 C 160.285156 187.621094 161.351562 187.800781 162.4375 187.902344 C 163.523438 187.980469 164.628906 187.980469 165.734375 187.84375 C 167.484375 187.640625 169.234375 187.121094 170.800781 186.277344 C 170.84375 187.179688 170.882812 188.0625 170.902344 188.964844 L 171.003906 192.355469 C 169.796875 193.175781 168.507812 193.917969 167.183594 194.558594 C 165.773438 195.242188 164.304688 195.820312 162.796875 196.304688 C 159.78125 197.246094 156.625 197.726562 153.464844 197.707031 C 151.878906 197.707031 150.308594 197.566406 148.742188 197.347656 C 147.171875 197.105469 145.644531 196.722656 144.136719 196.265625 C 141.242188 195.339844 138.464844 194.015625 135.972656 192.332031 C 136.011719 191.128906 136.050781 189.925781 136.09375 188.703125 C 137.742188 189.304688 139.472656 189.746094 141.21875 190.007812 C 143.109375 190.269531 145.0625 190.328125 146.953125 190.007812 C 148.84375 189.667969 150.671875 188.925781 152.140625 187.742188 C 150.332031 188.324219 148.582031 188.722656 146.789062 188.902344 C 145 189.105469 143.191406 189.066406 141.402344 188.785156 C 137.820312 188.203125 134.402344 186.777344 131.226562 185.015625 C 128.027344 183.230469 125.070312 181.023438 122.355469 178.558594 C 121.011719 177.316406 119.722656 176.011719 118.597656 174.609375 C 117.410156 173.105469 116.023438 171.800781 114.574219 170.597656 C 113.128906 169.394531 111.597656 168.292969 110.089844 167.226562 C 108.582031 166.144531 107.074219 165.082031 105.785156 163.839844 C 105.144531 163.21875 104.601562 162.535156 104.257812 161.773438 C 104.078125 161.394531 103.996094 161.011719 103.976562 160.609375 C 103.957031 160.210938 104.015625 159.828125 104.15625 159.46875 C 104.300781 159.105469 104.519531 158.785156 104.800781 158.503906 C 105.082031 158.226562 105.425781 157.984375 105.808594 157.785156 C 106.550781 157.382812 107.417969 157.140625 108.28125 156.980469 C 110.03125 156.679688 111.878906 156.699219 113.667969 156.941406 C 114.574219 157.0625 115.460938 157.242188 116.304688 157.523438 C 116.726562 157.664062 117.148438 157.804688 117.550781 157.984375 L 118.15625 158.265625 C 118.355469 158.367188 118.558594 158.464844 118.757812 158.585938 C 120.347656 159.449219 121.8125 160.550781 123.222656 161.714844 C 124.628906 162.898438 125.976562 164.160156 127.222656 165.484375 L 127.445312 165.722656 L 127.746094 165.644531 L 129.214844 165.261719 C 129.695312 165.140625 130.199219 165.042969 130.683594 164.921875 C 131.164062 164.820312 131.667969 164.742188 132.152344 164.640625 L 133.640625 164.421875 C 135.609375 164.160156 137.621094 164.101562 139.59375 164.28125 C 141.5625 164.480469 143.511719 164.941406 145.28125 165.804688 C 146.167969 166.246094 147.011719 166.746094 147.796875 167.347656 C 148.582031 167.949219 149.324219 168.613281 149.988281 169.394531 C 149.605469 168.429688 148.941406 167.609375 148.199219 166.867188 C 147.453125 166.144531 146.589844 165.542969 145.664062 165.042969 C 143.816406 164.058594 141.761719 163.480469 139.710938 163.21875 C 137.640625 162.957031 135.550781 163.035156 133.5 163.277344 C 132.996094 163.359375 132.472656 163.417969 131.96875 163.519531 C 131.46875 163.617188 130.964844 163.71875 130.460938 163.820312 C 129.957031 163.9375 129.457031 164.058594 128.953125 164.179688 L 128.269531 164.382812 C 128.8125 162.578125 129.296875 160.773438 129.695312 158.925781 C 130.160156 156.800781 130.523438 154.65625 130.742188 152.488281 C 130.964844 150.324219 131.046875 148.140625 130.863281 145.933594 C 130.785156 144.832031 130.621094 143.746094 130.359375 142.664062 C 130.121094 141.582031 129.71875 140.519531 129.296875 139.535156 C 127.667969 135.527344 125.898438 131.597656 124.347656 127.566406 C 123.5625 125.558594 122.839844 123.535156 122.214844 121.488281 C 121.59375 119.445312 121.070312 117.359375 120.847656 115.273438 C 120.789062 114.230469 120.769531 113.1875 120.949219 112.207031 C 121.132812 111.222656 121.53125 110.320312 122.277344 109.800781 C 122.660156 109.539062 123.0625 109.359375 123.585938 109.257812 C 124.066406 109.117188 124.570312 109.058594 125.070312 109.039062 C 126.078125 108.996094 127.0625 109.21875 127.949219 109.679688 C 128.832031 110.140625 129.597656 110.84375 130.261719 111.625 C 130.925781 112.425781 131.46875 113.308594 131.96875 114.25 C 132.976562 116.117188 133.699219 118.140625 134.363281 120.167969 C 135.027344 122.210938 135.570312 124.296875 136.152344 126.382812 C 136.453125 127.425781 136.734375 128.46875 137.097656 129.511719 C 137.441406 130.554688 137.902344 131.554688 138.324219 132.539062 C 139.210938 134.523438 140.214844 136.449219 141.320312 138.3125 C 141.441406 138.535156 141.601562 138.792969 141.785156 139.015625 L 142.285156 139.65625 C 142.609375 140.078125 142.949219 140.5 143.210938 140.941406 C 143.269531 141.039062 143.332031 141.160156 143.390625 141.28125 C 143.414062 141.339844 143.453125 141.402344 143.453125 141.441406 L 143.472656 141.480469 C 141.824219 141.824219 140.195312 142.265625 138.605469 142.824219 C 141.621094 142.382812 144.621094 142.042969 147.636719 141.902344 C 149.144531 141.84375 150.652344 141.78125 152.140625 141.800781 C 153.648438 141.800781 155.136719 141.863281 156.644531 141.984375 C 158.152344 142.0625 159.640625 142.222656 161.128906 142.425781 C 162.617188 142.605469 164.105469 142.867188 165.59375 143.125 C 168.550781 143.6875 171.484375 144.449219 174.402344 145.292969 C 171.6875 143.90625 168.792969 142.867188 165.816406 142.082031 C 163.019531 141.363281 160.164062 140.878906 157.289062 140.640625 L 157.328125 140.519531 C 158.171875 138.515625 158.917969 136.46875 159.601562 134.421875 C 160.285156 132.359375 160.867188 130.253906 161.269531 128.105469 C 162.09375 123.835938 162.414062 119.503906 162.777344 115.214844 C 162.960938 113.066406 163.160156 110.941406 163.703125 108.898438 C 163.964844 107.875 164.324219 106.890625 164.808594 106.007812 C 165.3125 105.128906 165.957031 104.34375 166.78125 103.902344 C 167.605469 103.441406 168.589844 103.363281 169.554688 103.503906 C 170.558594 103.664062 171.527344 104.003906 172.328125 104.546875 C 173.132812 105.085938 173.777344 105.847656 174.199219 106.75 C 174.640625 107.632812 174.863281 108.65625 174.984375 109.679688 C 175.226562 111.746094 175.023438 113.871094 174.742188 115.976562 C 174.441406 118.082031 174.019531 120.1875 173.558594 122.292969 C 173.074219 124.398438 172.613281 126.523438 172.210938 128.648438 C 171.785156 130.773438 171.40625 132.898438 171.125 135.046875 C 170.84375 137.191406 170.621094 139.335938 170.378906 141.5 L 170.179688 143.105469 L 170.15625 143.304688 L 170.136719 143.40625 C 170.863281 143.867188 170.5 143.328125 170.601562 143.46875 L 170.78125 143.105469 L 171.125 142.382812 C 171.585938 141.402344 172.066406 140.4375 172.550781 139.476562 C 173.515625 137.550781 174.5 135.625 175.386719 133.640625 C 176.273438 131.675781 177.15625 129.691406 177.980469 127.6875 C 178.804688 125.679688 179.609375 123.675781 180.332031 121.628906 L 180.875 120.105469 L 181.160156 119.363281 L 181.480469 118.640625 C 181.921875 117.679688 182.425781 116.738281 182.988281 115.855469 C 183.570312 114.972656 184.234375 114.152344 185 113.449219 C 185.761719 112.746094 186.628906 112.164062 187.574219 111.824219 C 188.519531 111.484375 189.542969 111.445312 190.46875 111.746094 C 190.929688 111.886719 191.375 112.125 191.796875 112.40625 C 192.199219 112.6875 192.539062 113.027344 192.820312 113.429688 C 193.382812 114.230469 193.644531 115.214844 193.746094 116.234375 C 193.90625 117.21875 193.808594 118.261719 193.625 119.285156 Z M 143.492188 141.441406 Z M 143.03125 126.082031 C 142.546875 121.769531 141.523438 117.539062 140.859375 113.308594 C 140.699219 112.246094 140.535156 111.183594 140.4375 110.121094 C 140.335938 109.078125 140.316406 108.015625 140.375 106.953125 C 140.4375 105.890625 140.578125 104.847656 140.839844 103.84375 C 141.101562 102.839844 141.480469 101.859375 142.066406 101.035156 C 142.628906 100.214844 143.433594 99.59375 144.359375 99.292969 C 144.820312 99.152344 145.324219 99.089844 145.824219 99.070312 C 146.328125 99.070312 146.832031 99.132812 147.335938 99.253906 C 148.296875 99.433594 149.144531 99.992188 149.808594 100.757812 C 150.472656 101.519531 150.992188 102.441406 151.414062 103.382812 C 152.242188 105.308594 152.742188 107.414062 153.207031 109.5 C 153.648438 111.605469 154.050781 113.710938 154.390625 115.835938 C 155.074219 120.085938 155.558594 124.355469 155.898438 128.667969 C 156.0625 130.8125 156.203125 132.960938 156.28125 135.125 C 156.34375 136.207031 156.363281 137.269531 156.402344 138.355469 L 156.441406 139.976562 L 156.464844 140.558594 C 155.035156 140.480469 153.609375 140.4375 152.179688 140.480469 C 150.652344 140.519531 149.101562 140.621094 147.59375 140.800781 C 146.410156 140.941406 145.242188 141.121094 144.074219 141.363281 L 144.035156 140.660156 L 143.957031 139.035156 C 143.714844 134.703125 143.492188 130.371094 143.03125 126.082031 Z M 170.277344 143.226562 C 170.339844 143.347656 170.179688 143.207031 170.277344 143.226562 Z M 194.773438 116.117188 C 194.671875 114.992188 194.371094 113.828125 193.667969 112.847656 C 193.324219 112.367188 192.882812 111.945312 192.398438 111.605469 C 191.917969 111.285156 191.394531 111.003906 190.832031 110.820312 C 189.707031 110.460938 188.457031 110.519531 187.351562 110.921875 C 186.246094 111.324219 185.300781 111.984375 184.476562 112.746094 C 183.652344 113.507812 182.949219 114.390625 182.34375 115.3125 C 181.742188 116.234375 181.21875 117.21875 180.777344 118.222656 L 180.453125 118.984375 L 180.152344 119.746094 L 179.609375 121.269531 C 178.886719 123.292969 178.082031 125.28125 177.238281 127.265625 C 176.390625 129.25 175.527344 131.234375 174.664062 133.199219 C 173.796875 135.164062 172.972656 137.171875 172.109375 139.15625 C 171.707031 140.097656 171.285156 141.039062 170.84375 141.964844 C 170.863281 141.800781 170.902344 141.640625 170.921875 141.480469 C 171.285156 139.355469 171.746094 137.25 172.167969 135.125 C 172.613281 133.019531 172.992188 130.894531 173.417969 128.789062 C 173.839844 126.683594 174.28125 124.578125 174.78125 122.472656 C 175.265625 120.367188 175.707031 118.222656 176.011719 116.054688 C 176.171875 114.972656 176.273438 113.890625 176.332031 112.789062 C 176.371094 111.683594 176.371094 110.5625 176.230469 109.457031 C 176.089844 108.335938 175.828125 107.210938 175.304688 106.171875 C 174.804688 105.105469 174 104.164062 173.015625 103.503906 C 172.007812 102.863281 170.882812 102.480469 169.753906 102.300781 C 168.609375 102.121094 167.324219 102.238281 166.238281 102.863281 C 165.171875 103.464844 164.40625 104.425781 163.84375 105.429688 C 163.300781 106.429688 162.9375 107.511719 162.675781 108.578125 C 162.132812 110.722656 161.953125 112.925781 161.792969 115.074219 C 161.46875 119.382812 161.167969 123.675781 160.40625 127.886719 C 160.023438 129.992188 159.5 132.078125 158.855469 134.121094 C 158.535156 135.144531 158.191406 136.167969 157.832031 137.191406 C 157.589844 137.890625 157.308594 138.574219 157.046875 139.257812 L 157.027344 138.292969 C 156.984375 137.210938 156.984375 136.128906 156.925781 135.046875 C 156.867188 132.878906 156.726562 130.734375 156.582031 128.566406 C 156.28125 124.257812 155.820312 119.945312 155.15625 115.675781 C 154.835938 113.527344 154.433594 111.402344 154.011719 109.277344 C 153.566406 107.152344 153.066406 105.027344 152.199219 102.980469 C 151.757812 101.960938 151.214844 100.976562 150.449219 100.09375 C 150.070312 99.671875 149.625 99.273438 149.125 98.953125 C 148.621094 98.628906 148.058594 98.410156 147.476562 98.289062 C 146.910156 98.167969 146.347656 98.089844 145.765625 98.089844 C 145.183594 98.089844 144.597656 98.167969 144.015625 98.351562 C 142.867188 98.710938 141.90625 99.511719 141.261719 100.457031 C 140.597656 101.417969 140.195312 102.480469 139.914062 103.5625 C 139.632812 104.644531 139.492188 105.75 139.449219 106.851562 C 139.390625 107.953125 139.429688 109.058594 139.550781 110.140625 C 139.671875 111.222656 139.832031 112.304688 140.035156 113.367188 C 140.777344 117.640625 141.863281 121.832031 142.386719 126.082031 C 142.929688 130.351562 143.128906 134.664062 143.351562 138.976562 L 143.414062 140.277344 C 143.171875 139.917969 142.929688 139.578125 142.667969 139.234375 L 142.1875 138.59375 C 142.023438 138.375 141.90625 138.171875 141.761719 137.933594 C 140.699219 136.066406 139.710938 134.164062 138.847656 132.199219 C 138.40625 131.214844 138.003906 130.234375 137.679688 129.210938 C 137.359375 128.1875 137.078125 127.144531 136.816406 126.101562 C 136.273438 124.015625 135.75 121.910156 135.125 119.824219 C 134.503906 117.738281 133.78125 115.675781 132.773438 113.710938 C 132.269531 112.726562 131.707031 111.765625 130.984375 110.902344 C 130.28125 110.039062 129.414062 109.238281 128.390625 108.675781 C 127.363281 108.113281 126.179688 107.835938 125.011719 107.894531 C 124.429688 107.914062 123.847656 107.996094 123.304688 108.136719 C 122.757812 108.234375 122.136719 108.476562 121.632812 108.835938 C 121.132812 109.199219 120.707031 109.699219 120.425781 110.242188 C 120.144531 110.78125 119.964844 111.363281 119.863281 111.925781 C 119.664062 113.066406 119.683594 114.191406 119.804688 115.292969 C 120.042969 117.5 120.589844 119.625 121.210938 121.710938 C 121.855469 123.796875 122.578125 125.839844 123.363281 127.867188 C 124.148438 129.890625 124.972656 131.898438 125.816406 133.882812 C 126.660156 135.867188 127.527344 137.851562 128.351562 139.835938 C 128.773438 140.839844 129.136719 141.800781 129.375 142.824219 C 129.636719 143.847656 129.777344 144.890625 129.859375 145.953125 C 130.039062 148.058594 129.957031 150.203125 129.777344 152.328125 C 129.578125 154.457031 129.253906 156.582031 128.8125 158.6875 C 128.429688 160.511719 127.988281 162.355469 127.464844 164.140625 C 126.339844 162.976562 125.152344 161.875 123.90625 160.832031 C 122.457031 159.628906 120.949219 158.484375 119.261719 157.582031 C 119.039062 157.464844 118.839844 157.34375 118.617188 157.242188 L 117.953125 156.941406 C 117.511719 156.742188 117.046875 156.582031 116.585938 156.441406 C 115.660156 156.160156 114.734375 155.960938 113.789062 155.839844 C 111.898438 155.578125 109.96875 155.558594 108.058594 155.878906 C 107.113281 156.058594 106.148438 156.320312 105.265625 156.800781 C 104.820312 157.042969 104.378906 157.324219 104.015625 157.703125 C 103.636719 158.085938 103.332031 158.527344 103.132812 159.046875 C 102.730469 160.070312 102.832031 161.210938 103.253906 162.15625 C 103.675781 163.097656 104.320312 163.878906 105.003906 164.5625 C 106.390625 165.90625 107.917969 166.988281 109.40625 168.089844 C 110.914062 169.171875 112.402344 170.277344 113.789062 171.4375 C 115.199219 172.621094 116.484375 173.90625 117.589844 175.328125 C 118.757812 176.832031 120.085938 178.175781 121.453125 179.480469 C 124.207031 182.046875 127.242188 184.292969 130.523438 186.15625 C 131.828125 186.898438 133.175781 187.5625 134.542969 188.121094 C 134.605469 189.625 134.664062 191.128906 134.703125 192.632812 L 134.703125 192.976562 L 134.964844 193.136719 C 137.742188 194.839844 140.71875 196.164062 143.835938 197.046875 C 146.933594 197.949219 150.167969 198.390625 153.386719 198.390625 C 154.996094 198.371094 156.605469 198.289062 158.214844 198.046875 C 159.800781 197.808594 161.390625 197.46875 162.9375 197.023438 C 166.035156 196.121094 169.011719 194.800781 171.765625 193.09375 L 172.007812 192.957031 L 172.007812 192.65625 L 172.109375 188.984375 C 172.148438 187.761719 172.1875 186.558594 172.25 185.335938 C 173.9375 184.113281 175.328125 182.507812 176.433594 180.761719 C 177.597656 178.878906 178.464844 176.832031 179.148438 174.746094 C 180.472656 170.554688 181.078125 166.226562 181.398438 161.894531 C 181.5625 159.730469 181.640625 157.5625 181.679688 155.398438 L 181.742188 152.167969 C 181.761719 151.085938 181.84375 150.0625 181.964844 149 C 182.246094 146.894531 182.746094 144.832031 183.449219 142.824219 C 184.15625 140.820312 185.039062 138.875 186.023438 136.96875 C 187.011719 135.066406 188.117188 133.21875 189.261719 131.394531 C 189.824219 130.492188 190.429688 129.570312 190.972656 128.609375 C 191.515625 127.664062 192.019531 126.683594 192.480469 125.679688 C 193.382812 123.695312 194.148438 121.609375 194.53125 119.425781 C 194.773438 118.363281 194.851562 117.238281 194.773438 116.117188 " fill-opacity="1" fill-rule="nonzero"/></g></svg>