<svg xmlns="http://www.w3.org/2000/svg" xmlns:xlink="http://www.w3.org/1999/xlink" width="400" zoomAndPan="magnify" viewBox="0 0 300 299.999988" height="400" preserveAspectRatio="xMidYMid meet" version="1.0"><defs><clipPath id="bebf3518d9"><path d="M 21.378906 87.605469 L 146.359375 87.605469 L 146.359375 212.585938 L 21.378906 212.585938 Z M 21.378906 87.605469 " clip-rule="nonzero"/></clipPath><clipPath id="56113da22b"><path d="M 31.878906 87.605469 L 135.859375 87.605469 C 141.660156 87.605469 146.359375 92.304688 146.359375 98.105469 L 146.359375 202.085938 C 146.359375 207.886719 141.660156 212.585938 135.859375 212.585938 L 31.878906 212.585938 C 26.082031 212.585938 21.378906 207.886719 21.378906 202.085938 L 21.378906 98.105469 C 21.378906 92.304688 26.082031 87.605469 31.878906 87.605469 Z M 31.878906 87.605469 " clip-rule="nonzero"/></clipPath><clipPath id="46bf873e48"><path d="M 0.378906 0.605469 L 125.359375 0.605469 L 125.359375 125.585938 L 0.378906 125.585938 Z M 0.378906 0.605469 " clip-rule="nonzero"/></clipPath><clipPath id="528107fdb4"><path d="M 10.878906 0.605469 L 114.859375 0.605469 C 120.660156 0.605469 125.359375 5.304688 125.359375 11.105469 L 125.359375 115.085938 C 125.359375 120.886719 120.660156 125.585938 114.859375 125.585938 L 10.878906 125.585938 C 5.082031 125.585938 0.378906 120.886719 0.378906 115.085938 L 0.378906 11.105469 C 0.378906 5.304688 5.082031 0.605469 10.878906 0.605469 Z M 10.878906 0.605469 " clip-rule="nonzero"/></clipPath><clipPath id="dfe91c2440"><rect x="0" width="126" y="0" height="126"/></clipPath><clipPath id="b84fe6f2ef"><path d="M 21.378906 87.605469 L 146.628906 87.605469 L 146.628906 212.855469 L 21.378906 212.855469 Z M 21.378906 87.605469 " clip-rule="nonzero"/></clipPath><clipPath id="d9f21472c1"><path d="M 31.878906 87.605469 L 135.859375 87.605469 C 141.660156 87.605469 146.359375 92.304688 146.359375 98.105469 L 146.359375 202.085938 C 146.359375 207.882812 141.660156 212.585938 135.859375 212.585938 L 31.878906 212.585938 C 26.082031 212.585938 21.378906 207.882812 21.378906 202.085938 L 21.378906 98.105469 C 21.378906 92.304688 26.082031 87.605469 31.878906 87.605469 Z M 31.878906 87.605469 " clip-rule="nonzero"/></clipPath><clipPath id="8158516dfe"><path d="M 33.011719 97.679688 L 135 97.679688 L 135 205.679688 L 33.011719 205.679688 Z M 33.011719 97.679688 " clip-rule="nonzero"/></clipPath><clipPath id="6ef63fcccb"><path d="M 6.152344 1.28125 L 98.078125 1.28125 L 98.078125 101.578125 L 6.152344 101.578125 Z M 6.152344 1.28125 " clip-rule="nonzero"/></clipPath><clipPath id="b91d17815d"><rect x="0" width="102" y="0" height="109"/></clipPath><clipPath id="084e1c07be"><path d="M 11.253906 10.605469 L 136.425781 10.605469 L 136.425781 135.777344 L 11.253906 135.777344 Z M 11.253906 10.605469 " clip-rule="nonzero"/></clipPath><clipPath id="3bd318c88b"><path d="M 21.753906 10.605469 L 125.925781 10.605469 C 128.710938 10.605469 131.378906 11.710938 133.351562 13.679688 C 135.320312 15.648438 136.425781 18.320312 136.425781 21.105469 L 136.425781 125.277344 C 136.425781 128.0625 135.320312 130.730469 133.351562 132.703125 C 131.378906 134.671875 128.710938 135.777344 125.925781 135.777344 L 21.753906 135.777344 C 18.96875 135.777344 16.296875 134.671875 14.328125 132.703125 C 12.359375 130.730469 11.253906 128.0625 11.253906 125.277344 L 11.253906 21.105469 C 11.253906 18.320312 12.359375 15.648438 14.328125 13.679688 C 16.296875 11.710938 18.96875 10.605469 21.753906 10.605469 Z M 21.753906 10.605469 " clip-rule="nonzero"/></clipPath><clipPath id="30a40cb9de"><path d="M 0.253906 0.605469 L 125.425781 0.605469 L 125.425781 125.777344 L 0.253906 125.777344 Z M 0.253906 0.605469 " clip-rule="nonzero"/></clipPath><clipPath id="00369bba93"><path d="M 10.753906 0.605469 L 114.925781 0.605469 C 117.710938 0.605469 120.378906 1.710938 122.351562 3.679688 C 124.320312 5.648438 125.425781 8.320312 125.425781 11.105469 L 125.425781 115.277344 C 125.425781 118.0625 124.320312 120.730469 122.351562 122.703125 C 120.378906 124.671875 117.710938 125.777344 114.925781 125.777344 L 10.753906 125.777344 C 7.96875 125.777344 5.296875 124.671875 3.328125 122.703125 C 1.359375 120.730469 0.253906 118.0625 0.253906 115.277344 L 0.253906 11.105469 C 0.253906 8.320312 1.359375 5.648438 3.328125 3.679688 C 5.296875 1.710938 7.96875 0.605469 10.753906 0.605469 Z M 10.753906 0.605469 " clip-rule="nonzero"/></clipPath><clipPath id="610d3eaaf1"><rect x="0" width="126" y="0" height="126"/></clipPath><clipPath id="f4c570f10f"><path d="M 11.253906 10.605469 L 136.546875 10.605469 L 136.546875 135.898438 L 11.253906 135.898438 Z M 11.253906 10.605469 " clip-rule="nonzero"/></clipPath><clipPath id="5f4baa4e96"><path d="M 21.75 10.605469 L 125.910156 10.605469 C 128.695312 10.605469 131.367188 11.710938 133.335938 13.679688 C 135.304688 15.648438 136.410156 18.320312 136.410156 21.101562 L 136.410156 125.261719 C 136.410156 128.046875 135.304688 130.71875 133.335938 132.6875 C 131.367188 134.65625 128.695312 135.761719 125.910156 135.761719 L 21.75 135.761719 C 18.96875 135.761719 16.296875 134.65625 14.328125 132.6875 C 12.359375 130.71875 11.253906 128.046875 11.253906 125.261719 L 11.253906 21.101562 C 11.253906 18.320312 12.359375 15.648438 14.328125 13.679688 C 16.296875 11.710938 18.96875 10.605469 21.75 10.605469 Z M 21.75 10.605469 " clip-rule="nonzero"/></clipPath><clipPath id="c3d23026b9"><path d="M 43 19 L 107 19 L 107 127.230469 L 43 127.230469 Z M 43 19 " clip-rule="nonzero"/></clipPath><clipPath id="816d010c1e"><rect x="0" width="147" y="0" height="146"/></clipPath></defs><g clip-path="url(#bebf3518d9)"><g clip-path="url(#56113da22b)"><g transform="matrix(1, 0, 0, 1, 21, 87)"><g clip-path="url(#dfe91c2440)"><g clip-path="url(#46bf873e48)"><g clip-path="url(#528107fdb4)"><path fill="#eb7332" d="M 0.378906 0.605469 L 125.359375 0.605469 L 125.359375 125.585938 L 0.378906 125.585938 Z M 0.378906 0.605469 " fill-opacity="1" fill-rule="nonzero"/></g></g></g></g></g></g><g clip-path="url(#b84fe6f2ef)"><g clip-path="url(#d9f21472c1)"><path stroke-linecap="butt" transform="matrix(0.75, 0, 0, 0.75, 21.379315, 87.604212)" fill="none" stroke-linejoin="miter" d="M 13.999457 0.00167561 L 152.640093 0.00167561 C 160.374469 0.00167561 166.640094 6.267301 166.640094 14.001677 L 166.640094 152.642313 C 166.640094 160.37148 160.374469 166.642314 152.640093 166.642314 L 13.999457 166.642314 C 6.270289 166.642314 -0.000544539 160.37148 -0.000544539 152.642313 L -0.000544539 14.001677 C -0.000544539 6.267301 6.270289 0.00167561 13.999457 0.00167561 Z M 13.999457 0.00167561 " stroke="#000000" stroke-width="6" stroke-opacity="1" stroke-miterlimit="4"/></g></g><g clip-path="url(#8158516dfe)"><g transform="matrix(1, 0, 0, 1, 33, 97)"><g clip-path="url(#b91d17815d)"><path fill="#f4dec7" d="M 57.179688 44.652344 C 56.699219 40.058594 59.332031 22.574219 60.640625 15.617188 C 61.925781 8.660156 60.960938 3.304688 57.441406 2.300781 C 53.921875 1.300781 54.0625 0.679688 49.699219 5.230469 C 45.335938 9.78125 44.171875 44.109375 44.171875 44.109375 M 44.171875 44.109375 C 40.53125 35.046875 39.503906 27.367188 38.5 16.578125 C 37.492188 5.792969 32.96875 6.050781 32.96875 6.050781 C 20.761719 6.191406 26.011719 22.011719 26.574219 24.71875 C 27.136719 27.425781 30.535156 46.558594 30.535156 46.558594 C 30.535156 46.558594 28.445312 42.183594 21.75 26.726562 C 15.050781 11.265625 9.800781 14.613281 9.800781 14.613281 C -0.253906 19.527344 14.628906 38.554688 17.644531 44.890625 C 20.660156 51.230469 19.9375 62.539062 20.964844 72.34375 C 21.988281 82.148438 29.410156 88.484375 29.410156 88.484375 L 29.410156 94.863281 C 44.390625 108.679688 65.566406 95.84375 65.566406 95.84375 L 65.566406 90.933594 C 69.691406 91.273438 82.839844 78.117188 82.839844 78.117188 C 82.839844 78.117188 89.878906 71.761719 95.792969 67.089844 C 101.703125 62.417969 94.222656 59.992188 94.222656 59.992188 C 82.921875 56.964844 73.289062 68.273438 73.289062 68.273438 C 73.289062 68.273438 70.675781 55.820312 70.492188 49.90625 C 70.3125 43.988281 76.890625 31.355469 79.804688 22.65625 C 82.722656 13.953125 79.804688 13.371094 79.804688 13.371094 C 73.488281 8.660156 69.347656 13.652344 65.042969 27.207031 C 60.742188 40.761719 57.179688 44.652344 57.179688 44.652344 " fill-opacity="1" fill-rule="nonzero"/><path fill="#e0bfae" d="M 40.972656 90.75 C 40.75 91.03125 38.597656 93.558594 35.140625 93.378906 C 32.507812 93.238281 30.152344 91.574219 29.046875 89.105469 C 30.457031 89.75 32.527344 90.511719 35.140625 90.832031 C 37.515625 91.132812 39.523438 90.992188 40.972656 90.75 Z M 57.601562 92.976562 C 61.484375 92.917969 64.441406 91.695312 65.988281 90.933594 C 65.707031 91.332031 62.953125 95.121094 57.945312 95.285156 C 52.917969 95.445312 49.941406 91.8125 49.640625 91.433594 C 51.167969 92.074219 53.984375 93.039062 57.601562 92.976562 Z M 62.890625 64.882812 C 64.902344 64.605469 66.691406 65.066406 69.1875 64.023438 C 70.371094 63.519531 71.238281 62.878906 71.78125 62.417969 C 72.285156 64.363281 72.785156 66.328125 73.308594 68.273438 C 71.339844 67.53125 67.839844 66.507812 63.457031 66.828125 C 60.480469 67.050781 58.066406 67.851562 56.417969 68.535156 C 59.011719 65.90625 61.285156 65.105469 62.890625 64.882812 Z M 36.808594 69.617188 C 33.792969 68.574219 31.160156 68.574219 29.609375 68.675781 C 32.324219 66.710938 35.84375 66.347656 38.742188 67.773438 C 42.21875 69.476562 43.164062 72.964844 43.304688 73.507812 C 42.160156 72.425781 39.988281 70.699219 36.808594 69.617188 Z M 30.617188 46.957031 C 29.832031 42.164062 29.027344 37.394531 28.242188 32.601562 C 28.828125 34.804688 29.371094 36.792969 29.871094 38.496094 C 31.140625 42.847656 31.601562 43.910156 32.667969 44.652344 C 34.15625 45.695312 36.046875 45.574219 37.351562 45.3125 Z M 44.230469 44.453125 C 44.410156 40.5 44.613281 36.550781 44.792969 32.601562 C 43.867188 36.230469 44.894531 39.960938 47.46875 42.246094 C 49.820312 44.332031 52.636719 44.453125 53.519531 44.453125 Z M 62.128906 45.914062 C 62.226562 45.933594 60.820312 45.632812 60.136719 44.589844 C 59.292969 43.308594 59.9375 41.464844 60.640625 39.476562 C 61.121094 38.113281 61.6875 37.03125 62.128906 36.269531 L 57.199219 44.632812 C 58.832031 45.074219 60.480469 45.492188 62.128906 45.914062 " fill-opacity="1" fill-rule="nonzero"/><g clip-path="url(#6ef63fcccb)"><path fill="#100f0d" d="M 30.035156 68.234375 C 29.371094 68.332031 28.707031 68.453125 28.0625 68.613281 C 28.726562 68.753906 29.371094 68.792969 30.035156 68.894531 L 31 69.035156 C 31.160156 69.054688 31.320312 69.074219 31.480469 69.09375 C 31.640625 69.117188 31.804688 69.15625 31.964844 69.175781 C 32.285156 69.234375 32.585938 69.296875 32.910156 69.335938 C 33.230469 69.394531 33.53125 69.476562 33.855469 69.535156 C 34.476562 69.65625 35.082031 69.835938 35.703125 69.976562 C 36.929688 70.320312 38.117188 70.738281 39.285156 71.242188 C 40.449219 71.742188 41.597656 72.324219 42.722656 73.046875 C 42 71.921875 40.914062 71.039062 39.785156 70.320312 C 38.640625 69.597656 37.375 69.074219 36.066406 68.695312 C 35.402344 68.535156 34.757812 68.375 34.074219 68.292969 C 33.734375 68.253906 33.410156 68.191406 33.070312 68.171875 C 32.726562 68.152344 32.40625 68.132812 32.0625 68.132812 C 31.722656 68.113281 31.402344 68.132812 31.058594 68.152344 Z M 7.328125 22.472656 C 7.710938 24.539062 8.457031 26.546875 9.339844 28.488281 C 9.78125 29.453125 10.285156 30.394531 10.828125 31.316406 C 11.351562 32.238281 11.933594 33.121094 12.539062 34.042969 C 13.703125 35.867188 14.828125 37.734375 15.835938 39.660156 C 16.863281 41.582031 17.765625 43.570312 18.511719 45.632812 C 19.253906 47.699219 19.777344 49.84375 20.078125 52.03125 C 20.21875 53.113281 20.320312 54.238281 20.339844 55.320312 L 20.398438 58.566406 C 20.441406 60.714844 20.519531 62.859375 20.660156 65.003906 C 20.964844 69.277344 21.546875 73.546875 22.8125 77.617188 C 23.457031 79.644531 24.28125 81.609375 25.386719 83.390625 C 26.472656 85.195312 27.882812 86.78125 29.550781 88.023438 C 30.394531 88.644531 31.320312 89.148438 32.285156 89.546875 C 33.25 89.949219 34.277344 90.230469 35.324219 90.429688 C 36.367188 90.609375 37.433594 90.710938 38.5 90.730469 C 39.566406 90.730469 40.652344 90.671875 41.738281 90.570312 C 40.671875 90.8125 39.605469 90.992188 38.519531 91.09375 C 37.433594 91.171875 36.328125 91.171875 35.222656 91.03125 C 33.472656 90.832031 31.722656 90.308594 30.152344 89.46875 C 30.113281 90.371094 30.074219 91.253906 30.054688 92.15625 L 29.953125 95.542969 C 31.160156 96.367188 32.445312 97.109375 33.773438 97.75 C 35.179688 98.429688 36.648438 99.011719 38.15625 99.496094 C 41.171875 100.4375 44.332031 100.917969 47.488281 100.898438 C 49.078125 100.898438 50.644531 100.757812 52.214844 100.535156 C 53.78125 100.296875 55.3125 99.914062 56.820312 99.453125 C 59.714844 98.53125 62.488281 97.207031 64.984375 95.523438 C 64.941406 94.320312 64.902344 93.117188 64.863281 91.894531 C 63.214844 92.496094 61.484375 92.9375 59.734375 93.199219 C 57.84375 93.457031 55.894531 93.519531 54.003906 93.199219 C 52.113281 92.855469 50.285156 92.113281 48.816406 90.933594 C 50.625 91.511719 52.375 91.914062 54.164062 92.09375 C 55.953125 92.296875 57.765625 92.253906 59.554688 91.976562 C 63.132812 91.394531 66.550781 89.96875 69.730469 88.203125 C 72.925781 86.421875 75.882812 84.214844 78.597656 81.75 C 79.945312 80.503906 81.230469 79.203125 82.359375 77.796875 C 83.542969 76.292969 84.933594 74.992188 86.378906 73.789062 C 87.828125 72.585938 89.355469 71.480469 90.867188 70.417969 C 92.375 69.335938 93.882812 68.273438 95.167969 67.03125 C 95.8125 66.410156 96.355469 65.726562 96.695312 64.964844 C 96.878906 64.582031 96.957031 64.203125 96.976562 63.800781 C 97 63.402344 96.9375 63.019531 96.796875 62.660156 C 96.65625 62.296875 96.433594 61.976562 96.152344 61.695312 C 95.871094 61.414062 95.53125 61.175781 95.148438 60.972656 C 94.402344 60.574219 93.539062 60.332031 92.675781 60.171875 C 90.925781 59.871094 89.074219 59.890625 87.285156 60.132812 C 86.378906 60.253906 85.496094 60.433594 84.652344 60.714844 C 84.230469 60.855469 83.804688 60.996094 83.402344 61.175781 L 82.800781 61.457031 C 82.601562 61.554688 82.398438 61.65625 82.199219 61.777344 C 80.609375 62.636719 79.140625 63.742188 77.734375 64.90625 C 76.324219 66.085938 74.980469 67.351562 73.730469 68.675781 L 73.511719 68.914062 L 73.207031 68.835938 L 71.742188 68.453125 C 71.257812 68.332031 70.753906 68.234375 70.273438 68.113281 C 69.789062 68.011719 69.289062 67.933594 68.804688 67.832031 L 67.316406 67.613281 C 65.34375 67.351562 63.335938 67.289062 61.363281 67.472656 C 59.394531 67.671875 57.441406 68.132812 55.671875 68.996094 C 54.789062 69.4375 53.945312 69.9375 53.160156 70.539062 C 52.375 71.140625 51.628906 71.800781 50.96875 72.585938 C 51.347656 71.621094 52.011719 70.800781 52.757812 70.058594 C 53.5 69.335938 54.367188 68.734375 55.289062 68.234375 C 57.140625 67.25 59.191406 66.667969 61.242188 66.410156 C 63.316406 66.148438 65.40625 66.226562 67.457031 66.46875 C 67.960938 66.546875 68.484375 66.609375 68.984375 66.710938 C 69.488281 66.808594 69.992188 66.910156 70.492188 67.011719 C 70.996094 67.128906 71.5 67.25 72.003906 67.371094 L 72.6875 67.570312 C 72.144531 65.765625 71.660156 63.960938 71.257812 62.117188 C 70.796875 59.992188 70.433594 57.847656 70.210938 55.679688 C 69.992188 53.515625 69.910156 51.328125 70.089844 49.125 C 70.171875 48.019531 70.332031 46.9375 70.59375 45.855469 C 70.835938 44.773438 71.238281 43.710938 71.660156 42.726562 C 73.289062 38.714844 75.058594 34.785156 76.605469 30.757812 C 77.390625 28.75 78.113281 26.726562 78.738281 24.679688 C 79.363281 22.636719 79.886719 20.550781 80.105469 18.464844 C 80.167969 17.421875 80.1875 16.378906 80.007812 15.394531 C 79.824219 14.414062 79.421875 13.511719 78.679688 12.988281 C 78.296875 12.730469 77.894531 12.546875 77.371094 12.449219 C 76.890625 12.308594 76.386719 12.246094 75.882812 12.226562 C 74.878906 12.1875 73.890625 12.410156 73.007812 12.871094 C 72.121094 13.332031 71.359375 14.03125 70.695312 14.816406 C 70.03125 15.617188 69.488281 16.5 68.984375 17.441406 C 67.980469 19.304688 67.257812 21.332031 66.59375 23.355469 C 65.929688 25.402344 65.386719 27.488281 64.800781 29.574219 C 64.5 30.617188 64.21875 31.65625 63.859375 32.699219 C 63.515625 33.742188 63.054688 34.746094 62.628906 35.730469 C 61.746094 37.714844 60.742188 39.640625 59.632812 41.503906 C 59.515625 41.722656 59.351562 41.984375 59.171875 42.207031 L 58.667969 42.847656 C 58.347656 43.269531 58.003906 43.6875 57.742188 44.128906 C 57.683594 44.230469 57.625 44.351562 57.5625 44.472656 C 57.542969 44.53125 57.503906 44.589844 57.503906 44.632812 L 57.484375 44.671875 C 59.132812 45.011719 60.761719 45.453125 62.347656 46.015625 C 59.332031 45.574219 56.335938 45.234375 53.320312 45.09375 C 51.8125 45.03125 50.304688 44.972656 48.816406 44.992188 C 47.308594 44.992188 45.820312 45.054688 44.3125 45.171875 C 42.804688 45.253906 41.3125 45.414062 39.828125 45.613281 C 38.339844 45.792969 36.851562 46.054688 35.363281 46.316406 C 32.40625 46.878906 29.46875 47.640625 26.554688 48.480469 C 29.269531 47.097656 32.164062 46.054688 35.140625 45.273438 C 37.9375 44.550781 40.792969 44.070312 43.667969 43.828125 L 43.628906 43.710938 C 42.78125 41.703125 42.039062 39.660156 41.355469 37.613281 C 40.671875 35.546875 40.089844 33.441406 39.6875 31.296875 C 38.859375 27.027344 38.539062 22.695312 38.175781 18.402344 C 37.996094 16.257812 37.796875 14.132812 37.253906 12.085938 C 36.992188 11.066406 36.628906 10.082031 36.144531 9.199219 C 35.644531 8.316406 35 7.535156 34.175781 7.09375 C 33.351562 6.632812 32.367188 6.554688 31.402344 6.695312 C 30.394531 6.855469 29.429688 7.195312 28.625 7.734375 C 27.820312 8.277344 27.179688 9.039062 26.753906 9.941406 C 26.3125 10.824219 26.089844 11.847656 25.972656 12.871094 C 25.730469 14.933594 25.929688 17.058594 26.210938 19.164062 C 26.515625 21.269531 26.9375 23.375 27.398438 25.480469 C 27.882812 27.585938 28.34375 29.714844 28.746094 31.839844 C 29.167969 33.964844 29.550781 36.089844 29.832031 38.234375 C 30.113281 40.378906 30.335938 42.527344 30.574219 44.691406 L 30.777344 46.296875 L 30.796875 46.496094 L 30.816406 46.597656 C 30.09375 47.058594 30.457031 46.515625 30.355469 46.65625 L 30.175781 46.296875 L 29.832031 45.574219 C 29.371094 44.589844 28.886719 43.628906 28.402344 42.667969 C 27.4375 40.742188 26.453125 38.816406 25.570312 36.832031 C 24.683594 34.867188 23.800781 32.882812 22.972656 30.875 C 22.152344 28.871094 21.347656 26.867188 20.621094 24.820312 L 20.078125 23.296875 L 19.796875 22.554688 L 19.476562 21.832031 C 19.035156 20.871094 18.53125 19.929688 17.96875 19.046875 C 17.382812 18.164062 16.722656 17.339844 15.957031 16.640625 C 15.191406 15.9375 14.328125 15.355469 13.382812 15.015625 C 12.4375 14.675781 11.410156 14.632812 10.488281 14.933594 C 10.023438 15.074219 9.582031 15.316406 9.160156 15.597656 C 8.757812 15.878906 8.414062 16.21875 8.132812 16.621094 C 7.570312 17.421875 7.308594 18.402344 7.207031 19.425781 C 7.046875 20.410156 7.148438 21.453125 7.328125 22.472656 Z M 57.460938 44.632812 Z M 57.925781 29.273438 C 58.40625 24.960938 59.433594 20.730469 60.097656 16.5 C 60.257812 15.4375 60.417969 14.375 60.519531 13.3125 C 60.621094 12.269531 60.640625 11.207031 60.578125 10.140625 C 60.519531 9.078125 60.378906 8.035156 60.117188 7.035156 C 59.855469 6.03125 59.472656 5.050781 58.890625 4.226562 C 58.328125 3.40625 57.523438 2.785156 56.597656 2.484375 C 56.136719 2.34375 55.632812 2.28125 55.128906 2.261719 C 54.625 2.261719 54.125 2.320312 53.621094 2.441406 C 52.65625 2.621094 51.8125 3.183594 51.148438 3.945312 C 50.484375 4.707031 49.960938 5.628906 49.539062 6.574219 C 48.714844 8.5 48.210938 10.605469 47.75 12.6875 C 47.308594 14.792969 46.90625 16.898438 46.5625 19.027344 C 45.878906 23.277344 45.398438 27.546875 45.054688 31.859375 C 44.894531 34.003906 44.753906 36.148438 44.671875 38.316406 C 44.613281 39.398438 44.59375 40.460938 44.550781 41.542969 L 44.511719 43.167969 L 44.492188 43.75 C 45.921875 43.667969 47.347656 43.628906 48.777344 43.667969 C 50.304688 43.710938 51.851562 43.808594 53.359375 43.988281 C 54.546875 44.128906 55.714844 44.3125 56.878906 44.550781 L 56.917969 43.851562 L 57 42.226562 C 57.242188 37.894531 57.460938 33.5625 57.925781 29.273438 Z M 30.675781 46.417969 C 30.617188 46.535156 30.777344 46.394531 30.675781 46.417969 Z M 6.183594 19.304688 C 6.285156 18.183594 6.585938 17.019531 7.289062 16.039062 C 7.628906 15.554688 8.074219 15.136719 8.554688 14.792969 C 9.039062 14.472656 9.5625 14.191406 10.125 14.011719 C 11.25 13.652344 12.496094 13.710938 13.605469 14.113281 C 14.710938 14.515625 15.65625 15.175781 16.480469 15.9375 C 17.304688 16.699219 18.007812 17.582031 18.609375 18.503906 C 19.214844 19.425781 19.738281 20.410156 20.179688 21.410156 L 20.5 22.171875 L 20.800781 22.9375 L 21.347656 24.460938 C 22.070312 26.484375 22.875 28.46875 23.71875 30.457031 C 24.5625 32.441406 25.425781 34.425781 26.292969 36.390625 C 27.15625 38.355469 27.980469 40.359375 28.847656 42.347656 C 29.25 43.289062 29.671875 44.230469 30.113281 45.152344 C 30.09375 44.992188 30.054688 44.832031 30.035156 44.671875 C 29.671875 42.546875 29.207031 40.441406 28.785156 38.316406 C 28.34375 36.210938 27.960938 34.085938 27.539062 31.980469 C 27.117188 29.875 26.675781 27.769531 26.171875 25.664062 C 25.6875 23.558594 25.246094 21.410156 24.945312 19.246094 C 24.785156 18.164062 24.683594 17.082031 24.625 15.976562 C 24.582031 14.875 24.582031 13.75 24.722656 12.648438 C 24.863281 11.527344 25.125 10.402344 25.648438 9.359375 C 26.152344 8.296875 26.957031 7.355469 27.941406 6.695312 C 28.945312 6.050781 30.074219 5.671875 31.199219 5.492188 C 32.347656 5.308594 33.632812 5.429688 34.71875 6.050781 C 35.785156 6.652344 36.546875 7.617188 37.113281 8.617188 C 37.65625 9.621094 38.015625 10.703125 38.277344 11.765625 C 38.820312 13.914062 39 16.117188 39.164062 18.261719 C 39.484375 22.574219 39.785156 26.867188 40.550781 31.078125 C 40.933594 33.183594 41.457031 35.265625 42.097656 37.3125 C 42.421875 38.335938 42.761719 39.359375 43.125 40.378906 C 43.367188 41.082031 43.648438 41.765625 43.910156 42.445312 L 43.929688 41.484375 C 43.96875 40.402344 43.96875 39.316406 44.027344 38.234375 C 44.089844 36.070312 44.230469 33.925781 44.371094 31.757812 C 44.671875 27.449219 45.136719 23.136719 45.800781 18.863281 C 46.121094 16.71875 46.523438 14.59375 46.945312 12.46875 C 47.386719 10.34375 47.890625 8.21875 48.753906 6.171875 C 49.199219 5.148438 49.742188 4.167969 50.503906 3.285156 C 50.886719 2.863281 51.328125 2.460938 51.832031 2.140625 C 52.335938 1.820312 52.898438 1.601562 53.480469 1.480469 C 54.042969 1.359375 54.605469 1.28125 55.191406 1.28125 C 55.773438 1.28125 56.355469 1.359375 56.941406 1.539062 C 58.085938 1.902344 59.050781 2.703125 59.695312 3.644531 C 60.359375 4.609375 60.761719 5.671875 61.042969 6.753906 C 61.324219 7.835938 61.464844 8.9375 61.503906 10.042969 C 61.566406 11.144531 61.523438 12.246094 61.40625 13.332031 C 61.285156 14.414062 61.121094 15.496094 60.921875 16.558594 C 60.175781 20.832031 59.09375 25.019531 58.570312 29.273438 C 58.027344 33.542969 57.824219 37.855469 57.601562 42.164062 L 57.542969 43.46875 C 57.785156 43.109375 58.027344 42.765625 58.289062 42.425781 L 58.769531 41.785156 C 58.929688 41.5625 59.050781 41.363281 59.191406 41.121094 C 60.257812 39.257812 61.242188 37.351562 62.109375 35.386719 C 62.550781 34.40625 62.953125 33.421875 63.273438 32.398438 C 63.597656 31.378906 63.878906 30.335938 64.140625 29.292969 C 64.683594 27.207031 65.203125 25.101562 65.828125 23.015625 C 66.453125 20.929688 67.175781 18.863281 68.179688 16.898438 C 68.683594 15.917969 69.246094 14.953125 69.972656 14.09375 C 70.675781 13.230469 71.539062 12.429688 72.566406 11.867188 C 73.589844 11.304688 74.777344 11.023438 75.941406 11.085938 C 76.527344 11.105469 77.109375 11.183594 77.652344 11.324219 C 78.195312 11.425781 78.820312 11.667969 79.320312 12.027344 C 79.824219 12.386719 80.246094 12.890625 80.527344 13.429688 C 80.808594 13.972656 80.992188 14.554688 81.089844 15.117188 C 81.292969 16.257812 81.273438 17.382812 81.152344 18.484375 C 80.910156 20.691406 80.367188 22.816406 79.746094 24.902344 C 79.101562 26.984375 78.375 29.03125 77.59375 31.058594 C 76.808594 33.082031 75.984375 35.085938 75.140625 37.070312 C 74.292969 39.058594 73.429688 41.042969 72.605469 43.027344 C 72.183594 44.03125 71.820312 44.992188 71.578125 46.015625 C 71.316406 47.039062 71.175781 48.082031 71.097656 49.144531 C 70.914062 51.25 70.996094 53.394531 71.175781 55.519531 C 71.378906 57.644531 71.699219 59.769531 72.144531 61.875 C 72.523438 63.703125 72.96875 65.546875 73.488281 67.332031 C 74.617188 66.167969 75.800781 65.066406 77.050781 64.023438 C 78.496094 62.820312 80.007812 61.675781 81.695312 60.773438 C 81.917969 60.652344 82.117188 60.53125 82.339844 60.433594 L 83.003906 60.132812 C 83.445312 59.929688 83.90625 59.769531 84.371094 59.628906 C 85.292969 59.351562 86.21875 59.148438 87.164062 59.027344 C 89.054688 58.769531 90.984375 58.75 92.894531 59.070312 C 93.839844 59.25 94.804688 59.511719 95.691406 59.992188 C 96.132812 60.230469 96.574219 60.511719 96.9375 60.894531 C 97.320312 61.273438 97.621094 61.714844 97.824219 62.238281 C 98.226562 63.261719 98.125 64.402344 97.703125 65.34375 C 97.28125 66.289062 96.636719 67.070312 95.953125 67.75 C 94.566406 69.09375 93.035156 70.179688 91.546875 71.28125 C 90.039062 72.363281 88.550781 73.464844 87.164062 74.628906 C 85.757812 75.8125 84.46875 77.097656 83.363281 78.519531 C 82.199219 80.023438 80.871094 81.367188 79.503906 82.671875 C 76.746094 85.238281 73.710938 87.484375 70.433594 89.347656 C 69.125 90.089844 67.777344 90.75 66.410156 91.3125 C 66.351562 92.816406 66.289062 94.320312 66.25 95.824219 L 66.25 96.164062 L 65.988281 96.324219 C 63.214844 98.03125 60.238281 99.355469 57.121094 100.234375 C 54.023438 101.136719 50.785156 101.578125 47.570312 101.578125 C 45.960938 101.558594 44.351562 101.480469 42.742188 101.238281 C 41.152344 101 39.566406 100.65625 38.015625 100.214844 C 34.921875 99.3125 31.945312 97.992188 29.1875 96.285156 L 28.945312 96.144531 L 28.945312 95.84375 L 28.847656 92.175781 C 28.804688 90.953125 28.765625 89.75 28.707031 88.527344 C 27.015625 87.300781 25.628906 85.699219 24.523438 83.953125 C 23.355469 82.070312 22.492188 80.023438 21.808594 77.9375 C 20.480469 73.746094 19.878906 69.417969 19.554688 65.085938 C 19.394531 62.917969 19.316406 60.753906 19.273438 58.589844 L 19.214844 55.359375 C 19.195312 54.277344 19.113281 53.253906 18.992188 52.191406 C 18.710938 50.085938 18.207031 48.019531 17.503906 46.015625 C 16.800781 44.011719 15.917969 42.066406 14.929688 40.160156 C 13.945312 38.253906 12.839844 36.410156 11.691406 34.585938 C 11.128906 33.683594 10.527344 32.761719 9.984375 31.796875 C 9.441406 30.855469 8.9375 29.875 8.476562 28.871094 C 7.570312 26.886719 6.804688 24.800781 6.425781 22.613281 C 6.183594 21.550781 6.101562 20.429688 6.183594 19.304688 " fill-opacity="1" fill-rule="nonzero"/></g></g></g></g><g transform="matrix(1, 0, 0, 1, 148, 77)"><g clip-path="url(#816d010c1e)"><g clip-path="url(#084e1c07be)"><g clip-path="url(#3bd318c88b)"><g transform="matrix(1, 0, 0, 1, 11, 10)"><g clip-path="url(#610d3eaaf1)"><g clip-path="url(#30a40cb9de)"><g clip-path="url(#00369bba93)"><path fill="#eb7332" d="M 0.253906 0.605469 L 125.425781 0.605469 L 125.425781 125.777344 L 0.253906 125.777344 Z M 0.253906 0.605469 " fill-opacity="1" fill-rule="nonzero"/></g></g></g></g></g></g><g clip-path="url(#f4c570f10f)"><g clip-path="url(#5f4baa4e96)"><path stroke-linecap="butt" transform="matrix(0.986582, 0, 0, 0.986582, 11.252854, 10.604212)" fill="none" stroke-linejoin="miter" d="M 10.639914 0.00127428 L 116.216722 0.00127428 C 119.039758 0.00127428 121.747973 1.121778 123.743499 3.117305 C 125.739026 5.112831 126.85953 7.821045 126.85953 10.640122 L 126.85953 116.21693 C 126.85953 119.039967 125.739026 121.748181 123.743499 123.743707 C 121.747973 125.739234 119.039758 126.859738 116.216722 126.859738 L 10.639914 126.859738 C 7.820837 126.859738 5.112623 125.739234 3.117096 123.743707 C 1.12157 121.748181 0.0010662 119.039967 0.0010662 116.21693 L 0.0010662 10.640122 C 0.0010662 7.821045 1.12157 5.112831 3.117096 3.117305 C 5.112623 1.121778 7.820837 0.00127428 10.639914 0.00127428 Z M 10.639914 0.00127428 " stroke="#000000" stroke-width="4.561203" stroke-opacity="1" stroke-miterlimit="4"/></g></g><path fill="#f5dfc8" d="M 97.394531 101.585938 C 95.425781 108.628906 87.472656 112.980469 87.472656 112.980469 L 86.691406 115.175781 L 87.472656 118.964844 C 86 125.019531 76.769531 126.785156 66.71875 126.761719 C 56.6875 126.742188 50.007812 117.867188 50.007812 117.867188 L 51.410156 114.3125 L 51.605469 111.40625 C 48.667969 110.265625 46.332031 102.921875 46.332031 102.921875 C 46.332031 102.921875 46.332031 102.921875 44.644531 97.300781 C 42.957031 91.679688 47.671875 85.046875 47.671875 85.046875 L 48.859375 65.277344 L 45.597656 39.976562 C 45.597656 39.976562 43.652344 28.046875 46.417969 25.546875 C 49.183594 23.050781 53.769531 24.816406 56.1875 26.945312 C 58.609375 29.078125 59.496094 44.046875 59.496094 44.046875 C 59.496094 44.046875 63.429688 62.199219 63.972656 63.597656 C 64.511719 65 65.398438 64.566406 65.398438 64.566406 L 66.847656 60.886719 L 69.355469 47.015625 L 70.242188 36.832031 L 72.015625 26 C 75.085938 21.691406 81.222656 15.855469 84.640625 23.003906 C 88.054688 30.15625 84.640625 42.300781 83.816406 45.941406 C 82.996094 49.582031 82.457031 62.4375 82.457031 62.4375 C 82.457031 62.4375 86.78125 57.914062 91.796875 59.917969 C 96.808594 61.921875 96.292969 68.421875 96.292969 68.421875 C 103.921875 66.074219 105.867188 72.535156 105.867188 72.535156 C 108.074219 86.082031 99.554688 92.304688 99.554688 92.304688 M 99.554688 92.304688 L 97.695312 102.253906 L 97.394531 101.585938 " fill-opacity="1" fill-rule="nonzero"/><path fill="#e0bfae" d="M 73.808594 66.378906 C 73.679688 66.355469 73.570312 66.355469 73.441406 66.335938 C 66.847656 65.773438 61.011719 66.292969 56.210938 67.132812 C 61.574219 64.632812 66.046875 64.074219 68.902344 63.964844 C 73.222656 63.792969 79.214844 64.503906 80.054688 65.839844 C 80.097656 65.839844 80.121094 65.839844 80.164062 65.839844 L 80.121094 65.96875 C 80.140625 66.011719 80.164062 66.074219 80.164062 66.121094 C 80.1875 66.355469 80.054688 66.570312 79.863281 66.765625 L 78.371094 71.351562 C 72.640625 72.96875 66.914062 74.5625 61.183594 76.175781 C 61.3125 75.765625 61.550781 75.121094 62.046875 74.453125 C 64.1875 71.589844 67.519531 72.96875 70.351562 70.363281 C 72.101562 68.746094 71.839844 67.28125 73.808594 66.378906 Z M 88.855469 92.132812 C 87.339844 90.605469 86.5625 89.011719 86.175781 88.019531 L 81.722656 88.105469 L 78.347656 86.46875 L 74.414062 86.921875 L 70.285156 94.738281 C 72.621094 95.730469 74.976562 96.71875 77.3125 97.710938 C 77.527344 98.121094 77.9375 98.765625 78.457031 98.765625 C 80.25 98.789062 80.984375 91.292969 82.976562 91.207031 C 84.121094 91.164062 84.359375 93.597656 86.542969 94.761719 C 88.378906 95.730469 90.5625 95.277344 92.3125 94.632812 C 91.429688 94.199219 90.128906 93.46875 88.855469 92.132812 Z M 82.695312 115.089844 C 77.050781 120.234375 69.507812 122.003906 63.238281 119.546875 C 58.742188 117.78125 56.234375 114.335938 55.171875 112.679688 C 57.226562 113.796875 60.449219 115.199219 64.492188 115.371094 C 67.171875 115.476562 68.578125 114.980469 71.839844 114.703125 C 74.347656 114.464844 78.046875 114.359375 82.695312 115.089844 " fill-opacity="1" fill-rule="nonzero"/><g clip-path="url(#c3d23026b9)"><path fill="#100f0d" d="M 105.761719 79.621094 C 105.480469 81.667969 104.9375 83.671875 104.117188 85.566406 C 103.273438 87.4375 102.148438 89.203125 100.722656 90.667969 C 100.011719 91.402344 99.210938 92.046875 98.367188 92.609375 C 97.503906 93.167969 96.59375 93.621094 95.644531 93.898438 C 94.691406 94.179688 93.699219 94.265625 92.746094 94.070312 C 91.796875 93.878906 90.910156 93.425781 90.152344 92.800781 C 89.394531 92.15625 88.746094 91.378906 88.207031 90.539062 C 87.925781 90.109375 87.664062 89.679688 87.449219 89.226562 C 87.277344 88.925781 87.148438 88.625 86.996094 88.300781 C 87.859375 87.890625 88.636719 87.332031 89.332031 86.707031 C 90.324219 85.800781 91.167969 84.769531 91.902344 83.671875 C 93.375 81.472656 94.433594 79.0625 95.253906 76.585938 C 96.054688 74.109375 96.636719 71.546875 96.746094 68.917969 C 97.632812 68.703125 98.582031 68.597656 99.492188 68.597656 C 100.484375 68.597656 101.5 68.726562 102.410156 69.070312 C 103.316406 69.414062 104.117188 69.996094 104.65625 70.769531 C 104.9375 71.160156 105.15625 71.589844 105.308594 72.0625 C 105.457031 72.535156 105.609375 73.03125 105.695312 73.527344 C 106.0625 75.488281 106.019531 77.574219 105.761719 79.621094 Z M 97.003906 101.113281 C 96.421875 102.535156 95.6875 103.847656 94.84375 105.160156 C 94.023438 106.453125 93.113281 107.683594 92.097656 108.824219 C 91.058594 109.941406 89.914062 110.933594 88.636719 111.773438 C 87.363281 112.613281 85.980469 113.257812 84.53125 113.734375 C 81.632812 114.679688 78.519531 114.917969 75.386719 114.703125 C 78.414062 115.605469 81.742188 115.519531 84.789062 114.574219 C 85.332031 114.402344 85.851562 114.207031 86.367188 113.992188 C 86.324219 114.078125 86.28125 114.164062 86.261719 114.269531 C 86.085938 114.832031 86 115.414062 86 115.992188 C 85.980469 116.574219 86.066406 117.15625 86.21875 117.71875 C 86.304688 117.996094 86.390625 118.277344 86.5 118.535156 C 86.5625 118.707031 86.648438 118.859375 86.734375 119.007812 C 86.691406 119.09375 86.648438 119.160156 86.605469 119.246094 C 86.5 119.417969 86.390625 119.589844 86.261719 119.761719 L 85.871094 120.257812 L 85.460938 120.730469 C 84.878906 121.335938 84.25 121.917969 83.539062 122.390625 C 82.132812 123.378906 80.554688 124.15625 78.910156 124.757812 C 75.601562 125.898438 72.035156 126.417969 68.492188 126.460938 C 64.964844 126.460938 61.398438 125.855469 58.222656 124.351562 C 57.421875 124.003906 56.664062 123.554688 55.910156 123.101562 L 54.828125 122.347656 C 54.480469 122.089844 54.136719 121.808594 53.789062 121.527344 C 53.445312 121.25 53.140625 120.945312 52.816406 120.644531 C 52.515625 120.34375 52.210938 120.019531 51.910156 119.699219 C 51.390625 119.117188 50.914062 118.492188 50.523438 117.867188 C 51.21875 116.898438 51.585938 115.800781 51.824219 114.703125 C 51.953125 114.097656 52.015625 113.496094 52.082031 112.894531 C 52.105469 112.679688 52.105469 112.460938 52.125 112.226562 C 52.339844 112.375 52.558594 112.503906 52.773438 112.636719 C 53.335938 112.957031 53.898438 113.300781 54.480469 113.558594 C 54.785156 113.691406 55.066406 113.839844 55.367188 113.96875 L 56.277344 114.3125 C 57.507812 114.722656 58.761719 115.046875 60.039062 115.21875 C 62.589844 115.5625 65.183594 115.433594 67.625 114.808594 C 65.117188 115.066406 62.589844 114.9375 60.167969 114.421875 C 57.746094 113.925781 55.433594 112.957031 53.402344 111.621094 C 51.347656 110.289062 49.640625 108.5 48.277344 106.496094 C 48.105469 106.261719 47.953125 105.980469 47.800781 105.722656 L 47.347656 104.925781 L 46.957031 104.105469 L 46.765625 103.699219 C 46.699219 103.570312 46.65625 103.417969 46.589844 103.265625 L 46.246094 102.425781 C 46.136719 102.148438 46.050781 101.847656 45.964844 101.566406 C 45.769531 100.984375 45.640625 100.382812 45.511719 99.800781 C 45.273438 98.617188 45.121094 97.386719 45.101562 96.183594 C 45.054688 95.578125 45.101562 94.976562 45.121094 94.351562 C 45.144531 94.050781 45.1875 93.75 45.207031 93.445312 C 45.230469 93.144531 45.273438 92.84375 45.335938 92.542969 C 45.726562 90.152344 46.65625 87.847656 48.082031 85.886719 C 49.488281 83.90625 51.324219 82.207031 53.378906 80.828125 C 55.410156 79.425781 57.660156 78.285156 59.953125 77.273438 C 61.097656 76.777344 62.265625 76.261719 63.410156 75.808594 C 64.578125 75.359375 65.746094 75.035156 66.976562 74.796875 C 68.210938 74.582031 69.464844 74.386719 70.71875 74.109375 C 71.972656 73.828125 73.179688 73.484375 74.390625 73.117188 C 76.8125 72.34375 79.191406 71.4375 81.527344 70.511719 C 82.695312 70.058594 83.863281 69.585938 85.050781 69.21875 C 85.632812 69.046875 86.238281 68.875 86.824219 68.789062 C 87.40625 68.703125 87.988281 68.683594 88.53125 68.832031 C 89.050781 68.984375 89.523438 69.285156 89.847656 69.738281 C 90.175781 70.167969 90.367188 70.726562 90.5 71.308594 C 90.734375 72.472656 90.691406 73.71875 90.542969 74.925781 C 90.28125 77.359375 89.289062 79.664062 87.621094 81.429688 C 85.957031 83.21875 83.730469 84.378906 81.417969 85.15625 C 80.25 85.542969 79.039062 85.824219 77.828125 86.015625 C 76.621094 86.210938 75.367188 86.339844 74.15625 86.339844 L 73.722656 86.339844 L 73.570312 86.769531 C 73.3125 87.609375 72.945312 88.472656 72.574219 89.289062 C 72.1875 90.109375 71.734375 90.90625 71.257812 91.679688 C 70.285156 93.210938 69.117188 94.632812 67.734375 95.792969 C 66.351562 96.957031 64.75 97.839844 63.019531 98.355469 C 62.15625 98.617188 61.25 98.765625 60.339844 98.875 C 59.433594 99.003906 58.523438 99.066406 57.550781 99.285156 C 58.460938 99.648438 59.433594 99.820312 60.40625 99.800781 C 61.378906 99.800781 62.351562 99.628906 63.300781 99.410156 C 65.203125 98.9375 67.019531 98.035156 68.535156 96.785156 C 69.226562 96.226562 69.851562 95.621094 70.4375 94.976562 C 71.019531 95.191406 71.558594 95.386719 72.121094 95.644531 C 72.988281 96.03125 73.808594 96.417969 74.628906 96.894531 C 75.453125 97.34375 76.25 97.820312 77.050781 98.335938 L 79.472656 99.929688 C 78.996094 99.066406 78.328125 98.3125 77.59375 97.644531 C 76.855469 96.976562 76.058594 96.398438 75.171875 95.921875 C 74.304688 95.429688 73.355469 95.0625 72.402344 94.847656 C 71.882812 94.695312 71.34375 94.632812 70.804688 94.609375 C 71.386719 93.921875 71.90625 93.1875 72.359375 92.433594 C 72.878906 91.617188 73.3125 90.753906 73.699219 89.871094 C 74.023438 89.117188 74.328125 88.34375 74.566406 87.523438 C 75.734375 87.480469 76.855469 87.351562 77.980469 87.136719 C 78.066406 87.117188 78.152344 87.09375 78.21875 87.09375 C 79.257812 87.824219 80.402344 88.429688 81.65625 88.773438 C 82.976562 89.160156 84.445312 89.117188 85.761719 88.730469 C 85.785156 88.730469 85.808594 88.710938 85.828125 88.710938 C 86 89.054688 86.195312 89.398438 86.390625 89.742188 C 86.648438 90.21875 86.929688 90.667969 87.253906 91.121094 C 87.882812 92.027344 88.617188 92.867188 89.480469 93.554688 C 90.367188 94.242188 91.40625 94.78125 92.53125 94.976562 C 93.652344 95.191406 94.820312 95.0625 95.859375 94.738281 C 96.917969 94.417969 97.890625 93.898438 98.800781 93.296875 C 98.863281 93.253906 98.929688 93.210938 98.996094 93.167969 C 98.734375 95.902344 98.085938 98.59375 97.003906 101.113281 Z M 46.828125 44.175781 C 46.460938 41.890625 46.09375 39.632812 45.769531 37.347656 C 45.46875 35.085938 45.164062 32.804688 45.207031 30.566406 C 45.25 29.464844 45.359375 28.324219 45.75 27.378906 C 45.941406 26.882812 46.222656 26.496094 46.570312 26.148438 C 46.742188 25.976562 46.957031 25.847656 47.152344 25.71875 C 47.390625 25.632812 47.585938 25.527344 47.867188 25.4375 C 48.925781 25.09375 50.007812 24.859375 51.085938 24.835938 C 51.347656 24.816406 51.628906 24.859375 51.886719 24.878906 C 52.148438 24.921875 52.40625 24.945312 52.667969 25.03125 C 53.183594 25.160156 53.660156 25.351562 54.09375 25.632812 C 54.523438 25.914062 54.9375 26.257812 55.28125 26.667969 C 55.628906 27.054688 55.929688 27.507812 56.1875 27.980469 C 56.707031 28.929688 57.074219 29.984375 57.378906 31.082031 C 57.960938 33.257812 58.222656 35.519531 58.417969 37.800781 L 58.675781 41.246094 C 58.785156 42.410156 58.914062 43.550781 59.066406 44.714844 C 59.367188 47.015625 59.734375 49.300781 60.1875 51.5625 C 60.644531 53.84375 61.140625 56.082031 61.722656 58.34375 C 62.046875 59.464844 62.351562 60.585938 62.738281 61.683594 C 63.0625 62.566406 63.386719 63.425781 63.863281 64.289062 C 63.214844 64.417969 62.566406 64.589844 61.941406 64.761719 C 59.929688 65.320312 58.003906 66.121094 56.210938 67.132812 C 58.199219 66.550781 60.167969 66.03125 62.15625 65.644531 C 63.152344 65.472656 64.144531 65.277344 65.160156 65.171875 C 66.15625 65.019531 67.171875 64.933594 68.167969 64.871094 C 69.183594 64.804688 70.175781 64.761719 71.191406 64.785156 C 72.207031 64.761719 73.222656 64.828125 74.21875 64.871094 C 76.101562 64.976562 77.980469 65.214844 79.882812 65.472656 C 79.539062 66.121094 79.257812 66.808594 78.976562 67.476562 C 78.542969 68.640625 78.195312 69.824219 77.960938 71.050781 C 76.683594 71.523438 75.410156 71.976562 74.132812 72.386719 C 72.945312 72.75 71.734375 73.097656 70.523438 73.375 C 69.3125 73.636719 68.082031 73.808594 66.804688 74.023438 C 65.550781 74.238281 64.273438 74.582031 63.085938 75.035156 C 61.875 75.488281 60.730469 75.980469 59.5625 76.476562 C 57.25 77.488281 54.9375 78.585938 52.796875 80.007812 C 51.152344 81.0625 49.617188 82.335938 48.296875 83.800781 C 49.140625 75.207031 49.292969 66.527344 48.601562 57.914062 C 48.234375 53.328125 47.5625 48.738281 46.828125 44.175781 Z M 66.867188 62.542969 C 66.976562 62.308594 67.0625 62.070312 67.171875 61.8125 C 67.257812 61.574219 67.367188 61.339844 67.453125 61.078125 C 67.605469 60.585938 67.777344 60.109375 67.90625 59.613281 C 68.46875 57.65625 68.859375 55.652344 69.160156 53.671875 C 69.789062 49.6875 70.132812 45.660156 70.457031 41.65625 C 70.628906 39.652344 70.78125 37.648438 70.976562 35.667969 C 71.171875 33.6875 71.386719 31.683594 71.734375 29.746094 C 72.078125 27.808594 72.53125 25.871094 73.460938 24.234375 C 73.9375 23.414062 74.523438 22.703125 75.277344 22.167969 C 76.015625 21.628906 76.878906 21.238281 77.808594 21.003906 C 78.261719 20.875 78.738281 20.789062 79.214844 20.722656 C 79.667969 20.660156 80.121094 20.636719 80.574219 20.679688 C 81.460938 20.765625 82.304688 21.109375 82.953125 21.691406 C 83.582031 22.296875 84.121094 23.09375 84.488281 23.953125 C 84.855469 24.816406 85.113281 25.761719 85.289062 26.710938 C 85.632812 28.625 85.65625 30.585938 85.546875 32.566406 C 85.460938 34.546875 85.222656 36.507812 84.878906 38.46875 C 84.53125 40.429688 84.054688 42.367188 83.601562 44.324219 C 83.148438 46.285156 82.78125 48.289062 82.5 50.292969 C 81.9375 54.296875 81.785156 58.367188 81.957031 62.394531 C 81.527344 62.890625 81.136719 63.40625 80.769531 63.945312 C 80.464844 64.417969 80.1875 64.890625 79.949219 65.386719 C 78.152344 64.699219 76.25 64.222656 74.328125 63.945312 C 72.273438 63.621094 70.175781 63.578125 68.101562 63.6875 C 67.453125 63.730469 66.804688 63.792969 66.175781 63.878906 C 66.4375 63.449219 66.652344 62.996094 66.867188 62.542969 Z M 83.925781 61.640625 C 84.421875 61.253906 84.941406 60.949219 85.503906 60.691406 C 86.066406 60.433594 86.648438 60.261719 87.253906 60.132812 C 88.488281 59.875 89.742188 59.808594 90.953125 60.046875 C 92.140625 60.28125 93.242188 60.886719 94.023438 61.8125 C 94.820312 62.714844 95.320312 63.878906 95.578125 65.105469 C 95.859375 66.3125 95.925781 67.582031 95.859375 68.855469 C 95.730469 71.375 95.144531 73.894531 94.347656 76.304688 C 93.523438 78.71875 92.464844 81.0625 91.058594 83.152344 C 90.347656 84.1875 89.546875 85.179688 88.617188 85.996094 C 87.6875 86.8125 86.628906 87.503906 85.484375 87.804688 C 84.335938 88.128906 83.105469 88.128906 81.9375 87.78125 C 81.179688 87.566406 80.445312 87.222656 79.753906 86.792969 C 80.402344 86.621094 81.070312 86.449219 81.699219 86.210938 C 84.121094 85.371094 86.476562 84.078125 88.269531 82.140625 C 90.066406 80.226562 91.148438 77.683594 91.382812 75.097656 C 91.535156 73.828125 91.558594 72.515625 91.296875 71.203125 C 91.148438 70.554688 90.929688 69.886719 90.5 69.304688 C 90.066406 68.726562 89.4375 68.292969 88.746094 68.101562 C 88.054688 67.90625 87.339844 67.949219 86.691406 68.035156 C 86.023438 68.121094 85.417969 68.316406 84.789062 68.488281 C 83.558594 68.875 82.390625 69.351562 81.222656 69.800781 C 80.464844 70.101562 79.710938 70.40625 78.953125 70.683594 C 79.429688 68.464844 80.25 66.292969 81.460938 64.375 C 82.132812 63.363281 82.953125 62.394531 83.925781 61.640625 Z M 106.515625 73.332031 C 106.429688 72.796875 106.28125 72.277344 106.128906 71.738281 C 105.933594 71.203125 105.695312 70.683594 105.371094 70.210938 C 104.722656 69.261719 103.75 68.53125 102.710938 68.121094 C 101.652344 67.691406 100.550781 67.519531 99.449219 67.496094 C 98.519531 67.476562 97.609375 67.539062 96.703125 67.710938 C 96.679688 66.785156 96.59375 65.859375 96.398438 64.933594 C 96.117188 63.644531 95.578125 62.351562 94.671875 61.296875 C 93.785156 60.238281 92.488281 59.53125 91.148438 59.269531 C 89.804688 59.011719 88.421875 59.097656 87.125 59.355469 C 85.808594 59.613281 84.53125 60.199219 83.449219 61.015625 C 83.277344 61.144531 83.125 61.273438 82.976562 61.425781 C 82.886719 57.761719 83.082031 54.101562 83.601562 50.460938 C 83.882812 48.503906 84.273438 46.542969 84.726562 44.605469 C 85.179688 42.667969 85.675781 40.707031 86.042969 38.707031 C 86.410156 36.703125 86.648438 34.679688 86.734375 32.652344 C 86.84375 30.628906 86.824219 28.5625 86.457031 26.515625 C 86.28125 25.503906 86 24.46875 85.589844 23.5 C 85.160156 22.53125 84.597656 21.605469 83.753906 20.808594 C 82.910156 20.035156 81.785156 19.605469 80.683594 19.496094 C 80.121094 19.429688 79.582031 19.453125 79.039062 19.539062 C 78.519531 19.625 78.003906 19.734375 77.484375 19.863281 C 76.46875 20.121094 75.453125 20.574219 74.566406 21.21875 C 73.679688 21.863281 72.964844 22.726562 72.425781 23.652344 C 71.367188 25.527344 70.910156 27.570312 70.542969 29.554688 C 70.199219 31.554688 69.980469 33.558594 69.789062 35.5625 C 69.59375 37.5625 69.421875 39.566406 69.269531 41.570312 C 68.921875 45.574219 68.597656 49.558594 67.972656 53.476562 C 67.648438 55.4375 67.28125 57.398438 66.738281 59.292969 C 66.609375 59.765625 66.4375 60.21875 66.308594 60.691406 C 66.242188 60.929688 66.132812 61.144531 66.046875 61.382812 C 65.960938 61.617188 65.875 61.832031 65.765625 62.046875 C 65.570312 62.480469 65.355469 62.910156 65.117188 63.296875 L 64.921875 63.578125 C 64.859375 63.664062 64.792969 63.75 64.75 63.835938 C 64.726562 63.878906 64.683594 63.945312 64.664062 63.988281 C 64.621094 63.921875 64.597656 63.835938 64.554688 63.75 C 64.449219 63.492188 64.339844 63.234375 64.253906 62.976562 L 63.972656 62.179688 L 63.710938 61.359375 C 63.367188 60.28125 63.0625 59.164062 62.78125 58.066406 C 62.199219 55.847656 61.703125 53.605469 61.269531 51.367188 C 60.835938 49.105469 60.46875 46.84375 60.167969 44.585938 C 60.015625 43.441406 59.910156 42.300781 59.800781 41.183594 L 59.539062 37.734375 C 59.324219 35.410156 59.066406 33.085938 58.460938 30.78125 C 58.15625 29.636719 57.765625 28.496094 57.160156 27.441406 C 56.882812 26.902344 56.535156 26.386719 56.125 25.933594 C 55.714844 25.460938 55.238281 25.03125 54.699219 24.707031 C 54.4375 24.535156 54.136719 24.40625 53.855469 24.253906 C 53.550781 24.148438 53.25 24.019531 52.945312 23.953125 C 52.644531 23.867188 52.320312 23.824219 52.015625 23.78125 C 51.714844 23.757812 51.390625 23.738281 51.085938 23.738281 C 49.855469 23.757812 48.644531 24.019531 47.519531 24.40625 C 47.238281 24.46875 46.9375 24.621094 46.632812 24.773438 C 46.351562 24.945312 46.050781 25.117188 45.8125 25.351562 C 45.316406 25.804688 44.949219 26.386719 44.710938 26.96875 C 44.234375 28.152344 44.125 29.359375 44.082031 30.542969 C 44.039062 32.910156 44.34375 35.214844 44.644531 37.519531 C 44.96875 39.804688 45.359375 42.085938 45.707031 44.367188 C 46.441406 48.914062 47.089844 53.457031 47.457031 58.042969 C 48.210938 67.109375 48.039062 76.261719 47.089844 85.328125 C 45.554688 87.394531 44.539062 89.851562 44.082031 92.390625 C 43.609375 94.953125 43.671875 97.582031 44.214844 100.121094 C 44.363281 100.746094 44.496094 101.394531 44.710938 101.996094 C 44.820312 102.296875 44.90625 102.621094 45.011719 102.921875 L 45.382812 103.828125 C 45.445312 103.976562 45.488281 104.128906 45.554688 104.28125 L 45.769531 104.710938 L 46.203125 105.59375 L 46.699219 106.433594 C 46.871094 106.714844 47.023438 106.992188 47.21875 107.25 C 48.277344 108.824219 49.574219 110.265625 51.085938 111.449219 C 51.109375 111.902344 51.109375 112.355469 51.085938 112.828125 C 51.066406 113.390625 51 113.96875 50.894531 114.53125 C 50.785156 115.089844 50.65625 115.628906 50.460938 116.144531 C 50.265625 116.660156 50.007812 117.15625 49.683594 117.566406 L 49.488281 117.824219 L 49.640625 118.0625 C 50.65625 119.65625 51.910156 120.96875 53.335938 122.132812 C 53.703125 122.410156 54.050781 122.691406 54.417969 122.949219 L 55.5625 123.703125 C 56.363281 124.15625 57.140625 124.628906 57.984375 124.972656 C 61.292969 126.523438 64.964844 127.105469 68.554688 127.105469 L 69.917969 127.105469 C 70.371094 127.105469 70.824219 127.042969 71.257812 127.019531 L 72.597656 126.933594 C 73.050781 126.890625 73.484375 126.828125 73.9375 126.761719 C 74.390625 126.695312 74.847656 126.652344 75.277344 126.566406 L 76.621094 126.308594 L 77.289062 126.179688 L 77.9375 126.007812 C 78.371094 125.878906 78.824219 125.773438 79.257812 125.640625 C 80.984375 125.082031 82.695312 124.351562 84.25 123.316406 C 85.027344 122.800781 85.742188 122.195312 86.410156 121.527344 L 86.886719 121.011719 L 87.320312 120.453125 C 87.449219 120.257812 87.601562 120.066406 87.730469 119.847656 C 87.859375 119.632812 87.96875 119.441406 88.097656 119.160156 L 88.226562 118.859375 L 88.03125 118.558594 C 87.945312 118.40625 87.816406 118.191406 87.730469 117.976562 C 87.644531 117.761719 87.558594 117.542969 87.492188 117.328125 C 87.363281 116.878906 87.296875 116.425781 87.296875 115.953125 C 87.296875 115.476562 87.363281 115.023438 87.492188 114.574219 C 87.535156 114.335938 87.601562 114.121094 87.601562 113.839844 C 87.601562 113.710938 87.601562 113.558594 87.601562 113.410156 C 88.140625 113.128906 88.683594 112.851562 89.199219 112.527344 C 90.5625 111.667969 91.796875 110.632812 92.898438 109.46875 C 94 108.304688 94.949219 107.015625 95.792969 105.679688 C 96.636719 104.363281 97.4375 102.945312 98.042969 101.480469 C 98.671875 100.015625 99.144531 98.484375 99.492188 96.9375 C 99.816406 95.429688 100.011719 93.878906 100.074219 92.347656 C 100.527344 91.984375 100.941406 91.59375 101.351562 91.1875 C 102.863281 89.636719 104.03125 87.78125 104.894531 85.824219 C 105.761719 83.863281 106.34375 81.796875 106.648438 79.664062 C 106.886719 77.617188 106.90625 75.464844 106.515625 73.332031 " fill-opacity="1" fill-rule="nonzero"/></g></g></g></svg>