<svg xmlns="http://www.w3.org/2000/svg" xmlns:xlink="http://www.w3.org/1999/xlink" width="400" zoomAndPan="magnify" viewBox="0 0 300 299.999988" height="400" preserveAspectRatio="xMidYMid meet" version="1.0"><defs><clipPath id="4b8e93e063"><path d="M 87.414062 87.414062 L 212.664062 87.414062 L 212.664062 212.664062 L 87.414062 212.664062 Z M 87.414062 87.414062 " clip-rule="nonzero"/></clipPath><clipPath id="a372289a8f"><path d="M 10.414062 10.414062 L 135.585938 10.414062 L 135.585938 135.585938 L 10.414062 135.585938 Z M 10.414062 10.414062 " clip-rule="nonzero"/></clipPath><clipPath id="531ddbb2c0"><path d="M 20.914062 10.414062 L 125.085938 10.414062 C 127.871094 10.414062 130.542969 11.519531 132.511719 13.488281 C 134.480469 15.457031 135.585938 18.128906 135.585938 20.914062 L 135.585938 125.085938 C 135.585938 127.871094 134.480469 130.542969 132.511719 132.511719 C 130.542969 134.480469 127.871094 135.585938 125.085938 135.585938 L 20.914062 135.585938 C 18.128906 135.585938 15.457031 134.480469 13.488281 132.511719 C 11.519531 130.542969 10.414062 127.871094 10.414062 125.085938 L 10.414062 20.914062 C 10.414062 18.128906 11.519531 15.457031 13.488281 13.488281 C 15.457031 11.519531 18.128906 10.414062 20.914062 10.414062 Z M 20.914062 10.414062 " clip-rule="nonzero"/></clipPath><clipPath id="fc4ff10c8c"><path d="M 0.414062 0.414062 L 125.585938 0.414062 L 125.585938 125.585938 L 0.414062 125.585938 Z M 0.414062 0.414062 " clip-rule="nonzero"/></clipPath><clipPath id="c5059dc750"><path d="M 10.914062 0.414062 L 115.085938 0.414062 C 117.871094 0.414062 120.542969 1.519531 122.511719 3.488281 C 124.480469 5.457031 125.585938 8.128906 125.585938 10.914062 L 125.585938 115.085938 C 125.585938 117.871094 124.480469 120.542969 122.511719 122.511719 C 120.542969 124.480469 117.871094 125.585938 115.085938 125.585938 L 10.914062 125.585938 C 8.128906 125.585938 5.457031 124.480469 3.488281 122.511719 C 1.519531 120.542969 0.414062 117.871094 0.414062 115.085938 L 0.414062 10.914062 C 0.414062 8.128906 1.519531 5.457031 3.488281 3.488281 C 5.457031 1.519531 8.128906 0.414062 10.914062 0.414062 Z M 10.914062 0.414062 " clip-rule="nonzero"/></clipPath><clipPath id="3c6c1b14ff"><rect x="0" width="126" y="0" height="126"/></clipPath><clipPath id="dffcc26acc"><path d="M 10.414062 10.414062 L 135.710938 10.414062 L 135.710938 135.710938 L 10.414062 135.710938 Z M 10.414062 10.414062 " clip-rule="nonzero"/></clipPath><clipPath id="74f889c6df"><path d="M 20.914062 10.414062 L 125.070312 10.414062 C 127.855469 10.414062 130.527344 11.519531 132.496094 13.488281 C 134.464844 15.457031 135.570312 18.128906 135.570312 20.914062 L 135.570312 125.070312 C 135.570312 127.855469 134.464844 130.527344 132.496094 132.496094 C 130.527344 134.464844 127.855469 135.570312 125.070312 135.570312 L 20.914062 135.570312 C 18.128906 135.570312 15.457031 134.464844 13.488281 132.496094 C 11.519531 130.527344 10.414062 127.855469 10.414062 125.070312 L 10.414062 20.914062 C 10.414062 18.128906 11.519531 15.457031 13.488281 13.488281 C 15.457031 11.519531 18.128906 10.414062 20.914062 10.414062 Z M 20.914062 10.414062 " clip-rule="nonzero"/></clipPath><clipPath id="4af5d42b86"><path d="M 44 19 L 107 19 L 107 124.328125 L 44 124.328125 Z M 44 19 " clip-rule="nonzero"/></clipPath><clipPath id="5ab78b8bc2"><rect x="0" width="146" y="0" height="146"/></clipPath></defs><path fill="#ffffff" d="M 197.585938 211.265625 L 102.492188 211.265625 C 94.9375 211.265625 88.8125 205.140625 88.8125 197.585938 L 88.8125 102.492188 C 88.8125 94.9375 94.9375 88.8125 102.492188 88.8125 L 197.621094 88.8125 C 205.140625 88.8125 211.265625 94.9375 211.265625 102.492188 L 211.265625 197.621094 C 211.265625 205.140625 205.140625 211.265625 197.585938 211.265625 Z M 197.585938 211.265625 " fill-opacity="1" fill-rule="nonzero"/><g clip-path="url(#4b8e93e063)"><path fill="#000000" d="M 197.585938 212.664062 L 102.492188 212.664062 C 94.167969 212.664062 87.414062 205.910156 87.414062 197.585938 L 87.414062 102.492188 C 87.414062 94.167969 94.167969 87.414062 102.492188 87.414062 L 197.621094 87.414062 C 205.910156 87.414062 212.664062 94.167969 212.664062 102.492188 L 212.664062 197.621094 C 212.664062 205.910156 205.910156 212.664062 197.585938 212.664062 Z M 102.492188 90.210938 C 95.707031 90.210938 90.210938 95.707031 90.210938 102.492188 L 90.210938 197.621094 C 90.210938 204.371094 95.707031 209.863281 102.492188 209.863281 L 197.621094 209.863281 C 204.371094 209.863281 209.898438 204.371094 209.898438 197.585938 L 209.898438 102.492188 C 209.898438 95.742188 204.40625 90.210938 197.65625 90.210938 Z M 102.492188 90.210938 " fill-opacity="1" fill-rule="nonzero"/></g><path fill="#0c0b0b" d="M 162.285156 150.039062 C 162.285156 150.84375 162.207031 151.640625 162.046875 152.425781 C 161.890625 153.214844 161.660156 153.980469 161.351562 154.726562 C 161.042969 155.46875 160.667969 156.171875 160.21875 156.84375 C 159.773438 157.511719 159.265625 158.128906 158.699219 158.699219 C 158.128906 159.265625 157.511719 159.773438 156.84375 160.21875 C 156.171875 160.667969 155.46875 161.042969 154.726562 161.351562 C 153.980469 161.660156 153.214844 161.890625 152.425781 162.046875 C 151.640625 162.207031 150.84375 162.285156 150.039062 162.285156 C 149.234375 162.285156 148.4375 162.207031 147.648438 162.046875 C 146.859375 161.890625 146.09375 161.660156 145.351562 161.351562 C 144.609375 161.042969 143.902344 160.667969 143.234375 160.21875 C 142.566406 159.773438 141.949219 159.265625 141.378906 158.699219 C 140.8125 158.128906 140.304688 157.511719 139.855469 156.84375 C 139.410156 156.171875 139.035156 155.46875 138.726562 154.726562 C 138.417969 153.980469 138.1875 153.214844 138.027344 152.425781 C 137.871094 151.640625 137.792969 150.84375 137.792969 150.039062 C 137.792969 149.234375 137.871094 148.4375 138.027344 147.648438 C 138.1875 146.859375 138.417969 146.09375 138.726562 145.351562 C 139.035156 144.609375 139.410156 143.90625 139.855469 143.234375 C 140.304688 142.566406 140.8125 141.949219 141.378906 141.378906 C 141.949219 140.8125 142.566406 140.304688 143.234375 139.855469 C 143.902344 139.410156 144.609375 139.035156 145.351562 138.726562 C 146.09375 138.417969 146.859375 138.1875 147.648438 138.027344 C 148.4375 137.871094 149.234375 137.792969 150.039062 137.792969 C 150.84375 137.792969 151.640625 137.871094 152.425781 138.027344 C 153.214844 138.1875 153.980469 138.417969 154.726562 138.726562 C 155.46875 139.035156 156.171875 139.410156 156.84375 139.855469 C 157.511719 140.304688 158.128906 140.8125 158.699219 141.378906 C 159.265625 141.949219 159.773438 142.566406 160.21875 143.234375 C 160.667969 143.90625 161.042969 144.609375 161.351562 145.351562 C 161.660156 146.09375 161.890625 146.859375 162.046875 147.648438 C 162.207031 148.4375 162.285156 149.234375 162.285156 150.039062 Z M 162.285156 150.039062 " fill-opacity="1" fill-rule="nonzero"/><g transform="matrix(1, 0, 0, 1, 77, 77)"><g clip-path="url(#5ab78b8bc2)"><g clip-path="url(#a372289a8f)"><g clip-path="url(#531ddbb2c0)"><g transform="matrix(1, 0, 0, 1, 10, 10)"><g clip-path="url(#3c6c1b14ff)"><g clip-path="url(#fc4ff10c8c)"><g clip-path="url(#c5059dc750)"><path fill="#eb7332" d="M 0.414062 0.414062 L 125.585938 0.414062 L 125.585938 125.585938 L 0.414062 125.585938 Z M 0.414062 0.414062 " fill-opacity="1" fill-rule="nonzero"/></g></g></g></g></g></g><g clip-path="url(#dffcc26acc)"><g clip-path="url(#74f889c6df)"><path stroke-linecap="butt" transform="matrix(0.986582, 0, 0, 0.986582, 10.413795, 10.413811)" fill="none" stroke-linejoin="miter" d="M 10.643078 0.000254737 L 116.215927 0.000254737 C 119.038963 0.000254737 121.747177 1.120759 123.742704 3.116285 C 125.73823 5.111811 126.858734 7.820026 126.858734 10.643062 L 126.858734 116.215911 C 126.858734 119.038947 125.73823 121.747161 123.742704 123.742688 C 121.747177 125.738214 119.038963 126.858718 116.215927 126.858718 L 10.643078 126.858718 C 7.820042 126.858718 5.111827 125.738214 3.116301 123.742688 C 1.120775 121.747161 0.000270792 119.038947 0.000270792 116.215911 L 0.000270792 10.643062 C 0.000270792 7.820026 1.120775 5.111811 3.116301 3.116285 C 5.111827 1.120759 7.820042 0.000254737 10.643078 0.000254737 Z M 10.643078 0.000254737 " stroke="#000000" stroke-width="4.561203" stroke-opacity="1" stroke-miterlimit="4"/></g></g><path fill="#f4dec7" d="M 62.6875 57.351562 C 69.632812 47.078125 77.273438 56.207031 77.273438 56.207031 M 77.273438 56.207031 C 77.863281 53.164062 83.863281 51.789062 83.863281 51.789062 C 93.753906 48.640625 94.515625 60.5 94.515625 60.5 C 102.40625 58.667969 104.847656 64.816406 104.847656 64.816406 C 108.382812 85.332031 98.132812 86.019531 98.132812 86.019531 C 100.910156 104.03125 88.347656 110.453125 88.347656 110.453125 L 88.347656 117.125 C 86.808594 120.1875 77.378906 123.417969 67.71875 123.835938 C 58.058594 124.230469 51.914062 117.164062 51.914062 117.164062 L 51.492188 110.660156 C 51.492188 110.660156 49.21875 108.511719 45.765625 102.195312 C 42.292969 95.878906 47.28125 85.269531 47.28125 85.269531 L 49.21875 43.386719 C 49.21875 43.386719 47.578125 17.785156 58.878906 20.621094 C 70.183594 23.457031 66.519531 35.609375 65.613281 40.03125 C 64.710938 44.449219 62.6875 57.351562 62.6875 57.351562 " fill-opacity="1" fill-rule="nonzero"/><path fill="#e0bfae" d="M 77.273438 56.226562 C 77.402344 55.9375 77.632812 55.582031 77.96875 55.519531 C 79.421875 55.269531 82.347656 60.460938 82.601562 65.359375 C 82.683594 66.921875 82.601562 70.445312 79.992188 74.574219 C 80.601562 72.925781 81.613281 69.589844 81.042969 65.359375 C 80.453125 60.792969 78.347656 57.644531 77.273438 56.226562 Z M 91.019531 80.160156 L 91 80.160156 L 91 82.039062 C 90.515625 83.203125 89.695312 84.957031 88.347656 86.875 C 86.578125 89.394531 83.464844 93.855469 79.695312 93.792969 C 77.757812 93.753906 77.507812 92.480469 74.457031 91.835938 C 71.992188 91.3125 69.867188 91.542969 68.539062 91.773438 C 68.582031 91.480469 68.625 91.210938 68.667969 90.917969 L 81.546875 88.125 L 87.90625 83.371094 L 89.082031 80.683594 Z M 63.953125 71.53125 C 64.519531 73.574219 65.257812 75.261719 65.953125 76.554688 C 63.574219 76.929688 60.605469 77.636719 57.34375 78.972656 C 54.5 80.140625 52.164062 81.453125 50.355469 82.664062 C 50.269531 82.578125 52.25 79.640625 54.164062 77.992188 C 55.238281 77.054688 57.492188 75.492188 61.59375 75.117188 C 61.257812 73.699219 60.898438 71.132812 61.742188 68.195312 C 62.121094 66.902344 62.625 65.859375 63.109375 65.046875 C 63.109375 66.734375 63.257812 68.964844 63.953125 71.53125 Z M 93.777344 77.449219 C 94.660156 76.011719 95.902344 73.511719 96.324219 70.175781 C 96.890625 65.652344 95.648438 62.105469 94.957031 60.460938 C 95.230469 62.859375 95.375 65.734375 95.144531 69.007812 C 94.914062 72.28125 94.386719 75.117188 93.777344 77.449219 Z M 72.035156 112.851562 C 65.742188 118.5625 58.164062 119.644531 54.1875 116.539062 C 53.449219 115.957031 51.785156 114.433594 51.113281 111.015625 C 53.429688 111.953125 56.710938 113.015625 60.773438 113.453125 C 65.46875 113.953125 69.382812 113.414062 72.035156 112.851562 " fill-opacity="1" fill-rule="nonzero"/><g clip-path="url(#4af5d42b86)"><path fill="#100f0d" d="M 89.484375 89.875 C 89.902344 90 90.304688 90.167969 90.683594 90.375 C 90.261719 90.5 89.863281 90.542969 89.460938 90.648438 C 89.273438 90.6875 89.0625 90.730469 88.871094 90.773438 L 88.578125 90.8125 C 88.492188 90.835938 88.386719 90.855469 88.304688 90.875 C 88.113281 90.917969 87.925781 90.960938 87.757812 91 C 87.566406 91.0625 87.398438 91.105469 87.210938 91.148438 L 86.9375 91.210938 L 86.664062 91.292969 C 86.496094 91.355469 86.304688 91.398438 86.136719 91.460938 C 85.441406 91.691406 84.769531 92.003906 84.09375 92.335938 C 83.421875 92.667969 82.746094 93.066406 82.011719 93.523438 C 82.222656 92.667969 82.746094 91.960938 83.378906 91.355469 C 84.011719 90.773438 84.789062 90.292969 85.632812 90.023438 C 85.839844 89.9375 86.050781 89.894531 86.261719 89.832031 C 86.472656 89.773438 86.683594 89.730469 86.914062 89.710938 C 87.125 89.6875 87.359375 89.644531 87.566406 89.644531 C 87.777344 89.644531 88.007812 89.644531 88.21875 89.667969 C 88.429688 89.667969 88.640625 89.6875 88.871094 89.730469 C 89.0625 89.792969 89.273438 89.832031 89.484375 89.875 Z M 105.164062 76.222656 C 104.828125 78.140625 104.214844 80.015625 103.269531 81.683594 C 102.300781 83.328125 100.847656 84.707031 99.082031 85.226562 C 98.195312 85.5 97.269531 85.558594 96.324219 85.457031 C 95.859375 85.394531 95.355469 85.308594 94.957031 85.226562 C 94.554688 85.101562 94.175781 84.914062 93.839844 84.644531 C 93.144531 84.101562 92.554688 83.351562 92.03125 82.558594 C 91.757812 82.164062 91.503906 81.746094 91.25 81.308594 L 90.976562 80.871094 C 91.398438 80.660156 91.796875 80.390625 92.15625 80.078125 C 92.976562 79.347656 93.546875 78.453125 94.007812 77.535156 C 94.890625 75.679688 95.335938 73.71875 95.566406 71.738281 C 95.796875 69.777344 95.859375 67.796875 95.734375 65.816406 C 95.628906 64.171875 95.417969 62.523438 95.058594 60.898438 C 96.785156 60.542969 98.636719 60.523438 100.324219 61.023438 C 101.226562 61.3125 102.070312 61.773438 102.765625 62.398438 C 103.121094 62.710938 103.417969 63.066406 103.691406 63.460938 C 103.941406 63.859375 104.195312 64.253906 104.386719 64.691406 C 104.765625 65.566406 105.015625 66.503906 105.207031 67.464844 C 105.375 68.421875 105.480469 69.402344 105.542969 70.363281 C 105.605469 72.34375 105.519531 74.300781 105.164062 76.222656 Z M 97.585938 88.207031 L 97.648438 90.273438 C 97.628906 90.960938 97.628906 91.648438 97.609375 92.335938 L 97.523438 93.355469 L 97.480469 93.878906 L 97.417969 94.378906 L 97.292969 95.402344 C 97.25 95.734375 97.164062 96.066406 97.101562 96.402344 C 96.996094 97.070312 96.808594 97.734375 96.640625 98.402344 C 96.261719 99.714844 95.796875 100.988281 95.1875 102.21875 C 94.578125 103.425781 93.859375 104.59375 92.996094 105.65625 C 92.15625 106.71875 91.167969 107.699219 90.113281 108.554688 C 89.042969 109.410156 87.882812 110.160156 86.664062 110.785156 C 85.421875 111.390625 84.179688 111.933594 82.875 112.640625 C 84.367188 112.785156 85.800781 112.328125 87.105469 111.722656 C 87.292969 111.640625 87.460938 111.558594 87.652344 111.453125 L 87.757812 117.019531 C 87.273438 117.5 86.664062 118 86.074219 118.414062 C 85.398438 118.894531 84.707031 119.3125 83.96875 119.730469 C 82.515625 120.523438 80.980469 121.167969 79.402344 121.667969 C 76.222656 122.691406 72.898438 123.253906 69.550781 123.417969 C 66.226562 123.585938 62.835938 123.191406 59.722656 122.0625 C 58.164062 121.480469 56.691406 120.707031 55.324219 119.769531 C 55.152344 119.644531 54.984375 119.542969 54.816406 119.417969 L 54.332031 119.042969 C 53.996094 118.792969 53.703125 118.5 53.40625 118.226562 C 52.839844 117.6875 52.292969 117.101562 51.871094 116.496094 L 51.914062 111.621094 C 53.027344 112.347656 54.226562 112.933594 55.46875 113.390625 C 58.164062 114.328125 61.046875 114.558594 63.847656 114.453125 C 66.644531 114.328125 69.425781 113.828125 72.035156 112.851562 C 69.257812 113.164062 66.5625 113.558594 63.824219 113.601562 L 62.792969 113.578125 L 62.289062 113.578125 L 61.785156 113.539062 L 60.773438 113.453125 C 60.4375 113.414062 60.101562 113.371094 59.765625 113.328125 C 59.089844 113.265625 58.4375 113.101562 57.765625 112.953125 C 57.425781 112.890625 57.113281 112.765625 56.796875 112.683594 C 56.480469 112.578125 56.144531 112.515625 55.847656 112.371094 C 53.34375 111.453125 51.050781 109.953125 49.429688 107.847656 C 48.585938 106.824219 47.890625 105.65625 47.304688 104.46875 C 46.714844 103.261719 46.25 102.007812 45.894531 100.714844 C 45.535156 99.421875 45.324219 98.109375 45.21875 96.777344 C 45.113281 95.441406 45.15625 94.105469 45.324219 92.773438 C 45.683594 90.125 46.671875 87.5625 48.3125 85.457031 C 49.132812 84.394531 50.125 83.519531 51.21875 82.683594 C 52.292969 81.851562 53.449219 81.121094 54.648438 80.496094 C 57.046875 79.222656 59.636719 78.285156 62.308594 77.699219 C 63.65625 77.429688 65.003906 77.242188 66.371094 77.136719 C 67.761719 77.035156 69.128906 76.949219 70.519531 76.804688 C 71.90625 76.679688 73.277344 76.535156 74.664062 76.324219 C 76.054688 76.117188 77.421875 75.804688 78.769531 75.429688 L 82.769531 74.324219 C 83.441406 74.136719 84.09375 73.949219 84.746094 73.824219 C 85.398438 73.675781 86.050781 73.59375 86.664062 73.636719 C 87.273438 73.675781 87.777344 73.863281 88.113281 74.261719 C 88.453125 74.65625 88.683594 75.242188 88.789062 75.84375 C 88.894531 76.472656 88.9375 77.117188 88.914062 77.785156 C 88.894531 78.429688 88.851562 79.140625 88.746094 79.742188 C 88.640625 80.371094 88.453125 80.972656 88.179688 81.539062 C 88.050781 81.828125 87.882812 82.101562 87.714844 82.371094 C 87.523438 82.621094 87.359375 82.890625 87.148438 83.140625 C 86.324219 84.144531 85.273438 84.933594 84.136719 85.621094 C 81.84375 87 79.253906 87.875 76.625 88.605469 C 75.296875 88.957031 73.972656 89.269531 72.625 89.582031 L 71.613281 89.8125 C 71.277344 89.894531 70.941406 89.960938 70.5625 90.105469 C 70.394531 90.167969 70.203125 90.210938 70.035156 90.292969 L 69.53125 90.523438 C 69.191406 90.667969 68.878906 90.855469 68.5625 91.023438 C 67.320312 91.773438 66.246094 92.710938 65.277344 93.734375 C 64.332031 94.753906 63.46875 95.878906 62.792969 97.089844 C 63.785156 96.128906 64.792969 95.191406 65.867188 94.335938 C 66.394531 93.898438 66.941406 93.503906 67.488281 93.128906 C 67.53125 93.085938 67.574219 93.066406 67.613281 93.042969 C 68.203125 92.898438 68.792969 92.753906 69.382812 92.691406 C 70.433594 92.566406 71.488281 92.542969 72.539062 92.585938 C 74.664062 92.710938 76.75 93.128906 78.9375 93.605469 C 78.035156 92.941406 77 92.480469 75.929688 92.125 C 74.855469 91.773438 73.738281 91.5625 72.601562 91.480469 C 71.78125 91.441406 70.960938 91.480469 70.160156 91.625 L 70.496094 91.480469 C 70.644531 91.417969 70.792969 91.398438 70.960938 91.335938 C 71.257812 91.25 71.59375 91.167969 71.929688 91.085938 L 72.941406 90.855469 C 74.285156 90.5625 75.65625 90.25 77 89.894531 C 79.695312 89.1875 82.390625 88.230469 84.851562 86.769531 C 86.074219 86.019531 87.230469 85.101562 88.15625 83.953125 C 88.410156 83.683594 88.597656 83.371094 88.808594 83.058594 C 89 82.726562 89.1875 82.433594 89.335938 82.078125 C 89.460938 81.828125 89.546875 81.578125 89.628906 81.328125 C 89.714844 81.308594 89.796875 81.308594 89.902344 81.285156 L 90.261719 81.910156 C 90.515625 82.351562 90.765625 82.789062 91.039062 83.226562 C 91.585938 84.101562 92.242188 84.933594 93.125 85.621094 C 93.566406 85.957031 94.09375 86.226562 94.660156 86.394531 C 95.230469 86.519531 95.714844 86.582031 96.238281 86.644531 C 96.660156 86.6875 97.082031 86.6875 97.503906 86.644531 Z M 49.34375 57.707031 C 49.410156 55.3125 49.429688 52.890625 49.386719 50.496094 C 49.34375 48.097656 49.28125 45.699219 49.261719 43.324219 C 49.261719 40.925781 49.304688 38.550781 49.472656 36.171875 C 49.640625 33.816406 49.933594 31.441406 50.542969 29.1875 C 50.839844 28.0625 51.238281 26.957031 51.746094 25.9375 C 52.25 24.914062 52.902344 23.976562 53.722656 23.226562 C 54.523438 22.476562 55.511719 21.933594 56.585938 21.621094 C 57.636719 21.328125 58.816406 21.246094 59.910156 21.351562 C 61.003906 21.476562 62.058594 21.828125 62.898438 22.496094 C 63.742188 23.144531 64.394531 24.058594 64.855469 25.0625 C 65.785156 27.105469 66.054688 29.460938 66.054688 31.796875 C 66.054688 32.960938 65.992188 34.128906 65.847656 35.296875 C 65.785156 35.878906 65.699219 36.445312 65.59375 37.027344 C 65.488281 37.609375 65.339844 38.171875 65.214844 38.757812 C 64.6875 41.09375 64.121094 43.429688 63.636719 45.804688 C 63.171875 48.160156 62.730469 50.535156 62.476562 52.953125 C 62.289062 54.957031 62.246094 57 62.519531 59 C 62.542969 59.523438 62.605469 60.042969 62.753906 60.542969 C 62.6875 57.167969 65.027344 54.394531 67.992188 53.414062 C 68.730469 53.140625 69.507812 52.996094 70.265625 52.953125 C 71.023438 52.914062 71.804688 53.019531 72.519531 53.269531 C 73.972656 53.746094 75.210938 54.789062 76.265625 56 C 77.296875 57.230469 78.117188 58.605469 78.726562 60.105469 C 79.339844 61.585938 79.71875 63.171875 79.96875 64.773438 C 80.203125 66.378906 80.265625 68.007812 80.203125 69.632812 C 80.136719 71.15625 79.96875 72.675781 79.675781 74.15625 L 78.496094 74.511719 C 75.886719 75.324219 73.171875 75.679688 70.414062 75.949219 C 69.066406 76.09375 67.71875 76.199219 66.371094 76.304688 C 65.699219 75.617188 65.214844 74.71875 64.855469 73.78125 C 64.476562 72.78125 64.203125 71.738281 64.015625 70.675781 C 63.804688 69.613281 63.679688 68.527344 63.574219 67.445312 C 63.445312 66.359375 63.339844 65.253906 63.132812 64.148438 C 62.835938 65.253906 62.753906 66.378906 62.753906 67.484375 C 62.753906 68.046875 62.792969 68.609375 62.835938 69.175781 C 62.878906 69.738281 62.941406 70.300781 63.046875 70.863281 C 63.238281 71.988281 63.488281 73.09375 63.929688 74.15625 C 64.140625 74.699219 64.414062 75.21875 64.75 75.699219 C 64.921875 75.949219 65.109375 76.179688 65.300781 76.410156 C 64.246094 76.535156 63.195312 76.699219 62.140625 76.929688 C 59.40625 77.511719 56.730469 78.472656 54.269531 79.765625 C 53.027344 80.410156 51.847656 81.160156 50.714844 81.996094 C 49.617188 82.808594 48.546875 83.726562 47.683594 84.789062 C 48.480469 75.804688 49.113281 66.777344 49.34375 57.707031 Z M 79.484375 54.371094 C 80.222656 53.789062 81.023438 53.308594 81.886719 52.953125 L 82.539062 52.703125 L 83.210938 52.539062 C 83.316406 52.515625 83.441406 52.476562 83.546875 52.453125 L 83.882812 52.390625 L 84.578125 52.289062 C 85.042969 52.265625 85.503906 52.226562 85.988281 52.226562 L 86.703125 52.265625 C 86.9375 52.289062 87.167969 52.289062 87.398438 52.328125 L 88.09375 52.433594 C 88.324219 52.476562 88.578125 52.496094 88.769531 52.558594 C 89.1875 52.664062 89.566406 52.828125 89.945312 53.058594 C 90.683594 53.519531 91.335938 54.207031 91.863281 54.957031 C 92.933594 56.5 93.652344 58.3125 94.113281 60.167969 C 94.554688 62.042969 94.808594 63.960938 94.890625 65.878906 C 94.976562 67.796875 94.914062 69.738281 94.617188 71.632812 C 94.324219 73.53125 93.859375 75.40625 92.996094 77.054688 C 92.554688 77.867188 92.03125 78.617188 91.335938 79.160156 C 90.914062 79.515625 90.429688 79.742188 89.945312 79.890625 L 90.007812 79.367188 C 90.03125 79.179688 90.03125 79.015625 90.050781 78.847656 C 90.074219 78.492188 90.074219 78.140625 90.09375 77.785156 C 90.09375 77.074219 90.050781 76.34375 89.925781 75.617188 C 89.777344 74.886719 89.523438 74.113281 88.957031 73.488281 C 88.683594 73.175781 88.304688 72.925781 87.90625 72.78125 C 87.503906 72.632812 87.105469 72.550781 86.703125 72.53125 C 85.925781 72.511719 85.191406 72.632812 84.496094 72.78125 C 83.800781 72.949219 83.125 73.136719 82.453125 73.34375 L 80.496094 73.929688 C 81.148438 70.882812 81.335938 67.757812 80.9375 64.648438 C 80.726562 62.980469 80.328125 61.3125 79.695312 59.730469 C 79.210938 58.480469 78.539062 57.269531 77.757812 56.164062 C 78.265625 55.5 78.832031 54.871094 79.484375 54.371094 Z M 106.277344 70.339844 C 106.152344 68.339844 105.878906 66.316406 105.078125 64.398438 C 104.890625 63.921875 104.617188 63.460938 104.34375 63.023438 C 104.027344 62.609375 103.710938 62.191406 103.3125 61.835938 C 102.53125 61.105469 101.585938 60.585938 100.597656 60.25 C 99.585938 59.917969 98.554688 59.773438 97.523438 59.75 C 96.640625 59.75 95.777344 59.8125 94.890625 59.980469 C 94.890625 59.960938 94.890625 59.960938 94.890625 59.9375 C 94.660156 58.980469 94.367188 58.019531 94.03125 57.082031 C 93.691406 56.144531 93.269531 55.226562 92.746094 54.351562 C 92.199219 53.496094 91.523438 52.664062 90.621094 52.058594 C 90.15625 51.765625 89.652344 51.515625 89.105469 51.390625 C 88.832031 51.308594 88.578125 51.308594 88.324219 51.265625 L 87.566406 51.160156 C 87.316406 51.121094 87.0625 51.121094 86.808594 51.097656 L 86.03125 51.078125 C 85.527344 51.078125 85 51.140625 84.496094 51.160156 C 83.484375 51.328125 82.453125 51.539062 81.507812 51.996094 C 79.824219 52.746094 78.347656 53.933594 77.339844 55.476562 C 77.273438 55.414062 77.234375 55.332031 77.171875 55.269531 C 76.625 54.601562 75.992188 53.996094 75.296875 53.453125 C 74.601562 52.914062 73.800781 52.476562 72.960938 52.183594 C 72.097656 51.890625 71.191406 51.746094 70.289062 51.808594 C 69.382812 51.871094 68.519531 52.058594 67.679688 52.371094 C 66.035156 52.996094 64.542969 54.101562 63.574219 55.582031 C 63.425781 55.8125 63.300781 56.039062 63.171875 56.289062 C 63.300781 55.226562 63.46875 54.164062 63.636719 53.101562 C 63.992188 50.746094 64.414062 48.410156 64.921875 46.074219 C 65.425781 43.742188 66.015625 41.425781 66.582031 39.089844 C 66.730469 38.507812 66.855469 37.921875 66.984375 37.320312 C 67.109375 36.714844 67.214844 36.089844 67.277344 35.484375 C 67.425781 34.277344 67.488281 33.046875 67.507812 31.816406 C 67.507812 30.585938 67.425781 29.355469 67.234375 28.125 C 67.046875 26.894531 66.730469 25.664062 66.183594 24.5 C 65.636719 23.332031 64.855469 22.226562 63.785156 21.414062 C 62.6875 20.578125 61.363281 20.121094 60.058594 19.996094 C 59.40625 19.933594 58.753906 19.933594 58.121094 19.976562 C 57.46875 20.035156 56.835938 20.140625 56.207031 20.328125 C 54.941406 20.683594 53.765625 21.351562 52.816406 22.246094 C 51.871094 23.144531 51.132812 24.226562 50.566406 25.351562 C 49.996094 26.5 49.597656 27.667969 49.28125 28.875 C 48.648438 31.253906 48.375 33.691406 48.230469 36.109375 C 48.082031 38.527344 48.0625 40.945312 48.082031 43.34375 C 48.101562 45.742188 48.207031 48.160156 48.269531 50.535156 C 48.335938 52.914062 48.335938 55.3125 48.292969 57.707031 C 48.207031 62.480469 47.996094 67.277344 47.746094 72.070312 C 47.515625 76.699219 47.21875 81.328125 46.882812 85.957031 C 45.535156 87.957031 44.691406 90.273438 44.355469 92.628906 C 44.144531 94.023438 44.082031 95.441406 44.1875 96.839844 C 44.273438 98.234375 44.503906 99.632812 44.863281 100.988281 C 45.21875 102.34375 45.703125 103.675781 46.3125 104.949219 C 46.925781 106.21875 47.660156 107.429688 48.566406 108.535156 C 49.304688 109.472656 50.164062 110.304688 51.113281 111.015625 L 51.15625 116.621094 L 51.15625 116.746094 L 51.21875 116.832031 C 52.269531 118.269531 53.554688 119.394531 54.964844 120.394531 C 56.375 121.375 57.910156 122.148438 59.53125 122.753906 C 62.773438 123.917969 66.226562 124.335938 69.65625 124.191406 C 73.066406 124.066406 76.453125 123.542969 79.738281 122.542969 C 81.378906 122.023438 82.980469 121.417969 84.515625 120.625 C 85.273438 120.230469 86.03125 119.792969 86.746094 119.3125 C 87.460938 118.8125 88.15625 118.3125 88.808594 117.664062 L 88.957031 117.519531 L 88.957031 117.289062 L 89.082031 110.785156 C 89.734375 110.410156 90.347656 109.992188 90.957031 109.535156 C 93.3125 107.804688 95.207031 105.492188 96.574219 102.90625 C 97.25 101.613281 97.753906 100.238281 98.175781 98.859375 C 98.363281 98.152344 98.554688 97.464844 98.679688 96.753906 C 98.742188 96.402344 98.828125 96.046875 98.871094 95.691406 L 99.019531 94.628906 C 99.332031 91.898438 99.269531 89.144531 98.953125 86.457031 C 99.121094 86.414062 99.292969 86.375 99.460938 86.3125 C 100.492188 85.976562 101.417969 85.394531 102.195312 84.664062 C 102.976562 83.933594 103.585938 83.078125 104.089844 82.183594 C 104.59375 81.285156 104.972656 80.328125 105.269531 79.367188 C 105.585938 78.410156 105.816406 77.410156 105.984375 76.429688 C 106.257812 74.363281 106.363281 72.363281 106.277344 70.339844 " fill-opacity="1" fill-rule="nonzero"/></g></g></g></svg>