<svg xmlns="http://www.w3.org/2000/svg" xmlns:xlink="http://www.w3.org/1999/xlink" width="400" zoomAndPan="magnify" viewBox="0 0 300 299.999988" height="400" preserveAspectRatio="xMidYMid meet" version="1.0"><defs><clipPath id="9ca12219b2"><path d="M 2 2 L 297.335938 2 L 297.335938 297.335938 L 2 297.335938 Z M 2 2 " clip-rule="nonzero"/></clipPath><clipPath id="1b34e8e06b"><path d="M 13.164062 2.664062 L 286.835938 2.664062 C 289.621094 2.664062 292.292969 3.769531 294.261719 5.738281 C 296.230469 7.707031 297.335938 10.378906 297.335938 13.164062 L 297.335938 286.835938 C 297.335938 289.621094 296.230469 292.292969 294.261719 294.261719 C 292.292969 296.230469 289.621094 297.335938 286.835938 297.335938 L 13.164062 297.335938 C 10.378906 297.335938 7.707031 296.230469 5.738281 294.261719 C 3.769531 292.292969 2.664062 289.621094 2.664062 286.835938 L 2.664062 13.164062 C 2.664062 10.378906 3.769531 7.707031 5.738281 5.738281 C 7.707031 3.769531 10.378906 2.664062 13.164062 2.664062 Z M 13.164062 2.664062 " clip-rule="nonzero"/></clipPath><clipPath id="b765649502"><path d="M 0.640625 0.640625 L 295.335938 0.640625 L 295.335938 295.335938 L 0.640625 295.335938 Z M 0.640625 0.640625 " clip-rule="nonzero"/></clipPath><clipPath id="c4dd36dd23"><path d="M 11.164062 0.664062 L 284.835938 0.664062 C 287.621094 0.664062 290.292969 1.769531 292.261719 3.738281 C 294.230469 5.707031 295.335938 8.378906 295.335938 11.164062 L 295.335938 284.835938 C 295.335938 287.621094 294.230469 290.292969 292.261719 292.261719 C 290.292969 294.230469 287.621094 295.335938 284.835938 295.335938 L 11.164062 295.335938 C 8.378906 295.335938 5.707031 294.230469 3.738281 292.261719 C 1.769531 290.292969 0.664062 287.621094 0.664062 284.835938 L 0.664062 11.164062 C 0.664062 8.378906 1.769531 5.707031 3.738281 3.738281 C 5.707031 1.769531 8.378906 0.664062 11.164062 0.664062 Z M 11.164062 0.664062 " clip-rule="nonzero"/></clipPath><clipPath id="efe9b9353f"><rect x="0" width="296" y="0" height="296"/></clipPath><clipPath id="ff31dd5170"><path d="M 2.664062 2.664062 L 297.414062 2.664062 L 297.414062 297.414062 L 2.664062 297.414062 Z M 2.664062 2.664062 " clip-rule="nonzero"/></clipPath><clipPath id="71dbf2b97b"><path d="M 13.164062 2.664062 L 286.832031 2.664062 C 289.617188 2.664062 292.285156 3.769531 294.253906 5.738281 C 296.222656 7.707031 297.332031 10.378906 297.332031 13.164062 L 297.332031 286.832031 C 297.332031 289.617188 296.222656 292.285156 294.253906 294.253906 C 292.285156 296.222656 289.617188 297.332031 286.832031 297.332031 L 13.164062 297.332031 C 10.378906 297.332031 7.707031 296.222656 5.738281 294.253906 C 3.769531 292.285156 2.664062 289.617188 2.664062 286.832031 L 2.664062 13.164062 C 2.664062 10.378906 3.769531 7.707031 5.738281 5.738281 C 7.707031 3.769531 10.378906 2.664062 13.164062 2.664062 Z M 13.164062 2.664062 " clip-rule="nonzero"/></clipPath><clipPath id="da1511c109"><path d="M 4.484375 4.269531 L 54.894531 4.269531 L 54.894531 52.203125 L 4.484375 52.203125 Z M 4.484375 4.269531 " clip-rule="nonzero"/></clipPath><clipPath id="6d48926d0d"><path d="M 29.960938 4.570312 L 36.847656 19.808594 C 37.039062 20.234375 37.4375 20.523438 37.898438 20.574219 L 54.449219 22.40625 C 54.582031 22.421875 54.695312 22.511719 54.734375 22.636719 C 54.777344 22.765625 54.738281 22.902344 54.640625 22.992188 L 42.339844 34.195312 C 41.996094 34.511719 41.84375 34.980469 41.9375 35.4375 L 45.304688 51.769531 C 45.332031 51.898438 45.28125 52.035156 45.171875 52.113281 C 45.066406 52.191406 44.921875 52.199219 44.804688 52.132812 L 30.300781 43.855469 C 29.898438 43.625 29.402344 43.625 29 43.855469 L 14.496094 52.132812 C 14.378906 52.199219 14.238281 52.191406 14.128906 52.113281 C 14.019531 52.035156 13.96875 51.898438 13.996094 51.769531 L 17.367188 35.4375 C 17.460938 34.980469 17.304688 34.511719 16.960938 34.195312 L 4.660156 22.992188 C 4.5625 22.902344 4.523438 22.765625 4.566406 22.636719 C 4.605469 22.511719 4.71875 22.421875 4.851562 22.40625 L 21.402344 20.574219 C 21.863281 20.523438 22.265625 20.234375 22.457031 19.808594 L 29.34375 4.570312 C 29.398438 4.449219 29.519531 4.371094 29.652344 4.371094 C 29.785156 4.371094 29.90625 4.449219 29.960938 4.570312 Z M 29.960938 4.570312 " clip-rule="nonzero"/></clipPath><clipPath id="8580bc9bb9"><path d="M 0.484375 0.28125 L 50.894531 0.28125 L 50.894531 48.203125 L 0.484375 48.203125 Z M 0.484375 0.28125 " clip-rule="nonzero"/></clipPath><clipPath id="2cdd67ed0d"><path d="M 25.960938 0.570312 L 32.847656 15.808594 C 33.039062 16.234375 33.4375 16.523438 33.898438 16.574219 L 50.449219 18.40625 C 50.582031 18.421875 50.695312 18.511719 50.734375 18.636719 C 50.777344 18.765625 50.738281 18.902344 50.640625 18.992188 L 38.339844 30.195312 C 37.996094 30.511719 37.84375 30.980469 37.9375 31.4375 L 41.304688 47.769531 C 41.332031 47.898438 41.28125 48.035156 41.171875 48.113281 C 41.066406 48.191406 40.921875 48.199219 40.804688 48.132812 L 26.300781 39.855469 C 25.898438 39.625 25.402344 39.625 25 39.855469 L 10.496094 48.132812 C 10.378906 48.199219 10.238281 48.191406 10.128906 48.113281 C 10.019531 48.035156 9.96875 47.898438 9.996094 47.769531 L 13.367188 31.4375 C 13.460938 30.980469 13.304688 30.511719 12.960938 30.195312 L 0.660156 18.992188 C 0.5625 18.902344 0.523438 18.765625 0.566406 18.636719 C 0.605469 18.511719 0.71875 18.421875 0.851562 18.40625 L 17.402344 16.574219 C 17.863281 16.523438 18.265625 16.234375 18.457031 15.808594 L 25.34375 0.570312 C 25.398438 0.449219 25.519531 0.371094 25.652344 0.371094 C 25.785156 0.371094 25.90625 0.449219 25.960938 0.570312 Z M 25.960938 0.570312 " clip-rule="nonzero"/></clipPath><clipPath id="6dad74b6a3"><rect x="0" width="51" y="0" height="49"/></clipPath><clipPath id="94f8fe7d6e"><path d="M 4.113281 4 L 55 4 L 55 51.527344 L 4.113281 51.527344 Z M 4.113281 4 " clip-rule="nonzero"/></clipPath><clipPath id="0d7a92337a"><path d="M 29.953125 4.570312 L 36.835938 19.800781 C 37.027344 20.222656 37.425781 20.515625 37.886719 20.566406 L 54.429688 22.394531 C 54.5625 22.410156 54.671875 22.5 54.714844 22.625 C 54.753906 22.753906 54.71875 22.890625 54.621094 22.980469 L 42.324219 34.179688 C 41.980469 34.492188 41.828125 34.960938 41.921875 35.417969 L 45.289062 51.738281 C 45.316406 51.871094 45.265625 52.003906 45.15625 52.082031 C 45.046875 52.160156 44.90625 52.167969 44.789062 52.101562 L 30.292969 43.832031 C 29.890625 43.601562 29.394531 43.601562 28.992188 43.832031 L 14.5 52.101562 C 14.382812 52.167969 14.238281 52.160156 14.132812 52.082031 C 14.023438 52.003906 13.972656 51.871094 14 51.738281 L 17.367188 35.417969 C 17.460938 34.960938 17.304688 34.492188 16.964844 34.179688 L 4.667969 22.980469 C 4.570312 22.890625 4.53125 22.753906 4.574219 22.625 C 4.617188 22.5 4.726562 22.410156 4.859375 22.394531 L 21.398438 20.566406 C 21.859375 20.515625 22.261719 20.222656 22.453125 19.800781 L 29.335938 4.570312 C 29.390625 4.449219 29.511719 4.371094 29.644531 4.371094 C 29.777344 4.371094 29.898438 4.449219 29.953125 4.570312 Z M 29.953125 4.570312 " clip-rule="nonzero"/></clipPath><clipPath id="d0a891a919"><path d="M 61.519531 4.269531 L 111.925781 4.269531 L 111.925781 52.203125 L 61.519531 52.203125 Z M 61.519531 4.269531 " clip-rule="nonzero"/></clipPath><clipPath id="d6066e4911"><path d="M 86.992188 4.570312 L 93.878906 19.808594 C 94.070312 20.234375 94.472656 20.523438 94.933594 20.574219 L 111.484375 22.40625 C 111.617188 22.421875 111.726562 22.511719 111.769531 22.636719 C 111.808594 22.765625 111.773438 22.902344 111.675781 22.992188 L 99.371094 34.195312 C 99.027344 34.511719 98.875 34.980469 98.96875 35.4375 L 102.339844 51.769531 C 102.367188 51.898438 102.3125 52.035156 102.207031 52.113281 C 102.097656 52.191406 101.953125 52.199219 101.839844 52.132812 L 87.335938 43.855469 C 86.933594 43.625 86.4375 43.625 86.03125 43.855469 L 71.53125 52.132812 C 71.414062 52.199219 71.269531 52.191406 71.164062 52.113281 C 71.054688 52.035156 71.003906 51.898438 71.03125 51.769531 L 74.398438 35.4375 C 74.492188 34.980469 74.339844 34.511719 73.996094 34.195312 L 61.695312 22.992188 C 61.59375 22.902344 61.558594 22.765625 61.601562 22.636719 C 61.640625 22.511719 61.753906 22.421875 61.882812 22.40625 L 78.433594 20.574219 C 78.898438 20.523438 79.296875 20.234375 79.488281 19.808594 L 86.375 4.570312 C 86.429688 4.449219 86.550781 4.371094 86.683594 4.371094 C 86.816406 4.371094 86.9375 4.449219 86.992188 4.570312 Z M 86.992188 4.570312 " clip-rule="nonzero"/></clipPath><clipPath id="e0a8655bf4"><path d="M 0.519531 0.28125 L 50.878906 0.28125 L 50.878906 48.203125 L 0.519531 48.203125 Z M 0.519531 0.28125 " clip-rule="nonzero"/></clipPath><clipPath id="b773e9ea83"><path d="M 25.992188 0.570312 L 32.878906 15.808594 C 33.070312 16.234375 33.472656 16.523438 33.933594 16.574219 L 50.484375 18.40625 C 50.617188 18.421875 50.726562 18.511719 50.769531 18.636719 C 50.808594 18.765625 50.773438 18.902344 50.675781 18.992188 L 38.371094 30.195312 C 38.027344 30.511719 37.875 30.980469 37.96875 31.4375 L 41.339844 47.769531 C 41.367188 47.898438 41.3125 48.035156 41.207031 48.113281 C 41.097656 48.191406 40.953125 48.199219 40.839844 48.132812 L 26.335938 39.855469 C 25.933594 39.625 25.4375 39.625 25.03125 39.855469 L 10.53125 48.132812 C 10.414062 48.199219 10.269531 48.191406 10.164062 48.113281 C 10.054688 48.035156 10.003906 47.898438 10.03125 47.769531 L 13.398438 31.4375 C 13.492188 30.980469 13.339844 30.511719 12.996094 30.195312 L 0.695312 18.992188 C 0.59375 18.902344 0.558594 18.765625 0.601562 18.636719 C 0.640625 18.511719 0.753906 18.421875 0.882812 18.40625 L 17.433594 16.574219 C 17.898438 16.523438 18.296875 16.234375 18.488281 15.808594 L 25.375 0.570312 C 25.429688 0.449219 25.550781 0.371094 25.683594 0.371094 C 25.816406 0.371094 25.9375 0.449219 25.992188 0.570312 Z M 25.992188 0.570312 " clip-rule="nonzero"/></clipPath><clipPath id="c8ee8c7649"><rect x="0" width="51" y="0" height="49"/></clipPath><clipPath id="cd61cee847"><path d="M 61.148438 4 L 112 4 L 112 51.527344 L 61.148438 51.527344 Z M 61.148438 4 " clip-rule="nonzero"/></clipPath><clipPath id="d2c3bd58f1"><path d="M 86.984375 4.570312 L 93.867188 19.800781 C 94.058594 20.222656 94.460938 20.515625 94.921875 20.566406 L 111.460938 22.394531 C 111.59375 22.410156 111.707031 22.5 111.746094 22.625 C 111.789062 22.753906 111.75 22.890625 111.652344 22.980469 L 99.359375 34.179688 C 99.015625 34.492188 98.863281 34.960938 98.957031 35.417969 L 102.324219 51.738281 C 102.347656 51.871094 102.296875 52.003906 102.191406 52.082031 C 102.082031 52.160156 101.9375 52.167969 101.824219 52.101562 L 87.328125 43.832031 C 86.925781 43.601562 86.429688 43.601562 86.027344 43.832031 L 71.53125 52.101562 C 71.417969 52.167969 71.273438 52.160156 71.164062 52.082031 C 71.058594 52.003906 71.003906 51.871094 71.03125 51.738281 L 74.398438 35.417969 C 74.492188 34.960938 74.339844 34.492188 73.996094 34.179688 L 61.703125 22.980469 C 61.601562 22.890625 61.566406 22.753906 61.609375 22.625 C 61.648438 22.5 61.761719 22.410156 61.894531 22.394531 L 78.433594 20.566406 C 78.894531 20.515625 79.296875 20.222656 79.488281 19.800781 L 86.367188 4.570312 C 86.421875 4.449219 86.542969 4.371094 86.675781 4.371094 C 86.808594 4.371094 86.929688 4.449219 86.984375 4.570312 Z M 86.984375 4.570312 " clip-rule="nonzero"/></clipPath><clipPath id="595a223ef4"><path d="M 118.5 4.269531 L 168.90625 4.269531 L 168.90625 52.203125 L 118.5 52.203125 Z M 118.5 4.269531 " clip-rule="nonzero"/></clipPath><clipPath id="99cc7fda0d"><path d="M 143.972656 4.570312 L 150.859375 19.808594 C 151.050781 20.234375 151.453125 20.523438 151.914062 20.574219 L 168.464844 22.40625 C 168.597656 22.421875 168.707031 22.511719 168.75 22.636719 C 168.789062 22.765625 168.753906 22.902344 168.65625 22.992188 L 156.351562 34.195312 C 156.007812 34.511719 155.855469 34.980469 155.949219 35.4375 L 159.320312 51.769531 C 159.347656 51.898438 159.292969 52.035156 159.1875 52.113281 C 159.078125 52.191406 158.933594 52.199219 158.820312 52.132812 L 144.316406 43.855469 C 143.914062 43.625 143.417969 43.625 143.011719 43.855469 L 128.507812 52.132812 C 128.394531 52.199219 128.25 52.191406 128.144531 52.113281 C 128.035156 52.035156 127.984375 51.898438 128.011719 51.769531 L 131.378906 35.4375 C 131.472656 34.980469 131.320312 34.511719 130.976562 34.195312 L 118.671875 22.992188 C 118.574219 22.902344 118.539062 22.765625 118.578125 22.636719 C 118.621094 22.511719 118.730469 22.421875 118.863281 22.40625 L 135.414062 20.574219 C 135.878906 20.523438 136.277344 20.234375 136.46875 19.808594 L 143.355469 4.570312 C 143.410156 4.449219 143.53125 4.371094 143.664062 4.371094 C 143.796875 4.371094 143.917969 4.449219 143.972656 4.570312 Z M 143.972656 4.570312 " clip-rule="nonzero"/></clipPath><clipPath id="53aa9d5fec"><path d="M 0.5 0.28125 L 50.90625 0.28125 L 50.90625 48.203125 L 0.5 48.203125 Z M 0.5 0.28125 " clip-rule="nonzero"/></clipPath><clipPath id="530c09ae50"><path d="M 25.972656 0.570312 L 32.859375 15.808594 C 33.050781 16.234375 33.453125 16.523438 33.914062 16.574219 L 50.464844 18.40625 C 50.597656 18.421875 50.707031 18.511719 50.75 18.636719 C 50.789062 18.765625 50.753906 18.902344 50.65625 18.992188 L 38.351562 30.195312 C 38.007812 30.511719 37.855469 30.980469 37.949219 31.4375 L 41.320312 47.769531 C 41.347656 47.898438 41.292969 48.035156 41.1875 48.113281 C 41.078125 48.191406 40.933594 48.199219 40.820312 48.132812 L 26.316406 39.855469 C 25.914062 39.625 25.417969 39.625 25.011719 39.855469 L 10.507812 48.132812 C 10.394531 48.199219 10.25 48.191406 10.144531 48.113281 C 10.035156 48.035156 9.984375 47.898438 10.011719 47.769531 L 13.378906 31.4375 C 13.472656 30.980469 13.320312 30.511719 12.976562 30.195312 L 0.671875 18.992188 C 0.574219 18.902344 0.539062 18.765625 0.578125 18.636719 C 0.621094 18.511719 0.730469 18.421875 0.863281 18.40625 L 17.414062 16.574219 C 17.878906 16.523438 18.277344 16.234375 18.46875 15.808594 L 25.355469 0.570312 C 25.410156 0.449219 25.53125 0.371094 25.664062 0.371094 C 25.796875 0.371094 25.917969 0.449219 25.972656 0.570312 Z M 25.972656 0.570312 " clip-rule="nonzero"/></clipPath><clipPath id="696775f3f8"><rect x="0" width="51" y="0" height="49"/></clipPath><clipPath id="f5f1f260bc"><path d="M 118.128906 4 L 169 4 L 169 51.527344 L 118.128906 51.527344 Z M 118.128906 4 " clip-rule="nonzero"/></clipPath><clipPath id="e2fcccd4f3"><path d="M 143.964844 4.570312 L 150.847656 19.800781 C 151.039062 20.222656 151.441406 20.515625 151.902344 20.566406 L 168.441406 22.394531 C 168.574219 22.410156 168.6875 22.5 168.726562 22.625 C 168.769531 22.753906 168.730469 22.890625 168.632812 22.980469 L 156.339844 34.179688 C 155.996094 34.492188 155.839844 34.960938 155.933594 35.417969 L 159.300781 51.738281 C 159.328125 51.871094 159.277344 52.003906 159.167969 52.082031 C 159.0625 52.160156 158.917969 52.167969 158.800781 52.101562 L 144.308594 43.832031 C 143.90625 43.601562 143.410156 43.601562 143.007812 43.832031 L 128.511719 52.101562 C 128.394531 52.167969 128.253906 52.160156 128.144531 52.082031 C 128.039062 52.003906 127.984375 51.871094 128.011719 51.738281 L 131.378906 35.417969 C 131.472656 34.960938 131.320312 34.492188 130.976562 34.179688 L 118.683594 22.980469 C 118.582031 22.890625 118.546875 22.753906 118.585938 22.625 C 118.628906 22.5 118.742188 22.410156 118.871094 22.394531 L 135.414062 20.566406 C 135.875 20.515625 136.273438 20.222656 136.464844 19.800781 L 143.347656 4.570312 C 143.402344 4.449219 143.523438 4.371094 143.65625 4.371094 C 143.789062 4.371094 143.910156 4.449219 143.964844 4.570312 Z M 143.964844 4.570312 " clip-rule="nonzero"/></clipPath><clipPath id="bdf06d81d1"><path d="M 176.320312 4.269531 L 226.726562 4.269531 L 226.726562 52.203125 L 176.320312 52.203125 Z M 176.320312 4.269531 " clip-rule="nonzero"/></clipPath><clipPath id="728d0cf4e3"><path d="M 201.792969 4.570312 L 208.679688 19.808594 C 208.871094 20.234375 209.273438 20.523438 209.734375 20.574219 L 226.285156 22.40625 C 226.417969 22.421875 226.527344 22.511719 226.570312 22.636719 C 226.609375 22.765625 226.574219 22.902344 226.476562 22.992188 L 214.171875 34.195312 C 213.828125 34.511719 213.675781 34.980469 213.769531 35.4375 L 217.140625 51.769531 C 217.167969 51.898438 217.113281 52.035156 217.007812 52.113281 C 216.898438 52.191406 216.753906 52.199219 216.640625 52.132812 L 202.136719 43.855469 C 201.734375 43.625 201.238281 43.625 200.832031 43.855469 L 186.332031 52.132812 C 186.214844 52.199219 186.070312 52.191406 185.964844 52.113281 C 185.855469 52.035156 185.804688 51.898438 185.832031 51.769531 L 189.199219 35.4375 C 189.292969 34.980469 189.140625 34.511719 188.796875 34.195312 L 176.492188 22.992188 C 176.394531 22.902344 176.359375 22.765625 176.398438 22.636719 C 176.441406 22.511719 176.550781 22.421875 176.683594 22.40625 L 193.234375 20.574219 C 193.699219 20.523438 194.097656 20.234375 194.289062 19.808594 L 201.175781 4.570312 C 201.230469 4.449219 201.351562 4.371094 201.484375 4.371094 C 201.617188 4.371094 201.738281 4.449219 201.792969 4.570312 Z M 201.792969 4.570312 " clip-rule="nonzero"/></clipPath><clipPath id="d1c7c840a7"><path d="M 0.320312 0.28125 L 50.726562 0.28125 L 50.726562 48.203125 L 0.320312 48.203125 Z M 0.320312 0.28125 " clip-rule="nonzero"/></clipPath><clipPath id="4684afd987"><path d="M 25.792969 0.570312 L 32.679688 15.808594 C 32.871094 16.234375 33.273438 16.523438 33.734375 16.574219 L 50.285156 18.40625 C 50.417969 18.421875 50.527344 18.511719 50.570312 18.636719 C 50.609375 18.765625 50.574219 18.902344 50.476562 18.992188 L 38.171875 30.195312 C 37.828125 30.511719 37.675781 30.980469 37.769531 31.4375 L 41.140625 47.769531 C 41.167969 47.898438 41.113281 48.035156 41.007812 48.113281 C 40.898438 48.191406 40.753906 48.199219 40.640625 48.132812 L 26.136719 39.855469 C 25.734375 39.625 25.238281 39.625 24.832031 39.855469 L 10.332031 48.132812 C 10.214844 48.199219 10.070312 48.191406 9.964844 48.113281 C 9.855469 48.035156 9.804688 47.898438 9.832031 47.769531 L 13.199219 31.4375 C 13.292969 30.980469 13.140625 30.511719 12.796875 30.195312 L 0.492188 18.992188 C 0.394531 18.902344 0.359375 18.765625 0.398438 18.636719 C 0.441406 18.511719 0.550781 18.421875 0.683594 18.40625 L 17.234375 16.574219 C 17.699219 16.523438 18.097656 16.234375 18.289062 15.808594 L 25.175781 0.570312 C 25.230469 0.449219 25.351562 0.371094 25.484375 0.371094 C 25.617188 0.371094 25.738281 0.449219 25.792969 0.570312 Z M 25.792969 0.570312 " clip-rule="nonzero"/></clipPath><clipPath id="8f292374cd"><rect x="0" width="51" y="0" height="49"/></clipPath><clipPath id="105e4c050d"><path d="M 176 4 L 227 4 L 227 51.527344 L 176 51.527344 Z M 176 4 " clip-rule="nonzero"/></clipPath><clipPath id="d5f6002393"><path d="M 201.785156 4.570312 L 208.667969 19.800781 C 208.859375 20.222656 209.261719 20.515625 209.722656 20.566406 L 226.261719 22.394531 C 226.394531 22.410156 226.507812 22.5 226.546875 22.625 C 226.589844 22.753906 226.550781 22.890625 226.453125 22.980469 L 214.160156 34.179688 C 213.816406 34.492188 213.660156 34.960938 213.753906 35.417969 L 217.121094 51.738281 C 217.148438 51.871094 217.097656 52.003906 216.988281 52.082031 C 216.882812 52.160156 216.738281 52.167969 216.625 52.101562 L 202.128906 43.832031 C 201.726562 43.601562 201.230469 43.601562 200.828125 43.832031 L 186.332031 52.101562 C 186.214844 52.167969 186.074219 52.160156 185.964844 52.082031 C 185.859375 52.003906 185.804688 51.871094 185.832031 51.738281 L 189.199219 35.417969 C 189.292969 34.960938 189.140625 34.492188 188.796875 34.179688 L 176.503906 22.980469 C 176.402344 22.890625 176.367188 22.753906 176.40625 22.625 C 176.449219 22.5 176.5625 22.410156 176.691406 22.394531 L 193.234375 20.566406 C 193.695312 20.515625 194.09375 20.222656 194.285156 19.800781 L 201.167969 4.570312 C 201.222656 4.449219 201.34375 4.371094 201.476562 4.371094 C 201.609375 4.371094 201.730469 4.449219 201.785156 4.570312 Z M 201.785156 4.570312 " clip-rule="nonzero"/></clipPath><clipPath id="b399038c5e"><path d="M 235.183594 4.269531 L 285.589844 4.269531 L 285.589844 52.203125 L 235.183594 52.203125 Z M 235.183594 4.269531 " clip-rule="nonzero"/></clipPath><clipPath id="aa543b0359"><path d="M 260.65625 4.570312 L 267.542969 19.808594 C 267.734375 20.234375 268.136719 20.523438 268.597656 20.574219 L 285.148438 22.40625 C 285.28125 22.421875 285.394531 22.511719 285.433594 22.636719 C 285.476562 22.765625 285.4375 22.902344 285.339844 22.992188 L 273.039062 34.195312 C 272.695312 34.511719 272.539062 34.980469 272.632812 35.4375 L 276.003906 51.769531 C 276.03125 51.898438 275.980469 52.035156 275.871094 52.113281 C 275.761719 52.191406 275.621094 52.199219 275.503906 52.132812 L 261 43.855469 C 260.597656 43.625 260.101562 43.625 259.699219 43.855469 L 245.195312 52.132812 C 245.078125 52.199219 244.933594 52.191406 244.828125 52.113281 C 244.71875 52.035156 244.667969 51.898438 244.695312 51.769531 L 248.0625 35.4375 C 248.15625 34.980469 248.003906 34.511719 247.660156 34.195312 L 235.359375 22.992188 C 235.261719 22.902344 235.222656 22.765625 235.265625 22.636719 C 235.304688 22.511719 235.417969 22.421875 235.550781 22.40625 L 252.101562 20.574219 C 252.5625 20.523438 252.960938 20.234375 253.152344 19.808594 L 260.039062 4.570312 C 260.09375 4.449219 260.214844 4.371094 260.347656 4.371094 C 260.480469 4.371094 260.601562 4.449219 260.65625 4.570312 Z M 260.65625 4.570312 " clip-rule="nonzero"/></clipPath><clipPath id="fcac1350a6"><path d="M 0.183594 0.28125 L 50.589844 0.28125 L 50.589844 48.203125 L 0.183594 48.203125 Z M 0.183594 0.28125 " clip-rule="nonzero"/></clipPath><clipPath id="f7c1faf5ef"><path d="M 25.65625 0.570312 L 32.542969 15.808594 C 32.734375 16.234375 33.136719 16.523438 33.597656 16.574219 L 50.148438 18.40625 C 50.28125 18.421875 50.394531 18.511719 50.433594 18.636719 C 50.476562 18.765625 50.4375 18.902344 50.339844 18.992188 L 38.039062 30.195312 C 37.695312 30.511719 37.539062 30.980469 37.632812 31.4375 L 41.003906 47.769531 C 41.03125 47.898438 40.980469 48.035156 40.871094 48.113281 C 40.761719 48.191406 40.621094 48.199219 40.503906 48.132812 L 26 39.855469 C 25.597656 39.625 25.101562 39.625 24.699219 39.855469 L 10.195312 48.132812 C 10.078125 48.199219 9.933594 48.191406 9.828125 48.113281 C 9.71875 48.035156 9.667969 47.898438 9.695312 47.769531 L 13.0625 31.4375 C 13.15625 30.980469 13.003906 30.511719 12.660156 30.195312 L 0.359375 18.992188 C 0.261719 18.902344 0.222656 18.765625 0.265625 18.636719 C 0.304688 18.511719 0.417969 18.421875 0.550781 18.40625 L 17.101562 16.574219 C 17.5625 16.523438 17.960938 16.234375 18.152344 15.808594 L 25.039062 0.570312 C 25.09375 0.449219 25.214844 0.371094 25.347656 0.371094 C 25.480469 0.371094 25.601562 0.449219 25.65625 0.570312 Z M 25.65625 0.570312 " clip-rule="nonzero"/></clipPath><clipPath id="d342e6ae19"><rect x="0" width="51" y="0" height="49"/></clipPath><clipPath id="1db3a74d50"><path d="M 235 4 L 285.871094 4 L 285.871094 51.527344 L 235 51.527344 Z M 235 4 " clip-rule="nonzero"/></clipPath><clipPath id="8c5228a61d"><path d="M 260.652344 4.570312 L 267.53125 19.800781 C 267.722656 20.222656 268.125 20.515625 268.585938 20.566406 L 285.125 22.394531 C 285.257812 22.410156 285.371094 22.5 285.410156 22.625 C 285.453125 22.753906 285.414062 22.890625 285.316406 22.980469 L 273.023438 34.179688 C 272.679688 34.492188 272.527344 34.960938 272.621094 35.417969 L 275.988281 51.738281 C 276.011719 51.871094 275.960938 52.003906 275.855469 52.082031 C 275.746094 52.160156 275.601562 52.167969 275.488281 52.101562 L 260.992188 43.832031 C 260.589844 43.601562 260.09375 43.601562 259.691406 43.832031 L 245.195312 52.101562 C 245.082031 52.167969 244.9375 52.160156 244.828125 52.082031 C 244.722656 52.003906 244.667969 51.871094 244.695312 51.738281 L 248.0625 35.417969 C 248.15625 34.960938 248.003906 34.492188 247.660156 34.179688 L 235.367188 22.980469 C 235.269531 22.890625 235.230469 22.753906 235.273438 22.625 C 235.3125 22.5 235.425781 22.410156 235.558594 22.394531 L 252.097656 20.566406 C 252.558594 20.515625 252.960938 20.222656 253.152344 19.800781 L 260.03125 4.570312 C 260.089844 4.449219 260.207031 4.371094 260.339844 4.371094 C 260.476562 4.371094 260.59375 4.449219 260.652344 4.570312 Z M 260.652344 4.570312 " clip-rule="nonzero"/></clipPath><clipPath id="db4bbcea81"><path d="M 4.484375 65.796875 L 54.894531 65.796875 L 54.894531 113.730469 L 4.484375 113.730469 Z M 4.484375 65.796875 " clip-rule="nonzero"/></clipPath><clipPath id="e0c17f75b8"><path d="M 29.960938 66.097656 L 36.847656 81.335938 C 37.039062 81.761719 37.4375 82.050781 37.898438 82.101562 L 54.449219 83.933594 C 54.582031 83.949219 54.695312 84.039062 54.734375 84.164062 C 54.777344 84.292969 54.738281 84.429688 54.640625 84.519531 L 42.339844 95.726562 C 41.996094 96.039062 41.84375 96.507812 41.9375 96.964844 L 45.304688 113.296875 C 45.332031 113.429688 45.28125 113.5625 45.171875 113.640625 C 45.066406 113.71875 44.921875 113.726562 44.804688 113.660156 L 30.300781 105.382812 C 29.898438 105.152344 29.402344 105.152344 29 105.382812 L 14.496094 113.660156 C 14.378906 113.726562 14.238281 113.71875 14.128906 113.640625 C 14.019531 113.5625 13.96875 113.429688 13.996094 113.296875 L 17.367188 96.964844 C 17.460938 96.507812 17.304688 96.039062 16.960938 95.726562 L 4.660156 84.519531 C 4.5625 84.429688 4.523438 84.292969 4.566406 84.164062 C 4.605469 84.039062 4.71875 83.949219 4.851562 83.933594 L 21.402344 82.101562 C 21.863281 82.050781 22.265625 81.761719 22.457031 81.335938 L 29.34375 66.097656 C 29.398438 65.976562 29.519531 65.898438 29.652344 65.898438 C 29.785156 65.898438 29.90625 65.976562 29.960938 66.097656 Z M 29.960938 66.097656 " clip-rule="nonzero"/></clipPath><clipPath id="2a8f4e35af"><path d="M 0.484375 0.796875 L 50.894531 0.796875 L 50.894531 48.730469 L 0.484375 48.730469 Z M 0.484375 0.796875 " clip-rule="nonzero"/></clipPath><clipPath id="0d83f491db"><path d="M 25.960938 1.097656 L 32.847656 16.335938 C 33.039062 16.761719 33.4375 17.050781 33.898438 17.101562 L 50.449219 18.933594 C 50.582031 18.949219 50.695312 19.039062 50.734375 19.164062 C 50.777344 19.292969 50.738281 19.429688 50.640625 19.519531 L 38.339844 30.726562 C 37.996094 31.039062 37.84375 31.507812 37.9375 31.964844 L 41.304688 48.296875 C 41.332031 48.429688 41.28125 48.5625 41.171875 48.640625 C 41.066406 48.71875 40.921875 48.726562 40.804688 48.660156 L 26.300781 40.382812 C 25.898438 40.152344 25.402344 40.152344 25 40.382812 L 10.496094 48.660156 C 10.378906 48.726562 10.238281 48.71875 10.128906 48.640625 C 10.019531 48.5625 9.96875 48.429688 9.996094 48.296875 L 13.367188 31.964844 C 13.460938 31.507812 13.304688 31.039062 12.960938 30.726562 L 0.660156 19.519531 C 0.5625 19.429688 0.523438 19.292969 0.566406 19.164062 C 0.605469 19.039062 0.71875 18.949219 0.851562 18.933594 L 17.402344 17.101562 C 17.863281 17.050781 18.265625 16.761719 18.457031 16.335938 L 25.34375 1.097656 C 25.398438 0.976562 25.519531 0.898438 25.652344 0.898438 C 25.785156 0.898438 25.90625 0.976562 25.960938 1.097656 Z M 25.960938 1.097656 " clip-rule="nonzero"/></clipPath><clipPath id="9e8c4e9e69"><rect x="0" width="51" y="0" height="49"/></clipPath><clipPath id="9a8f5fc248"><path d="M 4.113281 65.417969 L 55 65.417969 L 55 113.054688 L 4.113281 113.054688 Z M 4.113281 65.417969 " clip-rule="nonzero"/></clipPath><clipPath id="57a09044bf"><path d="M 29.953125 66.097656 L 36.835938 81.328125 C 37.027344 81.75 37.425781 82.042969 37.886719 82.09375 L 54.429688 83.921875 C 54.5625 83.9375 54.671875 84.027344 54.714844 84.15625 C 54.753906 84.28125 54.71875 84.421875 54.621094 84.507812 L 42.324219 95.707031 C 41.980469 96.019531 41.828125 96.488281 41.921875 96.945312 L 45.289062 113.269531 C 45.316406 113.398438 45.265625 113.53125 45.15625 113.609375 C 45.046875 113.6875 44.90625 113.695312 44.789062 113.628906 L 30.292969 105.359375 C 29.890625 105.128906 29.394531 105.128906 28.992188 105.359375 L 14.5 113.628906 C 14.382812 113.695312 14.238281 113.6875 14.132812 113.609375 C 14.023438 113.53125 13.972656 113.398438 14 113.269531 L 17.367188 96.945312 C 17.460938 96.488281 17.304688 96.019531 16.964844 95.707031 L 4.667969 84.507812 C 4.570312 84.421875 4.53125 84.28125 4.574219 84.15625 C 4.617188 84.027344 4.726562 83.9375 4.859375 83.921875 L 21.398438 82.09375 C 21.859375 82.042969 22.261719 81.75 22.453125 81.328125 L 29.335938 66.097656 C 29.390625 65.976562 29.511719 65.898438 29.644531 65.898438 C 29.777344 65.898438 29.898438 65.976562 29.953125 66.097656 Z M 29.953125 66.097656 " clip-rule="nonzero"/></clipPath><clipPath id="476d2089a2"><path d="M 61.519531 65.796875 L 111.925781 65.796875 L 111.925781 113.730469 L 61.519531 113.730469 Z M 61.519531 65.796875 " clip-rule="nonzero"/></clipPath><clipPath id="48932cb32a"><path d="M 86.992188 66.097656 L 93.878906 81.335938 C 94.070312 81.761719 94.472656 82.050781 94.933594 82.101562 L 111.484375 83.933594 C 111.617188 83.949219 111.726562 84.039062 111.769531 84.164062 C 111.808594 84.292969 111.773438 84.429688 111.675781 84.519531 L 99.371094 95.726562 C 99.027344 96.039062 98.875 96.507812 98.96875 96.964844 L 102.339844 113.296875 C 102.367188 113.429688 102.3125 113.5625 102.207031 113.640625 C 102.097656 113.71875 101.953125 113.726562 101.839844 113.660156 L 87.335938 105.382812 C 86.933594 105.152344 86.4375 105.152344 86.03125 105.382812 L 71.53125 113.660156 C 71.414062 113.726562 71.269531 113.71875 71.164062 113.640625 C 71.054688 113.5625 71.003906 113.429688 71.03125 113.296875 L 74.398438 96.964844 C 74.492188 96.507812 74.339844 96.039062 73.996094 95.726562 L 61.695312 84.519531 C 61.59375 84.429688 61.558594 84.292969 61.601562 84.164062 C 61.640625 84.039062 61.753906 83.949219 61.882812 83.933594 L 78.433594 82.101562 C 78.898438 82.050781 79.296875 81.761719 79.488281 81.335938 L 86.375 66.097656 C 86.429688 65.976562 86.550781 65.898438 86.683594 65.898438 C 86.816406 65.898438 86.9375 65.976562 86.992188 66.097656 Z M 86.992188 66.097656 " clip-rule="nonzero"/></clipPath><clipPath id="e0a453edbf"><path d="M 0.519531 0.796875 L 50.878906 0.796875 L 50.878906 48.730469 L 0.519531 48.730469 Z M 0.519531 0.796875 " clip-rule="nonzero"/></clipPath><clipPath id="8a9208df0b"><path d="M 25.992188 1.097656 L 32.878906 16.335938 C 33.070312 16.761719 33.472656 17.050781 33.933594 17.101562 L 50.484375 18.933594 C 50.617188 18.949219 50.726562 19.039062 50.769531 19.164062 C 50.808594 19.292969 50.773438 19.429688 50.675781 19.519531 L 38.371094 30.726562 C 38.027344 31.039062 37.875 31.507812 37.96875 31.964844 L 41.339844 48.296875 C 41.367188 48.429688 41.3125 48.5625 41.207031 48.640625 C 41.097656 48.71875 40.953125 48.726562 40.839844 48.660156 L 26.335938 40.382812 C 25.933594 40.152344 25.4375 40.152344 25.03125 40.382812 L 10.53125 48.660156 C 10.414062 48.726562 10.269531 48.71875 10.164062 48.640625 C 10.054688 48.5625 10.003906 48.429688 10.03125 48.296875 L 13.398438 31.964844 C 13.492188 31.507812 13.339844 31.039062 12.996094 30.726562 L 0.695312 19.519531 C 0.59375 19.429688 0.558594 19.292969 0.601562 19.164062 C 0.640625 19.039062 0.753906 18.949219 0.882812 18.933594 L 17.433594 17.101562 C 17.898438 17.050781 18.296875 16.761719 18.488281 16.335938 L 25.375 1.097656 C 25.429688 0.976562 25.550781 0.898438 25.683594 0.898438 C 25.816406 0.898438 25.9375 0.976562 25.992188 1.097656 Z M 25.992188 1.097656 " clip-rule="nonzero"/></clipPath><clipPath id="dab25c6ce8"><rect x="0" width="51" y="0" height="49"/></clipPath><clipPath id="aa7b8be560"><path d="M 61.148438 65.417969 L 112 65.417969 L 112 113.054688 L 61.148438 113.054688 Z M 61.148438 65.417969 " clip-rule="nonzero"/></clipPath><clipPath id="bed602fd95"><path d="M 86.984375 66.097656 L 93.867188 81.328125 C 94.058594 81.75 94.460938 82.042969 94.921875 82.09375 L 111.460938 83.921875 C 111.59375 83.9375 111.707031 84.027344 111.746094 84.15625 C 111.789062 84.28125 111.75 84.421875 111.652344 84.507812 L 99.359375 95.707031 C 99.015625 96.019531 98.863281 96.488281 98.957031 96.945312 L 102.324219 113.269531 C 102.347656 113.398438 102.296875 113.53125 102.191406 113.609375 C 102.082031 113.6875 101.9375 113.695312 101.824219 113.628906 L 87.328125 105.359375 C 86.925781 105.128906 86.429688 105.128906 86.027344 105.359375 L 71.53125 113.628906 C 71.417969 113.695312 71.273438 113.6875 71.164062 113.609375 C 71.058594 113.53125 71.003906 113.398438 71.03125 113.269531 L 74.398438 96.945312 C 74.492188 96.488281 74.339844 96.019531 73.996094 95.707031 L 61.703125 84.507812 C 61.601562 84.421875 61.566406 84.28125 61.609375 84.15625 C 61.648438 84.027344 61.761719 83.9375 61.894531 83.921875 L 78.433594 82.09375 C 78.894531 82.042969 79.296875 81.75 79.488281 81.328125 L 86.367188 66.097656 C 86.421875 65.976562 86.542969 65.898438 86.675781 65.898438 C 86.808594 65.898438 86.929688 65.976562 86.984375 66.097656 Z M 86.984375 66.097656 " clip-rule="nonzero"/></clipPath><clipPath id="596a36f7da"><path d="M 118.5 65.796875 L 168.90625 65.796875 L 168.90625 113.730469 L 118.5 113.730469 Z M 118.5 65.796875 " clip-rule="nonzero"/></clipPath><clipPath id="d8cccddfa2"><path d="M 143.972656 66.097656 L 150.859375 81.335938 C 151.050781 81.761719 151.453125 82.050781 151.914062 82.101562 L 168.464844 83.933594 C 168.597656 83.949219 168.707031 84.039062 168.75 84.164062 C 168.789062 84.292969 168.753906 84.429688 168.65625 84.519531 L 156.351562 95.726562 C 156.007812 96.039062 155.855469 96.507812 155.949219 96.964844 L 159.320312 113.296875 C 159.347656 113.429688 159.292969 113.5625 159.1875 113.640625 C 159.078125 113.71875 158.933594 113.726562 158.820312 113.660156 L 144.316406 105.382812 C 143.914062 105.152344 143.417969 105.152344 143.011719 105.382812 L 128.507812 113.660156 C 128.394531 113.726562 128.25 113.71875 128.144531 113.640625 C 128.035156 113.5625 127.984375 113.429688 128.011719 113.296875 L 131.378906 96.964844 C 131.472656 96.507812 131.320312 96.039062 130.976562 95.726562 L 118.671875 84.519531 C 118.574219 84.429688 118.539062 84.292969 118.578125 84.164062 C 118.621094 84.039062 118.730469 83.949219 118.863281 83.933594 L 135.414062 82.101562 C 135.878906 82.050781 136.277344 81.761719 136.46875 81.335938 L 143.355469 66.097656 C 143.410156 65.976562 143.53125 65.898438 143.664062 65.898438 C 143.796875 65.898438 143.917969 65.976562 143.972656 66.097656 Z M 143.972656 66.097656 " clip-rule="nonzero"/></clipPath><clipPath id="cd385ee4b1"><path d="M 0.5 0.796875 L 50.90625 0.796875 L 50.90625 48.730469 L 0.5 48.730469 Z M 0.5 0.796875 " clip-rule="nonzero"/></clipPath><clipPath id="34dbde2101"><path d="M 25.972656 1.097656 L 32.859375 16.335938 C 33.050781 16.761719 33.453125 17.050781 33.914062 17.101562 L 50.464844 18.933594 C 50.597656 18.949219 50.707031 19.039062 50.75 19.164062 C 50.789062 19.292969 50.753906 19.429688 50.65625 19.519531 L 38.351562 30.726562 C 38.007812 31.039062 37.855469 31.507812 37.949219 31.964844 L 41.320312 48.296875 C 41.347656 48.429688 41.292969 48.5625 41.1875 48.640625 C 41.078125 48.71875 40.933594 48.726562 40.820312 48.660156 L 26.316406 40.382812 C 25.914062 40.152344 25.417969 40.152344 25.011719 40.382812 L 10.507812 48.660156 C 10.394531 48.726562 10.25 48.71875 10.144531 48.640625 C 10.035156 48.5625 9.984375 48.429688 10.011719 48.296875 L 13.378906 31.964844 C 13.472656 31.507812 13.320312 31.039062 12.976562 30.726562 L 0.671875 19.519531 C 0.574219 19.429688 0.539062 19.292969 0.578125 19.164062 C 0.621094 19.039062 0.730469 18.949219 0.863281 18.933594 L 17.414062 17.101562 C 17.878906 17.050781 18.277344 16.761719 18.46875 16.335938 L 25.355469 1.097656 C 25.410156 0.976562 25.53125 0.898438 25.664062 0.898438 C 25.796875 0.898438 25.917969 0.976562 25.972656 1.097656 Z M 25.972656 1.097656 " clip-rule="nonzero"/></clipPath><clipPath id="ed166c9f47"><rect x="0" width="51" y="0" height="49"/></clipPath><clipPath id="d42437cc4e"><path d="M 118.128906 65.417969 L 169 65.417969 L 169 113.054688 L 118.128906 113.054688 Z M 118.128906 65.417969 " clip-rule="nonzero"/></clipPath><clipPath id="789cd544d4"><path d="M 143.964844 66.097656 L 150.847656 81.328125 C 151.039062 81.75 151.441406 82.042969 151.902344 82.09375 L 168.441406 83.921875 C 168.574219 83.9375 168.6875 84.027344 168.726562 84.15625 C 168.769531 84.28125 168.730469 84.421875 168.632812 84.507812 L 156.339844 95.707031 C 155.996094 96.019531 155.839844 96.488281 155.933594 96.945312 L 159.300781 113.269531 C 159.328125 113.398438 159.277344 113.53125 159.167969 113.609375 C 159.0625 113.6875 158.917969 113.695312 158.800781 113.628906 L 144.308594 105.359375 C 143.90625 105.128906 143.410156 105.128906 143.007812 105.359375 L 128.511719 113.628906 C 128.394531 113.695312 128.253906 113.6875 128.144531 113.609375 C 128.039062 113.53125 127.984375 113.398438 128.011719 113.269531 L 131.378906 96.945312 C 131.472656 96.488281 131.320312 96.019531 130.976562 95.707031 L 118.683594 84.507812 C 118.582031 84.421875 118.546875 84.28125 118.585938 84.15625 C 118.628906 84.027344 118.742188 83.9375 118.871094 83.921875 L 135.414062 82.09375 C 135.875 82.042969 136.273438 81.75 136.464844 81.328125 L 143.347656 66.097656 C 143.402344 65.976562 143.523438 65.898438 143.65625 65.898438 C 143.789062 65.898438 143.910156 65.976562 143.964844 66.097656 Z M 143.964844 66.097656 " clip-rule="nonzero"/></clipPath><clipPath id="f0e9e6c152"><path d="M 176.320312 65.796875 L 226.726562 65.796875 L 226.726562 113.730469 L 176.320312 113.730469 Z M 176.320312 65.796875 " clip-rule="nonzero"/></clipPath><clipPath id="d061cc625f"><path d="M 201.792969 66.097656 L 208.679688 81.335938 C 208.871094 81.761719 209.273438 82.050781 209.734375 82.101562 L 226.285156 83.933594 C 226.417969 83.949219 226.527344 84.039062 226.570312 84.164062 C 226.609375 84.292969 226.574219 84.429688 226.476562 84.519531 L 214.171875 95.726562 C 213.828125 96.039062 213.675781 96.507812 213.769531 96.964844 L 217.140625 113.296875 C 217.167969 113.429688 217.113281 113.5625 217.007812 113.640625 C 216.898438 113.71875 216.753906 113.726562 216.640625 113.660156 L 202.136719 105.382812 C 201.734375 105.152344 201.238281 105.152344 200.832031 105.382812 L 186.332031 113.660156 C 186.214844 113.726562 186.070312 113.71875 185.964844 113.640625 C 185.855469 113.5625 185.804688 113.429688 185.832031 113.296875 L 189.199219 96.964844 C 189.292969 96.507812 189.140625 96.039062 188.796875 95.726562 L 176.492188 84.519531 C 176.394531 84.429688 176.359375 84.292969 176.398438 84.164062 C 176.441406 84.039062 176.550781 83.949219 176.683594 83.933594 L 193.234375 82.101562 C 193.699219 82.050781 194.097656 81.761719 194.289062 81.335938 L 201.175781 66.097656 C 201.230469 65.976562 201.351562 65.898438 201.484375 65.898438 C 201.617188 65.898438 201.738281 65.976562 201.792969 66.097656 Z M 201.792969 66.097656 " clip-rule="nonzero"/></clipPath><clipPath id="1e6c356d47"><path d="M 0.320312 0.796875 L 50.726562 0.796875 L 50.726562 48.730469 L 0.320312 48.730469 Z M 0.320312 0.796875 " clip-rule="nonzero"/></clipPath><clipPath id="33162b53c7"><path d="M 25.792969 1.097656 L 32.679688 16.335938 C 32.871094 16.761719 33.273438 17.050781 33.734375 17.101562 L 50.285156 18.933594 C 50.417969 18.949219 50.527344 19.039062 50.570312 19.164062 C 50.609375 19.292969 50.574219 19.429688 50.476562 19.519531 L 38.171875 30.726562 C 37.828125 31.039062 37.675781 31.507812 37.769531 31.964844 L 41.140625 48.296875 C 41.167969 48.429688 41.113281 48.5625 41.007812 48.640625 C 40.898438 48.71875 40.753906 48.726562 40.640625 48.660156 L 26.136719 40.382812 C 25.734375 40.152344 25.238281 40.152344 24.832031 40.382812 L 10.332031 48.660156 C 10.214844 48.726562 10.070312 48.71875 9.964844 48.640625 C 9.855469 48.5625 9.804688 48.429688 9.832031 48.296875 L 13.199219 31.964844 C 13.292969 31.507812 13.140625 31.039062 12.796875 30.726562 L 0.492188 19.519531 C 0.394531 19.429688 0.359375 19.292969 0.398438 19.164062 C 0.441406 19.039062 0.550781 18.949219 0.683594 18.933594 L 17.234375 17.101562 C 17.699219 17.050781 18.097656 16.761719 18.289062 16.335938 L 25.175781 1.097656 C 25.230469 0.976562 25.351562 0.898438 25.484375 0.898438 C 25.617188 0.898438 25.738281 0.976562 25.792969 1.097656 Z M 25.792969 1.097656 " clip-rule="nonzero"/></clipPath><clipPath id="5636b87d2a"><rect x="0" width="51" y="0" height="49"/></clipPath><clipPath id="108d2e296e"><path d="M 176 65.417969 L 227 65.417969 L 227 113.054688 L 176 113.054688 Z M 176 65.417969 " clip-rule="nonzero"/></clipPath><clipPath id="8c8a78dd92"><path d="M 201.785156 66.097656 L 208.667969 81.328125 C 208.859375 81.75 209.261719 82.042969 209.722656 82.09375 L 226.261719 83.921875 C 226.394531 83.9375 226.507812 84.027344 226.546875 84.15625 C 226.589844 84.28125 226.550781 84.421875 226.453125 84.507812 L 214.160156 95.707031 C 213.816406 96.019531 213.660156 96.488281 213.753906 96.945312 L 217.121094 113.269531 C 217.148438 113.398438 217.097656 113.53125 216.988281 113.609375 C 216.882812 113.6875 216.738281 113.695312 216.625 113.628906 L 202.128906 105.359375 C 201.726562 105.128906 201.230469 105.128906 200.828125 105.359375 L 186.332031 113.628906 C 186.214844 113.695312 186.074219 113.6875 185.964844 113.609375 C 185.859375 113.53125 185.804688 113.398438 185.832031 113.269531 L 189.199219 96.945312 C 189.292969 96.488281 189.140625 96.019531 188.796875 95.707031 L 176.503906 84.507812 C 176.402344 84.421875 176.367188 84.28125 176.40625 84.15625 C 176.449219 84.027344 176.5625 83.9375 176.691406 83.921875 L 193.234375 82.09375 C 193.695312 82.042969 194.09375 81.75 194.285156 81.328125 L 201.167969 66.097656 C 201.222656 65.976562 201.34375 65.898438 201.476562 65.898438 C 201.609375 65.898438 201.730469 65.976562 201.785156 66.097656 Z M 201.785156 66.097656 " clip-rule="nonzero"/></clipPath><clipPath id="2eebaa4179"><path d="M 235.183594 65.796875 L 285.589844 65.796875 L 285.589844 113.730469 L 235.183594 113.730469 Z M 235.183594 65.796875 " clip-rule="nonzero"/></clipPath><clipPath id="cfa2ee9eca"><path d="M 260.65625 66.097656 L 267.542969 81.335938 C 267.734375 81.761719 268.136719 82.050781 268.597656 82.101562 L 285.148438 83.933594 C 285.28125 83.949219 285.394531 84.039062 285.433594 84.164062 C 285.476562 84.292969 285.4375 84.429688 285.339844 84.519531 L 273.039062 95.726562 C 272.695312 96.039062 272.539062 96.507812 272.632812 96.964844 L 276.003906 113.296875 C 276.03125 113.429688 275.980469 113.5625 275.871094 113.640625 C 275.761719 113.71875 275.621094 113.726562 275.503906 113.660156 L 261 105.382812 C 260.597656 105.152344 260.101562 105.152344 259.699219 105.382812 L 245.195312 113.660156 C 245.078125 113.726562 244.933594 113.71875 244.828125 113.640625 C 244.71875 113.5625 244.667969 113.429688 244.695312 113.296875 L 248.0625 96.964844 C 248.15625 96.507812 248.003906 96.039062 247.660156 95.726562 L 235.359375 84.519531 C 235.261719 84.429688 235.222656 84.292969 235.265625 84.164062 C 235.304688 84.039062 235.417969 83.949219 235.550781 83.933594 L 252.101562 82.101562 C 252.5625 82.050781 252.960938 81.761719 253.152344 81.335938 L 260.039062 66.097656 C 260.09375 65.976562 260.214844 65.898438 260.347656 65.898438 C 260.480469 65.898438 260.601562 65.976562 260.65625 66.097656 Z M 260.65625 66.097656 " clip-rule="nonzero"/></clipPath><clipPath id="f022dd3077"><path d="M 0.183594 0.796875 L 50.589844 0.796875 L 50.589844 48.730469 L 0.183594 48.730469 Z M 0.183594 0.796875 " clip-rule="nonzero"/></clipPath><clipPath id="9500171d51"><path d="M 25.65625 1.097656 L 32.542969 16.335938 C 32.734375 16.761719 33.136719 17.050781 33.597656 17.101562 L 50.148438 18.933594 C 50.28125 18.949219 50.394531 19.039062 50.433594 19.164062 C 50.476562 19.292969 50.4375 19.429688 50.339844 19.519531 L 38.039062 30.726562 C 37.695312 31.039062 37.539062 31.507812 37.632812 31.964844 L 41.003906 48.296875 C 41.03125 48.429688 40.980469 48.5625 40.871094 48.640625 C 40.761719 48.71875 40.621094 48.726562 40.503906 48.660156 L 26 40.382812 C 25.597656 40.152344 25.101562 40.152344 24.699219 40.382812 L 10.195312 48.660156 C 10.078125 48.726562 9.933594 48.71875 9.828125 48.640625 C 9.71875 48.5625 9.667969 48.429688 9.695312 48.296875 L 13.0625 31.964844 C 13.15625 31.507812 13.003906 31.039062 12.660156 30.726562 L 0.359375 19.519531 C 0.261719 19.429688 0.222656 19.292969 0.265625 19.164062 C 0.304688 19.039062 0.417969 18.949219 0.550781 18.933594 L 17.101562 17.101562 C 17.5625 17.050781 17.960938 16.761719 18.152344 16.335938 L 25.039062 1.097656 C 25.09375 0.976562 25.214844 0.898438 25.347656 0.898438 C 25.480469 0.898438 25.601562 0.976562 25.65625 1.097656 Z M 25.65625 1.097656 " clip-rule="nonzero"/></clipPath><clipPath id="29498dd5ab"><rect x="0" width="51" y="0" height="49"/></clipPath><clipPath id="17d04decbb"><path d="M 235 65.417969 L 285.871094 65.417969 L 285.871094 113.054688 L 235 113.054688 Z M 235 65.417969 " clip-rule="nonzero"/></clipPath><clipPath id="b7ad8acb03"><path d="M 260.652344 66.097656 L 267.53125 81.328125 C 267.722656 81.75 268.125 82.042969 268.585938 82.09375 L 285.125 83.921875 C 285.257812 83.9375 285.371094 84.027344 285.410156 84.15625 C 285.453125 84.28125 285.414062 84.421875 285.316406 84.507812 L 273.023438 95.707031 C 272.679688 96.019531 272.527344 96.488281 272.621094 96.945312 L 275.988281 113.269531 C 276.011719 113.398438 275.960938 113.53125 275.855469 113.609375 C 275.746094 113.6875 275.601562 113.695312 275.488281 113.628906 L 260.992188 105.359375 C 260.589844 105.128906 260.09375 105.128906 259.691406 105.359375 L 245.195312 113.628906 C 245.082031 113.695312 244.9375 113.6875 244.828125 113.609375 C 244.722656 113.53125 244.667969 113.398438 244.695312 113.269531 L 248.0625 96.945312 C 248.15625 96.488281 248.003906 96.019531 247.660156 95.707031 L 235.367188 84.507812 C 235.269531 84.421875 235.230469 84.28125 235.273438 84.15625 C 235.3125 84.027344 235.425781 83.9375 235.558594 83.921875 L 252.097656 82.09375 C 252.558594 82.042969 252.960938 81.75 253.152344 81.328125 L 260.03125 66.097656 C 260.089844 65.976562 260.207031 65.898438 260.339844 65.898438 C 260.476562 65.898438 260.59375 65.976562 260.652344 66.097656 Z M 260.652344 66.097656 " clip-rule="nonzero"/></clipPath><clipPath id="a130b1e9da"><rect x="0" width="290" y="0" height="118"/></clipPath></defs><g clip-path="url(#9ca12219b2)"><g clip-path="url(#1b34e8e06b)"><g transform="matrix(1, 0, 0, 1, 2, 2)"><g clip-path="url(#efe9b9353f)"><g clip-path="url(#b765649502)"><g clip-path="url(#c4dd36dd23)"><path fill="#104762" d="M 0.664062 0.664062 L 295.335938 0.664062 L 295.335938 295.335938 L 0.664062 295.335938 Z M 0.664062 0.664062 " fill-opacity="1" fill-rule="nonzero"/></g></g></g></g></g></g><g clip-path="url(#ff31dd5170)"><g clip-path="url(#71dbf2b97b)"><path stroke-linecap="butt" transform="matrix(0.75, 0, 0, 0.75, 2.662506, 2.6625)" fill="none" stroke-linejoin="miter" d="M 14.002077 0.00208362 L 378.892732 0.00208362 C 382.606274 0.00208362 386.163565 1.476042 388.788566 4.101042 C 391.413566 6.726043 392.892733 10.288543 392.892733 14.002085 L 392.892733 378.89274 C 392.892733 382.606282 391.413566 386.163573 388.788566 388.788574 C 386.163565 391.413574 382.606274 392.892741 378.892732 392.892741 L 14.002077 392.892741 C 10.288535 392.892741 6.726035 391.413574 4.101034 388.788574 C 1.476034 386.163573 0.00207562 382.606282 0.00207562 378.89274 L 0.00207562 14.002085 C 0.00207562 10.288543 1.476034 6.726043 4.101034 4.101042 C 6.726035 1.476042 10.288535 0.00208362 14.002077 0.00208362 Z M 14.002077 0.00208362 " stroke="#000000" stroke-width="6" stroke-opacity="1" stroke-miterlimit="4"/></g></g><g transform="matrix(1, 0, 0, 1, 5, 91)"><g clip-path="url(#a130b1e9da)"><g clip-path="url(#da1511c109)"><g clip-path="url(#6d48926d0d)"><g transform="matrix(1, 0, 0, 1, 4, 4)"><g clip-path="url(#6dad74b6a3)"><g clip-path="url(#8580bc9bb9)"><g clip-path="url(#2cdd67ed0d)"><path fill="#ffde59" d="M 0.105469 -0.113281 L 51.273438 -0.113281 L 51.273438 48.582031 L 0.105469 48.582031 Z M 0.105469 -0.113281 " fill-opacity="1" fill-rule="nonzero"/></g></g></g></g></g></g><g clip-path="url(#94f8fe7d6e)"><g clip-path="url(#0d7a92337a)"><path stroke-linecap="butt" transform="matrix(2.268469, 0, 0, 2.268469, 4.114185, 3.888264)" fill="none" stroke-linejoin="miter" d="M 11.390473 0.300665 L 14.424595 7.014649 C 14.508972 7.200623 14.684613 7.329771 14.887806 7.352157 L 22.180375 8.158041 C 22.238922 8.164929 22.287137 8.204535 22.306079 8.259638 C 22.323299 8.316463 22.307801 8.376732 22.264752 8.416338 L 16.843971 13.353243 C 16.692437 13.491001 16.62528 13.697638 16.666608 13.89911 L 18.150951 21.093525 C 18.163005 21.152073 18.140619 21.21062 18.092404 21.245059 C 18.044188 21.279499 17.982197 21.282943 17.930538 21.253669 L 11.540285 17.608246 C 11.362921 17.506649 11.14423 17.506649 10.966867 17.608246 L 4.578336 21.253669 C 4.526677 21.282943 4.462963 21.279499 4.41647 21.245059 C 4.368255 21.21062 4.345869 21.152073 4.357923 21.093525 L 5.842266 13.89911 C 5.883594 13.697638 5.814715 13.491001 5.664903 13.353243 L 0.244122 8.416338 C 0.201073 8.376732 0.183853 8.316463 0.202795 8.259638 C 0.221736 8.204535 0.269952 8.164929 0.328499 8.158041 L 7.619345 7.352157 C 7.822539 7.329771 7.999902 7.200623 8.084279 7.014649 L 11.118401 0.300665 C 11.142508 0.247283 11.19589 0.212844 11.254437 0.212844 C 11.312984 0.212844 11.366365 0.247283 11.390473 0.300665 Z M 11.390473 0.300665 " stroke="#000000" stroke-width="0.661239" stroke-opacity="1" stroke-miterlimit="4"/></g></g><g clip-path="url(#d0a891a919)"><g clip-path="url(#d6066e4911)"><g transform="matrix(1, 0, 0, 1, 61, 4)"><g clip-path="url(#c8ee8c7649)"><g clip-path="url(#e0a8655bf4)"><g clip-path="url(#b773e9ea83)"><path fill="#ffde59" d="M 0.140625 -0.113281 L 51.308594 -0.113281 L 51.308594 48.582031 L 0.140625 48.582031 Z M 0.140625 -0.113281 " fill-opacity="1" fill-rule="nonzero"/></g></g></g></g></g></g><g clip-path="url(#cd61cee847)"><g clip-path="url(#d2c3bd58f1)"><path stroke-linecap="butt" transform="matrix(2.268469, 0, 0, 2.268469, 61.147709, 3.888264)" fill="none" stroke-linejoin="miter" d="M 11.389471 0.300665 L 14.423593 7.014649 C 14.507969 7.200623 14.685333 7.329771 14.888526 7.352157 L 22.179373 8.158041 C 22.23792 8.164929 22.287857 8.204535 22.305077 8.259638 C 22.324019 8.316463 22.306799 8.376732 22.26375 8.416338 L 16.844691 13.353243 C 16.693157 13.491001 16.626 13.697638 16.667327 13.89911 L 18.151671 21.093525 C 18.162003 21.152073 18.139617 21.21062 18.093124 21.245059 C 18.044908 21.279499 17.981195 21.282943 17.931258 21.253669 L 11.541005 17.608246 C 11.363641 17.506649 11.14495 17.506649 10.967587 17.608246 L 4.577334 21.253669 C 4.527396 21.282943 4.463683 21.279499 4.415468 21.245059 C 4.368975 21.21062 4.344867 21.152073 4.356921 21.093525 L 5.841264 13.89911 C 5.882591 13.697638 5.815434 13.491001 5.663901 13.353243 L 0.244842 8.416338 C 0.200071 8.376732 0.184573 8.316463 0.203514 8.259638 C 0.220734 8.204535 0.270672 8.164929 0.329219 8.158041 L 7.620065 7.352157 C 7.823258 7.329771 8.000622 7.200623 8.084999 7.014649 L 11.117399 0.300665 C 11.141506 0.247283 11.194888 0.212844 11.253435 0.212844 C 11.311982 0.212844 11.365363 0.247283 11.389471 0.300665 Z M 11.389471 0.300665 " stroke="#000000" stroke-width="0.661239" stroke-opacity="1" stroke-miterlimit="4"/></g></g><g clip-path="url(#595a223ef4)"><g clip-path="url(#99cc7fda0d)"><g transform="matrix(1, 0, 0, 1, 118, 4)"><g clip-path="url(#696775f3f8)"><g clip-path="url(#53aa9d5fec)"><g clip-path="url(#530c09ae50)"><path fill="#8885ba" d="M 0.121094 -0.113281 L 51.289062 -0.113281 L 51.289062 48.582031 L 0.121094 48.582031 Z M 0.121094 -0.113281 " fill-opacity="1" fill-rule="nonzero"/></g></g></g></g></g></g><g clip-path="url(#f5f1f260bc)"><g clip-path="url(#e2fcccd4f3)"><path stroke-linecap="butt" transform="matrix(2.268469, 0, 0, 2.268469, 118.127686, 3.888264)" fill="none" stroke-linejoin="miter" d="M 11.389688 0.300665 L 14.423809 7.014649 C 14.508186 7.200623 14.68555 7.329771 14.888743 7.352157 L 22.17959 8.158041 C 22.238137 8.164929 22.288074 8.204535 22.305294 8.259638 C 22.324236 8.316463 22.307016 8.376732 22.263966 8.416338 L 16.844908 13.353243 C 16.693374 13.491001 16.624495 13.697638 16.665822 13.89911 L 18.150166 21.093525 C 18.162219 21.152073 18.139834 21.21062 18.091618 21.245059 C 18.045125 21.279499 17.981412 21.282943 17.929753 21.253669 L 11.541222 17.608246 C 11.363858 17.506649 11.145167 17.506649 10.967804 17.608246 L 4.57755 21.253669 C 4.525891 21.282943 4.4639 21.279499 4.415685 21.245059 C 4.369191 21.21062 4.345084 21.152073 4.357138 21.093525 L 5.841481 13.89911 C 5.882808 13.697638 5.815651 13.491001 5.664117 13.353243 L 0.245059 8.416338 C 0.200287 8.376732 0.18479 8.316463 0.202009 8.259638 C 0.220951 8.204535 0.270888 8.164929 0.327714 8.158041 L 7.620282 7.352157 C 7.823475 7.329771 7.999117 7.200623 8.083494 7.014649 L 11.117615 0.300665 C 11.141723 0.247283 11.195104 0.212844 11.253652 0.212844 C 11.312199 0.212844 11.36558 0.247283 11.389688 0.300665 Z M 11.389688 0.300665 " stroke="#000000" stroke-width="0.661239" stroke-opacity="1" stroke-miterlimit="4"/></g></g><g clip-path="url(#bdf06d81d1)"><g clip-path="url(#728d0cf4e3)"><g transform="matrix(1, 0, 0, 1, 176, 4)"><g clip-path="url(#8f292374cd)"><g clip-path="url(#d1c7c840a7)"><g clip-path="url(#4684afd987)"><path fill="#8885ba" d="M -0.0585938 -0.113281 L 51.109375 -0.113281 L 51.109375 48.582031 L -0.0585938 48.582031 Z M -0.0585938 -0.113281 " fill-opacity="1" fill-rule="nonzero"/></g></g></g></g></g></g><g clip-path="url(#105e4c050d)"><g clip-path="url(#d5f6002393)"><path stroke-linecap="butt" transform="matrix(2.268469, 0, 0, 2.268469, 175.948054, 3.888264)" fill="none" stroke-linejoin="miter" d="M 11.389663 0.300665 L 14.423785 7.014649 C 14.508162 7.200623 14.685525 7.329771 14.888718 7.352157 L 22.179565 8.158041 C 22.238112 8.164929 22.28805 8.204535 22.305269 8.259638 C 22.324211 8.316463 22.306991 8.376732 22.263942 8.416338 L 16.844883 13.353243 C 16.693349 13.491001 16.62447 13.697638 16.665798 13.89911 L 18.150141 21.093525 C 18.162195 21.152073 18.139809 21.21062 18.091594 21.245059 C 18.045101 21.279499 17.981387 21.282943 17.93145 21.253669 L 11.541197 17.608246 C 11.363834 17.506649 11.145143 17.506649 10.967779 17.608246 L 4.577526 21.253669 C 4.525867 21.282943 4.463876 21.279499 4.41566 21.245059 C 4.369167 21.21062 4.345059 21.152073 4.357113 21.093525 L 5.841456 13.89911 C 5.882784 13.697638 5.815627 13.491001 5.664093 13.353243 L 0.245034 8.416338 C 0.200263 8.376732 0.184765 8.316463 0.201985 8.259638 C 0.220927 8.204535 0.270864 8.164929 0.327689 8.158041 L 7.620258 7.352157 C 7.823451 7.329771 7.999092 7.200623 8.083469 7.014649 L 11.117591 0.300665 C 11.141699 0.247283 11.19508 0.212844 11.253627 0.212844 C 11.312174 0.212844 11.365556 0.247283 11.389663 0.300665 Z M 11.389663 0.300665 " stroke="#000000" stroke-width="0.661239" stroke-opacity="1" stroke-miterlimit="4"/></g></g><g clip-path="url(#b399038c5e)"><g clip-path="url(#aa543b0359)"><g transform="matrix(1, 0, 0, 1, 235, 4)"><g clip-path="url(#d342e6ae19)"><g clip-path="url(#fcac1350a6)"><g clip-path="url(#f7c1faf5ef)"><path fill="#8885ba" d="M -0.195312 -0.113281 L 50.972656 -0.113281 L 50.972656 48.582031 L -0.195312 48.582031 Z M -0.195312 -0.113281 " fill-opacity="1" fill-rule="nonzero"/></g></g></g></g></g></g><g clip-path="url(#1db3a74d50)"><g clip-path="url(#8c5228a61d)"><path stroke-linecap="butt" transform="matrix(2.268469, 0, 0, 2.268469, 234.812179, 3.888264)" fill="none" stroke-linejoin="miter" d="M 11.391013 0.300665 L 14.423413 7.014649 C 14.50779 7.200623 14.685153 7.329771 14.888346 7.352157 L 22.179193 8.158041 C 22.23774 8.164929 22.287677 8.204535 22.304897 8.259638 C 22.323839 8.316463 22.306619 8.376732 22.26357 8.416338 L 16.844511 13.353243 C 16.692977 13.491001 16.62582 13.697638 16.667148 13.89911 L 18.151491 21.093525 C 18.161823 21.152073 18.139437 21.21062 18.092944 21.245059 C 18.044728 21.279499 17.981015 21.282943 17.931078 21.253669 L 11.540825 17.608246 C 11.363461 17.506649 11.14477 17.506649 10.967407 17.608246 L 4.577154 21.253669 C 4.527216 21.282943 4.463503 21.279499 4.415288 21.245059 C 4.368795 21.21062 4.344687 21.152073 4.356741 21.093525 L 5.841084 13.89911 C 5.882412 13.697638 5.815255 13.491001 5.663721 13.353243 L 0.244662 8.416338 C 0.201613 8.376732 0.184393 8.316463 0.203335 8.259638 C 0.220554 8.204535 0.270492 8.164929 0.329039 8.158041 L 7.619885 7.352157 C 7.823079 7.329771 8.000442 7.200623 8.084819 7.014649 L 11.117219 0.300665 C 11.143048 0.247283 11.194708 0.212844 11.253255 0.212844 C 11.313524 0.212844 11.365183 0.247283 11.391013 0.300665 Z M 11.391013 0.300665 " stroke="#000000" stroke-width="0.661239" stroke-opacity="1" stroke-miterlimit="4"/></g></g><g clip-path="url(#db4bbcea81)"><g clip-path="url(#e0c17f75b8)"><g transform="matrix(1, 0, 0, 1, 4, 65)"><g clip-path="url(#9e8c4e9e69)"><g clip-path="url(#2a8f4e35af)"><g clip-path="url(#0d83f491db)"><path fill="#8885ba" d="M 0.105469 0.417969 L 51.273438 0.417969 L 51.273438 49.113281 L 0.105469 49.113281 Z M 0.105469 0.417969 " fill-opacity="1" fill-rule="nonzero"/></g></g></g></g></g></g><g clip-path="url(#9a8f5fc248)"><g clip-path="url(#57a09044bf)"><path stroke-linecap="butt" transform="matrix(2.268469, 0, 0, 2.268469, 4.114185, 65.41615)" fill="none" stroke-linejoin="miter" d="M 11.390473 0.300426 L 14.424595 7.01441 C 14.508972 7.200384 14.684613 7.329532 14.887806 7.351918 L 22.180375 8.157802 C 22.238922 8.16469 22.287137 8.204296 22.306079 8.261121 C 22.323299 8.316224 22.307801 8.378215 22.264752 8.416099 L 16.843971 13.353004 C 16.692437 13.490762 16.62528 13.697399 16.666608 13.898871 L 18.150951 21.095008 C 18.163005 21.151834 18.140619 21.210381 18.092404 21.24482 C 18.044188 21.27926 17.982197 21.282704 17.930538 21.25343 L 11.540285 17.608007 C 11.362921 17.50641 11.14423 17.50641 10.966867 17.608007 L 4.578336 21.25343 C 4.526677 21.282704 4.462963 21.27926 4.41647 21.24482 C 4.368255 21.210381 4.345869 21.151834 4.357923 21.095008 L 5.842266 13.898871 C 5.883594 13.697399 5.814715 13.490762 5.664903 13.353004 L 0.244122 8.416099 C 0.201073 8.378215 0.183853 8.316224 0.202795 8.261121 C 0.221736 8.204296 0.269952 8.16469 0.328499 8.157802 L 7.619345 7.351918 C 7.822539 7.329532 7.999902 7.200384 8.084279 7.01441 L 11.118401 0.300426 C 11.142508 0.247044 11.19589 0.212605 11.254437 0.212605 C 11.312984 0.212605 11.366365 0.247044 11.390473 0.300426 Z M 11.390473 0.300426 " stroke="#000000" stroke-width="0.661239" stroke-opacity="1" stroke-miterlimit="4"/></g></g><g clip-path="url(#476d2089a2)"><g clip-path="url(#48932cb32a)"><g transform="matrix(1, 0, 0, 1, 61, 65)"><g clip-path="url(#dab25c6ce8)"><g clip-path="url(#e0a453edbf)"><g clip-path="url(#8a9208df0b)"><path fill="#8885ba" d="M 0.140625 0.417969 L 51.308594 0.417969 L 51.308594 49.113281 L 0.140625 49.113281 Z M 0.140625 0.417969 " fill-opacity="1" fill-rule="nonzero"/></g></g></g></g></g></g><g clip-path="url(#aa7b8be560)"><g clip-path="url(#bed602fd95)"><path stroke-linecap="butt" transform="matrix(2.268469, 0, 0, 2.268469, 61.147709, 65.41615)" fill="none" stroke-linejoin="miter" d="M 11.389471 0.300426 L 14.423593 7.01441 C 14.507969 7.200384 14.685333 7.329532 14.888526 7.351918 L 22.179373 8.157802 C 22.23792 8.16469 22.287857 8.204296 22.305077 8.261121 C 22.324019 8.316224 22.306799 8.378215 22.26375 8.416099 L 16.844691 13.353004 C 16.693157 13.490762 16.626 13.697399 16.667327 13.898871 L 18.151671 21.095008 C 18.162003 21.151834 18.139617 21.210381 18.093124 21.24482 C 18.044908 21.27926 17.981195 21.282704 17.931258 21.25343 L 11.541005 17.608007 C 11.363641 17.50641 11.14495 17.50641 10.967587 17.608007 L 4.577334 21.25343 C 4.527396 21.282704 4.463683 21.27926 4.415468 21.24482 C 4.368975 21.210381 4.344867 21.151834 4.356921 21.095008 L 5.841264 13.898871 C 5.882591 13.697399 5.815434 13.490762 5.663901 13.353004 L 0.244842 8.416099 C 0.200071 8.378215 0.184573 8.316224 0.203514 8.261121 C 0.220734 8.204296 0.270672 8.16469 0.329219 8.157802 L 7.620065 7.351918 C 7.823258 7.329532 8.000622 7.200384 8.084999 7.01441 L 11.117399 0.300426 C 11.141506 0.247044 11.194888 0.212605 11.253435 0.212605 C 11.311982 0.212605 11.365363 0.247044 11.389471 0.300426 Z M 11.389471 0.300426 " stroke="#000000" stroke-width="0.661239" stroke-opacity="1" stroke-miterlimit="4"/></g></g><g clip-path="url(#596a36f7da)"><g clip-path="url(#d8cccddfa2)"><g transform="matrix(1, 0, 0, 1, 118, 65)"><g clip-path="url(#ed166c9f47)"><g clip-path="url(#cd385ee4b1)"><g clip-path="url(#34dbde2101)"><path fill="#8885ba" d="M 0.121094 0.417969 L 51.289062 0.417969 L 51.289062 49.113281 L 0.121094 49.113281 Z M 0.121094 0.417969 " fill-opacity="1" fill-rule="nonzero"/></g></g></g></g></g></g><g clip-path="url(#d42437cc4e)"><g clip-path="url(#789cd544d4)"><path stroke-linecap="butt" transform="matrix(2.268469, 0, 0, 2.268469, 118.127686, 65.41615)" fill="none" stroke-linejoin="miter" d="M 11.389688 0.300426 L 14.423809 7.01441 C 14.508186 7.200384 14.68555 7.329532 14.888743 7.351918 L 22.17959 8.157802 C 22.238137 8.16469 22.288074 8.204296 22.305294 8.261121 C 22.324236 8.316224 22.307016 8.378215 22.263966 8.416099 L 16.844908 13.353004 C 16.693374 13.490762 16.624495 13.697399 16.665822 13.898871 L 18.150166 21.095008 C 18.162219 21.151834 18.139834 21.210381 18.091618 21.24482 C 18.045125 21.27926 17.981412 21.282704 17.929753 21.25343 L 11.541222 17.608007 C 11.363858 17.50641 11.145167 17.50641 10.967804 17.608007 L 4.57755 21.25343 C 4.525891 21.282704 4.4639 21.27926 4.415685 21.24482 C 4.369191 21.210381 4.345084 21.151834 4.357138 21.095008 L 5.841481 13.898871 C 5.882808 13.697399 5.815651 13.490762 5.664117 13.353004 L 0.245059 8.416099 C 0.200287 8.378215 0.18479 8.316224 0.202009 8.261121 C 0.220951 8.204296 0.270888 8.16469 0.327714 8.157802 L 7.620282 7.351918 C 7.823475 7.329532 7.999117 7.200384 8.083494 7.01441 L 11.117615 0.300426 C 11.141723 0.247044 11.195104 0.212605 11.253652 0.212605 C 11.312199 0.212605 11.36558 0.247044 11.389688 0.300426 Z M 11.389688 0.300426 " stroke="#000000" stroke-width="0.661239" stroke-opacity="1" stroke-miterlimit="4"/></g></g><g clip-path="url(#f0e9e6c152)"><g clip-path="url(#d061cc625f)"><g transform="matrix(1, 0, 0, 1, 176, 65)"><g clip-path="url(#5636b87d2a)"><g clip-path="url(#1e6c356d47)"><g clip-path="url(#33162b53c7)"><path fill="#8885ba" d="M -0.0585938 0.417969 L 51.109375 0.417969 L 51.109375 49.113281 L -0.0585938 49.113281 Z M -0.0585938 0.417969 " fill-opacity="1" fill-rule="nonzero"/></g></g></g></g></g></g><g clip-path="url(#108d2e296e)"><g clip-path="url(#8c8a78dd92)"><path stroke-linecap="butt" transform="matrix(2.268469, 0, 0, 2.268469, 175.948054, 65.41615)" fill="none" stroke-linejoin="miter" d="M 11.389663 0.300426 L 14.423785 7.01441 C 14.508162 7.200384 14.685525 7.329532 14.888718 7.351918 L 22.179565 8.157802 C 22.238112 8.16469 22.28805 8.204296 22.305269 8.261121 C 22.324211 8.316224 22.306991 8.378215 22.263942 8.416099 L 16.844883 13.353004 C 16.693349 13.490762 16.62447 13.697399 16.665798 13.898871 L 18.150141 21.095008 C 18.162195 21.151834 18.139809 21.210381 18.091594 21.24482 C 18.045101 21.27926 17.981387 21.282704 17.93145 21.25343 L 11.541197 17.608007 C 11.363834 17.50641 11.145143 17.50641 10.967779 17.608007 L 4.577526 21.25343 C 4.525867 21.282704 4.463876 21.27926 4.41566 21.24482 C 4.369167 21.210381 4.345059 21.151834 4.357113 21.095008 L 5.841456 13.898871 C 5.882784 13.697399 5.815627 13.490762 5.664093 13.353004 L 0.245034 8.416099 C 0.200263 8.378215 0.184765 8.316224 0.201985 8.261121 C 0.220927 8.204296 0.270864 8.16469 0.327689 8.157802 L 7.620258 7.351918 C 7.823451 7.329532 7.999092 7.200384 8.083469 7.01441 L 11.117591 0.300426 C 11.141699 0.247044 11.19508 0.212605 11.253627 0.212605 C 11.312174 0.212605 11.365556 0.247044 11.389663 0.300426 Z M 11.389663 0.300426 " stroke="#000000" stroke-width="0.661239" stroke-opacity="1" stroke-miterlimit="4"/></g></g><g clip-path="url(#2eebaa4179)"><g clip-path="url(#cfa2ee9eca)"><g transform="matrix(1, 0, 0, 1, 235, 65)"><g clip-path="url(#29498dd5ab)"><g clip-path="url(#f022dd3077)"><g clip-path="url(#9500171d51)"><path fill="#8885ba" d="M -0.195312 0.417969 L 50.972656 0.417969 L 50.972656 49.113281 L -0.195312 49.113281 Z M -0.195312 0.417969 " fill-opacity="1" fill-rule="nonzero"/></g></g></g></g></g></g><g clip-path="url(#17d04decbb)"><g clip-path="url(#b7ad8acb03)"><path stroke-linecap="butt" transform="matrix(2.268469, 0, 0, 2.268469, 234.812179, 65.41615)" fill="none" stroke-linejoin="miter" d="M 11.391013 0.300426 L 14.423413 7.01441 C 14.50779 7.200384 14.685153 7.329532 14.888346 7.351918 L 22.179193 8.157802 C 22.23774 8.16469 22.287677 8.204296 22.304897 8.261121 C 22.323839 8.316224 22.306619 8.378215 22.26357 8.416099 L 16.844511 13.353004 C 16.692977 13.490762 16.62582 13.697399 16.667148 13.898871 L 18.151491 21.095008 C 18.161823 21.151834 18.139437 21.210381 18.092944 21.24482 C 18.044728 21.27926 17.981015 21.282704 17.931078 21.25343 L 11.540825 17.608007 C 11.363461 17.50641 11.14477 17.50641 10.967407 17.608007 L 4.577154 21.25343 C 4.527216 21.282704 4.463503 21.27926 4.415288 21.24482 C 4.368795 21.210381 4.344687 21.151834 4.356741 21.095008 L 5.841084 13.898871 C 5.882412 13.697399 5.815255 13.490762 5.663721 13.353004 L 0.244662 8.416099 C 0.201613 8.378215 0.184393 8.316224 0.203335 8.261121 C 0.220554 8.204296 0.270492 8.16469 0.329039 8.157802 L 7.619885 7.351918 C 7.823079 7.329532 8.000442 7.200384 8.084819 7.01441 L 11.117219 0.300426 C 11.143048 0.247044 11.194708 0.212605 11.253255 0.212605 C 11.313524 0.212605 11.365183 0.247044 11.391013 0.300426 Z M 11.391013 0.300426 " stroke="#000000" stroke-width="0.661239" stroke-opacity="1" stroke-miterlimit="4"/></g></g></g></g></svg>