<svg xmlns="http://www.w3.org/2000/svg" xmlns:xlink="http://www.w3.org/1999/xlink" width="400" zoomAndPan="magnify" viewBox="0 0 300 299.999988" height="400" preserveAspectRatio="xMidYMid meet" version="1.0"><defs><clipPath id="c56df0a3b0"><path d="M 2 2 L 297.335938 2 L 297.335938 297.335938 L 2 297.335938 Z M 2 2 " clip-rule="nonzero"/></clipPath><clipPath id="9c273daef8"><path d="M 13.164062 2.664062 L 286.835938 2.664062 C 289.621094 2.664062 292.292969 3.769531 294.261719 5.738281 C 296.230469 7.707031 297.335938 10.378906 297.335938 13.164062 L 297.335938 286.835938 C 297.335938 289.621094 296.230469 292.292969 294.261719 294.261719 C 292.292969 296.230469 289.621094 297.335938 286.835938 297.335938 L 13.164062 297.335938 C 10.378906 297.335938 7.707031 296.230469 5.738281 294.261719 C 3.769531 292.292969 2.664062 289.621094 2.664062 286.835938 L 2.664062 13.164062 C 2.664062 10.378906 3.769531 7.707031 5.738281 5.738281 C 7.707031 3.769531 10.378906 2.664062 13.164062 2.664062 Z M 13.164062 2.664062 " clip-rule="nonzero"/></clipPath><clipPath id="c78ab49e3c"><path d="M 0.640625 0.640625 L 295.335938 0.640625 L 295.335938 295.335938 L 0.640625 295.335938 Z M 0.640625 0.640625 " clip-rule="nonzero"/></clipPath><clipPath id="f21ea461de"><path d="M 11.164062 0.664062 L 284.835938 0.664062 C 287.621094 0.664062 290.292969 1.769531 292.261719 3.738281 C 294.230469 5.707031 295.335938 8.378906 295.335938 11.164062 L 295.335938 284.835938 C 295.335938 287.621094 294.230469 290.292969 292.261719 292.261719 C 290.292969 294.230469 287.621094 295.335938 284.835938 295.335938 L 11.164062 295.335938 C 8.378906 295.335938 5.707031 294.230469 3.738281 292.261719 C 1.769531 290.292969 0.664062 287.621094 0.664062 284.835938 L 0.664062 11.164062 C 0.664062 8.378906 1.769531 5.707031 3.738281 3.738281 C 5.707031 1.769531 8.378906 0.664062 11.164062 0.664062 Z M 11.164062 0.664062 " clip-rule="nonzero"/></clipPath><clipPath id="3e1ccb2b30"><rect x="0" width="296" y="0" height="296"/></clipPath><clipPath id="a39a2f7286"><path d="M 2.664062 2.664062 L 297.414062 2.664062 L 297.414062 297.414062 L 2.664062 297.414062 Z M 2.664062 2.664062 " clip-rule="nonzero"/></clipPath><clipPath id="241b1d7318"><path d="M 13.164062 2.664062 L 286.832031 2.664062 C 289.617188 2.664062 292.285156 3.769531 294.253906 5.738281 C 296.222656 7.707031 297.332031 10.378906 297.332031 13.164062 L 297.332031 286.832031 C 297.332031 289.617188 296.222656 292.285156 294.253906 294.253906 C 292.285156 296.222656 289.617188 297.332031 286.832031 297.332031 L 13.164062 297.332031 C 10.378906 297.332031 7.707031 296.222656 5.738281 294.253906 C 3.769531 292.285156 2.664062 289.617188 2.664062 286.832031 L 2.664062 13.164062 C 2.664062 10.378906 3.769531 7.707031 5.738281 5.738281 C 7.707031 3.769531 10.378906 2.664062 13.164062 2.664062 Z M 13.164062 2.664062 " clip-rule="nonzero"/></clipPath><clipPath id="267d6f03aa"><path d="M 3.730469 3.695312 L 52.253906 3.695312 L 52.253906 49.839844 L 3.730469 49.839844 Z M 3.730469 3.695312 " clip-rule="nonzero"/></clipPath><clipPath id="ce30417431"><path d="M 28.261719 4.011719 L 34.871094 18.628906 C 35.0625 19.054688 35.460938 19.34375 35.925781 19.394531 L 51.800781 21.152344 C 51.933594 21.167969 52.046875 21.257812 52.085938 21.382812 C 52.128906 21.511719 52.089844 21.648438 51.992188 21.738281 L 40.191406 32.488281 C 39.847656 32.800781 39.695312 33.273438 39.789062 33.726562 L 43.019531 49.394531 C 43.046875 49.527344 42.996094 49.660156 42.886719 49.738281 C 42.777344 49.816406 42.636719 49.824219 42.519531 49.757812 L 28.605469 41.816406 C 28.203125 41.585938 27.707031 41.585938 27.304688 41.816406 L 13.390625 49.757812 C 13.273438 49.824219 13.128906 49.816406 13.023438 49.738281 C 12.914062 49.660156 12.863281 49.527344 12.890625 49.394531 L 16.121094 33.726562 C 16.214844 33.273438 16.0625 32.800781 15.71875 32.488281 L 3.917969 21.738281 C 3.820312 21.648438 3.78125 21.511719 3.824219 21.382812 C 3.863281 21.257812 3.976562 21.167969 4.109375 21.152344 L 19.984375 19.394531 C 20.449219 19.34375 20.847656 19.054688 21.039062 18.628906 L 27.644531 4.011719 C 27.699219 3.890625 27.820312 3.8125 27.953125 3.8125 C 28.085938 3.8125 28.207031 3.890625 28.261719 4.011719 Z M 28.261719 4.011719 " clip-rule="nonzero"/></clipPath><clipPath id="d17d1d768a"><path d="M 0.730469 0.695312 L 49.253906 0.695312 L 49.253906 46.839844 L 0.730469 46.839844 Z M 0.730469 0.695312 " clip-rule="nonzero"/></clipPath><clipPath id="05d2289b73"><path d="M 25.261719 1.011719 L 31.871094 15.628906 C 32.0625 16.054688 32.460938 16.34375 32.925781 16.394531 L 48.800781 18.152344 C 48.933594 18.167969 49.046875 18.257812 49.085938 18.382812 C 49.128906 18.511719 49.089844 18.648438 48.992188 18.738281 L 37.191406 29.488281 C 36.847656 29.800781 36.695312 30.273438 36.789062 30.726562 L 40.019531 46.394531 C 40.046875 46.527344 39.996094 46.660156 39.886719 46.738281 C 39.777344 46.816406 39.636719 46.824219 39.519531 46.757812 L 25.605469 38.816406 C 25.203125 38.585938 24.707031 38.585938 24.304688 38.816406 L 10.390625 46.757812 C 10.273438 46.824219 10.128906 46.816406 10.023438 46.738281 C 9.914062 46.660156 9.863281 46.527344 9.890625 46.394531 L 13.121094 30.726562 C 13.214844 30.273438 13.0625 29.800781 12.71875 29.488281 L 0.917969 18.738281 C 0.820312 18.648438 0.78125 18.511719 0.824219 18.382812 C 0.863281 18.257812 0.976562 18.167969 1.109375 18.152344 L 16.984375 16.394531 C 17.449219 16.34375 17.847656 16.054688 18.039062 15.628906 L 24.644531 1.011719 C 24.699219 0.890625 24.820312 0.8125 24.953125 0.8125 C 25.085938 0.8125 25.207031 0.890625 25.261719 1.011719 Z M 25.261719 1.011719 " clip-rule="nonzero"/></clipPath><clipPath id="de5053524c"><rect x="0" width="50" y="0" height="47"/></clipPath><clipPath id="430ec456a3"><path d="M 3.367188 3.328125 L 52.101562 3.328125 L 52.101562 50 L 3.367188 50 Z M 3.367188 3.328125 " clip-rule="nonzero"/></clipPath><clipPath id="6274fa2da5"><path d="M 28.257812 4.011719 L 34.863281 18.625 C 35.054688 19.046875 35.457031 19.339844 35.917969 19.390625 L 51.789062 21.144531 C 51.921875 21.160156 52.03125 21.25 52.074219 21.378906 C 52.117188 21.503906 52.078125 21.644531 51.980469 21.734375 L 40.183594 32.476562 C 39.839844 32.789062 39.6875 33.261719 39.78125 33.714844 L 43.011719 49.378906 C 43.039062 49.511719 42.984375 49.644531 42.878906 49.722656 C 42.769531 49.800781 42.625 49.808594 42.511719 49.742188 L 28.601562 41.804688 C 28.199219 41.574219 27.703125 41.574219 27.300781 41.804688 L 13.390625 49.742188 C 13.273438 49.808594 13.132812 49.800781 13.023438 49.722656 C 12.917969 49.644531 12.863281 49.511719 12.890625 49.378906 L 16.121094 33.714844 C 16.214844 33.261719 16.0625 32.789062 15.71875 32.476562 L 3.921875 21.734375 C 3.824219 21.644531 3.785156 21.503906 3.828125 21.378906 C 3.867188 21.25 3.980469 21.160156 4.113281 21.144531 L 19.984375 19.390625 C 20.445312 19.339844 20.847656 19.046875 21.039062 18.625 L 27.640625 4.011719 C 27.695312 3.890625 27.816406 3.8125 27.949219 3.8125 C 28.082031 3.8125 28.203125 3.890625 28.257812 4.011719 Z M 28.257812 4.011719 " clip-rule="nonzero"/></clipPath><clipPath id="bc76f7e406"><path d="M 58.632812 3.695312 L 107.160156 3.695312 L 107.160156 49.839844 L 58.632812 49.839844 Z M 58.632812 3.695312 " clip-rule="nonzero"/></clipPath><clipPath id="6c73bfaaf6"><path d="M 83.167969 4.011719 L 89.773438 18.628906 C 89.964844 19.054688 90.367188 19.34375 90.828125 19.394531 L 106.707031 21.152344 C 106.839844 21.167969 106.949219 21.257812 106.992188 21.382812 C 107.03125 21.511719 106.996094 21.648438 106.898438 21.738281 L 95.097656 32.488281 C 94.753906 32.800781 94.597656 33.273438 94.691406 33.726562 L 97.925781 49.394531 C 97.953125 49.527344 97.898438 49.660156 97.792969 49.738281 C 97.683594 49.816406 97.539062 49.824219 97.425781 49.757812 L 83.511719 41.816406 C 83.109375 41.585938 82.613281 41.585938 82.207031 41.816406 L 68.296875 49.757812 C 68.179688 49.824219 68.035156 49.816406 67.929688 49.738281 C 67.820312 49.660156 67.769531 49.527344 67.796875 49.394531 L 71.027344 33.726562 C 71.121094 33.273438 70.96875 32.800781 70.625 32.488281 L 58.824219 21.738281 C 58.722656 21.648438 58.6875 21.511719 58.726562 21.382812 C 58.769531 21.257812 58.882812 21.167969 59.011719 21.152344 L 74.890625 19.394531 C 75.351562 19.34375 75.753906 19.054688 75.945312 18.628906 L 82.550781 4.011719 C 82.605469 3.890625 82.726562 3.8125 82.859375 3.8125 C 82.992188 3.8125 83.113281 3.890625 83.167969 4.011719 Z M 83.167969 4.011719 " clip-rule="nonzero"/></clipPath><clipPath id="03078d416f"><path d="M 0.632812 0.695312 L 49.078125 0.695312 L 49.078125 46.839844 L 0.632812 46.839844 Z M 0.632812 0.695312 " clip-rule="nonzero"/></clipPath><clipPath id="52915ed2d4"><path d="M 25.167969 1.011719 L 31.773438 15.628906 C 31.964844 16.054688 32.367188 16.34375 32.828125 16.394531 L 48.707031 18.152344 C 48.839844 18.167969 48.949219 18.257812 48.992188 18.382812 C 49.03125 18.511719 48.996094 18.648438 48.898438 18.738281 L 37.097656 29.488281 C 36.753906 29.800781 36.597656 30.273438 36.691406 30.726562 L 39.925781 46.394531 C 39.953125 46.527344 39.898438 46.660156 39.792969 46.738281 C 39.683594 46.816406 39.539062 46.824219 39.425781 46.757812 L 25.511719 38.816406 C 25.109375 38.585938 24.613281 38.585938 24.207031 38.816406 L 10.296875 46.757812 C 10.179688 46.824219 10.035156 46.816406 9.929688 46.738281 C 9.820312 46.660156 9.769531 46.527344 9.796875 46.394531 L 13.027344 30.726562 C 13.121094 30.273438 12.96875 29.800781 12.625 29.488281 L 0.824219 18.738281 C 0.722656 18.648438 0.6875 18.511719 0.726562 18.382812 C 0.769531 18.257812 0.882812 18.167969 1.011719 18.152344 L 16.890625 16.394531 C 17.351562 16.34375 17.753906 16.054688 17.945312 15.628906 L 24.550781 1.011719 C 24.605469 0.890625 24.726562 0.8125 24.859375 0.8125 C 24.992188 0.8125 25.113281 0.890625 25.167969 1.011719 Z M 25.167969 1.011719 " clip-rule="nonzero"/></clipPath><clipPath id="a1ae1fcb5b"><rect x="0" width="50" y="0" height="47"/></clipPath><clipPath id="5d998708c9"><path d="M 58.273438 3.328125 L 107 3.328125 L 107 50 L 58.273438 50 Z M 58.273438 3.328125 " clip-rule="nonzero"/></clipPath><clipPath id="dd96866783"><path d="M 83.164062 4.011719 L 89.769531 18.625 C 89.960938 19.046875 90.359375 19.339844 90.824219 19.390625 L 106.695312 21.144531 C 106.828125 21.160156 106.9375 21.25 106.980469 21.378906 C 107.019531 21.503906 106.984375 21.644531 106.886719 21.734375 L 95.089844 32.476562 C 94.746094 32.789062 94.589844 33.261719 94.683594 33.714844 L 97.917969 49.378906 C 97.941406 49.511719 97.890625 49.644531 97.785156 49.722656 C 97.675781 49.800781 97.53125 49.808594 97.417969 49.742188 L 83.507812 41.804688 C 83.105469 41.574219 82.609375 41.574219 82.207031 41.804688 L 68.296875 49.742188 C 68.179688 49.808594 68.039062 49.800781 67.929688 49.722656 C 67.820312 49.644531 67.769531 49.511719 67.796875 49.378906 L 71.027344 33.714844 C 71.121094 33.261719 70.96875 32.789062 70.625 32.476562 L 58.828125 21.734375 C 58.730469 21.644531 58.691406 21.503906 58.734375 21.378906 C 58.773438 21.25 58.886719 21.160156 59.019531 21.144531 L 74.890625 19.390625 C 75.351562 19.339844 75.753906 19.046875 75.945312 18.625 L 82.546875 4.011719 C 82.601562 3.890625 82.722656 3.8125 82.855469 3.8125 C 82.988281 3.8125 83.109375 3.890625 83.164062 4.011719 Z M 83.164062 4.011719 " clip-rule="nonzero"/></clipPath><clipPath id="3401d47859"><path d="M 113.488281 3.695312 L 162 3.695312 L 162 49.839844 L 113.488281 49.839844 Z M 113.488281 3.695312 " clip-rule="nonzero"/></clipPath><clipPath id="96756f600a"><path d="M 138.023438 4.011719 L 144.628906 18.628906 C 144.820312 19.054688 145.222656 19.34375 145.683594 19.394531 L 161.5625 21.152344 C 161.695312 21.167969 161.804688 21.257812 161.847656 21.382812 C 161.886719 21.511719 161.851562 21.648438 161.753906 21.738281 L 149.949219 32.488281 C 149.605469 32.800781 149.453125 33.273438 149.546875 33.726562 L 152.777344 49.394531 C 152.804688 49.527344 152.753906 49.660156 152.644531 49.738281 C 152.539062 49.816406 152.394531 49.824219 152.28125 49.757812 L 138.367188 41.816406 C 137.960938 41.585938 137.464844 41.585938 137.0625 41.816406 L 123.148438 49.757812 C 123.035156 49.824219 122.890625 49.816406 122.78125 49.738281 C 122.675781 49.660156 122.621094 49.527344 122.648438 49.394531 L 125.882812 33.726562 C 125.976562 33.273438 125.824219 32.800781 125.480469 32.488281 L 113.675781 21.738281 C 113.578125 21.648438 113.542969 21.511719 113.582031 21.382812 C 113.625 21.257812 113.734375 21.167969 113.867188 21.152344 L 129.746094 19.394531 C 130.207031 19.34375 130.609375 19.054688 130.800781 18.628906 L 137.40625 4.011719 C 137.460938 3.890625 137.582031 3.8125 137.714844 3.8125 C 137.847656 3.8125 137.96875 3.890625 138.023438 4.011719 Z M 138.023438 4.011719 " clip-rule="nonzero"/></clipPath><clipPath id="49ab6a74aa"><path d="M 0.488281 0.695312 L 49 0.695312 L 49 46.839844 L 0.488281 46.839844 Z M 0.488281 0.695312 " clip-rule="nonzero"/></clipPath><clipPath id="661ab50bc6"><path d="M 25.023438 1.011719 L 31.628906 15.628906 C 31.820312 16.054688 32.222656 16.34375 32.683594 16.394531 L 48.5625 18.152344 C 48.695312 18.167969 48.804688 18.257812 48.847656 18.382812 C 48.886719 18.511719 48.851562 18.648438 48.753906 18.738281 L 36.949219 29.488281 C 36.605469 29.800781 36.453125 30.273438 36.546875 30.726562 L 39.777344 46.394531 C 39.804688 46.527344 39.753906 46.660156 39.644531 46.738281 C 39.539062 46.816406 39.394531 46.824219 39.28125 46.757812 L 25.367188 38.816406 C 24.960938 38.585938 24.464844 38.585938 24.0625 38.816406 L 10.148438 46.757812 C 10.035156 46.824219 9.890625 46.816406 9.78125 46.738281 C 9.675781 46.660156 9.621094 46.527344 9.648438 46.394531 L 12.882812 30.726562 C 12.976562 30.273438 12.824219 29.800781 12.480469 29.488281 L 0.675781 18.738281 C 0.578125 18.648438 0.542969 18.511719 0.582031 18.382812 C 0.625 18.257812 0.734375 18.167969 0.867188 18.152344 L 16.746094 16.394531 C 17.207031 16.34375 17.609375 16.054688 17.800781 15.628906 L 24.40625 1.011719 C 24.460938 0.890625 24.582031 0.8125 24.714844 0.8125 C 24.847656 0.8125 24.96875 0.890625 25.023438 1.011719 Z M 25.023438 1.011719 " clip-rule="nonzero"/></clipPath><clipPath id="0b256f8c52"><rect x="0" width="49" y="0" height="47"/></clipPath><clipPath id="0835186bfb"><path d="M 113.125 3.328125 L 161.859375 3.328125 L 161.859375 50 L 113.125 50 Z M 113.125 3.328125 " clip-rule="nonzero"/></clipPath><clipPath id="dcc726af2b"><path d="M 138.019531 4.011719 L 144.625 18.625 C 144.816406 19.046875 145.214844 19.339844 145.675781 19.390625 L 161.550781 21.144531 C 161.679688 21.160156 161.792969 21.25 161.832031 21.378906 C 161.875 21.503906 161.839844 21.644531 161.738281 21.734375 L 149.941406 32.476562 C 149.597656 32.789062 149.445312 33.261719 149.539062 33.714844 L 152.769531 49.378906 C 152.796875 49.511719 152.746094 49.644531 152.636719 49.722656 C 152.53125 49.800781 152.386719 49.808594 152.269531 49.742188 L 138.363281 41.804688 C 137.957031 41.574219 137.460938 41.574219 137.058594 41.804688 L 123.152344 49.742188 C 123.035156 49.808594 122.890625 49.800781 122.785156 49.722656 C 122.675781 49.644531 122.625 49.511719 122.652344 49.378906 L 125.882812 33.714844 C 125.976562 33.261719 125.824219 32.789062 125.480469 32.476562 L 113.679688 21.734375 C 113.582031 21.644531 113.546875 21.503906 113.585938 21.378906 C 113.628906 21.25 113.738281 21.160156 113.871094 21.144531 L 129.742188 19.390625 C 130.207031 19.339844 130.605469 19.046875 130.796875 18.625 L 137.402344 4.011719 C 137.457031 3.890625 137.578125 3.8125 137.710938 3.8125 C 137.84375 3.8125 137.964844 3.890625 138.019531 4.011719 Z M 138.019531 4.011719 " clip-rule="nonzero"/></clipPath><clipPath id="d2dc589c1c"><path d="M 169.152344 3.695312 L 217.679688 3.695312 L 217.679688 49.839844 L 169.152344 49.839844 Z M 169.152344 3.695312 " clip-rule="nonzero"/></clipPath><clipPath id="60b4347b15"><path d="M 193.6875 4.011719 L 200.292969 18.628906 C 200.484375 19.054688 200.882812 19.34375 201.347656 19.394531 L 217.222656 21.152344 C 217.355469 21.167969 217.46875 21.257812 217.507812 21.382812 C 217.550781 21.511719 217.511719 21.648438 217.414062 21.738281 L 205.613281 32.488281 C 205.269531 32.800781 205.117188 33.273438 205.210938 33.726562 L 208.441406 49.394531 C 208.46875 49.527344 208.417969 49.660156 208.308594 49.738281 C 208.203125 49.816406 208.058594 49.824219 207.941406 49.757812 L 194.027344 41.816406 C 193.625 41.585938 193.128906 41.585938 192.726562 41.816406 L 178.8125 49.757812 C 178.695312 49.824219 178.554688 49.816406 178.445312 49.738281 C 178.335938 49.660156 178.285156 49.527344 178.3125 49.394531 L 181.542969 33.726562 C 181.636719 33.273438 181.484375 32.800781 181.140625 32.488281 L 169.339844 21.738281 C 169.242188 21.648438 169.203125 21.511719 169.246094 21.382812 C 169.285156 21.257812 169.398438 21.167969 169.53125 21.152344 L 185.40625 19.394531 C 185.871094 19.34375 186.269531 19.054688 186.460938 18.628906 L 193.070312 4.011719 C 193.125 3.890625 193.246094 3.8125 193.378906 3.8125 C 193.511719 3.8125 193.632812 3.890625 193.6875 4.011719 Z M 193.6875 4.011719 " clip-rule="nonzero"/></clipPath><clipPath id="96850b1a61"><path d="M 0.152344 0.695312 L 48.679688 0.695312 L 48.679688 46.839844 L 0.152344 46.839844 Z M 0.152344 0.695312 " clip-rule="nonzero"/></clipPath><clipPath id="7dc742fb4e"><path d="M 24.6875 1.011719 L 31.292969 15.628906 C 31.484375 16.054688 31.882812 16.34375 32.347656 16.394531 L 48.222656 18.152344 C 48.355469 18.167969 48.46875 18.257812 48.507812 18.382812 C 48.550781 18.511719 48.511719 18.648438 48.414062 18.738281 L 36.613281 29.488281 C 36.269531 29.800781 36.117188 30.273438 36.210938 30.726562 L 39.441406 46.394531 C 39.46875 46.527344 39.417969 46.660156 39.308594 46.738281 C 39.203125 46.816406 39.058594 46.824219 38.941406 46.757812 L 25.027344 38.816406 C 24.625 38.585938 24.128906 38.585938 23.726562 38.816406 L 9.8125 46.757812 C 9.695312 46.824219 9.554688 46.816406 9.445312 46.738281 C 9.335938 46.660156 9.285156 46.527344 9.3125 46.394531 L 12.542969 30.726562 C 12.636719 30.273438 12.484375 29.800781 12.140625 29.488281 L 0.339844 18.738281 C 0.242188 18.648438 0.203125 18.511719 0.246094 18.382812 C 0.285156 18.257812 0.398438 18.167969 0.53125 18.152344 L 16.40625 16.394531 C 16.871094 16.34375 17.269531 16.054688 17.460938 15.628906 L 24.070312 1.011719 C 24.125 0.890625 24.246094 0.8125 24.378906 0.8125 C 24.511719 0.8125 24.632812 0.890625 24.6875 1.011719 Z M 24.6875 1.011719 " clip-rule="nonzero"/></clipPath><clipPath id="1ccad05633"><rect x="0" width="49" y="0" height="47"/></clipPath><clipPath id="bf5a406fa6"><path d="M 169 3.328125 L 217.523438 3.328125 L 217.523438 50 L 169 50 Z M 169 3.328125 " clip-rule="nonzero"/></clipPath><clipPath id="bd1f49263a"><path d="M 193.683594 4.011719 L 200.285156 18.625 C 200.476562 19.046875 200.878906 19.339844 201.339844 19.390625 L 217.210938 21.144531 C 217.34375 21.160156 217.457031 21.25 217.496094 21.378906 C 217.539062 21.503906 217.5 21.644531 217.402344 21.734375 L 205.605469 32.476562 C 205.261719 32.789062 205.109375 33.261719 205.203125 33.714844 L 208.433594 49.378906 C 208.460938 49.511719 208.40625 49.644531 208.300781 49.722656 C 208.191406 49.800781 208.050781 49.808594 207.933594 49.742188 L 194.023438 41.804688 C 193.621094 41.574219 193.125 41.574219 192.722656 41.804688 L 178.8125 49.742188 C 178.699219 49.808594 178.554688 49.800781 178.445312 49.722656 C 178.339844 49.644531 178.285156 49.511719 178.3125 49.378906 L 181.542969 33.714844 C 181.640625 33.261719 181.484375 32.789062 181.140625 32.476562 L 169.34375 21.734375 C 169.246094 21.644531 169.207031 21.503906 169.25 21.378906 C 169.292969 21.25 169.402344 21.160156 169.535156 21.144531 L 185.40625 19.390625 C 185.867188 19.339844 186.269531 19.046875 186.460938 18.625 L 193.066406 4.011719 C 193.121094 3.890625 193.242188 3.8125 193.375 3.8125 C 193.507812 3.8125 193.628906 3.890625 193.683594 4.011719 Z M 193.683594 4.011719 " clip-rule="nonzero"/></clipPath><clipPath id="860800dd4e"><path d="M 225.820312 3.695312 L 274.347656 3.695312 L 274.347656 49.839844 L 225.820312 49.839844 Z M 225.820312 3.695312 " clip-rule="nonzero"/></clipPath><clipPath id="1e0c8aadb9"><path d="M 250.355469 4.011719 L 256.960938 18.628906 C 257.152344 19.054688 257.550781 19.34375 258.015625 19.394531 L 273.890625 21.152344 C 274.023438 21.167969 274.136719 21.257812 274.175781 21.382812 C 274.21875 21.511719 274.179688 21.648438 274.082031 21.738281 L 262.28125 32.488281 C 261.9375 32.800781 261.785156 33.273438 261.878906 33.726562 L 265.109375 49.394531 C 265.136719 49.527344 265.085938 49.660156 264.976562 49.738281 C 264.871094 49.816406 264.726562 49.824219 264.609375 49.757812 L 250.695312 41.816406 C 250.292969 41.585938 249.796875 41.585938 249.394531 41.816406 L 235.480469 49.757812 C 235.363281 49.824219 235.222656 49.816406 235.113281 49.738281 C 235.003906 49.660156 234.953125 49.527344 234.980469 49.394531 L 238.210938 33.726562 C 238.304688 33.273438 238.152344 32.800781 237.808594 32.488281 L 226.007812 21.738281 C 225.910156 21.648438 225.871094 21.511719 225.914062 21.382812 C 225.953125 21.257812 226.066406 21.167969 226.199219 21.152344 L 242.074219 19.394531 C 242.539062 19.34375 242.9375 19.054688 243.128906 18.628906 L 249.738281 4.011719 C 249.792969 3.890625 249.914062 3.8125 250.046875 3.8125 C 250.179688 3.8125 250.300781 3.890625 250.355469 4.011719 Z M 250.355469 4.011719 " clip-rule="nonzero"/></clipPath><clipPath id="c60a62587f"><path d="M 0.820312 0.695312 L 49.347656 0.695312 L 49.347656 46.839844 L 0.820312 46.839844 Z M 0.820312 0.695312 " clip-rule="nonzero"/></clipPath><clipPath id="e3a1205369"><path d="M 25.355469 1.011719 L 31.960938 15.628906 C 32.152344 16.054688 32.550781 16.34375 33.015625 16.394531 L 48.890625 18.152344 C 49.023438 18.167969 49.136719 18.257812 49.175781 18.382812 C 49.21875 18.511719 49.179688 18.648438 49.082031 18.738281 L 37.28125 29.488281 C 36.9375 29.800781 36.785156 30.273438 36.878906 30.726562 L 40.109375 46.394531 C 40.136719 46.527344 40.085938 46.660156 39.976562 46.738281 C 39.871094 46.816406 39.726562 46.824219 39.609375 46.757812 L 25.695312 38.816406 C 25.292969 38.585938 24.796875 38.585938 24.394531 38.816406 L 10.480469 46.757812 C 10.363281 46.824219 10.222656 46.816406 10.113281 46.738281 C 10.003906 46.660156 9.953125 46.527344 9.980469 46.394531 L 13.210938 30.726562 C 13.304688 30.273438 13.152344 29.800781 12.808594 29.488281 L 1.007812 18.738281 C 0.910156 18.648438 0.871094 18.511719 0.914062 18.382812 C 0.953125 18.257812 1.066406 18.167969 1.199219 18.152344 L 17.074219 16.394531 C 17.539062 16.34375 17.9375 16.054688 18.128906 15.628906 L 24.738281 1.011719 C 24.792969 0.890625 24.914062 0.8125 25.046875 0.8125 C 25.179688 0.8125 25.300781 0.890625 25.355469 1.011719 Z M 25.355469 1.011719 " clip-rule="nonzero"/></clipPath><clipPath id="ef3edd7643"><rect x="0" width="50" y="0" height="47"/></clipPath><clipPath id="a3392478d3"><path d="M 225.457031 3.328125 L 274.191406 3.328125 L 274.191406 50 L 225.457031 50 Z M 225.457031 3.328125 " clip-rule="nonzero"/></clipPath><clipPath id="f10be37e93"><path d="M 250.351562 4.011719 L 256.953125 18.625 C 257.144531 19.046875 257.546875 19.339844 258.007812 19.390625 L 273.878906 21.144531 C 274.011719 21.160156 274.125 21.25 274.164062 21.378906 C 274.207031 21.503906 274.167969 21.644531 274.070312 21.734375 L 262.273438 32.476562 C 261.929688 32.789062 261.777344 33.261719 261.871094 33.714844 L 265.101562 49.378906 C 265.128906 49.511719 265.074219 49.644531 264.96875 49.722656 C 264.859375 49.800781 264.71875 49.808594 264.601562 49.742188 L 250.691406 41.804688 C 250.289062 41.574219 249.792969 41.574219 249.390625 41.804688 L 235.480469 49.742188 C 235.367188 49.808594 235.222656 49.800781 235.113281 49.722656 C 235.007812 49.644531 234.953125 49.511719 234.980469 49.378906 L 238.210938 33.714844 C 238.304688 33.261719 238.152344 32.789062 237.808594 32.476562 L 226.011719 21.734375 C 225.914062 21.644531 225.875 21.503906 225.917969 21.378906 C 225.960938 21.25 226.070312 21.160156 226.203125 21.144531 L 242.074219 19.390625 C 242.535156 19.339844 242.9375 19.046875 243.128906 18.625 L 249.734375 4.011719 C 249.789062 3.890625 249.910156 3.8125 250.042969 3.8125 C 250.175781 3.8125 250.296875 3.890625 250.351562 4.011719 Z M 250.351562 4.011719 " clip-rule="nonzero"/></clipPath><clipPath id="af3886de05"><path d="M 3.730469 63 L 52.253906 63 L 52.253906 109.074219 L 3.730469 109.074219 Z M 3.730469 63 " clip-rule="nonzero"/></clipPath><clipPath id="a8db13111e"><path d="M 28.261719 63.242188 L 34.871094 77.863281 C 35.0625 78.285156 35.460938 78.578125 35.925781 78.628906 L 51.800781 80.382812 C 51.933594 80.398438 52.046875 80.488281 52.085938 80.617188 C 52.128906 80.742188 52.089844 80.882812 51.992188 80.972656 L 40.191406 91.71875 C 39.847656 92.03125 39.695312 92.503906 39.789062 92.960938 L 43.019531 108.628906 C 43.046875 108.757812 42.996094 108.890625 42.886719 108.972656 C 42.777344 109.050781 42.636719 109.058594 42.519531 108.992188 L 28.605469 101.050781 C 28.203125 100.820312 27.707031 100.820312 27.304688 101.050781 L 13.390625 108.992188 C 13.273438 109.058594 13.128906 109.050781 13.023438 108.972656 C 12.914062 108.890625 12.863281 108.757812 12.890625 108.628906 L 16.121094 92.960938 C 16.214844 92.503906 16.0625 92.03125 15.71875 91.71875 L 3.917969 80.972656 C 3.820312 80.882812 3.78125 80.742188 3.824219 80.617188 C 3.863281 80.488281 3.976562 80.398438 4.109375 80.382812 L 19.984375 78.628906 C 20.449219 78.578125 20.847656 78.285156 21.039062 77.863281 L 27.644531 63.242188 C 27.699219 63.121094 27.820312 63.042969 27.953125 63.042969 C 28.085938 63.042969 28.207031 63.121094 28.261719 63.242188 Z M 28.261719 63.242188 " clip-rule="nonzero"/></clipPath><clipPath id="3d5ea5eff9"><path d="M 0.730469 0 L 49.253906 0 L 49.253906 46.074219 L 0.730469 46.074219 Z M 0.730469 0 " clip-rule="nonzero"/></clipPath><clipPath id="a8963510f2"><path d="M 25.261719 0.242188 L 31.871094 14.863281 C 32.0625 15.285156 32.460938 15.578125 32.925781 15.628906 L 48.800781 17.382812 C 48.933594 17.398438 49.046875 17.488281 49.085938 17.617188 C 49.128906 17.742188 49.089844 17.882812 48.992188 17.972656 L 37.191406 28.71875 C 36.847656 29.03125 36.695312 29.503906 36.789062 29.960938 L 40.019531 45.628906 C 40.046875 45.757812 39.996094 45.890625 39.886719 45.972656 C 39.777344 46.050781 39.636719 46.058594 39.519531 45.992188 L 25.605469 38.050781 C 25.203125 37.820312 24.707031 37.820312 24.304688 38.050781 L 10.390625 45.992188 C 10.273438 46.058594 10.128906 46.050781 10.023438 45.972656 C 9.914062 45.890625 9.863281 45.757812 9.890625 45.628906 L 13.121094 29.960938 C 13.214844 29.503906 13.0625 29.03125 12.71875 28.71875 L 0.917969 17.972656 C 0.820312 17.882812 0.78125 17.742188 0.824219 17.617188 C 0.863281 17.488281 0.976562 17.398438 1.109375 17.382812 L 16.984375 15.628906 C 17.449219 15.578125 17.847656 15.285156 18.039062 14.863281 L 24.644531 0.242188 C 24.699219 0.121094 24.820312 0.0429688 24.953125 0.0429688 C 25.085938 0.0429688 25.207031 0.121094 25.261719 0.242188 Z M 25.261719 0.242188 " clip-rule="nonzero"/></clipPath><clipPath id="06e66822de"><rect x="0" width="50" y="0" height="47"/></clipPath><clipPath id="014b32fd7d"><path d="M 3.367188 63 L 52.101562 63 L 52.101562 109.421875 L 3.367188 109.421875 Z M 3.367188 63 " clip-rule="nonzero"/></clipPath><clipPath id="25289d625c"><path d="M 28.257812 63.242188 L 34.863281 77.855469 C 35.054688 78.28125 35.457031 78.570312 35.917969 78.621094 L 51.789062 80.378906 C 51.921875 80.394531 52.03125 80.484375 52.074219 80.609375 C 52.117188 80.738281 52.078125 80.875 51.980469 80.964844 L 40.183594 91.710938 C 39.839844 92.023438 39.6875 92.492188 39.78125 92.949219 L 43.011719 108.613281 C 43.039062 108.742188 42.984375 108.875 42.878906 108.953125 C 42.769531 109.03125 42.625 109.039062 42.511719 108.976562 L 28.601562 101.035156 C 28.199219 100.808594 27.703125 100.808594 27.300781 101.035156 L 13.390625 108.976562 C 13.273438 109.039062 13.132812 109.03125 13.023438 108.953125 C 12.917969 108.875 12.863281 108.742188 12.890625 108.613281 L 16.121094 92.949219 C 16.214844 92.492188 16.0625 92.023438 15.71875 91.710938 L 3.921875 80.964844 C 3.824219 80.875 3.785156 80.738281 3.828125 80.609375 C 3.867188 80.484375 3.980469 80.394531 4.113281 80.378906 L 19.984375 78.621094 C 20.445312 78.570312 20.847656 78.28125 21.039062 77.855469 L 27.640625 63.242188 C 27.695312 63.121094 27.816406 63.042969 27.949219 63.042969 C 28.082031 63.042969 28.203125 63.121094 28.257812 63.242188 Z M 28.257812 63.242188 " clip-rule="nonzero"/></clipPath><clipPath id="0b731e5407"><path d="M 58.632812 63 L 107.160156 63 L 107.160156 109.074219 L 58.632812 109.074219 Z M 58.632812 63 " clip-rule="nonzero"/></clipPath><clipPath id="a817898de5"><path d="M 83.167969 63.242188 L 89.773438 77.863281 C 89.964844 78.285156 90.367188 78.578125 90.828125 78.628906 L 106.707031 80.382812 C 106.839844 80.398438 106.949219 80.488281 106.992188 80.617188 C 107.03125 80.742188 106.996094 80.882812 106.898438 80.972656 L 95.097656 91.71875 C 94.753906 92.03125 94.597656 92.503906 94.691406 92.960938 L 97.925781 108.628906 C 97.953125 108.757812 97.898438 108.890625 97.792969 108.972656 C 97.683594 109.050781 97.539062 109.058594 97.425781 108.992188 L 83.511719 101.050781 C 83.109375 100.820312 82.613281 100.820312 82.207031 101.050781 L 68.296875 108.992188 C 68.179688 109.058594 68.035156 109.050781 67.929688 108.972656 C 67.820312 108.890625 67.769531 108.757812 67.796875 108.628906 L 71.027344 92.960938 C 71.121094 92.503906 70.96875 92.03125 70.625 91.71875 L 58.824219 80.972656 C 58.722656 80.882812 58.6875 80.742188 58.726562 80.617188 C 58.769531 80.488281 58.882812 80.398438 59.011719 80.382812 L 74.890625 78.628906 C 75.351562 78.578125 75.753906 78.285156 75.945312 77.863281 L 82.550781 63.242188 C 82.605469 63.121094 82.726562 63.042969 82.859375 63.042969 C 82.992188 63.042969 83.113281 63.121094 83.167969 63.242188 Z M 83.167969 63.242188 " clip-rule="nonzero"/></clipPath><clipPath id="665788afed"><path d="M 0.632812 0 L 49.078125 0 L 49.078125 46.074219 L 0.632812 46.074219 Z M 0.632812 0 " clip-rule="nonzero"/></clipPath><clipPath id="da10bb3ac4"><path d="M 25.167969 0.242188 L 31.773438 14.863281 C 31.964844 15.285156 32.367188 15.578125 32.828125 15.628906 L 48.707031 17.382812 C 48.839844 17.398438 48.949219 17.488281 48.992188 17.617188 C 49.03125 17.742188 48.996094 17.882812 48.898438 17.972656 L 37.097656 28.71875 C 36.753906 29.03125 36.597656 29.503906 36.691406 29.960938 L 39.925781 45.628906 C 39.953125 45.757812 39.898438 45.890625 39.792969 45.972656 C 39.683594 46.050781 39.539062 46.058594 39.425781 45.992188 L 25.511719 38.050781 C 25.109375 37.820312 24.613281 37.820312 24.207031 38.050781 L 10.296875 45.992188 C 10.179688 46.058594 10.035156 46.050781 9.929688 45.972656 C 9.820312 45.890625 9.769531 45.757812 9.796875 45.628906 L 13.027344 29.960938 C 13.121094 29.503906 12.96875 29.03125 12.625 28.71875 L 0.824219 17.972656 C 0.722656 17.882812 0.6875 17.742188 0.726562 17.617188 C 0.769531 17.488281 0.882812 17.398438 1.011719 17.382812 L 16.890625 15.628906 C 17.351562 15.578125 17.753906 15.285156 17.945312 14.863281 L 24.550781 0.242188 C 24.605469 0.121094 24.726562 0.0429688 24.859375 0.0429688 C 24.992188 0.0429688 25.113281 0.121094 25.167969 0.242188 Z M 25.167969 0.242188 " clip-rule="nonzero"/></clipPath><clipPath id="728a8864e4"><rect x="0" width="50" y="0" height="47"/></clipPath><clipPath id="8c66fff913"><path d="M 58.273438 63 L 107 63 L 107 109.421875 L 58.273438 109.421875 Z M 58.273438 63 " clip-rule="nonzero"/></clipPath><clipPath id="5e91f7fdc9"><path d="M 83.164062 63.242188 L 89.769531 77.855469 C 89.960938 78.28125 90.359375 78.570312 90.824219 78.621094 L 106.695312 80.378906 C 106.828125 80.394531 106.9375 80.484375 106.980469 80.609375 C 107.019531 80.738281 106.984375 80.875 106.886719 80.964844 L 95.089844 91.710938 C 94.746094 92.023438 94.589844 92.492188 94.683594 92.949219 L 97.917969 108.613281 C 97.941406 108.742188 97.890625 108.875 97.785156 108.953125 C 97.675781 109.03125 97.53125 109.039062 97.417969 108.976562 L 83.507812 101.035156 C 83.105469 100.808594 82.609375 100.808594 82.207031 101.035156 L 68.296875 108.976562 C 68.179688 109.039062 68.039062 109.03125 67.929688 108.953125 C 67.820312 108.875 67.769531 108.742188 67.796875 108.613281 L 71.027344 92.949219 C 71.121094 92.492188 70.96875 92.023438 70.625 91.710938 L 58.828125 80.964844 C 58.730469 80.875 58.691406 80.738281 58.734375 80.609375 C 58.773438 80.484375 58.886719 80.394531 59.019531 80.378906 L 74.890625 78.621094 C 75.351562 78.570312 75.753906 78.28125 75.945312 77.855469 L 82.546875 63.242188 C 82.601562 63.121094 82.722656 63.042969 82.855469 63.042969 C 82.988281 63.042969 83.109375 63.121094 83.164062 63.242188 Z M 83.164062 63.242188 " clip-rule="nonzero"/></clipPath><clipPath id="c2ab59f96c"><path d="M 113.488281 63 L 162 63 L 162 109.074219 L 113.488281 109.074219 Z M 113.488281 63 " clip-rule="nonzero"/></clipPath><clipPath id="fc4b88ab9a"><path d="M 138.023438 63.242188 L 144.628906 77.863281 C 144.820312 78.285156 145.222656 78.578125 145.683594 78.628906 L 161.5625 80.382812 C 161.695312 80.398438 161.804688 80.488281 161.847656 80.617188 C 161.886719 80.742188 161.851562 80.882812 161.753906 80.972656 L 149.949219 91.71875 C 149.605469 92.03125 149.453125 92.503906 149.546875 92.960938 L 152.777344 108.628906 C 152.804688 108.757812 152.753906 108.890625 152.644531 108.972656 C 152.539062 109.050781 152.394531 109.058594 152.28125 108.992188 L 138.367188 101.050781 C 137.960938 100.820312 137.464844 100.820312 137.0625 101.050781 L 123.148438 108.992188 C 123.035156 109.058594 122.890625 109.050781 122.78125 108.972656 C 122.675781 108.890625 122.621094 108.757812 122.648438 108.628906 L 125.882812 92.960938 C 125.976562 92.503906 125.824219 92.03125 125.480469 91.71875 L 113.675781 80.972656 C 113.578125 80.882812 113.542969 80.742188 113.582031 80.617188 C 113.625 80.488281 113.734375 80.398438 113.867188 80.382812 L 129.746094 78.628906 C 130.207031 78.578125 130.609375 78.285156 130.800781 77.863281 L 137.40625 63.242188 C 137.460938 63.121094 137.582031 63.042969 137.714844 63.042969 C 137.847656 63.042969 137.96875 63.121094 138.023438 63.242188 Z M 138.023438 63.242188 " clip-rule="nonzero"/></clipPath><clipPath id="63a26d15c1"><path d="M 0.488281 0 L 49 0 L 49 46.074219 L 0.488281 46.074219 Z M 0.488281 0 " clip-rule="nonzero"/></clipPath><clipPath id="be6eda2883"><path d="M 25.023438 0.242188 L 31.628906 14.863281 C 31.820312 15.285156 32.222656 15.578125 32.683594 15.628906 L 48.5625 17.382812 C 48.695312 17.398438 48.804688 17.488281 48.847656 17.617188 C 48.886719 17.742188 48.851562 17.882812 48.753906 17.972656 L 36.949219 28.71875 C 36.605469 29.03125 36.453125 29.503906 36.546875 29.960938 L 39.777344 45.628906 C 39.804688 45.757812 39.753906 45.890625 39.644531 45.972656 C 39.539062 46.050781 39.394531 46.058594 39.28125 45.992188 L 25.367188 38.050781 C 24.960938 37.820312 24.464844 37.820312 24.0625 38.050781 L 10.148438 45.992188 C 10.035156 46.058594 9.890625 46.050781 9.78125 45.972656 C 9.675781 45.890625 9.621094 45.757812 9.648438 45.628906 L 12.882812 29.960938 C 12.976562 29.503906 12.824219 29.03125 12.480469 28.71875 L 0.675781 17.972656 C 0.578125 17.882812 0.542969 17.742188 0.582031 17.617188 C 0.625 17.488281 0.734375 17.398438 0.867188 17.382812 L 16.746094 15.628906 C 17.207031 15.578125 17.609375 15.285156 17.800781 14.863281 L 24.40625 0.242188 C 24.460938 0.121094 24.582031 0.0429688 24.714844 0.0429688 C 24.847656 0.0429688 24.96875 0.121094 25.023438 0.242188 Z M 25.023438 0.242188 " clip-rule="nonzero"/></clipPath><clipPath id="f0ef0ce5cf"><rect x="0" width="49" y="0" height="47"/></clipPath><clipPath id="1e245e50b0"><path d="M 113.125 63 L 161.859375 63 L 161.859375 109.421875 L 113.125 109.421875 Z M 113.125 63 " clip-rule="nonzero"/></clipPath><clipPath id="06fdf9383f"><path d="M 138.019531 63.242188 L 144.625 77.855469 C 144.816406 78.28125 145.214844 78.570312 145.675781 78.621094 L 161.550781 80.378906 C 161.679688 80.394531 161.792969 80.484375 161.832031 80.609375 C 161.875 80.738281 161.839844 80.875 161.738281 80.964844 L 149.941406 91.710938 C 149.597656 92.023438 149.445312 92.492188 149.539062 92.949219 L 152.769531 108.613281 C 152.796875 108.742188 152.746094 108.875 152.636719 108.953125 C 152.53125 109.03125 152.386719 109.039062 152.269531 108.976562 L 138.363281 101.035156 C 137.957031 100.808594 137.460938 100.808594 137.058594 101.035156 L 123.152344 108.976562 C 123.035156 109.039062 122.890625 109.03125 122.785156 108.953125 C 122.675781 108.875 122.625 108.742188 122.652344 108.613281 L 125.882812 92.949219 C 125.976562 92.492188 125.824219 92.023438 125.480469 91.710938 L 113.679688 80.964844 C 113.582031 80.875 113.546875 80.738281 113.585938 80.609375 C 113.628906 80.484375 113.738281 80.394531 113.871094 80.378906 L 129.742188 78.621094 C 130.207031 78.570312 130.605469 78.28125 130.796875 77.855469 L 137.402344 63.242188 C 137.457031 63.121094 137.578125 63.042969 137.710938 63.042969 C 137.84375 63.042969 137.964844 63.121094 138.019531 63.242188 Z M 138.019531 63.242188 " clip-rule="nonzero"/></clipPath><clipPath id="907f59c3a0"><path d="M 169.152344 63 L 217.679688 63 L 217.679688 109.074219 L 169.152344 109.074219 Z M 169.152344 63 " clip-rule="nonzero"/></clipPath><clipPath id="439a505ffd"><path d="M 193.6875 63.242188 L 200.292969 77.863281 C 200.484375 78.285156 200.882812 78.578125 201.347656 78.628906 L 217.222656 80.382812 C 217.355469 80.398438 217.46875 80.488281 217.507812 80.617188 C 217.550781 80.742188 217.511719 80.882812 217.414062 80.972656 L 205.613281 91.71875 C 205.269531 92.03125 205.117188 92.503906 205.210938 92.960938 L 208.441406 108.628906 C 208.46875 108.757812 208.417969 108.890625 208.308594 108.972656 C 208.203125 109.050781 208.058594 109.058594 207.941406 108.992188 L 194.027344 101.050781 C 193.625 100.820312 193.128906 100.820312 192.726562 101.050781 L 178.8125 108.992188 C 178.695312 109.058594 178.554688 109.050781 178.445312 108.972656 C 178.335938 108.890625 178.285156 108.757812 178.3125 108.628906 L 181.542969 92.960938 C 181.636719 92.503906 181.484375 92.03125 181.140625 91.71875 L 169.339844 80.972656 C 169.242188 80.882812 169.203125 80.742188 169.246094 80.617188 C 169.285156 80.488281 169.398438 80.398438 169.53125 80.382812 L 185.40625 78.628906 C 185.871094 78.578125 186.269531 78.285156 186.460938 77.863281 L 193.070312 63.242188 C 193.125 63.121094 193.246094 63.042969 193.378906 63.042969 C 193.511719 63.042969 193.632812 63.121094 193.6875 63.242188 Z M 193.6875 63.242188 " clip-rule="nonzero"/></clipPath><clipPath id="0ed40a4317"><path d="M 0.152344 0 L 48.679688 0 L 48.679688 46.074219 L 0.152344 46.074219 Z M 0.152344 0 " clip-rule="nonzero"/></clipPath><clipPath id="6d69cb1d87"><path d="M 24.6875 0.242188 L 31.292969 14.863281 C 31.484375 15.285156 31.882812 15.578125 32.347656 15.628906 L 48.222656 17.382812 C 48.355469 17.398438 48.46875 17.488281 48.507812 17.617188 C 48.550781 17.742188 48.511719 17.882812 48.414062 17.972656 L 36.613281 28.71875 C 36.269531 29.03125 36.117188 29.503906 36.210938 29.960938 L 39.441406 45.628906 C 39.46875 45.757812 39.417969 45.890625 39.308594 45.972656 C 39.203125 46.050781 39.058594 46.058594 38.941406 45.992188 L 25.027344 38.050781 C 24.625 37.820312 24.128906 37.820312 23.726562 38.050781 L 9.8125 45.992188 C 9.695312 46.058594 9.554688 46.050781 9.445312 45.972656 C 9.335938 45.890625 9.285156 45.757812 9.3125 45.628906 L 12.542969 29.960938 C 12.636719 29.503906 12.484375 29.03125 12.140625 28.71875 L 0.339844 17.972656 C 0.242188 17.882812 0.203125 17.742188 0.246094 17.617188 C 0.285156 17.488281 0.398438 17.398438 0.53125 17.382812 L 16.40625 15.628906 C 16.871094 15.578125 17.269531 15.285156 17.460938 14.863281 L 24.070312 0.242188 C 24.125 0.121094 24.246094 0.0429688 24.378906 0.0429688 C 24.511719 0.0429688 24.632812 0.121094 24.6875 0.242188 Z M 24.6875 0.242188 " clip-rule="nonzero"/></clipPath><clipPath id="85a8f9e5ad"><rect x="0" width="49" y="0" height="47"/></clipPath><clipPath id="b81f2ca83b"><path d="M 169 63 L 217.523438 63 L 217.523438 109.421875 L 169 109.421875 Z M 169 63 " clip-rule="nonzero"/></clipPath><clipPath id="3d168c9540"><path d="M 193.683594 63.242188 L 200.285156 77.855469 C 200.476562 78.28125 200.878906 78.570312 201.339844 78.621094 L 217.210938 80.378906 C 217.34375 80.394531 217.457031 80.484375 217.496094 80.609375 C 217.539062 80.738281 217.5 80.875 217.402344 80.964844 L 205.605469 91.710938 C 205.261719 92.023438 205.109375 92.492188 205.203125 92.949219 L 208.433594 108.613281 C 208.460938 108.742188 208.40625 108.875 208.300781 108.953125 C 208.191406 109.03125 208.050781 109.039062 207.933594 108.976562 L 194.023438 101.035156 C 193.621094 100.808594 193.125 100.808594 192.722656 101.035156 L 178.8125 108.976562 C 178.699219 109.039062 178.554688 109.03125 178.445312 108.953125 C 178.339844 108.875 178.285156 108.742188 178.3125 108.613281 L 181.542969 92.949219 C 181.640625 92.492188 181.484375 92.023438 181.140625 91.710938 L 169.34375 80.964844 C 169.246094 80.875 169.207031 80.738281 169.25 80.609375 C 169.292969 80.484375 169.402344 80.394531 169.535156 80.378906 L 185.40625 78.621094 C 185.867188 78.570312 186.269531 78.28125 186.460938 77.855469 L 193.066406 63.242188 C 193.121094 63.121094 193.242188 63.042969 193.375 63.042969 C 193.507812 63.042969 193.628906 63.121094 193.683594 63.242188 Z M 193.683594 63.242188 " clip-rule="nonzero"/></clipPath><clipPath id="7a45af293d"><path d="M 225.820312 63 L 274.347656 63 L 274.347656 109.074219 L 225.820312 109.074219 Z M 225.820312 63 " clip-rule="nonzero"/></clipPath><clipPath id="d84ce46e2d"><path d="M 250.355469 63.242188 L 256.960938 77.863281 C 257.152344 78.285156 257.550781 78.578125 258.015625 78.628906 L 273.890625 80.382812 C 274.023438 80.398438 274.136719 80.488281 274.175781 80.617188 C 274.21875 80.742188 274.179688 80.882812 274.082031 80.972656 L 262.28125 91.71875 C 261.9375 92.03125 261.785156 92.503906 261.878906 92.960938 L 265.109375 108.628906 C 265.136719 108.757812 265.085938 108.890625 264.976562 108.972656 C 264.871094 109.050781 264.726562 109.058594 264.609375 108.992188 L 250.695312 101.050781 C 250.292969 100.820312 249.796875 100.820312 249.394531 101.050781 L 235.480469 108.992188 C 235.363281 109.058594 235.222656 109.050781 235.113281 108.972656 C 235.003906 108.890625 234.953125 108.757812 234.980469 108.628906 L 238.210938 92.960938 C 238.304688 92.503906 238.152344 92.03125 237.808594 91.71875 L 226.007812 80.972656 C 225.910156 80.882812 225.871094 80.742188 225.914062 80.617188 C 225.953125 80.488281 226.066406 80.398438 226.199219 80.382812 L 242.074219 78.628906 C 242.539062 78.578125 242.9375 78.285156 243.128906 77.863281 L 249.738281 63.242188 C 249.792969 63.121094 249.914062 63.042969 250.046875 63.042969 C 250.179688 63.042969 250.300781 63.121094 250.355469 63.242188 Z M 250.355469 63.242188 " clip-rule="nonzero"/></clipPath><clipPath id="fd17c55779"><path d="M 0.820312 0 L 49.347656 0 L 49.347656 46.074219 L 0.820312 46.074219 Z M 0.820312 0 " clip-rule="nonzero"/></clipPath><clipPath id="b43e85d9e2"><path d="M 25.355469 0.242188 L 31.960938 14.863281 C 32.152344 15.285156 32.550781 15.578125 33.015625 15.628906 L 48.890625 17.382812 C 49.023438 17.398438 49.136719 17.488281 49.175781 17.617188 C 49.21875 17.742188 49.179688 17.882812 49.082031 17.972656 L 37.28125 28.71875 C 36.9375 29.03125 36.785156 29.503906 36.878906 29.960938 L 40.109375 45.628906 C 40.136719 45.757812 40.085938 45.890625 39.976562 45.972656 C 39.871094 46.050781 39.726562 46.058594 39.609375 45.992188 L 25.695312 38.050781 C 25.292969 37.820312 24.796875 37.820312 24.394531 38.050781 L 10.480469 45.992188 C 10.363281 46.058594 10.222656 46.050781 10.113281 45.972656 C 10.003906 45.890625 9.953125 45.757812 9.980469 45.628906 L 13.210938 29.960938 C 13.304688 29.503906 13.152344 29.03125 12.808594 28.71875 L 1.007812 17.972656 C 0.910156 17.882812 0.871094 17.742188 0.914062 17.617188 C 0.953125 17.488281 1.066406 17.398438 1.199219 17.382812 L 17.074219 15.628906 C 17.539062 15.578125 17.9375 15.285156 18.128906 14.863281 L 24.738281 0.242188 C 24.792969 0.121094 24.914062 0.0429688 25.046875 0.0429688 C 25.179688 0.0429688 25.300781 0.121094 25.355469 0.242188 Z M 25.355469 0.242188 " clip-rule="nonzero"/></clipPath><clipPath id="c871d36c4e"><rect x="0" width="50" y="0" height="47"/></clipPath><clipPath id="73590eee92"><path d="M 225.457031 63 L 274.191406 63 L 274.191406 109.421875 L 225.457031 109.421875 Z M 225.457031 63 " clip-rule="nonzero"/></clipPath><clipPath id="e31be95149"><path d="M 250.351562 63.242188 L 256.953125 77.855469 C 257.144531 78.28125 257.546875 78.570312 258.007812 78.621094 L 273.878906 80.378906 C 274.011719 80.394531 274.125 80.484375 274.164062 80.609375 C 274.207031 80.738281 274.167969 80.875 274.070312 80.964844 L 262.273438 91.710938 C 261.929688 92.023438 261.777344 92.492188 261.871094 92.949219 L 265.101562 108.613281 C 265.128906 108.742188 265.074219 108.875 264.96875 108.953125 C 264.859375 109.03125 264.71875 109.039062 264.601562 108.976562 L 250.691406 101.035156 C 250.289062 100.808594 249.792969 100.808594 249.390625 101.035156 L 235.480469 108.976562 C 235.367188 109.039062 235.222656 109.03125 235.113281 108.953125 C 235.007812 108.875 234.953125 108.742188 234.980469 108.613281 L 238.210938 92.949219 C 238.304688 92.492188 238.152344 92.023438 237.808594 91.710938 L 226.011719 80.964844 C 225.914062 80.875 225.875 80.738281 225.917969 80.609375 C 225.960938 80.484375 226.070312 80.394531 226.203125 80.378906 L 242.074219 78.621094 C 242.535156 78.570312 242.9375 78.28125 243.128906 77.855469 L 249.734375 63.242188 C 249.789062 63.121094 249.910156 63.042969 250.042969 63.042969 C 250.175781 63.042969 250.296875 63.121094 250.351562 63.242188 Z M 250.351562 63.242188 " clip-rule="nonzero"/></clipPath><clipPath id="ff1446b68e"><path d="M 3.730469 122.160156 L 52.253906 122.160156 L 52.253906 168.304688 L 3.730469 168.304688 Z M 3.730469 122.160156 " clip-rule="nonzero"/></clipPath><clipPath id="b8ddcb89e4"><path d="M 28.261719 122.476562 L 34.871094 137.09375 C 35.0625 137.519531 35.460938 137.808594 35.925781 137.859375 L 51.800781 139.617188 C 51.933594 139.632812 52.046875 139.722656 52.085938 139.847656 C 52.128906 139.976562 52.089844 140.113281 51.992188 140.203125 L 40.191406 150.953125 C 39.847656 151.265625 39.695312 151.738281 39.789062 152.191406 L 43.019531 167.859375 C 43.046875 167.992188 42.996094 168.125 42.886719 168.203125 C 42.777344 168.28125 42.636719 168.289062 42.519531 168.222656 L 28.605469 160.28125 C 28.203125 160.050781 27.707031 160.050781 27.304688 160.28125 L 13.390625 168.222656 C 13.273438 168.289062 13.128906 168.28125 13.023438 168.203125 C 12.914062 168.125 12.863281 167.992188 12.890625 167.859375 L 16.121094 152.191406 C 16.214844 151.738281 16.0625 151.265625 15.71875 150.953125 L 3.917969 140.203125 C 3.820312 140.113281 3.78125 139.976562 3.824219 139.847656 C 3.863281 139.722656 3.976562 139.632812 4.109375 139.617188 L 19.984375 137.859375 C 20.449219 137.808594 20.847656 137.519531 21.039062 137.09375 L 27.644531 122.476562 C 27.699219 122.355469 27.820312 122.277344 27.953125 122.277344 C 28.085938 122.277344 28.207031 122.355469 28.261719 122.476562 Z M 28.261719 122.476562 " clip-rule="nonzero"/></clipPath><clipPath id="abe2775c2e"><path d="M 0.730469 0.238281 L 49.253906 0.238281 L 49.253906 46.304688 L 0.730469 46.304688 Z M 0.730469 0.238281 " clip-rule="nonzero"/></clipPath><clipPath id="207079b995"><path d="M 25.261719 0.476562 L 31.871094 15.09375 C 32.0625 15.519531 32.460938 15.808594 32.925781 15.859375 L 48.800781 17.617188 C 48.933594 17.632812 49.046875 17.722656 49.085938 17.847656 C 49.128906 17.976562 49.089844 18.113281 48.992188 18.203125 L 37.191406 28.953125 C 36.847656 29.265625 36.695312 29.738281 36.789062 30.191406 L 40.019531 45.859375 C 40.046875 45.992188 39.996094 46.125 39.886719 46.203125 C 39.777344 46.28125 39.636719 46.289062 39.519531 46.222656 L 25.605469 38.28125 C 25.203125 38.050781 24.707031 38.050781 24.304688 38.28125 L 10.390625 46.222656 C 10.273438 46.289062 10.128906 46.28125 10.023438 46.203125 C 9.914062 46.125 9.863281 45.992188 9.890625 45.859375 L 13.121094 30.191406 C 13.214844 29.738281 13.0625 29.265625 12.71875 28.953125 L 0.917969 18.203125 C 0.820312 18.113281 0.78125 17.976562 0.824219 17.847656 C 0.863281 17.722656 0.976562 17.632812 1.109375 17.617188 L 16.984375 15.859375 C 17.449219 15.808594 17.847656 15.519531 18.039062 15.09375 L 24.644531 0.476562 C 24.699219 0.355469 24.820312 0.277344 24.953125 0.277344 C 25.085938 0.277344 25.207031 0.355469 25.261719 0.476562 Z M 25.261719 0.476562 " clip-rule="nonzero"/></clipPath><clipPath id="3ef5fadd79"><rect x="0" width="50" y="0" height="47"/></clipPath><clipPath id="1efad08428"><path d="M 3.367188 122 L 52.101562 122 L 52.101562 168.65625 L 3.367188 168.65625 Z M 3.367188 122 " clip-rule="nonzero"/></clipPath><clipPath id="276fa0f88d"><path d="M 28.257812 122.476562 L 34.863281 137.089844 C 35.054688 137.511719 35.457031 137.804688 35.917969 137.855469 L 51.789062 139.609375 C 51.921875 139.625 52.03125 139.714844 52.074219 139.84375 C 52.117188 139.96875 52.078125 140.109375 51.980469 140.199219 L 40.183594 150.941406 C 39.839844 151.253906 39.6875 151.726562 39.78125 152.179688 L 43.011719 167.84375 C 43.039062 167.976562 42.984375 168.109375 42.878906 168.1875 C 42.769531 168.265625 42.625 168.273438 42.511719 168.207031 L 28.601562 160.269531 C 28.199219 160.039062 27.703125 160.039062 27.300781 160.269531 L 13.390625 168.207031 C 13.273438 168.273438 13.132812 168.265625 13.023438 168.1875 C 12.917969 168.109375 12.863281 167.976562 12.890625 167.84375 L 16.121094 152.179688 C 16.214844 151.726562 16.0625 151.253906 15.71875 150.941406 L 3.921875 140.199219 C 3.824219 140.109375 3.785156 139.96875 3.828125 139.84375 C 3.867188 139.714844 3.980469 139.625 4.113281 139.609375 L 19.984375 137.855469 C 20.445312 137.804688 20.847656 137.511719 21.039062 137.089844 L 27.640625 122.476562 C 27.695312 122.355469 27.816406 122.277344 27.949219 122.277344 C 28.082031 122.277344 28.203125 122.355469 28.257812 122.476562 Z M 28.257812 122.476562 " clip-rule="nonzero"/></clipPath><clipPath id="2ef01c545f"><path d="M 58.632812 122.160156 L 107.160156 122.160156 L 107.160156 168.304688 L 58.632812 168.304688 Z M 58.632812 122.160156 " clip-rule="nonzero"/></clipPath><clipPath id="55a5997ee0"><path d="M 83.167969 122.476562 L 89.773438 137.09375 C 89.964844 137.519531 90.367188 137.808594 90.828125 137.859375 L 106.707031 139.617188 C 106.839844 139.632812 106.949219 139.722656 106.992188 139.847656 C 107.03125 139.976562 106.996094 140.113281 106.898438 140.203125 L 95.097656 150.953125 C 94.753906 151.265625 94.597656 151.738281 94.691406 152.191406 L 97.925781 167.859375 C 97.953125 167.992188 97.898438 168.125 97.792969 168.203125 C 97.683594 168.28125 97.539062 168.289062 97.425781 168.222656 L 83.511719 160.28125 C 83.109375 160.050781 82.613281 160.050781 82.207031 160.28125 L 68.296875 168.222656 C 68.179688 168.289062 68.035156 168.28125 67.929688 168.203125 C 67.820312 168.125 67.769531 167.992188 67.796875 167.859375 L 71.027344 152.191406 C 71.121094 151.738281 70.96875 151.265625 70.625 150.953125 L 58.824219 140.203125 C 58.722656 140.113281 58.6875 139.976562 58.726562 139.847656 C 58.769531 139.722656 58.882812 139.632812 59.011719 139.617188 L 74.890625 137.859375 C 75.351562 137.808594 75.753906 137.519531 75.945312 137.09375 L 82.550781 122.476562 C 82.605469 122.355469 82.726562 122.277344 82.859375 122.277344 C 82.992188 122.277344 83.113281 122.355469 83.167969 122.476562 Z M 83.167969 122.476562 " clip-rule="nonzero"/></clipPath><clipPath id="79a63c1fdb"><path d="M 0.632812 0.238281 L 49.078125 0.238281 L 49.078125 46.304688 L 0.632812 46.304688 Z M 0.632812 0.238281 " clip-rule="nonzero"/></clipPath><clipPath id="17196290b7"><path d="M 25.167969 0.476562 L 31.773438 15.09375 C 31.964844 15.519531 32.367188 15.808594 32.828125 15.859375 L 48.707031 17.617188 C 48.839844 17.632812 48.949219 17.722656 48.992188 17.847656 C 49.03125 17.976562 48.996094 18.113281 48.898438 18.203125 L 37.097656 28.953125 C 36.753906 29.265625 36.597656 29.738281 36.691406 30.191406 L 39.925781 45.859375 C 39.953125 45.992188 39.898438 46.125 39.792969 46.203125 C 39.683594 46.28125 39.539062 46.289062 39.425781 46.222656 L 25.511719 38.28125 C 25.109375 38.050781 24.613281 38.050781 24.207031 38.28125 L 10.296875 46.222656 C 10.179688 46.289062 10.035156 46.28125 9.929688 46.203125 C 9.820312 46.125 9.769531 45.992188 9.796875 45.859375 L 13.027344 30.191406 C 13.121094 29.738281 12.96875 29.265625 12.625 28.953125 L 0.824219 18.203125 C 0.722656 18.113281 0.6875 17.976562 0.726562 17.847656 C 0.769531 17.722656 0.882812 17.632812 1.011719 17.617188 L 16.890625 15.859375 C 17.351562 15.808594 17.753906 15.519531 17.945312 15.09375 L 24.550781 0.476562 C 24.605469 0.355469 24.726562 0.277344 24.859375 0.277344 C 24.992188 0.277344 25.113281 0.355469 25.167969 0.476562 Z M 25.167969 0.476562 " clip-rule="nonzero"/></clipPath><clipPath id="a3e7c679a0"><rect x="0" width="50" y="0" height="47"/></clipPath><clipPath id="c0f18e61a6"><path d="M 58.273438 122 L 107 122 L 107 168.65625 L 58.273438 168.65625 Z M 58.273438 122 " clip-rule="nonzero"/></clipPath><clipPath id="309e7446d2"><path d="M 83.164062 122.476562 L 89.769531 137.089844 C 89.960938 137.511719 90.359375 137.804688 90.824219 137.855469 L 106.695312 139.609375 C 106.828125 139.625 106.9375 139.714844 106.980469 139.84375 C 107.019531 139.96875 106.984375 140.109375 106.886719 140.199219 L 95.089844 150.941406 C 94.746094 151.253906 94.589844 151.726562 94.683594 152.179688 L 97.917969 167.84375 C 97.941406 167.976562 97.890625 168.109375 97.785156 168.1875 C 97.675781 168.265625 97.53125 168.273438 97.417969 168.207031 L 83.507812 160.269531 C 83.105469 160.039062 82.609375 160.039062 82.207031 160.269531 L 68.296875 168.207031 C 68.179688 168.273438 68.039062 168.265625 67.929688 168.1875 C 67.820312 168.109375 67.769531 167.976562 67.796875 167.84375 L 71.027344 152.179688 C 71.121094 151.726562 70.96875 151.253906 70.625 150.941406 L 58.828125 140.199219 C 58.730469 140.109375 58.691406 139.96875 58.734375 139.84375 C 58.773438 139.714844 58.886719 139.625 59.019531 139.609375 L 74.890625 137.855469 C 75.351562 137.804688 75.753906 137.511719 75.945312 137.089844 L 82.546875 122.476562 C 82.601562 122.355469 82.722656 122.277344 82.855469 122.277344 C 82.988281 122.277344 83.109375 122.355469 83.164062 122.476562 Z M 83.164062 122.476562 " clip-rule="nonzero"/></clipPath><clipPath id="6320d73798"><path d="M 113.488281 122.160156 L 162 122.160156 L 162 168.304688 L 113.488281 168.304688 Z M 113.488281 122.160156 " clip-rule="nonzero"/></clipPath><clipPath id="3add29c90f"><path d="M 138.023438 122.476562 L 144.628906 137.09375 C 144.820312 137.519531 145.222656 137.808594 145.683594 137.859375 L 161.5625 139.617188 C 161.695312 139.632812 161.804688 139.722656 161.847656 139.847656 C 161.886719 139.976562 161.851562 140.113281 161.753906 140.203125 L 149.949219 150.953125 C 149.605469 151.265625 149.453125 151.738281 149.546875 152.191406 L 152.777344 167.859375 C 152.804688 167.992188 152.753906 168.125 152.644531 168.203125 C 152.539062 168.28125 152.394531 168.289062 152.28125 168.222656 L 138.367188 160.28125 C 137.960938 160.050781 137.464844 160.050781 137.0625 160.28125 L 123.148438 168.222656 C 123.035156 168.289062 122.890625 168.28125 122.78125 168.203125 C 122.675781 168.125 122.621094 167.992188 122.648438 167.859375 L 125.882812 152.191406 C 125.976562 151.738281 125.824219 151.265625 125.480469 150.953125 L 113.675781 140.203125 C 113.578125 140.113281 113.542969 139.976562 113.582031 139.847656 C 113.625 139.722656 113.734375 139.632812 113.867188 139.617188 L 129.746094 137.859375 C 130.207031 137.808594 130.609375 137.519531 130.800781 137.09375 L 137.40625 122.476562 C 137.460938 122.355469 137.582031 122.277344 137.714844 122.277344 C 137.847656 122.277344 137.96875 122.355469 138.023438 122.476562 Z M 138.023438 122.476562 " clip-rule="nonzero"/></clipPath><clipPath id="4677f6974e"><path d="M 0.488281 0.238281 L 49 0.238281 L 49 46.304688 L 0.488281 46.304688 Z M 0.488281 0.238281 " clip-rule="nonzero"/></clipPath><clipPath id="96898d5ec7"><path d="M 25.023438 0.476562 L 31.628906 15.09375 C 31.820312 15.519531 32.222656 15.808594 32.683594 15.859375 L 48.5625 17.617188 C 48.695312 17.632812 48.804688 17.722656 48.847656 17.847656 C 48.886719 17.976562 48.851562 18.113281 48.753906 18.203125 L 36.949219 28.953125 C 36.605469 29.265625 36.453125 29.738281 36.546875 30.191406 L 39.777344 45.859375 C 39.804688 45.992188 39.753906 46.125 39.644531 46.203125 C 39.539062 46.28125 39.394531 46.289062 39.28125 46.222656 L 25.367188 38.28125 C 24.960938 38.050781 24.464844 38.050781 24.0625 38.28125 L 10.148438 46.222656 C 10.035156 46.289062 9.890625 46.28125 9.78125 46.203125 C 9.675781 46.125 9.621094 45.992188 9.648438 45.859375 L 12.882812 30.191406 C 12.976562 29.738281 12.824219 29.265625 12.480469 28.953125 L 0.675781 18.203125 C 0.578125 18.113281 0.542969 17.976562 0.582031 17.847656 C 0.625 17.722656 0.734375 17.632812 0.867188 17.617188 L 16.746094 15.859375 C 17.207031 15.808594 17.609375 15.519531 17.800781 15.09375 L 24.40625 0.476562 C 24.460938 0.355469 24.582031 0.277344 24.714844 0.277344 C 24.847656 0.277344 24.96875 0.355469 25.023438 0.476562 Z M 25.023438 0.476562 " clip-rule="nonzero"/></clipPath><clipPath id="de2c280973"><rect x="0" width="49" y="0" height="47"/></clipPath><clipPath id="5d4190a6ad"><path d="M 113.125 122 L 161.859375 122 L 161.859375 168.65625 L 113.125 168.65625 Z M 113.125 122 " clip-rule="nonzero"/></clipPath><clipPath id="c0cd0c8ee9"><path d="M 138.019531 122.476562 L 144.625 137.089844 C 144.816406 137.511719 145.214844 137.804688 145.675781 137.855469 L 161.550781 139.609375 C 161.679688 139.625 161.792969 139.714844 161.832031 139.84375 C 161.875 139.96875 161.839844 140.109375 161.738281 140.199219 L 149.941406 150.941406 C 149.597656 151.253906 149.445312 151.726562 149.539062 152.179688 L 152.769531 167.84375 C 152.796875 167.976562 152.746094 168.109375 152.636719 168.1875 C 152.53125 168.265625 152.386719 168.273438 152.269531 168.207031 L 138.363281 160.269531 C 137.957031 160.039062 137.460938 160.039062 137.058594 160.269531 L 123.152344 168.207031 C 123.035156 168.273438 122.890625 168.265625 122.785156 168.1875 C 122.675781 168.109375 122.625 167.976562 122.652344 167.84375 L 125.882812 152.179688 C 125.976562 151.726562 125.824219 151.253906 125.480469 150.941406 L 113.679688 140.199219 C 113.582031 140.109375 113.546875 139.96875 113.585938 139.84375 C 113.628906 139.714844 113.738281 139.625 113.871094 139.609375 L 129.742188 137.855469 C 130.207031 137.804688 130.605469 137.511719 130.796875 137.089844 L 137.402344 122.476562 C 137.457031 122.355469 137.578125 122.277344 137.710938 122.277344 C 137.84375 122.277344 137.964844 122.355469 138.019531 122.476562 Z M 138.019531 122.476562 " clip-rule="nonzero"/></clipPath><clipPath id="52b5855cfb"><path d="M 169.152344 122.160156 L 217.679688 122.160156 L 217.679688 168.304688 L 169.152344 168.304688 Z M 169.152344 122.160156 " clip-rule="nonzero"/></clipPath><clipPath id="0058a0d407"><path d="M 193.6875 122.476562 L 200.292969 137.09375 C 200.484375 137.519531 200.882812 137.808594 201.347656 137.859375 L 217.222656 139.617188 C 217.355469 139.632812 217.46875 139.722656 217.507812 139.847656 C 217.550781 139.976562 217.511719 140.113281 217.414062 140.203125 L 205.613281 150.953125 C 205.269531 151.265625 205.117188 151.738281 205.210938 152.191406 L 208.441406 167.859375 C 208.46875 167.992188 208.417969 168.125 208.308594 168.203125 C 208.203125 168.28125 208.058594 168.289062 207.941406 168.222656 L 194.027344 160.28125 C 193.625 160.050781 193.128906 160.050781 192.726562 160.28125 L 178.8125 168.222656 C 178.695312 168.289062 178.554688 168.28125 178.445312 168.203125 C 178.335938 168.125 178.285156 167.992188 178.3125 167.859375 L 181.542969 152.191406 C 181.636719 151.738281 181.484375 151.265625 181.140625 150.953125 L 169.339844 140.203125 C 169.242188 140.113281 169.203125 139.976562 169.246094 139.847656 C 169.285156 139.722656 169.398438 139.632812 169.53125 139.617188 L 185.40625 137.859375 C 185.871094 137.808594 186.269531 137.519531 186.460938 137.09375 L 193.070312 122.476562 C 193.125 122.355469 193.246094 122.277344 193.378906 122.277344 C 193.511719 122.277344 193.632812 122.355469 193.6875 122.476562 Z M 193.6875 122.476562 " clip-rule="nonzero"/></clipPath><clipPath id="66ca92c7cf"><path d="M 0.152344 0.238281 L 48.679688 0.238281 L 48.679688 46.304688 L 0.152344 46.304688 Z M 0.152344 0.238281 " clip-rule="nonzero"/></clipPath><clipPath id="7c14cbc34f"><path d="M 24.6875 0.476562 L 31.292969 15.09375 C 31.484375 15.519531 31.882812 15.808594 32.347656 15.859375 L 48.222656 17.617188 C 48.355469 17.632812 48.46875 17.722656 48.507812 17.847656 C 48.550781 17.976562 48.511719 18.113281 48.414062 18.203125 L 36.613281 28.953125 C 36.269531 29.265625 36.117188 29.738281 36.210938 30.191406 L 39.441406 45.859375 C 39.46875 45.992188 39.417969 46.125 39.308594 46.203125 C 39.203125 46.28125 39.058594 46.289062 38.941406 46.222656 L 25.027344 38.28125 C 24.625 38.050781 24.128906 38.050781 23.726562 38.28125 L 9.8125 46.222656 C 9.695312 46.289062 9.554688 46.28125 9.445312 46.203125 C 9.335938 46.125 9.285156 45.992188 9.3125 45.859375 L 12.542969 30.191406 C 12.636719 29.738281 12.484375 29.265625 12.140625 28.953125 L 0.339844 18.203125 C 0.242188 18.113281 0.203125 17.976562 0.246094 17.847656 C 0.285156 17.722656 0.398438 17.632812 0.53125 17.617188 L 16.40625 15.859375 C 16.871094 15.808594 17.269531 15.519531 17.460938 15.09375 L 24.070312 0.476562 C 24.125 0.355469 24.246094 0.277344 24.378906 0.277344 C 24.511719 0.277344 24.632812 0.355469 24.6875 0.476562 Z M 24.6875 0.476562 " clip-rule="nonzero"/></clipPath><clipPath id="677b94509a"><rect x="0" width="49" y="0" height="47"/></clipPath><clipPath id="a0303accda"><path d="M 169 122 L 217.523438 122 L 217.523438 168.65625 L 169 168.65625 Z M 169 122 " clip-rule="nonzero"/></clipPath><clipPath id="21a5cbf2c6"><path d="M 193.683594 122.476562 L 200.285156 137.089844 C 200.476562 137.511719 200.878906 137.804688 201.339844 137.855469 L 217.210938 139.609375 C 217.34375 139.625 217.457031 139.714844 217.496094 139.84375 C 217.539062 139.96875 217.5 140.109375 217.402344 140.199219 L 205.605469 150.941406 C 205.261719 151.253906 205.109375 151.726562 205.203125 152.179688 L 208.433594 167.84375 C 208.460938 167.976562 208.40625 168.109375 208.300781 168.1875 C 208.191406 168.265625 208.050781 168.273438 207.933594 168.207031 L 194.023438 160.269531 C 193.621094 160.039062 193.125 160.039062 192.722656 160.269531 L 178.8125 168.207031 C 178.699219 168.273438 178.554688 168.265625 178.445312 168.1875 C 178.339844 168.109375 178.285156 167.976562 178.3125 167.84375 L 181.542969 152.179688 C 181.640625 151.726562 181.484375 151.253906 181.140625 150.941406 L 169.34375 140.199219 C 169.246094 140.109375 169.207031 139.96875 169.25 139.84375 C 169.292969 139.714844 169.402344 139.625 169.535156 139.609375 L 185.40625 137.855469 C 185.867188 137.804688 186.269531 137.511719 186.460938 137.089844 L 193.066406 122.476562 C 193.121094 122.355469 193.242188 122.277344 193.375 122.277344 C 193.507812 122.277344 193.628906 122.355469 193.683594 122.476562 Z M 193.683594 122.476562 " clip-rule="nonzero"/></clipPath><clipPath id="9f3036382f"><path d="M 225.820312 122.160156 L 274.347656 122.160156 L 274.347656 168.304688 L 225.820312 168.304688 Z M 225.820312 122.160156 " clip-rule="nonzero"/></clipPath><clipPath id="b3e46cac21"><path d="M 250.355469 122.476562 L 256.960938 137.09375 C 257.152344 137.519531 257.550781 137.808594 258.015625 137.859375 L 273.890625 139.617188 C 274.023438 139.632812 274.136719 139.722656 274.175781 139.847656 C 274.21875 139.976562 274.179688 140.113281 274.082031 140.203125 L 262.28125 150.953125 C 261.9375 151.265625 261.785156 151.738281 261.878906 152.191406 L 265.109375 167.859375 C 265.136719 167.992188 265.085938 168.125 264.976562 168.203125 C 264.871094 168.28125 264.726562 168.289062 264.609375 168.222656 L 250.695312 160.28125 C 250.292969 160.050781 249.796875 160.050781 249.394531 160.28125 L 235.480469 168.222656 C 235.363281 168.289062 235.222656 168.28125 235.113281 168.203125 C 235.003906 168.125 234.953125 167.992188 234.980469 167.859375 L 238.210938 152.191406 C 238.304688 151.738281 238.152344 151.265625 237.808594 150.953125 L 226.007812 140.203125 C 225.910156 140.113281 225.871094 139.976562 225.914062 139.847656 C 225.953125 139.722656 226.066406 139.632812 226.199219 139.617188 L 242.074219 137.859375 C 242.539062 137.808594 242.9375 137.519531 243.128906 137.09375 L 249.738281 122.476562 C 249.792969 122.355469 249.914062 122.277344 250.046875 122.277344 C 250.179688 122.277344 250.300781 122.355469 250.355469 122.476562 Z M 250.355469 122.476562 " clip-rule="nonzero"/></clipPath><clipPath id="1d1684c15b"><path d="M 0.820312 0.238281 L 49.347656 0.238281 L 49.347656 46.304688 L 0.820312 46.304688 Z M 0.820312 0.238281 " clip-rule="nonzero"/></clipPath><clipPath id="131bad2c99"><path d="M 25.355469 0.476562 L 31.960938 15.09375 C 32.152344 15.519531 32.550781 15.808594 33.015625 15.859375 L 48.890625 17.617188 C 49.023438 17.632812 49.136719 17.722656 49.175781 17.847656 C 49.21875 17.976562 49.179688 18.113281 49.082031 18.203125 L 37.28125 28.953125 C 36.9375 29.265625 36.785156 29.738281 36.878906 30.191406 L 40.109375 45.859375 C 40.136719 45.992188 40.085938 46.125 39.976562 46.203125 C 39.871094 46.28125 39.726562 46.289062 39.609375 46.222656 L 25.695312 38.28125 C 25.292969 38.050781 24.796875 38.050781 24.394531 38.28125 L 10.480469 46.222656 C 10.363281 46.289062 10.222656 46.28125 10.113281 46.203125 C 10.003906 46.125 9.953125 45.992188 9.980469 45.859375 L 13.210938 30.191406 C 13.304688 29.738281 13.152344 29.265625 12.808594 28.953125 L 1.007812 18.203125 C 0.910156 18.113281 0.871094 17.976562 0.914062 17.847656 C 0.953125 17.722656 1.066406 17.632812 1.199219 17.617188 L 17.074219 15.859375 C 17.539062 15.808594 17.9375 15.519531 18.128906 15.09375 L 24.738281 0.476562 C 24.792969 0.355469 24.914062 0.277344 25.046875 0.277344 C 25.179688 0.277344 25.300781 0.355469 25.355469 0.476562 Z M 25.355469 0.476562 " clip-rule="nonzero"/></clipPath><clipPath id="07a3d9c52e"><rect x="0" width="50" y="0" height="47"/></clipPath><clipPath id="2f2e28d4c7"><path d="M 225.457031 122 L 274.191406 122 L 274.191406 168.65625 L 225.457031 168.65625 Z M 225.457031 122 " clip-rule="nonzero"/></clipPath><clipPath id="f5f2944a36"><path d="M 250.351562 122.476562 L 256.953125 137.089844 C 257.144531 137.511719 257.546875 137.804688 258.007812 137.855469 L 273.878906 139.609375 C 274.011719 139.625 274.125 139.714844 274.164062 139.84375 C 274.207031 139.96875 274.167969 140.109375 274.070312 140.199219 L 262.273438 150.941406 C 261.929688 151.253906 261.777344 151.726562 261.871094 152.179688 L 265.101562 167.84375 C 265.128906 167.976562 265.074219 168.109375 264.96875 168.1875 C 264.859375 168.265625 264.71875 168.273438 264.601562 168.207031 L 250.691406 160.269531 C 250.289062 160.039062 249.792969 160.039062 249.390625 160.269531 L 235.480469 168.207031 C 235.367188 168.273438 235.222656 168.265625 235.113281 168.1875 C 235.007812 168.109375 234.953125 167.976562 234.980469 167.84375 L 238.210938 152.179688 C 238.304688 151.726562 238.152344 151.253906 237.808594 150.941406 L 226.011719 140.199219 C 225.914062 140.109375 225.875 139.96875 225.917969 139.84375 C 225.960938 139.714844 226.070312 139.625 226.203125 139.609375 L 242.074219 137.855469 C 242.535156 137.804688 242.9375 137.511719 243.128906 137.089844 L 249.734375 122.476562 C 249.789062 122.355469 249.910156 122.277344 250.042969 122.277344 C 250.175781 122.277344 250.296875 122.355469 250.351562 122.476562 Z M 250.351562 122.476562 " clip-rule="nonzero"/></clipPath><clipPath id="8e9c942db2"><rect x="0" width="278" y="0" height="172"/></clipPath></defs><g clip-path="url(#c56df0a3b0)"><g clip-path="url(#9c273daef8)"><g transform="matrix(1, 0, 0, 1, 2, 2)"><g clip-path="url(#3e1ccb2b30)"><g clip-path="url(#c78ab49e3c)"><g clip-path="url(#f21ea461de)"><path fill="#104762" d="M 0.664062 0.664062 L 295.335938 0.664062 L 295.335938 295.335938 L 0.664062 295.335938 Z M 0.664062 0.664062 " fill-opacity="1" fill-rule="nonzero"/></g></g></g></g></g></g><g clip-path="url(#a39a2f7286)"><g clip-path="url(#241b1d7318)"><path stroke-linecap="butt" transform="matrix(0.75, 0, 0, 0.75, 2.662506, 2.6625)" fill="none" stroke-linejoin="miter" d="M 14.002077 0.00208362 L 378.892732 0.00208362 C 382.606274 0.00208362 386.163565 1.476042 388.788566 4.101042 C 391.413566 6.726043 392.892733 10.288543 392.892733 14.002085 L 392.892733 378.89274 C 392.892733 382.606282 391.413566 386.163573 388.788566 388.788574 C 386.163565 391.413574 382.606274 392.892741 378.892732 392.892741 L 14.002077 392.892741 C 10.288535 392.892741 6.726035 391.413574 4.101034 388.788574 C 1.476034 386.163573 0.00207562 382.606282 0.00207562 378.89274 L 0.00207562 14.002085 C 0.00207562 10.288543 1.476034 6.726043 4.101034 4.101042 C 6.726035 1.476042 10.288535 0.00208362 14.002077 0.00208362 Z M 14.002077 0.00208362 " stroke="#000000" stroke-width="6" stroke-opacity="1" stroke-miterlimit="4"/></g></g><g transform="matrix(1, 0, 0, 1, 11, 64)"><g clip-path="url(#8e9c942db2)"><g clip-path="url(#267d6f03aa)"><g clip-path="url(#ce30417431)"><g transform="matrix(1, 0, 0, 1, 3, 3)"><g clip-path="url(#de5053524c)"><g clip-path="url(#d17d1d768a)"><g clip-path="url(#05d2289b73)"><path fill="#ffde59" d="M 0.363281 0.328125 L 49.621094 0.328125 L 49.621094 47.207031 L 0.363281 47.207031 Z M 0.363281 0.328125 " fill-opacity="1" fill-rule="nonzero"/></g></g></g></g></g></g><g clip-path="url(#430ec456a3)"><g clip-path="url(#6274fa2da5)"><path stroke-linecap="butt" transform="matrix(1.874507, 0, 0, 1.874507, 3.367066, 3.328308)" fill="none" stroke-linejoin="miter" d="M 13.27856 0.364582 L 16.802404 8.160384 C 16.904514 8.385443 17.119154 8.541734 17.365052 8.568825 L 25.831864 9.504488 C 25.902716 9.512823 25.961064 9.560752 25.983987 9.62952 C 26.00691 9.696205 25.986071 9.771224 25.933974 9.819154 L 19.640651 15.549829 C 19.457269 15.716539 19.375998 15.968689 19.426011 16.210419 L 21.149381 24.566785 C 21.163968 24.637637 21.134794 24.708489 21.078529 24.750167 C 21.020181 24.791845 20.943077 24.796012 20.882644 24.760586 L 13.461941 20.526138 C 13.247301 20.403189 12.982648 20.403189 12.768009 20.526138 L 5.347306 24.760586 C 5.284789 24.796012 5.209769 24.791845 5.151421 24.750167 C 5.095156 24.708489 5.065982 24.637637 5.080569 24.566785 L 6.803939 16.210419 C 6.853952 15.968689 6.772681 15.716539 6.589299 15.549829 L 0.295976 9.819154 C 0.243879 9.771224 0.22304 9.696205 0.245963 9.62952 C 0.266802 9.560752 0.327234 9.512823 0.398086 9.504488 L 8.864898 8.568825 C 9.110796 8.541734 9.325436 8.385443 9.427546 8.160384 L 12.949306 0.364582 C 12.978481 0.299982 13.043081 0.258304 13.113933 0.258304 C 13.184785 0.258304 13.249385 0.299982 13.27856 0.364582 Z M 13.27856 0.364582 " stroke="#000000" stroke-width="0.800211" stroke-opacity="1" stroke-miterlimit="4"/></g></g><g clip-path="url(#bc76f7e406)"><g clip-path="url(#6c73bfaaf6)"><g transform="matrix(1, 0, 0, 1, 58, 3)"><g clip-path="url(#a1ae1fcb5b)"><g clip-path="url(#03078d416f)"><g clip-path="url(#52915ed2d4)"><path fill="#ffde59" d="M 0.269531 0.328125 L 49.527344 0.328125 L 49.527344 47.207031 L 0.269531 47.207031 Z M 0.269531 0.328125 " fill-opacity="1" fill-rule="nonzero"/></g></g></g></g></g></g><g clip-path="url(#5d998708c9)"><g clip-path="url(#dd96866783)"><path stroke-linecap="butt" transform="matrix(1.874507, 0, 0, 1.874507, 58.272667, 3.328308)" fill="none" stroke-linejoin="miter" d="M 13.278906 0.364582 L 16.80275 8.160384 C 16.90486 8.385443 17.117416 8.541734 17.365398 8.568825 L 25.83221 9.504488 C 25.903062 9.512823 25.961411 9.560752 25.984333 9.62952 C 26.005172 9.696205 25.986417 9.771224 25.93432 9.819154 L 19.640997 15.549829 C 19.457616 15.716539 19.37426 15.968689 19.424274 16.210419 L 21.149728 24.566785 C 21.162231 24.637637 21.13514 24.708489 21.078876 24.750167 C 21.020527 24.791845 20.943423 24.796012 20.882991 24.760586 L 13.462288 20.526138 C 13.247648 20.403189 12.982995 20.403189 12.768355 20.526138 L 5.347652 24.760586 C 5.285135 24.796012 5.210116 24.791845 5.151767 24.750167 C 5.093418 24.708489 5.066328 24.637637 5.080915 24.566785 L 6.804285 16.210419 C 6.854298 15.968689 6.773027 15.716539 6.589645 15.549829 L 0.296322 9.819154 C 0.244225 9.771224 0.223387 9.696205 0.246309 9.62952 C 0.267148 9.560752 0.327581 9.512823 0.398433 9.504488 L 8.865244 8.568825 C 9.111142 8.541734 9.325782 8.385443 9.427892 8.160384 L 12.949653 0.364582 C 12.978827 0.299982 13.043427 0.258304 13.114279 0.258304 C 13.185131 0.258304 13.249732 0.299982 13.278906 0.364582 Z M 13.278906 0.364582 " stroke="#000000" stroke-width="0.800211" stroke-opacity="1" stroke-miterlimit="4"/></g></g><g clip-path="url(#3401d47859)"><g clip-path="url(#96756f600a)"><g transform="matrix(1, 0, 0, 1, 113, 3)"><g clip-path="url(#0b256f8c52)"><g clip-path="url(#49ab6a74aa)"><g clip-path="url(#661ab50bc6)"><path fill="#ffde59" d="M 0.121094 0.328125 L 49.382812 0.328125 L 49.382812 47.207031 L 0.121094 47.207031 Z M 0.121094 0.328125 " fill-opacity="1" fill-rule="nonzero"/></g></g></g></g></g></g><g clip-path="url(#0835186bfb)"><g clip-path="url(#dcc726af2b)"><path stroke-linecap="butt" transform="matrix(1.874507, 0, 0, 1.874507, 113.126724, 3.328308)" fill="none" stroke-linejoin="miter" d="M 13.279659 0.364582 L 16.803503 8.160384 C 16.905613 8.385443 17.118169 8.541734 17.364067 8.568825 L 25.832963 9.504488 C 25.901731 9.512823 25.962164 9.560752 25.983003 9.62952 C 26.005925 9.696205 25.98717 9.771224 25.932989 9.819154 L 19.639666 15.549829 C 19.456285 15.716539 19.375013 15.968689 19.425027 16.210419 L 21.148397 24.566785 C 21.162984 24.637637 21.135894 24.708489 21.077545 24.750167 C 21.02128 24.791845 20.944176 24.796012 20.88166 24.760586 L 13.463041 20.526138 C 13.246317 20.403189 12.981664 20.403189 12.767024 20.526138 L 5.348405 24.760586 C 5.285889 24.796012 5.208785 24.791845 5.15252 24.750167 C 5.094171 24.708489 5.067081 24.637637 5.081668 24.566785 L 6.805038 16.210419 C 6.855052 15.968689 6.77378 15.716539 6.590399 15.549829 L 0.294992 9.819154 C 0.242895 9.771224 0.22414 9.696205 0.244978 9.62952 C 0.267901 9.560752 0.32625 9.512823 0.397102 9.504488 L 8.863914 8.568825 C 9.111896 8.541734 9.324451 8.385443 9.426562 8.160384 L 12.950406 0.364582 C 12.97958 0.299982 13.04418 0.258304 13.115032 0.258304 C 13.185884 0.258304 13.250485 0.299982 13.279659 0.364582 Z M 13.279659 0.364582 " stroke="#000000" stroke-width="0.800211" stroke-opacity="1" stroke-miterlimit="4"/></g></g><g clip-path="url(#d2dc589c1c)"><g clip-path="url(#60b4347b15)"><g transform="matrix(1, 0, 0, 1, 169, 3)"><g clip-path="url(#1ccad05633)"><g clip-path="url(#96850b1a61)"><g clip-path="url(#7dc742fb4e)"><path fill="#ffde59" d="M -0.214844 0.328125 L 49.042969 0.328125 L 49.042969 47.207031 L -0.214844 47.207031 Z M -0.214844 0.328125 " fill-opacity="1" fill-rule="nonzero"/></g></g></g></g></g></g><g clip-path="url(#bf5a406fa6)"><g clip-path="url(#bd1f49263a)"><path stroke-linecap="butt" transform="matrix(1.874507, 0, 0, 1.874507, 168.789831, 3.328308)" fill="none" stroke-linejoin="miter" d="M 13.280169 0.364582 L 16.801929 8.160384 C 16.90404 8.385443 17.118679 8.541734 17.364577 8.568825 L 25.831389 9.504488 C 25.902241 9.512823 25.962674 9.560752 25.983513 9.62952 C 26.006435 9.696205 25.985596 9.771224 25.933499 9.819154 L 19.640176 15.549829 C 19.456795 15.716539 19.375523 15.968689 19.425536 16.210419 L 21.148907 24.566785 C 21.163494 24.637637 21.13432 24.708489 21.078055 24.750167 C 21.019706 24.791845 20.944686 24.796012 20.88217 24.760586 L 13.461467 20.526138 C 13.246827 20.403189 12.982174 20.403189 12.767534 20.526138 L 5.346831 24.760586 C 5.286398 24.796012 5.209295 24.791845 5.150946 24.750167 C 5.094681 24.708489 5.065507 24.637637 5.080094 24.566785 L 6.803464 16.210419 C 6.855561 15.968689 6.772206 15.716539 6.588825 15.549829 L 0.295501 9.819154 C 0.243404 9.771224 0.222566 9.696205 0.245488 9.62952 C 0.268411 9.560752 0.32676 9.512823 0.397612 9.504488 L 8.864423 8.568825 C 9.110322 8.541734 9.324961 8.385443 9.427072 8.160384 L 12.950916 0.364582 C 12.98009 0.299982 13.04469 0.258304 13.115542 0.258304 C 13.186394 0.258304 13.250995 0.299982 13.280169 0.364582 Z M 13.280169 0.364582 " stroke="#000000" stroke-width="0.800211" stroke-opacity="1" stroke-miterlimit="4"/></g></g><g clip-path="url(#860800dd4e)"><g clip-path="url(#1e0c8aadb9)"><g transform="matrix(1, 0, 0, 1, 225, 3)"><g clip-path="url(#ef3edd7643)"><g clip-path="url(#c60a62587f)"><g clip-path="url(#e3a1205369)"><path fill="#ffde59" d="M 0.453125 0.328125 L 49.710938 0.328125 L 49.710938 47.207031 L 0.453125 47.207031 Z M 0.453125 0.328125 " fill-opacity="1" fill-rule="nonzero"/></g></g></g></g></g></g><g clip-path="url(#a3392478d3)"><g clip-path="url(#f10be37e93)"><path stroke-linecap="butt" transform="matrix(1.874507, 0, 0, 1.874507, 225.457759, 3.328308)" fill="none" stroke-linejoin="miter" d="M 13.28019 0.364582 L 16.801951 8.160384 C 16.904061 8.385443 17.118701 8.541734 17.364599 8.568825 L 25.83141 9.504488 C 25.902262 9.512823 25.962695 9.560752 25.983534 9.62952 C 26.006456 9.696205 25.985618 9.771224 25.933521 9.819154 L 19.640198 15.549829 C 19.456816 15.716539 19.375545 15.968689 19.425558 16.210419 L 21.148928 24.566785 C 21.163515 24.637637 21.134341 24.708489 21.078076 24.750167 C 21.019727 24.791845 20.944708 24.796012 20.882191 24.760586 L 13.461488 20.526138 C 13.246848 20.403189 12.982195 20.403189 12.767555 20.526138 L 5.346852 24.760586 C 5.28642 24.796012 5.209316 24.791845 5.150967 24.750167 C 5.094703 24.708489 5.065528 24.637637 5.080115 24.566785 L 6.803486 16.210419 C 6.853499 15.968689 6.772227 15.716539 6.588846 15.549829 L 0.295523 9.819154 C 0.243426 9.771224 0.222587 9.696205 0.24551 9.62952 C 0.268432 9.560752 0.326781 9.512823 0.397633 9.504488 L 8.864445 8.568825 C 9.110343 8.541734 9.324983 8.385443 9.427093 8.160384 L 12.950937 0.364582 C 12.980111 0.299982 13.044712 0.258304 13.115564 0.258304 C 13.186416 0.258304 13.251016 0.299982 13.28019 0.364582 Z M 13.28019 0.364582 " stroke="#000000" stroke-width="0.800211" stroke-opacity="1" stroke-miterlimit="4"/></g></g><g clip-path="url(#af3886de05)"><g clip-path="url(#a8db13111e)"><g transform="matrix(1, 0, 0, 1, 3, 63)"><g clip-path="url(#06e66822de)"><g clip-path="url(#3d5ea5eff9)"><g clip-path="url(#a8963510f2)"><path fill="#ffde59" d="M 0.363281 -0.4375 L 49.621094 -0.4375 L 49.621094 46.4375 L 0.363281 46.4375 Z M 0.363281 -0.4375 " fill-opacity="1" fill-rule="nonzero"/></g></g></g></g></g></g><g clip-path="url(#014b32fd7d)"><g clip-path="url(#25289d625c)"><path stroke-linecap="butt" transform="matrix(1.874507, 0, 0, 1.874507, 3.367066, 62.560615)" fill="none" stroke-linejoin="miter" d="M 13.27856 0.363601 L 16.802404 8.159403 C 16.904514 8.386546 17.119154 8.540753 17.365052 8.567844 L 25.831864 9.50559 C 25.902716 9.513926 25.961064 9.561855 25.983987 9.628539 C 26.00691 9.697308 25.986071 9.770243 25.933974 9.818173 L 19.640651 15.550932 C 19.457269 15.717642 19.375998 15.967708 19.426011 16.211522 L 21.149381 24.567888 C 21.163968 24.636656 21.134794 24.707508 21.078529 24.749186 C 21.020181 24.790863 20.943077 24.795031 20.882644 24.761689 L 13.461941 20.525157 C 13.247301 20.404292 12.982648 20.404292 12.768009 20.525157 L 5.347306 24.761689 C 5.284789 24.795031 5.209769 24.790863 5.151421 24.749186 C 5.095156 24.707508 5.065982 24.636656 5.080569 24.567888 L 6.803939 16.211522 C 6.853952 15.967708 6.772681 15.717642 6.589299 15.550932 L 0.295976 9.818173 C 0.243879 9.770243 0.22304 9.697308 0.245963 9.628539 C 0.266802 9.561855 0.327234 9.513926 0.398086 9.50559 L 8.864898 8.567844 C 9.110796 8.540753 9.325436 8.386546 9.427546 8.159403 L 12.949306 0.363601 C 12.978481 0.299001 13.043081 0.257323 13.113933 0.257323 C 13.184785 0.257323 13.249385 0.299001 13.27856 0.363601 Z M 13.27856 0.363601 " stroke="#000000" stroke-width="0.800211" stroke-opacity="1" stroke-miterlimit="4"/></g></g><g clip-path="url(#0b731e5407)"><g clip-path="url(#a817898de5)"><g transform="matrix(1, 0, 0, 1, 58, 63)"><g clip-path="url(#728a8864e4)"><g clip-path="url(#665788afed)"><g clip-path="url(#da10bb3ac4)"><path fill="#ffde59" d="M 0.269531 -0.4375 L 49.527344 -0.4375 L 49.527344 46.4375 L 0.269531 46.4375 Z M 0.269531 -0.4375 " fill-opacity="1" fill-rule="nonzero"/></g></g></g></g></g></g><g clip-path="url(#8c66fff913)"><g clip-path="url(#5e91f7fdc9)"><path stroke-linecap="butt" transform="matrix(1.874507, 0, 0, 1.874507, 58.272667, 62.560615)" fill="none" stroke-linejoin="miter" d="M 13.278906 0.363601 L 16.80275 8.159403 C 16.90486 8.386546 17.117416 8.540753 17.365398 8.567844 L 25.83221 9.50559 C 25.903062 9.513926 25.961411 9.561855 25.984333 9.628539 C 26.005172 9.697308 25.986417 9.770243 25.93432 9.818173 L 19.640997 15.550932 C 19.457616 15.717642 19.37426 15.967708 19.424274 16.211522 L 21.149728 24.567888 C 21.162231 24.636656 21.13514 24.707508 21.078876 24.749186 C 21.020527 24.790863 20.943423 24.795031 20.882991 24.761689 L 13.462288 20.525157 C 13.247648 20.404292 12.982995 20.404292 12.768355 20.525157 L 5.347652 24.761689 C 5.285135 24.795031 5.210116 24.790863 5.151767 24.749186 C 5.093418 24.707508 5.066328 24.636656 5.080915 24.567888 L 6.804285 16.211522 C 6.854298 15.967708 6.773027 15.717642 6.589645 15.550932 L 0.296322 9.818173 C 0.244225 9.770243 0.223387 9.697308 0.246309 9.628539 C 0.267148 9.561855 0.327581 9.513926 0.398433 9.50559 L 8.865244 8.567844 C 9.111142 8.540753 9.325782 8.386546 9.427892 8.159403 L 12.949653 0.363601 C 12.978827 0.299001 13.043427 0.257323 13.114279 0.257323 C 13.185131 0.257323 13.249732 0.299001 13.278906 0.363601 Z M 13.278906 0.363601 " stroke="#000000" stroke-width="0.800211" stroke-opacity="1" stroke-miterlimit="4"/></g></g><g clip-path="url(#c2ab59f96c)"><g clip-path="url(#fc4b88ab9a)"><g transform="matrix(1, 0, 0, 1, 113, 63)"><g clip-path="url(#f0ef0ce5cf)"><g clip-path="url(#63a26d15c1)"><g clip-path="url(#be6eda2883)"><path fill="#ffde59" d="M 0.121094 -0.4375 L 49.382812 -0.4375 L 49.382812 46.4375 L 0.121094 46.4375 Z M 0.121094 -0.4375 " fill-opacity="1" fill-rule="nonzero"/></g></g></g></g></g></g><g clip-path="url(#1e245e50b0)"><g clip-path="url(#06fdf9383f)"><path stroke-linecap="butt" transform="matrix(1.874507, 0, 0, 1.874507, 113.126724, 62.560615)" fill="none" stroke-linejoin="miter" d="M 13.279659 0.363601 L 16.803503 8.159403 C 16.905613 8.386546 17.118169 8.540753 17.364067 8.567844 L 25.832963 9.50559 C 25.901731 9.513926 25.962164 9.561855 25.983003 9.628539 C 26.005925 9.697308 25.98717 9.770243 25.932989 9.818173 L 19.639666 15.550932 C 19.456285 15.717642 19.375013 15.967708 19.425027 16.211522 L 21.148397 24.567888 C 21.162984 24.636656 21.135894 24.707508 21.077545 24.749186 C 21.02128 24.790863 20.944176 24.795031 20.88166 24.761689 L 13.463041 20.525157 C 13.246317 20.404292 12.981664 20.404292 12.767024 20.525157 L 5.348405 24.761689 C 5.285889 24.795031 5.208785 24.790863 5.15252 24.749186 C 5.094171 24.707508 5.067081 24.636656 5.081668 24.567888 L 6.805038 16.211522 C 6.855052 15.967708 6.77378 15.717642 6.590399 15.550932 L 0.294992 9.818173 C 0.242895 9.770243 0.22414 9.697308 0.244978 9.628539 C 0.267901 9.561855 0.32625 9.513926 0.397102 9.50559 L 8.863914 8.567844 C 9.111896 8.540753 9.324451 8.386546 9.426562 8.159403 L 12.950406 0.363601 C 12.97958 0.299001 13.04418 0.257323 13.115032 0.257323 C 13.185884 0.257323 13.250485 0.299001 13.279659 0.363601 Z M 13.279659 0.363601 " stroke="#000000" stroke-width="0.800211" stroke-opacity="1" stroke-miterlimit="4"/></g></g><g clip-path="url(#907f59c3a0)"><g clip-path="url(#439a505ffd)"><g transform="matrix(1, 0, 0, 1, 169, 63)"><g clip-path="url(#85a8f9e5ad)"><g clip-path="url(#0ed40a4317)"><g clip-path="url(#6d69cb1d87)"><path fill="#ffde59" d="M -0.214844 -0.4375 L 49.042969 -0.4375 L 49.042969 46.4375 L -0.214844 46.4375 Z M -0.214844 -0.4375 " fill-opacity="1" fill-rule="nonzero"/></g></g></g></g></g></g><g clip-path="url(#b81f2ca83b)"><g clip-path="url(#3d168c9540)"><path stroke-linecap="butt" transform="matrix(1.874507, 0, 0, 1.874507, 168.789831, 62.560615)" fill="none" stroke-linejoin="miter" d="M 13.280169 0.363601 L 16.801929 8.159403 C 16.90404 8.386546 17.118679 8.540753 17.364577 8.567844 L 25.831389 9.50559 C 25.902241 9.513926 25.962674 9.561855 25.983513 9.628539 C 26.006435 9.697308 25.985596 9.770243 25.933499 9.818173 L 19.640176 15.550932 C 19.456795 15.717642 19.375523 15.967708 19.425536 16.211522 L 21.148907 24.567888 C 21.163494 24.636656 21.13432 24.707508 21.078055 24.749186 C 21.019706 24.790863 20.944686 24.795031 20.88217 24.761689 L 13.461467 20.525157 C 13.246827 20.404292 12.982174 20.404292 12.767534 20.525157 L 5.346831 24.761689 C 5.286398 24.795031 5.209295 24.790863 5.150946 24.749186 C 5.094681 24.707508 5.065507 24.636656 5.080094 24.567888 L 6.803464 16.211522 C 6.855561 15.967708 6.772206 15.717642 6.588825 15.550932 L 0.295501 9.818173 C 0.243404 9.770243 0.222566 9.697308 0.245488 9.628539 C 0.268411 9.561855 0.32676 9.513926 0.397612 9.50559 L 8.864423 8.567844 C 9.110322 8.540753 9.324961 8.386546 9.427072 8.159403 L 12.950916 0.363601 C 12.98009 0.299001 13.04469 0.257323 13.115542 0.257323 C 13.186394 0.257323 13.250995 0.299001 13.280169 0.363601 Z M 13.280169 0.363601 " stroke="#000000" stroke-width="0.800211" stroke-opacity="1" stroke-miterlimit="4"/></g></g><g clip-path="url(#7a45af293d)"><g clip-path="url(#d84ce46e2d)"><g transform="matrix(1, 0, 0, 1, 225, 63)"><g clip-path="url(#c871d36c4e)"><g clip-path="url(#fd17c55779)"><g clip-path="url(#b43e85d9e2)"><path fill="#ffde59" d="M 0.453125 -0.4375 L 49.710938 -0.4375 L 49.710938 46.4375 L 0.453125 46.4375 Z M 0.453125 -0.4375 " fill-opacity="1" fill-rule="nonzero"/></g></g></g></g></g></g><g clip-path="url(#73590eee92)"><g clip-path="url(#e31be95149)"><path stroke-linecap="butt" transform="matrix(1.874507, 0, 0, 1.874507, 225.457759, 62.560615)" fill="none" stroke-linejoin="miter" d="M 13.28019 0.363601 L 16.801951 8.159403 C 16.904061 8.386546 17.118701 8.540753 17.364599 8.567844 L 25.83141 9.50559 C 25.902262 9.513926 25.962695 9.561855 25.983534 9.628539 C 26.006456 9.697308 25.985618 9.770243 25.933521 9.818173 L 19.640198 15.550932 C 19.456816 15.717642 19.375545 15.967708 19.425558 16.211522 L 21.148928 24.567888 C 21.163515 24.636656 21.134341 24.707508 21.078076 24.749186 C 21.019727 24.790863 20.944708 24.795031 20.882191 24.761689 L 13.461488 20.525157 C 13.246848 20.404292 12.982195 20.404292 12.767555 20.525157 L 5.346852 24.761689 C 5.28642 24.795031 5.209316 24.790863 5.150967 24.749186 C 5.094703 24.707508 5.065528 24.636656 5.080115 24.567888 L 6.803486 16.211522 C 6.853499 15.967708 6.772227 15.717642 6.588846 15.550932 L 0.295523 9.818173 C 0.243426 9.770243 0.222587 9.697308 0.24551 9.628539 C 0.268432 9.561855 0.326781 9.513926 0.397633 9.50559 L 8.864445 8.567844 C 9.110343 8.540753 9.324983 8.386546 9.427093 8.159403 L 12.950937 0.363601 C 12.980111 0.299001 13.044712 0.257323 13.115564 0.257323 C 13.186416 0.257323 13.251016 0.299001 13.28019 0.363601 Z M 13.28019 0.363601 " stroke="#000000" stroke-width="0.800211" stroke-opacity="1" stroke-miterlimit="4"/></g></g><g clip-path="url(#ff1446b68e)"><g clip-path="url(#b8ddcb89e4)"><g transform="matrix(1, 0, 0, 1, 3, 122)"><g clip-path="url(#3ef5fadd79)"><g clip-path="url(#abe2775c2e)"><g clip-path="url(#207079b995)"><path fill="#ffde59" d="M 0.363281 -0.207031 L 49.621094 -0.207031 L 49.621094 46.671875 L 0.363281 46.671875 Z M 0.363281 -0.207031 " fill-opacity="1" fill-rule="nonzero"/></g></g></g></g></g></g><g clip-path="url(#1efad08428)"><g clip-path="url(#276fa0f88d)"><path stroke-linecap="butt" transform="matrix(1.874507, 0, 0, 1.874507, 3.367066, 121.792915)" fill="none" stroke-linejoin="miter" d="M 13.27856 0.364708 L 16.802404 8.16051 C 16.904514 8.385569 17.119154 8.54186 17.365052 8.568951 L 25.831864 9.504613 C 25.902716 9.512949 25.961064 9.560878 25.983987 9.629646 C 26.00691 9.696331 25.986071 9.77135 25.933974 9.81928 L 19.640651 15.549955 C 19.457269 15.716665 19.375998 15.968815 19.426011 16.210545 L 21.149381 24.566911 C 21.163968 24.637763 21.134794 24.708615 21.078529 24.750293 C 21.020181 24.79197 20.943077 24.796138 20.882644 24.760712 L 13.461941 20.526264 C 13.247301 20.403315 12.982648 20.403315 12.768009 20.526264 L 5.347306 24.760712 C 5.284789 24.796138 5.209769 24.79197 5.151421 24.750293 C 5.095156 24.708615 5.065982 24.637763 5.080569 24.566911 L 6.803939 16.210545 C 6.853952 15.968815 6.772681 15.716665 6.589299 15.549955 L 0.295976 9.81928 C 0.243879 9.77135 0.22304 9.696331 0.245963 9.629646 C 0.266802 9.560878 0.327234 9.512949 0.398086 9.504613 L 8.864898 8.568951 C 9.110796 8.54186 9.325436 8.385569 9.427546 8.16051 L 12.949306 0.364708 C 12.978481 0.300108 13.043081 0.25843 13.113933 0.25843 C 13.184785 0.25843 13.249385 0.300108 13.27856 0.364708 Z M 13.27856 0.364708 " stroke="#000000" stroke-width="0.800211" stroke-opacity="1" stroke-miterlimit="4"/></g></g><g clip-path="url(#2ef01c545f)"><g clip-path="url(#55a5997ee0)"><g transform="matrix(1, 0, 0, 1, 58, 122)"><g clip-path="url(#a3e7c679a0)"><g clip-path="url(#79a63c1fdb)"><g clip-path="url(#17196290b7)"><path fill="#8885ba" d="M 0.269531 -0.207031 L 49.527344 -0.207031 L 49.527344 46.671875 L 0.269531 46.671875 Z M 0.269531 -0.207031 " fill-opacity="1" fill-rule="nonzero"/></g></g></g></g></g></g><g clip-path="url(#c0f18e61a6)"><g clip-path="url(#309e7446d2)"><path stroke-linecap="butt" transform="matrix(1.874507, 0, 0, 1.874507, 58.272667, 121.792915)" fill="none" stroke-linejoin="miter" d="M 13.278906 0.364708 L 16.80275 8.16051 C 16.90486 8.385569 17.117416 8.54186 17.365398 8.568951 L 25.83221 9.504613 C 25.903062 9.512949 25.961411 9.560878 25.984333 9.629646 C 26.005172 9.696331 25.986417 9.77135 25.93432 9.81928 L 19.640997 15.549955 C 19.457616 15.716665 19.37426 15.968815 19.424274 16.210545 L 21.149728 24.566911 C 21.162231 24.637763 21.13514 24.708615 21.078876 24.750293 C 21.020527 24.79197 20.943423 24.796138 20.882991 24.760712 L 13.462288 20.526264 C 13.247648 20.403315 12.982995 20.403315 12.768355 20.526264 L 5.347652 24.760712 C 5.285135 24.796138 5.210116 24.79197 5.151767 24.750293 C 5.093418 24.708615 5.066328 24.637763 5.080915 24.566911 L 6.804285 16.210545 C 6.854298 15.968815 6.773027 15.716665 6.589645 15.549955 L 0.296322 9.81928 C 0.244225 9.77135 0.223387 9.696331 0.246309 9.629646 C 0.267148 9.560878 0.327581 9.512949 0.398433 9.504613 L 8.865244 8.568951 C 9.111142 8.54186 9.325782 8.385569 9.427892 8.16051 L 12.949653 0.364708 C 12.978827 0.300108 13.043427 0.25843 13.114279 0.25843 C 13.185131 0.25843 13.249732 0.300108 13.278906 0.364708 Z M 13.278906 0.364708 " stroke="#000000" stroke-width="0.800211" stroke-opacity="1" stroke-miterlimit="4"/></g></g><g clip-path="url(#6320d73798)"><g clip-path="url(#3add29c90f)"><g transform="matrix(1, 0, 0, 1, 113, 122)"><g clip-path="url(#de2c280973)"><g clip-path="url(#4677f6974e)"><g clip-path="url(#96898d5ec7)"><path fill="#8885ba" d="M 0.121094 -0.207031 L 49.382812 -0.207031 L 49.382812 46.671875 L 0.121094 46.671875 Z M 0.121094 -0.207031 " fill-opacity="1" fill-rule="nonzero"/></g></g></g></g></g></g><g clip-path="url(#5d4190a6ad)"><g clip-path="url(#c0cd0c8ee9)"><path stroke-linecap="butt" transform="matrix(1.874507, 0, 0, 1.874507, 113.126724, 121.792915)" fill="none" stroke-linejoin="miter" d="M 13.279659 0.364708 L 16.803503 8.16051 C 16.905613 8.385569 17.118169 8.54186 17.364067 8.568951 L 25.832963 9.504613 C 25.901731 9.512949 25.962164 9.560878 25.983003 9.629646 C 26.005925 9.696331 25.98717 9.77135 25.932989 9.81928 L 19.639666 15.549955 C 19.456285 15.716665 19.375013 15.968815 19.425027 16.210545 L 21.148397 24.566911 C 21.162984 24.637763 21.135894 24.708615 21.077545 24.750293 C 21.02128 24.79197 20.944176 24.796138 20.88166 24.760712 L 13.463041 20.526264 C 13.246317 20.403315 12.981664 20.403315 12.767024 20.526264 L 5.348405 24.760712 C 5.285889 24.796138 5.208785 24.79197 5.15252 24.750293 C 5.094171 24.708615 5.067081 24.637763 5.081668 24.566911 L 6.805038 16.210545 C 6.855052 15.968815 6.77378 15.716665 6.590399 15.549955 L 0.294992 9.81928 C 0.242895 9.77135 0.22414 9.696331 0.244978 9.629646 C 0.267901 9.560878 0.32625 9.512949 0.397102 9.504613 L 8.863914 8.568951 C 9.111896 8.54186 9.324451 8.385569 9.426562 8.16051 L 12.950406 0.364708 C 12.97958 0.300108 13.04418 0.25843 13.115032 0.25843 C 13.185884 0.25843 13.250485 0.300108 13.279659 0.364708 Z M 13.279659 0.364708 " stroke="#000000" stroke-width="0.800211" stroke-opacity="1" stroke-miterlimit="4"/></g></g><g clip-path="url(#52b5855cfb)"><g clip-path="url(#0058a0d407)"><g transform="matrix(1, 0, 0, 1, 169, 122)"><g clip-path="url(#677b94509a)"><g clip-path="url(#66ca92c7cf)"><g clip-path="url(#7c14cbc34f)"><path fill="#8885ba" d="M -0.214844 -0.207031 L 49.042969 -0.207031 L 49.042969 46.671875 L -0.214844 46.671875 Z M -0.214844 -0.207031 " fill-opacity="1" fill-rule="nonzero"/></g></g></g></g></g></g><g clip-path="url(#a0303accda)"><g clip-path="url(#21a5cbf2c6)"><path stroke-linecap="butt" transform="matrix(1.874507, 0, 0, 1.874507, 168.789831, 121.792915)" fill="none" stroke-linejoin="miter" d="M 13.280169 0.364708 L 16.801929 8.16051 C 16.90404 8.385569 17.118679 8.54186 17.364577 8.568951 L 25.831389 9.504613 C 25.902241 9.512949 25.962674 9.560878 25.983513 9.629646 C 26.006435 9.696331 25.985596 9.77135 25.933499 9.81928 L 19.640176 15.549955 C 19.456795 15.716665 19.375523 15.968815 19.425536 16.210545 L 21.148907 24.566911 C 21.163494 24.637763 21.13432 24.708615 21.078055 24.750293 C 21.019706 24.79197 20.944686 24.796138 20.88217 24.760712 L 13.461467 20.526264 C 13.246827 20.403315 12.982174 20.403315 12.767534 20.526264 L 5.346831 24.760712 C 5.286398 24.796138 5.209295 24.79197 5.150946 24.750293 C 5.094681 24.708615 5.065507 24.637763 5.080094 24.566911 L 6.803464 16.210545 C 6.855561 15.968815 6.772206 15.716665 6.588825 15.549955 L 0.295501 9.81928 C 0.243404 9.77135 0.222566 9.696331 0.245488 9.629646 C 0.268411 9.560878 0.32676 9.512949 0.397612 9.504613 L 8.864423 8.568951 C 9.110322 8.54186 9.324961 8.385569 9.427072 8.16051 L 12.950916 0.364708 C 12.98009 0.300108 13.04469 0.25843 13.115542 0.25843 C 13.186394 0.25843 13.250995 0.300108 13.280169 0.364708 Z M 13.280169 0.364708 " stroke="#000000" stroke-width="0.800211" stroke-opacity="1" stroke-miterlimit="4"/></g></g><g clip-path="url(#9f3036382f)"><g clip-path="url(#b3e46cac21)"><g transform="matrix(1, 0, 0, 1, 225, 122)"><g clip-path="url(#07a3d9c52e)"><g clip-path="url(#1d1684c15b)"><g clip-path="url(#131bad2c99)"><path fill="#8885ba" d="M 0.453125 -0.207031 L 49.710938 -0.207031 L 49.710938 46.671875 L 0.453125 46.671875 Z M 0.453125 -0.207031 " fill-opacity="1" fill-rule="nonzero"/></g></g></g></g></g></g><g clip-path="url(#2f2e28d4c7)"><g clip-path="url(#f5f2944a36)"><path stroke-linecap="butt" transform="matrix(1.874507, 0, 0, 1.874507, 225.457759, 121.792915)" fill="none" stroke-linejoin="miter" d="M 13.28019 0.364708 L 16.801951 8.16051 C 16.904061 8.385569 17.118701 8.54186 17.364599 8.568951 L 25.83141 9.504613 C 25.902262 9.512949 25.962695 9.560878 25.983534 9.629646 C 26.006456 9.696331 25.985618 9.77135 25.933521 9.81928 L 19.640198 15.549955 C 19.456816 15.716665 19.375545 15.968815 19.425558 16.210545 L 21.148928 24.566911 C 21.163515 24.637763 21.134341 24.708615 21.078076 24.750293 C 21.019727 24.79197 20.944708 24.796138 20.882191 24.760712 L 13.461488 20.526264 C 13.246848 20.403315 12.982195 20.403315 12.767555 20.526264 L 5.346852 24.760712 C 5.28642 24.796138 5.209316 24.79197 5.150967 24.750293 C 5.094703 24.708615 5.065528 24.637763 5.080115 24.566911 L 6.803486 16.210545 C 6.853499 15.968815 6.772227 15.716665 6.588846 15.549955 L 0.295523 9.81928 C 0.243426 9.77135 0.222587 9.696331 0.24551 9.629646 C 0.268432 9.560878 0.326781 9.512949 0.397633 9.504613 L 8.864445 8.568951 C 9.110343 8.54186 9.324983 8.385569 9.427093 8.16051 L 12.950937 0.364708 C 12.980111 0.300108 13.044712 0.25843 13.115564 0.25843 C 13.186416 0.25843 13.251016 0.300108 13.28019 0.364708 Z M 13.28019 0.364708 " stroke="#000000" stroke-width="0.800211" stroke-opacity="1" stroke-miterlimit="4"/></g></g></g></g></svg>