<svg xmlns="http://www.w3.org/2000/svg" xmlns:xlink="http://www.w3.org/1999/xlink" width="400" zoomAndPan="magnify" viewBox="0 0 300 299.999988" height="400" preserveAspectRatio="xMidYMid meet" version="1.0"><defs><clipPath id="5bf21322e7"><path d="M 2 2 L 297.335938 2 L 297.335938 297.335938 L 2 297.335938 Z M 2 2 " clip-rule="nonzero"/></clipPath><clipPath id="0ea3f8e505"><path d="M 13.164062 2.664062 L 286.835938 2.664062 C 289.621094 2.664062 292.292969 3.769531 294.261719 5.738281 C 296.230469 7.707031 297.335938 10.378906 297.335938 13.164062 L 297.335938 286.835938 C 297.335938 289.621094 296.230469 292.292969 294.261719 294.261719 C 292.292969 296.230469 289.621094 297.335938 286.835938 297.335938 L 13.164062 297.335938 C 10.378906 297.335938 7.707031 296.230469 5.738281 294.261719 C 3.769531 292.292969 2.664062 289.621094 2.664062 286.835938 L 2.664062 13.164062 C 2.664062 10.378906 3.769531 7.707031 5.738281 5.738281 C 7.707031 3.769531 10.378906 2.664062 13.164062 2.664062 Z M 13.164062 2.664062 " clip-rule="nonzero"/></clipPath><clipPath id="3d92832016"><path d="M 0.640625 0.640625 L 295.335938 0.640625 L 295.335938 295.335938 L 0.640625 295.335938 Z M 0.640625 0.640625 " clip-rule="nonzero"/></clipPath><clipPath id="5b99432d66"><path d="M 11.164062 0.664062 L 284.835938 0.664062 C 287.621094 0.664062 290.292969 1.769531 292.261719 3.738281 C 294.230469 5.707031 295.335938 8.378906 295.335938 11.164062 L 295.335938 284.835938 C 295.335938 287.621094 294.230469 290.292969 292.261719 292.261719 C 290.292969 294.230469 287.621094 295.335938 284.835938 295.335938 L 11.164062 295.335938 C 8.378906 295.335938 5.707031 294.230469 3.738281 292.261719 C 1.769531 290.292969 0.664062 287.621094 0.664062 284.835938 L 0.664062 11.164062 C 0.664062 8.378906 1.769531 5.707031 3.738281 3.738281 C 5.707031 1.769531 8.378906 0.664062 11.164062 0.664062 Z M 11.164062 0.664062 " clip-rule="nonzero"/></clipPath><clipPath id="b5dbf6ad0c"><rect x="0" width="296" y="0" height="296"/></clipPath><clipPath id="8e08745458"><path d="M 2.664062 2.664062 L 297.414062 2.664062 L 297.414062 297.414062 L 2.664062 297.414062 Z M 2.664062 2.664062 " clip-rule="nonzero"/></clipPath><clipPath id="eebb5623be"><path d="M 13.164062 2.664062 L 286.832031 2.664062 C 289.617188 2.664062 292.285156 3.769531 294.253906 5.738281 C 296.222656 7.707031 297.332031 10.378906 297.332031 13.164062 L 297.332031 286.832031 C 297.332031 289.617188 296.222656 292.285156 294.253906 294.253906 C 292.285156 296.222656 289.617188 297.332031 286.832031 297.332031 L 13.164062 297.332031 C 10.378906 297.332031 7.707031 296.222656 5.738281 294.253906 C 3.769531 292.285156 2.664062 289.617188 2.664062 286.832031 L 2.664062 13.164062 C 2.664062 10.378906 3.769531 7.707031 5.738281 5.738281 C 7.707031 3.769531 10.378906 2.664062 13.164062 2.664062 Z M 13.164062 2.664062 " clip-rule="nonzero"/></clipPath><clipPath id="6762592a0d"><path d="M 3.734375 4.3125 L 52.257812 4.3125 L 52.257812 50.457031 L 3.734375 50.457031 Z M 3.734375 4.3125 " clip-rule="nonzero"/></clipPath><clipPath id="8ab2535354"><path d="M 28.265625 4.628906 L 34.871094 19.246094 C 35.0625 19.671875 35.464844 19.960938 35.925781 20.011719 L 51.804688 21.769531 C 51.9375 21.785156 52.046875 21.875 52.089844 22 C 52.128906 22.128906 52.09375 22.265625 51.996094 22.355469 L 40.191406 33.105469 C 39.847656 33.417969 39.695312 33.886719 39.789062 34.34375 L 43.023438 50.011719 C 43.050781 50.140625 42.996094 50.277344 42.890625 50.355469 C 42.78125 50.433594 42.636719 50.441406 42.523438 50.375 L 28.609375 42.433594 C 28.207031 42.203125 27.710938 42.203125 27.304688 42.433594 L 13.394531 50.375 C 13.277344 50.441406 13.132812 50.433594 13.027344 50.355469 C 12.917969 50.277344 12.867188 50.140625 12.894531 50.011719 L 16.125 34.34375 C 16.21875 33.886719 16.066406 33.417969 15.722656 33.105469 L 3.921875 22.355469 C 3.824219 22.265625 3.785156 22.128906 3.828125 22 C 3.867188 21.875 3.980469 21.785156 4.113281 21.769531 L 19.988281 20.011719 C 20.449219 19.960938 20.851562 19.671875 21.042969 19.246094 L 27.648438 4.628906 C 27.703125 4.507812 27.824219 4.429688 27.957031 4.429688 C 28.089844 4.429688 28.210938 4.507812 28.265625 4.628906 Z M 28.265625 4.628906 " clip-rule="nonzero"/></clipPath><clipPath id="b3680532d3"><path d="M 0.734375 0.3125 L 49.257812 0.3125 L 49.257812 46.457031 L 0.734375 46.457031 Z M 0.734375 0.3125 " clip-rule="nonzero"/></clipPath><clipPath id="035ed8045c"><path d="M 25.265625 0.628906 L 31.871094 15.246094 C 32.0625 15.671875 32.464844 15.960938 32.925781 16.011719 L 48.804688 17.769531 C 48.9375 17.785156 49.046875 17.875 49.089844 18 C 49.128906 18.128906 49.09375 18.265625 48.996094 18.355469 L 37.191406 29.105469 C 36.847656 29.417969 36.695312 29.886719 36.789062 30.34375 L 40.023438 46.011719 C 40.050781 46.140625 39.996094 46.277344 39.890625 46.355469 C 39.78125 46.433594 39.636719 46.441406 39.523438 46.375 L 25.609375 38.433594 C 25.207031 38.203125 24.710938 38.203125 24.304688 38.433594 L 10.394531 46.375 C 10.277344 46.441406 10.132812 46.433594 10.027344 46.355469 C 9.917969 46.277344 9.867188 46.140625 9.894531 46.011719 L 13.125 30.34375 C 13.21875 29.886719 13.066406 29.417969 12.722656 29.105469 L 0.921875 18.355469 C 0.824219 18.265625 0.785156 18.128906 0.828125 18 C 0.867188 17.875 0.980469 17.785156 1.113281 17.769531 L 16.988281 16.011719 C 17.449219 15.960938 17.851562 15.671875 18.042969 15.246094 L 24.648438 0.628906 C 24.703125 0.507812 24.824219 0.429688 24.957031 0.429688 C 25.089844 0.429688 25.210938 0.507812 25.265625 0.628906 Z M 25.265625 0.628906 " clip-rule="nonzero"/></clipPath><clipPath id="4430dbfe88"><rect x="0" width="50" y="0" height="47"/></clipPath><clipPath id="873db79bd9"><path d="M 3.375 4 L 52.527344 4 L 52.527344 49.804688 L 3.375 49.804688 Z M 3.375 4 " clip-rule="nonzero"/></clipPath><clipPath id="0f0a846103"><path d="M 28.257812 4.628906 L 34.863281 19.238281 C 35.050781 19.660156 35.453125 19.953125 35.914062 20.003906 L 51.78125 21.757812 C 51.914062 21.773438 52.027344 21.863281 52.066406 21.988281 C 52.109375 22.117188 52.070312 22.253906 51.972656 22.34375 L 40.179688 33.085938 C 39.835938 33.398438 39.683594 33.871094 39.777344 34.324219 L 43.007812 49.984375 C 43.03125 50.113281 42.980469 50.25 42.875 50.328125 C 42.765625 50.40625 42.621094 50.414062 42.507812 50.347656 L 28.601562 42.410156 C 28.199219 42.179688 27.703125 42.179688 27.300781 42.410156 L 13.394531 50.347656 C 13.28125 50.414062 13.136719 50.40625 13.027344 50.328125 C 12.921875 50.25 12.867188 50.113281 12.894531 49.984375 L 16.125 34.324219 C 16.21875 33.871094 16.066406 33.398438 15.722656 33.085938 L 3.929688 22.34375 C 3.832031 22.253906 3.792969 22.117188 3.835938 21.988281 C 3.875 21.863281 3.988281 21.773438 4.121094 21.757812 L 19.988281 20.003906 C 20.449219 19.953125 20.847656 19.660156 21.039062 19.238281 L 27.640625 4.628906 C 27.695312 4.507812 27.816406 4.429688 27.949219 4.429688 C 28.082031 4.429688 28.203125 4.507812 28.257812 4.628906 Z M 28.257812 4.628906 " clip-rule="nonzero"/></clipPath><clipPath id="af63a57610"><path d="M 58.636719 4.3125 L 107.160156 4.3125 L 107.160156 50.457031 L 58.636719 50.457031 Z M 58.636719 4.3125 " clip-rule="nonzero"/></clipPath><clipPath id="ff70afe6ba"><path d="M 83.171875 4.628906 L 89.777344 19.246094 C 89.96875 19.671875 90.367188 19.960938 90.832031 20.011719 L 106.707031 21.769531 C 106.839844 21.785156 106.953125 21.875 106.992188 22 C 107.035156 22.128906 106.996094 22.265625 106.898438 22.355469 L 95.097656 33.105469 C 94.753906 33.417969 94.601562 33.886719 94.695312 34.34375 L 97.925781 50.011719 C 97.953125 50.140625 97.902344 50.277344 97.792969 50.355469 C 97.6875 50.433594 97.542969 50.441406 97.425781 50.375 L 83.511719 42.433594 C 83.109375 42.203125 82.613281 42.203125 82.210938 42.433594 L 68.296875 50.375 C 68.179688 50.441406 68.039062 50.433594 67.929688 50.355469 C 67.824219 50.277344 67.769531 50.140625 67.796875 50.011719 L 71.03125 34.34375 C 71.125 33.886719 70.96875 33.417969 70.625 33.105469 L 58.824219 22.355469 C 58.726562 22.265625 58.691406 22.128906 58.730469 22 C 58.773438 21.875 58.882812 21.785156 59.015625 21.769531 L 74.894531 20.011719 C 75.355469 19.960938 75.753906 19.671875 75.945312 19.246094 L 82.554688 4.628906 C 82.609375 4.507812 82.730469 4.429688 82.863281 4.429688 C 82.996094 4.429688 83.117188 4.507812 83.171875 4.628906 Z M 83.171875 4.628906 " clip-rule="nonzero"/></clipPath><clipPath id="bb05bbc787"><path d="M 0.636719 0.3125 L 49.078125 0.3125 L 49.078125 46.457031 L 0.636719 46.457031 Z M 0.636719 0.3125 " clip-rule="nonzero"/></clipPath><clipPath id="55b46581e3"><path d="M 25.171875 0.628906 L 31.777344 15.246094 C 31.96875 15.671875 32.367188 15.960938 32.832031 16.011719 L 48.707031 17.769531 C 48.839844 17.785156 48.953125 17.875 48.992188 18 C 49.035156 18.128906 48.996094 18.265625 48.898438 18.355469 L 37.097656 29.105469 C 36.753906 29.417969 36.601562 29.886719 36.695312 30.34375 L 39.925781 46.011719 C 39.953125 46.140625 39.902344 46.277344 39.792969 46.355469 C 39.6875 46.433594 39.542969 46.441406 39.425781 46.375 L 25.511719 38.433594 C 25.109375 38.203125 24.613281 38.203125 24.210938 38.433594 L 10.296875 46.375 C 10.179688 46.441406 10.039062 46.433594 9.929688 46.355469 C 9.824219 46.277344 9.769531 46.140625 9.796875 46.011719 L 13.03125 30.34375 C 13.125 29.886719 12.96875 29.417969 12.625 29.105469 L 0.824219 18.355469 C 0.726562 18.265625 0.691406 18.128906 0.730469 18 C 0.773438 17.875 0.882812 17.785156 1.015625 17.769531 L 16.894531 16.011719 C 17.355469 15.960938 17.753906 15.671875 17.945312 15.246094 L 24.554688 0.628906 C 24.609375 0.507812 24.730469 0.429688 24.863281 0.429688 C 24.996094 0.429688 25.117188 0.507812 25.171875 0.628906 Z M 25.171875 0.628906 " clip-rule="nonzero"/></clipPath><clipPath id="5b4242c2aa"><rect x="0" width="50" y="0" height="47"/></clipPath><clipPath id="f1b506da03"><path d="M 58.277344 4 L 107 4 L 107 49.804688 L 58.277344 49.804688 Z M 58.277344 4 " clip-rule="nonzero"/></clipPath><clipPath id="d8bc1efb92"><path d="M 83.164062 4.628906 L 89.765625 19.238281 C 89.957031 19.660156 90.355469 19.953125 90.820312 20.003906 L 106.6875 21.757812 C 106.820312 21.773438 106.929688 21.863281 106.972656 21.988281 C 107.011719 22.117188 106.976562 22.253906 106.878906 22.34375 L 95.082031 33.085938 C 94.738281 33.398438 94.585938 33.871094 94.679688 34.324219 L 97.910156 49.984375 C 97.9375 50.113281 97.886719 50.25 97.777344 50.328125 C 97.667969 50.40625 97.527344 50.414062 97.410156 50.347656 L 83.503906 42.410156 C 83.101562 42.179688 82.605469 42.179688 82.203125 42.410156 L 68.300781 50.347656 C 68.183594 50.414062 68.039062 50.40625 67.933594 50.328125 C 67.824219 50.25 67.773438 50.113281 67.800781 49.984375 L 71.03125 34.324219 C 71.125 33.871094 70.96875 33.398438 70.625 33.085938 L 58.832031 22.34375 C 58.734375 22.253906 58.699219 22.117188 58.738281 21.988281 C 58.78125 21.863281 58.890625 21.773438 59.023438 21.757812 L 74.890625 20.003906 C 75.351562 19.953125 75.753906 19.660156 75.945312 19.238281 L 82.546875 4.628906 C 82.601562 4.507812 82.722656 4.429688 82.855469 4.429688 C 82.988281 4.429688 83.109375 4.507812 83.164062 4.628906 Z M 83.164062 4.628906 " clip-rule="nonzero"/></clipPath><clipPath id="5c0008f9fa"><path d="M 113.488281 4.3125 L 162 4.3125 L 162 50.457031 L 113.488281 50.457031 Z M 113.488281 4.3125 " clip-rule="nonzero"/></clipPath><clipPath id="b74ba76cd7"><path d="M 138.023438 4.628906 L 144.628906 19.246094 C 144.820312 19.671875 145.222656 19.960938 145.683594 20.011719 L 161.558594 21.769531 C 161.691406 21.785156 161.804688 21.875 161.84375 22 C 161.886719 22.128906 161.851562 22.265625 161.75 22.355469 L 149.949219 33.105469 C 149.605469 33.417969 149.453125 33.886719 149.546875 34.34375 L 152.777344 50.011719 C 152.804688 50.140625 152.753906 50.277344 152.644531 50.355469 C 152.539062 50.433594 152.394531 50.441406 152.277344 50.375 L 138.367188 42.433594 C 137.960938 42.203125 137.464844 42.203125 137.0625 42.433594 L 123.148438 50.375 C 123.035156 50.441406 122.890625 50.433594 122.78125 50.355469 C 122.675781 50.277344 122.621094 50.140625 122.648438 50.011719 L 125.882812 34.34375 C 125.976562 33.886719 125.824219 33.417969 125.480469 33.105469 L 113.675781 22.355469 C 113.578125 22.265625 113.542969 22.128906 113.582031 22 C 113.625 21.875 113.734375 21.785156 113.867188 21.769531 L 129.746094 20.011719 C 130.207031 19.960938 130.609375 19.671875 130.800781 19.246094 L 137.40625 4.628906 C 137.460938 4.507812 137.582031 4.429688 137.714844 4.429688 C 137.847656 4.429688 137.96875 4.507812 138.023438 4.628906 Z M 138.023438 4.628906 " clip-rule="nonzero"/></clipPath><clipPath id="6bae7d1c1e"><path d="M 0.488281 0.3125 L 49 0.3125 L 49 46.457031 L 0.488281 46.457031 Z M 0.488281 0.3125 " clip-rule="nonzero"/></clipPath><clipPath id="15f6a70723"><path d="M 25.023438 0.628906 L 31.628906 15.246094 C 31.820312 15.671875 32.222656 15.960938 32.683594 16.011719 L 48.558594 17.769531 C 48.691406 17.785156 48.804688 17.875 48.84375 18 C 48.886719 18.128906 48.851562 18.265625 48.75 18.355469 L 36.949219 29.105469 C 36.605469 29.417969 36.453125 29.886719 36.546875 30.34375 L 39.777344 46.011719 C 39.804688 46.140625 39.753906 46.277344 39.644531 46.355469 C 39.539062 46.433594 39.394531 46.441406 39.277344 46.375 L 25.367188 38.433594 C 24.960938 38.203125 24.464844 38.203125 24.0625 38.433594 L 10.148438 46.375 C 10.035156 46.441406 9.890625 46.433594 9.78125 46.355469 C 9.675781 46.277344 9.621094 46.140625 9.648438 46.011719 L 12.882812 30.34375 C 12.976562 29.886719 12.824219 29.417969 12.480469 29.105469 L 0.675781 18.355469 C 0.578125 18.265625 0.542969 18.128906 0.582031 18 C 0.625 17.875 0.734375 17.785156 0.867188 17.769531 L 16.746094 16.011719 C 17.207031 15.960938 17.609375 15.671875 17.800781 15.246094 L 24.40625 0.628906 C 24.460938 0.507812 24.582031 0.429688 24.714844 0.429688 C 24.847656 0.429688 24.96875 0.507812 25.023438 0.628906 Z M 25.023438 0.628906 " clip-rule="nonzero"/></clipPath><clipPath id="99bbe67455"><rect x="0" width="49" y="0" height="47"/></clipPath><clipPath id="4244fc55a6"><path d="M 113.132812 4 L 162 4 L 162 49.804688 L 113.132812 49.804688 Z M 113.132812 4 " clip-rule="nonzero"/></clipPath><clipPath id="101b658f37"><path d="M 138.015625 4.628906 L 144.617188 19.238281 C 144.808594 19.660156 145.210938 19.953125 145.671875 20.003906 L 161.539062 21.757812 C 161.671875 21.773438 161.78125 21.863281 161.824219 21.988281 C 161.863281 22.117188 161.828125 22.253906 161.730469 22.34375 L 149.933594 33.085938 C 149.59375 33.398438 149.4375 33.871094 149.53125 34.324219 L 152.761719 49.984375 C 152.789062 50.113281 152.738281 50.25 152.628906 50.328125 C 152.523438 50.40625 152.378906 50.414062 152.261719 50.347656 L 138.359375 42.410156 C 137.953125 42.179688 137.460938 42.179688 137.054688 42.410156 L 123.152344 50.347656 C 123.035156 50.414062 122.894531 50.40625 122.785156 50.328125 C 122.675781 50.25 122.625 50.113281 122.652344 49.984375 L 125.882812 34.324219 C 125.976562 33.871094 125.824219 33.398438 125.480469 33.085938 L 113.683594 22.34375 C 113.585938 22.253906 113.550781 22.117188 113.589844 21.988281 C 113.632812 21.863281 113.742188 21.773438 113.875 21.757812 L 129.742188 20.003906 C 130.203125 19.953125 130.605469 19.660156 130.796875 19.238281 L 137.398438 4.628906 C 137.453125 4.507812 137.574219 4.429688 137.707031 4.429688 C 137.839844 4.429688 137.960938 4.507812 138.015625 4.628906 Z M 138.015625 4.628906 " clip-rule="nonzero"/></clipPath><clipPath id="0f4bcedebb"><path d="M 169.152344 4.3125 L 217.675781 4.3125 L 217.675781 50.457031 L 169.152344 50.457031 Z M 169.152344 4.3125 " clip-rule="nonzero"/></clipPath><clipPath id="efb5bdfac5"><path d="M 193.683594 4.628906 L 200.289062 19.246094 C 200.480469 19.671875 200.882812 19.960938 201.34375 20.011719 L 217.222656 21.769531 C 217.355469 21.785156 217.464844 21.875 217.507812 22 C 217.546875 22.128906 217.511719 22.265625 217.414062 22.355469 L 205.613281 33.105469 C 205.269531 33.417969 205.113281 33.886719 205.207031 34.34375 L 208.441406 50.011719 C 208.46875 50.140625 208.414062 50.277344 208.308594 50.355469 C 208.199219 50.433594 208.054688 50.441406 207.941406 50.375 L 194.027344 42.433594 C 193.625 42.203125 193.128906 42.203125 192.722656 42.433594 L 178.8125 50.375 C 178.695312 50.441406 178.550781 50.433594 178.445312 50.355469 C 178.335938 50.277344 178.285156 50.140625 178.3125 50.011719 L 181.542969 34.34375 C 181.636719 33.886719 181.484375 33.417969 181.140625 33.105469 L 169.339844 22.355469 C 169.242188 22.265625 169.203125 22.128906 169.246094 22 C 169.285156 21.875 169.398438 21.785156 169.53125 21.769531 L 185.40625 20.011719 C 185.867188 19.960938 186.269531 19.671875 186.460938 19.246094 L 193.066406 4.628906 C 193.121094 4.507812 193.242188 4.429688 193.375 4.429688 C 193.507812 4.429688 193.628906 4.507812 193.683594 4.628906 Z M 193.683594 4.628906 " clip-rule="nonzero"/></clipPath><clipPath id="da7f489771"><path d="M 0.152344 0.3125 L 48.675781 0.3125 L 48.675781 46.457031 L 0.152344 46.457031 Z M 0.152344 0.3125 " clip-rule="nonzero"/></clipPath><clipPath id="2a8fed3936"><path d="M 24.683594 0.628906 L 31.289062 15.246094 C 31.480469 15.671875 31.882812 15.960938 32.34375 16.011719 L 48.222656 17.769531 C 48.355469 17.785156 48.464844 17.875 48.507812 18 C 48.546875 18.128906 48.511719 18.265625 48.414062 18.355469 L 36.613281 29.105469 C 36.269531 29.417969 36.113281 29.886719 36.207031 30.34375 L 39.441406 46.011719 C 39.46875 46.140625 39.414062 46.277344 39.308594 46.355469 C 39.199219 46.433594 39.054688 46.441406 38.941406 46.375 L 25.027344 38.433594 C 24.625 38.203125 24.128906 38.203125 23.722656 38.433594 L 9.8125 46.375 C 9.695312 46.441406 9.550781 46.433594 9.445312 46.355469 C 9.335938 46.277344 9.285156 46.140625 9.3125 46.011719 L 12.542969 30.34375 C 12.636719 29.886719 12.484375 29.417969 12.140625 29.105469 L 0.339844 18.355469 C 0.242188 18.265625 0.203125 18.128906 0.246094 18 C 0.285156 17.875 0.398438 17.785156 0.53125 17.769531 L 16.40625 16.011719 C 16.867188 15.960938 17.269531 15.671875 17.460938 15.246094 L 24.066406 0.628906 C 24.121094 0.507812 24.242188 0.429688 24.375 0.429688 C 24.507812 0.429688 24.628906 0.507812 24.683594 0.628906 Z M 24.683594 0.628906 " clip-rule="nonzero"/></clipPath><clipPath id="bbf5c8d632"><rect x="0" width="49" y="0" height="47"/></clipPath><clipPath id="5d0a950848"><path d="M 169 4 L 217.945312 4 L 217.945312 49.804688 L 169 49.804688 Z M 169 4 " clip-rule="nonzero"/></clipPath><clipPath id="52545ad552"><path d="M 193.675781 4.628906 L 200.28125 19.238281 C 200.472656 19.660156 200.871094 19.953125 201.332031 20.003906 L 217.199219 21.757812 C 217.332031 21.773438 217.445312 21.863281 217.484375 21.988281 C 217.527344 22.117188 217.488281 22.253906 217.390625 22.34375 L 205.597656 33.085938 C 205.253906 33.398438 205.101562 33.871094 205.195312 34.324219 L 208.425781 49.984375 C 208.449219 50.113281 208.398438 50.25 208.292969 50.328125 C 208.183594 50.40625 208.039062 50.414062 207.925781 50.347656 L 194.019531 42.410156 C 193.617188 42.179688 193.121094 42.179688 192.71875 42.410156 L 178.8125 50.347656 C 178.699219 50.414062 178.554688 50.40625 178.445312 50.328125 C 178.339844 50.25 178.285156 50.113281 178.3125 49.984375 L 181.542969 34.324219 C 181.636719 33.871094 181.484375 33.398438 181.140625 33.085938 L 169.347656 22.34375 C 169.25 22.253906 169.210938 22.117188 169.253906 21.988281 C 169.292969 21.863281 169.40625 21.773438 169.539062 21.757812 L 185.40625 20.003906 C 185.867188 19.953125 186.265625 19.660156 186.457031 19.238281 L 193.058594 4.628906 C 193.113281 4.507812 193.234375 4.429688 193.367188 4.429688 C 193.503906 4.429688 193.621094 4.507812 193.675781 4.628906 Z M 193.675781 4.628906 " clip-rule="nonzero"/></clipPath><clipPath id="63beeef3f7"><path d="M 225.816406 4.3125 L 274.34375 4.3125 L 274.34375 50.457031 L 225.816406 50.457031 Z M 225.816406 4.3125 " clip-rule="nonzero"/></clipPath><clipPath id="41a2e3e715"><path d="M 250.351562 4.628906 L 256.957031 19.246094 C 257.148438 19.671875 257.550781 19.960938 258.011719 20.011719 L 273.886719 21.769531 C 274.019531 21.785156 274.132812 21.875 274.171875 22 C 274.214844 22.128906 274.175781 22.265625 274.078125 22.355469 L 262.277344 33.105469 C 261.933594 33.417969 261.78125 33.886719 261.875 34.34375 L 265.105469 50.011719 C 265.132812 50.140625 265.082031 50.277344 264.972656 50.355469 C 264.867188 50.433594 264.722656 50.441406 264.605469 50.375 L 250.695312 42.433594 C 250.289062 42.203125 249.792969 42.203125 249.390625 42.433594 L 235.476562 50.375 C 235.363281 50.441406 235.21875 50.433594 235.109375 50.355469 C 235.003906 50.277344 234.949219 50.140625 234.976562 50.011719 L 238.210938 34.34375 C 238.304688 33.886719 238.152344 33.417969 237.808594 33.105469 L 226.003906 22.355469 C 225.90625 22.265625 225.871094 22.128906 225.910156 22 C 225.953125 21.875 226.0625 21.785156 226.195312 21.769531 L 242.074219 20.011719 C 242.535156 19.960938 242.9375 19.671875 243.128906 19.246094 L 249.734375 4.628906 C 249.789062 4.507812 249.910156 4.429688 250.042969 4.429688 C 250.175781 4.429688 250.296875 4.507812 250.351562 4.628906 Z M 250.351562 4.628906 " clip-rule="nonzero"/></clipPath><clipPath id="edb09f4d82"><path d="M 0.816406 0.3125 L 49.34375 0.3125 L 49.34375 46.457031 L 0.816406 46.457031 Z M 0.816406 0.3125 " clip-rule="nonzero"/></clipPath><clipPath id="e68956a29d"><path d="M 25.351562 0.628906 L 31.957031 15.246094 C 32.148438 15.671875 32.550781 15.960938 33.011719 16.011719 L 48.886719 17.769531 C 49.019531 17.785156 49.132812 17.875 49.171875 18 C 49.214844 18.128906 49.175781 18.265625 49.078125 18.355469 L 37.277344 29.105469 C 36.933594 29.417969 36.78125 29.886719 36.875 30.34375 L 40.105469 46.011719 C 40.132812 46.140625 40.082031 46.277344 39.972656 46.355469 C 39.867188 46.433594 39.722656 46.441406 39.605469 46.375 L 25.695312 38.433594 C 25.289062 38.203125 24.792969 38.203125 24.390625 38.433594 L 10.476562 46.375 C 10.363281 46.441406 10.21875 46.433594 10.109375 46.355469 C 10.003906 46.277344 9.949219 46.140625 9.976562 46.011719 L 13.210938 30.34375 C 13.304688 29.886719 13.152344 29.417969 12.808594 29.105469 L 1.003906 18.355469 C 0.90625 18.265625 0.871094 18.128906 0.910156 18 C 0.953125 17.875 1.0625 17.785156 1.195312 17.769531 L 17.074219 16.011719 C 17.535156 15.960938 17.9375 15.671875 18.128906 15.246094 L 24.734375 0.628906 C 24.789062 0.507812 24.910156 0.429688 25.042969 0.429688 C 25.175781 0.429688 25.296875 0.507812 25.351562 0.628906 Z M 25.351562 0.628906 " clip-rule="nonzero"/></clipPath><clipPath id="ef2d083e4d"><rect x="0" width="50" y="0" height="47"/></clipPath><clipPath id="f5b1294a1c"><path d="M 225.457031 4 L 274.613281 4 L 274.613281 49.804688 L 225.457031 49.804688 Z M 225.457031 4 " clip-rule="nonzero"/></clipPath><clipPath id="9934199295"><path d="M 250.34375 4.628906 L 256.945312 19.238281 C 257.136719 19.660156 257.539062 19.953125 258 20.003906 L 273.867188 21.757812 C 274 21.773438 274.109375 21.863281 274.152344 21.988281 C 274.191406 22.117188 274.15625 22.253906 274.058594 22.34375 L 262.261719 33.085938 C 261.917969 33.398438 261.765625 33.871094 261.859375 34.324219 L 265.089844 49.984375 C 265.117188 50.113281 265.066406 50.25 264.957031 50.328125 C 264.851562 50.40625 264.707031 50.414062 264.589844 50.347656 L 250.6875 42.410156 C 250.28125 42.179688 249.789062 42.179688 249.382812 42.410156 L 235.480469 50.347656 C 235.363281 50.414062 235.21875 50.40625 235.113281 50.328125 C 235.003906 50.25 234.953125 50.113281 234.980469 49.984375 L 238.210938 34.324219 C 238.304688 33.871094 238.152344 33.398438 237.808594 33.085938 L 226.011719 22.34375 C 225.914062 22.253906 225.878906 22.117188 225.917969 21.988281 C 225.960938 21.863281 226.070312 21.773438 226.203125 21.757812 L 242.070312 20.003906 C 242.53125 19.953125 242.933594 19.660156 243.125 19.238281 L 249.726562 4.628906 C 249.78125 4.507812 249.902344 4.429688 250.035156 4.429688 C 250.167969 4.429688 250.289062 4.507812 250.34375 4.628906 Z M 250.34375 4.628906 " clip-rule="nonzero"/></clipPath><clipPath id="a9368629a4"><path d="M 3.734375 63.542969 L 52.257812 63.542969 L 52.257812 109.6875 L 3.734375 109.6875 Z M 3.734375 63.542969 " clip-rule="nonzero"/></clipPath><clipPath id="f4ba7c296b"><path d="M 28.265625 63.859375 L 34.871094 78.476562 C 35.0625 78.902344 35.464844 79.191406 35.925781 79.242188 L 51.804688 81 C 51.9375 81.015625 52.046875 81.105469 52.089844 81.230469 C 52.128906 81.359375 52.09375 81.496094 51.996094 81.585938 L 40.191406 92.335938 C 39.847656 92.648438 39.695312 93.121094 39.789062 93.574219 L 43.023438 109.242188 C 43.050781 109.375 42.996094 109.507812 42.890625 109.585938 C 42.78125 109.664062 42.636719 109.671875 42.523438 109.605469 L 28.609375 101.664062 C 28.207031 101.433594 27.710938 101.433594 27.304688 101.664062 L 13.394531 109.605469 C 13.277344 109.671875 13.132812 109.664062 13.027344 109.585938 C 12.917969 109.507812 12.867188 109.375 12.894531 109.242188 L 16.125 93.574219 C 16.21875 93.121094 16.066406 92.648438 15.722656 92.335938 L 3.921875 81.585938 C 3.824219 81.496094 3.785156 81.359375 3.828125 81.230469 C 3.867188 81.105469 3.980469 81.015625 4.113281 81 L 19.988281 79.242188 C 20.449219 79.191406 20.851562 78.902344 21.042969 78.476562 L 27.648438 63.859375 C 27.703125 63.738281 27.824219 63.660156 27.957031 63.660156 C 28.089844 63.660156 28.210938 63.738281 28.265625 63.859375 Z M 28.265625 63.859375 " clip-rule="nonzero"/></clipPath><clipPath id="c4469f2373"><path d="M 0.734375 0.542969 L 49.257812 0.542969 L 49.257812 46.6875 L 0.734375 46.6875 Z M 0.734375 0.542969 " clip-rule="nonzero"/></clipPath><clipPath id="15ee79a4ef"><path d="M 25.265625 0.859375 L 31.871094 15.476562 C 32.0625 15.902344 32.464844 16.191406 32.925781 16.242188 L 48.804688 18 C 48.9375 18.015625 49.046875 18.105469 49.089844 18.230469 C 49.128906 18.359375 49.09375 18.496094 48.996094 18.585938 L 37.191406 29.335938 C 36.847656 29.648438 36.695312 30.121094 36.789062 30.574219 L 40.023438 46.242188 C 40.050781 46.375 39.996094 46.507812 39.890625 46.585938 C 39.78125 46.664062 39.636719 46.671875 39.523438 46.605469 L 25.609375 38.664062 C 25.207031 38.433594 24.710938 38.433594 24.304688 38.664062 L 10.394531 46.605469 C 10.277344 46.671875 10.132812 46.664062 10.027344 46.585938 C 9.917969 46.507812 9.867188 46.375 9.894531 46.242188 L 13.125 30.574219 C 13.21875 30.121094 13.066406 29.648438 12.722656 29.335938 L 0.921875 18.585938 C 0.824219 18.496094 0.785156 18.359375 0.828125 18.230469 C 0.867188 18.105469 0.980469 18.015625 1.113281 18 L 16.988281 16.242188 C 17.449219 16.191406 17.851562 15.902344 18.042969 15.476562 L 24.648438 0.859375 C 24.703125 0.738281 24.824219 0.660156 24.957031 0.660156 C 25.089844 0.660156 25.210938 0.738281 25.265625 0.859375 Z M 25.265625 0.859375 " clip-rule="nonzero"/></clipPath><clipPath id="77b938c234"><rect x="0" width="50" y="0" height="47"/></clipPath><clipPath id="2ab0f8bdec"><path d="M 3.375 63.175781 L 52.527344 63.175781 L 52.527344 109.035156 L 3.375 109.035156 Z M 3.375 63.175781 " clip-rule="nonzero"/></clipPath><clipPath id="d583dc78a3"><path d="M 28.257812 63.859375 L 34.863281 78.46875 C 35.050781 78.890625 35.453125 79.183594 35.914062 79.234375 L 51.78125 80.988281 C 51.914062 81.003906 52.027344 81.09375 52.066406 81.222656 C 52.109375 81.347656 52.070312 81.488281 51.972656 81.574219 L 40.179688 92.316406 C 39.835938 92.628906 39.683594 93.101562 39.777344 93.554688 L 43.007812 109.214844 C 43.03125 109.34375 42.980469 109.480469 42.875 109.558594 C 42.765625 109.636719 42.621094 109.644531 42.507812 109.578125 L 28.601562 101.640625 C 28.199219 101.410156 27.703125 101.410156 27.300781 101.640625 L 13.394531 109.578125 C 13.28125 109.644531 13.136719 109.636719 13.027344 109.558594 C 12.921875 109.480469 12.867188 109.34375 12.894531 109.214844 L 16.125 93.554688 C 16.21875 93.101562 16.066406 92.628906 15.722656 92.316406 L 3.929688 81.574219 C 3.832031 81.488281 3.792969 81.347656 3.835938 81.222656 C 3.875 81.09375 3.988281 81.003906 4.121094 80.988281 L 19.988281 79.234375 C 20.449219 79.183594 20.847656 78.890625 21.039062 78.46875 L 27.640625 63.859375 C 27.695312 63.738281 27.816406 63.660156 27.949219 63.660156 C 28.082031 63.660156 28.203125 63.738281 28.257812 63.859375 Z M 28.257812 63.859375 " clip-rule="nonzero"/></clipPath><clipPath id="7d52b62b3c"><path d="M 58.636719 63.542969 L 107.160156 63.542969 L 107.160156 109.6875 L 58.636719 109.6875 Z M 58.636719 63.542969 " clip-rule="nonzero"/></clipPath><clipPath id="2657baec53"><path d="M 83.171875 63.859375 L 89.777344 78.476562 C 89.96875 78.902344 90.367188 79.191406 90.832031 79.242188 L 106.707031 81 C 106.839844 81.015625 106.953125 81.105469 106.992188 81.230469 C 107.035156 81.359375 106.996094 81.496094 106.898438 81.585938 L 95.097656 92.335938 C 94.753906 92.648438 94.601562 93.121094 94.695312 93.574219 L 97.925781 109.242188 C 97.953125 109.375 97.902344 109.507812 97.792969 109.585938 C 97.6875 109.664062 97.542969 109.671875 97.425781 109.605469 L 83.511719 101.664062 C 83.109375 101.433594 82.613281 101.433594 82.210938 101.664062 L 68.296875 109.605469 C 68.179688 109.671875 68.039062 109.664062 67.929688 109.585938 C 67.824219 109.507812 67.769531 109.375 67.796875 109.242188 L 71.03125 93.574219 C 71.125 93.121094 70.96875 92.648438 70.625 92.335938 L 58.824219 81.585938 C 58.726562 81.496094 58.691406 81.359375 58.730469 81.230469 C 58.773438 81.105469 58.882812 81.015625 59.015625 81 L 74.894531 79.242188 C 75.355469 79.191406 75.753906 78.902344 75.945312 78.476562 L 82.554688 63.859375 C 82.609375 63.738281 82.730469 63.660156 82.863281 63.660156 C 82.996094 63.660156 83.117188 63.738281 83.171875 63.859375 Z M 83.171875 63.859375 " clip-rule="nonzero"/></clipPath><clipPath id="3bb83891b3"><path d="M 0.636719 0.542969 L 49.078125 0.542969 L 49.078125 46.6875 L 0.636719 46.6875 Z M 0.636719 0.542969 " clip-rule="nonzero"/></clipPath><clipPath id="eac26cd595"><path d="M 25.171875 0.859375 L 31.777344 15.476562 C 31.96875 15.902344 32.367188 16.191406 32.832031 16.242188 L 48.707031 18 C 48.839844 18.015625 48.953125 18.105469 48.992188 18.230469 C 49.035156 18.359375 48.996094 18.496094 48.898438 18.585938 L 37.097656 29.335938 C 36.753906 29.648438 36.601562 30.121094 36.695312 30.574219 L 39.925781 46.242188 C 39.953125 46.375 39.902344 46.507812 39.792969 46.585938 C 39.6875 46.664062 39.542969 46.671875 39.425781 46.605469 L 25.511719 38.664062 C 25.109375 38.433594 24.613281 38.433594 24.210938 38.664062 L 10.296875 46.605469 C 10.179688 46.671875 10.039062 46.664062 9.929688 46.585938 C 9.824219 46.507812 9.769531 46.375 9.796875 46.242188 L 13.03125 30.574219 C 13.125 30.121094 12.96875 29.648438 12.625 29.335938 L 0.824219 18.585938 C 0.726562 18.496094 0.691406 18.359375 0.730469 18.230469 C 0.773438 18.105469 0.882812 18.015625 1.015625 18 L 16.894531 16.242188 C 17.355469 16.191406 17.753906 15.902344 17.945312 15.476562 L 24.554688 0.859375 C 24.609375 0.738281 24.730469 0.660156 24.863281 0.660156 C 24.996094 0.660156 25.117188 0.738281 25.171875 0.859375 Z M 25.171875 0.859375 " clip-rule="nonzero"/></clipPath><clipPath id="91d839f6d9"><rect x="0" width="50" y="0" height="47"/></clipPath><clipPath id="32be74138b"><path d="M 58.277344 63.175781 L 107 63.175781 L 107 109.035156 L 58.277344 109.035156 Z M 58.277344 63.175781 " clip-rule="nonzero"/></clipPath><clipPath id="e464ce4357"><path d="M 83.164062 63.859375 L 89.765625 78.46875 C 89.957031 78.890625 90.355469 79.183594 90.820312 79.234375 L 106.6875 80.988281 C 106.820312 81.003906 106.929688 81.09375 106.972656 81.222656 C 107.011719 81.347656 106.976562 81.488281 106.878906 81.574219 L 95.082031 92.316406 C 94.738281 92.628906 94.585938 93.101562 94.679688 93.554688 L 97.910156 109.214844 C 97.9375 109.34375 97.886719 109.480469 97.777344 109.558594 C 97.667969 109.636719 97.527344 109.644531 97.410156 109.578125 L 83.503906 101.640625 C 83.101562 101.410156 82.605469 101.410156 82.203125 101.640625 L 68.300781 109.578125 C 68.183594 109.644531 68.039062 109.636719 67.933594 109.558594 C 67.824219 109.480469 67.773438 109.34375 67.800781 109.214844 L 71.03125 93.554688 C 71.125 93.101562 70.96875 92.628906 70.625 92.316406 L 58.832031 81.574219 C 58.734375 81.488281 58.699219 81.347656 58.738281 81.222656 C 58.78125 81.09375 58.890625 81.003906 59.023438 80.988281 L 74.890625 79.234375 C 75.351562 79.183594 75.753906 78.890625 75.945312 78.46875 L 82.546875 63.859375 C 82.601562 63.738281 82.722656 63.660156 82.855469 63.660156 C 82.988281 63.660156 83.109375 63.738281 83.164062 63.859375 Z M 83.164062 63.859375 " clip-rule="nonzero"/></clipPath><clipPath id="d87aed18c8"><path d="M 113.488281 63.542969 L 162 63.542969 L 162 109.6875 L 113.488281 109.6875 Z M 113.488281 63.542969 " clip-rule="nonzero"/></clipPath><clipPath id="11c5a982cb"><path d="M 138.023438 63.859375 L 144.628906 78.476562 C 144.820312 78.902344 145.222656 79.191406 145.683594 79.242188 L 161.558594 81 C 161.691406 81.015625 161.804688 81.105469 161.84375 81.230469 C 161.886719 81.359375 161.851562 81.496094 161.75 81.585938 L 149.949219 92.335938 C 149.605469 92.648438 149.453125 93.121094 149.546875 93.574219 L 152.777344 109.242188 C 152.804688 109.375 152.753906 109.507812 152.644531 109.585938 C 152.539062 109.664062 152.394531 109.671875 152.277344 109.605469 L 138.367188 101.664062 C 137.960938 101.433594 137.464844 101.433594 137.0625 101.664062 L 123.148438 109.605469 C 123.035156 109.671875 122.890625 109.664062 122.78125 109.585938 C 122.675781 109.507812 122.621094 109.375 122.648438 109.242188 L 125.882812 93.574219 C 125.976562 93.121094 125.824219 92.648438 125.480469 92.335938 L 113.675781 81.585938 C 113.578125 81.496094 113.542969 81.359375 113.582031 81.230469 C 113.625 81.105469 113.734375 81.015625 113.867188 81 L 129.746094 79.242188 C 130.207031 79.191406 130.609375 78.902344 130.800781 78.476562 L 137.40625 63.859375 C 137.460938 63.738281 137.582031 63.660156 137.714844 63.660156 C 137.847656 63.660156 137.96875 63.738281 138.023438 63.859375 Z M 138.023438 63.859375 " clip-rule="nonzero"/></clipPath><clipPath id="1496153379"><path d="M 0.488281 0.542969 L 49 0.542969 L 49 46.6875 L 0.488281 46.6875 Z M 0.488281 0.542969 " clip-rule="nonzero"/></clipPath><clipPath id="1e6906453c"><path d="M 25.023438 0.859375 L 31.628906 15.476562 C 31.820312 15.902344 32.222656 16.191406 32.683594 16.242188 L 48.558594 18 C 48.691406 18.015625 48.804688 18.105469 48.84375 18.230469 C 48.886719 18.359375 48.851562 18.496094 48.75 18.585938 L 36.949219 29.335938 C 36.605469 29.648438 36.453125 30.121094 36.546875 30.574219 L 39.777344 46.242188 C 39.804688 46.375 39.753906 46.507812 39.644531 46.585938 C 39.539062 46.664062 39.394531 46.671875 39.277344 46.605469 L 25.367188 38.664062 C 24.960938 38.433594 24.464844 38.433594 24.0625 38.664062 L 10.148438 46.605469 C 10.035156 46.671875 9.890625 46.664062 9.78125 46.585938 C 9.675781 46.507812 9.621094 46.375 9.648438 46.242188 L 12.882812 30.574219 C 12.976562 30.121094 12.824219 29.648438 12.480469 29.335938 L 0.675781 18.585938 C 0.578125 18.496094 0.542969 18.359375 0.582031 18.230469 C 0.625 18.105469 0.734375 18.015625 0.867188 18 L 16.746094 16.242188 C 17.207031 16.191406 17.609375 15.902344 17.800781 15.476562 L 24.40625 0.859375 C 24.460938 0.738281 24.582031 0.660156 24.714844 0.660156 C 24.847656 0.660156 24.96875 0.738281 25.023438 0.859375 Z M 25.023438 0.859375 " clip-rule="nonzero"/></clipPath><clipPath id="45f465d0b8"><rect x="0" width="49" y="0" height="47"/></clipPath><clipPath id="55d8907aee"><path d="M 113.132812 63.175781 L 162 63.175781 L 162 109.035156 L 113.132812 109.035156 Z M 113.132812 63.175781 " clip-rule="nonzero"/></clipPath><clipPath id="e1054e1631"><path d="M 138.015625 63.859375 L 144.617188 78.46875 C 144.808594 78.890625 145.210938 79.183594 145.671875 79.234375 L 161.539062 80.988281 C 161.671875 81.003906 161.78125 81.09375 161.824219 81.222656 C 161.863281 81.347656 161.828125 81.488281 161.730469 81.574219 L 149.933594 92.316406 C 149.59375 92.628906 149.4375 93.101562 149.53125 93.554688 L 152.761719 109.214844 C 152.789062 109.34375 152.738281 109.480469 152.628906 109.558594 C 152.523438 109.636719 152.378906 109.644531 152.261719 109.578125 L 138.359375 101.640625 C 137.953125 101.410156 137.460938 101.410156 137.054688 101.640625 L 123.152344 109.578125 C 123.035156 109.644531 122.894531 109.636719 122.785156 109.558594 C 122.675781 109.480469 122.625 109.34375 122.652344 109.214844 L 125.882812 93.554688 C 125.976562 93.101562 125.824219 92.628906 125.480469 92.316406 L 113.683594 81.574219 C 113.585938 81.488281 113.550781 81.347656 113.589844 81.222656 C 113.632812 81.09375 113.742188 81.003906 113.875 80.988281 L 129.742188 79.234375 C 130.203125 79.183594 130.605469 78.890625 130.796875 78.46875 L 137.398438 63.859375 C 137.453125 63.738281 137.574219 63.660156 137.707031 63.660156 C 137.839844 63.660156 137.960938 63.738281 138.015625 63.859375 Z M 138.015625 63.859375 " clip-rule="nonzero"/></clipPath><clipPath id="16fea606cf"><path d="M 169.152344 63.542969 L 217.675781 63.542969 L 217.675781 109.6875 L 169.152344 109.6875 Z M 169.152344 63.542969 " clip-rule="nonzero"/></clipPath><clipPath id="36b075d198"><path d="M 193.683594 63.859375 L 200.289062 78.476562 C 200.480469 78.902344 200.882812 79.191406 201.34375 79.242188 L 217.222656 81 C 217.355469 81.015625 217.464844 81.105469 217.507812 81.230469 C 217.546875 81.359375 217.511719 81.496094 217.414062 81.585938 L 205.613281 92.335938 C 205.269531 92.648438 205.113281 93.121094 205.207031 93.574219 L 208.441406 109.242188 C 208.46875 109.375 208.414062 109.507812 208.308594 109.585938 C 208.199219 109.664062 208.054688 109.671875 207.941406 109.605469 L 194.027344 101.664062 C 193.625 101.433594 193.128906 101.433594 192.722656 101.664062 L 178.8125 109.605469 C 178.695312 109.671875 178.550781 109.664062 178.445312 109.585938 C 178.335938 109.507812 178.285156 109.375 178.3125 109.242188 L 181.542969 93.574219 C 181.636719 93.121094 181.484375 92.648438 181.140625 92.335938 L 169.339844 81.585938 C 169.242188 81.496094 169.203125 81.359375 169.246094 81.230469 C 169.285156 81.105469 169.398438 81.015625 169.53125 81 L 185.40625 79.242188 C 185.867188 79.191406 186.269531 78.902344 186.460938 78.476562 L 193.066406 63.859375 C 193.121094 63.738281 193.242188 63.660156 193.375 63.660156 C 193.507812 63.660156 193.628906 63.738281 193.683594 63.859375 Z M 193.683594 63.859375 " clip-rule="nonzero"/></clipPath><clipPath id="702ed00e53"><path d="M 0.152344 0.542969 L 48.675781 0.542969 L 48.675781 46.6875 L 0.152344 46.6875 Z M 0.152344 0.542969 " clip-rule="nonzero"/></clipPath><clipPath id="33850027b2"><path d="M 24.683594 0.859375 L 31.289062 15.476562 C 31.480469 15.902344 31.882812 16.191406 32.34375 16.242188 L 48.222656 18 C 48.355469 18.015625 48.464844 18.105469 48.507812 18.230469 C 48.546875 18.359375 48.511719 18.496094 48.414062 18.585938 L 36.613281 29.335938 C 36.269531 29.648438 36.113281 30.121094 36.207031 30.574219 L 39.441406 46.242188 C 39.46875 46.375 39.414062 46.507812 39.308594 46.585938 C 39.199219 46.664062 39.054688 46.671875 38.941406 46.605469 L 25.027344 38.664062 C 24.625 38.433594 24.128906 38.433594 23.722656 38.664062 L 9.8125 46.605469 C 9.695312 46.671875 9.550781 46.664062 9.445312 46.585938 C 9.335938 46.507812 9.285156 46.375 9.3125 46.242188 L 12.542969 30.574219 C 12.636719 30.121094 12.484375 29.648438 12.140625 29.335938 L 0.339844 18.585938 C 0.242188 18.496094 0.203125 18.359375 0.246094 18.230469 C 0.285156 18.105469 0.398438 18.015625 0.53125 18 L 16.40625 16.242188 C 16.867188 16.191406 17.269531 15.902344 17.460938 15.476562 L 24.066406 0.859375 C 24.121094 0.738281 24.242188 0.660156 24.375 0.660156 C 24.507812 0.660156 24.628906 0.738281 24.683594 0.859375 Z M 24.683594 0.859375 " clip-rule="nonzero"/></clipPath><clipPath id="2218d89407"><rect x="0" width="49" y="0" height="47"/></clipPath><clipPath id="7c80a7ed71"><path d="M 169 63.175781 L 217.945312 63.175781 L 217.945312 109.035156 L 169 109.035156 Z M 169 63.175781 " clip-rule="nonzero"/></clipPath><clipPath id="93e499964b"><path d="M 193.675781 63.859375 L 200.28125 78.46875 C 200.472656 78.890625 200.871094 79.183594 201.332031 79.234375 L 217.199219 80.988281 C 217.332031 81.003906 217.445312 81.09375 217.484375 81.222656 C 217.527344 81.347656 217.488281 81.488281 217.390625 81.574219 L 205.597656 92.316406 C 205.253906 92.628906 205.101562 93.101562 205.195312 93.554688 L 208.425781 109.214844 C 208.449219 109.34375 208.398438 109.480469 208.292969 109.558594 C 208.183594 109.636719 208.039062 109.644531 207.925781 109.578125 L 194.019531 101.640625 C 193.617188 101.410156 193.121094 101.410156 192.71875 101.640625 L 178.8125 109.578125 C 178.699219 109.644531 178.554688 109.636719 178.445312 109.558594 C 178.339844 109.480469 178.285156 109.34375 178.3125 109.214844 L 181.542969 93.554688 C 181.636719 93.101562 181.484375 92.628906 181.140625 92.316406 L 169.347656 81.574219 C 169.25 81.488281 169.210938 81.347656 169.253906 81.222656 C 169.292969 81.09375 169.40625 81.003906 169.539062 80.988281 L 185.40625 79.234375 C 185.867188 79.183594 186.265625 78.890625 186.457031 78.46875 L 193.058594 63.859375 C 193.113281 63.738281 193.234375 63.660156 193.367188 63.660156 C 193.503906 63.660156 193.621094 63.738281 193.675781 63.859375 Z M 193.675781 63.859375 " clip-rule="nonzero"/></clipPath><clipPath id="fb933724cb"><path d="M 225.816406 63.542969 L 274.34375 63.542969 L 274.34375 109.6875 L 225.816406 109.6875 Z M 225.816406 63.542969 " clip-rule="nonzero"/></clipPath><clipPath id="64491dd799"><path d="M 250.351562 63.859375 L 256.957031 78.476562 C 257.148438 78.902344 257.550781 79.191406 258.011719 79.242188 L 273.886719 81 C 274.019531 81.015625 274.132812 81.105469 274.171875 81.230469 C 274.214844 81.359375 274.175781 81.496094 274.078125 81.585938 L 262.277344 92.335938 C 261.933594 92.648438 261.78125 93.121094 261.875 93.574219 L 265.105469 109.242188 C 265.132812 109.375 265.082031 109.507812 264.972656 109.585938 C 264.867188 109.664062 264.722656 109.671875 264.605469 109.605469 L 250.695312 101.664062 C 250.289062 101.433594 249.792969 101.433594 249.390625 101.664062 L 235.476562 109.605469 C 235.363281 109.671875 235.21875 109.664062 235.109375 109.585938 C 235.003906 109.507812 234.949219 109.375 234.976562 109.242188 L 238.210938 93.574219 C 238.304688 93.121094 238.152344 92.648438 237.808594 92.335938 L 226.003906 81.585938 C 225.90625 81.496094 225.871094 81.359375 225.910156 81.230469 C 225.953125 81.105469 226.0625 81.015625 226.195312 81 L 242.074219 79.242188 C 242.535156 79.191406 242.9375 78.902344 243.128906 78.476562 L 249.734375 63.859375 C 249.789062 63.738281 249.910156 63.660156 250.042969 63.660156 C 250.175781 63.660156 250.296875 63.738281 250.351562 63.859375 Z M 250.351562 63.859375 " clip-rule="nonzero"/></clipPath><clipPath id="fbce63d360"><path d="M 0.816406 0.542969 L 49.34375 0.542969 L 49.34375 46.6875 L 0.816406 46.6875 Z M 0.816406 0.542969 " clip-rule="nonzero"/></clipPath><clipPath id="c5ec19fd43"><path d="M 25.351562 0.859375 L 31.957031 15.476562 C 32.148438 15.902344 32.550781 16.191406 33.011719 16.242188 L 48.886719 18 C 49.019531 18.015625 49.132812 18.105469 49.171875 18.230469 C 49.214844 18.359375 49.175781 18.496094 49.078125 18.585938 L 37.277344 29.335938 C 36.933594 29.648438 36.78125 30.121094 36.875 30.574219 L 40.105469 46.242188 C 40.132812 46.375 40.082031 46.507812 39.972656 46.585938 C 39.867188 46.664062 39.722656 46.671875 39.605469 46.605469 L 25.695312 38.664062 C 25.289062 38.433594 24.792969 38.433594 24.390625 38.664062 L 10.476562 46.605469 C 10.363281 46.671875 10.21875 46.664062 10.109375 46.585938 C 10.003906 46.507812 9.949219 46.375 9.976562 46.242188 L 13.210938 30.574219 C 13.304688 30.121094 13.152344 29.648438 12.808594 29.335938 L 1.003906 18.585938 C 0.90625 18.496094 0.871094 18.359375 0.910156 18.230469 C 0.953125 18.105469 1.0625 18.015625 1.195312 18 L 17.074219 16.242188 C 17.535156 16.191406 17.9375 15.902344 18.128906 15.476562 L 24.734375 0.859375 C 24.789062 0.738281 24.910156 0.660156 25.042969 0.660156 C 25.175781 0.660156 25.296875 0.738281 25.351562 0.859375 Z M 25.351562 0.859375 " clip-rule="nonzero"/></clipPath><clipPath id="5262546c4b"><rect x="0" width="50" y="0" height="47"/></clipPath><clipPath id="dda307ac22"><path d="M 225.457031 63.175781 L 274.613281 63.175781 L 274.613281 109.035156 L 225.457031 109.035156 Z M 225.457031 63.175781 " clip-rule="nonzero"/></clipPath><clipPath id="c69abc2965"><path d="M 250.34375 63.859375 L 256.945312 78.46875 C 257.136719 78.890625 257.539062 79.183594 258 79.234375 L 273.867188 80.988281 C 274 81.003906 274.109375 81.09375 274.152344 81.222656 C 274.191406 81.347656 274.15625 81.488281 274.058594 81.574219 L 262.261719 92.316406 C 261.917969 92.628906 261.765625 93.101562 261.859375 93.554688 L 265.089844 109.214844 C 265.117188 109.34375 265.066406 109.480469 264.957031 109.558594 C 264.851562 109.636719 264.707031 109.644531 264.589844 109.578125 L 250.6875 101.640625 C 250.28125 101.410156 249.789062 101.410156 249.382812 101.640625 L 235.480469 109.578125 C 235.363281 109.644531 235.21875 109.636719 235.113281 109.558594 C 235.003906 109.480469 234.953125 109.34375 234.980469 109.214844 L 238.210938 93.554688 C 238.304688 93.101562 238.152344 92.628906 237.808594 92.316406 L 226.011719 81.574219 C 225.914062 81.488281 225.878906 81.347656 225.917969 81.222656 C 225.960938 81.09375 226.070312 81.003906 226.203125 80.988281 L 242.070312 79.234375 C 242.53125 79.183594 242.933594 78.890625 243.125 78.46875 L 249.726562 63.859375 C 249.78125 63.738281 249.902344 63.660156 250.035156 63.660156 C 250.167969 63.660156 250.289062 63.738281 250.34375 63.859375 Z M 250.34375 63.859375 " clip-rule="nonzero"/></clipPath><clipPath id="96ac7068e3"><rect x="0" width="278" y="0" height="114"/></clipPath></defs><g clip-path="url(#5bf21322e7)"><g clip-path="url(#0ea3f8e505)"><g transform="matrix(1, 0, 0, 1, 2, 2)"><g clip-path="url(#b5dbf6ad0c)"><g clip-path="url(#3d92832016)"><g clip-path="url(#5b99432d66)"><path fill="#104762" d="M 0.664062 0.664062 L 295.335938 0.664062 L 295.335938 295.335938 L 0.664062 295.335938 Z M 0.664062 0.664062 " fill-opacity="1" fill-rule="nonzero"/></g></g></g></g></g></g><g clip-path="url(#8e08745458)"><g clip-path="url(#eebb5623be)"><path stroke-linecap="butt" transform="matrix(0.75, 0, 0, 0.75, 2.662506, 2.6625)" fill="none" stroke-linejoin="miter" d="M 14.002077 0.00208362 L 378.892732 0.00208362 C 382.606274 0.00208362 386.163565 1.476042 388.788566 4.101042 C 391.413566 6.726043 392.892733 10.288543 392.892733 14.002085 L 392.892733 378.89274 C 392.892733 382.606282 391.413566 386.163573 388.788566 388.788574 C 386.163565 391.413574 382.606274 392.892741 378.892732 392.892741 L 14.002077 392.892741 C 10.288535 392.892741 6.726035 391.413574 4.101034 388.788574 C 1.476034 386.163573 0.00207562 382.606282 0.00207562 378.89274 L 0.00207562 14.002085 C 0.00207562 10.288543 1.476034 6.726043 4.101034 4.101042 C 6.726035 1.476042 10.288535 0.00208362 14.002077 0.00208362 Z M 14.002077 0.00208362 " stroke="#000000" stroke-width="6" stroke-opacity="1" stroke-miterlimit="4"/></g></g><g transform="matrix(1, 0, 0, 1, 11, 93)"><g clip-path="url(#96ac7068e3)"><g clip-path="url(#6762592a0d)"><g clip-path="url(#8ab2535354)"><g transform="matrix(1, 0, 0, 1, 3, 4)"><g clip-path="url(#4430dbfe88)"><g clip-path="url(#b3680532d3)"><g clip-path="url(#035ed8045c)"><path fill="#ffde59" d="M 0.367188 -0.0546875 L 49.625 -0.0546875 L 49.625 46.824219 L 0.367188 46.824219 Z M 0.367188 -0.0546875 " fill-opacity="1" fill-rule="nonzero"/></g></g></g></g></g></g><g clip-path="url(#873db79bd9)"><g clip-path="url(#0f0a846103)"><path stroke-linecap="butt" transform="matrix(2.183774, 0, 0, 2.183774, 3.374344, 3.94593)" fill="none" stroke-linejoin="miter" d="M 11.394711 0.312751 L 14.419507 7.002719 C 14.505367 7.195905 14.68961 7.330062 14.900684 7.353316 L 22.166633 8.15647 C 22.227451 8.163625 22.279325 8.204766 22.297212 8.262007 C 22.316889 8.321036 22.299001 8.383642 22.254282 8.424784 L 16.854011 13.343878 C 16.6966 13.486979 16.626839 13.703419 16.669769 13.910915 L 18.149075 21.08206 C 18.159807 21.141089 18.136553 21.203696 18.088257 21.239471 C 18.038171 21.275246 17.971987 21.278824 17.920113 21.248415 L 11.552122 17.613652 C 11.36788 17.508115 11.140707 17.508115 10.956465 17.613652 L 4.588474 21.248415 C 4.5366 21.278824 4.470416 21.275246 4.42033 21.239471 C 4.372034 21.203696 4.346991 21.141089 4.359512 21.08206 L 5.838818 13.910915 C 5.881748 13.703419 5.811987 13.486979 5.654576 13.343878 L 0.254305 8.424784 C 0.209586 8.383642 0.191698 8.321036 0.211374 8.262007 C 0.229262 8.204766 0.281136 8.163625 0.341954 8.15647 L 7.607903 7.353316 C 7.818977 7.330062 8.001431 7.195905 8.08908 7.002719 L 11.112087 0.312751 C 11.13713 0.257299 11.192581 0.221524 11.253399 0.221524 C 11.314217 0.221524 11.369669 0.257299 11.394711 0.312751 Z M 11.394711 0.312751 " stroke="#000000" stroke-width="0.686884" stroke-opacity="1" stroke-miterlimit="4"/></g></g><g clip-path="url(#af63a57610)"><g clip-path="url(#ff70afe6ba)"><g transform="matrix(1, 0, 0, 1, 58, 4)"><g clip-path="url(#5b4242c2aa)"><g clip-path="url(#bb05bbc787)"><g clip-path="url(#55b46581e3)"><path fill="#ffde59" d="M 0.269531 -0.0546875 L 49.527344 -0.0546875 L 49.527344 46.824219 L 0.269531 46.824219 Z M 0.269531 -0.0546875 " fill-opacity="1" fill-rule="nonzero"/></g></g></g></g></g></g><g clip-path="url(#f1b506da03)"><g clip-path="url(#d8bc1efb92)"><path stroke-linecap="butt" transform="matrix(2.183774, 0, 0, 2.183774, 58.278446, 3.94593)" fill="none" stroke-linejoin="miter" d="M 11.395695 0.312751 L 14.418702 7.002719 C 14.506351 7.195905 14.688805 7.330062 14.901667 7.353316 L 22.167616 8.15647 C 22.228434 8.163625 22.278519 8.204766 22.298196 8.262007 C 22.316083 8.321036 22.299985 8.383642 22.255266 8.424784 L 16.853206 13.343878 C 16.695795 13.486979 16.626033 13.703419 16.668963 13.910915 L 18.148269 21.08206 C 18.160791 21.141089 18.137537 21.203696 18.087451 21.239471 C 18.037366 21.275246 17.972971 21.278824 17.919308 21.248415 L 11.551317 17.613652 C 11.367074 17.508115 11.139902 17.508115 10.955659 17.613652 L 4.589457 21.248415 C 4.535794 21.278824 4.46961 21.275246 4.421314 21.239471 C 4.371228 21.203696 4.347974 21.141089 4.360496 21.08206 L 5.839802 13.910915 C 5.882732 13.703419 5.811181 13.486979 5.65377 13.343878 L 0.253499 8.424784 C 0.20878 8.383642 0.192682 8.321036 0.210569 8.262007 C 0.230246 8.204766 0.280331 8.163625 0.341149 8.15647 L 7.607098 7.353316 C 7.818172 7.330062 8.002414 7.195905 8.090063 7.002719 L 11.11307 0.312751 C 11.138113 0.257299 11.193565 0.221524 11.254382 0.221524 C 11.3152 0.221524 11.370652 0.257299 11.395695 0.312751 Z M 11.395695 0.312751 " stroke="#000000" stroke-width="0.686884" stroke-opacity="1" stroke-miterlimit="4"/></g></g><g clip-path="url(#5c0008f9fa)"><g clip-path="url(#b74ba76cd7)"><g transform="matrix(1, 0, 0, 1, 113, 4)"><g clip-path="url(#99bbe67455)"><g clip-path="url(#6bae7d1c1e)"><g clip-path="url(#15f6a70723)"><path fill="#ffde59" d="M 0.121094 -0.0546875 L 49.382812 -0.0546875 L 49.382812 46.824219 L 0.121094 46.824219 Z M 0.121094 -0.0546875 " fill-opacity="1" fill-rule="nonzero"/></g></g></g></g></g></g><g clip-path="url(#4244fc55a6)"><g clip-path="url(#101b658f37)"><path stroke-linecap="butt" transform="matrix(2.183774, 0, 0, 2.183774, 113.131017, 3.94593)" fill="none" stroke-linejoin="miter" d="M 11.395233 0.312751 L 14.418239 7.002719 C 14.505889 7.195905 14.690131 7.330062 14.901205 7.353316 L 22.167154 8.15647 C 22.227972 8.163625 22.278057 8.204766 22.297734 8.262007 C 22.315621 8.321036 22.299523 8.383642 22.254804 8.424784 L 16.852744 13.343878 C 16.697122 13.486979 16.625571 13.703419 16.668501 13.910915 L 18.147807 21.08206 C 18.160329 21.141089 18.137075 21.203696 18.086989 21.239471 C 18.038693 21.275246 17.972509 21.278824 17.918846 21.248415 L 11.552644 17.613652 C 11.366612 17.508115 11.141228 17.508115 10.955197 17.613652 L 4.588995 21.248415 C 4.535332 21.278824 4.470937 21.275246 4.420852 21.239471 C 4.370766 21.203696 4.347512 21.141089 4.360034 21.08206 L 5.839339 13.910915 C 5.88227 13.703419 5.812508 13.486979 5.655097 13.343878 L 0.253037 8.424784 C 0.208318 8.383642 0.192219 8.321036 0.210107 8.262007 C 0.229783 8.204766 0.279869 8.163625 0.340687 8.15647 L 7.606636 7.353316 C 7.81771 7.330062 8.001952 7.195905 8.089601 7.002719 L 11.112608 0.312751 C 11.137651 0.257299 11.193103 0.221524 11.25392 0.221524 C 11.314738 0.221524 11.37019 0.257299 11.395233 0.312751 Z M 11.395233 0.312751 " stroke="#000000" stroke-width="0.686884" stroke-opacity="1" stroke-miterlimit="4"/></g></g><g clip-path="url(#0f4bcedebb)"><g clip-path="url(#efb5bdfac5)"><g transform="matrix(1, 0, 0, 1, 169, 4)"><g clip-path="url(#bbf5c8d632)"><g clip-path="url(#da7f489771)"><g clip-path="url(#2a8fed3936)"><path fill="#8885ba" d="M -0.214844 -0.0546875 L 49.042969 -0.0546875 L 49.042969 46.824219 L -0.214844 46.824219 Z M -0.214844 -0.0546875 " fill-opacity="1" fill-rule="nonzero"/></g></g></g></g></g></g><g clip-path="url(#5d0a950848)"><g clip-path="url(#52545ad552)"><path stroke-linecap="butt" transform="matrix(2.183774, 0, 0, 2.183774, 168.792583, 3.94593)" fill="none" stroke-linejoin="miter" d="M 11.394587 0.312751 L 14.419383 7.002719 C 14.507032 7.195905 14.689486 7.330062 14.90056 7.353316 L 22.166509 8.15647 C 22.227327 8.163625 22.279201 8.204766 22.297088 8.262007 C 22.316765 8.321036 22.298877 8.383642 22.254158 8.424784 L 16.853887 13.343878 C 16.696476 13.486979 16.626714 13.703419 16.669645 13.910915 L 18.14895 21.08206 C 18.159683 21.141089 18.136429 21.203696 18.088133 21.239471 C 18.038047 21.275246 17.971863 21.278824 17.919989 21.248415 L 11.551998 17.613652 C 11.367756 17.508115 11.140583 17.508115 10.956341 17.613652 L 4.58835 21.248415 C 4.536476 21.278824 4.470291 21.275246 4.420206 21.239471 C 4.37191 21.203696 4.346867 21.141089 4.359388 21.08206 L 5.838694 13.910915 C 5.881624 13.703419 5.811863 13.486979 5.654452 13.343878 L 0.254181 8.424784 C 0.209462 8.383642 0.191574 8.321036 0.21125 8.262007 C 0.229138 8.204766 0.281012 8.163625 0.34183 8.15647 L 7.607779 7.353316 C 7.818853 7.330062 8.001307 7.195905 8.088956 7.002719 L 11.111963 0.312751 C 11.137005 0.257299 11.192457 0.221524 11.253275 0.221524 C 11.315882 0.221524 11.369544 0.257299 11.394587 0.312751 Z M 11.394587 0.312751 " stroke="#000000" stroke-width="0.686884" stroke-opacity="1" stroke-miterlimit="4"/></g></g><g clip-path="url(#63beeef3f7)"><g clip-path="url(#41a2e3e715)"><g transform="matrix(1, 0, 0, 1, 225, 4)"><g clip-path="url(#ef2d083e4d)"><g clip-path="url(#edb09f4d82)"><g clip-path="url(#e68956a29d)"><path fill="#8885ba" d="M 0.449219 -0.0546875 L 49.707031 -0.0546875 L 49.707031 46.824219 L 0.449219 46.824219 Z M 0.449219 -0.0546875 " fill-opacity="1" fill-rule="nonzero"/></g></g></g></g></g></g><g clip-path="url(#f5b1294a1c)"><g clip-path="url(#9934199295)"><path stroke-linecap="butt" transform="matrix(2.183774, 0, 0, 2.183774, 225.458947, 3.94593)" fill="none" stroke-linejoin="miter" d="M 11.395322 0.312751 L 14.418329 7.002719 C 14.505978 7.195905 14.690221 7.330062 14.901294 7.353316 L 22.167243 8.15647 C 22.228061 8.163625 22.278147 8.204766 22.297823 8.262007 C 22.315711 8.321036 22.299612 8.383642 22.254893 8.424784 L 16.852833 13.343878 C 16.695422 13.486979 16.62566 13.703419 16.668591 13.910915 L 18.147896 21.08206 C 18.160418 21.141089 18.137164 21.203696 18.087079 21.239471 C 18.038782 21.275246 17.972598 21.278824 17.918935 21.248415 L 11.552733 17.613652 C 11.366702 17.508115 11.141318 17.508115 10.955287 17.613652 L 4.589084 21.248415 C 4.535422 21.278824 4.469237 21.275246 4.420941 21.239471 C 4.370856 21.203696 4.347602 21.141089 4.360123 21.08206 L 5.839429 13.910915 C 5.882359 13.703419 5.812597 13.486979 5.655186 13.343878 L 0.253127 8.424784 C 0.208408 8.383642 0.192309 8.321036 0.210196 8.262007 C 0.229873 8.204766 0.279958 8.163625 0.340776 8.15647 L 7.606725 7.353316 C 7.817799 7.330062 8.002041 7.195905 8.089691 7.002719 L 11.112698 0.312751 C 11.13774 0.257299 11.193192 0.221524 11.25401 0.221524 C 11.314828 0.221524 11.370279 0.257299 11.395322 0.312751 Z M 11.395322 0.312751 " stroke="#000000" stroke-width="0.686884" stroke-opacity="1" stroke-miterlimit="4"/></g></g><g clip-path="url(#a9368629a4)"><g clip-path="url(#f4ba7c296b)"><g transform="matrix(1, 0, 0, 1, 3, 63)"><g clip-path="url(#77b938c234)"><g clip-path="url(#c4469f2373)"><g clip-path="url(#15ee79a4ef)"><path fill="#8885ba" d="M 0.367188 0.175781 L 49.625 0.175781 L 49.625 47.054688 L 0.367188 47.054688 Z M 0.367188 0.175781 " fill-opacity="1" fill-rule="nonzero"/></g></g></g></g></g></g><g clip-path="url(#2ab0f8bdec)"><g clip-path="url(#d583dc78a3)"><path stroke-linecap="butt" transform="matrix(2.183774, 0, 0, 2.183774, 3.374344, 63.176603)" fill="none" stroke-linejoin="miter" d="M 11.394711 0.312657 L 14.419507 7.002625 C 14.505367 7.195811 14.68961 7.329968 14.900684 7.353222 L 22.166633 8.156376 C 22.227451 8.163531 22.279325 8.204672 22.297212 8.263702 C 22.316889 8.320942 22.299001 8.385337 22.254282 8.42469 L 16.854011 13.343784 C 16.6966 13.486885 16.626839 13.703325 16.669769 13.910822 L 18.149075 21.081966 C 18.159807 21.140995 18.136553 21.203602 18.088257 21.239377 C 18.038171 21.275153 17.971987 21.27873 17.920113 21.248321 L 11.552122 17.613558 C 11.36788 17.508021 11.140707 17.508021 10.956465 17.613558 L 4.588474 21.248321 C 4.5366 21.27873 4.470416 21.275153 4.42033 21.239377 C 4.372034 21.203602 4.346991 21.140995 4.359512 21.081966 L 5.838818 13.910822 C 5.881748 13.703325 5.811987 13.486885 5.654576 13.343784 L 0.254305 8.42469 C 0.209586 8.385337 0.191698 8.320942 0.211374 8.263702 C 0.229262 8.204672 0.281136 8.163531 0.341954 8.156376 L 7.607903 7.353222 C 7.818977 7.329968 8.001431 7.195811 8.08908 7.002625 L 11.112087 0.312657 C 11.13713 0.257205 11.192581 0.22143 11.253399 0.22143 C 11.314217 0.22143 11.369669 0.257205 11.394711 0.312657 Z M 11.394711 0.312657 " stroke="#000000" stroke-width="0.686884" stroke-opacity="1" stroke-miterlimit="4"/></g></g><g clip-path="url(#7d52b62b3c)"><g clip-path="url(#2657baec53)"><g transform="matrix(1, 0, 0, 1, 58, 63)"><g clip-path="url(#91d839f6d9)"><g clip-path="url(#3bb83891b3)"><g clip-path="url(#eac26cd595)"><path fill="#8885ba" d="M 0.269531 0.175781 L 49.527344 0.175781 L 49.527344 47.054688 L 0.269531 47.054688 Z M 0.269531 0.175781 " fill-opacity="1" fill-rule="nonzero"/></g></g></g></g></g></g><g clip-path="url(#32be74138b)"><g clip-path="url(#e464ce4357)"><path stroke-linecap="butt" transform="matrix(2.183774, 0, 0, 2.183774, 58.278446, 63.176603)" fill="none" stroke-linejoin="miter" d="M 11.395695 0.312657 L 14.418702 7.002625 C 14.506351 7.195811 14.688805 7.329968 14.901667 7.353222 L 22.167616 8.156376 C 22.228434 8.163531 22.278519 8.204672 22.298196 8.263702 C 22.316083 8.320942 22.299985 8.385337 22.255266 8.42469 L 16.853206 13.343784 C 16.695795 13.486885 16.626033 13.703325 16.668963 13.910822 L 18.148269 21.081966 C 18.160791 21.140995 18.137537 21.203602 18.087451 21.239377 C 18.037366 21.275153 17.972971 21.27873 17.919308 21.248321 L 11.551317 17.613558 C 11.367074 17.508021 11.139902 17.508021 10.955659 17.613558 L 4.589457 21.248321 C 4.535794 21.27873 4.46961 21.275153 4.421314 21.239377 C 4.371228 21.203602 4.347974 21.140995 4.360496 21.081966 L 5.839802 13.910822 C 5.882732 13.703325 5.811181 13.486885 5.65377 13.343784 L 0.253499 8.42469 C 0.20878 8.385337 0.192682 8.320942 0.210569 8.263702 C 0.230246 8.204672 0.280331 8.163531 0.341149 8.156376 L 7.607098 7.353222 C 7.818172 7.329968 8.002414 7.195811 8.090063 7.002625 L 11.11307 0.312657 C 11.138113 0.257205 11.193565 0.22143 11.254382 0.22143 C 11.3152 0.22143 11.370652 0.257205 11.395695 0.312657 Z M 11.395695 0.312657 " stroke="#000000" stroke-width="0.686884" stroke-opacity="1" stroke-miterlimit="4"/></g></g><g clip-path="url(#d87aed18c8)"><g clip-path="url(#11c5a982cb)"><g transform="matrix(1, 0, 0, 1, 113, 63)"><g clip-path="url(#45f465d0b8)"><g clip-path="url(#1496153379)"><g clip-path="url(#1e6906453c)"><path fill="#8885ba" d="M 0.121094 0.175781 L 49.382812 0.175781 L 49.382812 47.054688 L 0.121094 47.054688 Z M 0.121094 0.175781 " fill-opacity="1" fill-rule="nonzero"/></g></g></g></g></g></g><g clip-path="url(#55d8907aee)"><g clip-path="url(#e1054e1631)"><path stroke-linecap="butt" transform="matrix(2.183774, 0, 0, 2.183774, 113.131017, 63.176603)" fill="none" stroke-linejoin="miter" d="M 11.395233 0.312657 L 14.418239 7.002625 C 14.505889 7.195811 14.690131 7.329968 14.901205 7.353222 L 22.167154 8.156376 C 22.227972 8.163531 22.278057 8.204672 22.297734 8.263702 C 22.315621 8.320942 22.299523 8.385337 22.254804 8.42469 L 16.852744 13.343784 C 16.697122 13.486885 16.625571 13.703325 16.668501 13.910822 L 18.147807 21.081966 C 18.160329 21.140995 18.137075 21.203602 18.086989 21.239377 C 18.038693 21.275153 17.972509 21.27873 17.918846 21.248321 L 11.552644 17.613558 C 11.366612 17.508021 11.141228 17.508021 10.955197 17.613558 L 4.588995 21.248321 C 4.535332 21.27873 4.470937 21.275153 4.420852 21.239377 C 4.370766 21.203602 4.347512 21.140995 4.360034 21.081966 L 5.839339 13.910822 C 5.88227 13.703325 5.812508 13.486885 5.655097 13.343784 L 0.253037 8.42469 C 0.208318 8.385337 0.192219 8.320942 0.210107 8.263702 C 0.229783 8.204672 0.279869 8.163531 0.340687 8.156376 L 7.606636 7.353222 C 7.81771 7.329968 8.001952 7.195811 8.089601 7.002625 L 11.112608 0.312657 C 11.137651 0.257205 11.193103 0.22143 11.25392 0.22143 C 11.314738 0.22143 11.37019 0.257205 11.395233 0.312657 Z M 11.395233 0.312657 " stroke="#000000" stroke-width="0.686884" stroke-opacity="1" stroke-miterlimit="4"/></g></g><g clip-path="url(#16fea606cf)"><g clip-path="url(#36b075d198)"><g transform="matrix(1, 0, 0, 1, 169, 63)"><g clip-path="url(#2218d89407)"><g clip-path="url(#702ed00e53)"><g clip-path="url(#33850027b2)"><path fill="#8885ba" d="M -0.214844 0.175781 L 49.042969 0.175781 L 49.042969 47.054688 L -0.214844 47.054688 Z M -0.214844 0.175781 " fill-opacity="1" fill-rule="nonzero"/></g></g></g></g></g></g><g clip-path="url(#7c80a7ed71)"><g clip-path="url(#93e499964b)"><path stroke-linecap="butt" transform="matrix(2.183774, 0, 0, 2.183774, 168.792583, 63.176603)" fill="none" stroke-linejoin="miter" d="M 11.394587 0.312657 L 14.419383 7.002625 C 14.507032 7.195811 14.689486 7.329968 14.90056 7.353222 L 22.166509 8.156376 C 22.227327 8.163531 22.279201 8.204672 22.297088 8.263702 C 22.316765 8.320942 22.298877 8.385337 22.254158 8.42469 L 16.853887 13.343784 C 16.696476 13.486885 16.626714 13.703325 16.669645 13.910822 L 18.14895 21.081966 C 18.159683 21.140995 18.136429 21.203602 18.088133 21.239377 C 18.038047 21.275153 17.971863 21.27873 17.919989 21.248321 L 11.551998 17.613558 C 11.367756 17.508021 11.140583 17.508021 10.956341 17.613558 L 4.58835 21.248321 C 4.536476 21.27873 4.470291 21.275153 4.420206 21.239377 C 4.37191 21.203602 4.346867 21.140995 4.359388 21.081966 L 5.838694 13.910822 C 5.881624 13.703325 5.811863 13.486885 5.654452 13.343784 L 0.254181 8.42469 C 0.209462 8.385337 0.191574 8.320942 0.21125 8.263702 C 0.229138 8.204672 0.281012 8.163531 0.34183 8.156376 L 7.607779 7.353222 C 7.818853 7.329968 8.001307 7.195811 8.088956 7.002625 L 11.111963 0.312657 C 11.137005 0.257205 11.192457 0.22143 11.253275 0.22143 C 11.315882 0.22143 11.369544 0.257205 11.394587 0.312657 Z M 11.394587 0.312657 " stroke="#000000" stroke-width="0.686884" stroke-opacity="1" stroke-miterlimit="4"/></g></g><g clip-path="url(#fb933724cb)"><g clip-path="url(#64491dd799)"><g transform="matrix(1, 0, 0, 1, 225, 63)"><g clip-path="url(#5262546c4b)"><g clip-path="url(#fbce63d360)"><g clip-path="url(#c5ec19fd43)"><path fill="#8885ba" d="M 0.449219 0.175781 L 49.707031 0.175781 L 49.707031 47.054688 L 0.449219 47.054688 Z M 0.449219 0.175781 " fill-opacity="1" fill-rule="nonzero"/></g></g></g></g></g></g><g clip-path="url(#dda307ac22)"><g clip-path="url(#c69abc2965)"><path stroke-linecap="butt" transform="matrix(2.183774, 0, 0, 2.183774, 225.458947, 63.176603)" fill="none" stroke-linejoin="miter" d="M 11.395322 0.312657 L 14.418329 7.002625 C 14.505978 7.195811 14.690221 7.329968 14.901294 7.353222 L 22.167243 8.156376 C 22.228061 8.163531 22.278147 8.204672 22.297823 8.263702 C 22.315711 8.320942 22.299612 8.385337 22.254893 8.42469 L 16.852833 13.343784 C 16.695422 13.486885 16.62566 13.703325 16.668591 13.910822 L 18.147896 21.081966 C 18.160418 21.140995 18.137164 21.203602 18.087079 21.239377 C 18.038782 21.275153 17.972598 21.27873 17.918935 21.248321 L 11.552733 17.613558 C 11.366702 17.508021 11.141318 17.508021 10.955287 17.613558 L 4.589084 21.248321 C 4.535422 21.27873 4.469237 21.275153 4.420941 21.239377 C 4.370856 21.203602 4.347602 21.140995 4.360123 21.081966 L 5.839429 13.910822 C 5.882359 13.703325 5.812597 13.486885 5.655186 13.343784 L 0.253127 8.42469 C 0.208408 8.385337 0.192309 8.320942 0.210196 8.263702 C 0.229873 8.204672 0.279958 8.163531 0.340776 8.156376 L 7.606725 7.353222 C 7.817799 7.329968 8.002041 7.195811 8.089691 7.002625 L 11.112698 0.312657 C 11.13774 0.257205 11.193192 0.22143 11.25401 0.22143 C 11.314828 0.22143 11.370279 0.257205 11.395322 0.312657 Z M 11.395322 0.312657 " stroke="#000000" stroke-width="0.686884" stroke-opacity="1" stroke-miterlimit="4"/></g></g></g></g></svg>