<svg xmlns="http://www.w3.org/2000/svg" xmlns:xlink="http://www.w3.org/1999/xlink" width="400" zoomAndPan="magnify" viewBox="0 0 300 299.999988" height="400" preserveAspectRatio="xMidYMid meet" version="1.0"><defs><clipPath id="3921a58eb1"><path d="M 2 2 L 297.335938 2 L 297.335938 297.335938 L 2 297.335938 Z M 2 2 " clip-rule="nonzero"/></clipPath><clipPath id="06140bc890"><path d="M 13.164062 2.664062 L 286.835938 2.664062 C 289.621094 2.664062 292.292969 3.769531 294.261719 5.738281 C 296.230469 7.707031 297.335938 10.378906 297.335938 13.164062 L 297.335938 286.835938 C 297.335938 289.621094 296.230469 292.292969 294.261719 294.261719 C 292.292969 296.230469 289.621094 297.335938 286.835938 297.335938 L 13.164062 297.335938 C 10.378906 297.335938 7.707031 296.230469 5.738281 294.261719 C 3.769531 292.292969 2.664062 289.621094 2.664062 286.835938 L 2.664062 13.164062 C 2.664062 10.378906 3.769531 7.707031 5.738281 5.738281 C 7.707031 3.769531 10.378906 2.664062 13.164062 2.664062 Z M 13.164062 2.664062 " clip-rule="nonzero"/></clipPath><clipPath id="a4e47a0df6"><path d="M 0.640625 0.640625 L 295.335938 0.640625 L 295.335938 295.335938 L 0.640625 295.335938 Z M 0.640625 0.640625 " clip-rule="nonzero"/></clipPath><clipPath id="1bcebc397e"><path d="M 11.164062 0.664062 L 284.835938 0.664062 C 287.621094 0.664062 290.292969 1.769531 292.261719 3.738281 C 294.230469 5.707031 295.335938 8.378906 295.335938 11.164062 L 295.335938 284.835938 C 295.335938 287.621094 294.230469 290.292969 292.261719 292.261719 C 290.292969 294.230469 287.621094 295.335938 284.835938 295.335938 L 11.164062 295.335938 C 8.378906 295.335938 5.707031 294.230469 3.738281 292.261719 C 1.769531 290.292969 0.664062 287.621094 0.664062 284.835938 L 0.664062 11.164062 C 0.664062 8.378906 1.769531 5.707031 3.738281 3.738281 C 5.707031 1.769531 8.378906 0.664062 11.164062 0.664062 Z M 11.164062 0.664062 " clip-rule="nonzero"/></clipPath><clipPath id="18c3e87466"><rect x="0" width="296" y="0" height="296"/></clipPath><clipPath id="a53de51e2a"><path d="M 2.664062 2.664062 L 297.414062 2.664062 L 297.414062 297.414062 L 2.664062 297.414062 Z M 2.664062 2.664062 " clip-rule="nonzero"/></clipPath><clipPath id="a1d18f3bda"><path d="M 13.164062 2.664062 L 286.832031 2.664062 C 289.617188 2.664062 292.285156 3.769531 294.253906 5.738281 C 296.222656 7.707031 297.332031 10.378906 297.332031 13.164062 L 297.332031 286.832031 C 297.332031 289.617188 296.222656 292.285156 294.253906 294.253906 C 292.285156 296.222656 289.617188 297.332031 286.832031 297.332031 L 13.164062 297.332031 C 10.378906 297.332031 7.707031 296.222656 5.738281 294.253906 C 3.769531 292.285156 2.664062 289.617188 2.664062 286.832031 L 2.664062 13.164062 C 2.664062 10.378906 3.769531 7.707031 5.738281 5.738281 C 7.707031 3.769531 10.378906 2.664062 13.164062 2.664062 Z M 13.164062 2.664062 " clip-rule="nonzero"/></clipPath><clipPath id="fbf3a173c2"><path d="M 3.730469 4.3125 L 52.253906 4.3125 L 52.253906 50.457031 L 3.730469 50.457031 Z M 3.730469 4.3125 " clip-rule="nonzero"/></clipPath><clipPath id="a703334790"><path d="M 28.261719 4.628906 L 34.871094 19.246094 C 35.0625 19.667969 35.460938 19.960938 35.925781 20.011719 L 51.800781 21.769531 C 51.933594 21.78125 52.046875 21.875 52.085938 22 C 52.128906 22.125 52.089844 22.265625 51.992188 22.355469 L 40.191406 33.105469 C 39.847656 33.417969 39.695312 33.886719 39.789062 34.34375 L 43.019531 50.011719 C 43.046875 50.140625 42.996094 50.277344 42.886719 50.355469 C 42.777344 50.433594 42.636719 50.441406 42.519531 50.375 L 28.605469 42.433594 C 28.203125 42.203125 27.707031 42.203125 27.304688 42.433594 L 13.390625 50.375 C 13.273438 50.441406 13.128906 50.433594 13.023438 50.355469 C 12.914062 50.277344 12.863281 50.140625 12.890625 50.011719 L 16.121094 34.34375 C 16.214844 33.886719 16.0625 33.417969 15.71875 33.105469 L 3.917969 22.355469 C 3.820312 22.265625 3.78125 22.125 3.824219 22 C 3.863281 21.875 3.976562 21.78125 4.109375 21.769531 L 19.984375 20.011719 C 20.449219 19.960938 20.847656 19.667969 21.039062 19.246094 L 27.644531 4.628906 C 27.699219 4.507812 27.820312 4.429688 27.953125 4.429688 C 28.085938 4.429688 28.207031 4.507812 28.261719 4.628906 Z M 28.261719 4.628906 " clip-rule="nonzero"/></clipPath><clipPath id="ecc64b5639"><path d="M 0.730469 0.3125 L 49.253906 0.3125 L 49.253906 46.457031 L 0.730469 46.457031 Z M 0.730469 0.3125 " clip-rule="nonzero"/></clipPath><clipPath id="2f44f6b9f8"><path d="M 25.261719 0.628906 L 31.871094 15.246094 C 32.0625 15.667969 32.460938 15.960938 32.925781 16.011719 L 48.800781 17.769531 C 48.933594 17.78125 49.046875 17.875 49.085938 18 C 49.128906 18.125 49.089844 18.265625 48.992188 18.355469 L 37.191406 29.105469 C 36.847656 29.417969 36.695312 29.886719 36.789062 30.34375 L 40.019531 46.011719 C 40.046875 46.140625 39.996094 46.277344 39.886719 46.355469 C 39.777344 46.433594 39.636719 46.441406 39.519531 46.375 L 25.605469 38.433594 C 25.203125 38.203125 24.707031 38.203125 24.304688 38.433594 L 10.390625 46.375 C 10.273438 46.441406 10.128906 46.433594 10.023438 46.355469 C 9.914062 46.277344 9.863281 46.140625 9.890625 46.011719 L 13.121094 30.34375 C 13.214844 29.886719 13.0625 29.417969 12.71875 29.105469 L 0.917969 18.355469 C 0.820312 18.265625 0.78125 18.125 0.824219 18 C 0.863281 17.875 0.976562 17.78125 1.109375 17.769531 L 16.984375 16.011719 C 17.449219 15.960938 17.847656 15.667969 18.039062 15.246094 L 24.644531 0.628906 C 24.699219 0.507812 24.820312 0.429688 24.953125 0.429688 C 25.085938 0.429688 25.207031 0.507812 25.261719 0.628906 Z M 25.261719 0.628906 " clip-rule="nonzero"/></clipPath><clipPath id="c3a3131a5f"><rect x="0" width="50" y="0" height="47"/></clipPath><clipPath id="408034bf56"><path d="M 3.367188 4 L 52.101562 4 L 52.101562 50.808594 L 3.367188 50.808594 Z M 3.367188 4 " clip-rule="nonzero"/></clipPath><clipPath id="ea964702f1"><path d="M 28.257812 4.628906 L 34.863281 19.242188 C 35.054688 19.664062 35.457031 19.957031 35.917969 20.007812 L 51.789062 21.761719 C 51.921875 21.777344 52.03125 21.867188 52.074219 21.992188 C 52.117188 22.121094 52.078125 22.257812 51.980469 22.347656 L 40.183594 33.09375 C 39.839844 33.40625 39.6875 33.878906 39.78125 34.332031 L 43.011719 49.996094 C 43.039062 50.125 42.984375 50.261719 42.878906 50.339844 C 42.769531 50.417969 42.625 50.425781 42.511719 50.359375 L 28.601562 42.421875 C 28.199219 42.191406 27.703125 42.191406 27.300781 42.421875 L 13.390625 50.359375 C 13.273438 50.425781 13.132812 50.417969 13.023438 50.339844 C 12.917969 50.261719 12.863281 50.125 12.890625 49.996094 L 16.121094 34.332031 C 16.214844 33.878906 16.0625 33.40625 15.71875 33.09375 L 3.921875 22.347656 C 3.824219 22.257812 3.785156 22.121094 3.828125 21.992188 C 3.867188 21.867188 3.980469 21.777344 4.113281 21.761719 L 19.984375 20.007812 C 20.445312 19.957031 20.847656 19.664062 21.039062 19.242188 L 27.640625 4.628906 C 27.695312 4.507812 27.816406 4.429688 27.949219 4.429688 C 28.082031 4.429688 28.203125 4.507812 28.257812 4.628906 Z M 28.257812 4.628906 " clip-rule="nonzero"/></clipPath><clipPath id="014bbf8a6d"><path d="M 58.632812 4.3125 L 107.160156 4.3125 L 107.160156 50.457031 L 58.632812 50.457031 Z M 58.632812 4.3125 " clip-rule="nonzero"/></clipPath><clipPath id="10e714dc37"><path d="M 83.167969 4.628906 L 89.773438 19.246094 C 89.964844 19.667969 90.367188 19.960938 90.828125 20.011719 L 106.707031 21.769531 C 106.839844 21.78125 106.949219 21.875 106.992188 22 C 107.03125 22.125 106.996094 22.265625 106.898438 22.355469 L 95.097656 33.105469 C 94.753906 33.417969 94.597656 33.886719 94.691406 34.34375 L 97.925781 50.011719 C 97.953125 50.140625 97.898438 50.277344 97.792969 50.355469 C 97.683594 50.433594 97.539062 50.441406 97.425781 50.375 L 83.511719 42.433594 C 83.109375 42.203125 82.613281 42.203125 82.207031 42.433594 L 68.296875 50.375 C 68.179688 50.441406 68.035156 50.433594 67.929688 50.355469 C 67.820312 50.277344 67.769531 50.140625 67.796875 50.011719 L 71.027344 34.34375 C 71.121094 33.886719 70.96875 33.417969 70.625 33.105469 L 58.824219 22.355469 C 58.722656 22.265625 58.6875 22.125 58.726562 22 C 58.769531 21.875 58.882812 21.78125 59.011719 21.769531 L 74.890625 20.011719 C 75.351562 19.960938 75.753906 19.667969 75.945312 19.246094 L 82.550781 4.628906 C 82.605469 4.507812 82.726562 4.429688 82.859375 4.429688 C 82.992188 4.429688 83.113281 4.507812 83.167969 4.628906 Z M 83.167969 4.628906 " clip-rule="nonzero"/></clipPath><clipPath id="86a58700f2"><path d="M 0.632812 0.3125 L 49.078125 0.3125 L 49.078125 46.457031 L 0.632812 46.457031 Z M 0.632812 0.3125 " clip-rule="nonzero"/></clipPath><clipPath id="431cbfaa9d"><path d="M 25.167969 0.628906 L 31.773438 15.246094 C 31.964844 15.667969 32.367188 15.960938 32.828125 16.011719 L 48.707031 17.769531 C 48.839844 17.78125 48.949219 17.875 48.992188 18 C 49.03125 18.125 48.996094 18.265625 48.898438 18.355469 L 37.097656 29.105469 C 36.753906 29.417969 36.597656 29.886719 36.691406 30.34375 L 39.925781 46.011719 C 39.953125 46.140625 39.898438 46.277344 39.792969 46.355469 C 39.683594 46.433594 39.539062 46.441406 39.425781 46.375 L 25.511719 38.433594 C 25.109375 38.203125 24.613281 38.203125 24.207031 38.433594 L 10.296875 46.375 C 10.179688 46.441406 10.035156 46.433594 9.929688 46.355469 C 9.820312 46.277344 9.769531 46.140625 9.796875 46.011719 L 13.027344 30.34375 C 13.121094 29.886719 12.96875 29.417969 12.625 29.105469 L 0.824219 18.355469 C 0.722656 18.265625 0.6875 18.125 0.726562 18 C 0.769531 17.875 0.882812 17.78125 1.011719 17.769531 L 16.890625 16.011719 C 17.351562 15.960938 17.753906 15.667969 17.945312 15.246094 L 24.550781 0.628906 C 24.605469 0.507812 24.726562 0.429688 24.859375 0.429688 C 24.992188 0.429688 25.113281 0.507812 25.167969 0.628906 Z M 25.167969 0.628906 " clip-rule="nonzero"/></clipPath><clipPath id="41585f80b6"><rect x="0" width="50" y="0" height="47"/></clipPath><clipPath id="6517325d21"><path d="M 58.273438 4 L 107 4 L 107 50.808594 L 58.273438 50.808594 Z M 58.273438 4 " clip-rule="nonzero"/></clipPath><clipPath id="9447dcb225"><path d="M 83.164062 4.628906 L 89.769531 19.242188 C 89.960938 19.664062 90.359375 19.957031 90.824219 20.007812 L 106.695312 21.761719 C 106.828125 21.777344 106.9375 21.867188 106.980469 21.992188 C 107.019531 22.121094 106.984375 22.257812 106.886719 22.347656 L 95.089844 33.09375 C 94.746094 33.40625 94.589844 33.878906 94.683594 34.332031 L 97.917969 49.996094 C 97.941406 50.125 97.890625 50.261719 97.785156 50.339844 C 97.675781 50.417969 97.53125 50.425781 97.417969 50.359375 L 83.507812 42.421875 C 83.105469 42.191406 82.609375 42.191406 82.207031 42.421875 L 68.296875 50.359375 C 68.179688 50.425781 68.039062 50.417969 67.929688 50.339844 C 67.820312 50.261719 67.769531 50.125 67.796875 49.996094 L 71.027344 34.332031 C 71.121094 33.878906 70.96875 33.40625 70.625 33.09375 L 58.828125 22.347656 C 58.730469 22.257812 58.691406 22.121094 58.734375 21.992188 C 58.773438 21.867188 58.886719 21.777344 59.019531 21.761719 L 74.890625 20.007812 C 75.351562 19.957031 75.753906 19.664062 75.945312 19.242188 L 82.546875 4.628906 C 82.601562 4.507812 82.722656 4.429688 82.855469 4.429688 C 82.988281 4.429688 83.109375 4.507812 83.164062 4.628906 Z M 83.164062 4.628906 " clip-rule="nonzero"/></clipPath><clipPath id="ad521e8bb7"><path d="M 113.488281 4.3125 L 162 4.3125 L 162 50.457031 L 113.488281 50.457031 Z M 113.488281 4.3125 " clip-rule="nonzero"/></clipPath><clipPath id="4ea9fc583b"><path d="M 138.023438 4.628906 L 144.628906 19.246094 C 144.820312 19.667969 145.222656 19.960938 145.683594 20.011719 L 161.5625 21.769531 C 161.695312 21.78125 161.804688 21.875 161.847656 22 C 161.886719 22.125 161.851562 22.265625 161.753906 22.355469 L 149.949219 33.105469 C 149.605469 33.417969 149.453125 33.886719 149.546875 34.34375 L 152.777344 50.011719 C 152.804688 50.140625 152.753906 50.277344 152.644531 50.355469 C 152.539062 50.433594 152.394531 50.441406 152.28125 50.375 L 138.367188 42.433594 C 137.960938 42.203125 137.464844 42.203125 137.0625 42.433594 L 123.148438 50.375 C 123.035156 50.441406 122.890625 50.433594 122.78125 50.355469 C 122.675781 50.277344 122.621094 50.140625 122.648438 50.011719 L 125.882812 34.34375 C 125.976562 33.886719 125.824219 33.417969 125.480469 33.105469 L 113.675781 22.355469 C 113.578125 22.265625 113.542969 22.125 113.582031 22 C 113.625 21.875 113.734375 21.78125 113.867188 21.769531 L 129.746094 20.011719 C 130.207031 19.960938 130.609375 19.667969 130.800781 19.246094 L 137.40625 4.628906 C 137.460938 4.507812 137.582031 4.429688 137.714844 4.429688 C 137.847656 4.429688 137.96875 4.507812 138.023438 4.628906 Z M 138.023438 4.628906 " clip-rule="nonzero"/></clipPath><clipPath id="c1065319f3"><path d="M 0.488281 0.3125 L 49 0.3125 L 49 46.457031 L 0.488281 46.457031 Z M 0.488281 0.3125 " clip-rule="nonzero"/></clipPath><clipPath id="316cf523a8"><path d="M 25.023438 0.628906 L 31.628906 15.246094 C 31.820312 15.667969 32.222656 15.960938 32.683594 16.011719 L 48.5625 17.769531 C 48.695312 17.78125 48.804688 17.875 48.847656 18 C 48.886719 18.125 48.851562 18.265625 48.753906 18.355469 L 36.949219 29.105469 C 36.605469 29.417969 36.453125 29.886719 36.546875 30.34375 L 39.777344 46.011719 C 39.804688 46.140625 39.753906 46.277344 39.644531 46.355469 C 39.539062 46.433594 39.394531 46.441406 39.28125 46.375 L 25.367188 38.433594 C 24.960938 38.203125 24.464844 38.203125 24.0625 38.433594 L 10.148438 46.375 C 10.035156 46.441406 9.890625 46.433594 9.78125 46.355469 C 9.675781 46.277344 9.621094 46.140625 9.648438 46.011719 L 12.882812 30.34375 C 12.976562 29.886719 12.824219 29.417969 12.480469 29.105469 L 0.675781 18.355469 C 0.578125 18.265625 0.542969 18.125 0.582031 18 C 0.625 17.875 0.734375 17.78125 0.867188 17.769531 L 16.746094 16.011719 C 17.207031 15.960938 17.609375 15.667969 17.800781 15.246094 L 24.40625 0.628906 C 24.460938 0.507812 24.582031 0.429688 24.714844 0.429688 C 24.847656 0.429688 24.96875 0.507812 25.023438 0.628906 Z M 25.023438 0.628906 " clip-rule="nonzero"/></clipPath><clipPath id="1ad7ce4fdc"><rect x="0" width="49" y="0" height="47"/></clipPath><clipPath id="7c86e747df"><path d="M 113.125 4 L 161.859375 4 L 161.859375 50.808594 L 113.125 50.808594 Z M 113.125 4 " clip-rule="nonzero"/></clipPath><clipPath id="d7f7310f4d"><path d="M 138.019531 4.628906 L 144.625 19.242188 C 144.816406 19.664062 145.214844 19.957031 145.675781 20.007812 L 161.550781 21.761719 C 161.679688 21.777344 161.792969 21.867188 161.832031 21.992188 C 161.875 22.121094 161.839844 22.257812 161.738281 22.347656 L 149.941406 33.09375 C 149.597656 33.40625 149.445312 33.878906 149.539062 34.332031 L 152.769531 49.996094 C 152.796875 50.125 152.746094 50.261719 152.636719 50.339844 C 152.53125 50.417969 152.386719 50.425781 152.269531 50.359375 L 138.363281 42.421875 C 137.957031 42.191406 137.460938 42.191406 137.058594 42.421875 L 123.152344 50.359375 C 123.035156 50.425781 122.890625 50.417969 122.785156 50.339844 C 122.675781 50.261719 122.625 50.125 122.652344 49.996094 L 125.882812 34.332031 C 125.976562 33.878906 125.824219 33.40625 125.480469 33.09375 L 113.679688 22.347656 C 113.582031 22.257812 113.546875 22.121094 113.585938 21.992188 C 113.628906 21.867188 113.738281 21.777344 113.871094 21.761719 L 129.742188 20.007812 C 130.207031 19.957031 130.605469 19.664062 130.796875 19.242188 L 137.402344 4.628906 C 137.457031 4.507812 137.578125 4.429688 137.710938 4.429688 C 137.84375 4.429688 137.964844 4.507812 138.019531 4.628906 Z M 138.019531 4.628906 " clip-rule="nonzero"/></clipPath><clipPath id="147825a5a3"><path d="M 169.152344 4.3125 L 217.679688 4.3125 L 217.679688 50.457031 L 169.152344 50.457031 Z M 169.152344 4.3125 " clip-rule="nonzero"/></clipPath><clipPath id="c1dfad0d89"><path d="M 193.6875 4.628906 L 200.292969 19.246094 C 200.484375 19.667969 200.882812 19.960938 201.347656 20.011719 L 217.222656 21.769531 C 217.355469 21.78125 217.46875 21.875 217.507812 22 C 217.550781 22.125 217.511719 22.265625 217.414062 22.355469 L 205.613281 33.105469 C 205.269531 33.417969 205.117188 33.886719 205.210938 34.34375 L 208.441406 50.011719 C 208.46875 50.140625 208.417969 50.277344 208.308594 50.355469 C 208.203125 50.433594 208.058594 50.441406 207.941406 50.375 L 194.027344 42.433594 C 193.625 42.203125 193.128906 42.203125 192.726562 42.433594 L 178.8125 50.375 C 178.695312 50.441406 178.554688 50.433594 178.445312 50.355469 C 178.335938 50.277344 178.285156 50.140625 178.3125 50.011719 L 181.542969 34.34375 C 181.636719 33.886719 181.484375 33.417969 181.140625 33.105469 L 169.339844 22.355469 C 169.242188 22.265625 169.203125 22.125 169.246094 22 C 169.285156 21.875 169.398438 21.78125 169.53125 21.769531 L 185.40625 20.011719 C 185.871094 19.960938 186.269531 19.667969 186.460938 19.246094 L 193.070312 4.628906 C 193.125 4.507812 193.246094 4.429688 193.378906 4.429688 C 193.511719 4.429688 193.632812 4.507812 193.6875 4.628906 Z M 193.6875 4.628906 " clip-rule="nonzero"/></clipPath><clipPath id="cd2bfd4823"><path d="M 0.152344 0.3125 L 48.679688 0.3125 L 48.679688 46.457031 L 0.152344 46.457031 Z M 0.152344 0.3125 " clip-rule="nonzero"/></clipPath><clipPath id="1af08e6bbf"><path d="M 24.6875 0.628906 L 31.292969 15.246094 C 31.484375 15.667969 31.882812 15.960938 32.347656 16.011719 L 48.222656 17.769531 C 48.355469 17.78125 48.46875 17.875 48.507812 18 C 48.550781 18.125 48.511719 18.265625 48.414062 18.355469 L 36.613281 29.105469 C 36.269531 29.417969 36.117188 29.886719 36.210938 30.34375 L 39.441406 46.011719 C 39.46875 46.140625 39.417969 46.277344 39.308594 46.355469 C 39.203125 46.433594 39.058594 46.441406 38.941406 46.375 L 25.027344 38.433594 C 24.625 38.203125 24.128906 38.203125 23.726562 38.433594 L 9.8125 46.375 C 9.695312 46.441406 9.554688 46.433594 9.445312 46.355469 C 9.335938 46.277344 9.285156 46.140625 9.3125 46.011719 L 12.542969 30.34375 C 12.636719 29.886719 12.484375 29.417969 12.140625 29.105469 L 0.339844 18.355469 C 0.242188 18.265625 0.203125 18.125 0.246094 18 C 0.285156 17.875 0.398438 17.78125 0.53125 17.769531 L 16.40625 16.011719 C 16.871094 15.960938 17.269531 15.667969 17.460938 15.246094 L 24.070312 0.628906 C 24.125 0.507812 24.246094 0.429688 24.378906 0.429688 C 24.511719 0.429688 24.632812 0.507812 24.6875 0.628906 Z M 24.6875 0.628906 " clip-rule="nonzero"/></clipPath><clipPath id="14663b4729"><rect x="0" width="49" y="0" height="47"/></clipPath><clipPath id="56e2191e80"><path d="M 169 4 L 217.523438 4 L 217.523438 50.808594 L 169 50.808594 Z M 169 4 " clip-rule="nonzero"/></clipPath><clipPath id="c644ef0c81"><path d="M 193.683594 4.628906 L 200.285156 19.242188 C 200.476562 19.664062 200.878906 19.957031 201.339844 20.007812 L 217.210938 21.761719 C 217.34375 21.777344 217.457031 21.867188 217.496094 21.992188 C 217.539062 22.121094 217.5 22.257812 217.402344 22.347656 L 205.605469 33.09375 C 205.261719 33.40625 205.109375 33.878906 205.203125 34.332031 L 208.433594 49.996094 C 208.460938 50.125 208.40625 50.261719 208.300781 50.339844 C 208.191406 50.417969 208.050781 50.425781 207.933594 50.359375 L 194.023438 42.421875 C 193.621094 42.191406 193.125 42.191406 192.722656 42.421875 L 178.8125 50.359375 C 178.699219 50.425781 178.554688 50.417969 178.445312 50.339844 C 178.339844 50.261719 178.285156 50.125 178.3125 49.996094 L 181.542969 34.332031 C 181.640625 33.878906 181.484375 33.40625 181.140625 33.09375 L 169.34375 22.347656 C 169.246094 22.257812 169.207031 22.121094 169.25 21.992188 C 169.292969 21.867188 169.402344 21.777344 169.535156 21.761719 L 185.40625 20.007812 C 185.867188 19.957031 186.269531 19.664062 186.460938 19.242188 L 193.066406 4.628906 C 193.121094 4.507812 193.242188 4.429688 193.375 4.429688 C 193.507812 4.429688 193.628906 4.507812 193.683594 4.628906 Z M 193.683594 4.628906 " clip-rule="nonzero"/></clipPath><clipPath id="b4e242a0b6"><path d="M 225.820312 4.3125 L 274.347656 4.3125 L 274.347656 50.457031 L 225.820312 50.457031 Z M 225.820312 4.3125 " clip-rule="nonzero"/></clipPath><clipPath id="5ef6bdb758"><path d="M 250.355469 4.628906 L 256.960938 19.246094 C 257.152344 19.667969 257.550781 19.960938 258.015625 20.011719 L 273.890625 21.769531 C 274.023438 21.78125 274.136719 21.875 274.175781 22 C 274.21875 22.125 274.179688 22.265625 274.082031 22.355469 L 262.28125 33.105469 C 261.9375 33.417969 261.785156 33.886719 261.878906 34.34375 L 265.109375 50.011719 C 265.136719 50.140625 265.085938 50.277344 264.976562 50.355469 C 264.871094 50.433594 264.726562 50.441406 264.609375 50.375 L 250.695312 42.433594 C 250.292969 42.203125 249.796875 42.203125 249.394531 42.433594 L 235.480469 50.375 C 235.363281 50.441406 235.222656 50.433594 235.113281 50.355469 C 235.003906 50.277344 234.953125 50.140625 234.980469 50.011719 L 238.210938 34.34375 C 238.304688 33.886719 238.152344 33.417969 237.808594 33.105469 L 226.007812 22.355469 C 225.910156 22.265625 225.871094 22.125 225.914062 22 C 225.953125 21.875 226.066406 21.78125 226.199219 21.769531 L 242.074219 20.011719 C 242.539062 19.960938 242.9375 19.667969 243.128906 19.246094 L 249.738281 4.628906 C 249.792969 4.507812 249.914062 4.429688 250.046875 4.429688 C 250.179688 4.429688 250.300781 4.507812 250.355469 4.628906 Z M 250.355469 4.628906 " clip-rule="nonzero"/></clipPath><clipPath id="6941b49a01"><path d="M 0.820312 0.3125 L 49.347656 0.3125 L 49.347656 46.457031 L 0.820312 46.457031 Z M 0.820312 0.3125 " clip-rule="nonzero"/></clipPath><clipPath id="333a3c34e2"><path d="M 25.355469 0.628906 L 31.960938 15.246094 C 32.152344 15.667969 32.550781 15.960938 33.015625 16.011719 L 48.890625 17.769531 C 49.023438 17.78125 49.136719 17.875 49.175781 18 C 49.21875 18.125 49.179688 18.265625 49.082031 18.355469 L 37.28125 29.105469 C 36.9375 29.417969 36.785156 29.886719 36.878906 30.34375 L 40.109375 46.011719 C 40.136719 46.140625 40.085938 46.277344 39.976562 46.355469 C 39.871094 46.433594 39.726562 46.441406 39.609375 46.375 L 25.695312 38.433594 C 25.292969 38.203125 24.796875 38.203125 24.394531 38.433594 L 10.480469 46.375 C 10.363281 46.441406 10.222656 46.433594 10.113281 46.355469 C 10.003906 46.277344 9.953125 46.140625 9.980469 46.011719 L 13.210938 30.34375 C 13.304688 29.886719 13.152344 29.417969 12.808594 29.105469 L 1.007812 18.355469 C 0.910156 18.265625 0.871094 18.125 0.914062 18 C 0.953125 17.875 1.066406 17.78125 1.199219 17.769531 L 17.074219 16.011719 C 17.539062 15.960938 17.9375 15.667969 18.128906 15.246094 L 24.738281 0.628906 C 24.792969 0.507812 24.914062 0.429688 25.046875 0.429688 C 25.179688 0.429688 25.300781 0.507812 25.355469 0.628906 Z M 25.355469 0.628906 " clip-rule="nonzero"/></clipPath><clipPath id="b378c21787"><rect x="0" width="50" y="0" height="47"/></clipPath><clipPath id="965f8f37a1"><path d="M 225.457031 4 L 274.191406 4 L 274.191406 50.808594 L 225.457031 50.808594 Z M 225.457031 4 " clip-rule="nonzero"/></clipPath><clipPath id="409f52145b"><path d="M 250.351562 4.628906 L 256.953125 19.242188 C 257.144531 19.664062 257.546875 19.957031 258.007812 20.007812 L 273.878906 21.761719 C 274.011719 21.777344 274.125 21.867188 274.164062 21.992188 C 274.207031 22.121094 274.167969 22.257812 274.070312 22.347656 L 262.273438 33.09375 C 261.929688 33.40625 261.777344 33.878906 261.871094 34.332031 L 265.101562 49.996094 C 265.128906 50.125 265.074219 50.261719 264.96875 50.339844 C 264.859375 50.417969 264.71875 50.425781 264.601562 50.359375 L 250.691406 42.421875 C 250.289062 42.191406 249.792969 42.191406 249.390625 42.421875 L 235.480469 50.359375 C 235.367188 50.425781 235.222656 50.417969 235.113281 50.339844 C 235.007812 50.261719 234.953125 50.125 234.980469 49.996094 L 238.210938 34.332031 C 238.304688 33.878906 238.152344 33.40625 237.808594 33.09375 L 226.011719 22.347656 C 225.914062 22.257812 225.875 22.121094 225.917969 21.992188 C 225.960938 21.867188 226.070312 21.777344 226.203125 21.761719 L 242.074219 20.007812 C 242.535156 19.957031 242.9375 19.664062 243.128906 19.242188 L 249.734375 4.628906 C 249.789062 4.507812 249.910156 4.429688 250.042969 4.429688 C 250.175781 4.429688 250.296875 4.507812 250.351562 4.628906 Z M 250.351562 4.628906 " clip-rule="nonzero"/></clipPath><clipPath id="22aad23823"><path d="M 3.730469 63.542969 L 52.253906 63.542969 L 52.253906 109.6875 L 3.730469 109.6875 Z M 3.730469 63.542969 " clip-rule="nonzero"/></clipPath><clipPath id="c6ad252ffb"><path d="M 28.261719 63.859375 L 34.871094 78.476562 C 35.0625 78.902344 35.460938 79.191406 35.925781 79.242188 L 51.800781 81 C 51.933594 81.015625 52.046875 81.105469 52.085938 81.234375 C 52.128906 81.359375 52.089844 81.5 51.992188 81.585938 L 40.191406 92.335938 C 39.847656 92.648438 39.695312 93.121094 39.789062 93.574219 L 43.019531 109.242188 C 43.046875 109.375 42.996094 109.507812 42.886719 109.585938 C 42.777344 109.664062 42.636719 109.671875 42.519531 109.605469 L 28.605469 101.667969 C 28.203125 101.4375 27.707031 101.4375 27.304688 101.667969 L 13.390625 109.605469 C 13.273438 109.671875 13.128906 109.664062 13.023438 109.585938 C 12.914062 109.507812 12.863281 109.375 12.890625 109.242188 L 16.121094 93.574219 C 16.214844 93.121094 16.0625 92.648438 15.71875 92.335938 L 3.917969 81.585938 C 3.820312 81.5 3.78125 81.359375 3.824219 81.234375 C 3.863281 81.105469 3.976562 81.015625 4.109375 81 L 19.984375 79.242188 C 20.449219 79.191406 20.847656 78.902344 21.039062 78.476562 L 27.644531 63.859375 C 27.699219 63.738281 27.820312 63.660156 27.953125 63.660156 C 28.085938 63.660156 28.207031 63.738281 28.261719 63.859375 Z M 28.261719 63.859375 " clip-rule="nonzero"/></clipPath><clipPath id="2c305e7658"><path d="M 0.730469 0.542969 L 49.253906 0.542969 L 49.253906 46.6875 L 0.730469 46.6875 Z M 0.730469 0.542969 " clip-rule="nonzero"/></clipPath><clipPath id="02efd803ef"><path d="M 25.261719 0.859375 L 31.871094 15.476562 C 32.0625 15.902344 32.460938 16.191406 32.925781 16.242188 L 48.800781 18 C 48.933594 18.015625 49.046875 18.105469 49.085938 18.234375 C 49.128906 18.359375 49.089844 18.5 48.992188 18.585938 L 37.191406 29.335938 C 36.847656 29.648438 36.695312 30.121094 36.789062 30.574219 L 40.019531 46.242188 C 40.046875 46.375 39.996094 46.507812 39.886719 46.585938 C 39.777344 46.664062 39.636719 46.671875 39.519531 46.605469 L 25.605469 38.667969 C 25.203125 38.4375 24.707031 38.4375 24.304688 38.667969 L 10.390625 46.605469 C 10.273438 46.671875 10.128906 46.664062 10.023438 46.585938 C 9.914062 46.507812 9.863281 46.375 9.890625 46.242188 L 13.121094 30.574219 C 13.214844 30.121094 13.0625 29.648438 12.71875 29.335938 L 0.917969 18.585938 C 0.820312 18.5 0.78125 18.359375 0.824219 18.234375 C 0.863281 18.105469 0.976562 18.015625 1.109375 18 L 16.984375 16.242188 C 17.449219 16.191406 17.847656 15.902344 18.039062 15.476562 L 24.644531 0.859375 C 24.699219 0.738281 24.820312 0.660156 24.953125 0.660156 C 25.085938 0.660156 25.207031 0.738281 25.261719 0.859375 Z M 25.261719 0.859375 " clip-rule="nonzero"/></clipPath><clipPath id="71ce8b9753"><rect x="0" width="50" y="0" height="47"/></clipPath><clipPath id="f3ce02cd9e"><path d="M 3.367188 63.175781 L 52.101562 63.175781 L 52.101562 110 L 3.367188 110 Z M 3.367188 63.175781 " clip-rule="nonzero"/></clipPath><clipPath id="1c3aaae57c"><path d="M 28.257812 63.859375 L 34.863281 78.472656 C 35.054688 78.894531 35.457031 79.1875 35.917969 79.238281 L 51.789062 80.996094 C 51.921875 81.007812 52.03125 81.101562 52.074219 81.226562 C 52.117188 81.351562 52.078125 81.492188 51.980469 81.582031 L 40.183594 92.324219 C 39.839844 92.640625 39.6875 93.109375 39.78125 93.566406 L 43.011719 109.226562 C 43.039062 109.359375 42.984375 109.492188 42.878906 109.570312 C 42.769531 109.648438 42.625 109.65625 42.511719 109.589844 L 28.601562 101.652344 C 28.199219 101.421875 27.703125 101.421875 27.300781 101.652344 L 13.390625 109.589844 C 13.273438 109.65625 13.132812 109.648438 13.023438 109.570312 C 12.917969 109.492188 12.863281 109.359375 12.890625 109.226562 L 16.121094 93.566406 C 16.214844 93.109375 16.0625 92.640625 15.71875 92.324219 L 3.921875 81.582031 C 3.824219 81.492188 3.785156 81.351562 3.828125 81.226562 C 3.867188 81.101562 3.980469 81.007812 4.113281 80.996094 L 19.984375 79.238281 C 20.445312 79.1875 20.847656 78.894531 21.039062 78.472656 L 27.640625 63.859375 C 27.695312 63.738281 27.816406 63.660156 27.949219 63.660156 C 28.082031 63.660156 28.203125 63.738281 28.257812 63.859375 Z M 28.257812 63.859375 " clip-rule="nonzero"/></clipPath><clipPath id="4ca4348991"><path d="M 58.632812 63.542969 L 107.160156 63.542969 L 107.160156 109.6875 L 58.632812 109.6875 Z M 58.632812 63.542969 " clip-rule="nonzero"/></clipPath><clipPath id="117763d602"><path d="M 83.167969 63.859375 L 89.773438 78.476562 C 89.964844 78.902344 90.367188 79.191406 90.828125 79.242188 L 106.707031 81 C 106.839844 81.015625 106.949219 81.105469 106.992188 81.234375 C 107.03125 81.359375 106.996094 81.5 106.898438 81.585938 L 95.097656 92.335938 C 94.753906 92.648438 94.597656 93.121094 94.691406 93.574219 L 97.925781 109.242188 C 97.953125 109.375 97.898438 109.507812 97.792969 109.585938 C 97.683594 109.664062 97.539062 109.671875 97.425781 109.605469 L 83.511719 101.667969 C 83.109375 101.4375 82.613281 101.4375 82.207031 101.667969 L 68.296875 109.605469 C 68.179688 109.671875 68.035156 109.664062 67.929688 109.585938 C 67.820312 109.507812 67.769531 109.375 67.796875 109.242188 L 71.027344 93.574219 C 71.121094 93.121094 70.96875 92.648438 70.625 92.335938 L 58.824219 81.585938 C 58.722656 81.5 58.6875 81.359375 58.726562 81.234375 C 58.769531 81.105469 58.882812 81.015625 59.011719 81 L 74.890625 79.242188 C 75.351562 79.191406 75.753906 78.902344 75.945312 78.476562 L 82.550781 63.859375 C 82.605469 63.738281 82.726562 63.660156 82.859375 63.660156 C 82.992188 63.660156 83.113281 63.738281 83.167969 63.859375 Z M 83.167969 63.859375 " clip-rule="nonzero"/></clipPath><clipPath id="c2dc489631"><path d="M 0.632812 0.542969 L 49.078125 0.542969 L 49.078125 46.6875 L 0.632812 46.6875 Z M 0.632812 0.542969 " clip-rule="nonzero"/></clipPath><clipPath id="671628ddb1"><path d="M 25.167969 0.859375 L 31.773438 15.476562 C 31.964844 15.902344 32.367188 16.191406 32.828125 16.242188 L 48.707031 18 C 48.839844 18.015625 48.949219 18.105469 48.992188 18.234375 C 49.03125 18.359375 48.996094 18.5 48.898438 18.585938 L 37.097656 29.335938 C 36.753906 29.648438 36.597656 30.121094 36.691406 30.574219 L 39.925781 46.242188 C 39.953125 46.375 39.898438 46.507812 39.792969 46.585938 C 39.683594 46.664062 39.539062 46.671875 39.425781 46.605469 L 25.511719 38.667969 C 25.109375 38.4375 24.613281 38.4375 24.207031 38.667969 L 10.296875 46.605469 C 10.179688 46.671875 10.035156 46.664062 9.929688 46.585938 C 9.820312 46.507812 9.769531 46.375 9.796875 46.242188 L 13.027344 30.574219 C 13.121094 30.121094 12.96875 29.648438 12.625 29.335938 L 0.824219 18.585938 C 0.722656 18.5 0.6875 18.359375 0.726562 18.234375 C 0.769531 18.105469 0.882812 18.015625 1.011719 18 L 16.890625 16.242188 C 17.351562 16.191406 17.753906 15.902344 17.945312 15.476562 L 24.550781 0.859375 C 24.605469 0.738281 24.726562 0.660156 24.859375 0.660156 C 24.992188 0.660156 25.113281 0.738281 25.167969 0.859375 Z M 25.167969 0.859375 " clip-rule="nonzero"/></clipPath><clipPath id="c078de73ae"><rect x="0" width="50" y="0" height="47"/></clipPath><clipPath id="097e64b7d6"><path d="M 58.273438 63.175781 L 107 63.175781 L 107 110 L 58.273438 110 Z M 58.273438 63.175781 " clip-rule="nonzero"/></clipPath><clipPath id="1762659b4d"><path d="M 83.164062 63.859375 L 89.769531 78.472656 C 89.960938 78.894531 90.359375 79.1875 90.824219 79.238281 L 106.695312 80.996094 C 106.828125 81.007812 106.9375 81.101562 106.980469 81.226562 C 107.019531 81.351562 106.984375 81.492188 106.886719 81.582031 L 95.089844 92.324219 C 94.746094 92.640625 94.589844 93.109375 94.683594 93.566406 L 97.917969 109.226562 C 97.941406 109.359375 97.890625 109.492188 97.785156 109.570312 C 97.675781 109.648438 97.53125 109.65625 97.417969 109.589844 L 83.507812 101.652344 C 83.105469 101.421875 82.609375 101.421875 82.207031 101.652344 L 68.296875 109.589844 C 68.179688 109.65625 68.039062 109.648438 67.929688 109.570312 C 67.820312 109.492188 67.769531 109.359375 67.796875 109.226562 L 71.027344 93.566406 C 71.121094 93.109375 70.96875 92.640625 70.625 92.324219 L 58.828125 81.582031 C 58.730469 81.492188 58.691406 81.351562 58.734375 81.226562 C 58.773438 81.101562 58.886719 81.007812 59.019531 80.996094 L 74.890625 79.238281 C 75.351562 79.1875 75.753906 78.894531 75.945312 78.472656 L 82.546875 63.859375 C 82.601562 63.738281 82.722656 63.660156 82.855469 63.660156 C 82.988281 63.660156 83.109375 63.738281 83.164062 63.859375 Z M 83.164062 63.859375 " clip-rule="nonzero"/></clipPath><clipPath id="e7692f120d"><path d="M 113.488281 63.542969 L 162 63.542969 L 162 109.6875 L 113.488281 109.6875 Z M 113.488281 63.542969 " clip-rule="nonzero"/></clipPath><clipPath id="534e0b063e"><path d="M 138.023438 63.859375 L 144.628906 78.476562 C 144.820312 78.902344 145.222656 79.191406 145.683594 79.242188 L 161.5625 81 C 161.695312 81.015625 161.804688 81.105469 161.847656 81.234375 C 161.886719 81.359375 161.851562 81.5 161.753906 81.585938 L 149.949219 92.335938 C 149.605469 92.648438 149.453125 93.121094 149.546875 93.574219 L 152.777344 109.242188 C 152.804688 109.375 152.753906 109.507812 152.644531 109.585938 C 152.539062 109.664062 152.394531 109.671875 152.28125 109.605469 L 138.367188 101.667969 C 137.960938 101.4375 137.464844 101.4375 137.0625 101.667969 L 123.148438 109.605469 C 123.035156 109.671875 122.890625 109.664062 122.78125 109.585938 C 122.675781 109.507812 122.621094 109.375 122.648438 109.242188 L 125.882812 93.574219 C 125.976562 93.121094 125.824219 92.648438 125.480469 92.335938 L 113.675781 81.585938 C 113.578125 81.5 113.542969 81.359375 113.582031 81.234375 C 113.625 81.105469 113.734375 81.015625 113.867188 81 L 129.746094 79.242188 C 130.207031 79.191406 130.609375 78.902344 130.800781 78.476562 L 137.40625 63.859375 C 137.460938 63.738281 137.582031 63.660156 137.714844 63.660156 C 137.847656 63.660156 137.96875 63.738281 138.023438 63.859375 Z M 138.023438 63.859375 " clip-rule="nonzero"/></clipPath><clipPath id="87b0e8a453"><path d="M 0.488281 0.542969 L 49 0.542969 L 49 46.6875 L 0.488281 46.6875 Z M 0.488281 0.542969 " clip-rule="nonzero"/></clipPath><clipPath id="331fe7f913"><path d="M 25.023438 0.859375 L 31.628906 15.476562 C 31.820312 15.902344 32.222656 16.191406 32.683594 16.242188 L 48.5625 18 C 48.695312 18.015625 48.804688 18.105469 48.847656 18.234375 C 48.886719 18.359375 48.851562 18.5 48.753906 18.585938 L 36.949219 29.335938 C 36.605469 29.648438 36.453125 30.121094 36.546875 30.574219 L 39.777344 46.242188 C 39.804688 46.375 39.753906 46.507812 39.644531 46.585938 C 39.539062 46.664062 39.394531 46.671875 39.28125 46.605469 L 25.367188 38.667969 C 24.960938 38.4375 24.464844 38.4375 24.0625 38.667969 L 10.148438 46.605469 C 10.035156 46.671875 9.890625 46.664062 9.78125 46.585938 C 9.675781 46.507812 9.621094 46.375 9.648438 46.242188 L 12.882812 30.574219 C 12.976562 30.121094 12.824219 29.648438 12.480469 29.335938 L 0.675781 18.585938 C 0.578125 18.5 0.542969 18.359375 0.582031 18.234375 C 0.625 18.105469 0.734375 18.015625 0.867188 18 L 16.746094 16.242188 C 17.207031 16.191406 17.609375 15.902344 17.800781 15.476562 L 24.40625 0.859375 C 24.460938 0.738281 24.582031 0.660156 24.714844 0.660156 C 24.847656 0.660156 24.96875 0.738281 25.023438 0.859375 Z M 25.023438 0.859375 " clip-rule="nonzero"/></clipPath><clipPath id="dfd6c445dd"><rect x="0" width="49" y="0" height="47"/></clipPath><clipPath id="0bca25d262"><path d="M 113.125 63.175781 L 161.859375 63.175781 L 161.859375 110 L 113.125 110 Z M 113.125 63.175781 " clip-rule="nonzero"/></clipPath><clipPath id="33971c2c6c"><path d="M 138.019531 63.859375 L 144.625 78.472656 C 144.816406 78.894531 145.214844 79.1875 145.675781 79.238281 L 161.550781 80.996094 C 161.679688 81.007812 161.792969 81.101562 161.832031 81.226562 C 161.875 81.351562 161.839844 81.492188 161.738281 81.582031 L 149.941406 92.324219 C 149.597656 92.640625 149.445312 93.109375 149.539062 93.566406 L 152.769531 109.226562 C 152.796875 109.359375 152.746094 109.492188 152.636719 109.570312 C 152.53125 109.648438 152.386719 109.65625 152.269531 109.589844 L 138.363281 101.652344 C 137.957031 101.421875 137.460938 101.421875 137.058594 101.652344 L 123.152344 109.589844 C 123.035156 109.65625 122.890625 109.648438 122.785156 109.570312 C 122.675781 109.492188 122.625 109.359375 122.652344 109.226562 L 125.882812 93.566406 C 125.976562 93.109375 125.824219 92.640625 125.480469 92.324219 L 113.679688 81.582031 C 113.582031 81.492188 113.546875 81.351562 113.585938 81.226562 C 113.628906 81.101562 113.738281 81.007812 113.871094 80.996094 L 129.742188 79.238281 C 130.207031 79.1875 130.605469 78.894531 130.796875 78.472656 L 137.402344 63.859375 C 137.457031 63.738281 137.578125 63.660156 137.710938 63.660156 C 137.84375 63.660156 137.964844 63.738281 138.019531 63.859375 Z M 138.019531 63.859375 " clip-rule="nonzero"/></clipPath><clipPath id="9e3273c33a"><path d="M 169.152344 63.542969 L 217.679688 63.542969 L 217.679688 109.6875 L 169.152344 109.6875 Z M 169.152344 63.542969 " clip-rule="nonzero"/></clipPath><clipPath id="efc0b1f8b2"><path d="M 193.6875 63.859375 L 200.292969 78.476562 C 200.484375 78.902344 200.882812 79.191406 201.347656 79.242188 L 217.222656 81 C 217.355469 81.015625 217.46875 81.105469 217.507812 81.234375 C 217.550781 81.359375 217.511719 81.5 217.414062 81.585938 L 205.613281 92.335938 C 205.269531 92.648438 205.117188 93.121094 205.210938 93.574219 L 208.441406 109.242188 C 208.46875 109.375 208.417969 109.507812 208.308594 109.585938 C 208.203125 109.664062 208.058594 109.671875 207.941406 109.605469 L 194.027344 101.667969 C 193.625 101.4375 193.128906 101.4375 192.726562 101.667969 L 178.8125 109.605469 C 178.695312 109.671875 178.554688 109.664062 178.445312 109.585938 C 178.335938 109.507812 178.285156 109.375 178.3125 109.242188 L 181.542969 93.574219 C 181.636719 93.121094 181.484375 92.648438 181.140625 92.335938 L 169.339844 81.585938 C 169.242188 81.5 169.203125 81.359375 169.246094 81.234375 C 169.285156 81.105469 169.398438 81.015625 169.53125 81 L 185.40625 79.242188 C 185.871094 79.191406 186.269531 78.902344 186.460938 78.476562 L 193.070312 63.859375 C 193.125 63.738281 193.246094 63.660156 193.378906 63.660156 C 193.511719 63.660156 193.632812 63.738281 193.6875 63.859375 Z M 193.6875 63.859375 " clip-rule="nonzero"/></clipPath><clipPath id="9d2df3dce6"><path d="M 0.152344 0.542969 L 48.679688 0.542969 L 48.679688 46.6875 L 0.152344 46.6875 Z M 0.152344 0.542969 " clip-rule="nonzero"/></clipPath><clipPath id="2944a83555"><path d="M 24.6875 0.859375 L 31.292969 15.476562 C 31.484375 15.902344 31.882812 16.191406 32.347656 16.242188 L 48.222656 18 C 48.355469 18.015625 48.46875 18.105469 48.507812 18.234375 C 48.550781 18.359375 48.511719 18.5 48.414062 18.585938 L 36.613281 29.335938 C 36.269531 29.648438 36.117188 30.121094 36.210938 30.574219 L 39.441406 46.242188 C 39.46875 46.375 39.417969 46.507812 39.308594 46.585938 C 39.203125 46.664062 39.058594 46.671875 38.941406 46.605469 L 25.027344 38.667969 C 24.625 38.4375 24.128906 38.4375 23.726562 38.667969 L 9.8125 46.605469 C 9.695312 46.671875 9.554688 46.664062 9.445312 46.585938 C 9.335938 46.507812 9.285156 46.375 9.3125 46.242188 L 12.542969 30.574219 C 12.636719 30.121094 12.484375 29.648438 12.140625 29.335938 L 0.339844 18.585938 C 0.242188 18.5 0.203125 18.359375 0.246094 18.234375 C 0.285156 18.105469 0.398438 18.015625 0.53125 18 L 16.40625 16.242188 C 16.871094 16.191406 17.269531 15.902344 17.460938 15.476562 L 24.070312 0.859375 C 24.125 0.738281 24.246094 0.660156 24.378906 0.660156 C 24.511719 0.660156 24.632812 0.738281 24.6875 0.859375 Z M 24.6875 0.859375 " clip-rule="nonzero"/></clipPath><clipPath id="a3174373d5"><rect x="0" width="49" y="0" height="47"/></clipPath><clipPath id="7ae41089a5"><path d="M 169 63.175781 L 217.523438 63.175781 L 217.523438 110 L 169 110 Z M 169 63.175781 " clip-rule="nonzero"/></clipPath><clipPath id="61a1bbc1b4"><path d="M 193.683594 63.859375 L 200.285156 78.472656 C 200.476562 78.894531 200.878906 79.1875 201.339844 79.238281 L 217.210938 80.996094 C 217.34375 81.007812 217.457031 81.101562 217.496094 81.226562 C 217.539062 81.351562 217.5 81.492188 217.402344 81.582031 L 205.605469 92.324219 C 205.261719 92.640625 205.109375 93.109375 205.203125 93.566406 L 208.433594 109.226562 C 208.460938 109.359375 208.40625 109.492188 208.300781 109.570312 C 208.191406 109.648438 208.050781 109.65625 207.933594 109.589844 L 194.023438 101.652344 C 193.621094 101.421875 193.125 101.421875 192.722656 101.652344 L 178.8125 109.589844 C 178.699219 109.65625 178.554688 109.648438 178.445312 109.570312 C 178.339844 109.492188 178.285156 109.359375 178.3125 109.226562 L 181.542969 93.566406 C 181.640625 93.109375 181.484375 92.640625 181.140625 92.324219 L 169.34375 81.582031 C 169.246094 81.492188 169.207031 81.351562 169.25 81.226562 C 169.292969 81.101562 169.402344 81.007812 169.535156 80.996094 L 185.40625 79.238281 C 185.867188 79.1875 186.269531 78.894531 186.460938 78.472656 L 193.066406 63.859375 C 193.121094 63.738281 193.242188 63.660156 193.375 63.660156 C 193.507812 63.660156 193.628906 63.738281 193.683594 63.859375 Z M 193.683594 63.859375 " clip-rule="nonzero"/></clipPath><clipPath id="8f94aede12"><path d="M 225.820312 63.542969 L 274.347656 63.542969 L 274.347656 109.6875 L 225.820312 109.6875 Z M 225.820312 63.542969 " clip-rule="nonzero"/></clipPath><clipPath id="6d2a27763d"><path d="M 250.355469 63.859375 L 256.960938 78.476562 C 257.152344 78.902344 257.550781 79.191406 258.015625 79.242188 L 273.890625 81 C 274.023438 81.015625 274.136719 81.105469 274.175781 81.234375 C 274.21875 81.359375 274.179688 81.5 274.082031 81.585938 L 262.28125 92.335938 C 261.9375 92.648438 261.785156 93.121094 261.878906 93.574219 L 265.109375 109.242188 C 265.136719 109.375 265.085938 109.507812 264.976562 109.585938 C 264.871094 109.664062 264.726562 109.671875 264.609375 109.605469 L 250.695312 101.667969 C 250.292969 101.4375 249.796875 101.4375 249.394531 101.667969 L 235.480469 109.605469 C 235.363281 109.671875 235.222656 109.664062 235.113281 109.585938 C 235.003906 109.507812 234.953125 109.375 234.980469 109.242188 L 238.210938 93.574219 C 238.304688 93.121094 238.152344 92.648438 237.808594 92.335938 L 226.007812 81.585938 C 225.910156 81.5 225.871094 81.359375 225.914062 81.234375 C 225.953125 81.105469 226.066406 81.015625 226.199219 81 L 242.074219 79.242188 C 242.539062 79.191406 242.9375 78.902344 243.128906 78.476562 L 249.738281 63.859375 C 249.792969 63.738281 249.914062 63.660156 250.046875 63.660156 C 250.179688 63.660156 250.300781 63.738281 250.355469 63.859375 Z M 250.355469 63.859375 " clip-rule="nonzero"/></clipPath><clipPath id="f577a1b867"><path d="M 0.820312 0.542969 L 49.347656 0.542969 L 49.347656 46.6875 L 0.820312 46.6875 Z M 0.820312 0.542969 " clip-rule="nonzero"/></clipPath><clipPath id="78c1a761a4"><path d="M 25.355469 0.859375 L 31.960938 15.476562 C 32.152344 15.902344 32.550781 16.191406 33.015625 16.242188 L 48.890625 18 C 49.023438 18.015625 49.136719 18.105469 49.175781 18.234375 C 49.21875 18.359375 49.179688 18.5 49.082031 18.585938 L 37.28125 29.335938 C 36.9375 29.648438 36.785156 30.121094 36.878906 30.574219 L 40.109375 46.242188 C 40.136719 46.375 40.085938 46.507812 39.976562 46.585938 C 39.871094 46.664062 39.726562 46.671875 39.609375 46.605469 L 25.695312 38.667969 C 25.292969 38.4375 24.796875 38.4375 24.394531 38.667969 L 10.480469 46.605469 C 10.363281 46.671875 10.222656 46.664062 10.113281 46.585938 C 10.003906 46.507812 9.953125 46.375 9.980469 46.242188 L 13.210938 30.574219 C 13.304688 30.121094 13.152344 29.648438 12.808594 29.335938 L 1.007812 18.585938 C 0.910156 18.5 0.871094 18.359375 0.914062 18.234375 C 0.953125 18.105469 1.066406 18.015625 1.199219 18 L 17.074219 16.242188 C 17.539062 16.191406 17.9375 15.902344 18.128906 15.476562 L 24.738281 0.859375 C 24.792969 0.738281 24.914062 0.660156 25.046875 0.660156 C 25.179688 0.660156 25.300781 0.738281 25.355469 0.859375 Z M 25.355469 0.859375 " clip-rule="nonzero"/></clipPath><clipPath id="7d37f8663a"><rect x="0" width="50" y="0" height="47"/></clipPath><clipPath id="a69c035ae2"><path d="M 225.457031 63.175781 L 274.191406 63.175781 L 274.191406 110 L 225.457031 110 Z M 225.457031 63.175781 " clip-rule="nonzero"/></clipPath><clipPath id="b20b362ffc"><path d="M 250.351562 63.859375 L 256.953125 78.472656 C 257.144531 78.894531 257.546875 79.1875 258.007812 79.238281 L 273.878906 80.996094 C 274.011719 81.007812 274.125 81.101562 274.164062 81.226562 C 274.207031 81.351562 274.167969 81.492188 274.070312 81.582031 L 262.273438 92.324219 C 261.929688 92.640625 261.777344 93.109375 261.871094 93.566406 L 265.101562 109.226562 C 265.128906 109.359375 265.074219 109.492188 264.96875 109.570312 C 264.859375 109.648438 264.71875 109.65625 264.601562 109.589844 L 250.691406 101.652344 C 250.289062 101.421875 249.792969 101.421875 249.390625 101.652344 L 235.480469 109.589844 C 235.367188 109.65625 235.222656 109.648438 235.113281 109.570312 C 235.007812 109.492188 234.953125 109.359375 234.980469 109.226562 L 238.210938 93.566406 C 238.304688 93.109375 238.152344 92.640625 237.808594 92.324219 L 226.011719 81.582031 C 225.914062 81.492188 225.875 81.351562 225.917969 81.226562 C 225.960938 81.101562 226.070312 81.007812 226.203125 80.996094 L 242.074219 79.238281 C 242.535156 79.1875 242.9375 78.894531 243.128906 78.472656 L 249.734375 63.859375 C 249.789062 63.738281 249.910156 63.660156 250.042969 63.660156 C 250.175781 63.660156 250.296875 63.738281 250.351562 63.859375 Z M 250.351562 63.859375 " clip-rule="nonzero"/></clipPath><clipPath id="e74e57a633"><rect x="0" width="278" y="0" height="114"/></clipPath></defs><g clip-path="url(#3921a58eb1)"><g clip-path="url(#06140bc890)"><g transform="matrix(1, 0, 0, 1, 2, 2)"><g clip-path="url(#18c3e87466)"><g clip-path="url(#a4e47a0df6)"><g clip-path="url(#1bcebc397e)"><path fill="#104762" d="M 0.664062 0.664062 L 295.335938 0.664062 L 295.335938 295.335938 L 0.664062 295.335938 Z M 0.664062 0.664062 " fill-opacity="1" fill-rule="nonzero"/></g></g></g></g></g></g><g clip-path="url(#a53de51e2a)"><g clip-path="url(#a1d18f3bda)"><path stroke-linecap="butt" transform="matrix(0.75, 0, 0, 0.75, 2.662506, 2.6625)" fill="none" stroke-linejoin="miter" d="M 14.002077 0.00208362 L 378.892732 0.00208362 C 382.606274 0.00208362 386.163565 1.476042 388.788566 4.101042 C 391.413566 6.726043 392.892733 10.288543 392.892733 14.002085 L 392.892733 378.89274 C 392.892733 382.606282 391.413566 386.163573 388.788566 388.788574 C 386.163565 391.413574 382.606274 392.892741 378.892732 392.892741 L 14.002077 392.892741 C 10.288535 392.892741 6.726035 391.413574 4.101034 388.788574 C 1.476034 386.163573 0.00207562 382.606282 0.00207562 378.89274 L 0.00207562 14.002085 C 0.00207562 10.288543 1.476034 6.726043 4.101034 4.101042 C 6.726035 1.476042 10.288535 0.00208362 14.002077 0.00208362 Z M 14.002077 0.00208362 " stroke="#000000" stroke-width="6" stroke-opacity="1" stroke-miterlimit="4"/></g></g><g transform="matrix(1, 0, 0, 1, 11, 93)"><g clip-path="url(#e74e57a633)"><g clip-path="url(#fbf3a173c2)"><g clip-path="url(#a703334790)"><g transform="matrix(1, 0, 0, 1, 3, 4)"><g clip-path="url(#c3a3131a5f)"><g clip-path="url(#ecc64b5639)"><g clip-path="url(#2f44f6b9f8)"><path fill="#ffde59" d="M 0.363281 -0.0546875 L 49.621094 -0.0546875 L 49.621094 46.824219 L 0.363281 46.824219 Z M 0.363281 -0.0546875 " fill-opacity="1" fill-rule="nonzero"/></g></g></g></g></g></g><g clip-path="url(#408034bf56)"><g clip-path="url(#ea964702f1)"><path stroke-linecap="butt" transform="matrix(1.874507, 0, 0, 1.874507, 3.367066, 3.944406)" fill="none" stroke-linejoin="miter" d="M 13.27856 0.365163 L 16.802404 8.160965 C 16.904514 8.386024 17.119154 8.542315 17.365052 8.569406 L 25.831864 9.505068 C 25.902716 9.513404 25.961064 9.561333 25.983987 9.628017 C 26.00691 9.696786 25.986071 9.769721 25.933974 9.817651 L 19.640651 15.55041 C 19.457269 15.71712 19.375998 15.96927 19.426011 16.211 L 21.149381 24.567366 C 21.163968 24.636134 21.134794 24.70907 21.078529 24.750748 C 21.020181 24.792425 20.943077 24.796593 20.882644 24.761167 L 13.461941 20.526719 C 13.247301 20.40377 12.982648 20.40377 12.768009 20.526719 L 5.347306 24.761167 C 5.284789 24.796593 5.209769 24.792425 5.151421 24.750748 C 5.095156 24.70907 5.065982 24.636134 5.080569 24.567366 L 6.803939 16.211 C 6.853952 15.96927 6.772681 15.71712 6.589299 15.55041 L 0.295976 9.817651 C 0.243879 9.769721 0.22304 9.696786 0.245963 9.628017 C 0.266802 9.561333 0.327234 9.513404 0.398086 9.505068 L 8.864898 8.569406 C 9.110796 8.542315 9.325436 8.386024 9.427546 8.160965 L 12.949306 0.365163 C 12.978481 0.300562 13.043081 0.258885 13.113933 0.258885 C 13.184785 0.258885 13.249385 0.300562 13.27856 0.365163 Z M 13.27856 0.365163 " stroke="#000000" stroke-width="0.800211" stroke-opacity="1" stroke-miterlimit="4"/></g></g><g clip-path="url(#014bbf8a6d)"><g clip-path="url(#10e714dc37)"><g transform="matrix(1, 0, 0, 1, 58, 4)"><g clip-path="url(#41585f80b6)"><g clip-path="url(#86a58700f2)"><g clip-path="url(#431cbfaa9d)"><path fill="#ffde59" d="M 0.269531 -0.0546875 L 49.527344 -0.0546875 L 49.527344 46.824219 L 0.269531 46.824219 Z M 0.269531 -0.0546875 " fill-opacity="1" fill-rule="nonzero"/></g></g></g></g></g></g><g clip-path="url(#6517325d21)"><g clip-path="url(#9447dcb225)"><path stroke-linecap="butt" transform="matrix(1.874507, 0, 0, 1.874507, 58.272667, 3.944406)" fill="none" stroke-linejoin="miter" d="M 13.278906 0.365163 L 16.80275 8.160965 C 16.90486 8.386024 17.117416 8.542315 17.365398 8.569406 L 25.83221 9.505068 C 25.903062 9.513404 25.961411 9.561333 25.984333 9.628017 C 26.005172 9.696786 25.986417 9.769721 25.93432 9.817651 L 19.640997 15.55041 C 19.457616 15.71712 19.37426 15.96927 19.424274 16.211 L 21.149728 24.567366 C 21.162231 24.636134 21.13514 24.70907 21.078876 24.750748 C 21.020527 24.792425 20.943423 24.796593 20.882991 24.761167 L 13.462288 20.526719 C 13.247648 20.40377 12.982995 20.40377 12.768355 20.526719 L 5.347652 24.761167 C 5.285135 24.796593 5.210116 24.792425 5.151767 24.750748 C 5.093418 24.70907 5.066328 24.636134 5.080915 24.567366 L 6.804285 16.211 C 6.854298 15.96927 6.773027 15.71712 6.589645 15.55041 L 0.296322 9.817651 C 0.244225 9.769721 0.223387 9.696786 0.246309 9.628017 C 0.267148 9.561333 0.327581 9.513404 0.398433 9.505068 L 8.865244 8.569406 C 9.111142 8.542315 9.325782 8.386024 9.427892 8.160965 L 12.949653 0.365163 C 12.978827 0.300562 13.043427 0.258885 13.114279 0.258885 C 13.185131 0.258885 13.249732 0.300562 13.278906 0.365163 Z M 13.278906 0.365163 " stroke="#000000" stroke-width="0.800211" stroke-opacity="1" stroke-miterlimit="4"/></g></g><g clip-path="url(#ad521e8bb7)"><g clip-path="url(#4ea9fc583b)"><g transform="matrix(1, 0, 0, 1, 113, 4)"><g clip-path="url(#1ad7ce4fdc)"><g clip-path="url(#c1065319f3)"><g clip-path="url(#316cf523a8)"><path fill="#ffde59" d="M 0.121094 -0.0546875 L 49.382812 -0.0546875 L 49.382812 46.824219 L 0.121094 46.824219 Z M 0.121094 -0.0546875 " fill-opacity="1" fill-rule="nonzero"/></g></g></g></g></g></g><g clip-path="url(#7c86e747df)"><g clip-path="url(#d7f7310f4d)"><path stroke-linecap="butt" transform="matrix(1.874507, 0, 0, 1.874507, 113.126724, 3.944406)" fill="none" stroke-linejoin="miter" d="M 13.279659 0.365163 L 16.803503 8.160965 C 16.905613 8.386024 17.118169 8.542315 17.364067 8.569406 L 25.832963 9.505068 C 25.901731 9.513404 25.962164 9.561333 25.983003 9.628017 C 26.005925 9.696786 25.98717 9.769721 25.932989 9.817651 L 19.639666 15.55041 C 19.456285 15.71712 19.375013 15.96927 19.425027 16.211 L 21.148397 24.567366 C 21.162984 24.636134 21.135894 24.70907 21.077545 24.750748 C 21.02128 24.792425 20.944176 24.796593 20.88166 24.761167 L 13.463041 20.526719 C 13.246317 20.40377 12.981664 20.40377 12.767024 20.526719 L 5.348405 24.761167 C 5.285889 24.796593 5.208785 24.792425 5.15252 24.750748 C 5.094171 24.70907 5.067081 24.636134 5.081668 24.567366 L 6.805038 16.211 C 6.855052 15.96927 6.77378 15.71712 6.590399 15.55041 L 0.294992 9.817651 C 0.242895 9.769721 0.22414 9.696786 0.244978 9.628017 C 0.267901 9.561333 0.32625 9.513404 0.397102 9.505068 L 8.863914 8.569406 C 9.111896 8.542315 9.324451 8.386024 9.426562 8.160965 L 12.950406 0.365163 C 12.97958 0.300562 13.04418 0.258885 13.115032 0.258885 C 13.185884 0.258885 13.250485 0.300562 13.279659 0.365163 Z M 13.279659 0.365163 " stroke="#000000" stroke-width="0.800211" stroke-opacity="1" stroke-miterlimit="4"/></g></g><g clip-path="url(#147825a5a3)"><g clip-path="url(#c1dfad0d89)"><g transform="matrix(1, 0, 0, 1, 169, 4)"><g clip-path="url(#14663b4729)"><g clip-path="url(#cd2bfd4823)"><g clip-path="url(#1af08e6bbf)"><path fill="#ffde59" d="M -0.214844 -0.0546875 L 49.042969 -0.0546875 L 49.042969 46.824219 L -0.214844 46.824219 Z M -0.214844 -0.0546875 " fill-opacity="1" fill-rule="nonzero"/></g></g></g></g></g></g><g clip-path="url(#56e2191e80)"><g clip-path="url(#c644ef0c81)"><path stroke-linecap="butt" transform="matrix(1.874507, 0, 0, 1.874507, 168.789831, 3.944406)" fill="none" stroke-linejoin="miter" d="M 13.280169 0.365163 L 16.801929 8.160965 C 16.90404 8.386024 17.118679 8.542315 17.364577 8.569406 L 25.831389 9.505068 C 25.902241 9.513404 25.962674 9.561333 25.983513 9.628017 C 26.006435 9.696786 25.985596 9.769721 25.933499 9.817651 L 19.640176 15.55041 C 19.456795 15.71712 19.375523 15.96927 19.425536 16.211 L 21.148907 24.567366 C 21.163494 24.636134 21.13432 24.70907 21.078055 24.750748 C 21.019706 24.792425 20.944686 24.796593 20.88217 24.761167 L 13.461467 20.526719 C 13.246827 20.40377 12.982174 20.40377 12.767534 20.526719 L 5.346831 24.761167 C 5.286398 24.796593 5.209295 24.792425 5.150946 24.750748 C 5.094681 24.70907 5.065507 24.636134 5.080094 24.567366 L 6.803464 16.211 C 6.855561 15.96927 6.772206 15.71712 6.588825 15.55041 L 0.295501 9.817651 C 0.243404 9.769721 0.222566 9.696786 0.245488 9.628017 C 0.268411 9.561333 0.32676 9.513404 0.397612 9.505068 L 8.864423 8.569406 C 9.110322 8.542315 9.324961 8.386024 9.427072 8.160965 L 12.950916 0.365163 C 12.98009 0.300562 13.04469 0.258885 13.115542 0.258885 C 13.186394 0.258885 13.250995 0.300562 13.280169 0.365163 Z M 13.280169 0.365163 " stroke="#000000" stroke-width="0.800211" stroke-opacity="1" stroke-miterlimit="4"/></g></g><g clip-path="url(#b4e242a0b6)"><g clip-path="url(#5ef6bdb758)"><g transform="matrix(1, 0, 0, 1, 225, 4)"><g clip-path="url(#b378c21787)"><g clip-path="url(#6941b49a01)"><g clip-path="url(#333a3c34e2)"><path fill="#ffde59" d="M 0.453125 -0.0546875 L 49.710938 -0.0546875 L 49.710938 46.824219 L 0.453125 46.824219 Z M 0.453125 -0.0546875 " fill-opacity="1" fill-rule="nonzero"/></g></g></g></g></g></g><g clip-path="url(#965f8f37a1)"><g clip-path="url(#409f52145b)"><path stroke-linecap="butt" transform="matrix(1.874507, 0, 0, 1.874507, 225.457759, 3.944406)" fill="none" stroke-linejoin="miter" d="M 13.28019 0.365163 L 16.801951 8.160965 C 16.904061 8.386024 17.118701 8.542315 17.364599 8.569406 L 25.83141 9.505068 C 25.902262 9.513404 25.962695 9.561333 25.983534 9.628017 C 26.006456 9.696786 25.985618 9.769721 25.933521 9.817651 L 19.640198 15.55041 C 19.456816 15.71712 19.375545 15.96927 19.425558 16.211 L 21.148928 24.567366 C 21.163515 24.636134 21.134341 24.70907 21.078076 24.750748 C 21.019727 24.792425 20.944708 24.796593 20.882191 24.761167 L 13.461488 20.526719 C 13.246848 20.40377 12.982195 20.40377 12.767555 20.526719 L 5.346852 24.761167 C 5.28642 24.796593 5.209316 24.792425 5.150967 24.750748 C 5.094703 24.70907 5.065528 24.636134 5.080115 24.567366 L 6.803486 16.211 C 6.853499 15.96927 6.772227 15.71712 6.588846 15.55041 L 0.295523 9.817651 C 0.243426 9.769721 0.222587 9.696786 0.24551 9.628017 C 0.268432 9.561333 0.326781 9.513404 0.397633 9.505068 L 8.864445 8.569406 C 9.110343 8.542315 9.324983 8.386024 9.427093 8.160965 L 12.950937 0.365163 C 12.980111 0.300562 13.044712 0.258885 13.115564 0.258885 C 13.186416 0.258885 13.251016 0.300562 13.28019 0.365163 Z M 13.28019 0.365163 " stroke="#000000" stroke-width="0.800211" stroke-opacity="1" stroke-miterlimit="4"/></g></g><g clip-path="url(#22aad23823)"><g clip-path="url(#c6ad252ffb)"><g transform="matrix(1, 0, 0, 1, 3, 63)"><g clip-path="url(#71ce8b9753)"><g clip-path="url(#2c305e7658)"><g clip-path="url(#02efd803ef)"><path fill="#ffde59" d="M 0.363281 0.175781 L 49.621094 0.175781 L 49.621094 47.054688 L 0.363281 47.054688 Z M 0.363281 0.175781 " fill-opacity="1" fill-rule="nonzero"/></g></g></g></g></g></g><g clip-path="url(#f3ce02cd9e)"><g clip-path="url(#1c3aaae57c)"><path stroke-linecap="butt" transform="matrix(1.874507, 0, 0, 1.874507, 3.367066, 63.176706)" fill="none" stroke-linejoin="miter" d="M 13.27856 0.364186 L 16.802404 8.159988 C 16.904514 8.385047 17.119154 8.541338 17.365052 8.568428 L 25.831864 9.506175 C 25.902716 9.512427 25.961064 9.56244 25.983987 9.629124 C 26.00691 9.695808 25.986071 9.770828 25.933974 9.818758 L 19.640651 15.549432 C 19.457269 15.718227 19.375998 15.968293 19.426011 16.212107 L 21.149381 24.566389 C 21.163968 24.637241 21.134794 24.708093 21.078529 24.749771 C 21.020181 24.791448 20.943077 24.795616 20.882644 24.76019 L 13.461941 20.525742 C 13.247301 20.402793 12.982648 20.402793 12.768009 20.525742 L 5.347306 24.76019 C 5.284789 24.795616 5.209769 24.791448 5.151421 24.749771 C 5.095156 24.708093 5.065982 24.637241 5.080569 24.566389 L 6.803939 16.212107 C 6.853952 15.968293 6.772681 15.718227 6.589299 15.549432 L 0.295976 9.818758 C 0.243879 9.770828 0.22304 9.695808 0.245963 9.629124 C 0.266802 9.56244 0.327234 9.512427 0.398086 9.506175 L 8.864898 8.568428 C 9.110796 8.541338 9.325436 8.385047 9.427546 8.159988 L 12.949306 0.364186 C 12.978481 0.299585 13.043081 0.257908 13.113933 0.257908 C 13.184785 0.257908 13.249385 0.299585 13.27856 0.364186 Z M 13.27856 0.364186 " stroke="#000000" stroke-width="0.800211" stroke-opacity="1" stroke-miterlimit="4"/></g></g><g clip-path="url(#4ca4348991)"><g clip-path="url(#117763d602)"><g transform="matrix(1, 0, 0, 1, 58, 63)"><g clip-path="url(#c078de73ae)"><g clip-path="url(#c2dc489631)"><g clip-path="url(#671628ddb1)"><path fill="#ffde59" d="M 0.269531 0.175781 L 49.527344 0.175781 L 49.527344 47.054688 L 0.269531 47.054688 Z M 0.269531 0.175781 " fill-opacity="1" fill-rule="nonzero"/></g></g></g></g></g></g><g clip-path="url(#097e64b7d6)"><g clip-path="url(#1762659b4d)"><path stroke-linecap="butt" transform="matrix(1.874507, 0, 0, 1.874507, 58.272667, 63.176706)" fill="none" stroke-linejoin="miter" d="M 13.278906 0.364186 L 16.80275 8.159988 C 16.90486 8.385047 17.117416 8.541338 17.365398 8.568428 L 25.83221 9.506175 C 25.903062 9.512427 25.961411 9.56244 25.984333 9.629124 C 26.005172 9.695808 25.986417 9.770828 25.93432 9.818758 L 19.640997 15.549432 C 19.457616 15.718227 19.37426 15.968293 19.424274 16.212107 L 21.149728 24.566389 C 21.162231 24.637241 21.13514 24.708093 21.078876 24.749771 C 21.020527 24.791448 20.943423 24.795616 20.882991 24.76019 L 13.462288 20.525742 C 13.247648 20.402793 12.982995 20.402793 12.768355 20.525742 L 5.347652 24.76019 C 5.285135 24.795616 5.210116 24.791448 5.151767 24.749771 C 5.093418 24.708093 5.066328 24.637241 5.080915 24.566389 L 6.804285 16.212107 C 6.854298 15.968293 6.773027 15.718227 6.589645 15.549432 L 0.296322 9.818758 C 0.244225 9.770828 0.223387 9.695808 0.246309 9.629124 C 0.267148 9.56244 0.327581 9.512427 0.398433 9.506175 L 8.865244 8.568428 C 9.111142 8.541338 9.325782 8.385047 9.427892 8.159988 L 12.949653 0.364186 C 12.978827 0.299585 13.043427 0.257908 13.114279 0.257908 C 13.185131 0.257908 13.249732 0.299585 13.278906 0.364186 Z M 13.278906 0.364186 " stroke="#000000" stroke-width="0.800211" stroke-opacity="1" stroke-miterlimit="4"/></g></g><g clip-path="url(#e7692f120d)"><g clip-path="url(#534e0b063e)"><g transform="matrix(1, 0, 0, 1, 113, 63)"><g clip-path="url(#dfd6c445dd)"><g clip-path="url(#87b0e8a453)"><g clip-path="url(#331fe7f913)"><path fill="#ffde59" d="M 0.121094 0.175781 L 49.382812 0.175781 L 49.382812 47.054688 L 0.121094 47.054688 Z M 0.121094 0.175781 " fill-opacity="1" fill-rule="nonzero"/></g></g></g></g></g></g><g clip-path="url(#0bca25d262)"><g clip-path="url(#33971c2c6c)"><path stroke-linecap="butt" transform="matrix(1.874507, 0, 0, 1.874507, 113.126724, 63.176706)" fill="none" stroke-linejoin="miter" d="M 13.279659 0.364186 L 16.803503 8.159988 C 16.905613 8.385047 17.118169 8.541338 17.364067 8.568428 L 25.832963 9.506175 C 25.901731 9.512427 25.962164 9.56244 25.983003 9.629124 C 26.005925 9.695808 25.98717 9.770828 25.932989 9.818758 L 19.639666 15.549432 C 19.456285 15.718227 19.375013 15.968293 19.425027 16.212107 L 21.148397 24.566389 C 21.162984 24.637241 21.135894 24.708093 21.077545 24.749771 C 21.02128 24.791448 20.944176 24.795616 20.88166 24.76019 L 13.463041 20.525742 C 13.246317 20.402793 12.981664 20.402793 12.767024 20.525742 L 5.348405 24.76019 C 5.285889 24.795616 5.208785 24.791448 5.15252 24.749771 C 5.094171 24.708093 5.067081 24.637241 5.081668 24.566389 L 6.805038 16.212107 C 6.855052 15.968293 6.77378 15.718227 6.590399 15.549432 L 0.294992 9.818758 C 0.242895 9.770828 0.22414 9.695808 0.244978 9.629124 C 0.267901 9.56244 0.32625 9.512427 0.397102 9.506175 L 8.863914 8.568428 C 9.111896 8.541338 9.324451 8.385047 9.426562 8.159988 L 12.950406 0.364186 C 12.97958 0.299585 13.04418 0.257908 13.115032 0.257908 C 13.185884 0.257908 13.250485 0.299585 13.279659 0.364186 Z M 13.279659 0.364186 " stroke="#000000" stroke-width="0.800211" stroke-opacity="1" stroke-miterlimit="4"/></g></g><g clip-path="url(#9e3273c33a)"><g clip-path="url(#efc0b1f8b2)"><g transform="matrix(1, 0, 0, 1, 169, 63)"><g clip-path="url(#a3174373d5)"><g clip-path="url(#9d2df3dce6)"><g clip-path="url(#2944a83555)"><path fill="#ffde59" d="M -0.214844 0.175781 L 49.042969 0.175781 L 49.042969 47.054688 L -0.214844 47.054688 Z M -0.214844 0.175781 " fill-opacity="1" fill-rule="nonzero"/></g></g></g></g></g></g><g clip-path="url(#7ae41089a5)"><g clip-path="url(#61a1bbc1b4)"><path stroke-linecap="butt" transform="matrix(1.874507, 0, 0, 1.874507, 168.789831, 63.176706)" fill="none" stroke-linejoin="miter" d="M 13.280169 0.364186 L 16.801929 8.159988 C 16.90404 8.385047 17.118679 8.541338 17.364577 8.568428 L 25.831389 9.506175 C 25.902241 9.512427 25.962674 9.56244 25.983513 9.629124 C 26.006435 9.695808 25.985596 9.770828 25.933499 9.818758 L 19.640176 15.549432 C 19.456795 15.718227 19.375523 15.968293 19.425536 16.212107 L 21.148907 24.566389 C 21.163494 24.637241 21.13432 24.708093 21.078055 24.749771 C 21.019706 24.791448 20.944686 24.795616 20.88217 24.76019 L 13.461467 20.525742 C 13.246827 20.402793 12.982174 20.402793 12.767534 20.525742 L 5.346831 24.76019 C 5.286398 24.795616 5.209295 24.791448 5.150946 24.749771 C 5.094681 24.708093 5.065507 24.637241 5.080094 24.566389 L 6.803464 16.212107 C 6.855561 15.968293 6.772206 15.718227 6.588825 15.549432 L 0.295501 9.818758 C 0.243404 9.770828 0.222566 9.695808 0.245488 9.629124 C 0.268411 9.56244 0.32676 9.512427 0.397612 9.506175 L 8.864423 8.568428 C 9.110322 8.541338 9.324961 8.385047 9.427072 8.159988 L 12.950916 0.364186 C 12.98009 0.299585 13.04469 0.257908 13.115542 0.257908 C 13.186394 0.257908 13.250995 0.299585 13.280169 0.364186 Z M 13.280169 0.364186 " stroke="#000000" stroke-width="0.800211" stroke-opacity="1" stroke-miterlimit="4"/></g></g><g clip-path="url(#8f94aede12)"><g clip-path="url(#6d2a27763d)"><g transform="matrix(1, 0, 0, 1, 225, 63)"><g clip-path="url(#7d37f8663a)"><g clip-path="url(#f577a1b867)"><g clip-path="url(#78c1a761a4)"><path fill="#ffde59" d="M 0.453125 0.175781 L 49.710938 0.175781 L 49.710938 47.054688 L 0.453125 47.054688 Z M 0.453125 0.175781 " fill-opacity="1" fill-rule="nonzero"/></g></g></g></g></g></g><g clip-path="url(#a69c035ae2)"><g clip-path="url(#b20b362ffc)"><path stroke-linecap="butt" transform="matrix(1.874507, 0, 0, 1.874507, 225.457759, 63.176706)" fill="none" stroke-linejoin="miter" d="M 13.28019 0.364186 L 16.801951 8.159988 C 16.904061 8.385047 17.118701 8.541338 17.364599 8.568428 L 25.83141 9.506175 C 25.902262 9.512427 25.962695 9.56244 25.983534 9.629124 C 26.006456 9.695808 25.985618 9.770828 25.933521 9.818758 L 19.640198 15.549432 C 19.456816 15.718227 19.375545 15.968293 19.425558 16.212107 L 21.148928 24.566389 C 21.163515 24.637241 21.134341 24.708093 21.078076 24.749771 C 21.019727 24.791448 20.944708 24.795616 20.882191 24.76019 L 13.461488 20.525742 C 13.246848 20.402793 12.982195 20.402793 12.767555 20.525742 L 5.346852 24.76019 C 5.28642 24.795616 5.209316 24.791448 5.150967 24.749771 C 5.094703 24.708093 5.065528 24.637241 5.080115 24.566389 L 6.803486 16.212107 C 6.853499 15.968293 6.772227 15.718227 6.588846 15.549432 L 0.295523 9.818758 C 0.243426 9.770828 0.222587 9.695808 0.24551 9.629124 C 0.268432 9.56244 0.326781 9.512427 0.397633 9.506175 L 8.864445 8.568428 C 9.110343 8.541338 9.324983 8.385047 9.427093 8.159988 L 12.950937 0.364186 C 12.980111 0.299585 13.044712 0.257908 13.115564 0.257908 C 13.186416 0.257908 13.251016 0.299585 13.28019 0.364186 Z M 13.28019 0.364186 " stroke="#000000" stroke-width="0.800211" stroke-opacity="1" stroke-miterlimit="4"/></g></g></g></g></svg>