<svg xmlns="http://www.w3.org/2000/svg" xmlns:xlink="http://www.w3.org/1999/xlink" width="400" zoomAndPan="magnify" viewBox="0 0 300 299.999988" height="400" preserveAspectRatio="xMidYMid meet" version="1.0"><defs><clipPath id="8e40e35e60"><path d="M 2 2 L 297.335938 2 L 297.335938 297.335938 L 2 297.335938 Z M 2 2 " clip-rule="nonzero"/></clipPath><clipPath id="b5583561d6"><path d="M 13.164062 2.664062 L 286.835938 2.664062 C 289.621094 2.664062 292.292969 3.769531 294.261719 5.738281 C 296.230469 7.707031 297.335938 10.378906 297.335938 13.164062 L 297.335938 286.835938 C 297.335938 289.621094 296.230469 292.292969 294.261719 294.261719 C 292.292969 296.230469 289.621094 297.335938 286.835938 297.335938 L 13.164062 297.335938 C 10.378906 297.335938 7.707031 296.230469 5.738281 294.261719 C 3.769531 292.292969 2.664062 289.621094 2.664062 286.835938 L 2.664062 13.164062 C 2.664062 10.378906 3.769531 7.707031 5.738281 5.738281 C 7.707031 3.769531 10.378906 2.664062 13.164062 2.664062 Z M 13.164062 2.664062 " clip-rule="nonzero"/></clipPath><clipPath id="33f898cd05"><path d="M 0.640625 0.640625 L 295.335938 0.640625 L 295.335938 295.335938 L 0.640625 295.335938 Z M 0.640625 0.640625 " clip-rule="nonzero"/></clipPath><clipPath id="3a90865fde"><path d="M 11.164062 0.664062 L 284.835938 0.664062 C 287.621094 0.664062 290.292969 1.769531 292.261719 3.738281 C 294.230469 5.707031 295.335938 8.378906 295.335938 11.164062 L 295.335938 284.835938 C 295.335938 287.621094 294.230469 290.292969 292.261719 292.261719 C 290.292969 294.230469 287.621094 295.335938 284.835938 295.335938 L 11.164062 295.335938 C 8.378906 295.335938 5.707031 294.230469 3.738281 292.261719 C 1.769531 290.292969 0.664062 287.621094 0.664062 284.835938 L 0.664062 11.164062 C 0.664062 8.378906 1.769531 5.707031 3.738281 3.738281 C 5.707031 1.769531 8.378906 0.664062 11.164062 0.664062 Z M 11.164062 0.664062 " clip-rule="nonzero"/></clipPath><clipPath id="542bdc61ff"><rect x="0" width="296" y="0" height="296"/></clipPath><clipPath id="7fc0fa3cb7"><path d="M 2.664062 2.664062 L 297.414062 2.664062 L 297.414062 297.414062 L 2.664062 297.414062 Z M 2.664062 2.664062 " clip-rule="nonzero"/></clipPath><clipPath id="3ab3bc2ca5"><path d="M 13.164062 2.664062 L 286.832031 2.664062 C 289.617188 2.664062 292.285156 3.769531 294.253906 5.738281 C 296.222656 7.707031 297.332031 10.378906 297.332031 13.164062 L 297.332031 286.832031 C 297.332031 289.617188 296.222656 292.285156 294.253906 294.253906 C 292.285156 296.222656 289.617188 297.332031 286.832031 297.332031 L 13.164062 297.332031 C 10.378906 297.332031 7.707031 296.222656 5.738281 294.253906 C 3.769531 292.285156 2.664062 289.617188 2.664062 286.832031 L 2.664062 13.164062 C 2.664062 10.378906 3.769531 7.707031 5.738281 5.738281 C 7.707031 3.769531 10.378906 2.664062 13.164062 2.664062 Z M 13.164062 2.664062 " clip-rule="nonzero"/></clipPath><clipPath id="ef16606413"><path d="M 3.730469 4.3125 L 52.253906 4.3125 L 52.253906 50.457031 L 3.730469 50.457031 Z M 3.730469 4.3125 " clip-rule="nonzero"/></clipPath><clipPath id="c805de7efa"><path d="M 28.261719 4.628906 L 34.871094 19.246094 C 35.0625 19.667969 35.460938 19.960938 35.925781 20.011719 L 51.800781 21.769531 C 51.933594 21.78125 52.046875 21.875 52.085938 22 C 52.128906 22.125 52.089844 22.265625 51.992188 22.355469 L 40.191406 33.105469 C 39.847656 33.417969 39.695312 33.886719 39.789062 34.34375 L 43.019531 50.011719 C 43.046875 50.140625 42.996094 50.277344 42.886719 50.355469 C 42.777344 50.433594 42.636719 50.441406 42.519531 50.375 L 28.605469 42.433594 C 28.203125 42.203125 27.707031 42.203125 27.304688 42.433594 L 13.390625 50.375 C 13.273438 50.441406 13.128906 50.433594 13.023438 50.355469 C 12.914062 50.277344 12.863281 50.140625 12.890625 50.011719 L 16.121094 34.34375 C 16.214844 33.886719 16.0625 33.417969 15.71875 33.105469 L 3.917969 22.355469 C 3.820312 22.265625 3.78125 22.125 3.824219 22 C 3.863281 21.875 3.976562 21.78125 4.109375 21.769531 L 19.984375 20.011719 C 20.449219 19.960938 20.847656 19.667969 21.039062 19.246094 L 27.644531 4.628906 C 27.699219 4.507812 27.820312 4.429688 27.953125 4.429688 C 28.085938 4.429688 28.207031 4.507812 28.261719 4.628906 Z M 28.261719 4.628906 " clip-rule="nonzero"/></clipPath><clipPath id="197114f28d"><path d="M 0.730469 0.3125 L 49.253906 0.3125 L 49.253906 46.457031 L 0.730469 46.457031 Z M 0.730469 0.3125 " clip-rule="nonzero"/></clipPath><clipPath id="fccea67870"><path d="M 25.261719 0.628906 L 31.871094 15.246094 C 32.0625 15.667969 32.460938 15.960938 32.925781 16.011719 L 48.800781 17.769531 C 48.933594 17.78125 49.046875 17.875 49.085938 18 C 49.128906 18.125 49.089844 18.265625 48.992188 18.355469 L 37.191406 29.105469 C 36.847656 29.417969 36.695312 29.886719 36.789062 30.34375 L 40.019531 46.011719 C 40.046875 46.140625 39.996094 46.277344 39.886719 46.355469 C 39.777344 46.433594 39.636719 46.441406 39.519531 46.375 L 25.605469 38.433594 C 25.203125 38.203125 24.707031 38.203125 24.304688 38.433594 L 10.390625 46.375 C 10.273438 46.441406 10.128906 46.433594 10.023438 46.355469 C 9.914062 46.277344 9.863281 46.140625 9.890625 46.011719 L 13.121094 30.34375 C 13.214844 29.886719 13.0625 29.417969 12.71875 29.105469 L 0.917969 18.355469 C 0.820312 18.265625 0.78125 18.125 0.824219 18 C 0.863281 17.875 0.976562 17.78125 1.109375 17.769531 L 16.984375 16.011719 C 17.449219 15.960938 17.847656 15.667969 18.039062 15.246094 L 24.644531 0.628906 C 24.699219 0.507812 24.820312 0.429688 24.953125 0.429688 C 25.085938 0.429688 25.207031 0.507812 25.261719 0.628906 Z M 25.261719 0.628906 " clip-rule="nonzero"/></clipPath><clipPath id="1743bad65e"><rect x="0" width="50" y="0" height="47"/></clipPath><clipPath id="56d45c23d5"><path d="M 3.371094 4 L 52.523438 4 L 52.523438 49.804688 L 3.371094 49.804688 Z M 3.371094 4 " clip-rule="nonzero"/></clipPath><clipPath id="7b376fa7f2"><path d="M 28.257812 4.628906 L 34.859375 19.238281 C 35.050781 19.660156 35.449219 19.949219 35.914062 20 L 51.78125 21.757812 C 51.910156 21.773438 52.023438 21.863281 52.066406 21.988281 C 52.105469 22.117188 52.070312 22.253906 51.96875 22.34375 L 40.175781 33.085938 C 39.832031 33.398438 39.679688 33.871094 39.773438 34.324219 L 43.003906 49.984375 C 43.03125 50.113281 42.976562 50.246094 42.871094 50.324219 C 42.761719 50.402344 42.621094 50.410156 42.503906 50.347656 L 28.597656 42.410156 C 28.195312 42.179688 27.699219 42.179688 27.296875 42.410156 L 13.390625 50.347656 C 13.277344 50.410156 13.132812 50.402344 13.023438 50.324219 C 12.917969 50.246094 12.863281 50.113281 12.890625 49.984375 L 16.121094 34.324219 C 16.214844 33.871094 16.0625 33.398438 15.71875 33.085938 L 3.925781 22.34375 C 3.828125 22.253906 3.789062 22.117188 3.832031 21.988281 C 3.871094 21.863281 3.984375 21.773438 4.117188 21.757812 L 19.984375 20 C 20.445312 19.949219 20.84375 19.660156 21.035156 19.238281 L 27.640625 4.628906 C 27.695312 4.507812 27.816406 4.429688 27.949219 4.429688 C 28.082031 4.429688 28.203125 4.507812 28.257812 4.628906 Z M 28.257812 4.628906 " clip-rule="nonzero"/></clipPath><clipPath id="759821bcae"><path d="M 58.632812 4.3125 L 107.160156 4.3125 L 107.160156 50.457031 L 58.632812 50.457031 Z M 58.632812 4.3125 " clip-rule="nonzero"/></clipPath><clipPath id="9d637cc1c8"><path d="M 83.167969 4.628906 L 89.773438 19.246094 C 89.964844 19.667969 90.367188 19.960938 90.828125 20.011719 L 106.707031 21.769531 C 106.839844 21.78125 106.949219 21.875 106.992188 22 C 107.03125 22.125 106.996094 22.265625 106.898438 22.355469 L 95.097656 33.105469 C 94.753906 33.417969 94.597656 33.886719 94.691406 34.34375 L 97.925781 50.011719 C 97.953125 50.140625 97.898438 50.277344 97.792969 50.355469 C 97.683594 50.433594 97.539062 50.441406 97.425781 50.375 L 83.511719 42.433594 C 83.109375 42.203125 82.613281 42.203125 82.207031 42.433594 L 68.296875 50.375 C 68.179688 50.441406 68.035156 50.433594 67.929688 50.355469 C 67.820312 50.277344 67.769531 50.140625 67.796875 50.011719 L 71.027344 34.34375 C 71.121094 33.886719 70.96875 33.417969 70.625 33.105469 L 58.824219 22.355469 C 58.722656 22.265625 58.6875 22.125 58.726562 22 C 58.769531 21.875 58.882812 21.78125 59.011719 21.769531 L 74.890625 20.011719 C 75.351562 19.960938 75.753906 19.667969 75.945312 19.246094 L 82.550781 4.628906 C 82.605469 4.507812 82.726562 4.429688 82.859375 4.429688 C 82.992188 4.429688 83.113281 4.507812 83.167969 4.628906 Z M 83.167969 4.628906 " clip-rule="nonzero"/></clipPath><clipPath id="f1335bcb36"><path d="M 0.632812 0.3125 L 49.078125 0.3125 L 49.078125 46.457031 L 0.632812 46.457031 Z M 0.632812 0.3125 " clip-rule="nonzero"/></clipPath><clipPath id="31ff4386a3"><path d="M 25.167969 0.628906 L 31.773438 15.246094 C 31.964844 15.667969 32.367188 15.960938 32.828125 16.011719 L 48.707031 17.769531 C 48.839844 17.78125 48.949219 17.875 48.992188 18 C 49.03125 18.125 48.996094 18.265625 48.898438 18.355469 L 37.097656 29.105469 C 36.753906 29.417969 36.597656 29.886719 36.691406 30.34375 L 39.925781 46.011719 C 39.953125 46.140625 39.898438 46.277344 39.792969 46.355469 C 39.683594 46.433594 39.539062 46.441406 39.425781 46.375 L 25.511719 38.433594 C 25.109375 38.203125 24.613281 38.203125 24.207031 38.433594 L 10.296875 46.375 C 10.179688 46.441406 10.035156 46.433594 9.929688 46.355469 C 9.820312 46.277344 9.769531 46.140625 9.796875 46.011719 L 13.027344 30.34375 C 13.121094 29.886719 12.96875 29.417969 12.625 29.105469 L 0.824219 18.355469 C 0.722656 18.265625 0.6875 18.125 0.726562 18 C 0.769531 17.875 0.882812 17.78125 1.011719 17.769531 L 16.890625 16.011719 C 17.351562 15.960938 17.753906 15.667969 17.945312 15.246094 L 24.550781 0.628906 C 24.605469 0.507812 24.726562 0.429688 24.859375 0.429688 C 24.992188 0.429688 25.113281 0.507812 25.167969 0.628906 Z M 25.167969 0.628906 " clip-rule="nonzero"/></clipPath><clipPath id="a27cf682dc"><rect x="0" width="50" y="0" height="47"/></clipPath><clipPath id="9ea2008521"><path d="M 58.277344 4 L 107 4 L 107 49.804688 L 58.277344 49.804688 Z M 58.277344 4 " clip-rule="nonzero"/></clipPath><clipPath id="e29b32db43"><path d="M 83.160156 4.628906 L 89.765625 19.238281 C 89.957031 19.660156 90.355469 19.949219 90.816406 20 L 106.683594 21.757812 C 106.816406 21.773438 106.929688 21.863281 106.96875 21.988281 C 107.011719 22.117188 106.976562 22.253906 106.875 22.34375 L 95.082031 33.085938 C 94.738281 33.398438 94.585938 33.871094 94.679688 34.324219 L 97.910156 49.984375 C 97.9375 50.113281 97.882812 50.246094 97.777344 50.324219 C 97.667969 50.402344 97.523438 50.410156 97.410156 50.347656 L 83.503906 42.410156 C 83.101562 42.179688 82.605469 42.179688 82.203125 42.410156 L 68.296875 50.347656 C 68.179688 50.410156 68.039062 50.402344 67.929688 50.324219 C 67.824219 50.246094 67.769531 50.113281 67.796875 49.984375 L 71.027344 34.324219 C 71.121094 33.871094 70.96875 33.398438 70.625 33.085938 L 58.832031 22.34375 C 58.730469 22.253906 58.695312 22.117188 58.738281 21.988281 C 58.777344 21.863281 58.890625 21.773438 59.019531 21.757812 L 74.890625 20 C 75.351562 19.949219 75.75 19.660156 75.941406 19.238281 L 82.542969 4.628906 C 82.597656 4.507812 82.71875 4.429688 82.851562 4.429688 C 82.988281 4.429688 83.105469 4.507812 83.160156 4.628906 Z M 83.160156 4.628906 " clip-rule="nonzero"/></clipPath><clipPath id="72a881a80e"><path d="M 113.488281 4.3125 L 162 4.3125 L 162 50.457031 L 113.488281 50.457031 Z M 113.488281 4.3125 " clip-rule="nonzero"/></clipPath><clipPath id="129c5225f1"><path d="M 138.023438 4.628906 L 144.628906 19.246094 C 144.820312 19.667969 145.222656 19.960938 145.683594 20.011719 L 161.5625 21.769531 C 161.695312 21.78125 161.804688 21.875 161.847656 22 C 161.886719 22.125 161.851562 22.265625 161.753906 22.355469 L 149.949219 33.105469 C 149.605469 33.417969 149.453125 33.886719 149.546875 34.34375 L 152.777344 50.011719 C 152.804688 50.140625 152.753906 50.277344 152.644531 50.355469 C 152.539062 50.433594 152.394531 50.441406 152.28125 50.375 L 138.367188 42.433594 C 137.960938 42.203125 137.464844 42.203125 137.0625 42.433594 L 123.148438 50.375 C 123.035156 50.441406 122.890625 50.433594 122.78125 50.355469 C 122.675781 50.277344 122.621094 50.140625 122.648438 50.011719 L 125.882812 34.34375 C 125.976562 33.886719 125.824219 33.417969 125.480469 33.105469 L 113.675781 22.355469 C 113.578125 22.265625 113.542969 22.125 113.582031 22 C 113.625 21.875 113.734375 21.78125 113.867188 21.769531 L 129.746094 20.011719 C 130.207031 19.960938 130.609375 19.667969 130.800781 19.246094 L 137.40625 4.628906 C 137.460938 4.507812 137.582031 4.429688 137.714844 4.429688 C 137.847656 4.429688 137.96875 4.507812 138.023438 4.628906 Z M 138.023438 4.628906 " clip-rule="nonzero"/></clipPath><clipPath id="aac63b6a6a"><path d="M 0.488281 0.3125 L 49 0.3125 L 49 46.457031 L 0.488281 46.457031 Z M 0.488281 0.3125 " clip-rule="nonzero"/></clipPath><clipPath id="b21745635a"><path d="M 25.023438 0.628906 L 31.628906 15.246094 C 31.820312 15.667969 32.222656 15.960938 32.683594 16.011719 L 48.5625 17.769531 C 48.695312 17.78125 48.804688 17.875 48.847656 18 C 48.886719 18.125 48.851562 18.265625 48.753906 18.355469 L 36.949219 29.105469 C 36.605469 29.417969 36.453125 29.886719 36.546875 30.34375 L 39.777344 46.011719 C 39.804688 46.140625 39.753906 46.277344 39.644531 46.355469 C 39.539062 46.433594 39.394531 46.441406 39.28125 46.375 L 25.367188 38.433594 C 24.960938 38.203125 24.464844 38.203125 24.0625 38.433594 L 10.148438 46.375 C 10.035156 46.441406 9.890625 46.433594 9.78125 46.355469 C 9.675781 46.277344 9.621094 46.140625 9.648438 46.011719 L 12.882812 30.34375 C 12.976562 29.886719 12.824219 29.417969 12.480469 29.105469 L 0.675781 18.355469 C 0.578125 18.265625 0.542969 18.125 0.582031 18 C 0.625 17.875 0.734375 17.78125 0.867188 17.769531 L 16.746094 16.011719 C 17.207031 15.960938 17.609375 15.667969 17.800781 15.246094 L 24.40625 0.628906 C 24.460938 0.507812 24.582031 0.429688 24.714844 0.429688 C 24.847656 0.429688 24.96875 0.507812 25.023438 0.628906 Z M 25.023438 0.628906 " clip-rule="nonzero"/></clipPath><clipPath id="f6024ea66c"><rect x="0" width="49" y="0" height="47"/></clipPath><clipPath id="bedb6e8f86"><path d="M 113.128906 4 L 162 4 L 162 49.804688 L 113.128906 49.804688 Z M 113.128906 4 " clip-rule="nonzero"/></clipPath><clipPath id="6889a605af"><path d="M 138.015625 4.628906 L 144.617188 19.238281 C 144.808594 19.660156 145.210938 19.949219 145.671875 20 L 161.539062 21.757812 C 161.671875 21.773438 161.785156 21.863281 161.824219 21.988281 C 161.867188 22.117188 161.828125 22.253906 161.730469 22.34375 L 149.9375 33.085938 C 149.59375 33.398438 149.4375 33.871094 149.53125 34.324219 L 152.761719 49.984375 C 152.789062 50.113281 152.738281 50.246094 152.628906 50.324219 C 152.523438 50.402344 152.378906 50.410156 152.261719 50.347656 L 138.359375 42.410156 C 137.953125 42.179688 137.460938 42.179688 137.054688 42.410156 L 123.152344 50.347656 C 123.035156 50.410156 122.890625 50.402344 122.785156 50.324219 C 122.675781 50.246094 122.625 50.113281 122.652344 49.984375 L 125.882812 34.324219 C 125.976562 33.871094 125.824219 33.398438 125.480469 33.085938 L 113.683594 22.34375 C 113.585938 22.253906 113.550781 22.117188 113.589844 21.988281 C 113.632812 21.863281 113.742188 21.773438 113.875 21.757812 L 129.742188 20 C 130.203125 19.949219 130.605469 19.660156 130.796875 19.238281 L 137.398438 4.628906 C 137.453125 4.507812 137.574219 4.429688 137.707031 4.429688 C 137.839844 4.429688 137.960938 4.507812 138.015625 4.628906 Z M 138.015625 4.628906 " clip-rule="nonzero"/></clipPath><clipPath id="caf1523392"><path d="M 169.152344 4.3125 L 217.679688 4.3125 L 217.679688 50.457031 L 169.152344 50.457031 Z M 169.152344 4.3125 " clip-rule="nonzero"/></clipPath><clipPath id="b56517c590"><path d="M 193.6875 4.628906 L 200.292969 19.246094 C 200.484375 19.667969 200.882812 19.960938 201.347656 20.011719 L 217.222656 21.769531 C 217.355469 21.78125 217.46875 21.875 217.507812 22 C 217.550781 22.125 217.511719 22.265625 217.414062 22.355469 L 205.613281 33.105469 C 205.269531 33.417969 205.117188 33.886719 205.210938 34.34375 L 208.441406 50.011719 C 208.46875 50.140625 208.417969 50.277344 208.308594 50.355469 C 208.203125 50.433594 208.058594 50.441406 207.941406 50.375 L 194.027344 42.433594 C 193.625 42.203125 193.128906 42.203125 192.726562 42.433594 L 178.8125 50.375 C 178.695312 50.441406 178.554688 50.433594 178.445312 50.355469 C 178.335938 50.277344 178.285156 50.140625 178.3125 50.011719 L 181.542969 34.34375 C 181.636719 33.886719 181.484375 33.417969 181.140625 33.105469 L 169.339844 22.355469 C 169.242188 22.265625 169.203125 22.125 169.246094 22 C 169.285156 21.875 169.398438 21.78125 169.53125 21.769531 L 185.40625 20.011719 C 185.871094 19.960938 186.269531 19.667969 186.460938 19.246094 L 193.070312 4.628906 C 193.125 4.507812 193.246094 4.429688 193.378906 4.429688 C 193.511719 4.429688 193.632812 4.507812 193.6875 4.628906 Z M 193.6875 4.628906 " clip-rule="nonzero"/></clipPath><clipPath id="9ddea16aba"><path d="M 0.152344 0.3125 L 48.679688 0.3125 L 48.679688 46.457031 L 0.152344 46.457031 Z M 0.152344 0.3125 " clip-rule="nonzero"/></clipPath><clipPath id="62f2064b13"><path d="M 24.6875 0.628906 L 31.292969 15.246094 C 31.484375 15.667969 31.882812 15.960938 32.347656 16.011719 L 48.222656 17.769531 C 48.355469 17.78125 48.46875 17.875 48.507812 18 C 48.550781 18.125 48.511719 18.265625 48.414062 18.355469 L 36.613281 29.105469 C 36.269531 29.417969 36.117188 29.886719 36.210938 30.34375 L 39.441406 46.011719 C 39.46875 46.140625 39.417969 46.277344 39.308594 46.355469 C 39.203125 46.433594 39.058594 46.441406 38.941406 46.375 L 25.027344 38.433594 C 24.625 38.203125 24.128906 38.203125 23.726562 38.433594 L 9.8125 46.375 C 9.695312 46.441406 9.554688 46.433594 9.445312 46.355469 C 9.335938 46.277344 9.285156 46.140625 9.3125 46.011719 L 12.542969 30.34375 C 12.636719 29.886719 12.484375 29.417969 12.140625 29.105469 L 0.339844 18.355469 C 0.242188 18.265625 0.203125 18.125 0.246094 18 C 0.285156 17.875 0.398438 17.78125 0.53125 17.769531 L 16.40625 16.011719 C 16.871094 15.960938 17.269531 15.667969 17.460938 15.246094 L 24.070312 0.628906 C 24.125 0.507812 24.246094 0.429688 24.378906 0.429688 C 24.511719 0.429688 24.632812 0.507812 24.6875 0.628906 Z M 24.6875 0.628906 " clip-rule="nonzero"/></clipPath><clipPath id="ecd2b3e671"><rect x="0" width="49" y="0" height="47"/></clipPath><clipPath id="d4af8fa39d"><path d="M 169 4 L 217.949219 4 L 217.949219 49.804688 L 169 49.804688 Z M 169 4 " clip-rule="nonzero"/></clipPath><clipPath id="dc184e2cb6"><path d="M 193.679688 4.628906 L 200.28125 19.238281 C 200.472656 19.660156 200.875 19.949219 201.335938 20 L 217.203125 21.757812 C 217.335938 21.773438 217.445312 21.863281 217.488281 21.988281 C 217.527344 22.117188 217.492188 22.253906 217.394531 22.34375 L 205.597656 33.085938 C 205.253906 33.398438 205.101562 33.871094 205.195312 34.324219 L 208.425781 49.984375 C 208.453125 50.113281 208.402344 50.246094 208.292969 50.324219 C 208.1875 50.402344 208.042969 50.410156 207.925781 50.347656 L 194.019531 42.410156 C 193.617188 42.179688 193.121094 42.179688 192.71875 42.410156 L 178.8125 50.347656 C 178.699219 50.410156 178.554688 50.402344 178.449219 50.324219 C 178.339844 50.246094 178.289062 50.113281 178.316406 49.984375 L 181.546875 34.324219 C 181.640625 33.871094 181.484375 33.398438 181.140625 33.085938 L 169.347656 22.34375 C 169.25 22.253906 169.210938 22.117188 169.253906 21.988281 C 169.292969 21.863281 169.40625 21.773438 169.539062 21.757812 L 185.40625 20 C 185.867188 19.949219 186.269531 19.660156 186.460938 19.238281 L 193.0625 4.628906 C 193.117188 4.507812 193.238281 4.429688 193.371094 4.429688 C 193.503906 4.429688 193.625 4.507812 193.679688 4.628906 Z M 193.679688 4.628906 " clip-rule="nonzero"/></clipPath><clipPath id="545949cddb"><path d="M 225.820312 4.3125 L 274.347656 4.3125 L 274.347656 50.457031 L 225.820312 50.457031 Z M 225.820312 4.3125 " clip-rule="nonzero"/></clipPath><clipPath id="b8a1e58be1"><path d="M 250.355469 4.628906 L 256.960938 19.246094 C 257.152344 19.667969 257.550781 19.960938 258.015625 20.011719 L 273.890625 21.769531 C 274.023438 21.78125 274.136719 21.875 274.175781 22 C 274.21875 22.125 274.179688 22.265625 274.082031 22.355469 L 262.28125 33.105469 C 261.9375 33.417969 261.785156 33.886719 261.878906 34.34375 L 265.109375 50.011719 C 265.136719 50.140625 265.085938 50.277344 264.976562 50.355469 C 264.871094 50.433594 264.726562 50.441406 264.609375 50.375 L 250.695312 42.433594 C 250.292969 42.203125 249.796875 42.203125 249.394531 42.433594 L 235.480469 50.375 C 235.363281 50.441406 235.222656 50.433594 235.113281 50.355469 C 235.003906 50.277344 234.953125 50.140625 234.980469 50.011719 L 238.210938 34.34375 C 238.304688 33.886719 238.152344 33.417969 237.808594 33.105469 L 226.007812 22.355469 C 225.910156 22.265625 225.871094 22.125 225.914062 22 C 225.953125 21.875 226.066406 21.78125 226.199219 21.769531 L 242.074219 20.011719 C 242.539062 19.960938 242.9375 19.667969 243.128906 19.246094 L 249.738281 4.628906 C 249.792969 4.507812 249.914062 4.429688 250.046875 4.429688 C 250.179688 4.429688 250.300781 4.507812 250.355469 4.628906 Z M 250.355469 4.628906 " clip-rule="nonzero"/></clipPath><clipPath id="eb9b614690"><path d="M 0.820312 0.3125 L 49.347656 0.3125 L 49.347656 46.457031 L 0.820312 46.457031 Z M 0.820312 0.3125 " clip-rule="nonzero"/></clipPath><clipPath id="3419fd7fd2"><path d="M 25.355469 0.628906 L 31.960938 15.246094 C 32.152344 15.667969 32.550781 15.960938 33.015625 16.011719 L 48.890625 17.769531 C 49.023438 17.78125 49.136719 17.875 49.175781 18 C 49.21875 18.125 49.179688 18.265625 49.082031 18.355469 L 37.28125 29.105469 C 36.9375 29.417969 36.785156 29.886719 36.878906 30.34375 L 40.109375 46.011719 C 40.136719 46.140625 40.085938 46.277344 39.976562 46.355469 C 39.871094 46.433594 39.726562 46.441406 39.609375 46.375 L 25.695312 38.433594 C 25.292969 38.203125 24.796875 38.203125 24.394531 38.433594 L 10.480469 46.375 C 10.363281 46.441406 10.222656 46.433594 10.113281 46.355469 C 10.003906 46.277344 9.953125 46.140625 9.980469 46.011719 L 13.210938 30.34375 C 13.304688 29.886719 13.152344 29.417969 12.808594 29.105469 L 1.007812 18.355469 C 0.910156 18.265625 0.871094 18.125 0.914062 18 C 0.953125 17.875 1.066406 17.78125 1.199219 17.769531 L 17.074219 16.011719 C 17.539062 15.960938 17.9375 15.667969 18.128906 15.246094 L 24.738281 0.628906 C 24.792969 0.507812 24.914062 0.429688 25.046875 0.429688 C 25.179688 0.429688 25.300781 0.507812 25.355469 0.628906 Z M 25.355469 0.628906 " clip-rule="nonzero"/></clipPath><clipPath id="0c2bae49ba"><rect x="0" width="50" y="0" height="47"/></clipPath><clipPath id="215ace069b"><path d="M 225.460938 4 L 274.617188 4 L 274.617188 49.804688 L 225.460938 49.804688 Z M 225.460938 4 " clip-rule="nonzero"/></clipPath><clipPath id="784f29d3b8"><path d="M 250.347656 4.628906 L 256.949219 19.238281 C 257.140625 19.660156 257.542969 19.949219 258.003906 20 L 273.871094 21.757812 C 274.003906 21.773438 274.113281 21.863281 274.15625 21.988281 C 274.195312 22.117188 274.160156 22.253906 274.0625 22.34375 L 262.265625 33.085938 C 261.921875 33.398438 261.769531 33.871094 261.863281 34.324219 L 265.09375 49.984375 C 265.121094 50.113281 265.070312 50.246094 264.960938 50.324219 C 264.855469 50.402344 264.710938 50.410156 264.59375 50.347656 L 250.6875 42.410156 C 250.285156 42.179688 249.789062 42.179688 249.386719 42.410156 L 235.480469 50.347656 C 235.367188 50.410156 235.222656 50.402344 235.117188 50.324219 C 235.007812 50.246094 234.957031 50.113281 234.984375 49.984375 L 238.210938 34.324219 C 238.308594 33.871094 238.152344 33.398438 237.808594 33.085938 L 226.015625 22.34375 C 225.917969 22.253906 225.878906 22.117188 225.921875 21.988281 C 225.960938 21.863281 226.074219 21.773438 226.207031 21.757812 L 242.074219 20 C 242.535156 19.949219 242.9375 19.660156 243.128906 19.238281 L 249.730469 4.628906 C 249.785156 4.507812 249.90625 4.429688 250.039062 4.429688 C 250.171875 4.429688 250.292969 4.507812 250.347656 4.628906 Z M 250.347656 4.628906 " clip-rule="nonzero"/></clipPath><clipPath id="1f39ffe0ad"><path d="M 3.730469 63.542969 L 52.253906 63.542969 L 52.253906 109.6875 L 3.730469 109.6875 Z M 3.730469 63.542969 " clip-rule="nonzero"/></clipPath><clipPath id="0b9cfcdbca"><path d="M 28.261719 63.859375 L 34.871094 78.476562 C 35.0625 78.902344 35.460938 79.191406 35.925781 79.242188 L 51.800781 81 C 51.933594 81.015625 52.046875 81.105469 52.085938 81.234375 C 52.128906 81.359375 52.089844 81.5 51.992188 81.585938 L 40.191406 92.335938 C 39.847656 92.648438 39.695312 93.121094 39.789062 93.574219 L 43.019531 109.242188 C 43.046875 109.375 42.996094 109.507812 42.886719 109.585938 C 42.777344 109.664062 42.636719 109.671875 42.519531 109.605469 L 28.605469 101.667969 C 28.203125 101.4375 27.707031 101.4375 27.304688 101.667969 L 13.390625 109.605469 C 13.273438 109.671875 13.128906 109.664062 13.023438 109.585938 C 12.914062 109.507812 12.863281 109.375 12.890625 109.242188 L 16.121094 93.574219 C 16.214844 93.121094 16.0625 92.648438 15.71875 92.335938 L 3.917969 81.585938 C 3.820312 81.5 3.78125 81.359375 3.824219 81.234375 C 3.863281 81.105469 3.976562 81.015625 4.109375 81 L 19.984375 79.242188 C 20.449219 79.191406 20.847656 78.902344 21.039062 78.476562 L 27.644531 63.859375 C 27.699219 63.738281 27.820312 63.660156 27.953125 63.660156 C 28.085938 63.660156 28.207031 63.738281 28.261719 63.859375 Z M 28.261719 63.859375 " clip-rule="nonzero"/></clipPath><clipPath id="6446eafa1b"><path d="M 0.730469 0.542969 L 49.253906 0.542969 L 49.253906 46.6875 L 0.730469 46.6875 Z M 0.730469 0.542969 " clip-rule="nonzero"/></clipPath><clipPath id="dbb758eb09"><path d="M 25.261719 0.859375 L 31.871094 15.476562 C 32.0625 15.902344 32.460938 16.191406 32.925781 16.242188 L 48.800781 18 C 48.933594 18.015625 49.046875 18.105469 49.085938 18.234375 C 49.128906 18.359375 49.089844 18.5 48.992188 18.585938 L 37.191406 29.335938 C 36.847656 29.648438 36.695312 30.121094 36.789062 30.574219 L 40.019531 46.242188 C 40.046875 46.375 39.996094 46.507812 39.886719 46.585938 C 39.777344 46.664062 39.636719 46.671875 39.519531 46.605469 L 25.605469 38.667969 C 25.203125 38.4375 24.707031 38.4375 24.304688 38.667969 L 10.390625 46.605469 C 10.273438 46.671875 10.128906 46.664062 10.023438 46.585938 C 9.914062 46.507812 9.863281 46.375 9.890625 46.242188 L 13.121094 30.574219 C 13.214844 30.121094 13.0625 29.648438 12.71875 29.335938 L 0.917969 18.585938 C 0.820312 18.5 0.78125 18.359375 0.824219 18.234375 C 0.863281 18.105469 0.976562 18.015625 1.109375 18 L 16.984375 16.242188 C 17.449219 16.191406 17.847656 15.902344 18.039062 15.476562 L 24.644531 0.859375 C 24.699219 0.738281 24.820312 0.660156 24.953125 0.660156 C 25.085938 0.660156 25.207031 0.738281 25.261719 0.859375 Z M 25.261719 0.859375 " clip-rule="nonzero"/></clipPath><clipPath id="a8bca4b9ac"><rect x="0" width="50" y="0" height="47"/></clipPath><clipPath id="dbc234f380"><path d="M 3.371094 63.175781 L 52.523438 63.175781 L 52.523438 109.039062 L 3.371094 109.039062 Z M 3.371094 63.175781 " clip-rule="nonzero"/></clipPath><clipPath id="4555b1fc1b"><path d="M 28.257812 63.859375 L 34.859375 78.46875 C 35.050781 78.890625 35.449219 79.183594 35.914062 79.234375 L 51.78125 80.988281 C 51.910156 81.003906 52.023438 81.09375 52.066406 81.222656 C 52.105469 81.347656 52.070312 81.488281 51.96875 81.578125 L 40.175781 92.316406 C 39.832031 92.632812 39.679688 93.101562 39.773438 93.558594 L 43.003906 109.214844 C 43.03125 109.347656 42.976562 109.480469 42.871094 109.558594 C 42.761719 109.636719 42.621094 109.644531 42.503906 109.578125 L 28.597656 101.644531 C 28.195312 101.414062 27.699219 101.414062 27.296875 101.644531 L 13.390625 109.578125 C 13.277344 109.644531 13.132812 109.636719 13.023438 109.558594 C 12.917969 109.480469 12.863281 109.347656 12.890625 109.214844 L 16.121094 93.558594 C 16.214844 93.101562 16.0625 92.632812 15.71875 92.316406 L 3.925781 81.578125 C 3.828125 81.488281 3.789062 81.347656 3.832031 81.222656 C 3.871094 81.09375 3.984375 81.003906 4.117188 80.988281 L 19.984375 79.234375 C 20.445312 79.183594 20.84375 78.890625 21.035156 78.46875 L 27.640625 63.859375 C 27.695312 63.738281 27.816406 63.660156 27.949219 63.660156 C 28.082031 63.660156 28.203125 63.738281 28.257812 63.859375 Z M 28.257812 63.859375 " clip-rule="nonzero"/></clipPath><clipPath id="973333a1bb"><path d="M 58.632812 63.542969 L 107.160156 63.542969 L 107.160156 109.6875 L 58.632812 109.6875 Z M 58.632812 63.542969 " clip-rule="nonzero"/></clipPath><clipPath id="163d8e8960"><path d="M 83.167969 63.859375 L 89.773438 78.476562 C 89.964844 78.902344 90.367188 79.191406 90.828125 79.242188 L 106.707031 81 C 106.839844 81.015625 106.949219 81.105469 106.992188 81.234375 C 107.03125 81.359375 106.996094 81.5 106.898438 81.585938 L 95.097656 92.335938 C 94.753906 92.648438 94.597656 93.121094 94.691406 93.574219 L 97.925781 109.242188 C 97.953125 109.375 97.898438 109.507812 97.792969 109.585938 C 97.683594 109.664062 97.539062 109.671875 97.425781 109.605469 L 83.511719 101.667969 C 83.109375 101.4375 82.613281 101.4375 82.207031 101.667969 L 68.296875 109.605469 C 68.179688 109.671875 68.035156 109.664062 67.929688 109.585938 C 67.820312 109.507812 67.769531 109.375 67.796875 109.242188 L 71.027344 93.574219 C 71.121094 93.121094 70.96875 92.648438 70.625 92.335938 L 58.824219 81.585938 C 58.722656 81.5 58.6875 81.359375 58.726562 81.234375 C 58.769531 81.105469 58.882812 81.015625 59.011719 81 L 74.890625 79.242188 C 75.351562 79.191406 75.753906 78.902344 75.945312 78.476562 L 82.550781 63.859375 C 82.605469 63.738281 82.726562 63.660156 82.859375 63.660156 C 82.992188 63.660156 83.113281 63.738281 83.167969 63.859375 Z M 83.167969 63.859375 " clip-rule="nonzero"/></clipPath><clipPath id="58e197f8a4"><path d="M 0.632812 0.542969 L 49.078125 0.542969 L 49.078125 46.6875 L 0.632812 46.6875 Z M 0.632812 0.542969 " clip-rule="nonzero"/></clipPath><clipPath id="05da43e6eb"><path d="M 25.167969 0.859375 L 31.773438 15.476562 C 31.964844 15.902344 32.367188 16.191406 32.828125 16.242188 L 48.707031 18 C 48.839844 18.015625 48.949219 18.105469 48.992188 18.234375 C 49.03125 18.359375 48.996094 18.5 48.898438 18.585938 L 37.097656 29.335938 C 36.753906 29.648438 36.597656 30.121094 36.691406 30.574219 L 39.925781 46.242188 C 39.953125 46.375 39.898438 46.507812 39.792969 46.585938 C 39.683594 46.664062 39.539062 46.671875 39.425781 46.605469 L 25.511719 38.667969 C 25.109375 38.4375 24.613281 38.4375 24.207031 38.667969 L 10.296875 46.605469 C 10.179688 46.671875 10.035156 46.664062 9.929688 46.585938 C 9.820312 46.507812 9.769531 46.375 9.796875 46.242188 L 13.027344 30.574219 C 13.121094 30.121094 12.96875 29.648438 12.625 29.335938 L 0.824219 18.585938 C 0.722656 18.5 0.6875 18.359375 0.726562 18.234375 C 0.769531 18.105469 0.882812 18.015625 1.011719 18 L 16.890625 16.242188 C 17.351562 16.191406 17.753906 15.902344 17.945312 15.476562 L 24.550781 0.859375 C 24.605469 0.738281 24.726562 0.660156 24.859375 0.660156 C 24.992188 0.660156 25.113281 0.738281 25.167969 0.859375 Z M 25.167969 0.859375 " clip-rule="nonzero"/></clipPath><clipPath id="d26ebcf4a0"><rect x="0" width="50" y="0" height="47"/></clipPath><clipPath id="e902e35f41"><path d="M 58.277344 63.175781 L 107 63.175781 L 107 109.039062 L 58.277344 109.039062 Z M 58.277344 63.175781 " clip-rule="nonzero"/></clipPath><clipPath id="30c7142468"><path d="M 83.160156 63.859375 L 89.765625 78.46875 C 89.957031 78.890625 90.355469 79.183594 90.816406 79.234375 L 106.683594 80.988281 C 106.816406 81.003906 106.929688 81.09375 106.96875 81.222656 C 107.011719 81.347656 106.976562 81.488281 106.875 81.578125 L 95.082031 92.316406 C 94.738281 92.632812 94.585938 93.101562 94.679688 93.558594 L 97.910156 109.214844 C 97.9375 109.347656 97.882812 109.480469 97.777344 109.558594 C 97.667969 109.636719 97.523438 109.644531 97.410156 109.578125 L 83.503906 101.644531 C 83.101562 101.414062 82.605469 101.414062 82.203125 101.644531 L 68.296875 109.578125 C 68.179688 109.644531 68.039062 109.636719 67.929688 109.558594 C 67.824219 109.480469 67.769531 109.347656 67.796875 109.214844 L 71.027344 93.558594 C 71.121094 93.101562 70.96875 92.632812 70.625 92.316406 L 58.832031 81.578125 C 58.730469 81.488281 58.695312 81.347656 58.738281 81.222656 C 58.777344 81.09375 58.890625 81.003906 59.019531 80.988281 L 74.890625 79.234375 C 75.351562 79.183594 75.75 78.890625 75.941406 78.46875 L 82.542969 63.859375 C 82.597656 63.738281 82.71875 63.660156 82.851562 63.660156 C 82.988281 63.660156 83.105469 63.738281 83.160156 63.859375 Z M 83.160156 63.859375 " clip-rule="nonzero"/></clipPath><clipPath id="e03ecee234"><path d="M 113.488281 63.542969 L 162 63.542969 L 162 109.6875 L 113.488281 109.6875 Z M 113.488281 63.542969 " clip-rule="nonzero"/></clipPath><clipPath id="10946d1bfd"><path d="M 138.023438 63.859375 L 144.628906 78.476562 C 144.820312 78.902344 145.222656 79.191406 145.683594 79.242188 L 161.5625 81 C 161.695312 81.015625 161.804688 81.105469 161.847656 81.234375 C 161.886719 81.359375 161.851562 81.5 161.753906 81.585938 L 149.949219 92.335938 C 149.605469 92.648438 149.453125 93.121094 149.546875 93.574219 L 152.777344 109.242188 C 152.804688 109.375 152.753906 109.507812 152.644531 109.585938 C 152.539062 109.664062 152.394531 109.671875 152.28125 109.605469 L 138.367188 101.667969 C 137.960938 101.4375 137.464844 101.4375 137.0625 101.667969 L 123.148438 109.605469 C 123.035156 109.671875 122.890625 109.664062 122.78125 109.585938 C 122.675781 109.507812 122.621094 109.375 122.648438 109.242188 L 125.882812 93.574219 C 125.976562 93.121094 125.824219 92.648438 125.480469 92.335938 L 113.675781 81.585938 C 113.578125 81.5 113.542969 81.359375 113.582031 81.234375 C 113.625 81.105469 113.734375 81.015625 113.867188 81 L 129.746094 79.242188 C 130.207031 79.191406 130.609375 78.902344 130.800781 78.476562 L 137.40625 63.859375 C 137.460938 63.738281 137.582031 63.660156 137.714844 63.660156 C 137.847656 63.660156 137.96875 63.738281 138.023438 63.859375 Z M 138.023438 63.859375 " clip-rule="nonzero"/></clipPath><clipPath id="44057c07fa"><path d="M 0.488281 0.542969 L 49 0.542969 L 49 46.6875 L 0.488281 46.6875 Z M 0.488281 0.542969 " clip-rule="nonzero"/></clipPath><clipPath id="f1a0798c3c"><path d="M 25.023438 0.859375 L 31.628906 15.476562 C 31.820312 15.902344 32.222656 16.191406 32.683594 16.242188 L 48.5625 18 C 48.695312 18.015625 48.804688 18.105469 48.847656 18.234375 C 48.886719 18.359375 48.851562 18.5 48.753906 18.585938 L 36.949219 29.335938 C 36.605469 29.648438 36.453125 30.121094 36.546875 30.574219 L 39.777344 46.242188 C 39.804688 46.375 39.753906 46.507812 39.644531 46.585938 C 39.539062 46.664062 39.394531 46.671875 39.28125 46.605469 L 25.367188 38.667969 C 24.960938 38.4375 24.464844 38.4375 24.0625 38.667969 L 10.148438 46.605469 C 10.035156 46.671875 9.890625 46.664062 9.78125 46.585938 C 9.675781 46.507812 9.621094 46.375 9.648438 46.242188 L 12.882812 30.574219 C 12.976562 30.121094 12.824219 29.648438 12.480469 29.335938 L 0.675781 18.585938 C 0.578125 18.5 0.542969 18.359375 0.582031 18.234375 C 0.625 18.105469 0.734375 18.015625 0.867188 18 L 16.746094 16.242188 C 17.207031 16.191406 17.609375 15.902344 17.800781 15.476562 L 24.40625 0.859375 C 24.460938 0.738281 24.582031 0.660156 24.714844 0.660156 C 24.847656 0.660156 24.96875 0.738281 25.023438 0.859375 Z M 25.023438 0.859375 " clip-rule="nonzero"/></clipPath><clipPath id="de706f108f"><rect x="0" width="49" y="0" height="47"/></clipPath><clipPath id="86c95548ad"><path d="M 113.128906 63.175781 L 162 63.175781 L 162 109.039062 L 113.128906 109.039062 Z M 113.128906 63.175781 " clip-rule="nonzero"/></clipPath><clipPath id="f082664065"><path d="M 138.015625 63.859375 L 144.617188 78.46875 C 144.808594 78.890625 145.210938 79.183594 145.671875 79.234375 L 161.539062 80.988281 C 161.671875 81.003906 161.785156 81.09375 161.824219 81.222656 C 161.867188 81.347656 161.828125 81.488281 161.730469 81.578125 L 149.9375 92.316406 C 149.59375 92.632812 149.4375 93.101562 149.53125 93.558594 L 152.761719 109.214844 C 152.789062 109.347656 152.738281 109.480469 152.628906 109.558594 C 152.523438 109.636719 152.378906 109.644531 152.261719 109.578125 L 138.359375 101.644531 C 137.953125 101.414062 137.460938 101.414062 137.054688 101.644531 L 123.152344 109.578125 C 123.035156 109.644531 122.890625 109.636719 122.785156 109.558594 C 122.675781 109.480469 122.625 109.347656 122.652344 109.214844 L 125.882812 93.558594 C 125.976562 93.101562 125.824219 92.632812 125.480469 92.316406 L 113.683594 81.578125 C 113.585938 81.488281 113.550781 81.347656 113.589844 81.222656 C 113.632812 81.09375 113.742188 81.003906 113.875 80.988281 L 129.742188 79.234375 C 130.203125 79.183594 130.605469 78.890625 130.796875 78.46875 L 137.398438 63.859375 C 137.453125 63.738281 137.574219 63.660156 137.707031 63.660156 C 137.839844 63.660156 137.960938 63.738281 138.015625 63.859375 Z M 138.015625 63.859375 " clip-rule="nonzero"/></clipPath><clipPath id="5c9c47c965"><path d="M 169.152344 63.542969 L 217.679688 63.542969 L 217.679688 109.6875 L 169.152344 109.6875 Z M 169.152344 63.542969 " clip-rule="nonzero"/></clipPath><clipPath id="1add113fb7"><path d="M 193.6875 63.859375 L 200.292969 78.476562 C 200.484375 78.902344 200.882812 79.191406 201.347656 79.242188 L 217.222656 81 C 217.355469 81.015625 217.46875 81.105469 217.507812 81.234375 C 217.550781 81.359375 217.511719 81.5 217.414062 81.585938 L 205.613281 92.335938 C 205.269531 92.648438 205.117188 93.121094 205.210938 93.574219 L 208.441406 109.242188 C 208.46875 109.375 208.417969 109.507812 208.308594 109.585938 C 208.203125 109.664062 208.058594 109.671875 207.941406 109.605469 L 194.027344 101.667969 C 193.625 101.4375 193.128906 101.4375 192.726562 101.667969 L 178.8125 109.605469 C 178.695312 109.671875 178.554688 109.664062 178.445312 109.585938 C 178.335938 109.507812 178.285156 109.375 178.3125 109.242188 L 181.542969 93.574219 C 181.636719 93.121094 181.484375 92.648438 181.140625 92.335938 L 169.339844 81.585938 C 169.242188 81.5 169.203125 81.359375 169.246094 81.234375 C 169.285156 81.105469 169.398438 81.015625 169.53125 81 L 185.40625 79.242188 C 185.871094 79.191406 186.269531 78.902344 186.460938 78.476562 L 193.070312 63.859375 C 193.125 63.738281 193.246094 63.660156 193.378906 63.660156 C 193.511719 63.660156 193.632812 63.738281 193.6875 63.859375 Z M 193.6875 63.859375 " clip-rule="nonzero"/></clipPath><clipPath id="3e50db4a82"><path d="M 0.152344 0.542969 L 48.679688 0.542969 L 48.679688 46.6875 L 0.152344 46.6875 Z M 0.152344 0.542969 " clip-rule="nonzero"/></clipPath><clipPath id="cb1f226b69"><path d="M 24.6875 0.859375 L 31.292969 15.476562 C 31.484375 15.902344 31.882812 16.191406 32.347656 16.242188 L 48.222656 18 C 48.355469 18.015625 48.46875 18.105469 48.507812 18.234375 C 48.550781 18.359375 48.511719 18.5 48.414062 18.585938 L 36.613281 29.335938 C 36.269531 29.648438 36.117188 30.121094 36.210938 30.574219 L 39.441406 46.242188 C 39.46875 46.375 39.417969 46.507812 39.308594 46.585938 C 39.203125 46.664062 39.058594 46.671875 38.941406 46.605469 L 25.027344 38.667969 C 24.625 38.4375 24.128906 38.4375 23.726562 38.667969 L 9.8125 46.605469 C 9.695312 46.671875 9.554688 46.664062 9.445312 46.585938 C 9.335938 46.507812 9.285156 46.375 9.3125 46.242188 L 12.542969 30.574219 C 12.636719 30.121094 12.484375 29.648438 12.140625 29.335938 L 0.339844 18.585938 C 0.242188 18.5 0.203125 18.359375 0.246094 18.234375 C 0.285156 18.105469 0.398438 18.015625 0.53125 18 L 16.40625 16.242188 C 16.871094 16.191406 17.269531 15.902344 17.460938 15.476562 L 24.070312 0.859375 C 24.125 0.738281 24.246094 0.660156 24.378906 0.660156 C 24.511719 0.660156 24.632812 0.738281 24.6875 0.859375 Z M 24.6875 0.859375 " clip-rule="nonzero"/></clipPath><clipPath id="a50dcb7da3"><rect x="0" width="49" y="0" height="47"/></clipPath><clipPath id="28a918f4e0"><path d="M 169 63.175781 L 217.949219 63.175781 L 217.949219 109.039062 L 169 109.039062 Z M 169 63.175781 " clip-rule="nonzero"/></clipPath><clipPath id="6de0e0a52d"><path d="M 193.679688 63.859375 L 200.28125 78.46875 C 200.472656 78.890625 200.875 79.183594 201.335938 79.234375 L 217.203125 80.988281 C 217.335938 81.003906 217.445312 81.09375 217.488281 81.222656 C 217.527344 81.347656 217.492188 81.488281 217.394531 81.578125 L 205.597656 92.316406 C 205.253906 92.632812 205.101562 93.101562 205.195312 93.558594 L 208.425781 109.214844 C 208.453125 109.347656 208.402344 109.480469 208.292969 109.558594 C 208.1875 109.636719 208.042969 109.644531 207.925781 109.578125 L 194.019531 101.644531 C 193.617188 101.414062 193.121094 101.414062 192.71875 101.644531 L 178.8125 109.578125 C 178.699219 109.644531 178.554688 109.636719 178.449219 109.558594 C 178.339844 109.480469 178.289062 109.347656 178.316406 109.214844 L 181.546875 93.558594 C 181.640625 93.101562 181.484375 92.632812 181.140625 92.316406 L 169.347656 81.578125 C 169.25 81.488281 169.210938 81.347656 169.253906 81.222656 C 169.292969 81.09375 169.40625 81.003906 169.539062 80.988281 L 185.40625 79.234375 C 185.867188 79.183594 186.269531 78.890625 186.460938 78.46875 L 193.0625 63.859375 C 193.117188 63.738281 193.238281 63.660156 193.371094 63.660156 C 193.503906 63.660156 193.625 63.738281 193.679688 63.859375 Z M 193.679688 63.859375 " clip-rule="nonzero"/></clipPath><clipPath id="d210b92700"><path d="M 225.820312 63.542969 L 274.347656 63.542969 L 274.347656 109.6875 L 225.820312 109.6875 Z M 225.820312 63.542969 " clip-rule="nonzero"/></clipPath><clipPath id="958931c96b"><path d="M 250.355469 63.859375 L 256.960938 78.476562 C 257.152344 78.902344 257.550781 79.191406 258.015625 79.242188 L 273.890625 81 C 274.023438 81.015625 274.136719 81.105469 274.175781 81.234375 C 274.21875 81.359375 274.179688 81.5 274.082031 81.585938 L 262.28125 92.335938 C 261.9375 92.648438 261.785156 93.121094 261.878906 93.574219 L 265.109375 109.242188 C 265.136719 109.375 265.085938 109.507812 264.976562 109.585938 C 264.871094 109.664062 264.726562 109.671875 264.609375 109.605469 L 250.695312 101.667969 C 250.292969 101.4375 249.796875 101.4375 249.394531 101.667969 L 235.480469 109.605469 C 235.363281 109.671875 235.222656 109.664062 235.113281 109.585938 C 235.003906 109.507812 234.953125 109.375 234.980469 109.242188 L 238.210938 93.574219 C 238.304688 93.121094 238.152344 92.648438 237.808594 92.335938 L 226.007812 81.585938 C 225.910156 81.5 225.871094 81.359375 225.914062 81.234375 C 225.953125 81.105469 226.066406 81.015625 226.199219 81 L 242.074219 79.242188 C 242.539062 79.191406 242.9375 78.902344 243.128906 78.476562 L 249.738281 63.859375 C 249.792969 63.738281 249.914062 63.660156 250.046875 63.660156 C 250.179688 63.660156 250.300781 63.738281 250.355469 63.859375 Z M 250.355469 63.859375 " clip-rule="nonzero"/></clipPath><clipPath id="6d44116127"><path d="M 0.820312 0.542969 L 49.347656 0.542969 L 49.347656 46.6875 L 0.820312 46.6875 Z M 0.820312 0.542969 " clip-rule="nonzero"/></clipPath><clipPath id="a6d15f54ab"><path d="M 25.355469 0.859375 L 31.960938 15.476562 C 32.152344 15.902344 32.550781 16.191406 33.015625 16.242188 L 48.890625 18 C 49.023438 18.015625 49.136719 18.105469 49.175781 18.234375 C 49.21875 18.359375 49.179688 18.5 49.082031 18.585938 L 37.28125 29.335938 C 36.9375 29.648438 36.785156 30.121094 36.878906 30.574219 L 40.109375 46.242188 C 40.136719 46.375 40.085938 46.507812 39.976562 46.585938 C 39.871094 46.664062 39.726562 46.671875 39.609375 46.605469 L 25.695312 38.667969 C 25.292969 38.4375 24.796875 38.4375 24.394531 38.667969 L 10.480469 46.605469 C 10.363281 46.671875 10.222656 46.664062 10.113281 46.585938 C 10.003906 46.507812 9.953125 46.375 9.980469 46.242188 L 13.210938 30.574219 C 13.304688 30.121094 13.152344 29.648438 12.808594 29.335938 L 1.007812 18.585938 C 0.910156 18.5 0.871094 18.359375 0.914062 18.234375 C 0.953125 18.105469 1.066406 18.015625 1.199219 18 L 17.074219 16.242188 C 17.539062 16.191406 17.9375 15.902344 18.128906 15.476562 L 24.738281 0.859375 C 24.792969 0.738281 24.914062 0.660156 25.046875 0.660156 C 25.179688 0.660156 25.300781 0.738281 25.355469 0.859375 Z M 25.355469 0.859375 " clip-rule="nonzero"/></clipPath><clipPath id="52e2d09981"><rect x="0" width="50" y="0" height="47"/></clipPath><clipPath id="453c714b3e"><path d="M 225.460938 63.175781 L 274.617188 63.175781 L 274.617188 109.039062 L 225.460938 109.039062 Z M 225.460938 63.175781 " clip-rule="nonzero"/></clipPath><clipPath id="335ffc38d3"><path d="M 250.347656 63.859375 L 256.949219 78.46875 C 257.140625 78.890625 257.542969 79.183594 258.003906 79.234375 L 273.871094 80.988281 C 274.003906 81.003906 274.113281 81.09375 274.15625 81.222656 C 274.195312 81.347656 274.160156 81.488281 274.0625 81.578125 L 262.265625 92.316406 C 261.921875 92.632812 261.769531 93.101562 261.863281 93.558594 L 265.09375 109.214844 C 265.121094 109.347656 265.070312 109.480469 264.960938 109.558594 C 264.855469 109.636719 264.710938 109.644531 264.59375 109.578125 L 250.6875 101.644531 C 250.285156 101.414062 249.789062 101.414062 249.386719 101.644531 L 235.480469 109.578125 C 235.367188 109.644531 235.222656 109.636719 235.117188 109.558594 C 235.007812 109.480469 234.957031 109.347656 234.984375 109.214844 L 238.210938 93.558594 C 238.308594 93.101562 238.152344 92.632812 237.808594 92.316406 L 226.015625 81.578125 C 225.917969 81.488281 225.878906 81.347656 225.921875 81.222656 C 225.960938 81.09375 226.074219 81.003906 226.207031 80.988281 L 242.074219 79.234375 C 242.535156 79.183594 242.9375 78.890625 243.128906 78.46875 L 249.730469 63.859375 C 249.785156 63.738281 249.90625 63.660156 250.039062 63.660156 C 250.171875 63.660156 250.292969 63.738281 250.347656 63.859375 Z M 250.347656 63.859375 " clip-rule="nonzero"/></clipPath><clipPath id="5c89a950aa"><rect x="0" width="278" y="0" height="114"/></clipPath></defs><g clip-path="url(#8e40e35e60)"><g clip-path="url(#b5583561d6)"><g transform="matrix(1, 0, 0, 1, 2, 2)"><g clip-path="url(#542bdc61ff)"><g clip-path="url(#33f898cd05)"><g clip-path="url(#3a90865fde)"><path fill="#104762" d="M 0.664062 0.664062 L 295.335938 0.664062 L 295.335938 295.335938 L 0.664062 295.335938 Z M 0.664062 0.664062 " fill-opacity="1" fill-rule="nonzero"/></g></g></g></g></g></g><g clip-path="url(#7fc0fa3cb7)"><g clip-path="url(#3ab3bc2ca5)"><path stroke-linecap="butt" transform="matrix(0.75, 0, 0, 0.75, 2.662506, 2.662558)" fill="none" stroke-linejoin="miter" d="M 14.002077 0.00200551 L 378.892732 0.00200551 C 382.606274 0.00200551 386.163565 1.475964 388.788566 4.100964 C 391.413566 6.725964 392.892733 10.288465 392.892733 14.002007 L 392.892733 378.892661 C 392.892733 382.606203 391.413566 386.163495 388.788566 388.788496 C 386.163565 391.413496 382.606274 392.892663 378.892732 392.892663 L 14.002077 392.892663 C 10.288535 392.892663 6.726035 391.413496 4.101034 388.788496 C 1.476034 386.163495 0.00207562 382.606203 0.00207562 378.892661 L 0.00207562 14.002007 C 0.00207562 10.288465 1.476034 6.725964 4.101034 4.100964 C 6.726035 1.475964 10.288535 0.00200551 14.002077 0.00200551 Z M 14.002077 0.00200551 " stroke="#000000" stroke-width="6" stroke-opacity="1" stroke-miterlimit="4"/></g></g><g transform="matrix(1, 0, 0, 1, 11, 93)"><g clip-path="url(#5c89a950aa)"><g clip-path="url(#ef16606413)"><g clip-path="url(#c805de7efa)"><g transform="matrix(1, 0, 0, 1, 3, 4)"><g clip-path="url(#1743bad65e)"><g clip-path="url(#197114f28d)"><g clip-path="url(#fccea67870)"><path fill="#ffde59" d="M 0.363281 -0.0546875 L 49.621094 -0.0546875 L 49.621094 46.824219 L 0.363281 46.824219 Z M 0.363281 -0.0546875 " fill-opacity="1" fill-rule="nonzero"/></g></g></g></g></g></g><g clip-path="url(#56d45c23d5)"><g clip-path="url(#7b376fa7f2)"><path stroke-linecap="butt" transform="matrix(2.183833, 0, 0, 2.183833, 3.370615, 3.944406)" fill="none" stroke-linejoin="miter" d="M 11.396108 0.31344 L 14.419032 7.003225 C 14.506679 7.196406 14.689128 7.328771 14.901985 7.352024 L 22.167736 8.156945 C 22.226763 8.1641 22.278636 8.20524 22.298312 8.262479 C 22.316199 8.321507 22.300101 8.384112 22.253594 8.425252 L 16.85347 13.344212 C 16.696064 13.487309 16.626304 13.703743 16.669233 13.911234 L 18.148498 21.082183 C 18.161019 21.141211 18.135977 21.202027 18.087682 21.237801 C 18.037598 21.273575 17.973204 21.277153 17.919543 21.248533 L 11.551726 17.613869 C 11.367488 17.508335 11.140322 17.508335 10.956084 17.613869 L 4.588267 21.248533 C 4.536394 21.277153 4.470212 21.273575 4.420128 21.237801 C 4.371833 21.202027 4.346791 21.141211 4.359312 21.082183 L 5.838577 13.911234 C 5.881506 13.703743 5.811747 13.487309 5.65434 13.344212 L 0.254216 8.425252 C 0.209498 8.384112 0.191611 8.321507 0.211287 8.262479 C 0.229174 8.20524 0.281047 8.1641 0.341863 8.156945 L 7.607614 7.352024 C 7.818682 7.328771 8.001131 7.196406 8.088778 7.003225 L 11.113491 0.31344 C 11.138533 0.25799 11.193983 0.222215 11.254799 0.222215 C 11.315616 0.222215 11.371066 0.25799 11.396108 0.31344 Z M 11.396108 0.31344 " stroke="#000000" stroke-width="0.686866" stroke-opacity="1" stroke-miterlimit="4"/></g></g><g clip-path="url(#759821bcae)"><g clip-path="url(#9d637cc1c8)"><g transform="matrix(1, 0, 0, 1, 58, 4)"><g clip-path="url(#a27cf682dc)"><g clip-path="url(#f1335bcb36)"><g clip-path="url(#31ff4386a3)"><path fill="#ffde59" d="M 0.269531 -0.0546875 L 49.527344 -0.0546875 L 49.527344 46.824219 L 0.269531 46.824219 Z M 0.269531 -0.0546875 " fill-opacity="1" fill-rule="nonzero"/></g></g></g></g></g></g><g clip-path="url(#9ea2008521)"><g clip-path="url(#e29b32db43)"><path stroke-linecap="butt" transform="matrix(2.183833, 0, 0, 2.183833, 58.276226, 3.944406)" fill="none" stroke-linejoin="miter" d="M 11.394612 0.31344 L 14.419325 7.003225 C 14.506972 7.196406 14.689421 7.328771 14.900489 7.352024 L 22.16624 8.156945 C 22.227056 8.1641 22.278929 8.20524 22.296816 8.262479 C 22.316492 8.321507 22.298605 8.384112 22.253887 8.425252 L 16.853763 13.344212 C 16.696356 13.487309 16.626597 13.703743 16.669526 13.911234 L 18.148791 21.082183 C 18.161312 21.141211 18.13627 21.202027 18.087975 21.237801 C 18.037891 21.273575 17.971709 21.277153 17.919836 21.248533 L 11.552019 17.613869 C 11.367781 17.508335 11.140615 17.508335 10.956377 17.613869 L 4.58856 21.248533 C 4.534899 21.277153 4.470505 21.273575 4.420421 21.237801 C 4.372126 21.202027 4.347084 21.141211 4.359605 21.082183 L 5.83887 13.911234 C 5.881799 13.703743 5.812039 13.487309 5.654633 13.344212 L 0.254509 8.425252 C 0.208003 8.384112 0.191904 8.321507 0.21158 8.262479 C 0.229467 8.20524 0.28134 8.1641 0.340367 8.156945 L 7.607907 7.352024 C 7.818975 7.328771 8.001424 7.196406 8.089071 7.003225 L 11.111995 0.31344 C 11.137037 0.25799 11.192487 0.222215 11.253304 0.222215 C 11.315909 0.222215 11.36957 0.25799 11.394612 0.31344 Z M 11.394612 0.31344 " stroke="#000000" stroke-width="0.686866" stroke-opacity="1" stroke-miterlimit="4"/></g></g><g clip-path="url(#72a881a80e)"><g clip-path="url(#129c5225f1)"><g transform="matrix(1, 0, 0, 1, 113, 4)"><g clip-path="url(#f6024ea66c)"><g clip-path="url(#aac63b6a6a)"><g clip-path="url(#b21745635a)"><path fill="#ffde59" d="M 0.121094 -0.0546875 L 49.382812 -0.0546875 L 49.382812 46.824219 L 0.121094 46.824219 Z M 0.121094 -0.0546875 " fill-opacity="1" fill-rule="nonzero"/></g></g></g></g></g></g><g clip-path="url(#bedb6e8f86)"><g clip-path="url(#6889a605af)"><path stroke-linecap="butt" transform="matrix(2.183833, 0, 0, 2.183833, 113.130297, 3.944406)" fill="none" stroke-linejoin="miter" d="M 11.395252 0.31344 L 14.418176 7.003225 C 14.505823 7.196406 14.690061 7.328771 14.901129 7.352024 L 22.16688 8.156945 C 22.227696 8.1641 22.27778 8.20524 22.297456 8.262479 C 22.317132 8.321507 22.299244 8.384112 22.254527 8.425252 L 16.854403 13.344212 C 16.696996 13.487309 16.625448 13.703743 16.668377 13.911234 L 18.147642 21.082183 C 18.160163 21.141211 18.13691 21.202027 18.086826 21.237801 C 18.038531 21.273575 17.972348 21.277153 17.918687 21.248533 L 11.552658 17.613869 C 11.366632 17.508335 11.141255 17.508335 10.955228 17.613869 L 4.5892 21.248533 C 4.535538 21.277153 4.469356 21.273575 4.421061 21.237801 C 4.370977 21.202027 4.347724 21.141211 4.360245 21.082183 L 5.83951 13.911234 C 5.882439 13.703743 5.812679 13.487309 5.655273 13.344212 L 0.25336 8.425252 C 0.208642 8.384112 0.192544 8.321507 0.210431 8.262479 C 0.230107 8.20524 0.280191 8.1641 0.341007 8.156945 L 7.606758 7.352024 C 7.817826 7.328771 8.002064 7.196406 8.089711 7.003225 L 11.112635 0.31344 C 11.137677 0.25799 11.193127 0.222215 11.253943 0.222215 C 11.31476 0.222215 11.37021 0.25799 11.395252 0.31344 Z M 11.395252 0.31344 " stroke="#000000" stroke-width="0.686866" stroke-opacity="1" stroke-miterlimit="4"/></g></g><g clip-path="url(#caf1523392)"><g clip-path="url(#b56517c590)"><g transform="matrix(1, 0, 0, 1, 169, 4)"><g clip-path="url(#ecd2b3e671)"><g clip-path="url(#9ddea16aba)"><g clip-path="url(#62f2064b13)"><path fill="#ffde59" d="M -0.214844 -0.0546875 L 49.042969 -0.0546875 L 49.042969 46.824219 L -0.214844 46.824219 Z M -0.214844 -0.0546875 " fill-opacity="1" fill-rule="nonzero"/></g></g></g></g></g></g><g clip-path="url(#d4af8fa39d)"><g clip-path="url(#dc184e2cb6)"><path stroke-linecap="butt" transform="matrix(2.183833, 0, 0, 2.183833, 168.79339, 3.944406)" fill="none" stroke-linejoin="miter" d="M 11.395696 0.31344 L 14.418621 7.003225 C 14.506267 7.196406 14.690505 7.328771 14.901573 7.352024 L 22.167324 8.156945 C 22.22814 8.1641 22.278224 8.20524 22.2979 8.262479 C 22.315787 8.321507 22.299689 8.384112 22.254971 8.425252 L 16.853059 13.344212 C 16.695652 13.487309 16.625892 13.703743 16.668821 13.911234 L 18.148087 21.082183 C 18.160608 21.141211 18.137354 21.202027 18.08727 21.237801 C 18.038975 21.273575 17.972793 21.277153 17.919131 21.248533 L 11.551314 17.613869 C 11.367077 17.508335 11.13991 17.508335 10.955673 17.613869 L 4.587855 21.248533 C 4.535983 21.277153 4.4698 21.273575 4.421505 21.237801 C 4.371421 21.202027 4.348168 21.141211 4.360689 21.082183 L 5.839954 13.911234 C 5.882883 13.703743 5.811335 13.487309 5.653928 13.344212 L 0.253804 8.425252 C 0.209087 8.384112 0.191199 8.321507 0.210875 8.262479 C 0.228762 8.20524 0.280635 8.1641 0.341451 8.156945 L 7.607202 7.352024 C 7.818271 7.328771 8.002508 7.196406 8.090155 7.003225 L 11.113079 0.31344 C 11.138121 0.25799 11.193571 0.222215 11.254388 0.222215 C 11.315204 0.222215 11.370654 0.25799 11.395696 0.31344 Z M 11.395696 0.31344 " stroke="#000000" stroke-width="0.686866" stroke-opacity="1" stroke-miterlimit="4"/></g></g><g clip-path="url(#545949cddb)"><g clip-path="url(#b8a1e58be1)"><g transform="matrix(1, 0, 0, 1, 225, 4)"><g clip-path="url(#0c2bae49ba)"><g clip-path="url(#eb9b614690)"><g clip-path="url(#3419fd7fd2)"><path fill="#8885ba" d="M 0.453125 -0.0546875 L 49.710938 -0.0546875 L 49.710938 46.824219 L 0.453125 46.824219 Z M 0.453125 -0.0546875 " fill-opacity="1" fill-rule="nonzero"/></g></g></g></g></g></g><g clip-path="url(#215ace069b)"><g clip-path="url(#784f29d3b8)"><path stroke-linecap="butt" transform="matrix(2.183833, 0, 0, 2.183833, 225.461304, 3.944406)" fill="none" stroke-linejoin="miter" d="M 11.395721 0.31344 L 14.418645 7.003225 C 14.506292 7.196406 14.69053 7.328771 14.901598 7.352024 L 22.167349 8.156945 C 22.228165 8.1641 22.278249 8.20524 22.297925 8.262479 C 22.315812 8.321507 22.299714 8.384112 22.254996 8.425252 L 16.853083 13.344212 C 16.695677 13.487309 16.625917 13.703743 16.668846 13.911234 L 18.148111 21.082183 C 18.160632 21.141211 18.137379 21.202027 18.087295 21.237801 C 18.039 21.273575 17.972817 21.277153 17.919156 21.248533 L 11.551339 17.613869 C 11.367101 17.508335 11.139935 17.508335 10.955697 17.613869 L 4.58788 21.248533 C 4.536008 21.277153 4.469825 21.273575 4.42153 21.237801 C 4.371446 21.202027 4.348193 21.141211 4.360714 21.082183 L 5.83819 13.911234 C 5.882908 13.703743 5.81136 13.487309 5.653953 13.344212 L 0.253829 8.425252 C 0.209111 8.384112 0.191224 8.321507 0.2109 8.262479 C 0.228787 8.20524 0.28066 8.1641 0.341476 8.156945 L 7.607227 7.352024 C 7.818295 7.328771 8.002533 7.196406 8.09018 7.003225 L 11.113104 0.31344 C 11.138146 0.25799 11.193596 0.222215 11.254413 0.222215 C 11.315229 0.222215 11.370679 0.25799 11.395721 0.31344 Z M 11.395721 0.31344 " stroke="#000000" stroke-width="0.686866" stroke-opacity="1" stroke-miterlimit="4"/></g></g><g clip-path="url(#1f39ffe0ad)"><g clip-path="url(#0b9cfcdbca)"><g transform="matrix(1, 0, 0, 1, 3, 63)"><g clip-path="url(#a8bca4b9ac)"><g clip-path="url(#6446eafa1b)"><g clip-path="url(#dbb758eb09)"><path fill="#8885ba" d="M 0.363281 0.175781 L 49.621094 0.175781 L 49.621094 47.054688 L 0.363281 47.054688 Z M 0.363281 0.175781 " fill-opacity="1" fill-rule="nonzero"/></g></g></g></g></g></g><g clip-path="url(#dbc234f380)"><g clip-path="url(#4555b1fc1b)"><path stroke-linecap="butt" transform="matrix(2.183833, 0, 0, 2.183833, 3.370615, 63.176706)" fill="none" stroke-linejoin="miter" d="M 11.396108 0.312601 L 14.419032 7.002387 C 14.506679 7.195568 14.689128 7.329721 14.901985 7.352974 L 22.167736 8.156106 C 22.226763 8.163261 22.278636 8.204402 22.298312 8.263429 C 22.316199 8.320668 22.300101 8.385062 22.253594 8.426202 L 16.85347 13.343373 C 16.696064 13.488259 16.626304 13.702905 16.669233 13.912184 L 18.148498 21.081345 C 18.161019 21.142161 18.135977 21.202977 18.087682 21.238751 C 18.037598 21.274525 17.973204 21.278103 17.919543 21.247695 L 11.551726 17.614819 C 11.367488 17.509285 11.140322 17.509285 10.956084 17.614819 L 4.588267 21.247695 C 4.536394 21.278103 4.470212 21.274525 4.420128 21.238751 C 4.371833 21.202977 4.346791 21.142161 4.359312 21.081345 L 5.838577 13.912184 C 5.881506 13.702905 5.811747 13.488259 5.65434 13.343373 L 0.254216 8.426202 C 0.209498 8.385062 0.191611 8.320668 0.211287 8.263429 C 0.229174 8.204402 0.281047 8.163261 0.341863 8.156106 L 7.607614 7.352974 C 7.818682 7.329721 8.001131 7.195568 8.088778 7.002387 L 11.113491 0.312601 C 11.138533 0.257151 11.193983 0.221377 11.254799 0.221377 C 11.315616 0.221377 11.371066 0.257151 11.396108 0.312601 Z M 11.396108 0.312601 " stroke="#000000" stroke-width="0.686866" stroke-opacity="1" stroke-miterlimit="4"/></g></g><g clip-path="url(#973333a1bb)"><g clip-path="url(#163d8e8960)"><g transform="matrix(1, 0, 0, 1, 58, 63)"><g clip-path="url(#d26ebcf4a0)"><g clip-path="url(#58e197f8a4)"><g clip-path="url(#05da43e6eb)"><path fill="#8885ba" d="M 0.269531 0.175781 L 49.527344 0.175781 L 49.527344 47.054688 L 0.269531 47.054688 Z M 0.269531 0.175781 " fill-opacity="1" fill-rule="nonzero"/></g></g></g></g></g></g><g clip-path="url(#e902e35f41)"><g clip-path="url(#30c7142468)"><path stroke-linecap="butt" transform="matrix(2.183833, 0, 0, 2.183833, 58.276226, 63.176706)" fill="none" stroke-linejoin="miter" d="M 11.394612 0.312601 L 14.419325 7.002387 C 14.506972 7.195568 14.689421 7.329721 14.900489 7.352974 L 22.16624 8.156106 C 22.227056 8.163261 22.278929 8.204402 22.296816 8.263429 C 22.316492 8.320668 22.298605 8.385062 22.253887 8.426202 L 16.853763 13.343373 C 16.696356 13.488259 16.626597 13.702905 16.669526 13.912184 L 18.148791 21.081345 C 18.161312 21.142161 18.13627 21.202977 18.087975 21.238751 C 18.037891 21.274525 17.971709 21.278103 17.919836 21.247695 L 11.552019 17.614819 C 11.367781 17.509285 11.140615 17.509285 10.956377 17.614819 L 4.58856 21.247695 C 4.534899 21.278103 4.470505 21.274525 4.420421 21.238751 C 4.372126 21.202977 4.347084 21.142161 4.359605 21.081345 L 5.83887 13.912184 C 5.881799 13.702905 5.812039 13.488259 5.654633 13.343373 L 0.254509 8.426202 C 0.208003 8.385062 0.191904 8.320668 0.21158 8.263429 C 0.229467 8.204402 0.28134 8.163261 0.340367 8.156106 L 7.607907 7.352974 C 7.818975 7.329721 8.001424 7.195568 8.089071 7.002387 L 11.111995 0.312601 C 11.137037 0.257151 11.192487 0.221377 11.253304 0.221377 C 11.315909 0.221377 11.36957 0.257151 11.394612 0.312601 Z M 11.394612 0.312601 " stroke="#000000" stroke-width="0.686866" stroke-opacity="1" stroke-miterlimit="4"/></g></g><g clip-path="url(#e03ecee234)"><g clip-path="url(#10946d1bfd)"><g transform="matrix(1, 0, 0, 1, 113, 63)"><g clip-path="url(#de706f108f)"><g clip-path="url(#44057c07fa)"><g clip-path="url(#f1a0798c3c)"><path fill="#8885ba" d="M 0.121094 0.175781 L 49.382812 0.175781 L 49.382812 47.054688 L 0.121094 47.054688 Z M 0.121094 0.175781 " fill-opacity="1" fill-rule="nonzero"/></g></g></g></g></g></g><g clip-path="url(#86c95548ad)"><g clip-path="url(#f082664065)"><path stroke-linecap="butt" transform="matrix(2.183833, 0, 0, 2.183833, 113.130297, 63.176706)" fill="none" stroke-linejoin="miter" d="M 11.395252 0.312601 L 14.418176 7.002387 C 14.505823 7.195568 14.690061 7.329721 14.901129 7.352974 L 22.16688 8.156106 C 22.227696 8.163261 22.27778 8.204402 22.297456 8.263429 C 22.317132 8.320668 22.299244 8.385062 22.254527 8.426202 L 16.854403 13.343373 C 16.696996 13.488259 16.625448 13.702905 16.668377 13.912184 L 18.147642 21.081345 C 18.160163 21.142161 18.13691 21.202977 18.086826 21.238751 C 18.038531 21.274525 17.972348 21.278103 17.918687 21.247695 L 11.552658 17.614819 C 11.366632 17.509285 11.141255 17.509285 10.955228 17.614819 L 4.5892 21.247695 C 4.535538 21.278103 4.469356 21.274525 4.421061 21.238751 C 4.370977 21.202977 4.347724 21.142161 4.360245 21.081345 L 5.83951 13.912184 C 5.882439 13.702905 5.812679 13.488259 5.655273 13.343373 L 0.25336 8.426202 C 0.208642 8.385062 0.192544 8.320668 0.210431 8.263429 C 0.230107 8.204402 0.280191 8.163261 0.341007 8.156106 L 7.606758 7.352974 C 7.817826 7.329721 8.002064 7.195568 8.089711 7.002387 L 11.112635 0.312601 C 11.137677 0.257151 11.193127 0.221377 11.253943 0.221377 C 11.31476 0.221377 11.37021 0.257151 11.395252 0.312601 Z M 11.395252 0.312601 " stroke="#000000" stroke-width="0.686866" stroke-opacity="1" stroke-miterlimit="4"/></g></g><g clip-path="url(#5c9c47c965)"><g clip-path="url(#1add113fb7)"><g transform="matrix(1, 0, 0, 1, 169, 63)"><g clip-path="url(#a50dcb7da3)"><g clip-path="url(#3e50db4a82)"><g clip-path="url(#cb1f226b69)"><path fill="#8885ba" d="M -0.214844 0.175781 L 49.042969 0.175781 L 49.042969 47.054688 L -0.214844 47.054688 Z M -0.214844 0.175781 " fill-opacity="1" fill-rule="nonzero"/></g></g></g></g></g></g><g clip-path="url(#28a918f4e0)"><g clip-path="url(#6de0e0a52d)"><path stroke-linecap="butt" transform="matrix(2.183833, 0, 0, 2.183833, 168.79339, 63.176706)" fill="none" stroke-linejoin="miter" d="M 11.395696 0.312601 L 14.418621 7.002387 C 14.506267 7.195568 14.690505 7.329721 14.901573 7.352974 L 22.167324 8.156106 C 22.22814 8.163261 22.278224 8.204402 22.2979 8.263429 C 22.315787 8.320668 22.299689 8.385062 22.254971 8.426202 L 16.853059 13.343373 C 16.695652 13.488259 16.625892 13.702905 16.668821 13.912184 L 18.148087 21.081345 C 18.160608 21.142161 18.137354 21.202977 18.08727 21.238751 C 18.038975 21.274525 17.972793 21.278103 17.919131 21.247695 L 11.551314 17.614819 C 11.367077 17.509285 11.13991 17.509285 10.955673 17.614819 L 4.587855 21.247695 C 4.535983 21.278103 4.4698 21.274525 4.421505 21.238751 C 4.371421 21.202977 4.348168 21.142161 4.360689 21.081345 L 5.839954 13.912184 C 5.882883 13.702905 5.811335 13.488259 5.653928 13.343373 L 0.253804 8.426202 C 0.209087 8.385062 0.191199 8.320668 0.210875 8.263429 C 0.228762 8.204402 0.280635 8.163261 0.341451 8.156106 L 7.607202 7.352974 C 7.818271 7.329721 8.002508 7.195568 8.090155 7.002387 L 11.113079 0.312601 C 11.138121 0.257151 11.193571 0.221377 11.254388 0.221377 C 11.315204 0.221377 11.370654 0.257151 11.395696 0.312601 Z M 11.395696 0.312601 " stroke="#000000" stroke-width="0.686866" stroke-opacity="1" stroke-miterlimit="4"/></g></g><g clip-path="url(#d210b92700)"><g clip-path="url(#958931c96b)"><g transform="matrix(1, 0, 0, 1, 225, 63)"><g clip-path="url(#52e2d09981)"><g clip-path="url(#6d44116127)"><g clip-path="url(#a6d15f54ab)"><path fill="#8885ba" d="M 0.453125 0.175781 L 49.710938 0.175781 L 49.710938 47.054688 L 0.453125 47.054688 Z M 0.453125 0.175781 " fill-opacity="1" fill-rule="nonzero"/></g></g></g></g></g></g><g clip-path="url(#453c714b3e)"><g clip-path="url(#335ffc38d3)"><path stroke-linecap="butt" transform="matrix(2.183833, 0, 0, 2.183833, 225.461304, 63.176706)" fill="none" stroke-linejoin="miter" d="M 11.395721 0.312601 L 14.418645 7.002387 C 14.506292 7.195568 14.69053 7.329721 14.901598 7.352974 L 22.167349 8.156106 C 22.228165 8.163261 22.278249 8.204402 22.297925 8.263429 C 22.315812 8.320668 22.299714 8.385062 22.254996 8.426202 L 16.853083 13.343373 C 16.695677 13.488259 16.625917 13.702905 16.668846 13.912184 L 18.148111 21.081345 C 18.160632 21.142161 18.137379 21.202977 18.087295 21.238751 C 18.039 21.274525 17.972817 21.278103 17.919156 21.247695 L 11.551339 17.614819 C 11.367101 17.509285 11.139935 17.509285 10.955697 17.614819 L 4.58788 21.247695 C 4.536008 21.278103 4.469825 21.274525 4.42153 21.238751 C 4.371446 21.202977 4.348193 21.142161 4.360714 21.081345 L 5.83819 13.912184 C 5.882908 13.702905 5.81136 13.488259 5.653953 13.343373 L 0.253829 8.426202 C 0.209111 8.385062 0.191224 8.320668 0.2109 8.263429 C 0.228787 8.204402 0.28066 8.163261 0.341476 8.156106 L 7.607227 7.352974 C 7.818295 7.329721 8.002533 7.195568 8.09018 7.002387 L 11.113104 0.312601 C 11.138146 0.257151 11.193596 0.221377 11.254413 0.221377 C 11.315229 0.221377 11.370679 0.257151 11.395721 0.312601 Z M 11.395721 0.312601 " stroke="#000000" stroke-width="0.686866" stroke-opacity="1" stroke-miterlimit="4"/></g></g></g></g></svg>