<svg xmlns="http://www.w3.org/2000/svg" xmlns:xlink="http://www.w3.org/1999/xlink" width="400" zoomAndPan="magnify" viewBox="0 0 300 299.999988" height="400" preserveAspectRatio="xMidYMid meet" version="1.0"><defs><clipPath id="f4e15a187a"><path d="M 2 2 L 297.335938 2 L 297.335938 297.335938 L 2 297.335938 Z M 2 2 " clip-rule="nonzero"/></clipPath><clipPath id="dc0dd1a328"><path d="M 13.164062 2.664062 L 286.835938 2.664062 C 289.621094 2.664062 292.292969 3.769531 294.261719 5.738281 C 296.230469 7.707031 297.335938 10.378906 297.335938 13.164062 L 297.335938 286.835938 C 297.335938 289.621094 296.230469 292.292969 294.261719 294.261719 C 292.292969 296.230469 289.621094 297.335938 286.835938 297.335938 L 13.164062 297.335938 C 10.378906 297.335938 7.707031 296.230469 5.738281 294.261719 C 3.769531 292.292969 2.664062 289.621094 2.664062 286.835938 L 2.664062 13.164062 C 2.664062 10.378906 3.769531 7.707031 5.738281 5.738281 C 7.707031 3.769531 10.378906 2.664062 13.164062 2.664062 Z M 13.164062 2.664062 " clip-rule="nonzero"/></clipPath><clipPath id="21381bfa43"><path d="M 0.640625 0.640625 L 295.335938 0.640625 L 295.335938 295.335938 L 0.640625 295.335938 Z M 0.640625 0.640625 " clip-rule="nonzero"/></clipPath><clipPath id="2cf90da760"><path d="M 11.164062 0.664062 L 284.835938 0.664062 C 287.621094 0.664062 290.292969 1.769531 292.261719 3.738281 C 294.230469 5.707031 295.335938 8.378906 295.335938 11.164062 L 295.335938 284.835938 C 295.335938 287.621094 294.230469 290.292969 292.261719 292.261719 C 290.292969 294.230469 287.621094 295.335938 284.835938 295.335938 L 11.164062 295.335938 C 8.378906 295.335938 5.707031 294.230469 3.738281 292.261719 C 1.769531 290.292969 0.664062 287.621094 0.664062 284.835938 L 0.664062 11.164062 C 0.664062 8.378906 1.769531 5.707031 3.738281 3.738281 C 5.707031 1.769531 8.378906 0.664062 11.164062 0.664062 Z M 11.164062 0.664062 " clip-rule="nonzero"/></clipPath><clipPath id="8928ce436c"><rect x="0" width="296" y="0" height="296"/></clipPath><clipPath id="85ba5724d5"><path d="M 2.664062 2.664062 L 297.414062 2.664062 L 297.414062 297.414062 L 2.664062 297.414062 Z M 2.664062 2.664062 " clip-rule="nonzero"/></clipPath><clipPath id="ee65961dde"><path d="M 13.164062 2.664062 L 286.832031 2.664062 C 289.617188 2.664062 292.285156 3.769531 294.253906 5.738281 C 296.222656 7.707031 297.332031 10.378906 297.332031 13.164062 L 297.332031 286.832031 C 297.332031 289.617188 296.222656 292.285156 294.253906 294.253906 C 292.285156 296.222656 289.617188 297.332031 286.832031 297.332031 L 13.164062 297.332031 C 10.378906 297.332031 7.707031 296.222656 5.738281 294.253906 C 3.769531 292.285156 2.664062 289.617188 2.664062 286.832031 L 2.664062 13.164062 C 2.664062 10.378906 3.769531 7.707031 5.738281 5.738281 C 7.707031 3.769531 10.378906 2.664062 13.164062 2.664062 Z M 13.164062 2.664062 " clip-rule="nonzero"/></clipPath><clipPath id="6e5631cf91"><path d="M 4.304688 4 L 52.265625 4 L 52.265625 49.53125 L 4.304688 49.53125 Z M 4.304688 4 " clip-rule="nonzero"/></clipPath><clipPath id="19413371f4"><path d="M 28.554688 4.246094 L 35.078125 18.675781 C 35.269531 19.101562 35.671875 19.390625 36.132812 19.445312 L 51.808594 21.175781 C 51.941406 21.191406 52.050781 21.28125 52.09375 21.410156 C 52.132812 21.535156 52.097656 21.675781 52 21.765625 L 40.347656 32.375 C 40.003906 32.6875 39.851562 33.160156 39.945312 33.617188 L 43.136719 49.085938 C 43.164062 49.214844 43.109375 49.347656 43.003906 49.425781 C 42.894531 49.503906 42.75 49.511719 42.636719 49.449219 L 28.898438 41.609375 C 28.496094 41.378906 28 41.378906 27.597656 41.609375 L 13.859375 49.449219 C 13.746094 49.511719 13.601562 49.503906 13.492188 49.425781 C 13.386719 49.347656 13.332031 49.214844 13.359375 49.085938 L 16.550781 33.617188 C 16.644531 33.160156 16.492188 32.6875 16.148438 32.375 L 4.496094 21.765625 C 4.398438 21.675781 4.359375 21.535156 4.402344 21.410156 C 4.445312 21.28125 4.554688 21.191406 4.6875 21.175781 L 20.363281 19.445312 C 20.824219 19.390625 21.226562 19.101562 21.417969 18.675781 L 27.9375 4.246094 C 27.992188 4.125 28.113281 4.046875 28.246094 4.046875 C 28.378906 4.046875 28.5 4.125 28.554688 4.246094 Z M 28.554688 4.246094 " clip-rule="nonzero"/></clipPath><clipPath id="80f29b360a"><path d="M 0.320312 0 L 48.265625 0 L 48.265625 45.519531 L 0.320312 45.519531 Z M 0.320312 0 " clip-rule="nonzero"/></clipPath><clipPath id="ab6659b0a1"><path d="M 24.554688 0.246094 L 31.078125 14.675781 C 31.269531 15.101562 31.671875 15.390625 32.132812 15.445312 L 47.808594 17.175781 C 47.941406 17.191406 48.050781 17.28125 48.09375 17.410156 C 48.132812 17.535156 48.097656 17.675781 48 17.765625 L 36.347656 28.375 C 36.003906 28.6875 35.851562 29.160156 35.945312 29.617188 L 39.136719 45.085938 C 39.164062 45.214844 39.109375 45.347656 39.003906 45.425781 C 38.894531 45.503906 38.75 45.511719 38.636719 45.449219 L 24.898438 37.609375 C 24.496094 37.378906 24 37.378906 23.597656 37.609375 L 9.859375 45.449219 C 9.746094 45.511719 9.601562 45.503906 9.492188 45.425781 C 9.386719 45.347656 9.332031 45.214844 9.359375 45.085938 L 12.550781 29.617188 C 12.644531 29.160156 12.492188 28.6875 12.148438 28.375 L 0.496094 17.765625 C 0.398438 17.675781 0.359375 17.535156 0.402344 17.410156 C 0.445312 17.28125 0.554688 17.191406 0.6875 17.175781 L 16.363281 15.445312 C 16.824219 15.390625 17.226562 15.101562 17.417969 14.675781 L 23.9375 0.246094 C 23.992188 0.125 24.113281 0.046875 24.246094 0.046875 C 24.378906 0.046875 24.5 0.125 24.554688 0.246094 Z M 24.554688 0.246094 " clip-rule="nonzero"/></clipPath><clipPath id="adfc43585d"><rect x="0" width="49" y="0" height="46"/></clipPath><clipPath id="2ecdf54184"><path d="M 4 4 L 52.53125 4 L 52.53125 48.890625 L 4 48.890625 Z M 4 4 " clip-rule="nonzero"/></clipPath><clipPath id="35524754c1"><path d="M 28.550781 4.246094 L 35.066406 18.667969 C 35.257812 19.089844 35.660156 19.382812 36.121094 19.433594 L 51.785156 21.167969 C 51.917969 21.179688 52.03125 21.273438 52.070312 21.398438 C 52.113281 21.523438 52.074219 21.664062 51.976562 21.753906 L 40.332031 32.359375 C 39.988281 32.671875 39.835938 33.140625 39.929688 33.597656 L 43.121094 49.058594 C 43.144531 49.1875 43.09375 49.320312 42.988281 49.398438 C 42.878906 49.476562 42.734375 49.484375 42.621094 49.417969 L 28.890625 41.585938 C 28.488281 41.355469 27.992188 41.355469 27.589844 41.585938 L 13.863281 49.417969 C 13.746094 49.484375 13.601562 49.476562 13.496094 49.398438 C 13.386719 49.320312 13.335938 49.1875 13.363281 49.058594 L 16.550781 33.597656 C 16.644531 33.140625 16.492188 32.671875 16.148438 32.359375 L 4.503906 21.753906 C 4.40625 21.664062 4.367188 21.523438 4.410156 21.398438 C 4.449219 21.273438 4.5625 21.179688 4.695312 21.167969 L 20.359375 19.433594 C 20.820312 19.382812 21.222656 19.089844 21.414062 18.667969 L 27.933594 4.246094 C 27.988281 4.125 28.109375 4.046875 28.242188 4.046875 C 28.375 4.046875 28.496094 4.125 28.550781 4.246094 Z M 28.550781 4.246094 " clip-rule="nonzero"/></clipPath><clipPath id="d554f8c75f"><path d="M 58.570312 4 L 106.53125 4 L 106.53125 49.53125 L 58.570312 49.53125 Z M 58.570312 4 " clip-rule="nonzero"/></clipPath><clipPath id="39552c0a26"><path d="M 82.824219 4.246094 L 89.34375 18.675781 C 89.535156 19.101562 89.9375 19.390625 90.398438 19.445312 L 106.074219 21.175781 C 106.207031 21.191406 106.316406 21.28125 106.359375 21.410156 C 106.402344 21.535156 106.363281 21.675781 106.265625 21.765625 L 94.613281 32.375 C 94.269531 32.6875 94.117188 33.160156 94.210938 33.617188 L 97.402344 49.085938 C 97.429688 49.214844 97.375 49.347656 97.269531 49.425781 C 97.160156 49.503906 97.015625 49.511719 96.902344 49.449219 L 83.164062 41.609375 C 82.761719 41.378906 82.265625 41.378906 81.863281 41.609375 L 68.125 49.449219 C 68.011719 49.511719 67.867188 49.503906 67.757812 49.425781 C 67.652344 49.347656 67.597656 49.214844 67.625 49.085938 L 70.816406 33.617188 C 70.910156 33.160156 70.757812 32.6875 70.414062 32.375 L 58.761719 21.765625 C 58.664062 21.675781 58.628906 21.535156 58.667969 21.410156 C 58.710938 21.28125 58.820312 21.191406 58.953125 21.175781 L 74.628906 19.445312 C 75.089844 19.390625 75.492188 19.101562 75.683594 18.675781 L 82.203125 4.246094 C 82.261719 4.125 82.378906 4.046875 82.515625 4.046875 C 82.648438 4.046875 82.769531 4.125 82.824219 4.246094 Z M 82.824219 4.246094 " clip-rule="nonzero"/></clipPath><clipPath id="5cfc353c48"><path d="M 0.570312 0 L 48.53125 0 L 48.53125 45.519531 L 0.570312 45.519531 Z M 0.570312 0 " clip-rule="nonzero"/></clipPath><clipPath id="f6340e703d"><path d="M 24.824219 0.246094 L 31.34375 14.675781 C 31.535156 15.101562 31.9375 15.390625 32.398438 15.445312 L 48.074219 17.175781 C 48.207031 17.191406 48.316406 17.28125 48.359375 17.410156 C 48.402344 17.535156 48.363281 17.675781 48.265625 17.765625 L 36.613281 28.375 C 36.269531 28.6875 36.117188 29.160156 36.210938 29.617188 L 39.402344 45.085938 C 39.429688 45.214844 39.375 45.347656 39.269531 45.425781 C 39.160156 45.503906 39.015625 45.511719 38.902344 45.449219 L 25.164062 37.609375 C 24.761719 37.378906 24.265625 37.378906 23.863281 37.609375 L 10.125 45.449219 C 10.011719 45.511719 9.867188 45.503906 9.757812 45.425781 C 9.652344 45.347656 9.597656 45.214844 9.625 45.085938 L 12.816406 29.617188 C 12.910156 29.160156 12.757812 28.6875 12.414062 28.375 L 0.761719 17.765625 C 0.664062 17.675781 0.628906 17.535156 0.667969 17.410156 C 0.710938 17.28125 0.820312 17.191406 0.953125 17.175781 L 16.628906 15.445312 C 17.089844 15.390625 17.492188 15.101562 17.683594 14.675781 L 24.203125 0.246094 C 24.261719 0.125 24.378906 0.046875 24.515625 0.046875 C 24.648438 0.046875 24.769531 0.125 24.824219 0.246094 Z M 24.824219 0.246094 " clip-rule="nonzero"/></clipPath><clipPath id="9c1bb57877"><rect x="0" width="49" y="0" height="46"/></clipPath><clipPath id="00feaccf0f"><path d="M 58.214844 4 L 106.796875 4 L 106.796875 48.890625 L 58.214844 48.890625 Z M 58.214844 4 " clip-rule="nonzero"/></clipPath><clipPath id="27a6cd563e"><path d="M 82.816406 4.246094 L 89.332031 18.667969 C 89.523438 19.089844 89.925781 19.382812 90.386719 19.433594 L 106.054688 21.167969 C 106.183594 21.179688 106.296875 21.273438 106.335938 21.398438 C 106.378906 21.523438 106.34375 21.664062 106.242188 21.753906 L 94.597656 32.359375 C 94.257812 32.671875 94.101562 33.140625 94.195312 33.597656 L 97.386719 49.058594 C 97.414062 49.1875 97.359375 49.320312 97.253906 49.398438 C 97.144531 49.476562 97 49.484375 96.886719 49.417969 L 83.15625 41.585938 C 82.753906 41.355469 82.257812 41.355469 81.855469 41.585938 L 68.128906 49.417969 C 68.011719 49.484375 67.867188 49.476562 67.761719 49.398438 C 67.652344 49.320312 67.601562 49.1875 67.628906 49.058594 L 70.816406 33.597656 C 70.910156 33.140625 70.757812 32.671875 70.414062 32.359375 L 58.769531 21.753906 C 58.671875 21.664062 58.636719 21.523438 58.675781 21.398438 C 58.71875 21.273438 58.828125 21.179688 58.960938 21.167969 L 74.625 19.433594 C 75.089844 19.382812 75.488281 19.089844 75.679688 18.667969 L 82.199219 4.246094 C 82.253906 4.125 82.375 4.046875 82.507812 4.046875 C 82.640625 4.046875 82.761719 4.125 82.816406 4.246094 Z M 82.816406 4.246094 " clip-rule="nonzero"/></clipPath><clipPath id="1266ce194f"><path d="M 112.785156 4 L 160.746094 4 L 160.746094 49.53125 L 112.785156 49.53125 Z M 112.785156 4 " clip-rule="nonzero"/></clipPath><clipPath id="ff12fbd0a2"><path d="M 137.039062 4.246094 L 143.558594 18.675781 C 143.75 19.101562 144.152344 19.390625 144.613281 19.445312 L 160.289062 21.175781 C 160.421875 21.191406 160.535156 21.28125 160.574219 21.410156 C 160.617188 21.535156 160.578125 21.675781 160.480469 21.765625 L 148.828125 32.375 C 148.484375 32.6875 148.332031 33.160156 148.425781 33.617188 L 151.617188 49.085938 C 151.644531 49.214844 151.59375 49.347656 151.484375 49.425781 C 151.375 49.503906 151.234375 49.511719 151.117188 49.449219 L 137.378906 41.609375 C 136.976562 41.378906 136.480469 41.378906 136.078125 41.609375 L 122.339844 49.449219 C 122.226562 49.511719 122.082031 49.503906 121.972656 49.425781 C 121.867188 49.347656 121.816406 49.214844 121.839844 49.085938 L 125.03125 33.617188 C 125.125 33.160156 124.972656 32.6875 124.628906 32.375 L 112.976562 21.765625 C 112.878906 21.675781 112.84375 21.535156 112.882812 21.410156 C 112.925781 21.28125 113.035156 21.191406 113.167969 21.175781 L 128.84375 19.445312 C 129.304688 19.390625 129.707031 19.101562 129.898438 18.675781 L 136.421875 4.246094 C 136.476562 4.125 136.597656 4.046875 136.730469 4.046875 C 136.863281 4.046875 136.984375 4.125 137.039062 4.246094 Z M 137.039062 4.246094 " clip-rule="nonzero"/></clipPath><clipPath id="e20195e773"><path d="M 0.800781 0 L 48.746094 0 L 48.746094 45.519531 L 0.800781 45.519531 Z M 0.800781 0 " clip-rule="nonzero"/></clipPath><clipPath id="18c4a57e85"><path d="M 25.039062 0.246094 L 31.558594 14.675781 C 31.75 15.101562 32.152344 15.390625 32.613281 15.445312 L 48.289062 17.175781 C 48.421875 17.191406 48.535156 17.28125 48.574219 17.410156 C 48.617188 17.535156 48.578125 17.675781 48.480469 17.765625 L 36.828125 28.375 C 36.484375 28.6875 36.332031 29.160156 36.425781 29.617188 L 39.617188 45.085938 C 39.644531 45.214844 39.59375 45.347656 39.484375 45.425781 C 39.375 45.503906 39.234375 45.511719 39.117188 45.449219 L 25.378906 37.609375 C 24.976562 37.378906 24.480469 37.378906 24.078125 37.609375 L 10.339844 45.449219 C 10.226562 45.511719 10.082031 45.503906 9.972656 45.425781 C 9.867188 45.347656 9.816406 45.214844 9.839844 45.085938 L 13.03125 29.617188 C 13.125 29.160156 12.972656 28.6875 12.628906 28.375 L 0.976562 17.765625 C 0.878906 17.675781 0.84375 17.535156 0.882812 17.410156 C 0.925781 17.28125 1.035156 17.191406 1.167969 17.175781 L 16.84375 15.445312 C 17.304688 15.390625 17.707031 15.101562 17.898438 14.675781 L 24.421875 0.246094 C 24.476562 0.125 24.597656 0.046875 24.730469 0.046875 C 24.863281 0.046875 24.984375 0.125 25.039062 0.246094 Z M 25.039062 0.246094 " clip-rule="nonzero"/></clipPath><clipPath id="b4a29c2f08"><rect x="0" width="49" y="0" height="46"/></clipPath><clipPath id="3d6a450fd0"><path d="M 112.429688 4 L 161 4 L 161 48.890625 L 112.429688 48.890625 Z M 112.429688 4 " clip-rule="nonzero"/></clipPath><clipPath id="26eebb04e5"><path d="M 137.03125 4.246094 L 143.550781 18.667969 C 143.742188 19.089844 144.140625 19.382812 144.601562 19.433594 L 160.269531 21.167969 C 160.402344 21.179688 160.511719 21.273438 160.554688 21.398438 C 160.59375 21.523438 160.558594 21.664062 160.460938 21.753906 L 148.816406 32.359375 C 148.472656 32.671875 148.316406 33.140625 148.410156 33.597656 L 151.601562 49.058594 C 151.628906 49.1875 151.574219 49.320312 151.46875 49.398438 C 151.359375 49.476562 151.21875 49.484375 151.101562 49.417969 L 137.375 41.585938 C 136.96875 41.355469 136.476562 41.355469 136.070312 41.585938 L 122.34375 49.417969 C 122.226562 49.484375 122.085938 49.476562 121.976562 49.398438 C 121.867188 49.320312 121.816406 49.1875 121.84375 49.058594 L 125.03125 33.597656 C 125.125 33.140625 124.972656 32.671875 124.628906 32.359375 L 112.984375 21.753906 C 112.886719 21.664062 112.851562 21.523438 112.890625 21.398438 C 112.933594 21.273438 113.042969 21.179688 113.175781 21.167969 L 128.84375 19.433594 C 129.304688 19.382812 129.703125 19.089844 129.894531 18.667969 L 136.414062 4.246094 C 136.46875 4.125 136.589844 4.046875 136.722656 4.046875 C 136.855469 4.046875 136.976562 4.125 137.03125 4.246094 Z M 137.03125 4.246094 " clip-rule="nonzero"/></clipPath><clipPath id="11eb96e9a1"><path d="M 167.800781 4 L 215.761719 4 L 215.761719 49.53125 L 167.800781 49.53125 Z M 167.800781 4 " clip-rule="nonzero"/></clipPath><clipPath id="5378e522d7"><path d="M 192.054688 4.246094 L 198.574219 18.675781 C 198.765625 19.101562 199.167969 19.390625 199.628906 19.445312 L 215.304688 21.175781 C 215.4375 21.191406 215.546875 21.28125 215.589844 21.410156 C 215.628906 21.535156 215.59375 21.675781 215.496094 21.765625 L 203.84375 32.375 C 203.5 32.6875 203.347656 33.160156 203.441406 33.617188 L 206.632812 49.085938 C 206.660156 49.214844 206.605469 49.347656 206.5 49.425781 C 206.390625 49.503906 206.246094 49.511719 206.132812 49.449219 L 192.394531 41.609375 C 191.992188 41.378906 191.496094 41.378906 191.09375 41.609375 L 177.355469 49.449219 C 177.242188 49.511719 177.097656 49.503906 176.988281 49.425781 C 176.882812 49.347656 176.828125 49.214844 176.855469 49.085938 L 180.046875 33.617188 C 180.140625 33.160156 179.988281 32.6875 179.644531 32.375 L 167.992188 21.765625 C 167.894531 21.675781 167.859375 21.535156 167.898438 21.410156 C 167.941406 21.28125 168.050781 21.191406 168.183594 21.175781 L 183.859375 19.445312 C 184.320312 19.390625 184.722656 19.101562 184.914062 18.675781 L 191.433594 4.246094 C 191.488281 4.125 191.609375 4.046875 191.746094 4.046875 C 191.878906 4.046875 192 4.125 192.054688 4.246094 Z M 192.054688 4.246094 " clip-rule="nonzero"/></clipPath><clipPath id="c46462095c"><path d="M 0.800781 0 L 48.761719 0 L 48.761719 45.519531 L 0.800781 45.519531 Z M 0.800781 0 " clip-rule="nonzero"/></clipPath><clipPath id="0e396adfde"><path d="M 25.054688 0.246094 L 31.574219 14.675781 C 31.765625 15.101562 32.167969 15.390625 32.628906 15.445312 L 48.304688 17.175781 C 48.4375 17.191406 48.546875 17.28125 48.589844 17.410156 C 48.628906 17.535156 48.59375 17.675781 48.496094 17.765625 L 36.84375 28.375 C 36.5 28.6875 36.347656 29.160156 36.441406 29.617188 L 39.632812 45.085938 C 39.660156 45.214844 39.605469 45.347656 39.5 45.425781 C 39.390625 45.503906 39.246094 45.511719 39.132812 45.449219 L 25.394531 37.609375 C 24.992188 37.378906 24.496094 37.378906 24.09375 37.609375 L 10.355469 45.449219 C 10.242188 45.511719 10.097656 45.503906 9.988281 45.425781 C 9.882812 45.347656 9.828125 45.214844 9.855469 45.085938 L 13.046875 29.617188 C 13.140625 29.160156 12.988281 28.6875 12.644531 28.375 L 0.992188 17.765625 C 0.894531 17.675781 0.859375 17.535156 0.898438 17.410156 C 0.941406 17.28125 1.050781 17.191406 1.183594 17.175781 L 16.859375 15.445312 C 17.320312 15.390625 17.722656 15.101562 17.914062 14.675781 L 24.433594 0.246094 C 24.488281 0.125 24.609375 0.046875 24.746094 0.046875 C 24.878906 0.046875 25 0.125 25.054688 0.246094 Z M 25.054688 0.246094 " clip-rule="nonzero"/></clipPath><clipPath id="33cb3957aa"><rect x="0" width="49" y="0" height="46"/></clipPath><clipPath id="a26c5d5fc6"><path d="M 167.445312 4 L 216 4 L 216 48.890625 L 167.445312 48.890625 Z M 167.445312 4 " clip-rule="nonzero"/></clipPath><clipPath id="f58fec4443"><path d="M 192.046875 4.246094 L 198.5625 18.667969 C 198.753906 19.089844 199.15625 19.382812 199.617188 19.433594 L 215.285156 21.167969 C 215.414062 21.179688 215.527344 21.273438 215.566406 21.398438 C 215.609375 21.523438 215.574219 21.664062 215.472656 21.753906 L 203.828125 32.359375 C 203.484375 32.671875 203.332031 33.140625 203.425781 33.597656 L 206.617188 49.058594 C 206.644531 49.1875 206.589844 49.320312 206.484375 49.398438 C 206.375 49.476562 206.230469 49.484375 206.117188 49.417969 L 192.386719 41.585938 C 191.984375 41.355469 191.488281 41.355469 191.085938 41.585938 L 177.359375 49.417969 C 177.242188 49.484375 177.097656 49.476562 176.992188 49.398438 C 176.882812 49.320312 176.832031 49.1875 176.859375 49.058594 L 180.046875 33.597656 C 180.140625 33.140625 179.988281 32.671875 179.644531 32.359375 L 168 21.753906 C 167.902344 21.664062 167.867188 21.523438 167.90625 21.398438 C 167.949219 21.273438 168.058594 21.179688 168.191406 21.167969 L 183.855469 19.433594 C 184.320312 19.382812 184.71875 19.089844 184.910156 18.667969 L 191.429688 4.246094 C 191.484375 4.125 191.605469 4.046875 191.738281 4.046875 C 191.871094 4.046875 191.992188 4.125 192.046875 4.246094 Z M 192.046875 4.246094 " clip-rule="nonzero"/></clipPath><clipPath id="3206522863"><path d="M 223.808594 4 L 271.769531 4 L 271.769531 49.53125 L 223.808594 49.53125 Z M 223.808594 4 " clip-rule="nonzero"/></clipPath><clipPath id="50a6baeb10"><path d="M 248.0625 4.246094 L 254.582031 18.675781 C 254.773438 19.101562 255.175781 19.390625 255.636719 19.445312 L 271.3125 21.175781 C 271.445312 21.191406 271.554688 21.28125 271.597656 21.410156 C 271.640625 21.535156 271.601562 21.675781 271.503906 21.765625 L 259.851562 32.375 C 259.507812 32.6875 259.355469 33.160156 259.449219 33.617188 L 262.640625 49.085938 C 262.667969 49.214844 262.613281 49.347656 262.507812 49.425781 C 262.398438 49.503906 262.253906 49.511719 262.140625 49.449219 L 248.402344 41.609375 C 248 41.378906 247.503906 41.378906 247.101562 41.609375 L 233.363281 49.449219 C 233.25 49.511719 233.105469 49.503906 232.996094 49.425781 C 232.890625 49.347656 232.835938 49.214844 232.863281 49.085938 L 236.054688 33.617188 C 236.148438 33.160156 235.996094 32.6875 235.652344 32.375 L 224 21.765625 C 223.902344 21.675781 223.867188 21.535156 223.90625 21.410156 C 223.949219 21.28125 224.058594 21.191406 224.191406 21.175781 L 239.867188 19.445312 C 240.328125 19.390625 240.730469 19.101562 240.921875 18.675781 L 247.445312 4.246094 C 247.5 4.125 247.621094 4.046875 247.753906 4.046875 C 247.886719 4.046875 248.007812 4.125 248.0625 4.246094 Z M 248.0625 4.246094 " clip-rule="nonzero"/></clipPath><clipPath id="78964f2e7b"><path d="M 0.808594 0 L 48.679688 0 L 48.679688 45.519531 L 0.808594 45.519531 Z M 0.808594 0 " clip-rule="nonzero"/></clipPath><clipPath id="39405ca73e"><path d="M 25.0625 0.246094 L 31.582031 14.675781 C 31.773438 15.101562 32.175781 15.390625 32.636719 15.445312 L 48.3125 17.175781 C 48.445312 17.191406 48.554688 17.28125 48.597656 17.410156 C 48.640625 17.535156 48.601562 17.675781 48.503906 17.765625 L 36.851562 28.375 C 36.507812 28.6875 36.355469 29.160156 36.449219 29.617188 L 39.640625 45.085938 C 39.667969 45.214844 39.613281 45.347656 39.507812 45.425781 C 39.398438 45.503906 39.253906 45.511719 39.140625 45.449219 L 25.402344 37.609375 C 25 37.378906 24.503906 37.378906 24.101562 37.609375 L 10.363281 45.449219 C 10.25 45.511719 10.105469 45.503906 9.996094 45.425781 C 9.890625 45.347656 9.835938 45.214844 9.863281 45.085938 L 13.054688 29.617188 C 13.148438 29.160156 12.996094 28.6875 12.652344 28.375 L 1 17.765625 C 0.902344 17.675781 0.867188 17.535156 0.90625 17.410156 C 0.949219 17.28125 1.058594 17.191406 1.191406 17.175781 L 16.867188 15.445312 C 17.328125 15.390625 17.730469 15.101562 17.921875 14.675781 L 24.445312 0.246094 C 24.5 0.125 24.621094 0.046875 24.753906 0.046875 C 24.886719 0.046875 25.007812 0.125 25.0625 0.246094 Z M 25.0625 0.246094 " clip-rule="nonzero"/></clipPath><clipPath id="42dd6426ca"><rect x="0" width="49" y="0" height="46"/></clipPath><clipPath id="420df223a5"><path d="M 223.453125 4 L 272 4 L 272 48.890625 L 223.453125 48.890625 Z M 223.453125 4 " clip-rule="nonzero"/></clipPath><clipPath id="e964d91f1b"><path d="M 248.054688 4.246094 L 254.570312 18.667969 C 254.761719 19.089844 255.164062 19.382812 255.625 19.433594 L 271.292969 21.167969 C 271.421875 21.179688 271.535156 21.273438 271.578125 21.398438 C 271.617188 21.523438 271.582031 21.664062 271.480469 21.753906 L 259.835938 32.359375 C 259.496094 32.671875 259.339844 33.140625 259.433594 33.597656 L 262.625 49.058594 C 262.652344 49.1875 262.597656 49.320312 262.492188 49.398438 C 262.382812 49.476562 262.238281 49.484375 262.125 49.417969 L 248.394531 41.585938 C 247.992188 41.355469 247.496094 41.355469 247.09375 41.585938 L 233.367188 49.417969 C 233.25 49.484375 233.105469 49.476562 233 49.398438 C 232.890625 49.320312 232.839844 49.1875 232.867188 49.058594 L 236.054688 33.597656 C 236.148438 33.140625 235.996094 32.671875 235.652344 32.359375 L 224.007812 21.753906 C 223.910156 21.664062 223.875 21.523438 223.914062 21.398438 C 223.957031 21.273438 224.066406 21.179688 224.199219 21.167969 L 239.863281 19.433594 C 240.328125 19.382812 240.726562 19.089844 240.917969 18.667969 L 247.4375 4.246094 C 247.492188 4.125 247.613281 4.046875 247.746094 4.046875 C 247.878906 4.046875 248 4.125 248.054688 4.246094 Z M 248.054688 4.246094 " clip-rule="nonzero"/></clipPath><clipPath id="971aeaf1db"><path d="M 4.304688 62.46875 L 52.265625 62.46875 L 52.265625 108.074219 L 4.304688 108.074219 Z M 4.304688 62.46875 " clip-rule="nonzero"/></clipPath><clipPath id="5fc8dbb691"><path d="M 28.554688 62.789062 L 35.078125 77.21875 C 35.269531 77.644531 35.671875 77.933594 36.132812 77.984375 L 51.808594 79.71875 C 51.941406 79.734375 52.050781 79.824219 52.09375 79.953125 C 52.132812 80.078125 52.097656 80.21875 52 80.308594 L 40.347656 90.917969 C 40.003906 91.230469 39.851562 91.703125 39.945312 92.160156 L 43.136719 107.628906 C 43.164062 107.757812 43.109375 107.890625 43.003906 107.96875 C 42.894531 108.046875 42.75 108.054688 42.636719 107.988281 L 28.898438 100.152344 C 28.496094 99.921875 28 99.921875 27.597656 100.152344 L 13.859375 107.988281 C 13.746094 108.054688 13.601562 108.046875 13.492188 107.96875 C 13.386719 107.890625 13.332031 107.757812 13.359375 107.628906 L 16.550781 92.160156 C 16.644531 91.703125 16.492188 91.230469 16.148438 90.917969 L 4.496094 80.308594 C 4.398438 80.21875 4.359375 80.078125 4.402344 79.953125 C 4.445312 79.824219 4.554688 79.734375 4.6875 79.71875 L 20.363281 77.984375 C 20.824219 77.933594 21.226562 77.644531 21.417969 77.21875 L 27.9375 62.789062 C 27.992188 62.667969 28.113281 62.589844 28.246094 62.589844 C 28.378906 62.589844 28.5 62.667969 28.554688 62.789062 Z M 28.554688 62.789062 " clip-rule="nonzero"/></clipPath><clipPath id="b93f3aa3cc"><path d="M 0.320312 0.480469 L 48.265625 0.480469 L 48.265625 46.074219 L 0.320312 46.074219 Z M 0.320312 0.480469 " clip-rule="nonzero"/></clipPath><clipPath id="d3785f8f75"><path d="M 24.554688 0.789062 L 31.078125 15.21875 C 31.269531 15.644531 31.671875 15.933594 32.132812 15.984375 L 47.808594 17.71875 C 47.941406 17.734375 48.050781 17.824219 48.09375 17.953125 C 48.132812 18.078125 48.097656 18.21875 48 18.308594 L 36.347656 28.917969 C 36.003906 29.230469 35.851562 29.703125 35.945312 30.160156 L 39.136719 45.628906 C 39.164062 45.757812 39.109375 45.890625 39.003906 45.96875 C 38.894531 46.046875 38.75 46.054688 38.636719 45.988281 L 24.898438 38.152344 C 24.496094 37.921875 24 37.921875 23.597656 38.152344 L 9.859375 45.988281 C 9.746094 46.054688 9.601562 46.046875 9.492188 45.96875 C 9.386719 45.890625 9.332031 45.757812 9.359375 45.628906 L 12.550781 30.160156 C 12.644531 29.703125 12.492188 29.230469 12.148438 28.917969 L 0.496094 18.308594 C 0.398438 18.21875 0.359375 18.078125 0.402344 17.953125 C 0.445312 17.824219 0.554688 17.734375 0.6875 17.71875 L 16.363281 15.984375 C 16.824219 15.933594 17.226562 15.644531 17.417969 15.21875 L 23.9375 0.789062 C 23.992188 0.667969 24.113281 0.589844 24.246094 0.589844 C 24.378906 0.589844 24.5 0.667969 24.554688 0.789062 Z M 24.554688 0.789062 " clip-rule="nonzero"/></clipPath><clipPath id="6493b9991b"><rect x="0" width="49" y="0" height="47"/></clipPath><clipPath id="00295ce066"><path d="M 4 62.105469 L 52.53125 62.105469 L 52.53125 107.429688 L 4 107.429688 Z M 4 62.105469 " clip-rule="nonzero"/></clipPath><clipPath id="99b7b30f4f"><path d="M 28.550781 62.789062 L 35.066406 77.210938 C 35.257812 77.632812 35.660156 77.925781 36.121094 77.976562 L 51.785156 79.710938 C 51.917969 79.722656 52.03125 79.816406 52.070312 79.941406 C 52.113281 80.066406 52.074219 80.207031 51.976562 80.296875 L 40.332031 90.902344 C 39.988281 91.214844 39.835938 91.683594 39.929688 92.140625 L 43.121094 107.597656 C 43.144531 107.730469 43.09375 107.863281 42.988281 107.941406 C 42.878906 108.019531 42.734375 108.027344 42.621094 107.960938 L 28.890625 100.128906 C 28.488281 99.898438 27.992188 99.898438 27.589844 100.128906 L 13.863281 107.960938 C 13.746094 108.027344 13.601562 108.019531 13.496094 107.941406 C 13.386719 107.863281 13.335938 107.730469 13.363281 107.597656 L 16.550781 92.140625 C 16.644531 91.683594 16.492188 91.214844 16.148438 90.902344 L 4.503906 80.296875 C 4.40625 80.207031 4.367188 80.066406 4.410156 79.941406 C 4.449219 79.816406 4.5625 79.722656 4.695312 79.710938 L 20.359375 77.976562 C 20.820312 77.925781 21.222656 77.632812 21.414062 77.210938 L 27.933594 62.789062 C 27.988281 62.667969 28.109375 62.589844 28.242188 62.589844 C 28.375 62.589844 28.496094 62.667969 28.550781 62.789062 Z M 28.550781 62.789062 " clip-rule="nonzero"/></clipPath><clipPath id="0e1dd62ffb"><path d="M 58.570312 62.46875 L 106.53125 62.46875 L 106.53125 108.074219 L 58.570312 108.074219 Z M 58.570312 62.46875 " clip-rule="nonzero"/></clipPath><clipPath id="b9ddc594fe"><path d="M 82.824219 62.789062 L 89.34375 77.21875 C 89.535156 77.644531 89.9375 77.933594 90.398438 77.984375 L 106.074219 79.71875 C 106.207031 79.734375 106.316406 79.824219 106.359375 79.953125 C 106.402344 80.078125 106.363281 80.21875 106.265625 80.308594 L 94.613281 90.917969 C 94.269531 91.230469 94.117188 91.703125 94.210938 92.160156 L 97.402344 107.628906 C 97.429688 107.757812 97.375 107.890625 97.269531 107.96875 C 97.160156 108.046875 97.015625 108.054688 96.902344 107.988281 L 83.164062 100.152344 C 82.761719 99.921875 82.265625 99.921875 81.863281 100.152344 L 68.125 107.988281 C 68.011719 108.054688 67.867188 108.046875 67.757812 107.96875 C 67.652344 107.890625 67.597656 107.757812 67.625 107.628906 L 70.816406 92.160156 C 70.910156 91.703125 70.757812 91.230469 70.414062 90.917969 L 58.761719 80.308594 C 58.664062 80.21875 58.628906 80.078125 58.667969 79.953125 C 58.710938 79.824219 58.820312 79.734375 58.953125 79.71875 L 74.628906 77.984375 C 75.089844 77.933594 75.492188 77.644531 75.683594 77.21875 L 82.203125 62.789062 C 82.261719 62.667969 82.378906 62.589844 82.515625 62.589844 C 82.648438 62.589844 82.769531 62.667969 82.824219 62.789062 Z M 82.824219 62.789062 " clip-rule="nonzero"/></clipPath><clipPath id="d002cc42c9"><path d="M 0.570312 0.480469 L 48.53125 0.480469 L 48.53125 46.074219 L 0.570312 46.074219 Z M 0.570312 0.480469 " clip-rule="nonzero"/></clipPath><clipPath id="eed7655bd2"><path d="M 24.824219 0.789062 L 31.34375 15.21875 C 31.535156 15.644531 31.9375 15.933594 32.398438 15.984375 L 48.074219 17.71875 C 48.207031 17.734375 48.316406 17.824219 48.359375 17.953125 C 48.402344 18.078125 48.363281 18.21875 48.265625 18.308594 L 36.613281 28.917969 C 36.269531 29.230469 36.117188 29.703125 36.210938 30.160156 L 39.402344 45.628906 C 39.429688 45.757812 39.375 45.890625 39.269531 45.96875 C 39.160156 46.046875 39.015625 46.054688 38.902344 45.988281 L 25.164062 38.152344 C 24.761719 37.921875 24.265625 37.921875 23.863281 38.152344 L 10.125 45.988281 C 10.011719 46.054688 9.867188 46.046875 9.757812 45.96875 C 9.652344 45.890625 9.597656 45.757812 9.625 45.628906 L 12.816406 30.160156 C 12.910156 29.703125 12.757812 29.230469 12.414062 28.917969 L 0.761719 18.308594 C 0.664062 18.21875 0.628906 18.078125 0.667969 17.953125 C 0.710938 17.824219 0.820312 17.734375 0.953125 17.71875 L 16.628906 15.984375 C 17.089844 15.933594 17.492188 15.644531 17.683594 15.21875 L 24.203125 0.789062 C 24.261719 0.667969 24.378906 0.589844 24.515625 0.589844 C 24.648438 0.589844 24.769531 0.667969 24.824219 0.789062 Z M 24.824219 0.789062 " clip-rule="nonzero"/></clipPath><clipPath id="b5770ad4ed"><rect x="0" width="49" y="0" height="47"/></clipPath><clipPath id="3411295bcd"><path d="M 58.214844 62.105469 L 106.796875 62.105469 L 106.796875 107.429688 L 58.214844 107.429688 Z M 58.214844 62.105469 " clip-rule="nonzero"/></clipPath><clipPath id="429a1d3825"><path d="M 82.816406 62.789062 L 89.332031 77.210938 C 89.523438 77.632812 89.925781 77.925781 90.386719 77.976562 L 106.054688 79.710938 C 106.183594 79.722656 106.296875 79.816406 106.335938 79.941406 C 106.378906 80.066406 106.34375 80.207031 106.242188 80.296875 L 94.597656 90.902344 C 94.257812 91.214844 94.101562 91.683594 94.195312 92.140625 L 97.386719 107.597656 C 97.414062 107.730469 97.359375 107.863281 97.253906 107.941406 C 97.144531 108.019531 97 108.027344 96.886719 107.960938 L 83.15625 100.128906 C 82.753906 99.898438 82.257812 99.898438 81.855469 100.128906 L 68.128906 107.960938 C 68.011719 108.027344 67.867188 108.019531 67.761719 107.941406 C 67.652344 107.863281 67.601562 107.730469 67.628906 107.597656 L 70.816406 92.140625 C 70.910156 91.683594 70.757812 91.214844 70.414062 90.902344 L 58.769531 80.296875 C 58.671875 80.207031 58.636719 80.066406 58.675781 79.941406 C 58.71875 79.816406 58.828125 79.722656 58.960938 79.710938 L 74.625 77.976562 C 75.089844 77.925781 75.488281 77.632812 75.679688 77.210938 L 82.199219 62.789062 C 82.253906 62.667969 82.375 62.589844 82.507812 62.589844 C 82.640625 62.589844 82.761719 62.667969 82.816406 62.789062 Z M 82.816406 62.789062 " clip-rule="nonzero"/></clipPath><clipPath id="1535d73c0b"><path d="M 112.785156 62.46875 L 160.746094 62.46875 L 160.746094 108.074219 L 112.785156 108.074219 Z M 112.785156 62.46875 " clip-rule="nonzero"/></clipPath><clipPath id="9b0bd4cc7a"><path d="M 137.039062 62.789062 L 143.558594 77.21875 C 143.75 77.644531 144.152344 77.933594 144.613281 77.984375 L 160.289062 79.71875 C 160.421875 79.734375 160.535156 79.824219 160.574219 79.953125 C 160.617188 80.078125 160.578125 80.21875 160.480469 80.308594 L 148.828125 90.917969 C 148.484375 91.230469 148.332031 91.703125 148.425781 92.160156 L 151.617188 107.628906 C 151.644531 107.757812 151.59375 107.890625 151.484375 107.96875 C 151.375 108.046875 151.234375 108.054688 151.117188 107.988281 L 137.378906 100.152344 C 136.976562 99.921875 136.480469 99.921875 136.078125 100.152344 L 122.339844 107.988281 C 122.226562 108.054688 122.082031 108.046875 121.972656 107.96875 C 121.867188 107.890625 121.816406 107.757812 121.839844 107.628906 L 125.03125 92.160156 C 125.125 91.703125 124.972656 91.230469 124.628906 90.917969 L 112.976562 80.308594 C 112.878906 80.21875 112.84375 80.078125 112.882812 79.953125 C 112.925781 79.824219 113.035156 79.734375 113.167969 79.71875 L 128.84375 77.984375 C 129.304688 77.933594 129.707031 77.644531 129.898438 77.21875 L 136.421875 62.789062 C 136.476562 62.667969 136.597656 62.589844 136.730469 62.589844 C 136.863281 62.589844 136.984375 62.667969 137.039062 62.789062 Z M 137.039062 62.789062 " clip-rule="nonzero"/></clipPath><clipPath id="be58f0c801"><path d="M 0.800781 0.480469 L 48.746094 0.480469 L 48.746094 46.074219 L 0.800781 46.074219 Z M 0.800781 0.480469 " clip-rule="nonzero"/></clipPath><clipPath id="70eaafb6f1"><path d="M 25.039062 0.789062 L 31.558594 15.21875 C 31.75 15.644531 32.152344 15.933594 32.613281 15.984375 L 48.289062 17.71875 C 48.421875 17.734375 48.535156 17.824219 48.574219 17.953125 C 48.617188 18.078125 48.578125 18.21875 48.480469 18.308594 L 36.828125 28.917969 C 36.484375 29.230469 36.332031 29.703125 36.425781 30.160156 L 39.617188 45.628906 C 39.644531 45.757812 39.59375 45.890625 39.484375 45.96875 C 39.375 46.046875 39.234375 46.054688 39.117188 45.988281 L 25.378906 38.152344 C 24.976562 37.921875 24.480469 37.921875 24.078125 38.152344 L 10.339844 45.988281 C 10.226562 46.054688 10.082031 46.046875 9.972656 45.96875 C 9.867188 45.890625 9.816406 45.757812 9.839844 45.628906 L 13.03125 30.160156 C 13.125 29.703125 12.972656 29.230469 12.628906 28.917969 L 0.976562 18.308594 C 0.878906 18.21875 0.84375 18.078125 0.882812 17.953125 C 0.925781 17.824219 1.035156 17.734375 1.167969 17.71875 L 16.84375 15.984375 C 17.304688 15.933594 17.707031 15.644531 17.898438 15.21875 L 24.421875 0.789062 C 24.476562 0.667969 24.597656 0.589844 24.730469 0.589844 C 24.863281 0.589844 24.984375 0.667969 25.039062 0.789062 Z M 25.039062 0.789062 " clip-rule="nonzero"/></clipPath><clipPath id="1b528b0f0b"><rect x="0" width="49" y="0" height="47"/></clipPath><clipPath id="2041696afe"><path d="M 112.429688 62.105469 L 161 62.105469 L 161 107.429688 L 112.429688 107.429688 Z M 112.429688 62.105469 " clip-rule="nonzero"/></clipPath><clipPath id="ce6637613e"><path d="M 137.03125 62.789062 L 143.550781 77.210938 C 143.742188 77.632812 144.140625 77.925781 144.601562 77.976562 L 160.269531 79.710938 C 160.402344 79.722656 160.511719 79.816406 160.554688 79.941406 C 160.59375 80.066406 160.558594 80.207031 160.460938 80.296875 L 148.816406 90.902344 C 148.472656 91.214844 148.316406 91.683594 148.410156 92.140625 L 151.601562 107.597656 C 151.628906 107.730469 151.574219 107.863281 151.46875 107.941406 C 151.359375 108.019531 151.21875 108.027344 151.101562 107.960938 L 137.375 100.128906 C 136.96875 99.898438 136.476562 99.898438 136.070312 100.128906 L 122.34375 107.960938 C 122.226562 108.027344 122.085938 108.019531 121.976562 107.941406 C 121.867188 107.863281 121.816406 107.730469 121.84375 107.597656 L 125.03125 92.140625 C 125.125 91.683594 124.972656 91.214844 124.628906 90.902344 L 112.984375 80.296875 C 112.886719 80.207031 112.851562 80.066406 112.890625 79.941406 C 112.933594 79.816406 113.042969 79.722656 113.175781 79.710938 L 128.84375 77.976562 C 129.304688 77.925781 129.703125 77.632812 129.894531 77.210938 L 136.414062 62.789062 C 136.46875 62.667969 136.589844 62.589844 136.722656 62.589844 C 136.855469 62.589844 136.976562 62.667969 137.03125 62.789062 Z M 137.03125 62.789062 " clip-rule="nonzero"/></clipPath><clipPath id="f3282cebb6"><path d="M 167.800781 62.46875 L 215.761719 62.46875 L 215.761719 108.074219 L 167.800781 108.074219 Z M 167.800781 62.46875 " clip-rule="nonzero"/></clipPath><clipPath id="686c384c3c"><path d="M 192.054688 62.789062 L 198.574219 77.21875 C 198.765625 77.644531 199.167969 77.933594 199.628906 77.984375 L 215.304688 79.71875 C 215.4375 79.734375 215.546875 79.824219 215.589844 79.953125 C 215.628906 80.078125 215.59375 80.21875 215.496094 80.308594 L 203.84375 90.917969 C 203.5 91.230469 203.347656 91.703125 203.441406 92.160156 L 206.632812 107.628906 C 206.660156 107.757812 206.605469 107.890625 206.5 107.96875 C 206.390625 108.046875 206.246094 108.054688 206.132812 107.988281 L 192.394531 100.152344 C 191.992188 99.921875 191.496094 99.921875 191.09375 100.152344 L 177.355469 107.988281 C 177.242188 108.054688 177.097656 108.046875 176.988281 107.96875 C 176.882812 107.890625 176.828125 107.757812 176.855469 107.628906 L 180.046875 92.160156 C 180.140625 91.703125 179.988281 91.230469 179.644531 90.917969 L 167.992188 80.308594 C 167.894531 80.21875 167.859375 80.078125 167.898438 79.953125 C 167.941406 79.824219 168.050781 79.734375 168.183594 79.71875 L 183.859375 77.984375 C 184.320312 77.933594 184.722656 77.644531 184.914062 77.21875 L 191.433594 62.789062 C 191.488281 62.667969 191.609375 62.589844 191.746094 62.589844 C 191.878906 62.589844 192 62.667969 192.054688 62.789062 Z M 192.054688 62.789062 " clip-rule="nonzero"/></clipPath><clipPath id="278b9d4df8"><path d="M 0.800781 0.480469 L 48.761719 0.480469 L 48.761719 46.074219 L 0.800781 46.074219 Z M 0.800781 0.480469 " clip-rule="nonzero"/></clipPath><clipPath id="e901bcd021"><path d="M 25.054688 0.789062 L 31.574219 15.21875 C 31.765625 15.644531 32.167969 15.933594 32.628906 15.984375 L 48.304688 17.71875 C 48.4375 17.734375 48.546875 17.824219 48.589844 17.953125 C 48.628906 18.078125 48.59375 18.21875 48.496094 18.308594 L 36.84375 28.917969 C 36.5 29.230469 36.347656 29.703125 36.441406 30.160156 L 39.632812 45.628906 C 39.660156 45.757812 39.605469 45.890625 39.5 45.96875 C 39.390625 46.046875 39.246094 46.054688 39.132812 45.988281 L 25.394531 38.152344 C 24.992188 37.921875 24.496094 37.921875 24.09375 38.152344 L 10.355469 45.988281 C 10.242188 46.054688 10.097656 46.046875 9.988281 45.96875 C 9.882812 45.890625 9.828125 45.757812 9.855469 45.628906 L 13.046875 30.160156 C 13.140625 29.703125 12.988281 29.230469 12.644531 28.917969 L 0.992188 18.308594 C 0.894531 18.21875 0.859375 18.078125 0.898438 17.953125 C 0.941406 17.824219 1.050781 17.734375 1.183594 17.71875 L 16.859375 15.984375 C 17.320312 15.933594 17.722656 15.644531 17.914062 15.21875 L 24.433594 0.789062 C 24.488281 0.667969 24.609375 0.589844 24.746094 0.589844 C 24.878906 0.589844 25 0.667969 25.054688 0.789062 Z M 25.054688 0.789062 " clip-rule="nonzero"/></clipPath><clipPath id="f99ea9fb52"><rect x="0" width="49" y="0" height="47"/></clipPath><clipPath id="98bb847e37"><path d="M 167.445312 62.105469 L 216 62.105469 L 216 107.429688 L 167.445312 107.429688 Z M 167.445312 62.105469 " clip-rule="nonzero"/></clipPath><clipPath id="43911268b5"><path d="M 192.046875 62.789062 L 198.5625 77.210938 C 198.753906 77.632812 199.15625 77.925781 199.617188 77.976562 L 215.285156 79.710938 C 215.414062 79.722656 215.527344 79.816406 215.566406 79.941406 C 215.609375 80.066406 215.574219 80.207031 215.472656 80.296875 L 203.828125 90.902344 C 203.484375 91.214844 203.332031 91.683594 203.425781 92.140625 L 206.617188 107.597656 C 206.644531 107.730469 206.589844 107.863281 206.484375 107.941406 C 206.375 108.019531 206.230469 108.027344 206.117188 107.960938 L 192.386719 100.128906 C 191.984375 99.898438 191.488281 99.898438 191.085938 100.128906 L 177.359375 107.960938 C 177.242188 108.027344 177.097656 108.019531 176.992188 107.941406 C 176.882812 107.863281 176.832031 107.730469 176.859375 107.597656 L 180.046875 92.140625 C 180.140625 91.683594 179.988281 91.214844 179.644531 90.902344 L 168 80.296875 C 167.902344 80.207031 167.867188 80.066406 167.90625 79.941406 C 167.949219 79.816406 168.058594 79.722656 168.191406 79.710938 L 183.855469 77.976562 C 184.320312 77.925781 184.71875 77.632812 184.910156 77.210938 L 191.429688 62.789062 C 191.484375 62.667969 191.605469 62.589844 191.738281 62.589844 C 191.871094 62.589844 191.992188 62.667969 192.046875 62.789062 Z M 192.046875 62.789062 " clip-rule="nonzero"/></clipPath><clipPath id="79af803dc2"><path d="M 223.808594 62.46875 L 271.769531 62.46875 L 271.769531 108.074219 L 223.808594 108.074219 Z M 223.808594 62.46875 " clip-rule="nonzero"/></clipPath><clipPath id="de10bf372a"><path d="M 248.0625 62.789062 L 254.582031 77.21875 C 254.773438 77.644531 255.175781 77.933594 255.636719 77.984375 L 271.3125 79.71875 C 271.445312 79.734375 271.554688 79.824219 271.597656 79.953125 C 271.640625 80.078125 271.601562 80.21875 271.503906 80.308594 L 259.851562 90.917969 C 259.507812 91.230469 259.355469 91.703125 259.449219 92.160156 L 262.640625 107.628906 C 262.667969 107.757812 262.613281 107.890625 262.507812 107.96875 C 262.398438 108.046875 262.253906 108.054688 262.140625 107.988281 L 248.402344 100.152344 C 248 99.921875 247.503906 99.921875 247.101562 100.152344 L 233.363281 107.988281 C 233.25 108.054688 233.105469 108.046875 232.996094 107.96875 C 232.890625 107.890625 232.835938 107.757812 232.863281 107.628906 L 236.054688 92.160156 C 236.148438 91.703125 235.996094 91.230469 235.652344 90.917969 L 224 80.308594 C 223.902344 80.21875 223.867188 80.078125 223.90625 79.953125 C 223.949219 79.824219 224.058594 79.734375 224.191406 79.71875 L 239.867188 77.984375 C 240.328125 77.933594 240.730469 77.644531 240.921875 77.21875 L 247.445312 62.789062 C 247.5 62.667969 247.621094 62.589844 247.753906 62.589844 C 247.886719 62.589844 248.007812 62.667969 248.0625 62.789062 Z M 248.0625 62.789062 " clip-rule="nonzero"/></clipPath><clipPath id="301f06baf5"><path d="M 0.808594 0.480469 L 48.679688 0.480469 L 48.679688 46.074219 L 0.808594 46.074219 Z M 0.808594 0.480469 " clip-rule="nonzero"/></clipPath><clipPath id="c7f995182b"><path d="M 25.0625 0.789062 L 31.582031 15.21875 C 31.773438 15.644531 32.175781 15.933594 32.636719 15.984375 L 48.3125 17.71875 C 48.445312 17.734375 48.554688 17.824219 48.597656 17.953125 C 48.640625 18.078125 48.601562 18.21875 48.503906 18.308594 L 36.851562 28.917969 C 36.507812 29.230469 36.355469 29.703125 36.449219 30.160156 L 39.640625 45.628906 C 39.667969 45.757812 39.613281 45.890625 39.507812 45.96875 C 39.398438 46.046875 39.253906 46.054688 39.140625 45.988281 L 25.402344 38.152344 C 25 37.921875 24.503906 37.921875 24.101562 38.152344 L 10.363281 45.988281 C 10.25 46.054688 10.105469 46.046875 9.996094 45.96875 C 9.890625 45.890625 9.835938 45.757812 9.863281 45.628906 L 13.054688 30.160156 C 13.148438 29.703125 12.996094 29.230469 12.652344 28.917969 L 1 18.308594 C 0.902344 18.21875 0.867188 18.078125 0.90625 17.953125 C 0.949219 17.824219 1.058594 17.734375 1.191406 17.71875 L 16.867188 15.984375 C 17.328125 15.933594 17.730469 15.644531 17.921875 15.21875 L 24.445312 0.789062 C 24.5 0.667969 24.621094 0.589844 24.753906 0.589844 C 24.886719 0.589844 25.007812 0.667969 25.0625 0.789062 Z M 25.0625 0.789062 " clip-rule="nonzero"/></clipPath><clipPath id="7429154591"><rect x="0" width="49" y="0" height="47"/></clipPath><clipPath id="50ae3d8a90"><path d="M 223.453125 62.105469 L 272 62.105469 L 272 107.429688 L 223.453125 107.429688 Z M 223.453125 62.105469 " clip-rule="nonzero"/></clipPath><clipPath id="e0c25edb77"><path d="M 248.054688 62.789062 L 254.570312 77.210938 C 254.761719 77.632812 255.164062 77.925781 255.625 77.976562 L 271.292969 79.710938 C 271.421875 79.722656 271.535156 79.816406 271.578125 79.941406 C 271.617188 80.066406 271.582031 80.207031 271.480469 80.296875 L 259.835938 90.902344 C 259.496094 91.214844 259.339844 91.683594 259.433594 92.140625 L 262.625 107.597656 C 262.652344 107.730469 262.597656 107.863281 262.492188 107.941406 C 262.382812 108.019531 262.238281 108.027344 262.125 107.960938 L 248.394531 100.128906 C 247.992188 99.898438 247.496094 99.898438 247.09375 100.128906 L 233.367188 107.960938 C 233.25 108.027344 233.105469 108.019531 233 107.941406 C 232.890625 107.863281 232.839844 107.730469 232.867188 107.597656 L 236.054688 92.140625 C 236.148438 91.683594 235.996094 91.214844 235.652344 90.902344 L 224.007812 80.296875 C 223.910156 80.207031 223.875 80.066406 223.914062 79.941406 C 223.957031 79.816406 224.066406 79.722656 224.199219 79.710938 L 239.863281 77.976562 C 240.328125 77.925781 240.726562 77.632812 240.917969 77.210938 L 247.4375 62.789062 C 247.492188 62.667969 247.613281 62.589844 247.746094 62.589844 C 247.878906 62.589844 248 62.667969 248.054688 62.789062 Z M 248.054688 62.789062 " clip-rule="nonzero"/></clipPath><clipPath id="12f9e56124"><rect x="0" width="276" y="0" height="112"/></clipPath></defs><g clip-path="url(#f4e15a187a)"><g clip-path="url(#dc0dd1a328)"><g transform="matrix(1, 0, 0, 1, 2, 2)"><g clip-path="url(#8928ce436c)"><g clip-path="url(#21381bfa43)"><g clip-path="url(#2cf90da760)"><path fill="#104762" d="M 0.664062 0.664062 L 295.335938 0.664062 L 295.335938 295.335938 L 0.664062 295.335938 Z M 0.664062 0.664062 " fill-opacity="1" fill-rule="nonzero"/></g></g></g></g></g></g><g clip-path="url(#85ba5724d5)"><g clip-path="url(#ee65961dde)"><path stroke-linecap="butt" transform="matrix(0.75, 0, 0, 0.75, 2.662506, 2.6625)" fill="none" stroke-linejoin="miter" d="M 14.002077 0.00208362 L 378.892732 0.00208362 C 382.606274 0.00208362 386.163565 1.476042 388.788566 4.101042 C 391.413566 6.726043 392.892733 10.288543 392.892733 14.002085 L 392.892733 378.89274 C 392.892733 382.606282 391.413566 386.163573 388.788566 388.788574 C 386.163565 391.413574 382.606274 392.892741 378.892732 392.892741 L 14.002077 392.892741 C 10.288535 392.892741 6.726035 391.413574 4.101034 388.788574 C 1.476034 386.163573 0.00207562 382.606282 0.00207562 378.89274 L 0.00207562 14.002085 C 0.00207562 10.288543 1.476034 6.726043 4.101034 4.101042 C 6.726035 1.476042 10.288535 0.00208362 14.002077 0.00208362 Z M 14.002077 0.00208362 " stroke="#000000" stroke-width="6" stroke-opacity="1" stroke-miterlimit="4"/></g></g><g transform="matrix(1, 0, 0, 1, 12, 94)"><g clip-path="url(#12f9e56124)"><g clip-path="url(#6e5631cf91)"><g clip-path="url(#19413371f4)"><g transform="matrix(1, 0, 0, 1, 4, 4)"><g clip-path="url(#adfc43585d)"><g clip-path="url(#80f29b360a)"><g clip-path="url(#ab6659b0a1)"><path fill="#ffde59" d="M -0.0585938 -0.4375 L 48.628906 -0.4375 L 48.628906 45.894531 L -0.0585938 45.894531 Z M -0.0585938 -0.4375 " fill-opacity="1" fill-rule="nonzero"/></g></g></g></g></g></g><g clip-path="url(#2ecdf54184)"><g clip-path="url(#35524754c1)"><path stroke-linecap="butt" transform="matrix(2.158405, 0, 0, 2.158405, 3.949886, 3.562233)" fill="none" stroke-linejoin="miter" d="M 11.397722 0.316836 L 14.416445 6.998566 C 14.505124 7.194022 14.691532 7.329756 14.905087 7.353284 L 22.162328 8.156829 C 22.223861 8.162258 22.276345 8.205693 22.294443 8.263606 C 22.31435 8.321519 22.296253 8.386671 22.251008 8.428296 L 16.856036 13.341865 C 16.696775 13.486648 16.626194 13.703822 16.669628 13.915567 L 18.148223 21.0787 C 18.159082 21.138423 18.135555 21.199955 18.086691 21.236151 C 18.036017 21.272347 17.969055 21.275966 17.916571 21.2452 L 11.555173 17.616579 C 11.368766 17.509802 11.138923 17.509802 10.952515 17.616579 L 4.592927 21.2452 C 4.538634 21.275966 4.471672 21.272347 4.422807 21.236151 C 4.372133 21.199955 4.348606 21.138423 4.361275 21.0787 L 5.83806 13.915567 C 5.881495 13.703822 5.810913 13.486648 5.651652 13.341865 L 0.25668 8.428296 C 0.211436 8.386671 0.193338 8.321519 0.213245 8.263606 C 0.231343 8.205693 0.283827 8.162258 0.34536 8.156829 L 7.602601 7.353284 C 7.816156 7.329756 8.002564 7.194022 8.091243 6.998566 L 11.111776 0.316836 C 11.137113 0.260733 11.193216 0.224537 11.254749 0.224537 C 11.316282 0.224537 11.372385 0.260733 11.397722 0.316836 Z M 11.397722 0.316836 " stroke="#000000" stroke-width="0.694958" stroke-opacity="1" stroke-miterlimit="4"/></g></g><g clip-path="url(#d554f8c75f)"><g clip-path="url(#39552c0a26)"><g transform="matrix(1, 0, 0, 1, 58, 4)"><g clip-path="url(#9c1bb57877)"><g clip-path="url(#5cfc353c48)"><g clip-path="url(#f6340e703d)"><path fill="#8885ba" d="M 0.207031 -0.4375 L 48.894531 -0.4375 L 48.894531 45.894531 L 0.207031 45.894531 Z M 0.207031 -0.4375 " fill-opacity="1" fill-rule="nonzero"/></g></g></g></g></g></g><g clip-path="url(#00feaccf0f)"><g clip-path="url(#27a6cd563e)"><path stroke-linecap="butt" transform="matrix(2.158405, 0, 0, 2.158405, 58.216171, 3.562233)" fill="none" stroke-linejoin="miter" d="M 11.397416 0.316836 L 14.416139 6.998566 C 14.504819 7.194022 14.691227 7.329756 14.904781 7.353284 L 22.163832 8.156829 C 22.223555 8.162258 22.276039 8.205693 22.294137 8.263606 C 22.314045 8.321519 22.297757 8.386671 22.250702 8.428296 L 16.85573 13.341865 C 16.698279 13.486648 16.625888 13.703822 16.669323 13.915567 L 18.147918 21.0787 C 18.160586 21.138423 18.135249 21.199955 18.086385 21.236151 C 18.035711 21.272347 17.968749 21.275966 17.916265 21.2452 L 11.554868 17.616579 C 11.36846 17.509802 11.138617 17.509802 10.952209 17.616579 L 4.592621 21.2452 C 4.538328 21.275966 4.471366 21.272347 4.422502 21.236151 C 4.371828 21.199955 4.3483 21.138423 4.360969 21.0787 L 5.837754 13.915567 C 5.881189 13.703822 5.810607 13.486648 5.651346 13.341865 L 0.256374 8.428296 C 0.21113 8.386671 0.194842 8.321519 0.21294 8.263606 C 0.232847 8.205693 0.283521 8.162258 0.345054 8.156829 L 7.602295 7.353284 C 7.81766 7.329756 8.002258 7.194022 8.090937 6.998566 L 11.11147 0.316836 C 11.136807 0.260733 11.19291 0.224537 11.254443 0.224537 C 11.315976 0.224537 11.372079 0.260733 11.397416 0.316836 Z M 11.397416 0.316836 " stroke="#000000" stroke-width="0.694958" stroke-opacity="1" stroke-miterlimit="4"/></g></g><g clip-path="url(#1266ce194f)"><g clip-path="url(#ff12fbd0a2)"><g transform="matrix(1, 0, 0, 1, 112, 4)"><g clip-path="url(#b4a29c2f08)"><g clip-path="url(#e20195e773)"><g clip-path="url(#18c4a57e85)"><path fill="#8885ba" d="M 0.421875 -0.4375 L 49.109375 -0.4375 L 49.109375 45.894531 L 0.421875 45.894531 Z M 0.421875 -0.4375 " fill-opacity="1" fill-rule="nonzero"/></g></g></g></g></g></g><g clip-path="url(#3d6a450fd0)"><g clip-path="url(#26eebb04e5)"><path stroke-linecap="butt" transform="matrix(2.158405, 0, 0, 2.158405, 112.431529, 3.562233)" fill="none" stroke-linejoin="miter" d="M 11.397178 0.316836 L 14.417711 6.998566 C 14.506391 7.194022 14.690989 7.329756 14.904543 7.353284 L 22.163595 8.156829 C 22.225127 8.162258 22.275801 8.205693 22.295709 8.263606 C 22.313807 8.321519 22.297519 8.386671 22.252274 8.428296 L 16.857302 13.341865 C 16.698041 13.486648 16.62565 13.703822 16.669085 13.915567 L 18.14768 21.0787 C 18.160348 21.138423 18.135011 21.199955 18.086147 21.236151 C 18.035473 21.272347 17.970321 21.275966 17.916027 21.2452 L 11.55644 17.616579 C 11.368222 17.509802 11.140189 17.509802 10.951971 17.616579 L 4.592384 21.2452 C 4.53809 21.275966 4.472938 21.272347 4.422264 21.236151 C 4.37159 21.199955 4.348062 21.138423 4.360731 21.0787 L 5.837516 13.915567 C 5.880951 13.703822 5.810369 13.486648 5.651108 13.341865 L 0.256137 8.428296 C 0.210892 8.386671 0.194604 8.321519 0.212702 8.263606 C 0.232609 8.205693 0.283283 8.162258 0.344816 8.156829 L 7.603867 7.353284 C 7.817422 7.329756 8.00202 7.194022 8.0907 6.998566 L 11.111232 0.316836 C 11.136569 0.260733 11.192673 0.224537 11.254205 0.224537 C 11.315738 0.224537 11.371841 0.260733 11.397178 0.316836 Z M 11.397178 0.316836 " stroke="#000000" stroke-width="0.694958" stroke-opacity="1" stroke-miterlimit="4"/></g></g><g clip-path="url(#11eb96e9a1)"><g clip-path="url(#5378e522d7)"><g transform="matrix(1, 0, 0, 1, 167, 4)"><g clip-path="url(#33cb3957aa)"><g clip-path="url(#c46462095c)"><g clip-path="url(#0e396adfde)"><path fill="#8885ba" d="M 0.4375 -0.4375 L 49.125 -0.4375 L 49.125 45.894531 L 0.4375 45.894531 Z M 0.4375 -0.4375 " fill-opacity="1" fill-rule="nonzero"/></g></g></g></g></g></g><g clip-path="url(#a26c5d5fc6)"><g clip-path="url(#f58fec4443)"><path stroke-linecap="butt" transform="matrix(2.158405, 0, 0, 2.158405, 167.44647, 3.562233)" fill="none" stroke-linejoin="miter" d="M 11.397495 0.316836 L 14.416218 6.998566 C 14.504898 7.194022 14.691306 7.329756 14.90486 7.353284 L 22.163911 8.156829 C 22.223634 8.162258 22.276118 8.205693 22.294216 8.263606 C 22.314124 8.321519 22.297836 8.386671 22.250781 8.428296 L 16.855809 13.341865 C 16.696548 13.486648 16.625967 13.703822 16.669401 13.915567 L 18.147997 21.0787 C 18.160665 21.138423 18.135328 21.199955 18.086464 21.236151 C 18.03579 21.272347 17.968828 21.275966 17.916344 21.2452 L 11.554947 17.616579 C 11.368539 17.509802 11.138696 17.509802 10.952288 17.616579 L 4.5927 21.2452 C 4.538407 21.275966 4.471445 21.272347 4.422581 21.236151 C 4.371907 21.199955 4.348379 21.138423 4.361048 21.0787 L 5.837833 13.915567 C 5.881268 13.703822 5.810686 13.486648 5.651425 13.341865 L 0.256453 8.428296 C 0.211209 8.386671 0.194921 8.321519 0.213019 8.263606 C 0.232926 8.205693 0.2836 8.162258 0.345133 8.156829 L 7.602374 7.353284 C 7.817739 7.329756 8.002337 7.194022 8.091016 6.998566 L 11.111549 0.316836 C 11.136886 0.260733 11.192989 0.224537 11.254522 0.224537 C 11.316055 0.224537 11.372158 0.260733 11.397495 0.316836 Z M 11.397495 0.316836 " stroke="#000000" stroke-width="0.694958" stroke-opacity="1" stroke-miterlimit="4"/></g></g><g clip-path="url(#3206522863)"><g clip-path="url(#50a6baeb10)"><g transform="matrix(1, 0, 0, 1, 223, 4)"><g clip-path="url(#42dd6426ca)"><g clip-path="url(#78964f2e7b)"><g clip-path="url(#39405ca73e)"><path fill="#8885ba" d="M 0.445312 -0.4375 L 49.132812 -0.4375 L 49.132812 45.894531 L 0.445312 45.894531 Z M 0.445312 -0.4375 " fill-opacity="1" fill-rule="nonzero"/></g></g></g></g></g></g><g clip-path="url(#420df223a5)"><g clip-path="url(#e964d91f1b)"><path stroke-linecap="butt" transform="matrix(2.158405, 0, 0, 2.158405, 223.454562, 3.562233)" fill="none" stroke-linejoin="miter" d="M 11.397366 0.316836 L 14.416088 6.998566 C 14.504768 7.194022 14.691176 7.329756 14.904731 7.353284 L 22.163782 8.156829 C 22.223505 8.162258 22.275989 8.205693 22.295896 8.263606 C 22.313994 8.321519 22.297706 8.386671 22.250652 8.428296 L 16.85568 13.341865 C 16.698228 13.486648 16.625837 13.703822 16.669272 13.915567 L 18.147867 21.0787 C 18.160535 21.138423 18.135198 21.199955 18.086334 21.236151 C 18.03566 21.272347 17.968698 21.275966 17.916214 21.2452 L 11.554817 17.616579 C 11.368409 17.509802 11.138566 17.509802 10.952158 17.616579 L 4.592571 21.2452 C 4.538277 21.275966 4.471315 21.272347 4.422451 21.236151 C 4.371777 21.199955 4.34825 21.138423 4.360918 21.0787 L 5.837703 13.915567 C 5.881138 13.703822 5.810557 13.486648 5.651296 13.341865 L 0.256324 8.428296 C 0.211079 8.386671 0.194791 8.321519 0.212889 8.263606 C 0.232797 8.205693 0.283471 8.162258 0.345003 8.156829 L 7.602245 7.353284 C 7.817609 7.329756 8.002207 7.194022 8.090887 6.998566 L 11.111419 0.316836 C 11.136756 0.260733 11.19286 0.224537 11.254393 0.224537 C 11.315925 0.224537 11.372029 0.260733 11.397366 0.316836 Z M 11.397366 0.316836 " stroke="#000000" stroke-width="0.694958" stroke-opacity="1" stroke-miterlimit="4"/></g></g><g clip-path="url(#971aeaf1db)"><g clip-path="url(#5fc8dbb691)"><g transform="matrix(1, 0, 0, 1, 4, 62)"><g clip-path="url(#6493b9991b)"><g clip-path="url(#b93f3aa3cc)"><g clip-path="url(#d3785f8f75)"><path fill="#8885ba" d="M -0.0585938 0.105469 L 48.628906 0.105469 L 48.628906 46.4375 L -0.0585938 46.4375 Z M -0.0585938 0.105469 " fill-opacity="1" fill-rule="nonzero"/></g></g></g></g></g></g><g clip-path="url(#00295ce066)"><g clip-path="url(#99b7b30f4f)"><path stroke-linecap="butt" transform="matrix(2.158405, 0, 0, 2.158405, 3.949886, 62.104826)" fill="none" stroke-linejoin="miter" d="M 11.397722 0.31701 L 14.416445 6.99874 C 14.505124 7.194196 14.691532 7.32993 14.905087 7.353458 L 22.162328 8.157002 C 22.223861 8.162432 22.276345 8.205867 22.294443 8.26378 C 22.31435 8.321693 22.296253 8.386845 22.251008 8.42847 L 16.856036 13.342039 C 16.696775 13.486822 16.626194 13.703996 16.669628 13.915741 L 18.148223 21.077064 C 18.159082 21.138597 18.135555 21.200129 18.086691 21.236325 C 18.036017 21.272521 17.969055 21.27614 17.916571 21.245374 L 11.555173 17.616753 C 11.368766 17.509976 11.138923 17.509976 10.952515 17.616753 L 4.592927 21.245374 C 4.538634 21.27614 4.471672 21.272521 4.422807 21.236325 C 4.372133 21.200129 4.348606 21.138597 4.361275 21.077064 L 5.83806 13.915741 C 5.881495 13.703996 5.810913 13.486822 5.651652 13.342039 L 0.25668 8.42847 C 0.211436 8.386845 0.193338 8.321693 0.213245 8.26378 C 0.231343 8.205867 0.283827 8.162432 0.34536 8.157002 L 7.602601 7.353458 C 7.816156 7.32993 8.002564 7.194196 8.091243 6.99874 L 11.111776 0.31701 C 11.137113 0.260907 11.193216 0.224711 11.254749 0.224711 C 11.316282 0.224711 11.372385 0.260907 11.397722 0.31701 Z M 11.397722 0.31701 " stroke="#000000" stroke-width="0.694958" stroke-opacity="1" stroke-miterlimit="4"/></g></g><g clip-path="url(#0e1dd62ffb)"><g clip-path="url(#b9ddc594fe)"><g transform="matrix(1, 0, 0, 1, 58, 62)"><g clip-path="url(#b5770ad4ed)"><g clip-path="url(#d002cc42c9)"><g clip-path="url(#eed7655bd2)"><path fill="#8885ba" d="M 0.207031 0.105469 L 48.894531 0.105469 L 48.894531 46.4375 L 0.207031 46.4375 Z M 0.207031 0.105469 " fill-opacity="1" fill-rule="nonzero"/></g></g></g></g></g></g><g clip-path="url(#3411295bcd)"><g clip-path="url(#429a1d3825)"><path stroke-linecap="butt" transform="matrix(2.158405, 0, 0, 2.158405, 58.216171, 62.104826)" fill="none" stroke-linejoin="miter" d="M 11.397416 0.31701 L 14.416139 6.99874 C 14.504819 7.194196 14.691227 7.32993 14.904781 7.353458 L 22.163832 8.157002 C 22.223555 8.162432 22.276039 8.205867 22.294137 8.26378 C 22.314045 8.321693 22.297757 8.386845 22.250702 8.42847 L 16.85573 13.342039 C 16.698279 13.486822 16.625888 13.703996 16.669323 13.915741 L 18.147918 21.077064 C 18.160586 21.138597 18.135249 21.200129 18.086385 21.236325 C 18.035711 21.272521 17.968749 21.27614 17.916265 21.245374 L 11.554868 17.616753 C 11.36846 17.509976 11.138617 17.509976 10.952209 17.616753 L 4.592621 21.245374 C 4.538328 21.27614 4.471366 21.272521 4.422502 21.236325 C 4.371828 21.200129 4.3483 21.138597 4.360969 21.077064 L 5.837754 13.915741 C 5.881189 13.703996 5.810607 13.486822 5.651346 13.342039 L 0.256374 8.42847 C 0.21113 8.386845 0.194842 8.321693 0.21294 8.26378 C 0.232847 8.205867 0.283521 8.162432 0.345054 8.157002 L 7.602295 7.353458 C 7.81766 7.32993 8.002258 7.194196 8.090937 6.99874 L 11.11147 0.31701 C 11.136807 0.260907 11.19291 0.224711 11.254443 0.224711 C 11.315976 0.224711 11.372079 0.260907 11.397416 0.31701 Z M 11.397416 0.31701 " stroke="#000000" stroke-width="0.694958" stroke-opacity="1" stroke-miterlimit="4"/></g></g><g clip-path="url(#1535d73c0b)"><g clip-path="url(#9b0bd4cc7a)"><g transform="matrix(1, 0, 0, 1, 112, 62)"><g clip-path="url(#1b528b0f0b)"><g clip-path="url(#be58f0c801)"><g clip-path="url(#70eaafb6f1)"><path fill="#8885ba" d="M 0.421875 0.105469 L 49.109375 0.105469 L 49.109375 46.4375 L 0.421875 46.4375 Z M 0.421875 0.105469 " fill-opacity="1" fill-rule="nonzero"/></g></g></g></g></g></g><g clip-path="url(#2041696afe)"><g clip-path="url(#ce6637613e)"><path stroke-linecap="butt" transform="matrix(2.158405, 0, 0, 2.158405, 112.431529, 62.104826)" fill="none" stroke-linejoin="miter" d="M 11.397178 0.31701 L 14.417711 6.99874 C 14.506391 7.194196 14.690989 7.32993 14.904543 7.353458 L 22.163595 8.157002 C 22.225127 8.162432 22.275801 8.205867 22.295709 8.26378 C 22.313807 8.321693 22.297519 8.386845 22.252274 8.42847 L 16.857302 13.342039 C 16.698041 13.486822 16.62565 13.703996 16.669085 13.915741 L 18.14768 21.077064 C 18.160348 21.138597 18.135011 21.200129 18.086147 21.236325 C 18.035473 21.272521 17.970321 21.27614 17.916027 21.245374 L 11.55644 17.616753 C 11.368222 17.509976 11.140189 17.509976 10.951971 17.616753 L 4.592384 21.245374 C 4.53809 21.27614 4.472938 21.272521 4.422264 21.236325 C 4.37159 21.200129 4.348062 21.138597 4.360731 21.077064 L 5.837516 13.915741 C 5.880951 13.703996 5.810369 13.486822 5.651108 13.342039 L 0.256137 8.42847 C 0.210892 8.386845 0.194604 8.321693 0.212702 8.26378 C 0.232609 8.205867 0.283283 8.162432 0.344816 8.157002 L 7.603867 7.353458 C 7.817422 7.32993 8.00202 7.194196 8.0907 6.99874 L 11.111232 0.31701 C 11.136569 0.260907 11.192673 0.224711 11.254205 0.224711 C 11.315738 0.224711 11.371841 0.260907 11.397178 0.31701 Z M 11.397178 0.31701 " stroke="#000000" stroke-width="0.694958" stroke-opacity="1" stroke-miterlimit="4"/></g></g><g clip-path="url(#f3282cebb6)"><g clip-path="url(#686c384c3c)"><g transform="matrix(1, 0, 0, 1, 167, 62)"><g clip-path="url(#f99ea9fb52)"><g clip-path="url(#278b9d4df8)"><g clip-path="url(#e901bcd021)"><path fill="#8885ba" d="M 0.4375 0.105469 L 49.125 0.105469 L 49.125 46.4375 L 0.4375 46.4375 Z M 0.4375 0.105469 " fill-opacity="1" fill-rule="nonzero"/></g></g></g></g></g></g><g clip-path="url(#98bb847e37)"><g clip-path="url(#43911268b5)"><path stroke-linecap="butt" transform="matrix(2.158405, 0, 0, 2.158405, 167.44647, 62.104826)" fill="none" stroke-linejoin="miter" d="M 11.397495 0.31701 L 14.416218 6.99874 C 14.504898 7.194196 14.691306 7.32993 14.90486 7.353458 L 22.163911 8.157002 C 22.223634 8.162432 22.276118 8.205867 22.294216 8.26378 C 22.314124 8.321693 22.297836 8.386845 22.250781 8.42847 L 16.855809 13.342039 C 16.696548 13.486822 16.625967 13.703996 16.669401 13.915741 L 18.147997 21.077064 C 18.160665 21.138597 18.135328 21.200129 18.086464 21.236325 C 18.03579 21.272521 17.968828 21.27614 17.916344 21.245374 L 11.554947 17.616753 C 11.368539 17.509976 11.138696 17.509976 10.952288 17.616753 L 4.5927 21.245374 C 4.538407 21.27614 4.471445 21.272521 4.422581 21.236325 C 4.371907 21.200129 4.348379 21.138597 4.361048 21.077064 L 5.837833 13.915741 C 5.881268 13.703996 5.810686 13.486822 5.651425 13.342039 L 0.256453 8.42847 C 0.211209 8.386845 0.194921 8.321693 0.213019 8.26378 C 0.232926 8.205867 0.2836 8.162432 0.345133 8.157002 L 7.602374 7.353458 C 7.817739 7.32993 8.002337 7.194196 8.091016 6.99874 L 11.111549 0.31701 C 11.136886 0.260907 11.192989 0.224711 11.254522 0.224711 C 11.316055 0.224711 11.372158 0.260907 11.397495 0.31701 Z M 11.397495 0.31701 " stroke="#000000" stroke-width="0.694958" stroke-opacity="1" stroke-miterlimit="4"/></g></g><g clip-path="url(#79af803dc2)"><g clip-path="url(#de10bf372a)"><g transform="matrix(1, 0, 0, 1, 223, 62)"><g clip-path="url(#7429154591)"><g clip-path="url(#301f06baf5)"><g clip-path="url(#c7f995182b)"><path fill="#8885ba" d="M 0.445312 0.105469 L 49.132812 0.105469 L 49.132812 46.4375 L 0.445312 46.4375 Z M 0.445312 0.105469 " fill-opacity="1" fill-rule="nonzero"/></g></g></g></g></g></g><g clip-path="url(#50ae3d8a90)"><g clip-path="url(#e0c25edb77)"><path stroke-linecap="butt" transform="matrix(2.158405, 0, 0, 2.158405, 223.454562, 62.104826)" fill="none" stroke-linejoin="miter" d="M 11.397366 0.31701 L 14.416088 6.99874 C 14.504768 7.194196 14.691176 7.32993 14.904731 7.353458 L 22.163782 8.157002 C 22.223505 8.162432 22.275989 8.205867 22.295896 8.26378 C 22.313994 8.321693 22.297706 8.386845 22.250652 8.42847 L 16.85568 13.342039 C 16.698228 13.486822 16.625837 13.703996 16.669272 13.915741 L 18.147867 21.077064 C 18.160535 21.138597 18.135198 21.200129 18.086334 21.236325 C 18.03566 21.272521 17.968698 21.27614 17.916214 21.245374 L 11.554817 17.616753 C 11.368409 17.509976 11.138566 17.509976 10.952158 17.616753 L 4.592571 21.245374 C 4.538277 21.27614 4.471315 21.272521 4.422451 21.236325 C 4.371777 21.200129 4.34825 21.138597 4.360918 21.077064 L 5.837703 13.915741 C 5.881138 13.703996 5.810557 13.486822 5.651296 13.342039 L 0.256324 8.42847 C 0.211079 8.386845 0.194791 8.321693 0.212889 8.26378 C 0.232797 8.205867 0.283471 8.162432 0.345003 8.157002 L 7.602245 7.353458 C 7.817609 7.32993 8.002207 7.194196 8.090887 6.99874 L 11.111419 0.31701 C 11.136756 0.260907 11.19286 0.224711 11.254393 0.224711 C 11.315925 0.224711 11.372029 0.260907 11.397366 0.31701 Z M 11.397366 0.31701 " stroke="#000000" stroke-width="0.694958" stroke-opacity="1" stroke-miterlimit="4"/></g></g></g></g></svg>