<svg xmlns="http://www.w3.org/2000/svg" xmlns:xlink="http://www.w3.org/1999/xlink" width="400" zoomAndPan="magnify" viewBox="0 0 300 299.999988" height="400" preserveAspectRatio="xMidYMid meet" version="1.0"><defs><clipPath id="5d97c45b96"><path d="M 21.378906 87.414062 L 146.628906 87.414062 L 146.628906 212.664062 L 21.378906 212.664062 Z M 21.378906 87.414062 " clip-rule="nonzero"/></clipPath><clipPath id="2a7dd575ee"><path d="M 159.253906 87.414062 L 284.503906 87.414062 L 284.503906 212.664062 L 159.253906 212.664062 Z M 159.253906 87.414062 " clip-rule="nonzero"/></clipPath></defs><path fill="#ffffff" d="M 131.550781 211.265625 L 36.457031 211.265625 C 28.902344 211.265625 22.777344 205.140625 22.777344 197.585938 L 22.777344 102.492188 C 22.777344 94.9375 28.902344 88.8125 36.457031 88.8125 L 131.585938 88.8125 C 139.105469 88.8125 145.230469 94.9375 145.230469 102.492188 L 145.230469 197.621094 C 145.230469 205.140625 139.105469 211.265625 131.550781 211.265625 Z M 131.550781 211.265625 " fill-opacity="1" fill-rule="nonzero"/><g clip-path="url(#5d97c45b96)"><path fill="#000000" d="M 131.550781 212.664062 L 36.457031 212.664062 C 28.132812 212.664062 21.378906 205.910156 21.378906 197.585938 L 21.378906 102.492188 C 21.378906 94.167969 28.132812 87.414062 36.457031 87.414062 L 131.585938 87.414062 C 139.878906 87.414062 146.628906 94.167969 146.628906 102.492188 L 146.628906 197.621094 C 146.628906 205.910156 139.878906 212.664062 131.550781 212.664062 Z M 36.457031 90.210938 C 29.671875 90.210938 24.179688 95.707031 24.179688 102.492188 L 24.179688 197.621094 C 24.179688 204.371094 29.671875 209.863281 36.457031 209.863281 L 131.585938 209.863281 C 138.335938 209.863281 143.867188 204.371094 143.867188 197.585938 L 143.867188 102.492188 C 143.867188 95.742188 138.371094 90.210938 131.621094 90.210938 Z M 36.457031 90.210938 " fill-opacity="1" fill-rule="nonzero"/></g><path fill="#0c0b0b" d="M 96.25 150.039062 C 96.25 150.84375 96.171875 151.640625 96.015625 152.425781 C 95.855469 153.214844 95.625 153.980469 95.316406 154.726562 C 95.007812 155.46875 94.632812 156.171875 94.1875 156.839844 C 93.738281 157.511719 93.230469 158.128906 92.664062 158.699219 C 92.09375 159.265625 91.476562 159.773438 90.808594 160.21875 C 90.140625 160.667969 89.433594 161.042969 88.691406 161.351562 C 87.949219 161.660156 87.183594 161.890625 86.394531 162.046875 C 85.605469 162.207031 84.808594 162.285156 84.003906 162.285156 C 83.199219 162.285156 82.402344 162.207031 81.617188 162.046875 C 80.828125 161.890625 80.0625 161.660156 79.316406 161.351562 C 78.574219 161.042969 77.871094 160.667969 77.203125 160.21875 C 76.53125 159.773438 75.914062 159.265625 75.347656 158.699219 C 74.777344 158.128906 74.269531 157.511719 73.824219 156.839844 C 73.375 156.171875 73 155.46875 72.691406 154.726562 C 72.382812 153.980469 72.152344 153.214844 71.996094 152.425781 C 71.835938 151.640625 71.757812 150.84375 71.757812 150.039062 C 71.757812 149.234375 71.835938 148.4375 71.996094 147.648438 C 72.152344 146.859375 72.382812 146.09375 72.691406 145.351562 C 73 144.609375 73.375 143.902344 73.824219 143.234375 C 74.269531 142.566406 74.777344 141.949219 75.347656 141.378906 C 75.914062 140.8125 76.53125 140.304688 77.203125 139.855469 C 77.871094 139.410156 78.574219 139.035156 79.316406 138.726562 C 80.0625 138.417969 80.828125 138.1875 81.617188 138.027344 C 82.402344 137.871094 83.199219 137.792969 84.003906 137.792969 C 84.808594 137.792969 85.605469 137.871094 86.394531 138.027344 C 87.183594 138.1875 87.949219 138.417969 88.691406 138.726562 C 89.433594 139.035156 90.140625 139.410156 90.808594 139.855469 C 91.476562 140.304688 92.09375 140.8125 92.664062 141.378906 C 93.230469 141.949219 93.738281 142.566406 94.1875 143.234375 C 94.632812 143.902344 95.007812 144.609375 95.316406 145.351562 C 95.625 146.09375 95.855469 146.859375 96.015625 147.648438 C 96.171875 148.4375 96.25 149.234375 96.25 150.039062 Z M 96.25 150.039062 " fill-opacity="1" fill-rule="nonzero"/><path fill="#ffffff" d="M 269.425781 211.265625 L 174.332031 211.265625 C 166.773438 211.265625 160.652344 205.140625 160.652344 197.585938 L 160.652344 102.492188 C 160.652344 94.9375 166.773438 88.8125 174.332031 88.8125 L 269.457031 88.8125 C 276.980469 88.8125 283.101562 94.9375 283.101562 102.492188 L 283.101562 197.621094 C 283.101562 205.140625 276.980469 211.265625 269.425781 211.265625 Z M 269.425781 211.265625 " fill-opacity="1" fill-rule="nonzero"/><g clip-path="url(#2a7dd575ee)"><path fill="#000000" d="M 269.425781 212.664062 L 174.332031 212.664062 C 166.003906 212.664062 159.253906 205.910156 159.253906 197.585938 L 159.253906 102.492188 C 159.253906 94.167969 166.003906 87.414062 174.332031 87.414062 L 269.457031 87.414062 C 277.75 87.414062 284.503906 94.167969 284.503906 102.492188 L 284.503906 197.621094 C 284.503906 205.910156 277.75 212.664062 269.425781 212.664062 Z M 174.332031 90.210938 C 167.542969 90.210938 162.050781 95.707031 162.050781 102.492188 L 162.050781 197.621094 C 162.050781 204.371094 167.542969 209.863281 174.332031 209.863281 L 269.457031 209.863281 C 276.210938 209.863281 281.738281 204.371094 281.738281 197.585938 L 281.738281 102.492188 C 281.738281 95.742188 276.246094 90.210938 269.492188 90.210938 Z M 174.332031 90.210938 " fill-opacity="1" fill-rule="nonzero"/></g><path fill="#0c0b0b" d="M 264.035156 120.089844 C 264.035156 120.894531 263.957031 121.691406 263.800781 122.480469 C 263.644531 123.269531 263.410156 124.035156 263.105469 124.777344 C 262.796875 125.519531 262.417969 126.226562 261.972656 126.894531 C 261.527344 127.5625 261.019531 128.179688 260.449219 128.75 C 259.882812 129.316406 259.261719 129.824219 258.59375 130.273438 C 257.925781 130.71875 257.21875 131.097656 256.476562 131.402344 C 255.734375 131.710938 254.96875 131.945312 254.179688 132.101562 C 253.390625 132.257812 252.59375 132.335938 251.789062 132.335938 C 250.988281 132.335938 250.191406 132.257812 249.402344 132.101562 C 248.613281 131.945312 247.847656 131.710938 247.105469 131.402344 C 246.363281 131.097656 245.65625 130.71875 244.988281 130.273438 C 244.320312 129.824219 243.699219 129.316406 243.132812 128.75 C 242.5625 128.179688 242.054688 127.5625 241.609375 126.894531 C 241.164062 126.226562 240.785156 125.519531 240.476562 124.777344 C 240.171875 124.035156 239.9375 123.269531 239.78125 122.480469 C 239.625 121.691406 239.546875 120.894531 239.546875 120.089844 C 239.546875 119.285156 239.625 118.492188 239.78125 117.703125 C 239.9375 116.914062 240.171875 116.148438 240.476562 115.40625 C 240.785156 114.660156 241.164062 113.957031 241.609375 113.289062 C 242.054688 112.621094 242.5625 112 243.132812 111.433594 C 243.699219 110.863281 244.320312 110.355469 244.988281 109.910156 C 245.65625 109.460938 246.363281 109.085938 247.105469 108.777344 C 247.847656 108.46875 248.613281 108.238281 249.402344 108.082031 C 250.191406 107.925781 250.988281 107.84375 251.789062 107.84375 C 252.59375 107.84375 253.390625 107.925781 254.179688 108.082031 C 254.96875 108.238281 255.734375 108.46875 256.476562 108.777344 C 257.21875 109.085938 257.925781 109.460938 258.59375 109.910156 C 259.261719 110.355469 259.882812 110.863281 260.449219 111.433594 C 261.019531 112 261.527344 112.621094 261.972656 113.289062 C 262.417969 113.957031 262.796875 114.660156 263.105469 115.40625 C 263.410156 116.148438 263.644531 116.914062 263.800781 117.703125 C 263.957031 118.492188 264.035156 119.285156 264.035156 120.089844 Z M 264.035156 120.089844 " fill-opacity="1" fill-rule="nonzero"/><path fill="#0c0b0b" d="M 204.175781 179.953125 C 204.175781 180.753906 204.097656 181.550781 203.941406 182.339844 C 203.78125 183.128906 203.550781 183.894531 203.242188 184.636719 C 202.933594 185.378906 202.558594 186.085938 202.109375 186.753906 C 201.664062 187.421875 201.15625 188.042969 200.589844 188.609375 C 200.019531 189.179688 199.402344 189.6875 198.734375 190.132812 C 198.0625 190.578125 197.359375 190.957031 196.617188 191.265625 C 195.871094 191.574219 195.105469 191.804688 194.320312 191.960938 C 193.53125 192.117188 192.734375 192.195312 191.929688 192.195312 C 191.125 192.195312 190.328125 192.117188 189.539062 191.960938 C 188.753906 191.804688 187.988281 191.574219 187.242188 191.265625 C 186.5 190.957031 185.796875 190.578125 185.125 190.132812 C 184.457031 189.6875 183.839844 189.179688 183.269531 188.609375 C 182.703125 188.042969 182.195312 187.421875 181.75 186.753906 C 181.300781 186.085938 180.925781 185.378906 180.617188 184.636719 C 180.308594 183.894531 180.078125 183.128906 179.921875 182.339844 C 179.761719 181.550781 179.683594 180.753906 179.683594 179.953125 C 179.683594 179.148438 179.761719 178.351562 179.921875 177.5625 C 180.078125 176.773438 180.308594 176.007812 180.617188 175.265625 C 180.925781 174.523438 181.300781 173.816406 181.75 173.148438 C 182.195312 172.480469 182.703125 171.863281 183.269531 171.292969 C 183.839844 170.726562 184.457031 170.21875 185.125 169.769531 C 185.796875 169.324219 186.5 168.945312 187.242188 168.640625 C 187.988281 168.332031 188.753906 168.097656 189.539062 167.941406 C 190.328125 167.785156 191.125 167.707031 191.929688 167.707031 C 192.734375 167.707031 193.53125 167.785156 194.320312 167.941406 C 195.105469 168.097656 195.871094 168.332031 196.617188 168.640625 C 197.359375 168.945312 198.0625 169.324219 198.734375 169.769531 C 199.402344 170.21875 200.019531 170.726562 200.589844 171.292969 C 201.15625 171.863281 201.664062 172.480469 202.109375 173.148438 C 202.558594 173.816406 202.933594 174.523438 203.242188 175.265625 C 203.550781 176.007812 203.78125 176.773438 203.941406 177.5625 C 204.097656 178.351562 204.175781 179.148438 204.175781 179.953125 Z M 204.175781 179.953125 " fill-opacity="1" fill-rule="nonzero"/></svg>