<svg xmlns="http://www.w3.org/2000/svg" xmlns:xlink="http://www.w3.org/1999/xlink" width="400" zoomAndPan="magnify" viewBox="0 0 300 299.999988" height="400" preserveAspectRatio="xMidYMid meet" version="1.0"><defs><clipPath id="de7b8105bc"><path d="M 87.414062 87.414062 L 212.664062 87.414062 L 212.664062 212.664062 L 87.414062 212.664062 Z M 87.414062 87.414062 " clip-rule="nonzero"/></clipPath></defs><path fill="#ffffff" d="M 197.585938 211.265625 L 102.492188 211.265625 C 94.9375 211.265625 88.8125 205.140625 88.8125 197.585938 L 88.8125 102.492188 C 88.8125 94.9375 94.9375 88.8125 102.492188 88.8125 L 197.621094 88.8125 C 205.140625 88.8125 211.265625 94.9375 211.265625 102.492188 L 211.265625 197.621094 C 211.265625 205.140625 205.140625 211.265625 197.585938 211.265625 Z M 197.585938 211.265625 " fill-opacity="1" fill-rule="nonzero"/><g clip-path="url(#de7b8105bc)"><path fill="#000000" d="M 197.585938 212.664062 L 102.492188 212.664062 C 94.167969 212.664062 87.414062 205.910156 87.414062 197.585938 L 87.414062 102.492188 C 87.414062 94.167969 94.167969 87.414062 102.492188 87.414062 L 197.621094 87.414062 C 205.910156 87.414062 212.664062 94.167969 212.664062 102.492188 L 212.664062 197.621094 C 212.664062 205.910156 205.910156 212.664062 197.585938 212.664062 Z M 102.492188 90.210938 C 95.707031 90.210938 90.210938 95.707031 90.210938 102.492188 L 90.210938 197.621094 C 90.210938 204.371094 95.707031 209.863281 102.492188 209.863281 L 197.621094 209.863281 C 204.371094 209.863281 209.898438 204.371094 209.898438 197.585938 L 209.898438 102.492188 C 209.898438 95.742188 204.40625 90.210938 197.65625 90.210938 Z M 102.492188 90.210938 " fill-opacity="1" fill-rule="nonzero"/></g><path fill="#0c0b0b" d="M 162.285156 150.039062 C 162.285156 150.84375 162.207031 151.640625 162.046875 152.425781 C 161.890625 153.214844 161.660156 153.980469 161.351562 154.726562 C 161.042969 155.46875 160.667969 156.171875 160.21875 156.839844 C 159.773438 157.511719 159.265625 158.128906 158.699219 158.699219 C 158.128906 159.265625 157.511719 159.773438 156.84375 160.21875 C 156.171875 160.667969 155.46875 161.042969 154.726562 161.351562 C 153.980469 161.660156 153.214844 161.890625 152.425781 162.046875 C 151.640625 162.207031 150.84375 162.285156 150.039062 162.285156 C 149.234375 162.285156 148.4375 162.207031 147.648438 162.046875 C 146.859375 161.890625 146.09375 161.660156 145.351562 161.351562 C 144.609375 161.042969 143.902344 160.667969 143.234375 160.21875 C 142.566406 159.773438 141.949219 159.265625 141.378906 158.699219 C 140.8125 158.128906 140.304688 157.511719 139.855469 156.839844 C 139.410156 156.171875 139.035156 155.46875 138.726562 154.726562 C 138.417969 153.980469 138.1875 153.214844 138.027344 152.425781 C 137.871094 151.640625 137.792969 150.84375 137.792969 150.039062 C 137.792969 149.234375 137.871094 148.4375 138.027344 147.648438 C 138.1875 146.859375 138.417969 146.09375 138.726562 145.351562 C 139.035156 144.609375 139.410156 143.902344 139.855469 143.234375 C 140.304688 142.566406 140.8125 141.949219 141.378906 141.378906 C 141.949219 140.8125 142.566406 140.304688 143.234375 139.855469 C 143.902344 139.410156 144.609375 139.035156 145.351562 138.726562 C 146.09375 138.417969 146.859375 138.1875 147.648438 138.027344 C 148.4375 137.871094 149.234375 137.792969 150.039062 137.792969 C 150.84375 137.792969 151.640625 137.871094 152.425781 138.027344 C 153.214844 138.1875 153.980469 138.417969 154.726562 138.726562 C 155.46875 139.035156 156.171875 139.410156 156.84375 139.855469 C 157.511719 140.304688 158.128906 140.8125 158.699219 141.378906 C 159.265625 141.949219 159.773438 142.566406 160.21875 143.234375 C 160.667969 143.902344 161.042969 144.609375 161.351562 145.351562 C 161.660156 146.09375 161.890625 146.859375 162.046875 147.648438 C 162.207031 148.4375 162.285156 149.234375 162.285156 150.039062 Z M 162.285156 150.039062 " fill-opacity="1" fill-rule="nonzero"/></svg>