<svg xmlns="http://www.w3.org/2000/svg" xmlns:xlink="http://www.w3.org/1999/xlink" width="400" zoomAndPan="magnify" viewBox="0 0 300 299.999988" height="400" preserveAspectRatio="xMidYMid meet" version="1.0"><defs><clipPath id="93ab90dd64"><path d="M 21.378906 87.414062 L 146.628906 87.414062 L 146.628906 212.664062 L 21.378906 212.664062 Z M 21.378906 87.414062 " clip-rule="nonzero"/></clipPath><clipPath id="5eac9a3abd"><path d="M 159.253906 87.414062 L 284.503906 87.414062 L 284.503906 212.664062 L 159.253906 212.664062 Z M 159.253906 87.414062 " clip-rule="nonzero"/></clipPath></defs><path fill="#ffffff" d="M 131.550781 211.265625 L 36.457031 211.265625 C 28.902344 211.265625 22.777344 205.140625 22.777344 197.585938 L 22.777344 102.492188 C 22.777344 94.9375 28.902344 88.8125 36.457031 88.8125 L 131.585938 88.8125 C 139.105469 88.8125 145.230469 94.9375 145.230469 102.492188 L 145.230469 197.621094 C 145.230469 205.140625 139.105469 211.265625 131.550781 211.265625 Z M 131.550781 211.265625 " fill-opacity="1" fill-rule="nonzero"/><g clip-path="url(#93ab90dd64)"><path fill="#000000" d="M 131.550781 212.664062 L 36.457031 212.664062 C 28.132812 212.664062 21.378906 205.910156 21.378906 197.585938 L 21.378906 102.492188 C 21.378906 94.167969 28.132812 87.414062 36.457031 87.414062 L 131.585938 87.414062 C 139.878906 87.414062 146.628906 94.167969 146.628906 102.492188 L 146.628906 197.621094 C 146.628906 205.910156 139.878906 212.664062 131.550781 212.664062 Z M 36.457031 90.210938 C 29.671875 90.210938 24.179688 95.707031 24.179688 102.492188 L 24.179688 197.621094 C 24.179688 204.371094 29.671875 209.863281 36.457031 209.863281 L 131.585938 209.863281 C 138.335938 209.863281 143.867188 204.371094 143.867188 197.585938 L 143.867188 102.492188 C 143.867188 95.742188 138.371094 90.210938 131.621094 90.210938 Z M 36.457031 90.210938 " fill-opacity="1" fill-rule="nonzero"/></g><path fill="#0c0b0b" d="M 126.164062 120.089844 C 126.164062 120.894531 126.085938 121.691406 125.925781 122.480469 C 125.769531 123.269531 125.539062 124.035156 125.230469 124.777344 C 124.921875 125.519531 124.546875 126.226562 124.097656 126.894531 C 123.652344 127.5625 123.144531 128.179688 122.574219 128.75 C 122.007812 129.316406 121.390625 129.824219 120.71875 130.273438 C 120.050781 130.71875 119.347656 131.097656 118.601562 131.402344 C 117.859375 131.710938 117.09375 131.945312 116.304688 132.101562 C 115.519531 132.257812 114.722656 132.335938 113.917969 132.335938 C 113.113281 132.335938 112.316406 132.257812 111.527344 132.101562 C 110.738281 131.945312 109.972656 131.710938 109.230469 131.402344 C 108.488281 131.097656 107.78125 130.71875 107.113281 130.273438 C 106.445312 129.824219 105.828125 129.316406 105.257812 128.75 C 104.691406 128.179688 104.183594 127.5625 103.734375 126.894531 C 103.289062 126.226562 102.910156 125.519531 102.605469 124.777344 C 102.296875 124.035156 102.0625 123.269531 101.90625 122.480469 C 101.75 121.691406 101.671875 120.894531 101.671875 120.089844 C 101.671875 119.285156 101.75 118.492188 101.90625 117.703125 C 102.0625 116.914062 102.296875 116.148438 102.605469 115.40625 C 102.910156 114.660156 103.289062 113.957031 103.734375 113.289062 C 104.183594 112.621094 104.691406 112 105.257812 111.433594 C 105.828125 110.863281 106.445312 110.355469 107.113281 109.910156 C 107.78125 109.460938 108.488281 109.085938 109.230469 108.777344 C 109.972656 108.46875 110.738281 108.238281 111.527344 108.082031 C 112.316406 107.925781 113.113281 107.84375 113.917969 107.84375 C 114.722656 107.84375 115.519531 107.925781 116.304688 108.082031 C 117.09375 108.238281 117.859375 108.46875 118.601562 108.777344 C 119.347656 109.085938 120.050781 109.460938 120.71875 109.910156 C 121.390625 110.355469 122.007812 110.863281 122.574219 111.433594 C 123.144531 112 123.652344 112.621094 124.097656 113.289062 C 124.546875 113.957031 124.921875 114.660156 125.230469 115.40625 C 125.539062 116.148438 125.769531 116.914062 125.925781 117.703125 C 126.085938 118.492188 126.164062 119.285156 126.164062 120.089844 Z M 126.164062 120.089844 " fill-opacity="1" fill-rule="nonzero"/><path fill="#0c0b0b" d="M 66.300781 179.953125 C 66.300781 180.753906 66.222656 181.550781 66.066406 182.339844 C 65.910156 183.128906 65.675781 183.894531 65.371094 184.636719 C 65.0625 185.378906 64.683594 186.085938 64.238281 186.753906 C 63.789062 187.421875 63.285156 188.042969 62.714844 188.609375 C 62.144531 189.179688 61.527344 189.6875 60.859375 190.132812 C 60.191406 190.578125 59.484375 190.957031 58.742188 191.265625 C 58 191.574219 57.234375 191.804688 56.445312 191.960938 C 55.65625 192.117188 54.859375 192.195312 54.054688 192.195312 C 53.253906 192.195312 52.457031 192.117188 51.667969 191.960938 C 50.878906 191.804688 50.113281 191.574219 49.371094 191.265625 C 48.628906 190.957031 47.921875 190.578125 47.253906 190.132812 C 46.585938 189.6875 45.964844 189.179688 45.398438 188.609375 C 44.828125 188.042969 44.320312 187.421875 43.875 186.753906 C 43.429688 186.085938 43.050781 185.378906 42.742188 184.636719 C 42.4375 183.894531 42.203125 183.128906 42.046875 182.339844 C 41.890625 181.550781 41.8125 180.753906 41.8125 179.953125 C 41.8125 179.148438 41.890625 178.351562 42.046875 177.5625 C 42.203125 176.773438 42.4375 176.007812 42.742188 175.265625 C 43.050781 174.523438 43.429688 173.816406 43.875 173.148438 C 44.320312 172.480469 44.828125 171.863281 45.398438 171.292969 C 45.964844 170.726562 46.585938 170.21875 47.253906 169.769531 C 47.921875 169.324219 48.628906 168.945312 49.371094 168.640625 C 50.113281 168.332031 50.878906 168.097656 51.667969 167.941406 C 52.457031 167.785156 53.253906 167.707031 54.054688 167.707031 C 54.859375 167.707031 55.65625 167.785156 56.445312 167.941406 C 57.234375 168.097656 58 168.332031 58.742188 168.640625 C 59.484375 168.945312 60.191406 169.324219 60.859375 169.769531 C 61.527344 170.21875 62.144531 170.726562 62.714844 171.292969 C 63.285156 171.863281 63.789062 172.480469 64.238281 173.148438 C 64.683594 173.816406 65.0625 174.523438 65.371094 175.265625 C 65.675781 176.007812 65.910156 176.773438 66.066406 177.5625 C 66.222656 178.351562 66.300781 179.148438 66.300781 179.953125 Z M 66.300781 179.953125 " fill-opacity="1" fill-rule="nonzero"/><path fill="#ffffff" d="M 269.425781 211.265625 L 174.332031 211.265625 C 166.773438 211.265625 160.652344 205.140625 160.652344 197.585938 L 160.652344 102.492188 C 160.652344 94.9375 166.773438 88.8125 174.332031 88.8125 L 269.457031 88.8125 C 276.980469 88.8125 283.101562 94.9375 283.101562 102.492188 L 283.101562 197.621094 C 283.101562 205.140625 276.980469 211.265625 269.425781 211.265625 Z M 269.425781 211.265625 " fill-opacity="1" fill-rule="nonzero"/><g clip-path="url(#5eac9a3abd)"><path fill="#010101" d="M 269.425781 212.664062 L 174.332031 212.664062 C 166.003906 212.664062 159.253906 205.910156 159.253906 197.585938 L 159.253906 102.492188 C 159.253906 94.167969 166.003906 87.414062 174.332031 87.414062 L 269.457031 87.414062 C 277.75 87.414062 284.503906 94.167969 284.503906 102.492188 L 284.503906 197.621094 C 284.503906 205.910156 277.75 212.664062 269.425781 212.664062 Z M 174.332031 90.210938 C 167.542969 90.210938 162.050781 95.707031 162.050781 102.492188 L 162.050781 197.621094 C 162.050781 204.371094 167.542969 209.863281 174.332031 209.863281 L 269.457031 209.863281 C 276.210938 209.863281 281.738281 204.371094 281.738281 197.585938 L 281.738281 102.492188 C 281.738281 95.742188 276.246094 90.210938 269.492188 90.210938 Z M 174.332031 90.210938 " fill-opacity="1" fill-rule="nonzero"/></g><path fill="#0c0b0b" d="M 264.035156 120.089844 C 264.035156 113.339844 258.542969 107.84375 251.789062 107.84375 C 245.039062 107.84375 239.546875 113.339844 239.546875 120.089844 C 239.546875 126.84375 245.039062 132.335938 251.789062 132.335938 C 258.542969 132.335938 264.035156 126.878906 264.035156 120.089844 Z M 204.175781 179.953125 C 204.175781 173.199219 198.683594 167.707031 191.929688 167.707031 C 185.175781 167.707031 179.683594 173.199219 179.683594 179.953125 C 179.683594 186.703125 185.175781 192.195312 191.929688 192.195312 C 198.683594 192.195312 204.175781 186.738281 204.175781 179.953125 Z M 234.121094 150.039062 C 234.121094 143.285156 228.628906 137.792969 221.878906 137.792969 C 215.125 137.792969 209.632812 143.285156 209.632812 150.039062 C 209.632812 156.792969 215.125 162.285156 221.878906 162.285156 C 228.628906 162.285156 234.121094 156.792969 234.121094 150.039062 Z M 234.121094 150.039062 " fill-opacity="1" fill-rule="nonzero"/></svg>