<svg xmlns="http://www.w3.org/2000/svg" xmlns:xlink="http://www.w3.org/1999/xlink" width="400" zoomAndPan="magnify" viewBox="0 0 300 299.999988" height="400" preserveAspectRatio="xMidYMid meet" version="1.0"><defs><clipPath id="20aa246f18"><path d="M 87.414062 87.414062 L 212.664062 87.414062 L 212.664062 212.664062 L 87.414062 212.664062 Z M 87.414062 87.414062 " clip-rule="nonzero"/></clipPath></defs><path fill="#ffffff" d="M 197.585938 211.265625 L 102.492188 211.265625 C 94.9375 211.265625 88.8125 205.140625 88.8125 197.585938 L 88.8125 102.492188 C 88.8125 94.9375 94.9375 88.8125 102.492188 88.8125 L 197.621094 88.8125 C 205.140625 88.8125 211.265625 94.9375 211.265625 102.492188 L 211.265625 197.621094 C 211.265625 205.140625 205.140625 211.265625 197.585938 211.265625 Z M 197.585938 211.265625 " fill-opacity="1" fill-rule="nonzero"/><g clip-path="url(#20aa246f18)"><path fill="#010101" d="M 197.585938 212.664062 L 102.492188 212.664062 C 94.167969 212.664062 87.414062 205.910156 87.414062 197.585938 L 87.414062 102.492188 C 87.414062 94.167969 94.167969 87.414062 102.492188 87.414062 L 197.621094 87.414062 C 205.910156 87.414062 212.664062 94.167969 212.664062 102.492188 L 212.664062 197.621094 C 212.664062 205.910156 205.910156 212.664062 197.585938 212.664062 Z M 102.492188 90.210938 C 95.707031 90.210938 90.210938 95.707031 90.210938 102.492188 L 90.210938 197.621094 C 90.210938 204.371094 95.707031 209.863281 102.492188 209.863281 L 197.621094 209.863281 C 204.371094 209.863281 209.898438 204.371094 209.898438 197.585938 L 209.898438 102.492188 C 209.898438 95.742188 204.40625 90.210938 197.65625 90.210938 Z M 102.492188 90.210938 " fill-opacity="1" fill-rule="nonzero"/></g><path fill="#0c0b0b" d="M 192.195312 120.089844 C 192.195312 113.339844 186.703125 107.84375 179.953125 107.84375 C 173.199219 107.84375 167.707031 113.339844 167.707031 120.089844 C 167.707031 126.84375 173.199219 132.335938 179.953125 132.335938 C 186.703125 132.335938 192.195312 126.878906 192.195312 120.089844 Z M 132.335938 179.953125 C 132.335938 173.199219 126.84375 167.707031 120.089844 167.707031 C 113.339844 167.707031 107.84375 173.199219 107.84375 179.953125 C 107.84375 186.703125 113.339844 192.195312 120.089844 192.195312 C 126.84375 192.195312 132.335938 186.738281 132.335938 179.953125 Z M 120.089844 132.335938 C 126.84375 132.335938 132.335938 126.84375 132.335938 120.089844 C 132.335938 113.339844 126.84375 107.84375 120.089844 107.84375 C 113.339844 107.84375 107.84375 113.339844 107.84375 120.089844 C 107.84375 126.84375 113.339844 132.335938 120.089844 132.335938 Z M 179.953125 192.195312 C 186.703125 192.195312 192.195312 186.703125 192.195312 179.953125 C 192.195312 173.199219 186.703125 167.707031 179.953125 167.707031 C 173.199219 167.707031 167.707031 173.199219 167.707031 179.953125 C 167.707031 186.703125 173.199219 192.195312 179.953125 192.195312 Z M 162.285156 150.039062 C 162.285156 143.285156 156.792969 137.792969 150.039062 137.792969 C 143.285156 137.792969 137.792969 143.285156 137.792969 150.039062 C 137.792969 156.792969 143.285156 162.285156 150.039062 162.285156 C 156.792969 162.285156 162.285156 156.792969 162.285156 150.039062 Z M 162.285156 150.039062 " fill-opacity="1" fill-rule="nonzero"/></svg>