<svg xmlns="http://www.w3.org/2000/svg" xmlns:xlink="http://www.w3.org/1999/xlink" width="400" zoomAndPan="magnify" viewBox="0 0 300 299.999988" height="400" preserveAspectRatio="xMidYMid meet" version="1.0"><defs><clipPath id="ec4dffbe9e"><path d="M 21.378906 87.414062 L 146.628906 87.414062 L 146.628906 212.664062 L 21.378906 212.664062 Z M 21.378906 87.414062 " clip-rule="nonzero"/></clipPath><clipPath id="c6a84bedda"><path d="M 159.171875 87.414062 L 284.421875 87.414062 L 284.421875 212.664062 L 159.171875 212.664062 Z M 159.171875 87.414062 " clip-rule="nonzero"/></clipPath></defs><path fill="#ffffff" d="M 131.550781 211.265625 L 36.457031 211.265625 C 28.902344 211.265625 22.777344 205.140625 22.777344 197.585938 L 22.777344 102.492188 C 22.777344 94.9375 28.902344 88.8125 36.457031 88.8125 L 131.585938 88.8125 C 139.105469 88.8125 145.230469 94.9375 145.230469 102.492188 L 145.230469 197.621094 C 145.230469 205.140625 139.105469 211.265625 131.550781 211.265625 Z M 131.550781 211.265625 " fill-opacity="1" fill-rule="nonzero"/><g clip-path="url(#ec4dffbe9e)"><path fill="#000000" d="M 131.550781 212.664062 L 36.457031 212.664062 C 28.132812 212.664062 21.378906 205.910156 21.378906 197.585938 L 21.378906 102.492188 C 21.378906 94.167969 28.132812 87.414062 36.457031 87.414062 L 131.585938 87.414062 C 139.878906 87.414062 146.628906 94.167969 146.628906 102.492188 L 146.628906 197.621094 C 146.628906 205.910156 139.878906 212.664062 131.550781 212.664062 Z M 36.457031 90.210938 C 29.671875 90.210938 24.179688 95.707031 24.179688 102.492188 L 24.179688 197.621094 C 24.179688 204.371094 29.671875 209.863281 36.457031 209.863281 L 131.585938 209.863281 C 138.335938 209.863281 143.867188 204.371094 143.867188 197.585938 L 143.867188 102.492188 C 143.867188 95.742188 138.371094 90.210938 131.621094 90.210938 Z M 36.457031 90.210938 " fill-opacity="1" fill-rule="nonzero"/></g><path fill="#0c0b0b" d="M 96.25 150.039062 C 96.25 150.84375 96.171875 151.640625 96.015625 152.425781 C 95.855469 153.214844 95.625 153.980469 95.316406 154.726562 C 95.007812 155.46875 94.632812 156.171875 94.1875 156.84375 C 93.738281 157.511719 93.230469 158.128906 92.664062 158.699219 C 92.09375 159.265625 91.476562 159.773438 90.808594 160.21875 C 90.140625 160.667969 89.433594 161.042969 88.691406 161.351562 C 87.949219 161.660156 87.183594 161.890625 86.394531 162.046875 C 85.605469 162.207031 84.808594 162.285156 84.003906 162.285156 C 83.199219 162.285156 82.402344 162.207031 81.617188 162.046875 C 80.828125 161.890625 80.0625 161.660156 79.316406 161.351562 C 78.574219 161.042969 77.871094 160.667969 77.203125 160.21875 C 76.53125 159.773438 75.914062 159.265625 75.347656 158.699219 C 74.777344 158.128906 74.269531 157.511719 73.824219 156.84375 C 73.375 156.171875 73 155.46875 72.691406 154.726562 C 72.382812 153.980469 72.152344 153.214844 71.996094 152.425781 C 71.835938 151.640625 71.757812 150.84375 71.757812 150.039062 C 71.757812 149.234375 71.835938 148.4375 71.996094 147.648438 C 72.152344 146.859375 72.382812 146.09375 72.691406 145.351562 C 73 144.609375 73.375 143.90625 73.824219 143.234375 C 74.269531 142.566406 74.777344 141.949219 75.347656 141.378906 C 75.914062 140.8125 76.53125 140.304688 77.203125 139.855469 C 77.871094 139.410156 78.574219 139.035156 79.316406 138.726562 C 80.0625 138.417969 80.828125 138.1875 81.617188 138.027344 C 82.402344 137.871094 83.199219 137.792969 84.003906 137.792969 C 84.808594 137.792969 85.605469 137.871094 86.394531 138.027344 C 87.183594 138.1875 87.949219 138.417969 88.691406 138.726562 C 89.433594 139.035156 90.140625 139.410156 90.808594 139.855469 C 91.476562 140.304688 92.09375 140.8125 92.664062 141.378906 C 93.230469 141.949219 93.738281 142.566406 94.1875 143.234375 C 94.632812 143.90625 95.007812 144.609375 95.316406 145.351562 C 95.625 146.09375 95.855469 146.859375 96.015625 147.648438 C 96.171875 148.4375 96.25 149.234375 96.25 150.039062 Z M 96.25 150.039062 " fill-opacity="1" fill-rule="nonzero"/><path fill="#ffffff" d="M 160.570312 197.585938 L 160.570312 102.492188 C 160.570312 94.9375 166.691406 88.8125 174.25 88.8125 L 269.34375 88.8125 C 276.898438 88.8125 283.019531 94.9375 283.019531 102.492188 L 283.019531 197.621094 C 283.019531 205.140625 276.898438 211.265625 269.34375 211.265625 L 174.214844 211.265625 C 166.691406 211.265625 160.570312 205.140625 160.570312 197.585938 Z M 160.570312 197.585938 " fill-opacity="1" fill-rule="nonzero"/><g clip-path="url(#c6a84bedda)"><path fill="#010101" d="M 159.171875 197.585938 L 159.171875 102.492188 C 159.171875 94.167969 165.921875 87.414062 174.25 87.414062 L 269.34375 87.414062 C 277.667969 87.414062 284.421875 94.167969 284.421875 102.492188 L 284.421875 197.621094 C 284.421875 205.910156 277.667969 212.664062 269.34375 212.664062 L 174.214844 212.664062 C 165.921875 212.664062 159.171875 205.910156 159.171875 197.585938 Z M 281.621094 102.492188 C 281.621094 95.707031 276.128906 90.210938 269.34375 90.210938 L 174.214844 90.210938 C 167.460938 90.210938 161.96875 95.707031 161.96875 102.492188 L 161.96875 197.621094 C 161.96875 204.371094 167.460938 209.898438 174.25 209.898438 L 269.34375 209.898438 C 276.09375 209.898438 281.621094 204.40625 281.621094 197.65625 Z M 281.621094 102.492188 " fill-opacity="1" fill-rule="nonzero"/></g><path fill="#0c0b0b" d="M 251.742188 196.046875 C 258.496094 196.046875 263.988281 190.550781 263.988281 183.800781 C 263.988281 177.046875 258.496094 171.554688 251.742188 171.554688 C 244.992188 171.554688 239.5 177.046875 239.5 183.800781 C 239.5 190.585938 244.957031 196.046875 251.742188 196.046875 Z M 191.882812 128.488281 C 198.636719 128.488281 204.128906 122.996094 204.128906 116.242188 C 204.128906 109.488281 198.636719 103.996094 191.882812 103.996094 C 185.128906 103.996094 179.636719 109.488281 179.636719 116.242188 C 179.636719 122.996094 185.09375 128.488281 191.882812 128.488281 Z M 239.5 116.242188 C 239.5 122.996094 244.992188 128.488281 251.742188 128.488281 C 258.496094 128.488281 263.988281 122.996094 263.988281 116.242188 C 263.988281 109.488281 258.496094 103.996094 251.742188 103.996094 C 244.992188 103.996094 239.5 109.488281 239.5 116.242188 Z M 179.636719 183.800781 C 179.636719 190.550781 185.128906 196.046875 191.882812 196.046875 C 198.636719 196.046875 204.128906 190.550781 204.128906 183.800781 C 204.128906 177.046875 198.636719 171.554688 191.882812 171.554688 C 185.128906 171.554688 179.636719 177.046875 179.636719 183.800781 Z M 251.742188 162.285156 C 258.496094 162.285156 263.988281 156.792969 263.988281 150.039062 C 263.988281 143.285156 258.496094 137.792969 251.742188 137.792969 C 244.992188 137.792969 239.5 143.285156 239.5 150.039062 C 239.5 156.792969 244.957031 162.285156 251.742188 162.285156 Z M 191.882812 162.285156 C 198.636719 162.285156 204.128906 156.792969 204.128906 150.039062 C 204.128906 143.285156 198.636719 137.792969 191.882812 137.792969 C 185.128906 137.792969 179.636719 143.285156 179.636719 150.039062 C 179.636719 156.792969 185.09375 162.285156 191.882812 162.285156 Z M 191.882812 162.285156 " fill-opacity="1" fill-rule="nonzero"/></svg>