<svg xmlns="http://www.w3.org/2000/svg" xmlns:xlink="http://www.w3.org/1999/xlink" width="400" zoomAndPan="magnify" viewBox="0 0 300 299.999988" height="400" preserveAspectRatio="xMidYMid meet" version="1.0"><defs><clipPath id="e6fc243c7d"><path d="M 21.378906 87.414062 L 146.628906 87.414062 L 146.628906 212.664062 L 21.378906 212.664062 Z M 21.378906 87.414062 " clip-rule="nonzero"/></clipPath><clipPath id="daa88040b4"><path d="M 159.253906 87.414062 L 284.503906 87.414062 L 284.503906 212.664062 L 159.253906 212.664062 Z M 159.253906 87.414062 " clip-rule="nonzero"/></clipPath></defs><path fill="#ffffff" d="M 131.550781 211.265625 L 36.457031 211.265625 C 28.902344 211.265625 22.777344 205.140625 22.777344 197.585938 L 22.777344 102.492188 C 22.777344 94.9375 28.902344 88.8125 36.457031 88.8125 L 131.585938 88.8125 C 139.105469 88.8125 145.230469 94.9375 145.230469 102.492188 L 145.230469 197.621094 C 145.230469 205.140625 139.105469 211.265625 131.550781 211.265625 Z M 131.550781 211.265625 " fill-opacity="1" fill-rule="nonzero"/><g clip-path="url(#e6fc243c7d)"><path fill="#010101" d="M 131.550781 212.664062 L 36.457031 212.664062 C 28.132812 212.664062 21.378906 205.910156 21.378906 197.585938 L 21.378906 102.492188 C 21.378906 94.167969 28.132812 87.414062 36.457031 87.414062 L 131.585938 87.414062 C 139.878906 87.414062 146.628906 94.167969 146.628906 102.492188 L 146.628906 197.621094 C 146.628906 205.910156 139.878906 212.664062 131.550781 212.664062 Z M 36.457031 90.210938 C 29.671875 90.210938 24.179688 95.707031 24.179688 102.492188 L 24.179688 197.621094 C 24.179688 204.371094 29.671875 209.863281 36.457031 209.863281 L 131.585938 209.863281 C 138.335938 209.863281 143.867188 204.371094 143.867188 197.585938 L 143.867188 102.492188 C 143.867188 95.742188 138.371094 90.210938 131.621094 90.210938 Z M 36.457031 90.210938 " fill-opacity="1" fill-rule="nonzero"/></g><path fill="#0c0b0b" d="M 126.164062 120.089844 C 126.164062 113.339844 120.667969 107.84375 113.917969 107.84375 C 107.164062 107.84375 101.671875 113.339844 101.671875 120.089844 C 101.671875 126.84375 107.164062 132.335938 113.917969 132.335938 C 120.667969 132.335938 126.164062 126.878906 126.164062 120.089844 Z M 66.300781 179.953125 C 66.300781 173.199219 60.808594 167.707031 54.054688 167.707031 C 47.304688 167.707031 41.8125 173.199219 41.8125 179.953125 C 41.8125 186.703125 47.304688 192.195312 54.054688 192.195312 C 60.808594 192.195312 66.300781 186.738281 66.300781 179.953125 Z M 54.054688 132.335938 C 60.808594 132.335938 66.300781 126.84375 66.300781 120.089844 C 66.300781 113.339844 60.808594 107.84375 54.054688 107.84375 C 47.304688 107.84375 41.8125 113.339844 41.8125 120.089844 C 41.8125 126.84375 47.304688 132.335938 54.054688 132.335938 Z M 113.917969 192.195312 C 120.667969 192.195312 126.164062 186.703125 126.164062 179.953125 C 126.164062 173.199219 120.667969 167.707031 113.917969 167.707031 C 107.164062 167.707031 101.671875 173.199219 101.671875 179.953125 C 101.671875 186.703125 107.164062 192.195312 113.917969 192.195312 Z M 96.25 150.039062 C 96.25 143.285156 90.757812 137.792969 84.003906 137.792969 C 77.253906 137.792969 71.757812 143.285156 71.757812 150.039062 C 71.757812 156.792969 77.253906 162.285156 84.003906 162.285156 C 90.757812 162.285156 96.25 156.792969 96.25 150.039062 Z M 96.25 150.039062 " fill-opacity="1" fill-rule="nonzero"/><path fill="#ffffff" d="M 269.425781 211.265625 L 174.332031 211.265625 C 166.773438 211.265625 160.652344 205.140625 160.652344 197.585938 L 160.652344 102.492188 C 160.652344 94.9375 166.773438 88.8125 174.332031 88.8125 L 269.457031 88.8125 C 276.980469 88.8125 283.101562 94.9375 283.101562 102.492188 L 283.101562 197.621094 C 283.101562 205.140625 276.980469 211.265625 269.425781 211.265625 Z M 269.425781 211.265625 " fill-opacity="1" fill-rule="nonzero"/><g clip-path="url(#daa88040b4)"><path fill="#010101" d="M 269.425781 212.664062 L 174.332031 212.664062 C 166.003906 212.664062 159.253906 205.910156 159.253906 197.585938 L 159.253906 102.492188 C 159.253906 94.167969 166.003906 87.414062 174.332031 87.414062 L 269.457031 87.414062 C 277.75 87.414062 284.503906 94.167969 284.503906 102.492188 L 284.503906 197.621094 C 284.503906 205.910156 277.75 212.664062 269.425781 212.664062 Z M 174.332031 90.210938 C 167.542969 90.210938 162.050781 95.707031 162.050781 102.492188 L 162.050781 197.621094 C 162.050781 204.371094 167.542969 209.863281 174.332031 209.863281 L 269.457031 209.863281 C 276.210938 209.863281 281.738281 204.371094 281.738281 197.585938 L 281.738281 102.492188 C 281.738281 95.742188 276.246094 90.210938 269.492188 90.210938 Z M 174.332031 90.210938 " fill-opacity="1" fill-rule="nonzero"/></g><path fill="#0c0b0b" d="M 264.035156 120.089844 C 264.035156 113.339844 258.542969 107.84375 251.789062 107.84375 C 245.039062 107.84375 239.546875 113.339844 239.546875 120.089844 C 239.546875 126.84375 245.039062 132.335938 251.789062 132.335938 C 258.542969 132.335938 264.035156 126.878906 264.035156 120.089844 Z M 204.175781 179.953125 C 204.175781 173.199219 198.683594 167.707031 191.929688 167.707031 C 185.175781 167.707031 179.683594 173.199219 179.683594 179.953125 C 179.683594 186.703125 185.175781 192.195312 191.929688 192.195312 C 198.683594 192.195312 204.175781 186.738281 204.175781 179.953125 Z M 191.929688 132.335938 C 198.683594 132.335938 204.175781 126.84375 204.175781 120.089844 C 204.175781 113.339844 198.683594 107.84375 191.929688 107.84375 C 185.175781 107.84375 179.683594 113.339844 179.683594 120.089844 C 179.683594 126.84375 185.175781 132.335938 191.929688 132.335938 Z M 251.789062 192.195312 C 258.542969 192.195312 264.035156 186.703125 264.035156 179.953125 C 264.035156 173.199219 258.542969 167.707031 251.789062 167.707031 C 245.039062 167.707031 239.546875 173.199219 239.546875 179.953125 C 239.546875 186.703125 245.039062 192.195312 251.789062 192.195312 Z M 251.789062 192.195312 " fill-opacity="1" fill-rule="nonzero"/></svg>