<svg xmlns="http://www.w3.org/2000/svg" xmlns:xlink="http://www.w3.org/1999/xlink" width="400" zoomAndPan="magnify" viewBox="0 0 300 299.999988" height="400" preserveAspectRatio="xMidYMid meet" version="1.0"><defs><clipPath id="8f3e94cf70"><path d="M 87.414062 87.414062 L 212.664062 87.414062 L 212.664062 212.664062 L 87.414062 212.664062 Z M 87.414062 87.414062 " clip-rule="nonzero"/></clipPath></defs><path fill="#ffffff" d="M 197.585938 211.265625 L 102.492188 211.265625 C 94.9375 211.265625 88.8125 205.140625 88.8125 197.585938 L 88.8125 102.492188 C 88.8125 94.9375 94.9375 88.8125 102.492188 88.8125 L 197.621094 88.8125 C 205.140625 88.8125 211.265625 94.9375 211.265625 102.492188 L 211.265625 197.621094 C 211.265625 205.140625 205.140625 211.265625 197.585938 211.265625 Z M 197.585938 211.265625 " fill-opacity="1" fill-rule="nonzero"/><g clip-path="url(#8f3e94cf70)"><path fill="#000000" d="M 197.585938 212.664062 L 102.492188 212.664062 C 94.167969 212.664062 87.414062 205.910156 87.414062 197.585938 L 87.414062 102.492188 C 87.414062 94.167969 94.167969 87.414062 102.492188 87.414062 L 197.621094 87.414062 C 205.910156 87.414062 212.664062 94.167969 212.664062 102.492188 L 212.664062 197.621094 C 212.664062 205.910156 205.910156 212.664062 197.585938 212.664062 Z M 102.492188 90.210938 C 95.707031 90.210938 90.210938 95.707031 90.210938 102.492188 L 90.210938 197.621094 C 90.210938 204.371094 95.707031 209.863281 102.492188 209.863281 L 197.621094 209.863281 C 204.371094 209.863281 209.898438 204.371094 209.898438 197.585938 L 209.898438 102.492188 C 209.898438 95.742188 204.40625 90.210938 197.65625 90.210938 Z M 102.492188 90.210938 " fill-opacity="1" fill-rule="nonzero"/></g><path fill="#0c0b0b" d="M 192.195312 120.089844 C 192.195312 120.894531 192.117188 121.691406 191.960938 122.480469 C 191.804688 123.269531 191.574219 124.035156 191.265625 124.777344 C 190.957031 125.519531 190.578125 126.226562 190.132812 126.894531 C 189.6875 127.5625 189.179688 128.179688 188.609375 128.75 C 188.042969 129.316406 187.421875 129.824219 186.753906 130.273438 C 186.085938 130.71875 185.378906 131.097656 184.636719 131.402344 C 183.894531 131.710938 183.128906 131.945312 182.339844 132.101562 C 181.550781 132.257812 180.757812 132.335938 179.953125 132.335938 C 179.148438 132.335938 178.351562 132.257812 177.5625 132.101562 C 176.773438 131.945312 176.007812 131.710938 175.265625 131.402344 C 174.523438 131.097656 173.816406 130.71875 173.148438 130.273438 C 172.480469 129.824219 171.863281 129.316406 171.292969 128.75 C 170.726562 128.179688 170.21875 127.5625 169.769531 126.894531 C 169.324219 126.226562 168.945312 125.519531 168.640625 124.777344 C 168.332031 124.035156 168.097656 123.269531 167.941406 122.480469 C 167.785156 121.691406 167.707031 120.894531 167.707031 120.089844 C 167.707031 119.285156 167.785156 118.492188 167.941406 117.703125 C 168.097656 116.914062 168.332031 116.148438 168.640625 115.40625 C 168.945312 114.660156 169.324219 113.957031 169.769531 113.289062 C 170.21875 112.621094 170.726562 112 171.292969 111.433594 C 171.863281 110.863281 172.480469 110.355469 173.148438 109.910156 C 173.816406 109.460938 174.523438 109.085938 175.265625 108.777344 C 176.007812 108.46875 176.773438 108.238281 177.5625 108.082031 C 178.351562 107.925781 179.148438 107.84375 179.953125 107.84375 C 180.757812 107.84375 181.550781 107.925781 182.339844 108.082031 C 183.128906 108.238281 183.894531 108.46875 184.636719 108.777344 C 185.378906 109.085938 186.085938 109.460938 186.753906 109.910156 C 187.421875 110.355469 188.042969 110.863281 188.609375 111.433594 C 189.179688 112 189.6875 112.621094 190.132812 113.289062 C 190.578125 113.957031 190.957031 114.660156 191.265625 115.40625 C 191.574219 116.148438 191.804688 116.914062 191.960938 117.703125 C 192.117188 118.492188 192.195312 119.285156 192.195312 120.089844 Z M 192.195312 120.089844 " fill-opacity="1" fill-rule="nonzero"/><path fill="#0c0b0b" d="M 132.335938 179.953125 C 132.335938 180.757812 132.257812 181.550781 132.101562 182.339844 C 131.945312 183.128906 131.710938 183.894531 131.402344 184.636719 C 131.097656 185.378906 130.71875 186.085938 130.273438 186.753906 C 129.824219 187.421875 129.316406 188.042969 128.75 188.609375 C 128.179688 189.179688 127.5625 189.6875 126.894531 190.132812 C 126.226562 190.578125 125.519531 190.957031 124.777344 191.265625 C 124.035156 191.574219 123.269531 191.804688 122.480469 191.960938 C 121.691406 192.117188 120.894531 192.195312 120.089844 192.195312 C 119.285156 192.195312 118.492188 192.117188 117.703125 191.960938 C 116.914062 191.804688 116.148438 191.574219 115.40625 191.265625 C 114.660156 190.957031 113.957031 190.578125 113.289062 190.132812 C 112.621094 189.6875 112 189.179688 111.433594 188.609375 C 110.863281 188.042969 110.355469 187.421875 109.910156 186.753906 C 109.460938 186.085938 109.085938 185.378906 108.777344 184.636719 C 108.46875 183.894531 108.238281 183.128906 108.082031 182.339844 C 107.925781 181.550781 107.84375 180.757812 107.84375 179.953125 C 107.84375 179.148438 107.925781 178.351562 108.082031 177.5625 C 108.238281 176.773438 108.46875 176.007812 108.777344 175.265625 C 109.085938 174.523438 109.460938 173.816406 109.910156 173.148438 C 110.355469 172.480469 110.863281 171.863281 111.433594 171.292969 C 112 170.726562 112.621094 170.21875 113.289062 169.769531 C 113.957031 169.324219 114.660156 168.945312 115.40625 168.640625 C 116.148438 168.332031 116.914062 168.097656 117.703125 167.941406 C 118.492188 167.785156 119.285156 167.707031 120.089844 167.707031 C 120.894531 167.707031 121.691406 167.785156 122.480469 167.941406 C 123.269531 168.097656 124.035156 168.332031 124.777344 168.640625 C 125.519531 168.945312 126.226562 169.324219 126.894531 169.769531 C 127.5625 170.21875 128.179688 170.726562 128.75 171.292969 C 129.316406 171.863281 129.824219 172.480469 130.273438 173.148438 C 130.71875 173.816406 131.097656 174.523438 131.402344 175.265625 C 131.710938 176.007812 131.945312 176.773438 132.101562 177.5625 C 132.257812 178.351562 132.335938 179.148438 132.335938 179.953125 Z M 132.335938 179.953125 " fill-opacity="1" fill-rule="nonzero"/></svg>