<svg xmlns="http://www.w3.org/2000/svg" xmlns:xlink="http://www.w3.org/1999/xlink" width="400" zoomAndPan="magnify" viewBox="0 0 300 299.999988" height="400" preserveAspectRatio="xMidYMid meet" version="1.0"><defs><clipPath id="5293a6e6fd"><path d="M 87.332031 87.414062 L 212.582031 87.414062 L 212.582031 212.664062 L 87.332031 212.664062 Z M 87.332031 87.414062 " clip-rule="nonzero"/></clipPath></defs><path fill="#ffffff" d="M 88.730469 197.585938 L 88.730469 102.492188 C 88.730469 94.9375 94.855469 88.8125 102.410156 88.8125 L 197.503906 88.8125 C 205.058594 88.8125 211.183594 94.9375 211.183594 102.492188 L 211.183594 197.621094 C 211.183594 205.140625 205.058594 211.265625 197.503906 211.265625 L 102.375 211.265625 C 94.855469 211.265625 88.730469 205.140625 88.730469 197.585938 Z M 88.730469 197.585938 " fill-opacity="1" fill-rule="nonzero"/><g clip-path="url(#5293a6e6fd)"><path fill="#010101" d="M 87.332031 197.585938 L 87.332031 102.492188 C 87.332031 94.167969 94.085938 87.414062 102.410156 87.414062 L 197.503906 87.414062 C 205.828125 87.414062 212.582031 94.167969 212.582031 102.492188 L 212.582031 197.621094 C 212.582031 205.910156 205.828125 212.664062 197.503906 212.664062 L 102.375 212.664062 C 94.085938 212.664062 87.332031 205.910156 87.332031 197.585938 Z M 209.78125 102.492188 C 209.78125 95.707031 204.289062 90.210938 197.503906 90.210938 L 102.375 90.210938 C 95.625 90.210938 90.128906 95.707031 90.128906 102.492188 L 90.128906 197.621094 C 90.128906 204.371094 95.625 209.898438 102.410156 209.898438 L 197.503906 209.898438 C 204.253906 209.898438 209.78125 204.40625 209.78125 197.65625 Z M 209.78125 102.492188 " fill-opacity="1" fill-rule="nonzero"/></g><path fill="#0c0b0b" d="M 179.90625 196.046875 C 186.65625 196.046875 192.148438 190.550781 192.148438 183.800781 C 192.148438 177.046875 186.65625 171.554688 179.90625 171.554688 C 173.152344 171.554688 167.660156 177.046875 167.660156 183.800781 C 167.660156 190.585938 173.117188 196.046875 179.90625 196.046875 Z M 120.042969 128.488281 C 126.796875 128.488281 132.289062 122.996094 132.289062 116.242188 C 132.289062 109.488281 126.796875 103.996094 120.042969 103.996094 C 113.292969 103.996094 107.796875 109.488281 107.796875 116.242188 C 107.796875 122.996094 113.257812 128.488281 120.042969 128.488281 Z M 167.660156 116.242188 C 167.660156 122.996094 173.152344 128.488281 179.90625 128.488281 C 186.65625 128.488281 192.148438 122.996094 192.148438 116.242188 C 192.148438 109.488281 186.65625 103.996094 179.90625 103.996094 C 173.152344 103.996094 167.660156 109.488281 167.660156 116.242188 Z M 107.796875 183.800781 C 107.796875 190.550781 113.292969 196.046875 120.042969 196.046875 C 126.796875 196.046875 132.289062 190.550781 132.289062 183.800781 C 132.289062 177.046875 126.796875 171.554688 120.042969 171.554688 C 113.292969 171.554688 107.796875 177.046875 107.796875 183.800781 Z M 179.90625 162.285156 C 186.65625 162.285156 192.148438 156.792969 192.148438 150.039062 C 192.148438 143.285156 186.65625 137.792969 179.90625 137.792969 C 173.152344 137.792969 167.660156 143.285156 167.660156 150.039062 C 167.660156 156.792969 173.117188 162.285156 179.90625 162.285156 Z M 120.042969 162.285156 C 126.796875 162.285156 132.289062 156.792969 132.289062 150.039062 C 132.289062 143.285156 126.796875 137.792969 120.042969 137.792969 C 113.292969 137.792969 107.796875 143.285156 107.796875 150.039062 C 107.796875 156.792969 113.257812 162.285156 120.042969 162.285156 Z M 120.042969 162.285156 " fill-opacity="1" fill-rule="nonzero"/></svg>