<svg xmlns="http://www.w3.org/2000/svg" xmlns:xlink="http://www.w3.org/1999/xlink" width="400" zoomAndPan="magnify" viewBox="0 0 300 299.999988" height="400" preserveAspectRatio="xMidYMid meet" version="1.0"><defs><clipPath id="cdbe5e3bde"><path d="M 21.296875 87.414062 L 146.546875 87.414062 L 146.546875 212.664062 L 21.296875 212.664062 Z M 21.296875 87.414062 " clip-rule="nonzero"/></clipPath><clipPath id="780532cfdf"><path d="M 159.253906 87.414062 L 284.503906 87.414062 L 284.503906 212.664062 L 159.253906 212.664062 Z M 159.253906 87.414062 " clip-rule="nonzero"/></clipPath></defs><path fill="#ffffff" d="M 22.695312 197.585938 L 22.695312 102.492188 C 22.695312 94.9375 28.820312 88.8125 36.375 88.8125 L 131.46875 88.8125 C 139.023438 88.8125 145.148438 94.9375 145.148438 102.492188 L 145.148438 197.621094 C 145.148438 205.140625 139.023438 211.265625 131.46875 211.265625 L 36.339844 211.265625 C 28.820312 211.265625 22.695312 205.140625 22.695312 197.585938 Z M 22.695312 197.585938 " fill-opacity="1" fill-rule="nonzero"/><g clip-path="url(#cdbe5e3bde)"><path fill="#010101" d="M 21.296875 197.585938 L 21.296875 102.492188 C 21.296875 94.167969 28.050781 87.414062 36.375 87.414062 L 131.46875 87.414062 C 139.796875 87.414062 146.546875 94.167969 146.546875 102.492188 L 146.546875 197.621094 C 146.546875 205.910156 139.796875 212.664062 131.46875 212.664062 L 36.339844 212.664062 C 28.050781 212.664062 21.296875 205.910156 21.296875 197.585938 Z M 143.75 102.492188 C 143.75 95.707031 138.253906 90.210938 131.46875 90.210938 L 36.339844 90.210938 C 29.589844 90.210938 24.097656 95.707031 24.097656 102.492188 L 24.097656 197.621094 C 24.097656 204.371094 29.589844 209.898438 36.375 209.898438 L 131.46875 209.898438 C 138.21875 209.898438 143.75 204.40625 143.75 197.65625 Z M 143.75 102.492188 " fill-opacity="1" fill-rule="nonzero"/></g><path fill="#0c0b0b" d="M 113.871094 196.046875 C 120.621094 196.046875 126.117188 190.550781 126.117188 183.800781 C 126.117188 177.046875 120.621094 171.554688 113.871094 171.554688 C 107.117188 171.554688 101.625 177.046875 101.625 183.800781 C 101.625 190.585938 107.082031 196.046875 113.871094 196.046875 Z M 54.007812 128.488281 C 60.761719 128.488281 66.253906 122.996094 66.253906 116.242188 C 66.253906 109.488281 60.761719 103.996094 54.007812 103.996094 C 47.257812 103.996094 41.765625 109.488281 41.765625 116.242188 C 41.765625 122.996094 47.222656 128.488281 54.007812 128.488281 Z M 101.625 116.242188 C 101.625 122.996094 107.117188 128.488281 113.871094 128.488281 C 120.621094 128.488281 126.117188 122.996094 126.117188 116.242188 C 126.117188 109.488281 120.621094 103.996094 113.871094 103.996094 C 107.117188 103.996094 101.625 109.488281 101.625 116.242188 Z M 41.765625 183.800781 C 41.765625 190.550781 47.257812 196.046875 54.007812 196.046875 C 60.761719 196.046875 66.253906 190.550781 66.253906 183.800781 C 66.253906 177.046875 60.761719 171.554688 54.007812 171.554688 C 47.257812 171.554688 41.765625 177.046875 41.765625 183.800781 Z M 113.871094 162.285156 C 120.621094 162.285156 126.117188 156.792969 126.117188 150.039062 C 126.117188 143.285156 120.621094 137.792969 113.871094 137.792969 C 107.117188 137.792969 101.625 143.285156 101.625 150.039062 C 101.625 156.792969 107.082031 162.285156 113.871094 162.285156 Z M 54.007812 162.285156 C 60.761719 162.285156 66.253906 156.792969 66.253906 150.039062 C 66.253906 143.285156 60.761719 137.792969 54.007812 137.792969 C 47.257812 137.792969 41.765625 143.285156 41.765625 150.039062 C 41.765625 156.792969 47.222656 162.285156 54.007812 162.285156 Z M 54.007812 162.285156 " fill-opacity="1" fill-rule="nonzero"/><path fill="#ffffff" d="M 269.425781 211.265625 L 174.332031 211.265625 C 166.773438 211.265625 160.652344 205.140625 160.652344 197.585938 L 160.652344 102.492188 C 160.652344 94.9375 166.773438 88.8125 174.332031 88.8125 L 269.457031 88.8125 C 276.980469 88.8125 283.101562 94.9375 283.101562 102.492188 L 283.101562 197.621094 C 283.101562 205.140625 276.980469 211.265625 269.425781 211.265625 Z M 269.425781 211.265625 " fill-opacity="1" fill-rule="nonzero"/><g clip-path="url(#780532cfdf)"><path fill="#000000" d="M 269.425781 212.664062 L 174.332031 212.664062 C 166.003906 212.664062 159.253906 205.910156 159.253906 197.585938 L 159.253906 102.492188 C 159.253906 94.167969 166.003906 87.414062 174.332031 87.414062 L 269.457031 87.414062 C 277.75 87.414062 284.503906 94.167969 284.503906 102.492188 L 284.503906 197.621094 C 284.503906 205.910156 277.75 212.664062 269.425781 212.664062 Z M 174.332031 90.210938 C 167.542969 90.210938 162.050781 95.707031 162.050781 102.492188 L 162.050781 197.621094 C 162.050781 204.371094 167.542969 209.863281 174.332031 209.863281 L 269.457031 209.863281 C 276.210938 209.863281 281.738281 204.371094 281.738281 197.585938 L 281.738281 102.492188 C 281.738281 95.742188 276.246094 90.210938 269.492188 90.210938 Z M 174.332031 90.210938 " fill-opacity="1" fill-rule="nonzero"/></g><path fill="#0c0b0b" d="M 234.121094 150.039062 C 234.121094 150.84375 234.042969 151.640625 233.886719 152.425781 C 233.730469 153.214844 233.5 153.980469 233.191406 154.726562 C 232.882812 155.46875 232.507812 156.171875 232.058594 156.839844 C 231.613281 157.511719 231.105469 158.128906 230.535156 158.699219 C 229.96875 159.265625 229.347656 159.773438 228.679688 160.21875 C 228.011719 160.667969 227.308594 161.042969 226.5625 161.351562 C 225.820312 161.660156 225.054688 161.890625 224.265625 162.046875 C 223.476562 162.207031 222.683594 162.285156 221.878906 162.285156 C 221.074219 162.285156 220.277344 162.207031 219.488281 162.046875 C 218.699219 161.890625 217.933594 161.660156 217.191406 161.351562 C 216.449219 161.042969 215.742188 160.667969 215.074219 160.21875 C 214.40625 159.773438 213.789062 159.265625 213.21875 158.699219 C 212.652344 158.128906 212.144531 157.511719 211.695312 156.839844 C 211.25 156.171875 210.871094 155.46875 210.566406 154.726562 C 210.257812 153.980469 210.023438 153.214844 209.867188 152.425781 C 209.710938 151.640625 209.632812 150.84375 209.632812 150.039062 C 209.632812 149.234375 209.710938 148.4375 209.867188 147.648438 C 210.023438 146.859375 210.257812 146.09375 210.566406 145.351562 C 210.871094 144.609375 211.25 143.902344 211.695312 143.234375 C 212.144531 142.566406 212.652344 141.949219 213.21875 141.378906 C 213.789062 140.8125 214.40625 140.304688 215.074219 139.855469 C 215.742188 139.410156 216.449219 139.035156 217.191406 138.726562 C 217.933594 138.417969 218.699219 138.1875 219.488281 138.027344 C 220.277344 137.871094 221.074219 137.792969 221.878906 137.792969 C 222.683594 137.792969 223.476562 137.871094 224.265625 138.027344 C 225.054688 138.1875 225.820312 138.417969 226.5625 138.726562 C 227.308594 139.035156 228.011719 139.410156 228.679688 139.855469 C 229.347656 140.304688 229.96875 140.8125 230.535156 141.378906 C 231.105469 141.949219 231.613281 142.566406 232.058594 143.234375 C 232.507812 143.902344 232.882812 144.609375 233.191406 145.351562 C 233.5 146.09375 233.730469 146.859375 233.886719 147.648438 C 234.042969 148.4375 234.121094 149.234375 234.121094 150.039062 Z M 234.121094 150.039062 " fill-opacity="1" fill-rule="nonzero"/></svg>