<svg xmlns="http://www.w3.org/2000/svg" xmlns:xlink="http://www.w3.org/1999/xlink" width="400" zoomAndPan="magnify" viewBox="0 0 300 299.999988" height="400" preserveAspectRatio="xMidYMid meet" version="1.0"><defs><clipPath id="549ea7c8ae"><path d="M 21.378906 87.414062 L 146.628906 87.414062 L 146.628906 212.664062 L 21.378906 212.664062 Z M 21.378906 87.414062 " clip-rule="nonzero"/></clipPath><clipPath id="ecc68289b3"><path d="M 159.253906 87.414062 L 284.503906 87.414062 L 284.503906 212.664062 L 159.253906 212.664062 Z M 159.253906 87.414062 " clip-rule="nonzero"/></clipPath></defs><path fill="#ffffff" d="M 131.550781 211.265625 L 36.457031 211.265625 C 28.902344 211.265625 22.777344 205.140625 22.777344 197.585938 L 22.777344 102.492188 C 22.777344 94.9375 28.902344 88.8125 36.457031 88.8125 L 131.585938 88.8125 C 139.105469 88.8125 145.230469 94.9375 145.230469 102.492188 L 145.230469 197.621094 C 145.230469 205.140625 139.105469 211.265625 131.550781 211.265625 Z M 131.550781 211.265625 " fill-opacity="1" fill-rule="nonzero"/><g clip-path="url(#549ea7c8ae)"><path fill="#000000" d="M 131.550781 212.664062 L 36.457031 212.664062 C 28.132812 212.664062 21.378906 205.910156 21.378906 197.585938 L 21.378906 102.492188 C 21.378906 94.167969 28.132812 87.414062 36.457031 87.414062 L 131.585938 87.414062 C 139.878906 87.414062 146.628906 94.167969 146.628906 102.492188 L 146.628906 197.621094 C 146.628906 205.910156 139.878906 212.664062 131.550781 212.664062 Z M 36.457031 90.210938 C 29.671875 90.210938 24.179688 95.707031 24.179688 102.492188 L 24.179688 197.621094 C 24.179688 204.371094 29.671875 209.863281 36.457031 209.863281 L 131.585938 209.863281 C 138.335938 209.863281 143.867188 204.371094 143.867188 197.585938 L 143.867188 102.492188 C 143.867188 95.742188 138.371094 90.210938 131.621094 90.210938 Z M 36.457031 90.210938 " fill-opacity="1" fill-rule="nonzero"/></g><path fill="#0c0b0b" d="M 96.25 150.039062 C 96.25 150.84375 96.171875 151.640625 96.015625 152.425781 C 95.855469 153.214844 95.625 153.980469 95.316406 154.726562 C 95.007812 155.46875 94.632812 156.171875 94.1875 156.84375 C 93.738281 157.511719 93.230469 158.128906 92.664062 158.699219 C 92.09375 159.265625 91.476562 159.773438 90.808594 160.21875 C 90.140625 160.667969 89.433594 161.042969 88.691406 161.351562 C 87.949219 161.660156 87.183594 161.890625 86.394531 162.046875 C 85.605469 162.207031 84.808594 162.285156 84.003906 162.285156 C 83.199219 162.285156 82.402344 162.207031 81.617188 162.046875 C 80.828125 161.890625 80.0625 161.660156 79.316406 161.351562 C 78.574219 161.042969 77.871094 160.667969 77.203125 160.21875 C 76.53125 159.773438 75.914062 159.265625 75.347656 158.699219 C 74.777344 158.128906 74.269531 157.511719 73.824219 156.84375 C 73.375 156.171875 73 155.46875 72.691406 154.726562 C 72.382812 153.980469 72.152344 153.214844 71.996094 152.425781 C 71.835938 151.640625 71.757812 150.84375 71.757812 150.039062 C 71.757812 149.234375 71.835938 148.4375 71.996094 147.648438 C 72.152344 146.859375 72.382812 146.09375 72.691406 145.351562 C 73 144.609375 73.375 143.90625 73.824219 143.234375 C 74.269531 142.566406 74.777344 141.949219 75.347656 141.378906 C 75.914062 140.8125 76.53125 140.304688 77.203125 139.855469 C 77.871094 139.410156 78.574219 139.035156 79.316406 138.726562 C 80.0625 138.417969 80.828125 138.1875 81.617188 138.027344 C 82.402344 137.871094 83.199219 137.792969 84.003906 137.792969 C 84.808594 137.792969 85.605469 137.871094 86.394531 138.027344 C 87.183594 138.1875 87.949219 138.417969 88.691406 138.726562 C 89.433594 139.035156 90.140625 139.410156 90.808594 139.855469 C 91.476562 140.304688 92.09375 140.8125 92.664062 141.378906 C 93.230469 141.949219 93.738281 142.566406 94.1875 143.234375 C 94.632812 143.90625 95.007812 144.609375 95.316406 145.351562 C 95.625 146.09375 95.855469 146.859375 96.015625 147.648438 C 96.171875 148.4375 96.25 149.234375 96.25 150.039062 Z M 96.25 150.039062 " fill-opacity="1" fill-rule="nonzero"/><path fill="#ffffff" d="M 269.425781 211.265625 L 174.332031 211.265625 C 166.773438 211.265625 160.652344 205.140625 160.652344 197.585938 L 160.652344 102.492188 C 160.652344 94.9375 166.773438 88.8125 174.332031 88.8125 L 269.457031 88.8125 C 276.980469 88.8125 283.101562 94.9375 283.101562 102.492188 L 283.101562 197.621094 C 283.101562 205.140625 276.980469 211.265625 269.425781 211.265625 Z M 269.425781 211.265625 " fill-opacity="1" fill-rule="nonzero"/><g clip-path="url(#ecc68289b3)"><path fill="#000000" d="M 269.425781 212.664062 L 174.332031 212.664062 C 166.003906 212.664062 159.253906 205.910156 159.253906 197.585938 L 159.253906 102.492188 C 159.253906 94.167969 166.003906 87.414062 174.332031 87.414062 L 269.457031 87.414062 C 277.75 87.414062 284.503906 94.167969 284.503906 102.492188 L 284.503906 197.621094 C 284.503906 205.910156 277.75 212.664062 269.425781 212.664062 Z M 174.332031 90.210938 C 167.542969 90.210938 162.050781 95.707031 162.050781 102.492188 L 162.050781 197.621094 C 162.050781 204.371094 167.542969 209.863281 174.332031 209.863281 L 269.457031 209.863281 C 276.210938 209.863281 281.738281 204.371094 281.738281 197.585938 L 281.738281 102.492188 C 281.738281 95.742188 276.246094 90.210938 269.492188 90.210938 Z M 174.332031 90.210938 " fill-opacity="1" fill-rule="nonzero"/></g><path fill="#0c0b0b" d="M 234.121094 150.039062 C 234.121094 150.84375 234.042969 151.640625 233.886719 152.425781 C 233.730469 153.214844 233.5 153.980469 233.191406 154.726562 C 232.882812 155.46875 232.507812 156.171875 232.058594 156.84375 C 231.613281 157.511719 231.105469 158.128906 230.535156 158.699219 C 229.96875 159.265625 229.347656 159.773438 228.679688 160.21875 C 228.011719 160.667969 227.308594 161.042969 226.5625 161.351562 C 225.820312 161.660156 225.054688 161.890625 224.265625 162.046875 C 223.476562 162.207031 222.683594 162.285156 221.878906 162.285156 C 221.074219 162.285156 220.277344 162.207031 219.488281 162.046875 C 218.699219 161.890625 217.933594 161.660156 217.191406 161.351562 C 216.449219 161.042969 215.742188 160.667969 215.074219 160.21875 C 214.40625 159.773438 213.789062 159.265625 213.21875 158.699219 C 212.652344 158.128906 212.144531 157.511719 211.695312 156.84375 C 211.25 156.171875 210.871094 155.46875 210.566406 154.726562 C 210.257812 153.980469 210.023438 153.214844 209.867188 152.425781 C 209.710938 151.640625 209.632812 150.84375 209.632812 150.039062 C 209.632812 149.234375 209.710938 148.4375 209.867188 147.648438 C 210.023438 146.859375 210.257812 146.09375 210.566406 145.351562 C 210.871094 144.609375 211.25 143.90625 211.695312 143.234375 C 212.144531 142.566406 212.652344 141.949219 213.21875 141.378906 C 213.789062 140.8125 214.40625 140.304688 215.074219 139.855469 C 215.742188 139.410156 216.449219 139.035156 217.191406 138.726562 C 217.933594 138.417969 218.699219 138.1875 219.488281 138.027344 C 220.277344 137.871094 221.074219 137.792969 221.878906 137.792969 C 222.683594 137.792969 223.476562 137.871094 224.265625 138.027344 C 225.054688 138.1875 225.820312 138.417969 226.5625 138.726562 C 227.308594 139.035156 228.011719 139.410156 228.679688 139.855469 C 229.347656 140.304688 229.96875 140.8125 230.535156 141.378906 C 231.105469 141.949219 231.613281 142.566406 232.058594 143.234375 C 232.507812 143.90625 232.882812 144.609375 233.191406 145.351562 C 233.5 146.09375 233.730469 146.859375 233.886719 147.648438 C 234.042969 148.4375 234.121094 149.234375 234.121094 150.039062 Z M 234.121094 150.039062 " fill-opacity="1" fill-rule="nonzero"/></svg>