<svg xmlns="http://www.w3.org/2000/svg" xmlns:xlink="http://www.w3.org/1999/xlink" width="400" zoomAndPan="magnify" viewBox="0 0 300 299.999988" height="400" preserveAspectRatio="xMidYMid meet" version="1.0"><defs><clipPath id="5c221cea25"><path d="M 21.296875 87.414062 L 146.546875 87.414062 L 146.546875 212.664062 L 21.296875 212.664062 Z M 21.296875 87.414062 " clip-rule="nonzero"/></clipPath><clipPath id="aca89598bb"><path d="M 159.253906 87.414062 L 284.503906 87.414062 L 284.503906 212.664062 L 159.253906 212.664062 Z M 159.253906 87.414062 " clip-rule="nonzero"/></clipPath></defs><path fill="#ffffff" d="M 22.695312 197.585938 L 22.695312 102.492188 C 22.695312 94.9375 28.820312 88.8125 36.375 88.8125 L 131.46875 88.8125 C 139.023438 88.8125 145.148438 94.9375 145.148438 102.492188 L 145.148438 197.621094 C 145.148438 205.140625 139.023438 211.265625 131.46875 211.265625 L 36.339844 211.265625 C 28.820312 211.265625 22.695312 205.140625 22.695312 197.585938 Z M 22.695312 197.585938 " fill-opacity="1" fill-rule="nonzero"/><g clip-path="url(#5c221cea25)"><path fill="#010101" d="M 21.296875 197.585938 L 21.296875 102.492188 C 21.296875 94.167969 28.050781 87.414062 36.375 87.414062 L 131.46875 87.414062 C 139.796875 87.414062 146.546875 94.167969 146.546875 102.492188 L 146.546875 197.621094 C 146.546875 205.910156 139.796875 212.664062 131.46875 212.664062 L 36.339844 212.664062 C 28.050781 212.664062 21.296875 205.910156 21.296875 197.585938 Z M 143.75 102.492188 C 143.75 95.707031 138.253906 90.210938 131.46875 90.210938 L 36.339844 90.210938 C 29.589844 90.210938 24.097656 95.707031 24.097656 102.492188 L 24.097656 197.621094 C 24.097656 204.371094 29.589844 209.898438 36.375 209.898438 L 131.46875 209.898438 C 138.21875 209.898438 143.75 204.40625 143.75 197.65625 Z M 143.75 102.492188 " fill-opacity="1" fill-rule="nonzero"/></g><path fill="#0c0b0b" d="M 113.871094 196.046875 C 120.621094 196.046875 126.117188 190.550781 126.117188 183.800781 C 126.117188 177.046875 120.621094 171.554688 113.871094 171.554688 C 107.117188 171.554688 101.625 177.046875 101.625 183.800781 C 101.625 190.585938 107.082031 196.046875 113.871094 196.046875 Z M 54.007812 128.488281 C 60.761719 128.488281 66.253906 122.996094 66.253906 116.242188 C 66.253906 109.488281 60.761719 103.996094 54.007812 103.996094 C 47.257812 103.996094 41.765625 109.488281 41.765625 116.242188 C 41.765625 122.996094 47.222656 128.488281 54.007812 128.488281 Z M 101.625 116.242188 C 101.625 122.996094 107.117188 128.488281 113.871094 128.488281 C 120.621094 128.488281 126.117188 122.996094 126.117188 116.242188 C 126.117188 109.488281 120.621094 103.996094 113.871094 103.996094 C 107.117188 103.996094 101.625 109.488281 101.625 116.242188 Z M 41.765625 183.800781 C 41.765625 190.550781 47.257812 196.046875 54.007812 196.046875 C 60.761719 196.046875 66.253906 190.550781 66.253906 183.800781 C 66.253906 177.046875 60.761719 171.554688 54.007812 171.554688 C 47.257812 171.554688 41.765625 177.046875 41.765625 183.800781 Z M 113.871094 162.285156 C 120.621094 162.285156 126.117188 156.792969 126.117188 150.039062 C 126.117188 143.285156 120.621094 137.792969 113.871094 137.792969 C 107.117188 137.792969 101.625 143.285156 101.625 150.039062 C 101.625 156.792969 107.082031 162.285156 113.871094 162.285156 Z M 54.007812 162.285156 C 60.761719 162.285156 66.253906 156.792969 66.253906 150.039062 C 66.253906 143.285156 60.761719 137.792969 54.007812 137.792969 C 47.257812 137.792969 41.765625 143.285156 41.765625 150.039062 C 41.765625 156.792969 47.222656 162.285156 54.007812 162.285156 Z M 54.007812 162.285156 " fill-opacity="1" fill-rule="nonzero"/><path fill="#ffffff" d="M 269.425781 211.265625 L 174.332031 211.265625 C 166.773438 211.265625 160.652344 205.140625 160.652344 197.585938 L 160.652344 102.492188 C 160.652344 94.9375 166.773438 88.8125 174.332031 88.8125 L 269.457031 88.8125 C 276.980469 88.8125 283.101562 94.9375 283.101562 102.492188 L 283.101562 197.621094 C 283.101562 205.140625 276.980469 211.265625 269.425781 211.265625 Z M 269.425781 211.265625 " fill-opacity="1" fill-rule="nonzero"/><g clip-path="url(#aca89598bb)"><path fill="#000000" d="M 269.425781 212.664062 L 174.332031 212.664062 C 166.003906 212.664062 159.253906 205.910156 159.253906 197.585938 L 159.253906 102.492188 C 159.253906 94.167969 166.003906 87.414062 174.332031 87.414062 L 269.457031 87.414062 C 277.75 87.414062 284.503906 94.167969 284.503906 102.492188 L 284.503906 197.621094 C 284.503906 205.910156 277.75 212.664062 269.425781 212.664062 Z M 174.332031 90.210938 C 167.542969 90.210938 162.050781 95.707031 162.050781 102.492188 L 162.050781 197.621094 C 162.050781 204.371094 167.542969 209.863281 174.332031 209.863281 L 269.457031 209.863281 C 276.210938 209.863281 281.738281 204.371094 281.738281 197.585938 L 281.738281 102.492188 C 281.738281 95.742188 276.246094 90.210938 269.492188 90.210938 Z M 174.332031 90.210938 " fill-opacity="1" fill-rule="nonzero"/></g><path fill="#0c0b0b" d="M 264.035156 120.089844 C 264.035156 120.894531 263.957031 121.691406 263.800781 122.480469 C 263.644531 123.269531 263.410156 124.035156 263.105469 124.777344 C 262.796875 125.519531 262.417969 126.226562 261.972656 126.894531 C 261.527344 127.5625 261.019531 128.179688 260.449219 128.75 C 259.882812 129.316406 259.261719 129.824219 258.59375 130.273438 C 257.925781 130.71875 257.21875 131.097656 256.476562 131.402344 C 255.734375 131.710938 254.96875 131.945312 254.179688 132.101562 C 253.390625 132.257812 252.59375 132.335938 251.789062 132.335938 C 250.988281 132.335938 250.191406 132.257812 249.402344 132.101562 C 248.613281 131.945312 247.847656 131.710938 247.105469 131.402344 C 246.363281 131.097656 245.65625 130.71875 244.988281 130.273438 C 244.320312 129.824219 243.699219 129.316406 243.132812 128.75 C 242.5625 128.179688 242.054688 127.5625 241.609375 126.894531 C 241.164062 126.226562 240.785156 125.519531 240.476562 124.777344 C 240.171875 124.035156 239.9375 123.269531 239.78125 122.480469 C 239.625 121.691406 239.546875 120.894531 239.546875 120.089844 C 239.546875 119.285156 239.625 118.492188 239.78125 117.703125 C 239.9375 116.914062 240.171875 116.148438 240.476562 115.40625 C 240.785156 114.660156 241.164062 113.957031 241.609375 113.289062 C 242.054688 112.621094 242.5625 112 243.132812 111.433594 C 243.699219 110.863281 244.320312 110.355469 244.988281 109.910156 C 245.65625 109.460938 246.363281 109.085938 247.105469 108.777344 C 247.847656 108.46875 248.613281 108.238281 249.402344 108.082031 C 250.191406 107.925781 250.988281 107.84375 251.789062 107.84375 C 252.59375 107.84375 253.390625 107.925781 254.179688 108.082031 C 254.96875 108.238281 255.734375 108.46875 256.476562 108.777344 C 257.21875 109.085938 257.925781 109.460938 258.59375 109.910156 C 259.261719 110.355469 259.882812 110.863281 260.449219 111.433594 C 261.019531 112 261.527344 112.621094 261.972656 113.289062 C 262.417969 113.957031 262.796875 114.660156 263.105469 115.40625 C 263.410156 116.148438 263.644531 116.914062 263.800781 117.703125 C 263.957031 118.492188 264.035156 119.285156 264.035156 120.089844 Z M 264.035156 120.089844 " fill-opacity="1" fill-rule="nonzero"/><path fill="#0c0b0b" d="M 204.175781 179.953125 C 204.175781 180.753906 204.097656 181.550781 203.941406 182.339844 C 203.78125 183.128906 203.550781 183.894531 203.242188 184.636719 C 202.933594 185.378906 202.558594 186.085938 202.109375 186.753906 C 201.664062 187.421875 201.15625 188.042969 200.589844 188.609375 C 200.019531 189.179688 199.402344 189.6875 198.734375 190.132812 C 198.0625 190.578125 197.359375 190.957031 196.617188 191.265625 C 195.871094 191.574219 195.105469 191.804688 194.320312 191.960938 C 193.53125 192.117188 192.734375 192.195312 191.929688 192.195312 C 191.125 192.195312 190.328125 192.117188 189.539062 191.960938 C 188.753906 191.804688 187.988281 191.574219 187.242188 191.265625 C 186.5 190.957031 185.796875 190.578125 185.125 190.132812 C 184.457031 189.6875 183.839844 189.179688 183.269531 188.609375 C 182.703125 188.042969 182.195312 187.421875 181.75 186.753906 C 181.300781 186.085938 180.925781 185.378906 180.617188 184.636719 C 180.308594 183.894531 180.078125 183.128906 179.921875 182.339844 C 179.761719 181.550781 179.683594 180.753906 179.683594 179.953125 C 179.683594 179.148438 179.761719 178.351562 179.921875 177.5625 C 180.078125 176.773438 180.308594 176.007812 180.617188 175.265625 C 180.925781 174.523438 181.300781 173.816406 181.75 173.148438 C 182.195312 172.480469 182.703125 171.863281 183.269531 171.292969 C 183.839844 170.726562 184.457031 170.21875 185.125 169.769531 C 185.796875 169.324219 186.5 168.945312 187.242188 168.640625 C 187.988281 168.332031 188.753906 168.097656 189.539062 167.941406 C 190.328125 167.785156 191.125 167.707031 191.929688 167.707031 C 192.734375 167.707031 193.53125 167.785156 194.320312 167.941406 C 195.105469 168.097656 195.871094 168.332031 196.617188 168.640625 C 197.359375 168.945312 198.0625 169.324219 198.734375 169.769531 C 199.402344 170.21875 200.019531 170.726562 200.589844 171.292969 C 201.15625 171.863281 201.664062 172.480469 202.109375 173.148438 C 202.558594 173.816406 202.933594 174.523438 203.242188 175.265625 C 203.550781 176.007812 203.78125 176.773438 203.941406 177.5625 C 204.097656 178.351562 204.175781 179.148438 204.175781 179.953125 Z M 204.175781 179.953125 " fill-opacity="1" fill-rule="nonzero"/></svg>